<svg xmlns="http://www.w3.org/2000/svg" width="250" height="150.73"><g data-name="グループ 18930"><path data-name="パス 331733" d="M0 55.35h250" fill="none" stroke="#897d76" stroke-width="4"/><g data-name="グループ 18846"><g data-name="グループ 17696" fill="#3b3938"><path data-name="パス 331839" d="M201.258 107.196h8.925v3.66c0 .36-.09.4-.675.4-.54 0-1.29-.06-2.28-.165a5.772 5.772 0 01.465 1.625c.585.03 1.41.06 1.995.06a3.689 3.689 0 001.575-.21c.435-.225.615-.645.615-1.41v-9.61a14.762 14.762 0 01.06-1.635 13.751 13.751 0 01-1.635.06h-9.12a16.115 16.115 0 01-1.67-.065 12.923 12.923 0 01.06 1.44v9.81a14.248 14.248 0 01-.09 1.8h1.85a11.026 11.026 0 01-.075-1.74zm3.555-1.575h-3.555v-4.065h3.555zm1.62 0v-4.065h3.75v4.065z"/><path data-name="パス 331840" d="M44.641 101.034c2.9 0 6.8-.084 6.8 4.368a4.546 4.546 0 01-4.788 4.62c-3.444 0-5.04-2.6-5.166-5.8h-5.67c-.122 6.766 4.33 10.714 10.924 10.714 5.754 0 10.92-3.486 10.92-9.66a6.568 6.568 0 00-5.208-6.678v-.084c2.73-.756 4.116-3.234 4.116-6.006 0-5.25-5.166-8.148-9.87-8.148-6.048 0-9.954 4.158-10.164 10.164h5.67c-.042-3.024 1.554-5.25 4.536-5.25a3.9 3.9 0 014.158 3.906c0 3.36-3.7 3.864-6.258 3.654zm36.54-16.086H61.109v5.544h13.94a42.949 42.949 0 00-9.87 23.856h6.384c.084-7.854 3.444-18.9 9.618-24.276zm9.24 20.5c0-3.024 2.31-4.662 5.208-4.662a4.752 4.752 0 015.04 4.7 4.832 4.832 0 01-5.04 4.956 4.955 4.955 0 01-5.208-4.994zm-4.746-13.062a5.864 5.864 0 004.326 6.048v.084a6.989 6.989 0 00-5.544 7.22c0 6.342 5.5 9.2 11.172 9.2 5.46 0 11-3.066 11-9.24 0-3.7-2.016-6.384-5.5-7.182v-.084a6.17 6.17 0 004.284-6.174c0-2.856-2.52-7.9-9.828-7.9-4.786.002-9.91 2.732-9.91 8.024zm5.418.546c0-2.6 2.1-4.074 4.494-4.074 3.7 0 4.41 2.562 4.41 4.074 0 2.52-1.974 3.864-4.41 3.864-2.394-.004-4.494-1.306-4.494-3.868zm19.74 21.416h3.024a3.835 3.835 0 01-2.982 3.948v3.024c3.612-.546 6.552-3.108 6.552-6.972v-6.468h-6.594zm11.046-14.826c0 11.718 4.956 15.414 10.752 15.414 5.88 0 10.836-3.7 10.836-15.414 0-11.466-4.956-15.162-10.836-15.162-5.796 0-10.752 3.696-10.752 15.162zm5.964 0c0-3.066 0-10.248 4.788-10.248 4.872 0 4.872 7.182 4.872 10.248 0 3.318 0 10.5-4.872 10.5-4.788 0-4.788-7.182-4.788-10.5zm18.438 0c0 11.718 4.956 15.414 10.752 15.414 5.88 0 10.836-3.7 10.836-15.414 0-11.466-4.956-15.162-10.836-15.162-5.796 0-10.752 3.696-10.752 15.162zm5.964 0c0-3.066 0-10.248 4.788-10.248 4.872 0 4.872 7.182 4.872 10.248 0 3.318 0 10.5-4.872 10.5-4.788 0-4.788-7.182-4.788-10.5zm18.438 0c0 11.718 4.956 15.414 10.752 15.414 5.88 0 10.836-3.7 10.836-15.414 0-11.466-4.956-15.162-10.836-15.162-5.796 0-10.752 3.696-10.752 15.162zm5.964 0c0-3.066 0-10.248 4.788-10.248 4.872 0 4.872 7.182 4.872 10.248 0 3.318 0 10.5-4.872 10.5-4.788 0-4.788-7.182-4.788-10.5z"/></g></g><path data-name="パス 331841" d="M28.822 27.796a9.422 9.422 0 011.144-.066c1.958-.022 2.816-.044 5.038-.11a4.964 4.964 0 01-.748 1.364h-4.62a18.844 18.844 0 01-2.574-.132v2.31c.7-.066 1.628-.11 2.618-.11h2.53a14.285 14.285 0 01-5.654 2.464 5.663 5.663 0 011.386 1.958c3.718-1.364 5.544-2.442 7.392-4.422h3.08a15.418 15.418 0 007.678 4.862 5.443 5.443 0 011.232-2.156 12 12 0 01-6.094-2.71h3.014a25.876 25.876 0 012.6.11v-2.31a18.061 18.061 0 01-2.618.132h-7.348c.33-.594.462-.858.748-1.474 2.134-.132 3.212-.2 4.73-.374l1.3 1.474 1.958-1.188a34.559 34.559 0 00-4.928-4.29l-1.848.968c.9.66 1.166.858 1.848 1.408-1.914.154-2.376.176-6.116.242.638-.748 1.254-1.584 1.8-2.354a3.218 3.218 0 01.2-.286l-2.574-.55a14.51 14.51 0 01-2.134 3.212c-1.518-.022-2.64-.066-3.344-.132zm13.992 8.646a9.612 9.612 0 01-2.288 1.782 24.033 24.033 0 01-10.758 3.124 6.563 6.563 0 011.122 2.112 29.273 29.273 0 009.174-2.6 24.161 24.161 0 004.73-3.1zM37.446 31.8a8.166 8.166 0 01-1.54 1.188 16.279 16.279 0 01-6.49 2.178 4.915 4.915 0 011.078 1.892 20.8 20.8 0 005.654-1.87 27.473 27.473 0 003.19-1.958zm2.486 2.288a7.922 7.922 0 01-2.132 1.54 22.441 22.441 0 01-8.4 2.552 4.981 4.981 0 011.166 1.98 26.426 26.426 0 006.358-1.8 21.046 21.046 0 004.95-2.948zm17.4-3.124a42.532 42.532 0 01-8.756 3.608A7.718 7.718 0 0149.9 36.64a47.689 47.689 0 004.95-2.112 29.411 29.411 0 01-2.07 4.686l2.486.4a16.028 16.028 0 00.7-1.474h7.678a5.275 5.275 0 01-.568 2.218c-.242.374-.55.484-1.364.484a26.908 26.908 0 01-3.674-.308 5.809 5.809 0 01.572 2.376c1.078.088 2.376.154 3.014.154 2.2 0 3.058-.33 3.586-1.32a12.776 12.776 0 00.946-4.488c.044-.374.11-.9.132-1.034.044-.2.044-.2.066-.286a16.94 16.94 0 01-2.288.088h-7.282q.3-.759.33-.858a92.541 92.541 0 007.48-.792c.44-.066 2.618-.484 2.926-.55L65.98 31.8a9.391 9.391 0 01-2.112.572 50.183 50.183 0 01-6.138.77l.022-.132a29.221 29.221 0 003.3-2.046h5.06a22.177 22.177 0 012.684.132v-2.4a18.568 18.568 0 01-2.662.132H63.78a31.708 31.708 0 003.784-3.74c.154-.176.176-.2.308-.33l-2.156-1.452a13.7 13.7 0 01-2.442 3.124v-1.672a17.623 17.623 0 01-2.486.132h-1.694v-.242a9.438 9.438 0 01.132-1.8h-2.64a8.88 8.88 0 01.132 1.8v.242H53.7a17.41 17.41 0 01-2.486-.132v2.376a23.508 23.508 0 012.486-.086h3.014v1.782H51.9a20.67 20.67 0 01-2.838-.132v2.4a24.263 24.263 0 012.838-.132zm1.76-2.134v-1.782h1.936c.748 0 1.012 0 1.562.044a29.093 29.093 0 01-2.09 1.738zm15.334-4.84a13.89 13.89 0 01.088 1.98v6.05a15.865 15.865 0 01-.11 1.98h3.014a10.619 10.619 0 01-.088-1.936v-6.072a11.182 11.182 0 01.088-1.98zm9.922.044a11.585 11.585 0 01.11 2.09v2.75c0 1.76-.022 2.728-.11 3.674-.242 2.9-.968 4.246-3.036 5.61a11.867 11.867 0 01-4.752 1.76 7.516 7.516 0 011.54 2.618 18.609 18.609 0 004.29-1.694 8.426 8.426 0 004.334-5.126 25.985 25.985 0 00.576-6.668v-2.97a10.435 10.435 0 01.11-2.046zm25.586 1.056a8.04 8.04 0 01-2.354.22h-10.1a15.5 15.5 0 01-2.816-.154v2.86a17.465 17.465 0 012.772-.132h10.472a15.243 15.243 0 01-6.666 9.592 17.9 17.9 0 01-4.818 2.244 8.1 8.1 0 011.94 2.618 21.42 21.42 0 008.184-5.61c2.112-2.376 3.41-5.016 4.51-9.218a3.309 3.309 0 01.374-.99zm14.654 7.326a16.27 16.27 0 01-3.212 3.608 19.313 19.313 0 01-4.73 2.97 6.907 6.907 0 011.628 2.068 21 21 0 007.126-5.808 8.638 8.638 0 00.75-1.232c0 .264-.022 1.122-.022 1.364l.022 5.5a13.656 13.656 0 01-.088 1.8h2.684a10.067 10.067 0 01-.132-1.87l-.114-8.378h1.9a15.956 15.956 0 012 .088v-2.378a9.464 9.464 0 01-1.98.132h-1.92l-.022-1.452a10.166 10.166 0 01.066-1.65h-2.57a11.446 11.446 0 01.11 1.738v1.342h-6.4a9.464 9.464 0 01-1.984-.13v2.376a16.476 16.476 0 011.98-.088zM137.5 34.44a24.151 24.151 0 013.586-.11h11.684a24.151 24.151 0 013.586.11v-3.058a21.6 21.6 0 01-3.564.154h-11.726a21.6 21.6 0 01-3.566-.154zm28.16-10.934a34.8 34.8 0 01-1.606 6.094c-1.144 3.608-2.024 6.094-3.19 8.866a42.46 42.46 0 01-1.892.066h-.572l.4 2.97a12.034 12.034 0 012-.264c6.578-.638 10.23-1.1 12.452-1.562.506-.11.506-.11.792-.176a22.53 22.53 0 011.056 2.728l2.662-1.386a51.46 51.46 0 00-5.324-10.186l-2.486.968a27.314 27.314 0 012.09 3.5c.528.99.792 1.474 1.034 2a86.947 86.947 0 01-9.152 1.124 130.664 130.664 0 004.356-12.54 6.734 6.734 0 01.572-1.584zm27.94 5.456v-.77h2.97c.792 0 1.452.022 2.156.066a10.266 10.266 0 01-.066-1.562v-.88a11.283 11.283 0 01.088-1.716 20.044 20.044 0 01-2.156.11H193.6a6.428 6.428 0 01.11-1.386h-2.4a6.069 6.069 0 01.11 1.386h-2.46a11.373 11.373 0 01.088-1.386h-2.354a8.46 8.46 0 01.088 1.386h-3.63a13 13 0 01-2.112-.11v1.914a12.5 12.5 0 012.112-.11h3.564c0 .242-.022.242-.066.77h-2.882c-.88 0-1.408-.022-1.848-.066a13.482 13.482 0 01-1.276 4 60.581 60.581 0 011.826-.044h2.442c-1.166.9-2.244 1.3-5.038 1.892a5.322 5.322 0 01.88 1.562l.176.4c.858-.264 1.166-.352 1.76-.572v4.092c0 .946-.044 1.8-.088 2.2.506-.044 1.386-.066 2.332-.066h1.034a17.136 17.136 0 01-5.874 1.518 8.9 8.9 0 011.342 1.914 17.988 17.988 0 006.952-2.53l-1.1-.9h5.72l-1.21.9a17.746 17.746 0 007.172 2.508 10.768 10.768 0 011.364-1.98 14.948 14.948 0 01-6.006-1.43h1.056c.9 0 1.87.022 2.332.066a22.1 22.1 0 01-.088-2.332v-5.058c1.5-.088 1.848-.506 2.112-2.354.132-1.122.132-1.122.2-1.5-.506.044-.9.066-1.87.066zm1.872 2.686H193.6v-1.08h3.872c-.066.594-.154.682-.594.682a5.019 5.019 0 01-1.232-.2 2.469 2.469 0 01.22.594zm-4.048 0h-4.774a4.955 4.955 0 00.99-1.078h3.784zm-5.016-3.454c-.11.33-.154.462-.264.77h-2.6a5.1 5.1 0 00.264-.77zm5.016 0v.77h-3.014c.088-.33.11-.44.2-.77zm0-2.288v.77h-2.574c.022-.352.044-.462.044-.77zm2.178 0h2.772v.77H193.6zm-8.646 7.26h10.384v.77h-10.384zm0 2.178h10.384v.814h-10.384zm0 2.222h10.384v.814h-10.384zm26.158-1.318v3.63a18.123 18.123 0 01-.132 2.6h2.6a19.319 19.319 0 01-.11-2.618v-3.612h5.28v3.85c0 .462-.2.55-1.1.55-.7 0-1.672-.066-2.772-.176a8.9 8.9 0 01.616 2.288c.66.044 1.782.088 2.464.088 2.508 0 3.168-.462 3.168-2.288V26.102c0-1.188.022-1.738.088-2.486a24.465 24.465 0 01-2.53.088H206.34c-1.188 0-1.76-.022-2.53-.088a29.719 29.719 0 01.11 3.19c0 2.6-.088 5.72-.2 7.568a22.26 22.26 0 01-.44 3.366 10.061 10.061 0 01-1.604 3.718 13.235 13.235 0 012.134 1.738 14.769 14.769 0 002.244-6.948zm0-2.178h-4.906c0-.44 0-.594.022-1.628 0-.308.022-.748.022-1.386h4.862zm2.354 0v-3.022h5.28v3.014zm-2.354-5.17H206.3l.022-.616v-2.266h4.8zm2.354 0v-2.882h5.28V28.9z" fill="#2e3032"/><path data-name="パス 331842" d="M77.348 150.73a9.288 9.288 0 01-1.948-2.688 8.643 8.643 0 01-.826-3.794 8.643 8.643 0 01.826-3.794 9.288 9.288 0 011.948-2.686H75.92a9.863 9.863 0 00-1.62 2.448 9.317 9.317 0 00-.9 4.032 9.317 9.317 0 00.9 4.032 9.863 9.863 0 001.624 2.45zm6.9-11.606h-4.1a11.5 11.5 0 01-1.512-.084v1.092a13.663 13.663 0 011.456-.07h1.68a7.082 7.082 0 01.644 1.582H80.54c-.5 0-1.064-.028-1.344-.056a9.944 9.944 0 01.056 1.162v6.318a12.369 12.369 0 01-.084 1.582h1.218a12.218 12.218 0 01-.086-1.582v-6.5h2.618a2.453 2.453 0 01-.336 1.106 4 4 0 01-2.2 1.386 3.654 3.654 0 01.63.84 4.526 4.526 0 002.538-1.988 3.447 3.447 0 00.42-1.344h1.512v1.512c0 .686.294.826 1.806.826s1.764-.2 1.918-1.456a3.124 3.124 0 01-.854-.35c-.07.938-.07.938-1.022.938-.728 0-.84-.042-.84-.28v-1.19h2.94v6.594c0 .308-.112.378-.6.378a14.013 14.013 0 01-1.806-.154 3.672 3.672 0 01.276 1.106c.658.028 1.176.042 1.54.042 1.29 0 1.64-.266 1.64-1.26v-6.524a8.786 8.786 0 01.056-1.162 9.678 9.678 0 01-1.3.056h-2.058a11.2 11.2 0 00.77-1.582h1.764a13.466 13.466 0 011.456.07v-1.092a10.842 10.842 0 01-1.5.084h-4.34v-.546a5.156 5.156 0 01.084-.924h-1.246a4.931 4.931 0 01.084.924zm-.714 2.52a12.011 12.011 0 00-.63-1.582h3.878a6.05 6.05 0 01-.728 1.582zm3.948 4.9a8.548 8.548 0 01.058-1.106 11.707 11.707 0 01-1.246.042h-2.968c-.518 0-.812-.014-1.19-.042a6.135 6.135 0 01.056.938v2.17a5.67 5.67 0 01-.07 1.022h1.05v-.686h3.108a10.485 10.485 0 011.26.056 9.158 9.158 0 01-.056-1.176zm-4.3-.182H86.5v1.624h-3.318zm11.76-4.424a10.582 10.582 0 01-.052 1.23 13.441 13.441 0 011.47-.056h5a13.278 13.278 0 011.47.056 10.087 10.087 0 01-.056-1.246V139.5a9.4 9.4 0 01.056-1.19 10.8 10.8 0 01-1.582.07h-4.774a11.779 11.779 0 01-1.582-.07 9.98 9.98 0 01.056 1.19zm1.064-2.59h5.684v2.814h-5.68zm-3.034 9.842a9.649 9.649 0 01-.07 1.47h1.12v-.84h3.01v.588h1.078a10.558 10.558 0 01-.056-1.34v-3.378a9.021 9.021 0 01.046-1.288c-.35.028-.672.042-1.106.042h-2.758a12.17 12.17 0 01-1.316-.056 12.9 12.9 0 01.056 1.344zm1.036-3.808h3.024v3.5h-3.024zm5.348 3.948a10.732 10.732 0 01-.056 1.33h1.078v-.84h3.322v.84h1.12a9.1 9.1 0 01-.07-1.47v-3.444a12.336 12.336 0 01.05-1.358 9.183 9.183 0 01-1.218.056h-3.162c-.462 0-.77-.014-1.106-.042a8.284 8.284 0 01.042 1.176zm1.022-3.948h3.332v3.5h-3.332zm17.346-2.9c.476-.042.868-.07 1.134-.07.028 0 .112 0 .28.014l-.07-1.176a8.415 8.415 0 01-1.442.224l-3.22.308a25.036 25.036 0 01-.154-2.674 5.873 5.873 0 01.056-.952l-1.246.014a12.449 12.449 0 01.084 1.4c.014.644.07 1.512.154 2.31l-1.652.168a11.89 11.89 0 01-1.12.056h-.322l.042 1.162a10.2 10.2 0 011.4-.2l1.778-.168a15.119 15.119 0 001.162 4.164c.938 2.016 2.324 3.472 3.304 3.472.826 0 1.246-.77 1.568-2.9a4.211 4.211 0 01-.98-.686 9.939 9.939 0 01-.294 1.836c-.112.35-.21.476-.378.476-.322 0-1.008-.7-1.61-1.61a11.565 11.565 0 01-1.652-4.858zm-9.282 6.47a10.966 10.966 0 01-.1 1.708h1.26a14.6 14.6 0 01-.084-1.68v-7.518a20.679 20.679 0 001.232-2.674l.2-.49-1.162-.406a7.6 7.6 0 01-.588 1.876 12.148 12.148 0 01-3.052 4.312 2.857 2.857 0 01.63 1.022 9.555 9.555 0 001.722-2.1c-.042.532-.056 1.05-.056 1.694zm6.748-10.136a14.3 14.3 0 012.142 2.2l.812-.756a18.408 18.408 0 00-2.226-2.092zm9.884 7.476h3.374v-1.148h-3.374v-3.36h-1.162v3.36h-3.36v1.148h3.36v3.36h1.162zm10.374-5.894v7.826h-3.822a11.909 11.909 0 01-1.722-.1v1.29a12.357 12.357 0 011.708-.1h9.128a11.575 11.575 0 011.708.1v-1.288a11.7 11.7 0 01-1.708.1h-4.1v-7.828h3.29a14 14 0 011.666.084v-1.246a13.518 13.518 0 01-1.666.084h-7.478a13 13 0 01-1.68-.084v1.246a13.839 13.839 0 011.666-.084zm14.1 5.264h-4.2a7.786 7.786 0 01-1.512-.084v1.008a10.156 10.156 0 011.526-.07h4.186v.91h-3.418a10.844 10.844 0 01-1.344-.058v1a9.569 9.569 0 011.372-.07h3.388v1.004c0 .294-.126.364-.616.364a12.962 12.962 0 01-1.778-.14 2.639 2.639 0 01.294 1.022c.616.042 1.036.056 1.33.056 1.456 0 1.764-.224 1.764-1.26v-1.05h3.57v.56h1.09a7.4 7.4 0 01-.084-1.428v-.91a8.2 8.2 0 011.414.07v-1.008a7.785 7.785 0 01-1.414.084v-.546a11.616 11.616 0 01.044-1.218 12.96 12.96 0 01-1.54.056h-3.08v-.786h3.248a8.639 8.639 0 011.12.056 6.7 6.7 0 01-.056-.952v-.7a6.906 6.906 0 01.056-.966 8.826 8.826 0 01-1.148.062h-3.22v-.8h4.242a12.523 12.523 0 011.582.084v-1.05a10.916 10.916 0 01-1.638.084h-4.186a4.345 4.345 0 01.1-1.19h-1.178a5.454 5.454 0 01.084 1.19h-3.99a10.916 10.916 0 01-1.638-.084v1.05a12.455 12.455 0 011.6-.084h4.032v.8h-2.972a9.061 9.061 0 01-1.162-.056 7.172 7.172 0 01.056.966v.7a6.7 6.7 0 01-.056.952 8.965 8.965 0 011.148-.062h2.982v.784h-3.3a8.06 8.06 0 01-1.344-.07v.98a12 12 0 011.316-.056h3.332zm.994 0v-.854h3.57v.854zm0 .854h3.57v.91h-3.572zm-.994-5.04v.9h-3.054v-.9zm.994 0h3.29v.9h-3.292zm18.478 1.008c.476-.042.868-.07 1.134-.07.028 0 .112 0 .28.014l-.07-1.176a8.415 8.415 0 01-1.442.224l-3.22.308a25.035 25.035 0 01-.154-2.674 5.874 5.874 0 01.056-.952l-1.246.014a12.449 12.449 0 01.084 1.4c.014.644.07 1.512.154 2.31l-1.652.168a11.89 11.89 0 01-1.12.056h-.324l.044 1.162a10.2 10.2 0 011.4-.2l1.778-.168a15.119 15.119 0 001.162 4.158c.938 2.02 2.324 3.476 3.304 3.476.826 0 1.246-.77 1.568-2.9a4.211 4.211 0 01-.98-.686 9.939 9.939 0 01-.294 1.834c-.112.35-.21.476-.378.476-.322 0-1.008-.7-1.61-1.61a11.565 11.565 0 01-1.652-4.858zm-9.282 6.468a10.966 10.966 0 01-.1 1.708h1.262a14.6 14.6 0 01-.084-1.68v-7.518a20.679 20.679 0 001.232-2.674l.2-.49-1.162-.406a7.6 7.6 0 01-.592 1.876 12.148 12.148 0 01-3.052 4.312 2.857 2.857 0 01.63 1.022 9.555 9.555 0 001.722-2.1c-.042.532-.056 1.05-.056 1.694zm6.748-10.136a14.3 14.3 0 012.142 2.2l.812-.756a18.408 18.408 0 00-2.226-2.092zm6.608 11.914a10.177 10.177 0 001.61-2.45 9.272 9.272 0 00.9-4.032 9.272 9.272 0 00-.9-4.032 10.177 10.177 0 00-1.61-2.45h-1.442a9.288 9.288 0 011.948 2.688 8.557 8.557 0 01.826 3.794 8.557 8.557 0 01-.826 3.794 9.288 9.288 0 01-1.946 2.688z" fill="#2e3032"/><path data-name="パス 331843" d="M57.86 12.468c0 .464-.08.512-.864.512a14.963 14.963 0 01-2.08-.176 5.96 5.96 0 01.5 1.824c.64.032 1.12.048 1.552.048 1.5 0 2.08-.128 2.432-.576.192-.24.24-.48.24-1.152V3.776a13.73 13.73 0 01.064-1.552 13.877 13.877 0 01-1.824.08H53.8c.016-.256.016-.256.032-.592.032-.656.032-.656.048-.88a3.777 3.777 0 01.1-.8h-2a8.3 8.3 0 01.1 1.408c0 .272 0 .5-.016.864h-3.92a15.2 15.2 0 01-1.856-.08 14.1 14.1 0 01.064 1.552v9.12a13.428 13.428 0 01-.112 1.936h1.96a13.2 13.2 0 01-.08-1.9v-3.1a5.993 5.993 0 011.02 1.336 9.175 9.175 0 003.04-2.832 7.119 7.119 0 00.768-1.52A11.9 11.9 0 0056.8 10.88a6.1 6.1 0 011.056-1.5zm0-8.56v5.3a10.8 10.8 0 01-2.512-1.88 9.4 9.4 0 01-1.808-2.66c.048-.288.064-.368.112-.768zm-9.744 0h3.792a8.157 8.157 0 01-1.136 3.328 7.272 7.272 0 01-2.656 2.4zm24.336 6.36a17.8 17.8 0 012.528 3.94l1.5-1.04A20.509 20.509 0 0074.2 9.84l1.344-.96A23.038 23.038 0 0072.1 5.696c2.032-.016 2.448-.176 2.72-.992h1.248a11.26 11.26 0 01-.064-1.28V2.4a7.438 7.438 0 01.064-1.168c-.5.048-.992.064-1.76.064h-4.592v-.288A5.982 5.982 0 0169.796 0h-1.92a4.584 4.584 0 01.1 1.008v.288h-4.288c-.768 0-1.264-.016-1.76-.064a8.117 8.117 0 01.064 1.168v1.04a8.376 8.376 0 01-.068 1.228h1.744V2.796h2.9a2.176 2.176 0 01-.9 1.168 8.2 8.2 0 01-3.232 1.152 5.283 5.283 0 01.928 1.392 8.379 8.379 0 003.936-1.98 3.031 3.031 0 00.992-1.728h1.152v1.856c0 .832.336 1.008 2.144 1.04l-1.088.64c.64.512.88.7 1.248 1.04-.832.08-2.624.16-4.384.208A21.919 21.919 0 0069.14 5.2l-1.84-.448a14.8 14.8 0 01-1.92 2.88c-.992.016-1.52.016-1.6.016-.576 0-.832-.016-1.232-.048l.24 1.776c.464-.048.736-.064.928-.064 3.3-.112 6.544-.336 9.312-.656.32.352.432.512.752.9zm-1.376-7.472h3.248v.832a5.688 5.688 0 01-.928-.24c-.048.912-.1.976-.864.976a9.24 9.24 0 01-1.2-.048c-.208-.032-.256-.08-.256-.272zM63.108 14.32a11.322 11.322 0 001.936-3.936l-1.536-.656a7.884 7.884 0 01-.768 1.94 7.817 7.817 0 01-1.072 1.52zm2.544-4.576a6.753 6.753 0 01.08 1.264v2.144c0 1.184.576 1.472 3.008 1.472 2.464 0 3.136-.064 3.648-.352.56-.3.736-.8.912-2.512a7.13 7.13 0 01-1.664-.48c-.016.88-.1 1.408-.256 1.552-.224.192-.688.24-2.624.24a3.832 3.832 0 01-1.056-.08c-.24-.064-.288-.144-.288-.5v-1.66a6.588 6.588 0 01.064-1.088zm5.648 1.472a9.57 9.57 0 00-1.824-2.08l-1.408.768a8.713 8.713 0 011.792 2.272zM89.2.576a12.8 12.8 0 01-2.972 2.992 23.367 23.367 0 01-8.4 4.16A6.018 6.018 0 0178.9 9.552a25.923 25.923 0 005.712-2.592v5.632a9 9 0 01-.1 1.728h2.24a12.1 12.1 0 01-.08-1.776V5.712a28.294 28.294 0 003.776-3.3 6.59 6.59 0 01.592-.56zm5.728 2.72a16.8 16.8 0 014.08 3.248l1.376-1.744a22.661 22.661 0 00-4.128-3.088zm.56 10.56a5.664 5.664 0 011.06-.272 17.282 17.282 0 006.1-2.4 14.042 14.042 0 005.072-6.272 6.9 6.9 0 01-1.7-1.568 13.36 13.36 0 01-1.632 3.2 10.69 10.69 0 01-4.752 3.924 15.246 15.246 0 01-4.736 1.18zm17.28-11.92a10.963 10.963 0 01-2.048-.112v2.08a11.527 11.527 0 012.016-.1h7.616A11.6 11.6 0 01112 12.416a5.888 5.888 0 011.408 1.9A14.35 14.35 0 00122.6 3.712a2.186 2.186 0 00.3.032 1.857 1.857 0 001.856-1.856A1.854 1.854 0 00122.9.048a1.844 1.844 0 00-1.84 1.856c-.272.016-.464.032-.944.032zM122.9.848a1.042 1.042 0 011.056 1.04 1.055 1.055 0 01-1.056 1.056 1.052 1.052 0 01-1.04-1.056 1.038 1.038 0 011.04-1.04zm5.312 2.112a12.3 12.3 0 011.84-.08h5.648a12.3 12.3 0 011.84.08V.992a9.1 9.1 0 01-1.872.112h-5.584a9.1 9.1 0 01-1.872-.112zm10.144 1.856a7 7 0 01-1.808.144h-7.616a11.357 11.357 0 01-2.08-.112V6.8a16.277 16.277 0 012.048-.08h7.792a8.325 8.325 0 01-2.576 3.748 10.391 10.391 0 01-4.448 2.108 5.575 5.575 0 011.248 1.856 14.238 14.238 0 004.192-2.176 11.314 11.314 0 003.712-5.408 7.214 7.214 0 01.448-1.008zm16.592 7.616c-1.936-1.872-1.936-1.872-2.336-2.224a24.8 24.8 0 00-2.96-2.32 21.19 21.19 0 002.5-4.416 3.077 3.077 0 01.512-.864L151.6 1.52a3.466 3.466 0 01-1.424.176l-5.632.08h-.384a7 7 0 01-1.408-.1l.068 2.052a12.609 12.609 0 011.744-.128c5.04-.08 5.04-.08 5.3-.1l-.176.416a15.422 15.422 0 01-5.376 6.512 13.21 13.21 0 01-3.2 1.76 6.418 6.418 0 011.288 1.78 19.014 19.014 0 006.1-4.624 30.757 30.757 0 014.912 4.752zm10.32-9.12a3.5 3.5 0 011.616.48 3.964 3.964 0 011.968 3.552 4.48 4.48 0 01-2.224 4 8.5 8.5 0 01-3.184.88 5.1 5.1 0 01.976 1.872 10.46 10.46 0 002.512-.672 6.164 6.164 0 003.888-5.968c0-3.6-2.5-5.936-6.336-5.936a7.182 7.182 0 00-5.5 2.24 6.873 6.873 0 00-1.76 4.656c0 2.576 1.312 4.432 3.136 4.432 1.312 0 2.336-.944 3.248-3.008a23.147 23.147 0 001.66-6.528zm-1.952.016a21.087 21.087 0 01-1.328 5.408c-.576 1.376-1.12 2.048-1.648 2.048-.7 0-1.264-1.04-1.264-2.352a5.357 5.357 0 012.176-4.32 4.073 4.073 0 012.064-.784zm17.072 6.624a8.307 8.307 0 01-3.712 2.288 3.956 3.956 0 011.024 1.216 9.634 9.634 0 004.432-3.5h.96a7.141 7.141 0 01-1.664 2.128 9.775 9.775 0 01-2.912 1.724 4.36 4.36 0 011.152 1.216 11.507 11.507 0 002.64-1.756 3.862 3.862 0 01.432 1.472c.624.032.912.048 1.344.048 1.408 0 1.92-.208 2.24-.944a13.909 13.909 0 00.656-4.356 9.3 9.3 0 01.064-.944c-.464.032-.768.048-1.552.048H180.4a5.723 5.723 0 00.432-.656h4.9A15.655 15.655 0 01187.38 8V6.4a10.608 10.608 0 01-1.664.1h-6.992a8.9 8.9 0 01-1.5-.08v1.6a11.448 11.448 0 011.488-.08h.352a6.319 6.319 0 01-1.9 1.616v-1.1c-.512.288-.64.368-1.072.592v-3.44h.3a8.283 8.283 0 011.12.064v-1.68a6.866 6.866 0 01-1.136.064h-.288V2.088a10.779 10.779 0 01.1-1.792h-1.864a12.617 12.617 0 01.1 1.776v1.976h-.448a7.18 7.18 0 01-1.264-.08V5.68a7.8 7.8 0 011.248-.08h.464v4.24a11.543 11.543 0 01-1.808.64l.4 1.872a.724.724 0 01.16-.08 1.883 1.883 0 00.208-.128 30.13 30.13 0 003.18-1.676 3.685 3.685 0 01.608.848 9.21 9.21 0 001.968-1.36zm4.944 0a19.465 19.465 0 01-.272 2.416c-.144.688-.32.848-.912.848a11.189 11.189 0 01-1.648-.128 8.94 8.94 0 002.24-3.136zm-.656-4.128c.64 0 1.12.016 1.456.048a12.393 12.393 0 01-.064-1.536V2.128a12.949 12.949 0 01.064-1.584 12.053 12.053 0 01-1.712.08h-4.656a11.254 11.254 0 01-1.616-.08A12.448 12.448 0 01178.212 2v2.336a14.285 14.285 0 01-.064 1.552 11.565 11.565 0 011.472-.064zm-4.816-3.792h4.528v.672h-4.528zm0 1.84h4.528v.656h-4.528zm12.048 2.656a12.047 12.047 0 011.376-.06h5.472a11.648 11.648 0 011.44.064V5.408a15.55 15.55 0 002.604 1.408 8.614 8.614 0 01.88-1.76 15.045 15.045 0 01-4.08-2.188 10.454 10.454 0 01-2.688-2.7h-1.9a11.174 11.174 0 01-2.512 2.664 15.987 15.987 0 01-4.08 2.3 6.2 6.2 0 01.928 1.636 16.289 16.289 0 002.56-1.344zM193.3 4.8h-.448a11.2 11.2 0 003.136-3.12 14.615 14.615 0 003.3 3.12H193.3zm-.784 9.984v-.816h6.992v.816h1.9a10 10 0 01-.1-1.68V9.36a10.907 10.907 0 01.08-1.584 10.5 10.5 0 01-1.392.064h-8a10.076 10.076 0 01-1.376-.064 14.446 14.446 0 01.08 1.584v3.728a12.794 12.794 0 01-.1 1.7zm0-5.392h6.992V12.4h-6.992z" fill="#2e3032"/></g></svg>