<svg xmlns="http://www.w3.org/2000/svg" width="250" height="152"><g data-name="グループ 18928"><g data-name="長方形 4505" fill="#fff" stroke="#eb5e00" stroke-width="4"><rect width="250" height="152" rx="25" stroke="none"/><rect x="2" y="2" width="246" height="148" rx="23" fill="none"/></g><g data-name="グループ 18851"><g data-name="グループ 17696" fill="#eb5e00"><path data-name="パス 331878" d="M217.495 108.594h10.71v4.392c0 .432-.108.486-.81.486-.648 0-1.548-.072-2.736-.2a6.926 6.926 0 01.558 1.944c.7.036 1.692.072 2.394.072a4.427 4.427 0 001.89-.25c.522-.27.738-.774.738-1.692v-11.538a17.714 17.714 0 01.072-1.962 16.5 16.5 0 01-1.962.072h-10.944a19.338 19.338 0 01-2-.072 15.508 15.508 0 01.074 1.728v11.772a17.1 17.1 0 01-.108 2.16h2.214a13.231 13.231 0 01-.09-2.088zm4.266-1.89h-4.266v-4.878h4.266zm1.944 0v-4.878h4.5v4.878z"/><path data-name="パス 331879" d="M26.709 95.23c0-3.7 1.35-8.05 5.55-8.05a5.053 5.053 0 015.25 5.4c-.05 4.3-4.25 6.45-7.35 8.55-6.05 4.1-11 7.55-11.05 15.65h25.7v-6.1h-16.55c2.55-3.6 6.65-5.6 10.1-8.05s6.25-5.35 6.25-10.6c0-6.85-5.6-10.95-12-10.95-8.4 0-12.95 6.15-12.7 14.15zm29.05 0c0-3.7 1.35-8.05 5.55-8.05a5.053 5.053 0 015.25 5.4c-.05 4.3-4.25 6.45-7.35 8.55-6.05 4.1-11 7.55-11.05 15.65h25.7v-6.1h-16.55c2.55-3.6 6.65-5.6 10.1-8.05s6.25-5.35 6.25-10.6c0-6.85-5.6-10.95-12-10.95-8.4 0-12.95 6.15-12.7 14.15zm45.4-13.45h-19.55l-3.45 19.35h6.4a5.9 5.9 0 015.35-2.8c3.8 0 6.05 2.9 6.05 6.55 0 3.5-2.35 6.75-6.05 6.75a5.654 5.654 0 01-5.75-5.25h-7.1c.1 7.35 6.2 11.1 13 11.1a12.637 12.637 0 0013-12.6c0-6.55-3.9-11.9-10.8-11.9a8.9 8.9 0 00-6.85 2.7l-.1-.1 1.4-7.95h14.45zm7.1 35h3.6a4.566 4.566 0 01-3.55 4.7v3.6c4.3-.65 7.8-3.7 7.8-8.3v-7.7h-7.85zm13.15-17.65c0 13.95 5.9 18.35 12.8 18.35 7 0 12.9-4.4 12.9-18.35 0-13.65-5.9-18.05-12.9-18.05-6.9 0-12.8 4.4-12.8 18.05zm7.1 0c0-3.65 0-12.2 5.7-12.2 5.8 0 5.8 8.55 5.8 12.2 0 3.95 0 12.5-5.8 12.5-5.7 0-5.7-8.55-5.7-12.5zm21.95 0c0 13.95 5.9 18.35 12.8 18.35 7 0 12.9-4.4 12.9-18.35 0-13.65-5.9-18.05-12.9-18.05-6.9 0-12.8 4.4-12.8 18.05zm7.1 0c0-3.65 0-12.2 5.7-12.2 5.8 0 5.8 8.55 5.8 12.2 0 3.95 0 12.5-5.8 12.5-5.7 0-5.7-8.55-5.7-12.5zm21.95 0c0 13.95 5.9 18.35 12.8 18.35 7 0 12.9-4.4 12.9-18.35 0-13.65-5.9-18.05-12.9-18.05-6.9 0-12.8 4.4-12.8 18.05zm7.1 0c0-3.65 0-12.2 5.7-12.2 5.8 0 5.8 8.55 5.8 12.2 0 3.95 0 12.5-5.8 12.5-5.7 0-5.7-8.55-5.7-12.5z"/></g></g><path data-name="長方形 4507" d="M25 0h200a25 25 0 0125 25v31H0V25A25 25 0 0125 0z" fill="#eb5e00"/><path data-name="パス 331877" d="M96.544 31.774a15.27 15.27 0 001.694 1.848 7.374 7.374 0 011.144-1.848 9.155 9.155 0 01-1.21-.994 20.927 20.927 0 001.32-1.892v8.36a14.576 14.576 0 01-.132 2.4h2.464a20.365 20.365 0 01-.088-2.42v-2.44h2.354v2.574a12.338 12.338 0 01-.088 2h2.4a15.682 15.682 0 01-.09-2.022v-2.552h2.662v1.8c0 .44-.088.528-.44.528a9.176 9.176 0 01-1.54-.132 4.494 4.494 0 01.572 2.31c.528.044.77.044.99.044a4.318 4.318 0 001.914-.238c.528-.286.748-.836.748-1.8v-9.86a20.484 20.484 0 01.088-2.266 14.294 14.294 0 01-1.98.088h-3.014v-1.54h3.388a13.885 13.885 0 012.09.11v-2.376a18.748 18.748 0 01-2.09.11h-.132l1.188-.946a9.333 9.333 0 00-2.376-1.716l-1.452 1.076A11.434 11.434 0 01109 21.566h-2.684v-.44a9.162 9.162 0 01.132-1.892h-2.486a11.2 11.2 0 01.132 1.892v.44H101.1a13.65 13.65 0 01-2.156-.132v2.288l-.858-1.034a5.539 5.539 0 01-1.122.066h-.44v-1.848a11.938 11.938 0 01.11-1.65h-2.486a12.476 12.476 0 01.11 1.716v1.782h-.506a9.5 9.5 0 01-1.628-.088v2.31a15.581 15.581 0 011.8-.11h2.31a14.134 14.134 0 01-4.62 6.2 8.891 8.891 0 01.924 2.376 21.031 21.031 0 001.738-1.738v5.438a17.027 17.027 0 01-.154 2.508h2.53a20.44 20.44 0 01-.132-2.53l.022-4.664zm2.486-7.964a14.989 14.989 0 011.87-.088h3.19v1.54h-2.464a18.692 18.692 0 01-2.2-.088 17.731 17.731 0 01.066 2.244v.814l-1.166-.924a15.1 15.1 0 01-1.3 2.244 6.157 6.157 0 01-.528-.726 27.258 27.258 0 002.092-4.046 6.7 6.7 0 01.44-.946zm2.706 9.064V30.98h2.354v1.892zm0-3.806v-1.826h2.354v1.826zm4.576 3.806V30.98h2.662v1.892zm0-3.806v-1.826h2.662v1.826zm17.666 4.092l-1.056.352V22.644c0-.968.022-2 .066-2.4a11.826 11.826 0 01-1.65.088h-4.576a11.626 11.626 0 01-1.65-.088c.044.484.066 1.452.066 2.4v12.8a13.585 13.585 0 01-1.518.2l.44 2.6c.572-.176.7-.2 1.452-.4a84.221 84.221 0 008.294-2.572 10.6 10.6 0 01-2.684 2.662 7.763 7.763 0 011.938 1.738 11.613 11.613 0 002.352-2.486 15.567 15.567 0 002.248-4.378 27.811 27.811 0 001.056-6.666h2.544a63.534 63.534 0 01-.48 8.426c-.286 1.98-.462 2.266-1.386 2.266a16.106 16.106 0 01-2.508-.242 10.742 10.742 0 01.44 2.4c1.65.088 1.65.088 2.2.088 2.222 0 2.86-.484 3.3-2.486a50.523 50.523 0 00.77-9.24c.066-2.97.066-2.97.132-3.63a17.389 17.389 0 01-2.332.11h-2.574c.022-1.056.044-1.694.044-2.508a12.755 12.755 0 01.132-1.936h-2.618a11.3 11.3 0 01.132 1.914c0 1.034-.022 1.936-.044 2.53h-.572a17.15 17.15 0 01-2.354-.11v2.53a16.9 16.9 0 012.2-.11h.618c-.31 4.288-.948 6.686-2.422 8.93zm-6.49-1.386h3.146v2.42c-.88.264-1.936.528-3.146.792zm0-2.112V27.18h3.146v2.486zm0-4.6V22.58h3.146v2.486zm27.148 2.332v2.136h-5.192a16.237 16.237 0 01-2.4-.132v2.442a18.075 18.075 0 012.376-.132h5.214v4.928h-5.52a23.772 23.772 0 01-2.728-.132v2.53a21.691 21.691 0 012.728-.154h13.9a20.292 20.292 0 012.64.154v-2.53a20.61 20.61 0 01-2.6.132h-5.976v-4.928h5.544a17.43 17.43 0 012.42.132v-2.442a15.635 15.635 0 01-2.4.132h-5.564v-2.134h2.244a15.037 15.037 0 012.156.11V26.38a22.431 22.431 0 003.85 1.936 11.229 11.229 0 011.188-2.42 18.222 18.222 0 01-5.83-2.97 13.012 13.012 0 01-3.386-3.384h-2.73c-1.584 2.64-4.884 5.016-8.976 6.446a9.774 9.774 0 011.276 2.266 23.741 23.741 0 003.586-1.8v1.056a15.415 15.415 0 012.156-.11zm-2.552-2.068a15.521 15.521 0 003.85-3.7 17.356 17.356 0 003.96 3.7c-.33.022-.33.022-.528.022l-6.82-.022zm-3.212 7.46a16.022 16.022 0 011.738 3.652l2.2-.88a25.5 25.5 0 00-1.76-3.652zm11.858-.858a18.383 18.383 0 01-1.738 3.784l2.068.77c.748-1.276.836-1.43.9-1.562.814-1.606.814-1.606 1.1-2.112z" fill="#fff"/></g></svg>