<svg xmlns="http://www.w3.org/2000/svg" width="120.334" height="111.233"><g data-name="グループ 18368"><g data-name="グループ 18386"><g data-name="グループ 18372"><g data-name="グループ 18369"><g data-name="グループ 18368"><path data-name="パス 331330" d="M110.035 68.2c-2.842 23.147-27.475 36.296-55.445 32.862S5.9 78.91 8.743 55.762s19.132-50.19 57-45.54S112.877 45.05 110.035 68.2z" fill="#fff"/></g></g><g data-name="グループ 18371"><g data-name="グループ 18370"><path data-name="パス 331331" d="M54.193 104.302c-.587-.072-1.208.154-1.79.067s-1.16-.216-1.737-.314-1.12-.419-1.695-.529-1.096-.488-1.67-.608-1.14-.267-1.707-.404-1.252.154-1.815.006-1.103-.421-1.667-.585-1.19-.147-1.744-.327-1.077-.501-1.628-.69-1.003-.684-1.55-.896-1.047-.531-1.587-.758-1.206-.164-1.737-.402-1.143-.342-1.67-.595-1.09-.472-1.606-.74-.928-.77-1.438-1.05-1.13-.402-1.632-.705-1.018-.596-1.51-.91-1.002-.626-1.488-.962-.807-.895-1.285-1.24-1.157-.423-1.617-.783-.77-.92-1.219-1.295-.656-1.034-1.093-1.42-1.108-.526-1.53-.933-.708-.934-1.107-1.345-.754-.873-1.14-1.3-.666-.95-1.032-1.391-1.112-.596-1.46-1.054-.801-.86-1.138-1.33-.58-1.025-.888-1.508-.434-1.095-.724-1.6-.817-.878-1.083-1.391-.27-1.163-.515-1.687-.503-1.043-.724-1.573-.427-1.079-.623-1.623-.463-1.064-.633-1.617-.264-1.131-.405-1.69-.402-1.098-.52-1.667-.205-1.146-.294-1.714.16-1.19.1-1.763-.317-1.13-.348-1.703-.202-1.151-.21-1.732-.046-1.162-.028-1.742.476-1.129.522-1.707-.304-1.192-.234-1.763.286-1.137.379-1.767c.083-.565-.101-1.203.007-1.823.102-.566.8-1.044.927-1.647.115-.565-.068-1.217.072-1.813.13-.572.565-1.078.72-1.665.148-.57.145-1.185.318-1.775.17-.563.217-1.171.4-1.751.177-.563.264-1.166.465-1.74.193-.555.815-.963 1.026-1.53.21-.55.357-1.134.586-1.69s.042-1.276.296-1.824.745-.969 1.008-1.513.61-1.024.896-1.556.394-1.139.689-1.664.877-.863 1.194-1.381c.307-.505.189-1.287.522-1.788s1.052-.732 1.4-1.218.402-1.183.763-1.663.953-.767 1.332-1.24.56-1.086.958-1.54.913-.78 1.326-1.217.943-.743 1.374-1.165.618-1.067 1.055-1.473.736-.96 1.19-1.347 1.041-.613 1.504-.979 1.037-.604 1.515-.947 1.007-.625 1.503-.954.97-.678 1.476-.989 1.018-.597 1.536-.89 1.096-.447 1.622-.717.856-.943 1.397-1.19 1.088-.494 1.635-.723 1.252-.058 1.81-.267 1.125-.346 1.689-.533 1.066-.543 1.631-.707 1.084-.53 1.658-.676 1.217-.002 1.8-.13 1.08-.594 1.674-.7 1.148-.323 1.742-.414 1.223.21 1.816.14 1.141-.5 1.732-.554 1.218.423 1.816.387 1.172-.094 1.766-.115 1.173-.429 1.772-.429 1.188-.08 1.782-.067 1.185.194 1.786.224 1.156.38 1.753.423 1.2-.139 1.793-.082 1.202-.09 1.797-.017 1.147.413 1.729.496 1.14.405 1.717.5 1.22-.027 1.793.087 1.167.218 1.745.345 1.204.096 1.776.245 1.005.837 1.574 1 1.319-.259 1.88-.081.96.874 1.519 1.068 1.285-.044 1.831.164 1.1.479 1.64.705 1.106.46 1.639.705 1.01.644 1.542.908.952.731 1.472 1.012 1.095.467 1.607.768 1.094.48 1.594.8 1.12.472 1.603.801.764.983 1.24 1.34.78.912 1.244 1.28 1.053.58 1.498.973.856.81 1.288 1.218 1.158.514 1.573.939.726.958 1.124 1.396.523 1.112.9 1.566.969.74 1.338 1.206.729.937 1.073 1.422.411 1.149.735 1.65c.33.489.893.829 1.2 1.34s.505 1.096.795 1.608.49 1.099.759 1.629.55 1.058.805 1.597.337 1.156.568 1.706.949.908 1.162 1.458.109 1.242.305 1.808.414 1.12.59 1.684.457 1.116.615 1.688.445 1.132.587 1.708.292 1.165.416 1.748-.237 1.268-.127 1.854.26 1.165.343 1.755.289 1.17.362 1.757.014 1.205.068 1.79c.055.606.41 1.178.445 1.768.038.61.06 1.205.082 1.793.018.606.09 1.21.1 1.791.002.615-.017 1.215-.026 1.802-.009.613-.035 1.205-.06 1.788-.026.62.125 1.233.089 1.808-.044.622-.118 1.224-.172 1.792-.058.624-.495 1.18-.565 1.744s.08 1.183-.013 1.75-.564 1.07-.687 1.63.033 1.188-.114 1.751-.46 1.068-.637 1.619-.254 1.127-.461 1.67-.465 1.051-.698 1.584-.512 1.033-.765 1.55-.367 1.11-.646 1.617-.679.944-.978 1.443-.551 1.01-.88 1.489-.715.904-1.063 1.367-.417 1.14-.784 1.588-.677.958-1.062 1.389-1.23.437-1.633.85-.632 1-1.053 1.394-.743.904-1.182 1.284-.902.724-1.35 1.09-.954.656-1.421 1.002-.767.927-1.25 1.252-1.024.56-1.517.867-1.014.568-1.516.86-1.168.312-1.684.587-1.005.608-1.531.867-.944.763-1.478 1-1.283-.023-1.828.2-1.048.522-1.6.722-1.018.619-1.579.802-1.043.603-1.606.775-1.285-.204-1.843-.056-1.049.624-1.626.76-1.222-.12-1.8 0-1.072.592-1.653.694-1.189-.003-1.772.084-1.165.11-1.749.18-1.111.595-1.697.648-1.208-.318-1.793-.277-1.153.309-1.741.337-1.18-.175-1.77-.166-1.166-.064-1.756-.063-1.169-.037-1.755-.051-1.186.342-1.774.309-1.169-.123-1.757-.165-1.179.008-1.767-.052-1.175-.37-1.755-.44zm11.153-90.84c-.586-.071-1.198.17-1.774.111s-1.16-.142-1.732-.185c-.59-.042-1.157-.29-1.734-.314s-1.172-.305-1.745-.309a45.174 45.174 0 00-1.76-.005c-.593.01-1.167.48-1.738.51-.594.028-1.177-.043-1.754.002s-1.14.314-1.713.378-1.18.016-1.753.101-1.207-.114-1.774-.007-1.182.12-1.744.254c-.577.13-1.066.574-1.628.735s-1.077.465-1.631.635-1.086.418-1.63.613-1.18.171-1.719.394-.994.634-1.518.877-1.043.514-1.563.773-1.015.555-1.514.841-1.151.352-1.643.66-.79.92-1.262 1.25-1.092.47-1.554.827-1.15.44-1.597.811-.66 1.028-1.092 1.42-.973.667-1.392 1.075-.863.801-1.258 1.222-.888.782-1.272 1.224-.377 1.205-.74 1.664-.608.992-.951 1.461-.757.882-1.085 1.365-.82.85-1.127 1.346-.372 1.132-.668 1.636-.812.874-1.087 1.392-.518 1.044-.777 1.565-.506 1.046-.743 1.584-.392 1.104-.61 1.638-.497 1.06-.701 1.601-.277 1.136-.463 1.689-.387 1.098-.556 1.653-.653 1.028-.806 1.589-.108 1.182-.247 1.749-.127 1.166-.247 1.732-.193 1.15-.298 1.725-.626 1.08-.713 1.652.237 1.211.165 1.792-.26 1.166-.303 1.754.226 1.191.218 1.779-.59 1.204-.567 1.797.394 1.173.456 1.762-.151 1.228-.054 1.807.376 1.145.51 1.725.408 1.124.577 1.694.454 1.094.658 1.652.007 1.278.247 1.827.56 1.06.829 1.595.94.84 1.236 1.36.362 1.162.685 1.665.577 1.046.927 1.53.85.839 1.224 1.314c.368.456.502 1.125.896 1.578s1.169.536 1.58.968.5 1.176.932 1.598c.412.392 1.08.519 1.511.901s.682.97 1.127 1.336 1.063.512 1.522.863.819.814 1.29 1.145.856.797 1.338 1.108 1.147.343 1.64.634 1.097.393 1.597.677.91.716 1.42.98.953.653 1.472.905 1.007.56 1.539.793 1.063.426 1.604.639 1.06.437 1.6.637 1.04.523 1.588.712 1.226-.075 1.778.097 1.093.328 1.653.487.994.712 1.557.854 1.101.337 1.665.463 1.165.067 1.726.178 1.168.01 1.734.112 1.09.479 1.66.564 1.183-.193 1.757-.122 1.15.023 1.722.077 1.11.49 1.68.535 1.17-.295 1.741-.264 1.132.564 1.708.579 1.155-.014 1.727-.014 1.145-.414 1.719-.429 1.14-.125 1.711-.158 1.155.086 1.727.034 1.183.21 1.746.145 1.113-.373 1.681-.455 1.105-.389 1.671-.483 1.18.053 1.74-.06 1.179-.02 1.731-.155 1.059-.512 1.614-.66 1.105-.336 1.647-.503 1.04-.518 1.583-.705 1.28.133 1.811-.07.84-.995 1.36-1.222 1.274.028 1.792-.216.829-.925 1.337-1.187 1.028-.501 1.523-.785c.522-.296 1.017-.612 1.515-.927s1.087-.51 1.568-.85 1.098-.519 1.572-.876.862-.838 1.31-1.219.8-.894 1.227-1.299.699-.971 1.104-1.406 1.074-.62 1.458-1.072.965-.765 1.325-1.236.53-1.099.858-1.587.686-.985.984-1.492.203-1.237.473-1.763.648-.993.883-1.536.782-.968.993-1.526.126-1.209.3-1.777.309-1.135.448-1.72.58-1.088.687-1.677-.101-1.215-.028-1.807.265-1.145.313-1.728.197-1.153.236-1.737.051-1.17.074-1.752.21-1.17.216-1.757-.525-1.16-.536-1.742.306-1.178.274-1.762-.1-1.168-.146-1.75-.216-1.15-.284-1.73-.276-1.138-.365-1.715-.189-1.145-.292-1.72.263-1.24.14-1.81-.312-1.136-.45-1.702-.41-1.102-.569-1.667-.217-1.162-.4-1.718-.66-1.01-.86-1.56-.402-1.091-.626-1.626-.501-1.057-.742-1.587-.475-1.06-.741-1.58-.526-1.039-.808-1.549-.732-.912-1.044-1.41-.591-.99-.915-1.474-.36-1.174-.697-1.648-.89-.786-1.258-1.242-.465-1.135-.848-1.575-1.001-.668-1.404-1.09-.706-.947-1.131-1.355-.929-.712-1.367-1.098-.84-.809-1.302-1.174-.886-.766-1.357-1.113-1.041-.543-1.533-.867-.9-.75-1.403-1.06-1.028-.542-1.543-.826-.977-.634-1.501-.902-1.195-.195-1.727-.438-1.088-.39-1.632-.615-.845-1.01-1.4-1.22c-.537-.205-1.177-.163-1.74-.348-.542-.188-1.146-.21-1.71-.383s-1.103-.357-1.669-.507-1.111-.353-1.683-.488-1.194.04-1.77-.08-1.115-.323-1.693-.424-1.132-.24-1.718-.323-1.128-.404-1.717-.476z"/></g></g></g><g data-name="グループ 18385"><g data-name="グループ 18378"><g data-name="グループ 18375"><g data-name="グループ 18374"><g data-name="グループ 18373"><path data-name="パス 331332" d="M74.286 68.804c-.424 3.45-7.71 5.39-16.268 4.34s-15.159-4.697-14.735-8.147 7.708-5.386 16.267-4.335 15.158 4.702 14.736 8.142z" fill="#ed8c00"/><path data-name="パス 331333" d="M57.629 76.28c-8.975-1.103-18.277-5.227-17.486-11.67s10.812-8.185 19.788-7.083 18.282 5.223 17.491 11.66S66.61 77.383 57.63 76.28zM46.494 65.395c.675 1.113 4.652 3.72 11.905 4.611s11.747-.673 12.673-1.593c-.676-1.118-4.66-3.724-11.911-4.614s-11.743.675-12.667 1.596zm24.662 3.197z"/></g></g></g><g data-name="グループ 18377"><g data-name="グループ 18376"><path data-name="パス 331334" d="M57.648 76.157c-.596-.073-1.169-.165-1.756-.262s-1.258.248-1.84.118-1.101-.538-1.674-.69-1.09-.51-1.654-.687-1.206-.148-1.757-.35c-.567-.213-1.264-.104-1.8-.346s-1.01-.705-1.516-.978c-.54-.297-1.118-.527-1.592-.854a13.763 13.763 0 01-1.326-1.228 10.32 10.32 0 01-1.217-1.304 7.994 7.994 0 01-.798-1.578 6.008 6.008 0 01-.545-1.651 5.923 5.923 0 01-.037-1.736 6.356 6.356 0 01.27-1.75 6.692 6.692 0 01.755-1.686 8.792 8.792 0 011.441-1.14 10.949 10.949 0 011.58-.856 13.685 13.685 0 011.705-.531c.541-.202 1.105-.324 1.7-.485.564-.148 1.094-.446 1.69-.555.58-.106 1.127-.501 1.727-.57s1.198-.04 1.803-.081c.586-.03 1.19.158 1.795.15s1.186.12 1.783.143 1.195-.14 1.791-.093 1.164.314 1.756.386 1.15.27 1.74.369 1.174.174 1.75.298 1.148.288 1.721.437 1.278-.111 1.838.061c.575.183 1.08.557 1.635.764s1.212.222 1.746.464c.55.25 1.158.415 1.67.695.534.294.794 1.03 1.269 1.357a15.532 15.532 0 011.54.921 9.56 9.56 0 011.049 1.445 7.259 7.259 0 01.94 1.465 6.553 6.553 0 01.822 1.59 6.453 6.453 0 01-.02 1.801 6.093 6.093 0 01-.666 1.65 6.478 6.478 0 01-.797 1.572 7.7 7.7 0 01-1.185 1.357 11.362 11.362 0 01-1.654.732 14.945 14.945 0 01-1.656.625c-.543.2-1.081.42-1.672.577-.564.15-1.122.338-1.716.45-.578.103-1.173.1-1.775.172-.584.068-1.162.247-1.766.287s-1.18.093-1.782.096-1.185-.201-1.787-.22-1.218.43-1.813.382-1.127-.661-1.715-.733zm-9.724-9.318c.434.282 1.18.328 1.802.624a16.788 16.788 0 001.58.84c.527.199 1.054.598 1.672.778.553.157 1.213.088 1.837.225.566.13 1.223-.108 1.854 0 .577.095 1.134.388 1.763.466s1.236.026 1.815.07c.63.044 1.226.234 1.807.245.636.012 1.245.031 1.82.002.642-.022 1.267.1 1.837.04.65-.082 1.266-.2 1.805-.312a15.168 15.168 0 001.777-.487c.777-.267.724-1.435.037-1.883a11.845 11.845 0 00-1.486-1.021 17.882 17.882 0 00-1.628-.812c-.53-.199-1.047-.586-1.666-.77-.547-.162-1.137-.369-1.76-.51-.568-.13-1.207-.074-1.825-.187-.582-.096-1.224.118-1.847.042s-1.215-.214-1.795-.255c-.632-.047-1.227-.289-1.807-.295-.637-.014-1.254-.12-1.825-.1-.65.03-1.243.272-1.808.338-.656.074-1.294-.03-1.835.077a16.549 16.549 0 00-1.817.374 1.707 1.707 0 00-.307 2.511z"/></g></g></g><g data-name="グループ 18384"><g data-name="グループ 18381"><g data-name="グループ 18380"><g data-name="グループ 18379"><path data-name="パス 331335" d="M72.753 81.285c-.423 3.445-7.71 5.4-16.27 4.35s-15.156-4.71-14.733-8.157 7.709-5.386 16.268-4.335 15.158 4.695 14.735 8.142z" fill="#ed8c00"/><path data-name="パス 331336" d="M56.096 88.765c-12.804-1.573-18.04-7.152-17.486-11.668.791-6.443 10.813-8.19 19.788-7.089S76.68 75.231 75.89 81.674c-.554 4.516-6.985 8.663-19.793 7.09zM44.96 77.876c.675 1.118 4.658 3.728 11.904 4.618s11.748-.674 12.675-1.6c-.676-1.117-4.658-3.723-11.912-4.614s-11.742.674-12.667 1.596zm24.663 3.197z"/></g></g></g><g data-name="グループ 18383"><g data-name="グループ 18382"><path data-name="パス 331337" d="M56.08 88.924c-.596-.073-1.201-.065-1.788-.16s-1.154-.327-1.736-.452-1.165-.263-1.736-.415-1.181-.228-1.744-.403c-.582-.18-1.182-.28-1.731-.49-.567-.213-1.098-.516-1.629-.76-.556-.248-1.056-.592-1.564-.87-.539-.3-1.154-.45-1.632-.776-.511-.349-.719-1.044-1.152-1.43-.462-.407-1.237-.494-1.597-.942a8.106 8.106 0 01-.763-1.668 6.5 6.5 0 01-.638-1.683 95 95 0 01.47-3.552 6.389 6.389 0 011.013-1.48 7.441 7.441 0 011.178-1.388c.454-.347 1.218-.24 1.764-.529.513-.266.88-.873 1.459-1.088.541-.199 1.23.029 1.82-.128.564-.147 1.11-.344 1.708-.453.576-.1 1.156-.112 1.764-.186.578-.063 1.136-.513 1.737-.548s1.192.259 1.792.256 1.182-.046 1.78-.024 1.173.144 1.77.196 1.228-.325 1.82-.252 1.21-.009 1.802.087 1.176.273 1.758.393 1.132.43 1.708.579 1.038.701 1.604.88 1.281-.05 1.833.155 1.073.564 1.605.809c.555.248 1.162.383 1.674.663.534.296 1.022.661 1.502.99a13.866 13.866 0 011.275 1.265 11.1 11.1 0 011.298 1.212 7.831 7.831 0 01.937 1.508 7.218 7.218 0 01.823 3.478c-.076.612-.688 1.058-.918 1.587a6.322 6.322 0 01-.71 1.613 8.25 8.25 0 01-1.097 1.468 11.991 11.991 0 01-1.685.724 14.952 14.952 0 01-1.561.902 17.886 17.886 0 01-1.693.663c-.565.147-1.281-.327-1.88-.219-.573.103-1.124.374-1.73.442-.583.066-1.179-.002-1.782.03-.587.037-1.166.563-1.77.575s-1.183-.456-1.782-.482-1.207.24-1.802.197-1.187-.222-1.774-.294zm-9.477-9.93a4.045 4.045 0 001.528.98c.498.24 1.054.49 1.675.718.528.199 1.133.307 1.754.487.555.17 1.157.22 1.783.362.564.13 1.135.331 1.76.438.572.1 1.157.273 1.786.35s1.245-.048 1.824-.01c.631.048 1.221.495 1.804.508.633.011 1.234-.5 1.81-.523.647-.029 1.262.173 1.824.108.658-.075 1.277-.212 1.819-.322.675-.143 1.386-.012 1.882-.18.774-.27.877-1.956.189-2.405a16.22 16.22 0 00-1.639-.76 17.756 17.756 0 00-1.613-.926c-.53-.199-1.243-.01-1.858-.188-.557-.164-1.042-.726-1.66-.871-.57-.126-1.195-.181-1.817-.29-.576-.099-1.177-.263-1.803-.34s-1.276.26-1.855.213c-.636-.042-1.229-.388-1.81-.4-.638-.013-1.259.048-1.837.07-.643.028-1.274-.018-1.836.047-.656.075-1.37.326-1.91.436a2.978 2.978 0 00-1.505.907c-.561.538-.695 1.037-.295 1.592z"/></g></g></g></g></g><g data-name="グループ 18387"><path data-name="パス 331338" d="M96.589 57.302c-.879-.108-1.158.403-1.734-.268-.405-.47.26-.544.602-1.056s.388-.485.734-1 .42-.46.761-.975.308-.538.652-1.054.332-.527.677-1.043l.693-1.04c.347-.516.392-.484.737-1.005.053-.084-.046-.195-.087-.288s-.062-.24-.158-.252c-.564-.07-.576.03-1.14-.04s-.552-.144-1.116-.213-.583.058-1.144-.011-.55-.206-1.114-.275a.353.353 0 00-.297.174c-.334.543-.336.543-.671 1.086s-.247.598-.582 1.145-.45.469-.782 1.012-.25.597-.585 1.137-.355.536-.692 1.084-.299.568-.636 1.116-.1 1.096-.734 1.018-.2-.574-.393-1.182-.255-.594-.448-1.202-.114-.629-.306-1.236-.213-.607-.41-1.216-.25-.592-.444-1.2-.05-.66-.247-1.272-.202-.61-.395-1.222c-.035-.105-.207-.12-.32-.134-.565-.07-.55-.198-1.116-.268s-.586.084-1.154.014-.559-.133-1.128-.203-.56-.147-1.126-.217c-.1-.012-.15.146-.213.23s-.214.16-.181.255c.214.584.336.545.54 1.123s.137.608.349 1.194.273.558.482 1.137.224.58.435 1.162.158.604.369 1.188.284.562.495 1.15.887.846.374 1.201c-.739.514-.898-.14-1.79-.25a.348.348 0 00-.368.271l-.123.999c-.062.502-.049.504-.11 1.004s-.075.5-.136 1c-.02.158.149.236.306.255.6.074.593.14 1.195.214s.604.062 1.208.137.797-.292 1.251.11c.545.487.34.702.441 1.43.084.586.298.755-.154 1.142-.405.347-.504-.046-1.037-.111s-.543-.016-1.075-.08-.535-.083-1.074-.149-.541-.007-1.076-.073c-.16-.019-.21.02-.23.174-.06.496-.11.49-.173.996s-.147.486-.21.992-.031.507-.093 1.006a.342.342 0 00.273.359c.532.065.526.108 1.06.173s.545-.006 1.08.06.533.09 1.07.156.81-.372 1.098.089c.354.567-.089.677-.17 1.34s-.043.672-.124 1.332-.191.652-.273 1.317c-.02.157.153.257.315.277.689.084.692.054 1.381.14s.69.121 1.385.206l1.373.169a.227.227 0 00.283-.21c.08-.662.097-.66.178-1.324s.112-.663.193-1.323-.277-.813.201-1.279c.382-.373.483-.005 1.011.06s.54-.003 1.07.062l1.067.13c.532.066.523.135 1.053.2a.294.294 0 00.342-.232c.061-.497.026-.501.086-.997s.089-.5.15-1.004.011-.503.073-1.01a.266.266 0 00-.211-.327c-.528-.065-.527-.078-1.056-.143l-1.062-.13c-.528-.064-.538-.031-1.07-.097s-.787.315-1.093-.122c-.343-.487-.105-.673.12-1.222.278-.681.23-.864.879-1.202.53-.28.602.101 1.197.174s.598.052 1.194.126.589.127 1.184.2c.16.02.256-.145.275-.302.061-.497.16-.484.222-.987s-.007-.511.055-1.01.141-.494.202-.993c.02-.146-.152-.258-.31-.277z"/><path data-name="パス 331339" d="M88.946 70.624a6.463 6.463 0 01-.703-.124 4.89 4.89 0 00-.673-.122c-.346-.042-.516-.068-.694-.09l-.687-.084a.4.4 0 01-.368-.449 4.524 4.524 0 00.04-.654 5.152 5.152 0 01.046-.687c.041-.337.074-.506.109-.666s.063-.325.103-.654a1.7 1.7 0 01.213-.623.483.483 0 000-.614c-.113-.188-.182-.16-.393-.086a1.242 1.242 0 01-.592.09 5.305 5.305 0 01-.548-.093 5.052 5.052 0 00-.52-.085 4.8 4.8 0 00-.525-.04 4.535 4.535 0 01-.553-.037 3.683 3.683 0 01-.548-.106 2.851 2.851 0 00-.508-.1.484.484 0 01-.43-.482 4.428 4.428 0 01.093-.513 3.089 3.089 0 00.09-.482c.03-.255.055-.378.073-.506s.04-.245.07-.495.037-.371.045-.491.008-.258.04-.515a.45.45 0 01.493-.372c.262.032.398.04.529.047s.273.017.545.05a2.281 2.281 0 01.559.134 1.8 1.8 0 00.501.126l1.062.13a1.955 1.955 0 01.477.133c.212.086.293.119.497-.057.31-.269.287-.397.218-.779-.017-.085-.036-.182-.048-.287s-.03-.195-.037-.277a1.164 1.164 0 00-.51-.989.451.451 0 00-.53-.116 1.5 1.5 0 01-.598.051 2.536 2.536 0 01-.627-.153 1.937 1.937 0 00-.562-.145 3.659 3.659 0 00-.589-.033 4.073 4.073 0 01-.623-.037.364.364 0 01-.31-.453c.032-.252.052-.38.072-.502s.039-.247.07-.496a3.172 3.172 0 00.025-.486 3.334 3.334 0 01.028-.524c.03-.243.038-.369.045-.498s.012-.254.043-.51a.483.483 0 01.503-.41 2.247 2.247 0 01.826.289.636.636 0 00.853-.015c.1-.07.115-.113.116-.125.007-.055-.104-.165-.206-.26a1.6 1.6 0 01-.43-.597c-.106-.285-.157-.435-.206-.578s-.102-.298-.21-.598a2.966 2.966 0 01-.159-.634 2.7 2.7 0 00-.145-.58c-.11-.303-.16-.448-.21-.602s-.101-.284-.204-.57a2.553 2.553 0 00-.255-.535 2.748 2.748 0 01-.279-.583 6.057 6.057 0 01-.189-.605 5.822 5.822 0 00-.178-.58 5.311 5.311 0 00-.234-.562 6.143 6.143 0 01-.244-.584.341.341 0 01.117-.345l.03-.04a.314.314 0 01.332-.127c.567.07.567.064 1.136.134.28.035.422.043.562.053s.29.018.577.053.42.042.562.048.29.017.578.053.419.042.56.05.29.02.576.055a.506.506 0 01.392.325 5.032 5.032 0 01.163.639 4.377 4.377 0 00.156.607 4.561 4.561 0 00.221.586 4.763 4.763 0 01.239.62 4.96 4.96 0 01.162.633 4.657 4.657 0 00.158.61c.095.3.146.45.2.6s.106.302.207.613a5.575 5.575 0 01.16.63 4.948 4.948 0 00.383 1.185 4.12 4.12 0 01.241.609 1.773 1.773 0 01.043.72c-.033.338-.03.42.21.45l.01.001c.27.034.297-.055.37-.4a1.926 1.926 0 01.224-.642c.165-.27.244-.411.316-.551s.152-.29.326-.565.262-.409.354-.539.18-.264.35-.532.26-.41.35-.541.184-.26.35-.53a4.915 4.915 0 00.297-.548c.073-.14.145-.293.315-.57a3.109 3.109 0 00.278-.55 3.724 3.724 0 01.302-.594 6.008 6.008 0 01.368-.54c.095-.131.187-.254.35-.52a.362.362 0 01.4-.119h.005a3.84 3.84 0 00.577.036 4.544 4.544 0 01.586.038 3.521 3.521 0 01.578.114 3.191 3.191 0 00.54.106 2.18 2.18 0 00.543.01 2.678 2.678 0 01.597.013 4.128 4.128 0 01.571.104 5.01 5.01 0 00.544.097.374.374 0 01.3.232.347.347 0 01-.04.364l-.692 1.039c-.173.26-.26.388-.346.52l-.343.522a4.725 4.725 0 00-.307.523 4.726 4.726 0 01-.323.549c-.174.26-.264.384-.358.51s-.183.246-.356.507-.259.38-.344.507-.178.256-.35.512-.248.385-.322.52-.155.273-.326.534a1.8 1.8 0 01-.549.478c-.133.084-.27.177-.278.243-.005.034.021.088.075.155.293.339.476.278.81.173a2.037 2.037 0 01.9-.115c.244.03.323.308.293.55s-.037.373-.05.499-.012.254-.043.509a2.427 2.427 0 00-.018.482 2.6 2.6 0 01-.017.531c-.03.246-.04.372-.048.491s-.018.259-.049.511-.295.33-.54.3a4.211 4.211 0 00-.585-.035 4.839 4.839 0 01-.619-.039 3.813 3.813 0 01-.607-.118 3.634 3.634 0 00-.577-.11 2.575 2.575 0 01-.471-.104.633.633 0 00-.623.067 1.177 1.177 0 00-.754.851l-.086.21c-.036.09-.069.168-.102.236-.157.355-.198.448.045.795.132.19.191.175.388.121a1.327 1.327 0 01.54-.056l1.065.131c.261.032.392.04.521.046s.272.017.545.05a2.013 2.013 0 01.55.133 1.9 1.9 0 00.49.12.428.428 0 01.417.436c-.03.248-.045.37-.052.497s-.022.256-.053.508a2.428 2.428 0 01-.116.522 2.013 2.013 0 00-.106.474 1.966 1.966 0 00-.01.478 2.4 2.4 0 01-.014.531.529.529 0 01-.54.414c-.269-.033-.397-.057-.536-.08s-.26-.044-.524-.076a3.919 3.919 0 01-.545-.097 4.5 4.5 0 00-1.032-.127 3.64 3.64 0 01-.55-.032 1.327 1.327 0 01-.546-.215c-.198-.12-.265-.158-.423-.008-.23.226-.193.348-.125.598a1.6 1.6 0 01.073.681c-.04.328-.054.498-.064.658s-.024.34-.065.673-.07.495-.095.667-.049.326-.09.656c-.03.246-.295.326-.526.298a3.252 3.252 0 00-.67-.022 3.365 3.365 0 01-.732-.037zm-2.736-5.18a.485.485 0 01.353.26.741.741 0 01.011.886 1.489 1.489 0 00-.185.531c-.041.336-.074.506-.108.672s-.067.324-.107.649a5.131 5.131 0 00-.041.658 4.728 4.728 0 01-.043.682c-.011.094.06.14.136.15.346.042.518.068.695.09l.686.084a4.8 4.8 0 01.703.13 6.042 6.042 0 00.673.12 3 3 0 00.674.019 3.325 3.325 0 01.723.019c.1.012.217-.008.224-.062.041-.333.068-.496.096-.67s.047-.322.088-.654.056-.497.068-.658.023-.341.064-.672a1.292 1.292 0 00-.068-.574.74.74 0 01.197-.865.524.524 0 01.747-.03 1.094 1.094 0 00.442.181 4.462 4.462 0 00.52.034 3.647 3.647 0 01.55.032 4.108 4.108 0 01.542.097 4.141 4.141 0 00.515.094c.27.033.396.057.536.077s.26.046.523.079a.273.273 0 00.244-.183 2.318 2.318 0 00.01-.48 2.159 2.159 0 01.01-.529 2.194 2.194 0 01.12-.523 2.355 2.355 0 00.102-.472c.03-.246.046-.37.056-.497s.02-.257.052-.509c.008-.066-.086-.126-.185-.138a2.245 2.245 0 01-.55-.132 1.882 1.882 0 00-.489-.12c-.263-.033-.398-.04-.525-.05s-.273-.012-.541-.044l-1.065-.131a1.019 1.019 0 00-.435.047.512.512 0 01-.677-.231.832.832 0 01-.073-1.05c.03-.067.061-.145.097-.232l.085-.209a1.421 1.421 0 01.881-.988.9.9 0 01.824-.088 2.16 2.16 0 00.424.098 3.956 3.956 0 01.61.115 3.525 3.525 0 00.574.113 4.508 4.508 0 00.587.035 4.471 4.471 0 01.617.037c.116.014.236-.02.241-.065.03-.249.046-.369.05-.498s.017-.257.048-.51a2.392 2.392 0 00.016-.482 2.776 2.776 0 01.018-.53c.03-.247.041-.372.048-.498s.019-.254.05-.51c.016-.131-.018-.248-.06-.253a1.754 1.754 0 00-.79.104.853.853 0 01-1.092-.256.477.477 0 01-.141-.368c.028-.186.21-.303.401-.431a1.536 1.536 0 00.471-.4c.165-.252.242-.386.32-.52s.155-.27.33-.534.265-.386.352-.515.176-.25.343-.503.27-.391.366-.518.18-.246.35-.498a4.308 4.308 0 00.308-.525 4.395 4.395 0 01.325-.548c.17-.261.257-.389.343-.521s.173-.26.343-.521l.692-1.036c.04-.063.037-.072.022-.105-.033-.07-.055-.076-.09-.08a5.5 5.5 0 01-.575-.101 3.791 3.791 0 00-.541-.101 2.539 2.539 0 00-.544-.011 2.532 2.532 0 01-.596-.013 3.981 3.981 0 01-.578-.11 3.125 3.125 0 00-.54-.11 4.145 4.145 0 00-.556-.034 4.562 4.562 0 01-.63-.041.345.345 0 00-.12-.003c-.174.281-.273.408-.37.54s-.186.253-.351.52a3.1 3.1 0 00-.28.553 3.563 3.563 0 01-.3.591 5.888 5.888 0 00-.301.547 5.677 5.677 0 01-.312.572c-.169.281-.263.409-.355.54s-.181.26-.349.53-.262.408-.353.545-.182.259-.347.528-.242.411-.316.551-.153.284-.325.565a1.752 1.752 0 00-.19.556c-.067.317-.14.675-.665.615h-.009c-.512-.064-.479-.44-.45-.744a1.452 1.452 0 00-.026-.608 3.577 3.577 0 00-.232-.58 5.412 5.412 0 01-.4-1.247 4.889 4.889 0 00-.155-.603c-.096-.307-.146-.456-.203-.604s-.106-.304-.202-.61a4.543 4.543 0 01-.164-.64 5.171 5.171 0 00-.155-.601 4.226 4.226 0 00-.23-.588 5.088 5.088 0 01-.236-.617 4.687 4.687 0 01-.163-.639 4.038 4.038 0 00-.154-.607.242.242 0 00-.17-.143c-.28-.034-.42-.042-.56-.05s-.29-.02-.575-.055-.419-.042-.56-.048-.287-.017-.578-.052-.42-.043-.56-.051-.293-.02-.58-.055c-.569-.07-.57-.065-1.136-.135-.06-.007-.06-.007-.087.029l-.041.047a.316.316 0 00-.065.093 4.842 4.842 0 00.235.549c.065.142.135.288.243.584a6.257 6.257 0 01.188.605 4.918 4.918 0 00.178.581 2.843 2.843 0 00.257.536 2.88 2.88 0 01.282.58c.102.289.154.434.2.578s.102.299.212.598a2.829 2.829 0 01.158.63 2.638 2.638 0 00.145.584c.11.3.161.45.21.601s.103.29.202.576a1.365 1.365 0 00.374.494c.16.16.294.298.281.476a.45.45 0 01-.227.323.894.894 0 01-1.132.031 1.98 1.98 0 00-.733-.26.225.225 0 00-.204.176c-.03.244-.036.368-.043.499s-.01.253-.042.51a2.963 2.963 0 00-.028.484 3.4 3.4 0 01-.03.525c-.03.25-.046.38-.071.506s-.035.246-.066.496c-.018.145.044.152.074.156a3.711 3.711 0 00.589.033 4 4 0 01.623.037 2.3 2.3 0 01.625.156 2.174 2.174 0 00.564.138 1.256 1.256 0 00.5-.039.7.7 0 01.775.178 1.415 1.415 0 01.596 1.156l.036.272c.013.101.032.194.047.274a.875.875 0 01-.307 1.032.629.629 0 01-.77.106 1.449 1.449 0 00-.41-.117l-1.068-.132a2.105 2.105 0 01-.559-.138 1.924 1.924 0 00-.501-.122c-.261-.032-.398-.04-.53-.047s-.273-.017-.543-.05a.179.179 0 00-.191.14c-.03.249-.036.368-.043.5s-.01.257-.042.513-.054.38-.074.506-.04.247-.07.495a3.352 3.352 0 01-.099.517 3.509 3.509 0 00-.089.476c-.008.069.101.174.2.186a3.251 3.251 0 01.546.104 3.328 3.328 0 00.51.1 4.375 4.375 0 00.526.037 4.908 4.908 0 01.551.037 5.2 5.2 0 01.546.094 4.845 4.845 0 00.522.09.965.965 0 00.473-.08.8.8 0 01.359-.066z"/></g><g data-name="グループ 18388"><path data-name="パス 331340" d="M37.676 50c-.878-.107-1.152.457-1.728-.211-.405-.47.274-.512.619-1.033s.447-.441.789-.954.332-.522.678-1.038.271-.564.618-1.08.358-.506.703-1.022.332-.526.68-1.046.316-.537.663-1.057c.056-.084.179-.195.136-.286s-.196-.125-.295-.137c-.564-.07-.56-.099-1.122-.168s-.558-.112-1.12-.18-.571-.01-1.136-.08-.567-.04-1.131-.108c-.114-.014-.276-.013-.334.084l-.668 1.086c-.335.543-.312.566-.646 1.106s-.298.568-.632 1.109-.336.543-.673 1.085-.294.575-.63 1.116-.394.515-.736 1.063-.025 1.151-.665 1.077-.25-.571-.443-1.18-.213-.6-.406-1.212-.19-.608-.384-1.213-.057-.656-.248-1.264-.293-.581-.486-1.188-.212-.61-.404-1.224-.229-.599-.424-1.211c-.034-.113-.053-.146-.168-.16-.563-.069-.552-.158-1.12-.228s-.573-.01-1.14-.08-.555-.174-1.122-.244-.588.083-1.159.013c-.099-.012-.163-.038-.224.042s-.185.194-.148.284c.21.58.355.53.568 1.113s.17.597.383 1.177.181.592.39 1.172.295.556.507 1.14.084.634.293 1.218.265.569.478 1.153.966.855.455 1.213c-.74.518-.914-.204-1.81-.314a.411.411 0 00-.4.301c-.06.496-.036.5-.098 1.002s-.026.506-.087 1.006-.1.498-.162.998c-.019.157.15.272.306.292.603.074.599.103 1.2.177s.606.054 1.208.127.767-.247 1.22.155c.545.487.423.662.522 1.39.083.584.309.829-.14 1.214-.408.353-.572-.082-1.104-.147s-.526-.13-1.063-.195-.536-.053-1.072-.119-.543-.023-1.08-.09c-.156-.018-.384.071-.403.228-.061.497.082.514.02 1.02s-.137.487-.199.993-.032.507-.093 1.007a.31.31 0 00.233.354c.535.065.536.06 1.072.126s.533.075 1.066.14.547-.033 1.085.033.83-.301 1.118.164c.353.565-.142.688-.224 1.356s-.118.662-.2 1.322.037.68-.045 1.345c-.019.157.016.325.177.345.689.085.698.007 1.387.092s.69.12 1.38.205.702.025 1.39.11c.157.02.332-.02.351-.177.082-.662.102-.66.184-1.323s.096-.664.177-1.325-.447-.934.028-1.4c.383-.377.584.173 1.117.238s.532.05 1.064.115.537.022 1.07.087.534.037 1.066.103c.161.02.35-.048.37-.207.06-.496.081-.494.142-.99s.011-.51.073-1.014-.027-.507.035-1.013c.02-.157-.017-.353-.18-.373-.528-.064-.526-.082-1.056-.147s-.543.025-1.073-.04-.536-.036-1.07-.101-.722.245-1.033-.192c-.338-.483-.116-.612.108-1.16.275-.68.204-.836.85-1.177.531-.279.59-.01 1.186.063s.585.163 1.18.236.592.103 1.188.176c.161.02.296-.158.315-.315.061-.496.12-.489.183-.991s-.062-.518 0-1.018.202-.485.264-.985a.369.369 0 00-.31-.353z"/><path data-name="パス 331341" d="M30.025 63.368a5.372 5.372 0 01-.703-.124 4.62 4.62 0 00-.671-.121 5.768 5.768 0 00-.68-.05 6.1 6.1 0 01-.706-.05c-.217-.027-.341-.233-.308-.501a3.742 3.742 0 00.029-.65 3.876 3.876 0 01.034-.694c.041-.336.074-.505.107-.67a5.965 5.965 0 00.11-.649 1.8 1.8 0 01.186-.599.517.517 0 00-.023-.63c-.129-.207-.202-.19-.42-.143a1.435 1.435 0 01-.542.047c-.273-.034-.408-.064-.544-.088a4.571 4.571 0 00-.524-.088c-.264-.032-.398-.043-.529-.056s-.272-.024-.54-.057-.398-.04-.53-.053-.272-.02-.544-.052a.424.424 0 01-.386-.45l.06-.497.063-.503c.03-.255.046-.38.062-.508s.039-.245.07-.495a4.181 4.181 0 01.09-.513 4.193 4.193 0 00.084-.483.393.393 0 01.428-.38c.273.034.408.06.542.08s.263.045.529.078.398.04.532.047.271.015.543.049.408.059.544.085.26.05.522.082a1.411 1.411 0 01.543.2c.212.118.3.166.48.008.299-.252.263-.427.188-.799-.022-.103-.043-.207-.06-.333s-.033-.205-.043-.294a1.159 1.159 0 00-.501-.994.438.438 0 00-.53-.099 1.426 1.426 0 01-.622.067 4.973 4.973 0 01-.615-.106 4.523 4.523 0 00-.585-.102c-.302-.037-.453-.065-.604-.086s-.295-.055-.593-.091a.38.38 0 01-.338-.445c.03-.252.046-.377.068-.502s.036-.248.066-.496l.123-1.002c.032-.257.056-.38.08-.505s.049-.246.08-.494c.037-.307.231-.348.384-.329a2.755 2.755 0 01.779.225.722.722 0 00.894-.077c.083-.06.132-.115.136-.151.008-.066-.08-.171-.172-.287a1.755 1.755 0 01-.352-.558c-.107-.29-.17-.423-.232-.57s-.126-.293-.235-.592-.158-.444-.209-.593-.098-.293-.201-.577-.17-.424-.233-.561a6.121 6.121 0 01-.243-.59c-.106-.294-.153-.442-.202-.591s-.095-.293-.195-.578a4.277 4.277 0 00-.239-.557 5.207 5.207 0 01-.25-.585c-.108-.294-.146-.447-.192-.598s-.086-.292-.187-.582a.465.465 0 01.078-.431.5.5 0 01.404-.193 3.326 3.326 0 01.583.115 3.288 3.288 0 00.547.105 4.7 4.7 0 01.576.1 4.878 4.878 0 00.551.096l1.135.139a5.1 5.1 0 00.556.038 5.435 5.435 0 01.582.041.366.366 0 01.314.277c.097.3.155.448.216.598s.124.3.227.612.152.457.207.606.115.304.211.61.144.467.186.628.084.306.181.607a4.053 4.053 0 01.155.642 3.832 3.832 0 00.145.606 6.092 6.092 0 00.215.585 5.974 5.974 0 01.227.612c.097.298.146.45.2.6s.1.303.201.613a1.782 1.782 0 01.04.72c-.027.369-.015.444.22.473h.009c.234.03.263-.04.308-.407a1.684 1.684 0 01.207-.72c.172-.28.258-.413.349-.554s.172-.265.335-.53.252-.41.33-.55.166-.281.333-.55.252-.41.337-.543.17-.274.337-.547.257-.407.345-.539.176-.264.34-.533.263-.41.353-.541.18-.263.345-.533.267-.407.362-.535.186-.254.352-.524c.056-.094.158-.267.36-.242a4.292 4.292 0 01.573.1 5.317 5.317 0 00.547.095c.282.034.423.052.564.064s.284.035.567.07a3.713 3.713 0 00.55.032 4.5 4.5 0 01.584.037 3.964 3.964 0 01.575.11 3.209 3.209 0 00.541.106l.064.008c.112.004.28.011.347.155s-.049.27-.118.348a.28.28 0 00-.052.059 2.051 2.051 0 00-.266.53 2.567 2.567 0 01-.299.591 4.823 4.823 0 01-.39.51 3.753 3.753 0 00-.377.457 6.209 6.209 0 01-.38.512 5.059 5.059 0 00-.361.487 2.03 2.03 0 00-.267.53 2.431 2.431 0 01-.296.588 2.493 2.493 0 01-.414.498 2.579 2.579 0 00-.376.457 2.7 2.7 0 00-.286.525 2.967 2.967 0 01-.306.567 1.474 1.474 0 01-.56.458c-.093.049-.216.12-.22.162-.002.005-.006.044.081.15a.712.712 0 00.83.303 2.877 2.877 0 01.77-.019c.253.031.393.186.366.408a3.608 3.608 0 01-.095.512 3.039 3.039 0 00-.092.482 1.848 1.848 0 00-.005.475 2.114 2.114 0 01-.006.542 2.08 2.08 0 01-.129.526 1.6 1.6 0 00-.116.457c-.043.345-.23.447-.394.427-.596-.073-.595-.078-1.19-.151-.299-.037-.446-.046-.592-.054s-.305-.02-.607-.057a1.34 1.34 0 01-.6-.244c-.196-.119-.292-.183-.535-.056a1.077 1.077 0 00-.663.798 8.285 8.285 0 01-.14.372c-.045.11-.093.206-.13.287-.163.344-.231.488 0 .815.134.188.214.164.44.105a1.375 1.375 0 01.568-.064c.261.032.4.035.528.042s.271.017.543.05a2.249 2.249 0 01.552.132 1.905 1.905 0 00.495.122l1.058.13c.303.037.48.193.455.397a3.676 3.676 0 01-.093.512 3.448 3.448 0 00-.088.483l-.061.505-.062.503a3.192 3.192 0 00-.025.484 3.318 3.318 0 01-.028.52.488.488 0 01-.548.358 5.132 5.132 0 01-.54-.092 5.065 5.065 0 00-.516-.084l-1.065-.131a2.392 2.392 0 00-.515-.017 3.023 3.023 0 01-.559-.02 1.283 1.283 0 01-.537-.213c-.187-.114-.247-.148-.403.006a.507.507 0 00-.17.603 1.868 1.868 0 01.04.641 4.745 4.745 0 01-.127.677 4.351 4.351 0 00-.122.639l-.081.66-.082.666c-.041.334-.228.411-.393.39-.341-.041-.513-.053-.687-.065s-.353-.016-.706-.059zm-1.343-.51a5.284 5.284 0 01.703.124 4.685 4.685 0 00.673.122c.343.042.515.054.688.072s.349.025.697.068c.052.006.083-.05.096-.16l.081-.662.082-.664a4.812 4.812 0 01.127-.678 4.243 4.243 0 00.121-.638 1.673 1.673 0 00-.032-.554.759.759 0 01.242-.848.5.5 0 01.732-.041 1.049 1.049 0 00.429.174 2.615 2.615 0 00.513.015 2.68 2.68 0 01.561.018l1.062.13a4.551 4.551 0 01.538.093 5.11 5.11 0 00.518.085c.1.012.243-.053.251-.121a3.222 3.222 0 00.027-.485 3.317 3.317 0 01.028-.52l.062-.503.062-.505a3.574 3.574 0 01.097-.512 3.688 3.688 0 00.087-.483c.005-.036-.097-.085-.22-.1l-1.06-.13a2.278 2.278 0 01-.553-.133 1.877 1.877 0 00-.49-.12c-.26-.032-.391-.04-.524-.046s-.274-.013-.546-.046a1.105 1.105 0 00-.464.056.564.564 0 01-.732-.212.887.887 0 01-.023-1.077c.037-.081.082-.176.126-.278.054-.14.096-.256.134-.364a1.34 1.34 0 01.792-.942.676.676 0 01.798.068 1.115 1.115 0 00.49.198c.298.037.445.046.591.06s.3.02.607.057c.595.073.595.078 1.19.151.073.01.097-.19.098-.195a2.014 2.014 0 01.128-.522 1.686 1.686 0 00.117-.462 1.769 1.769 0 00.005-.48 2.039 2.039 0 01.005-.535 3.361 3.361 0 01.098-.515 3.576 3.576 0 00.089-.479c.005-.038.011-.093-.133-.11a2.39 2.39 0 00-.7.02.974.974 0 01-1.07-.4.466.466 0 01-.142-.367c.03-.17.187-.258.354-.35a1.308 1.308 0 00.467-.375 2.8 2.8 0 00.28-.523 2.932 2.932 0 01.309-.574 2.9 2.9 0 01.411-.495 2.379 2.379 0 00.38-.457 2.049 2.049 0 00.267-.533 2.36 2.36 0 01.297-.587 5.072 5.072 0 01.38-.512 4.833 4.833 0 00.362-.488 4.353 4.353 0 01.39-.507 4.021 4.021 0 00.368-.481 2.085 2.085 0 00.267-.534 2.553 2.553 0 01.298-.587.785.785 0 01.078-.091c.011-.015.032-.033.044-.05-.025-.003-.066-.008-.093-.002s-.058-.008-.081-.01a3.46 3.46 0 01-.577-.114 3.171 3.171 0 00-.539-.106 3.735 3.735 0 00-.55-.032 4.509 4.509 0 01-.584-.038l-.561-.069c-.14-.017-.285-.026-.57-.06a5.415 5.415 0 01-.572-.101 4.276 4.276 0 00-.547-.097c-.023-.003-.058.053-.098.119a6.081 6.081 0 01-.369.543c-.094.131-.185.251-.349.515s-.258.41-.351.547-.178.26-.344.528-.258.407-.348.542-.175.265-.34.53-.252.41-.337.547-.171.269-.335.544-.252.41-.332.547-.165.275-.333.553l-.338.534c-.088.139-.176.271-.346.549a1.508 1.508 0 00-.168.612c-.039.315-.086.702-.606.644l-.007-.001c-.514-.063-.48-.454-.457-.762a1.619 1.619 0 00-.033-.615c-.096-.305-.145-.46-.2-.61s-.104-.301-.199-.603a5.378 5.378 0 00-.216-.59c-.06-.15-.124-.3-.227-.607a4.213 4.213 0 01-.154-.642 3.856 3.856 0 00-.147-.607c-.097-.307-.145-.463-.184-.616s-.084-.312-.183-.61-.146-.45-.205-.601-.114-.31-.213-.62-.155-.443-.218-.593-.122-.304-.22-.615c-.026-.077-.053-.09-.09-.094a5.065 5.065 0 00-.554-.038 5.494 5.494 0 01-.583-.04l-1.135-.14a5.322 5.322 0 01-.578-.098 5.4 5.4 0 00-.55-.093 3.55 3.55 0 01-.583-.115 3.141 3.141 0 00-.545-.111.252.252 0 00-.163.098.214.214 0 00-.039.172c.107.294.153.448.194.6s.087.29.188.58a5.739 5.739 0 00.239.559 4.5 4.5 0 01.249.58c.107.294.153.442.2.587s.093.298.201.583a5.6 5.6 0 00.233.57 5.745 5.745 0 01.24.58c.107.294.156.443.205.588s.103.293.208.588.167.432.232.574.126.287.23.586a1.636 1.636 0 00.31.48c.131.159.256.308.231.491a.5.5 0 01-.242.333.974.974 0 01-1.156.105 2.421 2.421 0 00-.702-.206c-.065-.008-.072-.009-.085.097-.031.255-.058.378-.083.504s-.049.246-.079.494l-.123 1.003-.062.502-.06.496c-.009.064.003.139.1.15.305.038.457.057.609.087s.295.055.593.091a4.951 4.951 0 01.615.106 4.52 4.52 0 00.585.102 1.161 1.161 0 00.51-.059.7.7 0 01.788.152 1.447 1.447 0 01.588 1.165c.011.086.022.18.039.288s.037.222.056.314a.9.9 0 01-.276 1.057.59.59 0 01-.783.026 1.186 1.186 0 00-.446-.171c-.27-.033-.405-.059-.54-.085s-.262-.05-.526-.082-.398-.04-.53-.047-.273-.016-.546-.049-.406-.055-.539-.078-.264-.047-.532-.08c-.106-.013-.13.132-.131.148a4.565 4.565 0 01-.088.51 4.211 4.211 0 00-.087.485c-.03.253-.046.376-.062.505s-.039.245-.07.495l-.06.496-.063.504c-.01.087.073.148.154.158.264.033.399.04.53.051s.273.022.544.055.397.049.529.056.27.02.54.054.41.062.545.088a5.117 5.117 0 00.523.085 1.259 1.259 0 00.452-.035.546.546 0 01.709.257.782.782 0 01.038.888 1.54 1.54 0 00-.165.52c-.041.336-.074.505-.11.671s-.068.324-.107.649a3.543 3.543 0 00-.028.654 4.046 4.046 0 01-.034.69c-.009.073.002.194.076.203a5.763 5.763 0 00.68.05 6.155 6.155 0 01.697.049z"/></g></g></svg>