<svg xmlns="http://www.w3.org/2000/svg" width="250" height="152"><g data-name="グループ 18930"><g data-name="長方形 4504" fill="#fff" stroke="#ef4123" stroke-width="4"><rect width="250" height="152" rx="25" stroke="none"/><rect x="2" y="2" width="246" height="148" rx="23" fill="none"/></g><path data-name="パス 331873" d="M217.996 108.594h10.71v4.392c0 .432-.108.486-.81.486-.648 0-1.548-.072-2.736-.2a6.926 6.926 0 01.558 1.944c.7.036 1.692.072 2.394.072a4.427 4.427 0 001.89-.25c.522-.27.738-.774.738-1.692v-11.538a17.714 17.714 0 01.072-1.962 16.5 16.5 0 01-1.962.072h-10.944a19.338 19.338 0 01-2-.072 15.508 15.508 0 01.074 1.728v11.772a17.1 17.1 0 01-.108 2.16h2.214a13.231 13.231 0 01-.09-2.088zm4.266-1.89h-4.266v-4.878h4.266zm1.944 0v-4.878h4.5v4.878z" fill="#ef4123"/><path data-name="パス 331874" d="M38.159 81.78h-5.65c-.75 5.35-5.3 7.05-10.25 6.95v5.35h8.8v22.7h7.1zm34.45 0h-19.55l-3.45 19.35h6.4a5.9 5.9 0 015.35-2.8c3.8 0 6.05 2.9 6.05 6.55 0 3.5-2.35 6.75-6.05 6.75a5.654 5.654 0 01-5.75-5.25h-7.1c.1 7.35 6.2 11.1 13 11.1a12.637 12.637 0 0013-12.6c0-6.55-3.9-11.9-10.8-11.9a8.9 8.9 0 00-6.85 2.7l-.1-.1 1.4-7.95h14.45zm15.45 19.15c3.45 0 8.1-.1 8.1 5.2a5.411 5.411 0 01-5.7 5.5c-4.1 0-6-3.1-6.15-6.9h-6.75c-.15 8.05 5.15 12.75 13 12.75 6.85 0 13-4.15 13-11.5a7.819 7.819 0 00-6.2-7.95v-.1c3.25-.9 4.9-3.85 4.9-7.15 0-6.25-6.15-9.7-11.75-9.7-7.2 0-11.85 4.95-12.1 12.1h6.75c-.05-3.6 1.85-6.25 5.4-6.25a4.648 4.648 0 014.95 4.65c0 4-4.4 4.6-7.45 4.35zm20.7 15.85h3.6a4.566 4.566 0 01-3.55 4.7v3.6c4.3-.65 7.8-3.7 7.8-8.3v-7.7h-7.85zm13.15-17.65c0 13.95 5.9 18.35 12.8 18.35 7 0 12.9-4.4 12.9-18.35 0-13.65-5.9-18.05-12.9-18.05-6.9 0-12.8 4.4-12.8 18.05zm7.1 0c0-3.65 0-12.2 5.7-12.2 5.8 0 5.8 8.55 5.8 12.2 0 3.95 0 12.5-5.8 12.5-5.7 0-5.7-8.55-5.7-12.5zm21.95 0c0 13.95 5.9 18.35 12.8 18.35 7 0 12.9-4.4 12.9-18.35 0-13.65-5.9-18.05-12.9-18.05-6.9 0-12.8 4.4-12.8 18.05zm7.1 0c0-3.65 0-12.2 5.7-12.2 5.8 0 5.8 8.55 5.8 12.2 0 3.95 0 12.5-5.8 12.5-5.7 0-5.7-8.55-5.7-12.5zm21.95 0c0 13.95 5.9 18.35 12.8 18.35 7 0 12.9-4.4 12.9-18.35 0-13.65-5.9-18.05-12.9-18.05-6.9 0-12.8 4.4-12.8 18.05zm7.1 0c0-3.65 0-12.2 5.7-12.2 5.8 0 5.8 8.55 5.8 12.2 0 3.95 0 12.5-5.8 12.5-5.7 0-5.7-8.55-5.7-12.5z" fill="#ef4123"/><path data-name="長方形 4506" d="M25 0h200a25 25 0 0125 25v31H0V25A25 25 0 0125 0z" fill="#ef4123"/><path data-name="パス 331875" d="M79.68 27.022c0 .594 0 .594-.022 1.21h-3.872a13.89 13.89 0 01-1.98-.088v2.09a14.5 14.5 0 011.98-.088H79.5c-.066.528-.11.77-.2 1.188h-5.764a14.217 14.217 0 01-2.222-.11v2.31a20.247 20.247 0 012.354-.132h4.862a6.491 6.491 0 01-2.788 2.578 13.4 13.4 0 01-4.774 1.338 7.249 7.249 0 011.166 2.288 14.274 14.274 0 005.366-1.98 8.648 8.648 0 003.212-3.454 11.638 11.638 0 005.216 4.18 21.546 21.546 0 004.114 1.276 8.8 8.8 0 011.144-2.376c-1.21-.22-1.892-.352-2.442-.506a13.946 13.946 0 01-3.872-1.5 7.489 7.489 0 01-2.046-1.848h5.61a19.3 19.3 0 012.376.132v-2.31a15.041 15.041 0 01-2.266.11h-6.864c.088-.462.11-.638.176-1.188H86.1a14.336 14.336 0 011.958.088v-2.09a13.53 13.53 0 01-1.958.088h-4.11c.022-.506.022-.506.044-1.21h4.422a12.528 12.528 0 012.09.11v-1.166h2.024a12.1 12.1 0 01-.088-1.628v-1.672a12.632 12.632 0 01.088-1.606c-.748.066-1.32.088-2.442.088H82.1v-.506a6.68 6.68 0 01.11-1.386H79.5a6.9 6.9 0 01.132 1.386v.506h-5.72a23.984 23.984 0 01-2.42-.088 13.579 13.579 0 01.088 1.65v1.628a8.584 8.584 0 01-.11 1.628h2.03v1.166a12.071 12.071 0 012.068-.11zm-4.114-1.936a15.377 15.377 0 01-1.694-.066v-1.8h14.322v1.8c-.55.044-.9.066-1.738.066h-4.378a7.222 7.222 0 01.088-1.408h-2.552a10.512 10.512 0 01.088 1.408zm30.118-2.728c.022-.176.022-.352.044-.682a33.68 33.68 0 006.446-.836l-1.408-1.848a16.181 16.181 0 01-3.08.726c-.858.11-2.882.264-3.608.264a4.6 4.6 0 01-.682-.044 4.81 4.81 0 01.066.792 6.828 6.828 0 01-1.276 4.6 7.929 7.929 0 011.056.9h-2.794v-1.914h.572a11.1 11.1 0 011.562.088V22.27a10.408 10.408 0 01-1.606.088H96.6a5.781 5.781 0 00.022-.66 23.356 23.356 0 006.072-.9l-1.342-1.848a9.95 9.95 0 01-2.2.66 26.9 26.9 0 01-4.07.374c-.044 0-.22 0-.44-.022h-.374a8.591 8.591 0 01.088 1.012c0 2.86-.484 4.378-1.76 5.676a11.344 11.344 0 011.826 1.87 6.652 6.652 0 001.056-1.562c.044.77.044 1.078.044 2.134v4.422a19.552 19.552 0 01-.11 2.6 23.032 23.032 0 012.376-.088h1.276c-1.674.918-2.818 1.204-6.164 1.554a8.778 8.778 0 011.19 2.224 18.808 18.808 0 007.194-2.4L99.5 36.02h6.886l-1.782 1.3a18.272 18.272 0 007.3 2.508 8.429 8.429 0 011.128-2.248 15.789 15.789 0 01-6.332-1.56h1.584a22.031 22.031 0 012.354.088 16.39 16.39 0 01-.11-2.508v-4.488a22.407 22.407 0 01.11-2.97c-.374.044-.44.044-.9.066v-1.892h1.452a9.688 9.688 0 011.672.11V22.27a12.721 12.721 0 01-1.694.088zm1.826 1.958v1.914h-2.9a7.909 7.909 0 00.77-1.914zm-9.79 1.914c-.792 0-1.166 0-1.892-.044a7.246 7.246 0 00.572-1.87h1.848v1.914zm.132 1.826h10.34v.946h-10.34zm0 2.574h10.34v.924h-10.34zm0 2.574h10.34v.946h-10.34zm30.36-9.108a14.938 14.938 0 00.968-1.166c.638-.792.638-.792.682-.858a1.284 1.284 0 00.176-.22c.22-.242.22-.242.352-.374l-1.21-1.098a15.862 15.862 0 01-2.156.088h-3.982c.418-.638.682-1.012.748-1.1l-2.772-.488a9.014 9.014 0 01-2.112 2.9 15.8 15.8 0 01-4.048 3.014 7.038 7.038 0 011.166 2.112c.88-.55 1.188-.748 1.672-1.1v7.354a17.833 17.833 0 01-.11 2.552 20.429 20.429 0 012.4-.11h1.122a14.384 14.384 0 01-6.074 1.958 8.19 8.19 0 011.366 2.156 19.99 19.99 0 004.266-1.276 15.611 15.611 0 002.882-1.65l-1.254-1.188h5.522l-1.3 1.21a16.633 16.633 0 003.084 1.606 20.465 20.465 0 004.42 1.254 12.453 12.453 0 011.232-2.222 18.905 18.905 0 01-5.082-1.232 7.551 7.551 0 01-1.276-.616h1.584a19.819 19.819 0 012.376.11 16.9 16.9 0 01-.11-2.552v-6.842a15.013 15.013 0 01.11-2.288c-.792.044-1.188.066-2.464.066zm-8.448 0c.748-.66 1.1-1.012 1.672-1.606h5.214a19.493 19.493 0 01-1.276 1.606zm.242 2h10.428v1.188h-10.428zm0 3.1h10.428v1.188h-10.428zm0 3.124h10.428v1.188h-10.428zm19.932-6.732v4.052a14.406 14.406 0 01-2.926.66l.462 2.464a5.345 5.345 0 01.924-.33l1.54-.484v4.62c0 .528-.132.638-.7.638a19.981 19.981 0 01-2.072-.128 7.672 7.672 0 01.506 2.332c.7.044 1.32.066 1.8.066 2.046 0 2.816-.572 2.816-2.09v-6.252c.946-.33 1.122-.4 2.134-.792v-2.156c-.99.352-1.232.44-2.134.726v-3.322h.814a9.369 9.369 0 011.342.088v-2.31a8.308 8.308 0 01-1.32.088h-.836v-1.826a12.2 12.2 0 01.132-2.222h-2.614a12.471 12.471 0 01.132 2.244v1.8h-1.012a8.118 8.118 0 01-1.716-.132v2.376a12.387 12.387 0 011.716-.11zm13.552 8.848a20.043 20.043 0 012.244.088c-.066-.814-.088-1.43-.088-2.552v-9.02c0-1.3.022-1.936.088-2.662a19.777 19.777 0 01-2.354.088h-5.962a19.012 19.012 0 01-2.266-.088c.044.594.066 1.276.066 2.376v9.768c0 .946-.022 1.584-.066 2.09.66-.066 1.408-.088 2.222-.088zm-5.94-11.9h5.7v3.806h-5.7zm0 5.918h5.7v3.85h-5.7zm-4.224 10.426c.704-.066 1.474-.11 2.574-.11h8.778a21.6 21.6 0 012.552.132v-2.486a20.44 20.44 0 01-2.53.132h-8.8a21.471 21.471 0 01-2.574-.132zm23.43-14.146a6.982 6.982 0 01-1.012.046h-1.76c.2-.352.2-.352.33-.616l.176-.352-2.046-.418a8.86 8.86 0 01-3.784 4.376 4.837 4.837 0 011.166 1.716 10.489 10.489 0 001.584-1.32 11.821 11.821 0 001.3 1.342 13.193 13.193 0 01-4.31 1.98 5.246 5.246 0 011.1 2.024c.462-.2.594-.264.968-.44.022.33.022.506.022.814v3.432a17.617 17.617 0 01-.11 2.046h2.266v-1.21h3.014v1.034h2.2a38.387 38.387 0 01-.066-1.056 6.953 6.953 0 011.162 1.648 12.167 12.167 0 004.466-3.168l-1.606-1.384h3.608l-1.54 1.408a12.119 12.119 0 004.444 3.1 8.737 8.737 0 011.32-2.112 10.064 10.064 0 01-4.048-2.4h.748c.528 0 1.144.022 1.892.066a35.265 35.265 0 01-.066-2.266v-7.59c0-.836.022-1.342.066-1.958a15.162 15.162 0 01-2.156.066h-1.452a16.282 16.282 0 00.55-1.54h1.562a17.037 17.037 0 012.31.11V19.78a16.333 16.333 0 01-2.31.11H171a15.343 15.343 0 01-2.31-.11v1.408c-.33.022-.726.044-1.628.044h-1.8v-.44a5.822 5.822 0 01.11-1.408h-2.532a6.428 6.428 0 01.11 1.386v.462h-2.068a14.131 14.131 0 01-1.76-.066c.044.55.066 1.078.066 1.474v1.056a10.514 10.514 0 01-.088 1.408h2.178V23.19h5.478zm.792.286h1.276a9.987 9.987 0 01-.066-1.474v-1.43a19.122 19.122 0 012.242-.11h1.914c-.154.484-.242.77-.55 1.54h-1.274a17.484 17.484 0 01-1.848-.044c.066 1.078.066 1.078.066 2.068v7.7c0 .506-.022 1.5-.066 2.024q1.155-.066 1.716-.066h.66a8.112 8.112 0 01-1.716 1.5 7.784 7.784 0 01-2.134 1.074V34.04c0-.836 0-.836.044-1.518l.638.2a7.151 7.151 0 01.77-1.98 16.942 16.942 0 01-3.5-1.32 18.65 18.65 0 002.266-3.08c.11-.154.132-.176.264-.352l.088-.11zm-1.98 1.584a14.7 14.7 0 01-1.474 1.76 8.827 8.827 0 01-1.5-1.518.959.959 0 00.2-.242zm-3.586 5.7a13.834 13.834 0 002.288-1.54 20.1 20.1 0 002.93 1.516c-.264.022-.4.022-.858.022zm.638 1.826h3.036v2.134h-3.036zm8.844-8.6H176v1.32h-4.536zm0 3.124H176v1.386h-4.536zm0 3.19H176v1.364h-4.536z" fill="#fff"/></g></svg>