<svg xmlns="http://www.w3.org/2000/svg" width="373.444" height="34.409"><g data-name="グループ 17724"><path data-name="パス 331737" d="M68.445 14.935c0 11.439 4.838 15.047 10.5 15.047 5.74 0 10.578-3.608 10.578-15.047 0-11.193-4.838-14.8-10.578-14.8-5.662-.001-10.5 3.607-10.5 14.8zm5.822 0c0-2.993 0-10 4.674-10 4.756 0 4.756 7.011 4.756 10 0 3.239 0 10.25-4.756 10.25-4.674 0-4.674-7.011-4.674-10.25zM110.552.708h-4.633c-.615 4.387-4.346 5.781-8.405 5.7v4.387h7.216v18.613h5.822zm17.917 11.029c0-3.034 1.107-6.6 4.551-6.6a4.144 4.144 0 014.305 4.428c-.041 3.526-3.485 5.289-6.027 7.011-4.961 3.361-9.02 6.19-9.061 12.832h21.074v-5H129.74c2.091-2.952 5.453-4.592 8.282-6.6s5.125-4.387 5.125-8.692c0-5.617-4.592-8.979-9.84-8.979-6.888 0-10.619 5.043-10.414 11.6zm20.664 3.2c0 11.439 4.838 15.047 10.5 15.047 5.74 0 10.578-3.608 10.578-15.047 0-11.193-4.838-14.8-10.578-14.8-5.662-.003-10.5 3.605-10.5 14.798zm5.822 0c0-2.993 0-10 4.674-10 4.756 0 4.756 7.011 4.756 10 0 3.239 0 10.25-4.756 10.25-4.674-.002-4.674-7.013-4.674-10.252zm22.386 5.779h12.341v-5h-12.341zm40.06-12.628c-.656-5.043-4.346-7.954-9.307-7.954-8.159 0-11.275 8-11.275 15.006 0 7.257 2.337 14.842 11.029 14.842 5.986 0 10.045-4.633 10.045-10.5a9.876 9.876 0 00-2.214-6.4 9.167 9.167 0 00-6.6-2.952 7.3 7.3 0 00-6.478 3.2l-.082-.082c.164-3.2 1.271-8.733 5.494-8.733a4.109 4.109 0 013.85 3.573zm-9.717 6.437c2.993 0 4.387 2.706 4.387 5.412 0 2.583-1.6 5.248-4.387 5.248-2.911 0-4.633-2.665-4.633-5.33-.003-2.829 1.514-5.33 4.63-5.33zm21.563 6.191c0-2.952 2.255-4.551 5.084-4.551a4.639 4.639 0 014.92 4.592 4.717 4.717 0 01-4.92 4.838 4.837 4.837 0 01-5.084-4.879zm-4.633-12.751a5.725 5.725 0 004.223 5.9v.082a6.823 6.823 0 00-5.412 7.061c0 6.186 5.376 8.974 10.906 8.974 5.33 0 10.742-2.993 10.742-9.02a6.708 6.708 0 00-5.372-7.011v-.082a6.023 6.023 0 004.182-6.027c0-2.788-2.46-7.708-9.594-7.708-4.673 0-9.675 2.665-9.675 7.831zm5.287.533c0-2.542 2.05-3.977 4.387-3.977 3.608 0 4.3 2.5 4.3 3.977 0 2.46-1.927 3.772-4.3 3.772-2.335 0-4.387-1.271-4.387-3.772zm26.242 12.218c0-2.952 2.255-4.551 5.084-4.551a4.639 4.639 0 014.92 4.592 4.717 4.717 0 01-4.92 4.838 4.837 4.837 0 01-5.084-4.879zM251.51 7.965a5.725 5.725 0 004.223 5.9v.082a6.823 6.823 0 00-5.412 7.061c0 6.191 5.371 8.979 10.906 8.979 5.33 0 10.742-2.993 10.742-9.02a6.708 6.708 0 00-5.368-7.016v-.082a6.023 6.023 0 004.182-6.027c0-2.788-2.46-7.708-9.594-7.708-4.677 0-9.679 2.665-9.679 7.831zm5.291.533c0-2.542 2.05-3.977 4.387-3.977 3.608 0 4.305 2.5 4.305 3.977 0 2.46-1.927 3.772-4.305 3.772-2.339 0-4.387-1.271-4.387-3.772zm22.015 12.218h12.341v-5h-12.341zM317.93.708h-16.029l-2.831 15.867h5.248a4.836 4.836 0 014.387-2.3c3.116 0 4.961 2.378 4.961 5.371 0 2.87-1.927 5.535-4.961 5.535a4.636 4.636 0 01-4.715-4.3h-5.822c.082 6.027 5.084 9.1 10.66 9.1a10.362 10.362 0 0010.66-10.331c0-5.371-3.2-9.758-8.856-9.758a7.3 7.3 0 00-5.617 2.216l-.082-.082 1.148-6.518h11.849zm13.489 11.029c0-3.034 1.107-6.6 4.551-6.6a4.144 4.144 0 014.305 4.428c-.041 3.526-3.485 5.289-6.027 7.011-4.961 3.362-9.02 6.191-9.061 12.833h21.074v-5.001H332.69c2.091-2.952 5.453-4.592 8.282-6.6s5.129-4.39 5.129-8.7c0-5.617-4.592-8.979-9.84-8.979-6.888 0-10.619 5.043-10.414 11.6zm26.2 8.979c0-2.952 2.255-4.551 5.084-4.551a4.639 4.639 0 014.92 4.592 4.717 4.717 0 01-4.92 4.838 4.837 4.837 0 01-5.085-4.879zm-4.633-12.751a5.725 5.725 0 004.223 5.9v.082a6.823 6.823 0 00-5.408 7.061c0 6.186 5.366 8.974 10.9 8.974 5.33 0 10.742-2.993 10.742-9.02a6.708 6.708 0 00-5.371-7.011v-.082a6.023 6.023 0 004.182-6.027c0-2.788-2.46-7.708-9.594-7.708-4.673 0-9.675 2.665-9.675 7.831zm5.289.533c0-2.542 2.05-3.977 4.387-3.977 3.608 0 4.305 2.5 4.305 3.977 0 2.46-1.927 3.772-4.305 3.772-2.338 0-4.388-1.271-4.388-3.772z" fill="#eb5e00"/><g data-name="グループ 17723"><g data-name="グループ 17722"><g data-name="グループ 17720"><g data-name="グループ 17719"><g data-name="グループ 17718"><path data-name="パス 48621" d="M53.631 31.154a3.254 3.254 0 103.252-3.253 3.257 3.257 0 00-3.252 3.253m.377 0a2.876 2.876 0 112.875 2.875 2.88 2.88 0 01-2.875-2.874z" fill="#eb5e00"/></g></g></g><path data-name="パス 48622" d="M58.467 33.26h-.624l-1.263-1.954h-.554v1.954h-.5v-4.3h1.217a1.456 1.456 0 01.967.3 1.017 1.017 0 01.356.827 1.06 1.06 0 01-.258.7 1.332 1.332 0 01-.714.415l1.375 2.059m-2.441-2.388h.63a.948.948 0 00.645-.215.692.692 0 00.247-.542q0-.719-.878-.719h-.644z" fill="#eb5e00"/><g data-name="グループ 17721" fill="#eb5e00"><path data-name="パス 48623" d="M32.701 19.596a6.406 6.406 0 1012.8 0c0-3.5-3.459-6.291-6.4-7.96-2.939 1.669-6.4 4.463-6.4 7.96z"/><path data-name="パス 48624" d="M6.681 19.671a6.408 6.408 0 1012.8 0c0-3.5-3.462-6.288-6.4-7.959-2.938 1.671-6.4 4.463-6.4 7.959z"/><path data-name="パス 48625" d="M0 0v33.982h52.069V0zm52.061 8.264a26.35 26.35 0 00-9.91 1.879c3.218 2.151 6.329 5.411 6.329 9.526a9.671 9.671 0 01-9.582 9.594 9.541 9.541 0 01-9.428-9.594c0-4.115 2.958-7.375 6.174-9.526a25.556 25.556 0 00-19.235 0c3.218 2.151 6.174 5.411 6.174 9.526a9.541 9.541 0 01-9.428 9.594 9.732 9.732 0 01-9.654-9.594c0-4.115 3.183-7.375 6.4-9.526a26.3 26.3 0 00-9.9-1.879V5.289a29.306 29.306 0 0113.154 2.974 29.341 29.341 0 0125.743 0 29.341 29.341 0 0113.163-2.974z"/></g></g></g></g></svg>