<svg xmlns="http://www.w3.org/2000/svg" width="328.604" height="39.999"><g data-name="グループ 18884"><path data-name="パス 331738" d="M51.265 17.153a24.742 24.742 0 01-8.052 7.128 1.35 1.35 0 00-.814 1.166 1.174 1.174 0 001.166 1.166 1.49 1.49 0 00.7-.2 27.4 27.4 0 008.47-7.326l-.044 4.51.066 2v.088c0 .594-.22.748-.726.748a8.223 8.223 0 01-1.078-.088c-.066 0-.132-.022-.176-.022a1.151 1.151 0 00-1.118 1.236 1.161 1.161 0 001.056 1.188 11.777 11.777 0 001.76.11c1.5 0 2.75-.682 2.75-2.882v-.11l-.2-8.712h4.488a1.045 1.045 0 001.034-1.144 1.045 1.045 0 00-1.034-1.144h-4.532l-.088-3.674a1.148 1.148 0 00-1.254-1.078 1.146 1.146 0 00-1.254 1.122l.088 3.63h-8.03a1.041 1.041 0 00-1.012 1.144 1.041 1.041 0 001.012 1.144zm17.512-4.62a1.6 1.6 0 00-.88-.286 1.422 1.422 0 00-1.408 1.342 1.224 1.224 0 00.528.99 32.167 32.167 0 012.992 2.662 1.4 1.4 0 00.99.44 1.487 1.487 0 001.408-1.452 1.3 1.3 0 00-.4-.946 19.755 19.755 0 00-3.23-2.75zm11.792 2.794a24.5 24.5 0 01-12.408 10.406 1.187 1.187 0 00-.86 1.166 1.341 1.341 0 001.322 1.342 1.556 1.556 0 00.594-.11 26.507 26.507 0 0013.6-11.572 1.535 1.535 0 00.22-.7 1.28 1.28 0 00-1.342-1.21 1.252 1.252 0 00-1.126.678zm11.374-3.784a1.1 1.1 0 00-1.078 1.188 1.1 1.1 0 001.078 1.188h9.592a1.108 1.108 0 001.1-1.188 1.108 1.108 0 00-1.1-1.188zm-2.178 4.906a1.091 1.091 0 00-1.078 1.188 1.113 1.113 0 001.122 1.188l11.132-.132c.484 0 .7.11.7.374a1.412 1.412 0 01-.11.44c-1.1 2.9-3.762 5.39-7.612 6.93a1.286 1.286 0 00-.9 1.188 1.29 1.29 0 001.282 1.274 1.744 1.744 0 00.55-.11c4.312-1.694 7.9-4.95 9.262-9.02a3.967 3.967 0 00.22-1.254c0-1.342-.946-2.2-2.97-2.178zm29.084 11.726a1.186 1.186 0 001.3 1.144 1.174 1.174 0 001.3-1.144v-9.658a1.15 1.15 0 00-1.148-1.144 34.7 34.7 0 004.664-4.906 1.35 1.35 0 00.308-.814 1.313 1.313 0 00-1.342-1.232 1.376 1.376 0 00-1.1.572 33.869 33.869 0 01-10.692 9.02 1.4 1.4 0 00-.838 1.232 1.225 1.225 0 001.21 1.232 1.489 1.489 0 00.77-.2 38.7 38.7 0 005.566-3.7zm17.578-15.642a1.6 1.6 0 00-.88-.286 1.422 1.422 0 00-1.408 1.342 1.224 1.224 0 00.528.99 32.168 32.168 0 012.992 2.662 1.4 1.4 0 00.99.44 1.487 1.487 0 001.408-1.452 1.3 1.3 0 00-.4-.946 19.755 19.755 0 00-3.23-2.75zm11.792 2.794a24.5 24.5 0 01-12.408 10.406 1.187 1.187 0 00-.858 1.166 1.341 1.341 0 001.32 1.342 1.556 1.556 0 00.594-.11 26.507 26.507 0 0013.6-11.572 1.535 1.535 0 00.22-.7 1.28 1.28 0 00-1.342-1.21 1.252 1.252 0 00-1.126.678zm22.282 13.992c1.83 0 2.93-.528 2.93-2.508V13.039c0-1.738-.858-2.508-2.926-2.508h-4.312c-2.068 0-2.926.77-2.926 2.508v13.772c0 1.738.858 2.508 2.926 2.508zm-4.044-2.156c-.55 0-.77-.176-.77-.748v-3.058h5.324v3.058c0 .55-.176.748-.77.748zm-.77-9.2h5.324v3.278h-5.324zm5.324-2.108h-5.324v-2.42c0-.55.176-.748.77-.748h3.784c.594 0 .77.2.77.748zm-13.926.594a23.523 23.523 0 01-2.992 6.974 1.19 1.19 0 00-.2.616 1.019 1.019 0 001.012.99 1.021 1.021 0 00.88-.506 17.506 17.506 0 001.608-3.212l-.066 4.576v3.036a1.034 1.034 0 001.144.968 1.027 1.027 0 001.122-.968v-8.074a12.042 12.042 0 01.968 1.188.954.954 0 00.77.418 1.015 1.015 0 001.012-.968 1.176 1.176 0 00-.286-.726 14.147 14.147 0 00-2.464-2.4v-1.912h1.694c.572 0 .836-.528.836-1.056s-.264-1.056-.836-1.056h-1.694v-3.96c0-.594-.572-.88-1.122-.88-.572 0-1.144.286-1.144.88v3.96h-2.244c-.55 0-.814.528-.814 1.056s.264 1.056.836 1.056zm33.484 8.624a11.622 11.622 0 004.576 4.226 1.258 1.258 0 00.594.154 1.193 1.193 0 001.162-1.19 1.211 1.211 0 00-.748-1.078 10.3 10.3 0 01-3.234-2.442 14.094 14.094 0 002.794-2.376 1.16 1.16 0 00.352-.77 1.117 1.117 0 00-1.144-1.034 1.076 1.076 0 00-.88.462 12.257 12.257 0 01-2.24 2.134 7 7 0 01-.352-.7 15.068 15.068 0 00.308-2.9 1.053 1.053 0 00-1.166-.946c-.572 0-1.122.308-1.122.9-.088 4.196-1.386 6.616-4.532 8.156a1.048 1.048 0 00-.66.924 1.133 1.133 0 001.078 1.122 1.175 1.175 0 00.44-.11 9.783 9.783 0 004.774-4.532zm.11-9.328a11.112 11.112 0 004.29 3.608 1.34 1.34 0 00.616.154 1.166 1.166 0 001.166-1.122 1.174 1.174 0 00-.77-1.056 11.2 11.2 0 01-2.728-1.76 13.769 13.769 0 002.53-2.53 1.145 1.145 0 00.308-.748 1.046 1.046 0 00-1.078-.968 1.1 1.1 0 00-.946.528 13.911 13.911 0 01-2.046 2.266 7.055 7.055 0 01-.418-.682 11.669 11.669 0 00.374-2.728 1.035 1.035 0 00-1.144-1.034 1.042 1.042 0 00-1.122.99c-.132 3.806-1.41 5.764-4.356 7.236a1.076 1.076 0 00-.66.946 1.051 1.051 0 001.034 1.054 1.156 1.156 0 00.506-.132 9.815 9.815 0 004.444-4.022zm-8.844 13.754c1.474 0 2.178-.484 2.178-2v-2.734c0-1.342-.55-2-2.178-2h-2.178c-1.65 0-2.2.66-2.2 2v2.728c0 1.342.55 2 2.2 2zm-1.734-1.984c-.352 0-.462-.132-.462-.484v-1.782c0-.374.11-.506.462-.506h1.276c.352 0 .462.132.462.506v1.782c0 .374-.11.484-.462.484zm3.63-11.924a.986.986 0 00.9-1.1.986.986 0 00-.9-1.1h-6.472a.984.984 0 00-.88 1.1.984.984 0 00.88 1.1zm-.88-3.212a.931.931 0 00.858-1.034.92.92 0 00-.858-1.034h-4.4c-.55 0-.836.506-.836 1.034a.93.93 0 00.836 1.034zm0 6.292a.931.931 0 00.858-1.034.92.92 0 00-.858-1.034h-4.4c-.55 0-.836.506-.836 1.034a.93.93 0 00.836 1.034zm0 3.08a.931.931 0 00.85-1.034.92.92 0 00-.858-1.034h-4.4c-.55 0-.836.506-.836 1.034a.93.93 0 00.836 1.034zm3.65-9.526a8.23 8.23 0 01-.814 1.716 1.261 1.261 0 00-.2.638.961.961 0 001.012.9 1.269 1.269 0 001.1-.682 9.352 9.352 0 00.9-2.046 1.486 1.486 0 00.044-.308 1.011 1.011 0 00-1.078-.924 1.011 1.011 0 00-.964.706zm-.33 9.218a9.4 9.4 0 01-.88 1.76 1.261 1.261 0 00-.2.638 1.038 1.038 0 001.078 1.012 1.187 1.187 0 001.032-.616 8.615 8.615 0 001.014-2.288 1.1 1.1 0 00.044-.264 1.054 1.054 0 00-1.1-.99 1.025 1.025 0 00-.99.748zm28.2-9.856a1.041 1.041 0 00-1.144-1.012 1.041 1.041 0 00-1.144 1.012v3.278c-.946.066-1.848.088-2.706.088-.4 0-.77-.044-1.166-.044a1.038 1.038 0 00-1.056 1.1 1.11 1.11 0 001.012 1.166 10.531 10.531 0 001.21.044c.858 0 1.782-.022 2.728-.088.022 1.606.066 3.212.2 4.818a11.316 11.316 0 00-1.452-.11c-2.86 0-4.334 1.364-4.334 3.19 0 1.98 1.54 3.212 4 3.212 2.728 0 3.982-1.32 4.224-3.146a17.021 17.021 0 012.178 1.452 1.4 1.4 0 00.836.33 1.193 1.193 0 001.17-1.188 1.335 1.335 0 00-.594-1.078 15.384 15.384 0 00-3.674-2.046c-.2-1.87-.242-3.762-.264-5.654.946-.11 1.892-.242 2.75-.418a1.162 1.162 0 00.968-1.166 1 1 0 00-1.034-1.056 1.353 1.353 0 00-.286.022c-.748.132-1.562.264-2.42.352zm-3.848 14.476c-1.1 0-1.694-.352-1.694-1.034 0-.638.484-1.122 2.024-1.122a6.155 6.155 0 011.562.242 1.7 1.7 0 01-1.892 1.914zm-8.228-14.608a43.465 43.465 0 00-1.21 9.526 42.776 42.776 0 00.506 6.864 1.167 1.167 0 001.232.99 1.2 1.2 0 001.278-1.1c0-.066-.022-.132-.022-.2a57.448 57.448 0 01-.486-6.536 42 42 0 011.166-9.086.987.987 0 00.022-.242 1.157 1.157 0 00-1.28-1.072 1.146 1.146 0 00-1.206.856zm25.5.682a1.254 1.254 0 00-.286-.022 1.179 1.179 0 00-1.168 1.254 1.19 1.19 0 00.968 1.21 23.317 23.317 0 004.792.42 28.221 28.221 0 004.532-.308 1.153 1.153 0 00.99-1.188 1.177 1.177 0 00-1.188-1.232c-.066 0-.132.022-.2.022a39.348 39.348 0 01-4.158.286 21.466 21.466 0 01-4.284-.442zm4.156 15.862a28.977 28.977 0 006.45-.682 1.285 1.285 0 001.078-1.254 1.168 1.168 0 00-1.166-1.21 2.194 2.194 0 00-.352.044 30.108 30.108 0 01-6.006.638c-4.114 0-4.862-.748-4.862-2.134a4.7 4.7 0 01.132-1.1 1.726 1.726 0 00.044-.308 1.1 1.1 0 00-1.21-1.012 1.214 1.214 0 00-1.232.88 5.988 5.988 0 00-.242 1.65c-.004 2.988 2.064 4.488 7.366 4.488zm19.36-7.524a34.863 34.863 0 001.056-4.334c1.958-.22 3.96-.572 5.72-.946a1.153 1.153 0 001.014-1.122 1.111 1.111 0 00-1.1-1.144 1.7 1.7 0 00-.33.044c-1.474.33-3.19.616-4.906.836.132-.9.242-1.87.352-2.882v-.154a1.058 1.058 0 00-1.146-1.034 1.137 1.137 0 00-1.21 1.012 74.222 74.222 0 01-.4 3.322c-1.254.11-2.42.176-3.432.176a1.078 1.078 0 00-1.1 1.122 1.089 1.089 0 001.122 1.144c.924 0 1.936-.044 3.014-.132a43.132 43.132 0 01-1.65 6.2 1.562 1.562 0 00-.088.528 1.192 1.192 0 001.236 1.188 1.392 1.392 0 00.946-.4 9.124 9.124 0 016.578-2.83c1.8 0 2.508.858 2.508 2 0 1.782-1.474 3.212-5.61 3.5a1.07 1.07 0 00-1.078 1.122 1.126 1.126 0 001.166 1.144 5.127 5.127 0 00.728-.044c3.98-.374 7.28-2.244 7.28-5.764 0-2.42-1.672-4.114-5.038-4.114a11.6 11.6 0 00-5.588 1.586zm24.2-10.208a2.45 2.45 0 00-.374-.044 1.3 1.3 0 00-1.3 1.276 1.1 1.1 0 00.836 1.056 31.907 31.907 0 013.586 1.364 1.586 1.586 0 00.66.154 1.182 1.182 0 001.166-1.21 1.326 1.326 0 00-.77-1.21 18.017 18.017 0 00-3.804-1.386zm-2.97 10.362c.242-1.276.616-2.948 1.034-4.994a.749.749 0 00.022-.22 1.133 1.133 0 00-1.254-1.034 1.173 1.173 0 00-1.21.924c-.638 3.014-1.166 5.9-1.386 7.524a1.071 1.071 0 00-.022.264 1.267 1.267 0 001.3 1.276 1.431 1.431 0 001.122-.528 9.331 9.331 0 016.82-3.344c2.112 0 3.014 1.056 3.014 2.2 0 1.892-1.5 3.52-5.808 4.026a1.19 1.19 0 00-1.122 1.188 1.191 1.191 0 001.21 1.21c.066 0 .132-.022.2-.022 5.3-.616 8.1-3.036 8.1-6.424 0-2.486-2.134-4.378-5.588-4.378a10.315 10.315 0 00-6.38 2.354z" fill="#eb5e00"/><g data-name="グループ 18883" fill="#8d827a"><path data-name="パス 48620" d="M304.918 39.999a1.987 1.987 0 01-1.029-.287 2 2 0 01-.682-2.745l21.684-36a2 2 0 012.744-.681 2 2 0 01.682 2.745l-21.684 36a2 2 0 01-1.715.968z"/><path data-name="パス 331169" d="M23.683 39.999a2 2 0 01-1.715-.968l-21.684-36A2 2 0 01.966.286 2 2 0 013.71.967l21.684 36a2 2 0 01-.682 2.745 1.987 1.987 0 01-1.029.287z"/></g></g></svg>