<svg xmlns="http://www.w3.org/2000/svg" width="504.002" height="59.451"><g data-name="グループ 18896"><path data-name="パス 331744" d="M77.309 25.964A38.238 38.238 0 0164.865 36.98a2.086 2.086 0 00-1.258 1.8 1.814 1.814 0 001.8 1.8 2.3 2.3 0 001.088-.306 42.353 42.353 0 0013.09-11.322l-.068 6.97.1 3.094v.136c0 .918-.34 1.156-1.122 1.156a12.708 12.708 0 01-1.666-.136c-.1 0-.2-.034-.272-.034a1.779 1.779 0 00-1.734 1.9 1.8 1.8 0 001.632 1.836 18.2 18.2 0 002.72.17c2.312 0 4.25-1.054 4.25-4.454v-.164l-.306-13.464h6.936a1.614 1.614 0 001.6-1.768 1.614 1.614 0 00-1.6-1.768h-7l-.136-5.678a1.774 1.774 0 00-1.938-1.666 1.771 1.771 0 00-1.938 1.734l.136 5.61h-12.41a1.608 1.608 0 00-1.568 1.77 1.608 1.608 0 001.564 1.768zm27.064-7.14a2.472 2.472 0 00-1.36-.442 2.2 2.2 0 00-2.176 2.074 1.891 1.891 0 00.816 1.53 49.712 49.712 0 014.624 4.114 2.156 2.156 0 001.53.68 2.3 2.3 0 002.176-2.244 2.006 2.006 0 00-.612-1.462 30.53 30.53 0 00-4.998-4.248zm18.224 4.318c-4.08 7.276-11.458 13.158-19.176 16.082a1.835 1.835 0 00-1.326 1.8 2.073 2.073 0 002.04 2.074 2.4 2.4 0 00.918-.17 40.965 40.965 0 0021.012-17.882 2.373 2.373 0 00.34-1.088 1.977 1.977 0 00-2.074-1.87 1.935 1.935 0 00-1.73 1.054zm17.578-5.848a1.707 1.707 0 00-1.666 1.836 1.707 1.707 0 001.666 1.836h14.826a1.713 1.713 0 001.7-1.84 1.713 1.713 0 00-1.7-1.832zm-3.366 7.582a1.686 1.686 0 00-1.666 1.836 1.72 1.72 0 001.734 1.836l17.2-.2c.748 0 1.088.17 1.088.578a2.182 2.182 0 01-.17.68c-1.7 4.488-5.814 8.33-11.764 10.71a1.988 1.988 0 00-1.39 1.832 1.994 1.994 0 001.972 1.972 2.7 2.7 0 00.85-.17c6.664-2.618 12.206-7.65 14.314-13.94a6.131 6.131 0 00.34-1.938c0-2.074-1.462-3.4-4.59-3.366zm44.948 18.122a1.832 1.832 0 002.006 1.768 1.815 1.815 0 002.006-1.768V28.072a1.777 1.777 0 00-1.768-1.768 53.633 53.633 0 007.208-7.578 2.086 2.086 0 00.476-1.258 2.029 2.029 0 00-2.074-1.9 2.127 2.127 0 00-1.7.884 52.344 52.344 0 01-16.524 13.94 2.161 2.161 0 00-1.292 1.9 1.893 1.893 0 001.87 1.9 2.3 2.3 0 001.19-.306 59.814 59.814 0 008.6-5.712zm27.166-24.172a2.472 2.472 0 00-1.36-.442 2.2 2.2 0 00-2.176 2.074 1.891 1.891 0 00.816 1.53 49.713 49.713 0 014.624 4.114 2.156 2.156 0 001.53.68 2.3 2.3 0 002.176-2.244 2.006 2.006 0 00-.612-1.462 30.53 30.53 0 00-4.998-4.25zm18.224 4.318c-4.08 7.274-11.458 13.156-19.176 16.082a1.835 1.835 0 00-1.326 1.8 2.073 2.073 0 002.04 2.074 2.4 2.4 0 00.916-.174 40.965 40.965 0 0021.014-17.88 2.373 2.373 0 00.34-1.088 1.977 1.977 0 00-2.074-1.87 1.935 1.935 0 00-1.734 1.054zm34.442 21.622c2.822 0 4.522-.816 4.522-3.876V19.606c0-2.686-1.326-3.88-4.522-3.88h-6.664c-3.196 0-4.524 1.194-4.524 3.88V40.89c0 2.686 1.328 3.876 4.524 3.876zm-6.256-3.332c-.85 0-1.19-.272-1.19-1.156v-4.726h8.228v4.726c0 .85-.272 1.156-1.19 1.156zm-1.19-14.208h8.228v5.066h-8.228zm8.228-3.264h-8.228v-3.74c0-.85.272-1.156 1.19-1.156h5.848c.918 0 1.19.306 1.19 1.156zm-21.522.918a36.354 36.354 0 01-4.624 10.774 1.839 1.839 0 00-.306.952 1.575 1.575 0 001.564 1.53 1.578 1.578 0 001.36-.782 27.055 27.055 0 002.482-4.964l-.1 7.072v4.692a1.6 1.6 0 001.768 1.5 1.587 1.587 0 001.734-1.5V31.676a18.61 18.61 0 011.5 1.836 1.474 1.474 0 001.19.646 1.569 1.569 0 001.564-1.5 1.818 1.818 0 00-.442-1.122 21.863 21.863 0 00-3.808-3.706v-2.954h2.618c.884 0 1.292-.816 1.292-1.632s-.408-1.632-1.292-1.632h-2.624v-6.12c0-.918-.884-1.36-1.734-1.36-.884 0-1.768.442-1.768 1.36v6.12h-3.468c-.85 0-1.258.816-1.258 1.632s.408 1.632 1.292 1.632zm51.752 13.324a17.962 17.962 0 007.072 6.528 1.944 1.944 0 00.918.238 1.843 1.843 0 001.8-1.836 1.872 1.872 0 00-1.156-1.666 15.917 15.917 0 01-5-3.774 21.782 21.782 0 004.318-3.668 1.793 1.793 0 00.544-1.19 1.727 1.727 0 00-1.768-1.6 1.663 1.663 0 00-1.36.714 18.942 18.942 0 01-3.468 3.296 10.82 10.82 0 01-.544-1.088 23.287 23.287 0 00.476-4.488 1.627 1.627 0 00-1.8-1.462c-.884 0-1.734.476-1.734 1.394-.138 6.494-2.144 10.234-7.006 12.614a1.62 1.62 0 00-1.02 1.428 1.751 1.751 0 001.666 1.734 1.816 1.816 0 00.68-.17 15.119 15.119 0 007.382-7.004zm.17-14.416a17.174 17.174 0 006.63 5.576 2.072 2.072 0 00.952.238 1.8 1.8 0 001.8-1.734 1.815 1.815 0 00-1.19-1.632 17.311 17.311 0 01-4.216-2.72 21.279 21.279 0 003.91-3.91 1.77 1.77 0 00.476-1.156 1.617 1.617 0 00-1.666-1.5 1.7 1.7 0 00-1.466.82 21.5 21.5 0 01-3.162 3.5 10.9 10.9 0 01-.646-1.054 18.034 18.034 0 00.578-4.216 1.6 1.6 0 00-1.77-1.596 1.61 1.61 0 00-1.734 1.53c-.2 5.882-2.176 8.908-6.732 11.186a1.662 1.662 0 00-1.02 1.462 1.625 1.625 0 001.6 1.632 1.786 1.786 0 00.782-.2 15.168 15.168 0 006.87-6.226zm-13.67 21.25c2.278 0 3.366-.748 3.366-3.094v-4.218c0-2.074-.85-3.094-3.366-3.094h-3.368c-2.55 0-3.4 1.02-3.4 3.094v4.218c0 2.074.85 3.094 3.4 3.094zm-2.688-3.06c-.544 0-.714-.2-.714-.748v-2.754c0-.578.17-.782.714-.782h1.972c.544 0 .714.2.714.782v2.75c0 .578-.17.748-.714.748zm5.61-18.428a1.524 1.524 0 001.394-1.7 1.524 1.524 0 00-1.394-1.7h-10a1.521 1.521 0 00-1.36 1.7 1.521 1.521 0 001.36 1.7zm-1.36-4.964a1.439 1.439 0 001.326-1.6 1.421 1.421 0 00-1.326-1.6h-6.8c-.85 0-1.292.782-1.292 1.6a1.437 1.437 0 001.292 1.6zm0 9.724a1.439 1.439 0 001.326-1.6 1.421 1.421 0 00-1.326-1.6h-6.8c-.85 0-1.292.782-1.292 1.6a1.437 1.437 0 001.292 1.6zm0 4.76a1.439 1.439 0 001.326-1.6 1.421 1.421 0 00-1.326-1.6h-6.8c-.85 0-1.292.782-1.292 1.6a1.437 1.437 0 001.292 1.6zm5.644-14.722A12.719 12.719 0 01285.049 21a1.949 1.949 0 00-.306.986 1.485 1.485 0 001.564 1.394 1.961 1.961 0 001.7-1.054 14.453 14.453 0 001.394-3.162 2.3 2.3 0 00.068-.476 1.563 1.563 0 00-1.668-1.428 1.563 1.563 0 00-1.494 1.088zm-.506 14.246a14.519 14.519 0 01-1.36 2.72 1.949 1.949 0 00-.306.986 1.6 1.6 0 001.666 1.564 1.834 1.834 0 001.6-.952 13.315 13.315 0 001.558-3.536 1.707 1.707 0 00.068-.408 1.628 1.628 0 00-1.7-1.53 1.584 1.584 0 00-1.526 1.156zm43.584-15.232a1.608 1.608 0 00-1.768-1.564 1.608 1.608 0 00-1.768 1.564v5.064c-1.462.1-2.856.136-4.182.136-.612 0-1.19-.068-1.8-.068a1.6 1.6 0 00-1.632 1.7 1.715 1.715 0 001.564 1.8 16.275 16.275 0 001.87.068c1.326 0 2.754-.034 4.216-.136.034 2.482.1 4.964.306 7.446a17.488 17.488 0 00-2.244-.17c-4.42 0-6.7 2.108-6.7 4.93 0 3.06 2.38 4.964 6.188 4.964 4.216 0 6.154-2.04 6.528-4.862a26.306 26.306 0 013.366 2.244 2.16 2.16 0 001.292.51 1.843 1.843 0 001.8-1.836 2.063 2.063 0 00-.92-1.662 23.776 23.776 0 00-5.674-3.164c-.306-2.89-.374-5.814-.408-8.738 1.462-.17 2.924-.374 4.25-.646a1.8 1.8 0 001.5-1.8 1.541 1.541 0 00-1.6-1.632 2.091 2.091 0 00-.442.034c-1.156.2-2.414.408-3.74.544zm-5.95 22.372c-1.7 0-2.618-.544-2.618-1.6 0-.986.748-1.734 3.128-1.734a9.512 9.512 0 012.414.374c-.034 2.144-1.19 2.96-2.924 2.96zm-12.716-22.576a67.173 67.173 0 00-1.87 14.722 66.107 66.107 0 00.782 10.608 1.8 1.8 0 001.9 1.53 1.857 1.857 0 001.972-1.7c0-.1-.034-.2-.034-.306a88.783 88.783 0 01-.748-10.1 64.912 64.912 0 011.8-14.042 1.525 1.525 0 00.034-.374 1.789 1.789 0 00-1.972-1.666 1.771 1.771 0 00-1.864 1.328zm39.406 1.054a1.939 1.939 0 00-.442-.034 1.822 1.822 0 00-1.8 1.938 1.84 1.84 0 001.5 1.87 36.036 36.036 0 007.412.646 43.615 43.615 0 007-.476 1.782 1.782 0 001.53-1.836 1.82 1.82 0 00-1.836-1.9c-.1 0-.2.034-.306.034a60.811 60.811 0 01-6.426.442 33.175 33.175 0 01-6.632-.684zm6.426 24.514a44.783 44.783 0 009.962-1.054 1.986 1.986 0 001.666-1.938 1.805 1.805 0 00-1.8-1.87 3.39 3.39 0 00-.544.068 46.531 46.531 0 01-9.282.986c-6.358 0-7.514-1.156-7.514-3.3a7.262 7.262 0 01.2-1.7 2.667 2.667 0 00.068-.476 1.7 1.7 0 00-1.87-1.564 1.876 1.876 0 00-1.9 1.36 9.255 9.255 0 00-.374 2.55c-.002 4.626 3.194 6.938 11.388 6.938zm29.92-11.628a53.882 53.882 0 001.632-6.7c3.026-.34 6.12-.884 8.84-1.462a1.782 1.782 0 001.564-1.734 1.718 1.718 0 00-1.7-1.768 2.624 2.624 0 00-.51.068c-2.278.51-4.93.952-7.582 1.292.2-1.394.374-2.89.544-4.454v-.238a1.635 1.635 0 00-1.768-1.6 1.757 1.757 0 00-1.87 1.564c-.17 1.734-.374 3.434-.612 5.134-1.938.17-3.74.272-5.3.272a1.667 1.667 0 00-1.7 1.734 1.683 1.683 0 001.734 1.768c1.428 0 2.992-.068 4.658-.2a66.658 66.658 0 01-2.55 9.588 2.413 2.413 0 00-.136.816 1.842 1.842 0 001.9 1.836 2.151 2.151 0 001.462-.612 14.1 14.1 0 0110.166-4.386c2.788 0 3.876 1.326 3.876 3.094 0 2.754-2.278 4.964-8.67 5.406a1.654 1.654 0 00-1.666 1.734 1.741 1.741 0 001.8 1.768 7.924 7.924 0 001.122-.068c6.156-.578 11.256-3.468 11.256-8.908 0-3.74-2.584-6.358-7.786-6.358a17.922 17.922 0 00-8.636 2.448zm37.4-15.772a3.786 3.786 0 00-.578-.068 2 2 0 00-2.006 1.972 1.7 1.7 0 001.292 1.632 49.311 49.311 0 015.542 2.108 2.451 2.451 0 001.02.238 1.827 1.827 0 001.8-1.87 2.05 2.05 0 00-1.19-1.87 27.844 27.844 0 00-5.88-2.142zm-4.59 16.01c.374-1.972.952-4.556 1.6-7.718a1.157 1.157 0 00.034-.34 1.751 1.751 0 00-1.938-1.6 1.813 1.813 0 00-1.87 1.428c-.986 4.658-1.8 9.112-2.142 11.628a1.655 1.655 0 00-.034.408 1.957 1.957 0 002.006 1.972 2.212 2.212 0 001.734-.816 14.421 14.421 0 0110.54-5.168c3.264 0 4.658 1.632 4.658 3.4 0 2.924-2.312 5.44-8.976 6.222a1.839 1.839 0 00-1.734 1.836 1.84 1.84 0 001.87 1.87c.1 0 .2-.034.306-.034 8.194-.952 12.512-4.692 12.512-9.928 0-3.842-3.3-6.766-8.636-6.766a15.942 15.942 0 00-9.86 3.638z" fill="#eb5e00"/><g data-name="グループ 18883" fill="#8d827a"><path data-name="パス 48620" d="M471.908 59.451a1.991 1.991 0 01-.951-.242 2 2 0 01-.8-2.712l30.091-55.451a2 2 0 012.712-.8 2 2 0 01.8 2.712l-30.091 55.451a2 2 0 01-1.761 1.042z"/><path data-name="パス 331169" d="M32.093 59.451a2 2 0 01-1.76-1.046L.242 2.954a2 2 0 01.8-2.712 2 2 0 012.711.8l30.091 55.451a2 2 0 01-.8 2.712 2 2 0 01-.951.246z"/></g></g></svg>