<svg xmlns="http://www.w3.org/2000/svg" width="505.424" height="60.875"><g data-name="グループ 18900"><path data-name="パス 331735" d="M76.524 41.227v1.36c0 2.55.986 3.332 8.024 3.332 7.684 0 9.214-.952 9.554-4.522v-.17a1.615 1.615 0 00-1.8-1.53 1.592 1.592 0 00-1.7 1.326c-.238 1.8-.748 2.142-5.95 2.142-4.216 0-4.624-.238-4.624-1.088v-.85h5.542c2.244 0 3.91-.408 3.91-2.958v-4.658c0-2.074-1.224-3.026-3.944-3.026h-14.11c-2.72 0-3.944.952-3.944 3.026v4.658c0 2.142 1.19 2.958 3.944 2.958zm0-4.25v1.8h-4.488c-.816 0-1.02-.2-1.02-.748v-1.052zm3.5 0h5.916v1.054c0 .544-.2.748-1.02.748h-4.9zm0-3.944h4.9c.816 0 1.02.2 1.02.748v1.02h-5.916zm-3.5 0v1.768h-5.512v-1.02c0-.544.2-.748 1.02-.748zm3.672-14.416h9.554c.782 0 1.156-.714 1.156-1.462 0-.714-.374-1.428-1.156-1.428H67.612c-.748 0-1.122.714-1.122 1.428 0 .748.374 1.462 1.122 1.462h8.942v1.156h-8.942c-2.992 0-4.046.918-4.046 3.23v1.834c0 .952.918 1.462 1.836 1.462a1.627 1.627 0 001.8-1.462v-1.5c0-.748.2-1.02 1.156-1.02h8.194v6.12c0 .918.918 1.394 1.836 1.394.884 0 1.8-.476 1.8-1.394v-6.12h8.466c.918 0 1.122.272 1.122 1.02v1.3c0 .986.918 1.462 1.8 1.462.918 0 1.8-.476 1.8-1.462v-1.666c0-2.312-1.02-3.2-4.012-3.2h-9.18zm-5.95 7c.612 0 .918-.544.918-1.122a.979.979 0 00-.918-1.088h-4.794a.975.975 0 00-.884 1.088c0 .578.306 1.122.884 1.122zm13.022 0a1 1 0 00.952-1.122.983.983 0 00-.952-1.088h-4.794a.979.979 0 00-.918 1.088c0 .578.306 1.122.918 1.122zm-13.022 3.3c.612 0 .918-.544.918-1.122a.979.979 0 00-.918-1.088H68.33a.979.979 0 00-.918 1.088c0 .578.306 1.122.918 1.122zm14.484 0a1 1 0 00.952-1.122.983.983 0 00-.952-1.088h-6.256a.979.979 0 00-.918 1.088c0 .578.306 1.122.918 1.122zm17.51 16.524c2.346 0 3.468-.714 3.468-3.162v-3.874c0-2.142-.85-3.162-3.468-3.162h-3.6c-2.618 0-3.468 1.02-3.468 3.162v3.876c0 2.142.85 3.162 3.468 3.162zm-2.89-3.06c-.578 0-.782-.2-.782-.782v-2.514c0-.578.17-.782.782-.782h2.176c.578 0 .748.2.748.782v2.516c0 .578-.17.782-.748.782zm14.688-9.044h-1.394c-2.754 0-3.876 1.02-3.876 3.468v4.964c0 2.448 1.258 3.468 4.012 3.468h6.256c2.482 0 4.012-.748 4.012-3.468v-4.962c0-2.448-1.122-3.468-3.876-3.468h-1.56v-4.488h6.086a1.5 1.5 0 001.428-1.666 1.515 1.515 0 00-1.428-1.666h-6.086v-5.236a51.034 51.034 0 004.08-.986 1.747 1.747 0 001.428-1.666 1.783 1.783 0 00-1.768-1.8 1.684 1.684 0 00-.578.068 59.107 59.107 0 01-11.19 2.138 1.569 1.569 0 00-1.53 1.6 1.64 1.64 0 001.7 1.7c.544 0 2.856-.238 4.284-.442v4.624h-5.576a1.493 1.493 0 00-1.394 1.666 1.511 1.511 0 001.394 1.666h5.576zm-.646 8.7c-.714 0-1.02-.2-1.02-.952v-3.666c0-.68.238-.952 1.02-.952h5.032c.782 0 1.02.272 1.02.952v3.672c0 .68-.238.952-1.02.952zm-7.752-17.748a1.524 1.524 0 001.394-1.7 1.524 1.524 0 00-1.394-1.7H98.624a1.521 1.521 0 00-1.36 1.7 1.521 1.521 0 001.36 1.7zm-1.734-4.93a1.439 1.439 0 001.326-1.6 1.421 1.421 0 00-1.326-1.6h-7.242c-.85 0-1.292.782-1.292 1.6a1.437 1.437 0 001.292 1.6zm0 9.622a1.439 1.439 0 001.326-1.6 1.421 1.421 0 00-1.326-1.6h-7.242c-.85 0-1.292.782-1.292 1.6a1.437 1.437 0 001.292 1.6zm0 4.726a1.439 1.439 0 001.326-1.6 1.421 1.421 0 00-1.326-1.6h-7.242c-.85 0-1.292.782-1.292 1.6a1.437 1.437 0 001.292 1.6zm42.024-10.642a13.708 13.708 0 00-5.576 10.608c0 5.066 3.434 9.282 9.622 10.438a10.7 10.7 0 001.53.136 1.905 1.905 0 002.006-2 1.98 1.98 0 00-1.836-2.01c-4.76-.578-7.378-2.89-7.378-6.664 0-3.23 1.122-6.766 6.426-9.792a11.638 11.638 0 013.74-1.36 1.836 1.836 0 001.564-1.836 1.757 1.757 0 00-1.836-1.8h-.2c-7.072.646-15.844 1.632-22.916 2.516a1.848 1.848 0 00-1.768 1.87 1.883 1.883 0 001.9 1.938 1.275 1.275 0 00.34-.034c4.9-.714 10.3-1.53 14.382-2.074zm5.338 6.188a24.731 24.731 0 012.516 2.89 1.362 1.362 0 001.122.646 1.387 1.387 0 001.36-1.352 1.42 1.42 0 00-.306-.918 16.986 16.986 0 00-2.648-2.96 1.418 1.418 0 00-.952-.374 1.416 1.416 0 00-1.428 1.292 1.209 1.209 0 00.336.782zm3.4-2.686c.782.816 1.734 1.836 2.516 2.822a1.479 1.479 0 001.19.612 1.328 1.328 0 001.36-1.292 1.582 1.582 0 00-.374-1.02 17.049 17.049 0 00-2.618-2.782 1.633 1.633 0 00-1.02-.408 1.365 1.365 0 00-1.428 1.258 1.124 1.124 0 00.374.816zm16.218 14.558c2.618 0 4.624-.986 6.494-4.284a34.019 34.019 0 003.842-14.45c5.168.374 8.194 4.046 8.194 8.5 0 4.216-1.938 7.14-6.766 8.874a1.958 1.958 0 00-1.428 1.872 1.907 1.907 0 001.9 1.938 2.231 2.231 0 00.79-.138c5.848-1.87 9.486-6.392 9.486-12.546 0-6.766-4.794-11.968-13.09-11.968-9.35 0-15.776 6.358-15.776 14.11-.004 5.304 2.886 8.092 6.354 8.092zm6.358-18.5a30.754 30.754 0 01-3.4 12.41c-.986 1.734-1.9 2.278-2.958 2.278-1.224 0-2.448-1.156-2.448-4.284a10.77 10.77 0 018.806-10.4zm44.37-4.318a21.427 21.427 0 012.244 3.094 1.344 1.344 0 001.156.748 1.393 1.393 0 001.394-1.36 1.5 1.5 0 00-.238-.816 18.155 18.155 0 00-2.38-3.2 1.363 1.363 0 00-1.02-.476 1.388 1.388 0 00-1.428 1.258 1.133 1.133 0 00.27.756zm-14.858.986a1.939 1.939 0 00-.442-.034 1.822 1.822 0 00-1.8 1.938 1.84 1.84 0 001.5 1.87 34.855 34.855 0 007.072.578 42.28 42.28 0 006.664-.408 1.782 1.782 0 001.53-1.836 1.82 1.82 0 00-1.836-1.9c-.1 0-.2.034-.306.034-1.666.17-3.944.374-6.086.374a32.618 32.618 0 01-6.296-.612zm6.766 24.484a44.783 44.783 0 009.962-1.054 1.986 1.986 0 001.666-1.938 1.805 1.805 0 00-1.8-1.87 3.39 3.39 0 00-.544.068 46.531 46.531 0 01-9.282.986c-6.358 0-7.514-1.156-7.514-3.3a7.262 7.262 0 01.2-1.7 2.667 2.667 0 00.068-.476 1.7 1.7 0 00-1.87-1.564 1.876 1.876 0 00-1.9 1.36 9.255 9.255 0 00-.376 2.548c0 4.628 3.196 6.94 11.39 6.94zm11.73-27.846a37.517 37.517 0 012.244 3.06 1.538 1.538 0 001.258.748 1.335 1.335 0 001.36-1.326 1.829 1.829 0 00-.306-.918 17.127 17.127 0 00-2.346-3.026 1.573 1.573 0 00-1.122-.476 1.324 1.324 0 00-1.394 1.19 1.183 1.183 0 00.306.748zM262.3 45.477c2.822 0 4.522-.816 4.522-3.876V20.317c0-2.686-1.326-3.88-4.522-3.88h-6.664c-3.196 0-4.524 1.194-4.524 3.88v21.284c0 2.686 1.328 3.876 4.524 3.876zm-6.256-3.332c-.85 0-1.19-.272-1.19-1.156v-4.726h8.228v4.726c0 .85-.272 1.156-1.19 1.156zm-1.19-14.208h8.228v5.066h-8.228zm8.228-3.264h-8.228v-3.74c0-.85.272-1.156 1.19-1.156h5.848c.918 0 1.19.306 1.19 1.156zm-21.522.918a36.354 36.354 0 01-4.624 10.774 1.839 1.839 0 00-.306.952 1.575 1.575 0 001.564 1.53 1.578 1.578 0 001.36-.782 27.055 27.055 0 002.482-4.964l-.1 7.072v4.692a1.6 1.6 0 001.768 1.5 1.587 1.587 0 001.734-1.5V32.387a18.61 18.61 0 011.5 1.836 1.474 1.474 0 001.19.646 1.569 1.569 0 001.564-1.5 1.818 1.818 0 00-.442-1.122 21.863 21.863 0 00-3.808-3.706v-2.954h2.618c.884 0 1.292-.816 1.292-1.632s-.408-1.632-1.292-1.632h-2.624v-6.12c0-.918-.884-1.36-1.734-1.36-.884 0-1.768.442-1.768 1.36v6.12h-3.468c-.85 0-1.258.816-1.258 1.632s.408 1.632 1.292 1.632zm51.752 13.324a17.962 17.962 0 007.072 6.528 1.944 1.944 0 00.918.238 1.843 1.843 0 001.8-1.836 1.872 1.872 0 00-1.156-1.666 15.917 15.917 0 01-5-3.774 21.782 21.782 0 004.318-3.668 1.793 1.793 0 00.544-1.19 1.727 1.727 0 00-1.768-1.6 1.663 1.663 0 00-1.36.714 18.942 18.942 0 01-3.468 3.296 10.82 10.82 0 01-.544-1.088 23.287 23.287 0 00.476-4.488 1.627 1.627 0 00-1.8-1.462c-.884 0-1.734.476-1.734 1.394-.138 6.494-2.144 10.234-7.006 12.614a1.62 1.62 0 00-1.02 1.428 1.751 1.751 0 001.666 1.734 1.816 1.816 0 00.68-.17 15.119 15.119 0 007.382-7.004zm.17-14.416a17.174 17.174 0 006.63 5.576 2.072 2.072 0 00.952.238 1.8 1.8 0 001.8-1.734 1.815 1.815 0 00-1.19-1.632 17.311 17.311 0 01-4.216-2.72 21.279 21.279 0 003.91-3.91 1.77 1.77 0 00.476-1.156 1.617 1.617 0 00-1.666-1.5 1.7 1.7 0 00-1.466.82 21.5 21.5 0 01-3.162 3.5 10.9 10.9 0 01-.646-1.054 18.034 18.034 0 00.578-4.216 1.6 1.6 0 00-1.77-1.596 1.61 1.61 0 00-1.734 1.53c-.2 5.882-2.176 8.908-6.732 11.186a1.662 1.662 0 00-1.02 1.462 1.625 1.625 0 001.6 1.632 1.786 1.786 0 00.782-.2 15.168 15.168 0 006.87-6.226zm-13.67 21.25c2.278 0 3.366-.748 3.366-3.094v-4.218c0-2.074-.85-3.094-3.366-3.094h-3.368c-2.55 0-3.4 1.02-3.4 3.094v4.218c0 2.074.85 3.094 3.4 3.094zm-2.688-3.06c-.544 0-.714-.2-.714-.748v-2.754c0-.578.17-.782.714-.782h1.972c.544 0 .714.2.714.782v2.75c0 .578-.17.748-.714.748zm5.61-18.428a1.524 1.524 0 001.394-1.7 1.524 1.524 0 00-1.394-1.7h-10a1.521 1.521 0 00-1.36 1.7 1.521 1.521 0 001.36 1.7zm-1.36-4.964a1.439 1.439 0 001.326-1.6 1.421 1.421 0 00-1.326-1.6h-6.8c-.85 0-1.292.782-1.292 1.6a1.437 1.437 0 001.292 1.6zm0 9.724a1.439 1.439 0 001.326-1.6 1.421 1.421 0 00-1.326-1.6h-6.8c-.85 0-1.292.782-1.292 1.6a1.437 1.437 0 001.292 1.6zm0 4.76a1.439 1.439 0 001.326-1.6 1.421 1.421 0 00-1.326-1.6h-6.8c-.85 0-1.292.782-1.292 1.6a1.437 1.437 0 001.292 1.6zm5.644-14.722a12.719 12.719 0 01-1.258 2.652 1.949 1.949 0 00-.306.986 1.485 1.485 0 001.564 1.394 1.961 1.961 0 001.7-1.054 14.453 14.453 0 001.394-3.162 2.3 2.3 0 00.068-.476 1.563 1.563 0 00-1.668-1.428 1.563 1.563 0 00-1.494 1.088zm-.506 14.246a14.519 14.519 0 01-1.36 2.72 1.949 1.949 0 00-.306.986 1.6 1.6 0 001.666 1.564 1.834 1.834 0 001.6-.952 13.315 13.315 0 001.558-3.536 1.707 1.707 0 00.068-.408 1.628 1.628 0 00-1.7-1.53 1.584 1.584 0 00-1.526 1.156zm43.584-15.232a1.608 1.608 0 00-1.768-1.564 1.608 1.608 0 00-1.768 1.564v5.064c-1.462.1-2.856.136-4.182.136-.612 0-1.19-.068-1.8-.068a1.6 1.6 0 00-1.632 1.7 1.715 1.715 0 001.564 1.8 16.275 16.275 0 001.87.068c1.326 0 2.754-.034 4.216-.136.034 2.482.1 4.964.306 7.446a17.488 17.488 0 00-2.244-.17c-4.42 0-6.7 2.108-6.7 4.93 0 3.06 2.38 4.964 6.188 4.964 4.216 0 6.154-2.04 6.528-4.862a26.306 26.306 0 013.366 2.244 2.16 2.16 0 001.292.51 1.843 1.843 0 001.8-1.836 2.063 2.063 0 00-.92-1.662 23.776 23.776 0 00-5.674-3.164c-.306-2.89-.374-5.814-.408-8.738 1.462-.17 2.924-.374 4.25-.646a1.8 1.8 0 001.5-1.8 1.541 1.541 0 00-1.6-1.632 2.091 2.091 0 00-.442.034c-1.156.2-2.414.408-3.74.544zm-5.95 22.372c-1.7 0-2.618-.544-2.618-1.6 0-.986.748-1.734 3.128-1.734a9.512 9.512 0 012.414.374c-.034 2.144-1.19 2.96-2.924 2.96zM311.43 17.869a67.173 67.173 0 00-1.87 14.722 66.107 66.107 0 00.782 10.608 1.8 1.8 0 001.9 1.53 1.857 1.857 0 001.972-1.7c0-.1-.034-.2-.034-.306a88.783 88.783 0 01-.748-10.1 64.912 64.912 0 011.8-14.042 1.525 1.525 0 00.034-.374 1.789 1.789 0 00-1.972-1.666 1.771 1.771 0 00-1.864 1.328zm39.406 1.054a1.939 1.939 0 00-.442-.034 1.822 1.822 0 00-1.8 1.938 1.84 1.84 0 001.5 1.87 36.036 36.036 0 007.412.646 43.615 43.615 0 007-.476 1.782 1.782 0 001.53-1.836 1.82 1.82 0 00-1.836-1.9c-.1 0-.2.034-.306.034a60.811 60.811 0 01-6.426.442 33.175 33.175 0 01-6.632-.684zm6.426 24.514a44.783 44.783 0 009.962-1.054 1.986 1.986 0 001.666-1.938 1.805 1.805 0 00-1.8-1.87 3.39 3.39 0 00-.544.068 46.531 46.531 0 01-9.282.986c-6.358 0-7.514-1.156-7.514-3.3a7.262 7.262 0 01.2-1.7 2.667 2.667 0 00.068-.476 1.7 1.7 0 00-1.87-1.564 1.876 1.876 0 00-1.9 1.36 9.255 9.255 0 00-.374 2.55c-.002 4.626 3.194 6.938 11.388 6.938zm29.92-11.628a53.882 53.882 0 001.632-6.7c3.026-.34 6.12-.884 8.84-1.462a1.782 1.782 0 001.564-1.734 1.718 1.718 0 00-1.7-1.768 2.624 2.624 0 00-.51.068c-2.278.51-4.93.952-7.582 1.292.2-1.394.374-2.89.544-4.454v-.238a1.635 1.635 0 00-1.768-1.6 1.757 1.757 0 00-1.87 1.564c-.17 1.734-.374 3.434-.612 5.134-1.938.17-3.74.272-5.3.272a1.667 1.667 0 00-1.7 1.734 1.683 1.683 0 001.734 1.768c1.428 0 2.992-.068 4.658-.2a66.658 66.658 0 01-2.55 9.588 2.413 2.413 0 00-.136.816 1.842 1.842 0 001.9 1.836 2.151 2.151 0 001.462-.612 14.1 14.1 0 0110.166-4.386c2.788 0 3.876 1.326 3.876 3.094 0 2.754-2.278 4.964-8.67 5.406a1.654 1.654 0 00-1.666 1.734 1.741 1.741 0 001.8 1.768 7.924 7.924 0 001.122-.068c6.156-.578 11.256-3.468 11.256-8.908 0-3.74-2.584-6.358-7.786-6.358a17.922 17.922 0 00-8.636 2.448zm37.4-15.772a3.786 3.786 0 00-.578-.068 2 2 0 00-2.006 1.972 1.7 1.7 0 001.292 1.632 49.311 49.311 0 015.542 2.108 2.451 2.451 0 001.02.238 1.827 1.827 0 001.8-1.87 2.05 2.05 0 00-1.19-1.87 27.844 27.844 0 00-5.88-2.142zm-4.59 16.01c.374-1.972.952-4.556 1.6-7.718a1.157 1.157 0 00.034-.34 1.751 1.751 0 00-1.938-1.6 1.813 1.813 0 00-1.87 1.428c-.986 4.658-1.8 9.112-2.142 11.628a1.655 1.655 0 00-.034.408 1.957 1.957 0 002.006 1.972 2.212 2.212 0 001.734-.816 14.421 14.421 0 0110.54-5.168c3.264 0 4.658 1.632 4.658 3.4 0 2.924-2.312 5.44-8.976 6.222a1.839 1.839 0 00-1.734 1.836 1.84 1.84 0 001.87 1.87c.1 0 .2-.034.306-.034 8.194-.952 12.512-4.692 12.512-9.928 0-3.842-3.3-6.766-8.636-6.766a15.942 15.942 0 00-9.86 3.638z" fill="#eb5e00"/><g data-name="グループ 18883" fill="none" stroke="#8d827a" stroke-linecap="round" stroke-width="4"><path data-name="パス 48620" d="M472.621 58.162l30.091-55.451"/><path data-name="パス 331169" d="M32.802 58.162L2.711 2.711"/></g></g></svg>