<svg xmlns="http://www.w3.org/2000/svg" width="439.079" height="160.55"><g data-name="グループ 18892"><g data-name="グループ 18566"><g data-name="グループ 18564"><g data-name="グループ 18545"><g data-name="グループ 18542"><g data-name="グループ 18541"><path data-name="パス 331419" d="M189.426 85.093c0 35.607-34.877 60.1-77.893 60.1s-77.89-24.5-77.89-60.1 19.652-79.6 77.89-79.6 77.893 43.999 77.893 79.6z" fill="#fff"/></g></g><g data-name="グループ 18544"><g data-name="グループ 18543"><path data-name="パス 331420" d="M111.532 150.181c-.9 0-1.8.453-2.7.44s-1.8-.117-2.694-.157-1.777-.426-2.667-.491-1.753-.532-2.642-.611-1.774-.182-2.659-.3-1.872.472-2.754.35-1.755-.434-2.637-.578-1.823 0-2.7-.166-1.731-.562-2.6-.754-1.644-.844-2.509-1.061-1.69-.61-2.55-.846-1.856-.019-2.7-.288-1.8-.309-2.642-.591-1.733-.51-2.566-.819-1.549-.99-2.382-1.324-1.782-.4-2.6-.762-1.66-.713-2.463-1.093-1.636-.776-2.428-1.175-1.392-1.213-2.178-1.647-1.828-.426-2.6-.884-1.337-1.259-2.092-1.744-1.183-1.435-1.918-1.948-1.774-.583-2.488-1.12-1.248-1.28-1.929-1.837-1.308-1.18-1.967-1.758-1.188-1.31-1.823-1.915-1.8-.695-2.415-1.316c-.621-.638-1.375-1.156-1.967-1.812s-1.066-1.435-1.625-2.111-.865-1.587-1.4-2.29-1.4-1.18-1.9-1.9-.632-1.72-1.1-2.466-.955-1.489-1.389-2.257-.844-1.546-1.245-2.328-.9-1.541-1.259-2.341-.61-1.666-.931-2.485-.814-1.587-1.1-2.425-.521-1.7-.765-2.545.022-1.823-.176-2.689-.681-1.647-.846-2.518-.51-1.707-.635-2.585-.29-1.75-.369-2.637c-.081-.871.513-1.8.472-2.68s-.681-1.744-.681-2.629c0-.86.217-1.777.241-2.735.027-.874-.372-1.809-.326-2.762.052-.884 1.023-1.731 1.093-2.675.079-.879-.323-1.831-.225-2.762.095-.884.662-1.731.784-2.661.117-.879.005-1.818.149-2.735.144-.884.111-1.818.282-2.729.166-.884.185-1.815.38-2.721.187-.879 1.05-1.606 1.272-2.512.217-.876.328-1.777.572-2.667.241-.865-.168-1.942.106-2.821s.952-1.606 1.251-2.472.735-1.666 1.063-2.531c.315-.846.385-1.8.732-2.651.355-.833 1.169-1.468 1.549-2.306s.054-1.988.458-2.813 1.457-1.3 1.891-2.113.391-1.856.849-2.656c.456-.779 1.3-1.343 1.785-2.116s.643-1.758 1.164-2.52c.507-.746 1.242-1.351 1.788-2.092s1.291-1.3 1.861-2.018.738-1.731 1.324-2.42.939-1.6 1.555-2.268 1.462-1.123 2.1-1.758 1.451-1.115 2.113-1.725 1.414-1.134 2.1-1.725 1.343-1.2 2.051-1.763 1.427-1.1 2.162-1.633 1.573-.893 2.328-1.4 1.123-1.587 1.894-2.065 1.555-.952 2.341-1.4 1.888-.32 2.688-.741 1.644-.727 2.466-1.12 1.511-1.017 2.341-1.378 1.541-1 2.387-1.337 1.842-.222 2.7-.532 1.533-1.093 2.4-1.37 1.69-.7 2.566-.952 1.894.1 2.778-.122 1.633-.966 2.52-1.161 1.923.412 2.819.25 1.763-.361 2.659-.5 1.7-.874 2.607-.985c.89-.111 1.782-.339 2.689-.431s1.829.079 2.737.005 1.826.361 2.737.315 1.791-.431 2.7-.458 1.81-.355 2.718-.355 1.815.407 2.716.434 1.8.393 2.7.439 1.834-.277 2.729-.209 1.815.111 2.71.2 1.845-.071 2.735.041 1.679 1.082 2.572 1.218 1.948-.635 2.83-.472c.9.166 1.625 1.148 2.5 1.338.893.19 1.94-.3 2.808-.084.884.217 1.753.518 2.615.76.879.25 1.758.5 2.615.768s1.658.787 2.507 1.088 1.579.931 2.417 1.267 1.747.5 2.572.857c.836.369 1.753.532 2.572.92s1.78.5 2.577.925 1.337 1.343 2.124 1.791 1.356 1.237 2.124 1.717 1.7.681 2.453 1.186 1.443 1.077 2.178 1.609 1.85.564 2.556 1.126 1.275 1.318 1.962 1.91 1 1.592 1.666 2.208 1.6.933 2.244 1.581 1.278 1.278 1.888 1.948.838 1.671 1.422 2.36 1.506 1.1 2.07 1.81.966 1.568 1.5 2.3.944 1.568 1.457 2.322 1.028 1.5 1.514 2.271.73 1.69 1.18 2.477 1.606 1.2 2.035 2c.431.814.393 1.864.792 2.678s.838 1.625 1.213 2.452.9 1.606 1.245 2.439c.353.852.879 1.625 1.2 2.48s.662 1.717.958 2.569c.3.874-.122 1.967.147 2.832s.608 1.72.849 2.585c.25.9.657 1.723.874 2.6.223.9.244 1.828.431 2.716.2.9.841 1.7 1.009 2.583.171.912.309 1.815.461 2.7.144.917.361 1.81.477 2.7.125.922.2 1.834.3 2.721.1.931.171 1.848.244 2.735.07.936.412 1.837.464 2.713.049.952.054 1.877.079 2.748.027.966-.534 1.883-.534 2.743 0 .884.345 1.777.307 2.656s-.657 1.717-.735 2.6.266 1.8.144 2.675-.5 1.7-.662 2.569-.182 1.766-.388 2.618-.518 1.685-.76 2.537-.591 1.655-.879 2.493-.347 1.744-.673 2.569-.828 1.55-1.195 2.35-.648 1.641-1.053 2.434-.928 1.495-1.367 2.263-.415 1.8-.884 2.55-.849 1.582-1.351 2.309-1.782.884-2.325 1.587c-.526.7-.762 1.633-1.327 2.314s-.958 1.5-1.549 2.157-1.237 1.272-1.85 1.9-1.324 1.18-1.969 1.79-.99 1.541-1.655 2.124-1.449 1.045-2.138 1.6-1.43 1.045-2.138 1.582-1.712.689-2.45 1.2-1.405 1.11-2.159 1.6-1.281 1.337-2.054 1.8-1.943.2-2.727.638-1.492.982-2.29 1.4-1.441 1.112-2.255 1.5-1.47 1.115-2.29 1.476-1.975-.073-2.8.263-1.473 1.134-2.32 1.441-1.875.054-2.727.342-1.519 1.1-2.382 1.356-1.8.225-2.659.461-1.747.38-2.615.6-1.579 1.107-2.461 1.3-1.886-.258-2.764-.092-1.69.681-2.58.833c-.874.149-1.82-.046-2.708.084s-1.785.119-2.672.222-1.774.166-2.672.25-1.728.741-2.626.8-1.8.041-2.7.079-1.785.231-2.689.255-1.792-.395-2.69-.395zm0-139.707c-.9 0-1.785.477-2.661.5-.9.027-1.785 0-2.664.046-.9.046-1.8-.228-2.68-.157-.9.073-1.831-.241-2.707-.144-.9.1-1.793.2-2.667.323-.89.122-1.668.944-2.537 1.093-.887.157-1.788.157-2.653.334s-1.674.684-2.531.893c-.874.212-1.78.231-2.632.467s-1.848.06-2.689.334c-.86.269-1.772.4-2.6.7-.846.307-1.511 1.083-2.328 1.416-.836.334-1.549.9-2.355 1.272s-1.571.825-2.355 1.226-1.761.478-2.531.912c-.787.44-1.389 1.148-2.141 1.612s-1.484.971-2.219 1.47-1.435 1.023-2.151 1.554-1.679.741-2.36 1.3-1.02 1.541-1.682 2.13-1.565.92-2.2 1.536-1.66.884-2.268 1.527-.808 1.685-1.4 2.355-1.348 1.2-1.9 1.888-1.161 1.37-1.685 2.086-1.194 1.356-1.693 2.1-.347 1.9-.814 2.65-.735 1.62-1.167 2.393-.985 1.476-1.386 2.268-1.091 1.451-1.46 2.249-.355 1.785-.705 2.6-1.08 1.481-1.4 2.309-.583 1.679-.879 2.526-.57 1.685-.833 2.531-.383 1.736-.621 2.6-.556 1.7-.762 2.555c-.209.874-.209 1.777-.393 2.645s-.374 1.736-.532 2.61-.792 1.685-.925 2.564.057 1.8-.043 2.689.019 1.791-.06 2.675-.076 1.771-.125 2.661-.749 1.753-.77 2.637.586 1.8.586 2.683c0 .912-.19 1.82-.138 2.713.054.912.564 1.766.662 2.664s-.673 1.926-.521 2.819.811 1.7 1.015 2.583-.008 1.891.252 2.756.784 1.671 1.091 2.523.83 1.628 1.194 2.452.893 1.574 1.3 2.387.25 1.929.708 2.716 1.05 1.508 1.555 2.268 1.587 1.088 2.132 1.823.76 1.693 1.343 2.393 1.069 1.476 1.69 2.146 1.449 1.12 2.1 1.758.971 1.62 1.65 2.227 1.872.6 2.58 1.175.969 1.7 1.7 2.244c.7.524 1.736.589 2.461 1.093s1.218 1.34 1.959 1.812 1.7.575 2.466 1.023c.749.431 1.389 1.082 2.165 1.5s1.446 1.042 2.241 1.43 1.8.3 2.6.657 1.731.385 2.545.714 1.508.933 2.333 1.234 1.568.819 2.4 1.093 1.633.665 2.48.92 1.7.44 2.547.667 1.687.467 2.542.67 1.671.6 2.537.781c.849.176 1.85-.342 2.716-.184s1.712.3 2.588.431c.86.133 1.641.893 2.512 1s1.739.309 2.618.393 1.774-.117 2.648-.052 1.772-.2 2.648-.157 1.734.524 2.615.543 1.758-.5 2.64-.5 1.75-.19 2.623-.209 1.774.537 2.648.491 1.72-.654 2.585-.722c.882-.065 1.823.657 2.694.572.879-.1 1.753-.244 2.618-.355s1.655-.833 2.523-.971 1.7-.393 2.564-.551 1.763-.089 2.618-.269 1.826.1 2.675-.1c.865-.2 1.619-.776 2.466-1s1.6-.787 2.434-1.036 1.8-.138 2.621-.421c.841-.282 1.785-.25 2.6-.556s1.508-.971 2.322-1.3 1.606-.708 2.4-1.069c.808-.361 1.484-.971 2.268-1.351s1.961-.033 2.729-.445 1.091-1.666 1.845-2.105 1.934-.2 2.675-.662 1.077-1.549 1.8-2.046 1.47-.952 2.168-1.476c.732-.545 1.43-1.11 2.122-1.679.711-.578 1.549-.99 2.214-1.587.684-.61 1.576-.99 2.216-1.62s1.153-1.43 1.769-2.092 1.042-1.5 1.614-2.2.874-1.606 1.416-2.328 1.506-1.148 2-1.9 1.321-1.337 1.777-2.119.6-1.755 1.006-2.564.852-1.611 1.215-2.444.076-1.915.385-2.767.8-1.62 1.055-2.493 1-1.606 1.213-2.485-.033-1.856.122-2.754.258-1.785.358-2.689.673-1.763.73-2.669-.377-1.829-.377-2.74c0-.887.182-1.777.154-2.67s.087-1.79.035-2.683-.138-1.777-.214-2.67.1-1.809 0-2.694-1.009-1.666-1.134-2.545.236-1.842.084-2.721-.369-1.744-.551-2.618-.54-1.7-.746-2.575-.629-1.674-.873-2.531c-.228-.86-.5-1.7-.768-2.553-.255-.846.166-1.926-.122-2.767s-.684-1.666-1-2.5-.822-1.593-1.175-2.42c-.344-.811-.54-1.712-.917-2.523s-1.194-1.405-1.6-2.2-.811-1.582-1.248-2.36-.96-1.495-1.427-2.257-.917-1.522-1.416-2.262-.99-1.468-1.508-2.189-1.283-1.245-1.839-1.948-1.085-1.389-1.668-2.065-.752-1.712-1.365-2.36-1.495-1.031-2.13-1.652-.911-1.633-1.582-2.23-1.639-.833-2.33-1.4-1.242-1.3-1.964-1.831c-.705-.529-1.535-.911-2.279-1.416s-1.427-1.061-2.187-1.533-1.484-1-2.263-1.43-1.685-.638-2.485-1.036-1.5-.971-2.32-1.337-1.663-.638-2.5-.971c-.811-.334-1.6-.781-2.447-1.082-.83-.3-1.848-.071-2.7-.347s-1.72-.388-2.585-.629c-.846-.236-1.47-1.378-2.349-1.587-.855-.2-1.815-.019-2.7-.2-.857-.176-1.78-.106-2.661-.263s-1.739-.326-2.626-.45-1.747-.336-2.64-.434-1.8.282-2.694.209c-.879-.071-1.75-.282-2.65-.326-.879-.046-1.761-.146-2.661-.171-.866-.028-1.75-.394-2.656-.394z"/></g></g></g><g data-name="グループ 18548"><g data-name="グループ 18547"><g data-name="グループ 18546"><path data-name="パス 331421" d="M69.345 82.744a2.016 2.016 0 01-.578 1.424 2.044 2.044 0 01-1.43.589c-.667 0-.667.041-1.337.041s-.667-.033-1.338-.033-.662.065-1.332.065-.667-.014-1.337-.014-.67-.163-1.337-.163-.673.1-1.343.1a2.08 2.08 0 01-1.47-.545 2.154 2.154 0 01-.629-1.462c0-.667.209-.667.209-1.338s-.2-.667-.2-1.337.065-.662.065-1.332-.141-.667-.141-1.338.3-.675.3-1.343-.155-.67-.155-1.338a1.9 1.9 0 01.7-1.327 1.833 1.833 0 011.321-.629c.667 0 .667-.057 1.337-.057s.665-.054 1.338-.054.662.212 1.332.212.667-.041 1.337-.041.67-.222 1.343-.222.67.138 1.337.138a1.9 1.9 0 011.37.616 1.952 1.952 0 01.657 1.365c0 .667-.157.667-.157 1.338s.255.667.255 1.337-.236.662-.236 1.332.184.667.184 1.337-.144.667-.144 1.337.079.674.079 1.342z"/></g></g></g><g data-name="グループ 18552"><g data-name="グループ 18551"><g data-name="グループ 18550"><g data-name="グループ 18549"><path data-name="パス 331422" d="M165.745 82.744a2.139 2.139 0 01-.478 1.5 2.232 2.232 0 01-1.5.61c-.67 0-.67-.111-1.335-.111s-.67-.125-1.337-.125-.67-.008-1.34-.008-.665.222-1.332.222-.67-.052-1.346-.052-.667.1-1.343.1a2.191 2.191 0 01-1.462-.667 2.025 2.025 0 01-.467-1.47c0-.667.057-.667.057-1.337s-.155-.667-.155-1.337-.073-.662-.073-1.332-.033-.667-.033-1.338.125-.676.125-1.343-.1-.67-.1-1.337a2.126 2.126 0 012.105-2.127c.67 0 .67.147 1.337.147s.667-.179 1.337-.179.667.125 1.337.125.667.171 1.337.171.67-.171 1.337-.171.673.087 1.346.087a1.881 1.881 0 011.362.589 1.815 1.815 0 01.5 1.359c0 .667.239.667.239 1.337s.068.667.068 1.338-.052.662-.052 1.332-.1.667-.1 1.337.144.676.13 1.343-.164.665-.164 1.337z"/></g></g></g></g><g data-name="グループ 18563"><g data-name="グループ 18557"><g data-name="グループ 18554"><g data-name="グループ 18553"><path data-name="パス 331423" d="M135.376 92.665c0 5.306-10.675 9.6-23.844 9.6s-23.841-4.295-23.841-9.6 10.681-9.6 23.841-9.6 23.844 4.302 23.844 9.6z" fill="#ed8c00"/></g></g><g data-name="グループ 18556"><g data-name="グループ 18555"><path data-name="パス 331424" d="M111.532 106.896c-.906 0-1.8-.027-2.708-.068s-1.861.6-2.762.526-1.771-.624-2.669-.741-1.744-.572-2.629-.735c-.906-.163-1.856.014-2.729-.2-.9-.217-1.934.079-2.789-.185-.882-.274-1.663-.879-2.482-1.213a26.2 26.2 0 01-2.569-.99 20.763 20.763 0 01-2.238-1.611 16.117 16.117 0 01-2.089-1.753 11.429 11.429 0 01-1.5-2.249 8.882 8.882 0 01-1.134-2.387 9.048 9.048 0 01-.38-2.623 9.726 9.726 0 01.084-2.708 10.248 10.248 0 01.822-2.694 13.685 13.685 0 011.978-1.989 16.394 16.394 0 012.233-1.6 22.716 22.716 0 012.482-1.12 26.132 26.132 0 012.492-1.041c.828-.334 1.571-.887 2.461-1.161.852-.269 1.617-.971 2.507-1.186s1.812-.282 2.718-.448c.884-.163 1.839.014 2.748-.111s1.818-.041 2.724-.117 1.791-.434 2.7-.472 1.823.26 2.729.26 1.793.19 2.707.231 1.8.046 2.707.125 1.791.228 2.691.347 1.91-.415 2.792-.25c.906.163 1.744.629 2.618.846.9.217 1.88.111 2.735.38.884.274 1.834.412 2.661.746.868.342 1.394 1.411 2.181 1.818a24.93 24.93 0 012.5 1.11 15.4 15.4 0 011.858 1.991 11.642 11.642 0 011.7 2.048 10.264 10.264 0 011.541 2.255 9.956 9.956 0 01.3 2.74 30.159 30.159 0 01-1.62 5.141 11.877 11.877 0 01-1.546 2.284 17.162 17.162 0 01-2.368 1.422 21.683 21.683 0 01-2.387 1.245 26.146 26.146 0 01-2.425 1.188c-.825.334-1.633.727-2.52 1-.857.269-1.758.366-2.661.589-.865.2-1.706.591-2.615.762-.884.157-1.771.353-2.683.472s-1.828-.087-2.74-.008-1.763.879-2.675.911-1.838-.777-2.751-.777zM95.065 94.588c.716.353 1.85.274 2.854.608a22.636 22.636 0 002.545.979c.838.209 1.706.708 2.68.865.865.144 1.853-.092 2.827.006.879.092 1.837-.393 2.8-.347.893.046 1.8.38 2.759.38s1.875-.19 2.767-.228c.963-.046 1.9.13 2.786.038.966-.106 1.888-.2 2.754-.334.971-.165 1.945-.092 2.789-.3a31.695 31.695 0 002.68-.8 21.82 21.82 0 002.6-1.061c1.131-.545.83-2.309-.3-2.859a16.949 16.949 0 00-2.439-1.267 26.338 26.338 0 00-2.618-.93c-.838-.2-1.7-.695-2.67-.852-.865-.147-1.79-.347-2.759-.453-.887-.092-1.842.111-2.8.065-.9-.046-1.831.407-2.794.407s-1.875-.106-2.767-.06c-.963.046-1.91-.2-2.794-.117-.963.1-1.921.057-2.783.2-.974.163-1.831.635-2.672.838-.985.236-1.97.19-2.767.467a27.471 27.471 0 00-2.683.89c-1.126.566-1.121 3.314.005 3.865z"/></g></g></g><g data-name="グループ 18562"><g data-name="グループ 18559"><g data-name="グループ 18558"><path data-name="パス 331425" d="M135.376 111.859c0 5.293-10.675 9.6-23.844 9.6s-23.841-4.308-23.841-9.6 10.681-9.593 23.841-9.593 23.844 4.295 23.844 9.593z" fill="#ed8c00"/></g></g><g data-name="グループ 18561"><g data-name="グループ 18560"><path data-name="パス 331426" d="M111.532 126.531c-.906 0-1.823.13-2.735.09s-1.807-.274-2.716-.353-1.81-.19-2.707-.309-1.834-.125-2.718-.288c-.909-.163-1.839-.2-2.71-.412-.9-.217-1.758-.583-2.61-.852-.893-.277-1.712-.7-2.534-1.031-.871-.347-1.834-.467-2.618-.871-.833-.434-1.283-1.451-2.01-1.948-.773-.54-1.969-.526-2.6-1.142a12.04 12.04 0 01-1.47-2.374 5.759 5.759 0 01-1.275-5.182 10.125 10.125 0 01.049-2.726 9.834 9.834 0 011.259-2.433 12.122 12.122 0 011.519-2.322c.627-.608 1.8-.589 2.58-1.126.722-.5 1.172-1.489 2.007-1.915.779-.412 1.869-.2 2.735-.545.822-.328 1.62-.722 2.5-.99.852-.269 1.736-.4 2.637-.616.868-.209 1.622-.982 2.534-1.148.884-.163 1.853.171 2.762.046s1.78-.288 2.686-.366 1.812.005 2.724-.027 1.8-.727 2.708-.727 1.837-.236 2.748-.2 1.831.19 2.74.269 1.8.44 2.691.559c.917.117 1.709.865 2.593 1.028.906.165 1.929-.315 2.805-.106.9.217 1.728.657 2.58.925.893.277 1.837.369 2.661.695.865.35 1.671.814 2.461 1.221a21.173 21.173 0 012.17 1.685 16.057 16.057 0 012.189 1.6 11.366 11.366 0 011.7 2.105 9.833 9.833 0 011.259 2.412 9.668 9.668 0 01.635 2.707c0 .947-.844 1.734-1.093 2.577a9.473 9.473 0 01-.776 2.566 11.917 11.917 0 01-1.392 2.431 17.892 17.892 0 01-2.417 1.411 21 21 0 01-2.2 1.666c-.787.407-1.576.963-2.442 1.31-.827.328-2-.255-2.884.022-.855.269-1.639.773-2.539.99-.874.214-1.788.214-2.689.38s-1.671 1.074-2.577 1.2-1.883-.472-2.794-.393-1.782.592-2.689.629-1.826-.122-2.737-.122zm-16.2-13.28a6.214 6.214 0 002.5 1.2c.8.277 1.69.545 2.672.781.841.2 1.777.25 2.748.407.865.144 1.8.117 2.767.217.879.1 1.782.288 2.748.334.89.038 1.809.2 2.773.2s1.875-.307 2.767-.353c.963-.046 1.94.524 2.824.44.966-.106 1.78-.99 2.645-1.134.977-.165 1.945.024 2.786-.179.985-.236 1.9-.551 2.7-.825 1-.342 2.1-.277 2.816-.624 1.123-.551.966-3.128-.16-3.671a25.179 25.179 0 00-2.623-.855 27.291 27.291 0 00-2.618-1.1c-.838-.2-1.88.222-2.854.06-.868-.138-1.709-.906-2.678-1.009-.882-.092-1.834-.054-2.805-.1-.89-.043-1.834-.182-2.8-.182s-1.883.629-2.773.667c-.966.046-1.932-.361-2.813-.269-.971.106-1.9.3-2.764.448-.971.157-1.934.209-2.778.412-.985.236-2.013.746-2.816 1.017a4.535 4.535 0 00-2.108 1.652c-.757.917-.869 1.698-.161 2.467z"/></g></g></g></g></g><g data-name="グループ 18565"><path data-name="パス 331427" d="M17.953 123.788c.488.985.581.6 1.245 1.837.293.545.673 1.166 1.091 1.9.336.583.526 1.329.939 2 .361.591.586 1.319 1.007 1.967.385.6 1 1.069 1.432 1.7.407.586.781 1.221 1.224 1.837.423.578.9 1.142 1.354 1.739.44.57.719 1.291 1.191 1.875.458.559.977 1.088 1.465 1.652s.971 1.1 1.476 1.647 1.308.773 1.831 1.3.765 1.31 1.3 1.818 1 1.107 1.555 1.587 1.359.667 1.942 1.12 1.153.9 1.753 1.329 1.324.656 1.945 1.05 1.134.952 1.78 1.3 1.313.657 1.978.971 1.392.467 2.073.735 1.278.773 1.981 1 1.346.695 2.064.865 1.457.323 2.189.434 1.516-.388 2.257-.336 1.443.453 2.192.448c.719-.008 1.468-.019 2.208-.092.722-.06 1.449-.236 2.187-.366.716-.119 1.424-.337 2.154-.513.754-.19 1.449-.453 2.13-.681.738-.25 1.56-.212 2.208-.5a18.48 18.48 0 001.945-1.153 15.084 15.084 0 001.85-1.294 12.819 12.819 0 001.63-1.565 11.415 11.415 0 001.34-1.837 11.868 11.868 0 00.827-2.111 12.558 12.558 0 00.608-2.2 15.02 15.02 0 00.106-2.271c-.024-.732-.629-1.43-.752-2.176a19.287 19.287 0 00-.41-2.17c-.2-.708-.041-1.549-.309-2.257-.26-.686-.6-1.37-.92-2.051-.32-.662-.659-1.351-1.028-2s-1.177-1.017-1.59-1.641-.475-1.487-.928-2.078-1.226-.93-1.712-1.489-.746-1.357-1.272-1.875-1.025-1.12-1.579-1.6c-.581-.491-1.237-.9-1.826-1.324a20.523 20.523 0 00-2.089-.871 16.88 16.88 0 00-1.934-1.091 11.163 11.163 0 00-2.149-.5 7.59 7.59 0 00-2.157-.111 6.028 6.028 0 00-2.195.277 16.9 16.9 0 01-2.059.779 14.94 14.94 0 01-2.105.6 14.212 14.212 0 01-2.168.445 11.883 11.883 0 01-2.2-.217 10.64 10.64 0 01-2.084-.676 13.727 13.727 0 01-2.124-.667 13.956 13.956 0 01-1.823-1.286 11.873 11.873 0 01-1.351-1.791c-.893-.977-1.207-.477-1.72-1.449-.529-1-.133-1.207-.64-2.217s-.45-1.042-.958-2.054-.638-.95-1.148-1.967-.808-.871-1.294-1.894c-.472-1 .114-.952-.136-2.263a12.639 12.639 0 01-.45-2.146 6.241 6.241 0 01.5-4.354 11.565 11.565 0 01.559-2.176 12.332 12.332 0 011.224-1.888 13.028 13.028 0 011.56-1.628 18.2 18.2 0 011.97-1.088 16.916 16.916 0 011.815-1.286 6.177 6.177 0 001.983-1.107 9.076 9.076 0 00.887-2.1 11.137 11.137 0 001.112-1.967 16.43 16.43 0 00.45-2.211 22.4 22.4 0 00-.03-2.249c.016-.727-.068-1.468-.114-2.23-.049-.733-.3-1.449-.407-2.195-.1-.73.119-1.522-.038-2.263-.152-.722-.32-1.462-.518-2.184s-.841-1.291-1.091-1.994-.049-1.582-.347-2.263-1.009-1.18-1.354-1.837-.646-1.343-1.039-1.967c-.407-.643-.781-1.286-1.229-1.861a19.458 19.458 0 00-1.367-1.777 16.285 16.285 0 00-1.883-1.234 14.1 14.1 0 00-1.677-1.468 12.012 12.012 0 00-2.048-.865 11.149 11.149 0 00-2.184-.347 10.759 10.759 0 00-2.176-.027 11.5 11.5 0 00-2.211.084 14.661 14.661 0 00-2.151.586 19.092 19.092 0 00-2.018.963 22.385 22.385 0 00-1.948 1.12c-.586.407-1.24.8-1.842 1.291-.583.48-.912 1.221-1.438 1.72-.543.518-1.028 1.047-1.514 1.592s-1.063 1.036-1.5 1.614-.76 1.264-1.153 1.875c-.4.629-.689 1.291-1.034 1.934s-.632 1.31-.928 1.98-1.093 1.153-1.337 1.842-.185 1.5-.374 2.211-.345 1.43-.491 2.151-.106 1.468-.206 2.195-.469 1.43-.529 2.159.29 1.487.269 2.222-.2 1.462-.182 2.2-.236 1.489-.187 2.222.155 1.47.233 2.2.1 1.481.209 2.211.532 1.408.662 2.13-.038 1.514.119 2.225c.157.732.377 1.441.551 2.149s.285 1.47.48 2.165c.2.727.781 1.324 1 2.013.225.727.589 1.378.819 2.059.25.722.35 1.457.6 2.119.269.727.659 1.365.917 2 .293.743.119 1.609.385 2.225.334.781.8 1.389 1.063 1.953.589 1.253.486.977.977 1.948s.716.86 1.2 1.823.578.931 1.061 1.907.185 1.129.673 2.105.7.874 1.167 1.864.267 1.095.753 2.077z" fill="#ed8c00"/><path data-name="パス 331428" d="M57.008 160.551c-.789 0-1.59-.041-2.357-.092l-.5-.033c-.714-.046-1.424-.092-2.116-.2a9.618 9.618 0 01-2.284-.695c-.1-.038-.2-.084-.306-.117a10.763 10.763 0 01-1.9-.684c-.138-.057-.274-.125-.412-.171-.2-.057-.4-.111-.6-.163a15.987 15.987 0 01-1.826-.57 21.104 21.104 0 00-.616-.222 18.72 18.72 0 01-1.744-.7l-.545-.247c-.581-.271-1.153-.532-1.709-.841-.6-.334-1.169-.689-1.734-1.05l-.4-.255c-.2-.125-.4-.236-.594-.347-.513-.3-1.026-.61-1.508-.952l-.307-.214a34.417 34.417 0 01-1.668-1.221 21.643 21.643 0 01-1.31-1.12c-.176-.157-.35-.323-.529-.472a10.639 10.639 0 01-1.43-1.541c-.081-.1-.157-.2-.244-.3-.065-.051-.2-.138-.32-.231a12.073 12.073 0 01-1.495-1.237c-.388-.4-.754-.8-1.115-1.207l-.491-.545c-.054-.052-.163-.13-.263-.209a10.905 10.905 0 01-1.508-1.392 13.53 13.53 0 01-1.088-1.481 5.026 5.026 0 00-.3-.439 4.5 4.5 0 00-.342-.342 12.267 12.267 0 01-1.264-1.37 8.414 8.414 0 01-1.226-2.374l-.005-.019c-.092-.106-.176-.217-.269-.32-.3-.369-.6-.735-.871-1.115l-.16-.152a8.713 8.713 0 01-1.541-1.744 76.47 76.47 0 01-1.24-1.981 8.988 8.988 0 01-.969-2.328l-.147-.3c-.342-.6-.651-1.14-.9-1.612a7.337 7.337 0 01-1.367-1.975 7.4 7.4 0 01-.719-2.3 8 8 0 01-1.105-1.631c-.309-.624-.445-.944-.583-1.267-.079-.182-.155-.366-.331-.714l-.96-1.953a8.932 8.932 0 01-.629-1.573 7.153 7.153 0 01-1.644-2.317 8.489 8.489 0 01-.624-2.078c-.022-.106-.038-.222-.071-.342a2.687 2.687 0 01-.182-.3 15.689 15.689 0 01-.806-1.658 11.319 11.319 0 01-.532-1.831 3.52 3.52 0 00-.1-.445c-.165-.448-.312-.92-.464-1.405-.065-.2-.13-.412-.2-.621l-.1-.176a9.461 9.461 0 01-1-2.113 8.492 8.492 0 01-.345-2.444l-.03-.054a10.126 10.126 0 01-.8-2.065 16.291 16.291 0 01-.3-1.62c-.041-.231-.073-.467-.125-.7-.033-.144-.092-.288-.141-.44a11.955 11.955 0 01-.516-1.837 10.089 10.089 0 01-.122-2.17c0-.117.011-.228 0-.347a19.86 19.86 0 01-.149-1.519c-.013-.171-.024-.35-.041-.518L.823 89.4a8.781 8.781 0 01-.567-2.452c-.014-.2-.049-.393-.073-.589a14.521 14.521 0 01-.185-1.837 9.32 9.32 0 01.288-2.341c.008-.041.019-.079.027-.125a.842.842 0 01-.019-.117 9.271 9.271 0 01-.146-2.349c.049-.6.146-1.207.244-1.8l.1-.667a12.951 12.951 0 01.45-1.942c.051-.176.111-.347.144-.524a11.327 11.327 0 01.629-1.994 3.678 3.678 0 00.157-.412l.152-.591c.157-.629.32-1.251.534-1.861.277-.8.57-1.6.914-2.393a13.3 13.3 0 01.963-1.758c.1-.166.2-.328.3-.5a30.73 30.73 0 011.332-2.208l.258-.415a20.871 20.871 0 011.172-1.731 16.037 16.037 0 011.291-1.462c.071-.071.144-.149.22-.231l.008-.019a8.076 8.076 0 011.66-2.387l.155-.144a29.447 29.447 0 011.766-1.592 28.545 28.545 0 011.989-1.462 8.16 8.16 0 012.621-1.2 7.042 7.042 0 012.382-1.642 7.859 7.859 0 013.131-.5 7.959 7.959 0 012.843-.749 9.9 9.9 0 012.767.274c.13.027.263.06.393.073.152.027.3.032.445.046a9.965 9.965 0 012.7.5 16.549 16.549 0 012.819 1.329 19.959 19.959 0 012.477 1.666 16.063 16.063 0 011.777 1.693l.559.578a19.824 19.824 0 011.612 1.79c.526.681 1.05 1.422 1.546 2.208.109.171.228.342.347.5a15.15 15.15 0 011.085 1.72 16.95 16.95 0 01.787 1.8c.079.2.155.407.239.6a8.907 8.907 0 01.608 2.282 7.311 7.311 0 011.3 2.5 9.693 9.693 0 01.32 2.314c.008.119.011.236.019.347l.133.526c.147.63.288 1.259.38 1.888.092.667.13 1.343.163 2.013l.03.57a12.688 12.688 0 01-.068 2.132c-.019.168-.041.339-.046.51.005-.038.027.079.046.185a8.86 8.86 0 01.1 2.569 9.487 9.487 0 01-.76 2.585l-.119.287a15.466 15.466 0 01-1.036 2.832 5.28 5.28 0 00-.144.355 8.44 8.44 0 01-1.6 2.8 10.908 10.908 0 01-3.253 2.452 14.06 14.06 0 01-1.514.616c-.06.019-.117.033-.171.054-.13.117-.307.279-.445.412-.19.182-.374.353-.559.524-.269.236-.551.467-.825.689l-.054.041a8.891 8.891 0 01-.589 1.481c-.2.385-.437.754-.67 1.115-.046.07-.09.144-.133.209-.068.217-.141.426-.214.637-.032.084-.057.168-.092.247a8.706 8.706 0 01.244 1.66 8.994 8.994 0 01-.041 1.3 8.326 8.326 0 01.583 1.023c.369.781.439.925.7 1.449l1.28 2.518a7.172 7.172 0 01.711 2.355 7.448 7.448 0 011.156 1.647c.2.374.328.654.429.89a11.058 11.058 0 001.118 1 1.056 1.056 0 01.271.111c.336.166.681.342 1.017.54a9.091 9.091 0 011.2.857c.4.022.806.06 1.2.119.361.06.722.138 1.091.228.114.027.231.06.353.087l.3-.008a7.841 7.841 0 00.99-.057 10.065 10.065 0 001.232-.361l.138-.1a10.9 10.9 0 011.5-.933 10.641 10.641 0 013.907-1.218 7.459 7.459 0 013.494.629 7.767 7.767 0 013.174.51 19.829 19.829 0 012.536 1.286 10.544 10.544 0 011.9 1.424 4.112 4.112 0 00.331.288c.057.032.163.084.271.144a9.92 9.92 0 011.986 1.286 8.592 8.592 0 011.687 2.051l.027.041c.024.019.052.038.084.06a9.514 9.514 0 011.812 1.56c.133.152.282.3.431.453a15.541 15.541 0 011.291 1.443c.448.583.86 1.2 1.267 1.815l.57.833c.374.524.741 1.055 1.063 1.614a12.634 12.634 0 01.846 1.861c.07.176.13.356.209.518a8.5 8.5 0 01.714 2.447 7.692 7.692 0 011.267 2.5 24.973 24.973 0 01.627 2.729 12.283 12.283 0 01.114 2.36c0 .176-.005.347 0 .51a15.713 15.713 0 01-.187 2.651l-.046.334c-.014.138-.019.282-.027.426a10.126 10.126 0 01-.41 2.664 8.376 8.376 0 01-1.484 2.656l-.174.228a14.726 14.726 0 01-1.677 2.518l-.241.3a13.709 13.709 0 01-1.856 1.948c-.1.084-.184.176-.277.269a10.588 10.588 0 01-2.018 1.652 23.82 23.82 0 01-2.545 1.286 11.608 11.608 0 01-2.059.67c-.182.046-.364.084-.545.144a12.953 12.953 0 01-1.94.464c-.2.033-.415.068-.616.119s-.412.117-.61.176a14.841 14.841 0 01-1.877.472c-.871.152-1.731.236-2.58.309a4.662 4.662 0 01-.233.07 9.717 9.717 0 01-2.339.355zm-3.334-9.921c.355.046.716.065 1.071.084l.591.041c.534.038 1.091.065 1.649.065l.231-.06a10.681 10.681 0 011.75-.328c.61-.052 1.207-.1 1.818-.209a5.939 5.939 0 00.681-.19c.361-.106.722-.217 1.1-.309.412-.106.825-.176 1.229-.255a5.631 5.631 0 00.586-.111c.421-.144.86-.258 1.286-.361.165-.046.331-.079.486-.133.5-.228 1.047-.477 1.416-.7-.011-.014.092-.119.193-.222.3-.3.6-.591.909-.846a7.348 7.348 0 00.564-.643l.32-.393a6.591 6.591 0 00.662-1.05 9.759 9.759 0 01.814-1.226c.019-.393.046-.787.092-1.18l.051-.407a7.9 7.9 0 00.106-1.061c-.008-.337 0-.676.005-1.023a4.723 4.723 0 000-.619 12.02 12.02 0 00-.266-1.185 8.445 8.445 0 01-1.123-1.994 9.735 9.735 0 01-.486-1.953l-.027-.152c-.133-.3-.255-.61-.38-.925a5.031 5.031 0 00-.223-.551c-.157-.269-.353-.537-.545-.806s-.361-.5-.529-.76l-.212-.323c-.287-.431-.57-.865-.879-1.272a6.062 6.062 0 00-.518-.543c-.228-.236-.461-.48-.681-.722a2.35 2.35 0 00-.2-.144 10.706 10.706 0 01-1.441-1.161 8.79 8.79 0 01-1.253-1.62l-.033-.014a12.323 12.323 0 01-1.411-.846 13.074 13.074 0 01-1.172-.963 3.882 3.882 0 00-.3-.263c-.263-.144-.567-.315-.838-.458a8.543 8.543 0 01-1.782-.138 8.028 8.028 0 01-1.18-.32.069.069 0 01-.035.011 3.952 3.952 0 01-.25.179 9.051 9.051 0 01-2.214 1.226 21.592 21.592 0 01-2.849.833 14.683 14.683 0 01-2.732.242l-.345.008a10.288 10.288 0 01-2.756-.35 3.54 3.54 0 00-.363-.084c-.1-.013-.228-.013-.35-.019a8.807 8.807 0 01-2.767-.48 8.169 8.169 0 01-2.648-1.652l-.117-.1c-.111-.06-.225-.111-.336-.171a10.9 10.9 0 01-2.089-1.278 20.376 20.376 0 01-2.165-2.008 7.791 7.791 0 01-1.706-2.623 7.406 7.406 0 01-1.6-2.157 6.98 6.98 0 01-.746-2.813l-1-1.98c-.255-.51-.355-.708-.635-1.3a6.627 6.627 0 01-1.679-3.467 8.039 8.039 0 010-2.721c.008-.06.019-.125.024-.19l-.016-.079a8.6 8.6 0 01-.225-2.979 11.439 11.439 0 01.635-2.5c.06-.166.117-.328.166-.5a9.253 9.253 0 011.207-2.439l.136-.217.033-.106a8.129 8.129 0 011.4-2.878 11.032 11.032 0 011.839-1.758c.138-.111.279-.223.41-.339l.336-.315a13.432 13.432 0 011.921-1.587 9.419 9.419 0 012.219-1.031c.122-.046.25-.084.372-.135a.9.9 0 00.117-.068c.141-.353.285-.714.453-1.061a7.023 7.023 0 00.423-1.2 10.86 10.86 0 01.521-1.454 9.529 9.529 0 01-.138-1.771c.008-.407.043-.833.087-1.259a5.3 5.3 0 00.046-.564l-.041-.722c-.019-.372-.032-.746-.084-1.126a10.056 10.056 0 00-.212-.985c-.065-.288-.136-.583-.2-.871a10.03 10.03 0 01-.193-1.622 7.539 7.539 0 01-1.088-1.972 9.754 9.754 0 01-.445-1.967l-.027-.176c-.1-.236-.19-.472-.282-.716a7.919 7.919 0 00-.326-.781 5.972 5.972 0 00-.426-.64c-.212-.3-.421-.6-.61-.9q-.476-.757-1.017-1.454a10.278 10.278 0 00-.865-.939l-.676-.7a9.464 9.464 0 00-.757-.754 9.656 9.656 0 00-1.226-.819 9.483 9.483 0 00-1.112-.57c-.117-.019-.242-.019-.361-.033-.35-.027-.7-.052-1.044-.106s-.705-.117-1.066-.2a9.255 9.255 0 01-1.489.5 7.462 7.462 0 01-1.484.19 7.308 7.308 0 01-1.346.963 8.5 8.5 0 01-2.089.781c-.377.263-.768.537-1.148.846-.361.3-.7.616-1.031.931a8.324 8.324 0 01-1.275 1.967c-.217.244-.448.486-.681.722a6.282 6.282 0 00-.548.591c-.241.32-.445.654-.654.99l-.323.51c-.334.518-.651 1.009-.931 1.541-.2.361-.4.7-.616 1.044a4.925 4.925 0 00-.312.524c-.247.564-.445 1.134-.648 1.712a10.156 10.156 0 00-.269.982c-.071.269-.136.54-.209.814a13.768 13.768 0 01-.5 1.435 3.179 3.179 0 00-.157.415c-.076.38-.2.825-.331 1.272a4.5 4.5 0 00-.149.529c-.038.282-.084.591-.136.9-.046.274-.092.551-.125.825a1.77 1.77 0 00.033.2 10.309 10.309 0 01.163 1.953 9.9 9.9 0 01-.288 1.986l-.033.171c.014.152.041.3.065.448.052.347.1.7.13 1.047l.046.125a9.133 9.133 0 01.537 2.159c.041.353.068.708.092 1.061.027.323.043.635.09.944a10.547 10.547 0 01.081 1.915c0 .079-.005.157-.005.231.03.1.073.223.117.339a13.984 13.984 0 01.45 1.541c.092.426.16.855.225 1.28.032.209.063.418.106.63.035.079.076.149.111.228a9.9 9.9 0 01.73 1.81 8.6 8.6 0 01.3 2.165 9.257 9.257 0 01.876 1.81c.125.355.231.7.342 1.05.1.315.19.629.3.93a12.332 12.332 0 01.48 1.739c.03.125.054.255.09.374.052.122.171.312.271.5.233.431.453.844.629 1.259a9.156 9.156 0 01.548 1.736 6.559 6.559 0 011.37 1.856 8.839 8.839 0 01.77 2.092l.958 1.942c.312.624.45.944.583 1.259.062.144.122.288.233.513a7.437 7.437 0 011.5 2.287 7.786 7.786 0 01.559 1.975 8.819 8.819 0 011.08 1.619c.217.407.48.852.768 1.357l.25.434a8.58 8.58 0 01.8 2l.052.171c.266.431.545.884.838 1.343l.1.092a9.336 9.336 0 011.5 1.666 6.843 6.843 0 00.453.564c.282.347.564.695.833 1.064a8.161 8.161 0 011.069 2.111c.038.038.081.079.125.117a14.458 14.458 0 011.12 1.188c.323.393.605.814.887 1.232a3.992 3.992 0 00.312.458c.008-.019.106.073.212.157a10.816 10.816 0 011.343 1.2c.212.228.423.472.635.708.239.268.48.542.738.8.079.071.209.149.331.241a14.248 14.248 0 011.261 1.017 11.284 11.284 0 011.175 1.3c.081.106.157.2.241.3.163.136.407.353.656.583s.491.453.754.656c.41.32.846.621 1.278.931l.326.222a9.065 9.065 0 00.789.486c.3.176.591.347.882.529l.437.277c.4.255.792.513 1.207.741.334.184.686.342 1.042.5l.675.315c.269.125.551.217.83.315.309.111.627.222.941.347a4.985 4.985 0 00.711.2c.358.092.711.19 1.069.3a13.192 13.192 0 011.37.532c.138.06.271.125.413.171a10.03 10.03 0 011.622.563c.066.03.14.063.21.09zm-.171-.022zm-33.814-14.693l.005.005zm49.817-1.424zm-53.526-4.512l.014.019zm49.313-1.8l.008.008zm-43.089-6.484l-4.365 2.151 4.373-2.138zm24.932-6.538zm-10.96-16.579zm.136-.334zM9.97 86.302zm27.232-1.915zm-1.012-16.34v.014zm-15.911-6.663l-.013.014zm-11.06-2.512v.008z"/></g></g><g data-name="グループ 18591"><g data-name="グループ 18589"><g data-name="グループ 18571"><g data-name="グループ 18568"><g data-name="グループ 18567"><path data-name="パス 331429" d="M276.948 102.83c0 29.937 35.046 43.122 78.287 43.122s78.284-13.185 78.284-43.122H276.948z" fill="#fff"/></g></g><g data-name="グループ 18570"><g data-name="グループ 18569"><path data-name="パス 331430" d="M355.234 150.854c-.9 0-1.8.477-2.678.469s-1.8-.155-2.675-.174c-.906-.027-1.793-.1-2.683-.138s-1.782-.285-2.67-.331-1.763-.491-2.648-.545-1.791-.03-2.67-.1c-.9-.065-1.777-.236-2.661-.331s-1.8.109-2.683 0c-.9-.1-1.847.336-2.729.225s-1.739-.545-2.612-.678c-.9-.128-1.728-.548-2.607-.694s-1.875.312-2.745.155c-.887-.163-1.75-.41-2.621-.586s-1.706-.583-2.572-.784-1.842-.041-2.694-.266c-.874-.222-1.606-.955-2.461-1.194s-1.742-.431-2.583-.692c-.868-.266-1.712-.559-2.539-.841-.857-.29-1.565-.966-2.393-1.27-.844-.312-1.647-.694-2.458-1.028-.827-.336-1.956.024-2.762-.331-.827-.372-1.378-1.3-2.168-1.693-.811-.4-1.943-.163-2.716-.583-.795-.431-1.326-1.313-2.089-1.769s-1.674-.727-2.4-1.21c-.754-.5-1.611-.86-2.325-1.375-.724-.535-.922-1.742-1.6-2.3s-1.571-.9-2.225-1.495c-.665-.616-1.126-1.405-1.744-2.035s-1.707-.868-2.284-1.538c-.583-.7-.792-1.677-1.316-2.387s-1.177-1.373-1.649-2.122-.846-1.568-1.27-2.352-1.245-1.4-1.609-2.214-.713-1.679-1.02-2.52.166-1.921-.079-2.792c-.231-.852-.985-1.582-1.167-2.472-.179-.868.255-1.834.144-2.729s-1-1.7-1.053-2.593c-.057-.879.334-1.815.334-2.71a4.309 4.309 0 012.48-4.541 5.469 5.469 0 012.618-.819c1.348 0 1.348-.163 2.7-.163s1.348.4 2.7.4 1.348.266 2.7.266 1.351.236 2.7.236 1.354-.046 2.689-.046c1.351 0 1.351-.515 2.7-.515s1.348-.4 2.7-.4 1.351.2 2.7.2 1.346.746 2.694.746 1.351-.5 2.7-.5 1.348-.4 2.7-.4 1.348.163 2.7.163 1.348.58 2.7.58 1.343.046 2.691.046 1.348.136 2.694.136 1.354-.046 2.7-.046 1.348-.667 2.7-.667 1.354.518 2.7.518 1.348.065 2.694.065 1.348-.551 2.7-.551 1.348-.176 2.7-.176 1.348.724 2.694.724 1.348-.133 2.7-.133 1.351-.3 2.7-.3 1.346.073 2.694.073 1.351.076 2.7.076 1.351-.282 2.7-.282 1.348-.117 2.7-.117 1.351.4 2.7.4 1.351.35 2.7.35 1.348-.174 2.7-.174 1.354.119 2.7.119 1.354-.439 2.7-.439 1.354.1 2.708.1 1.343.366 2.7.366 1.348-.7 2.7-.7 1.354.008 2.7.008 1.354-.133 2.7-.133 1.354.1 2.7.1 1.354.119 2.7.119 1.351.138 2.7.138 1.351.518 2.7.518 1.351-.206 2.694-.206 1.354.147 2.7.147 1.351-.841 2.708-.841 1.348.3 2.7.3 1.346.486 2.694.486 1.354-.439 2.7-.439 1.354.477 2.7.477 1.348-.5 2.7-.5 1.351-.152 2.7-.152 1.351.244 2.707.244c1.34 0 1.34.176 2.691.176s1.354.2 2.707.2 1.351-.274 2.7-.274 1.354.388 2.707.388 1.351.022 2.708.022 1.354-.646 2.7-.646a5.607 5.607 0 012.691.624 5.543 5.543 0 011.772 2.078 5.741 5.741 0 011.1 2.585c0 .9-.846 1.78-.911 2.664s.6 1.853.483 2.746-.456 1.755-.629 2.632-.26 1.793-.507 2.653c-.241.876-1.1 1.538-1.405 2.371s-.364 1.78-.727 2.591-1.161 1.4-1.579 2.181-.486 1.766-.963 2.526c-.477.743-1.365 1.213-1.9 1.937-.524.708-.57 1.8-1.156 2.488-.57.673-1.47 1.061-2.092 1.706s-1.248 1.248-1.91 1.864c-.651.6-1.251 1.243-1.951 1.82-.684.554-1.365 1.134-2.089 1.666s-1.1 1.538-1.85 2.037c-.735.494-1.579.863-2.355 1.329-.757.445-1.858.307-2.648.738s-1.495.963-2.3 1.364c-.789.393-1.565.822-2.39 1.186-.808.366-1.688.562-2.518.9s-1.715.472-2.561.784c-.822.307-1.394 1.373-2.246 1.663s-1.823.136-2.683.4-1.579.941-2.444 1.183-1.856-.057-2.732.168c-.857.212-1.56 1.129-2.434 1.327s-1.82.022-2.7.209c-.868.176-1.769.211-2.651.377s-1.679.738-2.564.884-1.8.065-2.686.2c-.873.128-1.815-.182-2.71-.068-.876.114-1.725.559-2.618.654s-1.769.282-2.661.369-1.755.412-2.65.483-1.807-.334-2.7-.277-1.755.448-2.656.494-1.8-.391-2.694-.355-1.782-.035-2.683-.014-1.774.613-2.669.619-1.812-.49-2.716-.49zm-72.855-43.111c.152.9.689 1.88.922 2.729a22.421 22.421 0 00.705 2.583 23.691 23.691 0 001.031 2.474c.4.8.662 1.69 1.142 2.452s.705 1.728 1.259 2.436 1.221 1.362 1.839 2.016 1.21 1.37 1.872 1.994c.657.594 1.544.979 2.243 1.535s1.747.638 2.5 1.148c.727.518 1.3 1.253 2.081 1.725s1.4 1.153 2.2 1.582 1.872.263 2.683.657c.8.374 1.576.811 2.406 1.169.814.342 1.56.874 2.4 1.188s1.8.26 2.656.564c.841.29 1.53 1.058 2.39 1.321s1.734.456 2.6.695 1.725.483 2.593.708c.874.209 1.658.814 2.528 1s1.753.445 2.629.621 1.915-.426 2.792-.271 1.674.906 2.558 1.036c.89.155 1.886-.442 2.767-.323s1.72.743 2.6.857c.9.106 1.826-.06 2.7.027.909.106 1.809-.014 2.691.073.917.084 1.736.987 2.618 1.05.917.07 1.839-.2 2.707-.138.922.054 1.81.323 2.678.369.933.043 1.853-.6 2.713-.575.95.035 1.831.5 2.672.518.971.011 1.867-.147 2.678-.147s1.706.1 2.691.076c.836-.016 1.723-.516 2.669-.543.855-.027 1.745-.068 2.683-.111.857-.038 1.8.694 2.716.637.876-.046 1.728-.681 2.645-.749.876-.07 1.812.453 2.726.375.882-.09 1.693-.974 2.6-1.066.879-.092 1.812.217 2.716.109.874-.1 1.731-.45 2.632-.57.876-.125 1.774-.166 2.664-.307s1.739-.4 2.629-.553 1.725-.48 2.6-.656 1.823.005 2.708-.185c.874-.206 1.8-.149 2.683-.374s1.807-.212 2.667-.456 1.725-.537 2.583-.792 1.557-1.025 2.406-1.313 1.555-.974 2.385-1.294 1.736-.461 2.556-.809 1.953-.057 2.759-.437 1.4-1.251 2.187-1.671 1.375-1.2 2.14-1.663 1.59-.8 2.325-1.316 1.8-.589 2.5-1.134c.714-.559 1.438-1.115 2.1-1.715.662-.621 1.424-1.169 2.035-1.823s1.191-1.392 1.744-2.1.526-1.831 1.009-2.588 1.373-1.286 1.78-2.086a26.317 26.317 0 001.153-2.474c.323-.825.089-1.845.326-2.737a19.016 19.016 0 00.651-2.2c-1.272-.448-1.221-.686-2.564-.686s-1.346.13-2.689.13-1.351.293-2.694.293-1.348-.073-2.689-.073-1.343-.068-2.7-.068-1.343.271-2.694.271-1.348.108-2.7.108-1.346-.385-2.7-.385-1.346-.355-2.691-.355-1.34.182-2.689.182-1.351-.117-2.7-.117-1.343.431-2.694.431-1.343-.095-2.691-.095-1.346-.38-2.694-.38-1.346.7-2.694.7-1.351-.011-2.7-.011-1.343.125-2.691.125-1.346-.09-2.689-.09-1.348-.119-2.7-.119-1.348-.141-2.7-.141-1.343-.515-2.7-.515-1.346.217-2.694.217-1.343-.149-2.691-.149-1.343.827-2.7.827-1.351-.293-2.7-.293-1.348-.472-2.7-.472-1.348.429-2.691.429-1.351-.464-2.7-.464-1.348.491-2.7.491-1.348.149-2.7.149-1.348-.236-2.7-.236-1.348-.176-2.694-.176-1.354-.193-2.7-.193-1.346.277-2.7.277-1.34-.407-2.691-.407-1.351-.022-2.7-.022-1.351.651-2.694.651-1.348.1-2.7.1-1.346-.22-2.7-.22-1.346.4-2.694.4-1.348-.814-2.7-.814-1.343.735-2.688.735-1.351-.2-2.7-.2-1.354.13-2.707.13-1.343-.621-2.691-.621-1.348.288-2.7.288-1.343-.472-2.694-.472-1.346.461-2.7.461-1.348-.48-2.7-.48-1.354.646-2.7.646-1.348-.412-2.7-.412h-2.7c-1.346 0-1.34.3-2.675.092-1.362-.213-1.482-.484-2.754-.015z"/></g></g></g><g data-name="グループ 18576"><g data-name="グループ 18573"><g data-name="グループ 18572"><path data-name="パス 331431" d="M409.118 51.032a23.172 23.172 0 10-29.744-22.211 23.437 23.437 0 00.958 6.6 94.649 94.649 0 00-51.377.361 23.411 23.411 0 001.061-6.959 23.133 23.133 0 10-28.93 22.449c-16.3 14.528-24.137 34.763-24.137 51.559h156.57c-.001-16.881-7.92-37.248-24.401-51.799z" fill="#ed8c00"/></g></g><g data-name="グループ 18575"><g data-name="グループ 18574"><path data-name="パス 331432" d="M433.518 107.447c-1.348 0-1.348.865-2.694.865s-1.354-.114-2.7-.114-1.351-.315-2.7-.315-1.346.279-2.7.279c-1.343 0-1.343-.529-2.691-.529s-1.351.019-2.686.019c-1.351 0-1.351-.168-2.7-.168s-1.348-.057-2.7-.057-1.348.117-2.7.117-1.346.458-2.7.458-1.348.3-2.7.3-1.346-.651-2.7-.651-1.348.67-2.7.67-1.348.065-2.7.065-1.343-.155-2.691-.155-1.351-.03-2.7-.03-1.348-.372-2.691-.372-1.354-.347-2.7-.347-1.351.695-2.7.695-1.348-.054-2.691-.054-1.354-.345-2.7-.345-1.348.393-2.7.393-1.343.209-2.694.209-1.351-.665-2.7-.665-1.348.244-2.7.244-1.34.087-2.691.087-1.354.06-2.708.06-1.346-.4-2.694-.4-1.357.361-2.7.361-1.351-.334-2.7-.334-1.351.391-2.7.391-1.348-.442-2.7-.442-1.348.024-2.7.024-1.348.13-2.7.13-1.346.152-2.7.152-1.348.366-2.7.366-1.343-.4-2.691-.4-1.356.369-2.7.369-1.357-.705-2.7-.705-1.351-.125-2.7-.125-1.354.657-2.7.657-1.356-.716-2.707-.716-1.343.9-2.691.9-1.354-.323-2.707-.323-1.348.328-2.691.328-1.348-.323-2.7-.323-1.351-.282-2.7-.282-1.348.136-2.7.136-1.343.2-2.7.2-1.348-.176-2.7-.176-1.348-.342-2.7-.342-1.359.043-2.71.043-1.354.155-2.7.155-1.348-.084-2.7-.084-1.346.325-2.7.325-1.354-.019-2.7-.019-1.356-.41-2.713-.41-1.354-.157-2.7-.157a4.385 4.385 0 01-4.012-2.265c-.434-.749-1.12-1.4-1.12-2.322s.567-1.8.61-2.732c.041-.906-.06-1.818.016-2.74s-.543-1.894-.426-2.805.846-1.739 1-2.642.25-1.812.439-2.713.3-1.815.532-2.708c.225-.876.779-1.671 1.042-2.561s.358-1.788.656-2.659.445-1.788.77-2.648.99-1.579 1.348-2.42.133-1.945.513-2.783 1.465-1.31 1.877-2.146c.415-.817-.052-2.089.388-2.892s.963-1.59 1.427-2.371 1.028-1.549 1.519-2.32 1.408-1.264 1.929-2.018c.518-.771.827-1.677 1.373-2.409s1.1-1.479 1.671-2.192 1.394-1.229 1.986-1.918c.594-.708.692-1.476 1.313-2.149-.749-.461-1.017-1.112-1.72-1.649-.7-.518-1.449-.985-2.1-1.563a24.955 24.955 0 01-1.63-2.059 25.408 25.408 0 01-1.65-2c-.529-.692-.9-1.465-1.359-2.2a25.719 25.719 0 01-1.544-2.116c-.385-.779-.665-1.593-.982-2.409s-.656-1.611-.9-2.452-.477-1.677-.635-2.539-.654-1.671-.732-2.558c-.076-.863.586-1.75.586-2.637 0-.941-.225-1.845-.133-2.754a26.374 26.374 0 01.616-2.686c.179-.909.453-1.753.713-2.629s.388-1.788.741-2.645.19-1.964.624-2.773c.437-.825 1.427-1.31 1.94-2.075s.491-1.959 1.077-2.67 1.416-1.251 2.067-1.921c.648-.646 1.405-1.21 2.122-1.8s1.47-1.129 2.238-1.66c.765-.507 1.777-.594 2.6-1.036.806-.429 1.411-1.3 2.268-1.655s1.888-.16 2.778-.437 1.584-1.272 2.5-1.451 1.926.345 2.846.252 1.812-.076 2.748-.076 1.864-.355 2.775-.266a27.633 27.633 0 012.661.855c.917.179 1.953-.179 2.835.087s1.706.787 2.555 1.139 1.807.545 2.613.982 1.354 1.348 2.119 1.872 1.937.521 2.648 1.107.833 1.834 1.489 2.493 1.864.811 2.45 1.525 1.207 1.468 1.72 2.241.385 1.932.822 2.754.99 1.557 1.348 2.406c.358.865.838 1.677 1.11 2.561s.591 1.78.779 2.691c.176.9-.35 1.9-.263 2.83a27.4 27.4 0 01.241 2.735c0 .052.244-.393.244-.345.816-.176 1.72.163 2.556 0s1.652-.347 2.493-.477c.825-.119 1.687-.081 2.531-.179s1.66-.336 2.5-.421 1.671-.307 2.515-.366 1.685-.233 2.534-.269 1.7.445 2.553.423c.836-.019 1.677-.456 2.526-.456.92 0 1.837.214 2.737.233.92.019 1.818.464 2.721.51.92.041 1.834-.146 2.746-.081s1.8.35 2.7.445 1.853-.119 2.751 0c.914.119 1.8.336 2.7.486s1.85.285 2.743.467c0-.941 0-1.907.092-2.813a27.043 27.043 0 01.854-2.653c.179-.911.108-1.861.374-2.732.274-.9.57-1.753.922-2.61s1.034-1.516 1.468-2.322a25.836 25.836 0 011.34-2.387 27.186 27.186 0 011.715-2.127 27.197 27.197 0 011.826-2.008 25.515 25.515 0 011.942-1.929c.7-.578 1.085-1.6 1.85-2.138.762-.507 1.926-.334 2.743-.768s1.546-.955 2.4-1.308a26.71 26.71 0 012.474-1.248 24.416 24.416 0 012.71-.529c.9-.179 1.774-.513 2.7-.6.909-.081 1.837-.488 2.764-.488s1.807.958 2.718 1.05 1.964-.67 2.865-.491a26.151 26.151 0 012.648.925 25.51 25.51 0 012.572 1.064c.863.355 1.853.456 2.672.893s1.487 1.153 2.246 1.663c.768.526 1.66.909 2.374 1.492s1.541 1.1 2.192 1.753.678 1.91 1.264 2.621 1.08 1.46 1.6 2.224a27.543 27.543 0 011.6 2.246c.434.822.741 1.668 1.091 2.526s1.224 1.53 1.5 2.425a26.756 26.756 0 01.29 2.794 27.379 27.379 0 01.749 2.713c.089.906-.106 1.856-.106 2.8s-.591 1.823-.678 2.748c-.1.947.48 1.959.293 2.868a27.508 27.508 0 01-.939 2.672c-.279.89-.345 1.888-.708 2.74s-.613 1.823-1.064 2.65a26.34 26.34 0 01-1.606 2.333 26.852 26.852 0 01-1.609 2.355c-.591.711-1.823.849-2.493 1.517s-1.08 1.565-1.807 2.157-1.438 1.142-2.214 1.658c.594.643 1.24 1.2 1.82 1.856.578.681.846 1.606 1.4 2.292s.93 1.506 1.457 2.214 1.462 1.1 1.972 1.815 1.063 1.438 1.549 2.165 1.261 1.3 1.717 2.067c.458.749.071 2 .5 2.765.442.779 1.348 1.278 1.755 2.062s.893 1.525 1.275 2.325.694 1.633 1.045 2.434c.361.822.2 1.837.523 2.656s1.53 1.318 1.826 2.14.48 1.72.746 2.566.016 1.848.258 2.7 1 1.557 1.21 2.412c.212.871-.428 1.915-.247 2.778s1.036 1.6 1.183 2.471.217 1.761.328 2.648c.111.871.228 1.75.3 2.629s.152 1.774.193 2.651c.038.9.209 1.785.209 2.664 0 .922-1.012 1.574-1.441 2.322-.448.773-.727 1.59-1.5 2.035a4.718 4.718 0 01-2.543.268zm-151.381-9.259c1.278.434 1.5-.836 2.849-.836s1.348.111 2.694.111 1.351.328 2.7.328 1.348-.29 2.7-.29 1.348.532 2.7.532 1.354-.011 2.7-.011 1.346.149 2.7.149 1.348.06 2.7.06 1.351-.114 2.7-.114 1.348-.453 2.7-.453 1.348-.3 2.7-.3 1.351.654 2.7.654 1.348-.673 2.7-.673 1.354-.076 2.7-.076 1.354.16 2.7.16 1.354.024 2.7.024 1.348.393 2.7.393 1.348.328 2.7.328 1.348-.695 2.7-.695 1.354.06 2.7.06 1.356.355 2.7.355 1.351-.41 2.7-.41 1.348-.212 2.694-.212 1.356.681 2.7.681 1.356-.247 2.708-.247 1.348-.092 2.7-.092 1.351-.057 2.7-.057 1.354.407 2.7.407 1.354-.377 2.7-.377 1.351.353 2.7.353 1.346-.412 2.7-.412 1.348.461 2.7.461 1.351-.024 2.7-.024 1.348-.13 2.7-.13 1.348-.16 2.7-.16 1.359-.374 2.713-.374 1.34.418 2.694.418 1.354-.38 2.7-.38 1.354.711 2.7.711 1.351.111 2.7.111 1.348-.657 2.7-.657 1.354.711 2.708.711 1.348-.9 2.7-.9 1.351.331 2.707.331 1.348-.336 2.7-.336 1.351.328 2.7.328 1.351.3 2.7.3 1.354-.136 2.7-.136 1.354-.214 2.7-.214 1.354.185 2.71.185 1.348.336 2.7.336 1.354-.035 2.7-.035 1.356-.16 2.716-.16 1.5.515 2.789.073c-.092-.906-.361-2.032-.5-2.954-.13-.9-.266-1.8-.442-2.71-.179-.882.024-1.883-.2-2.789-.217-.868-.3-1.829-.562-2.713-.25-.865-.583-1.733-.879-2.634-.285-.846-.591-1.736-.914-2.6s-1.134-1.519-1.492-2.374c-.355-.836-.239-1.9-.635-2.746-.388-.808-.955-1.568-1.383-2.4-.418-.8-1.5-1.245-1.967-2.04s-.415-1.888-.914-2.661c-.48-.762-1.058-1.5-1.59-2.252-.513-.751-1.123-1.443-1.685-2.176-.543-.738-.86-1.663-1.449-2.374s-1.3-1.3-1.918-1.991c-.6-.675-1.346-1.243-1.991-1.9-.624-.659-1.028-1.574-1.7-2.2-.651-.632-1.763-.781-2.455-1.389-.7-.627-.543-1.755-.822-2.6s-1.294-1.731-1.1-2.632a6.075 6.075 0 011.424-2.553 5.765 5.765 0 012.485-1.443 19.325 19.325 0 002.561-.445 18.455 18.455 0 002.111-1.5 17.268 17.268 0 002.029-1.541 16.658 16.658 0 002.029-1.62c.559-.643.624-1.647 1.091-2.374s1.31-1.218 1.668-1.994a157.719 157.719 0 011.639-4.943 18.04 18.04 0 00.212-2.6 19.3 19.3 0 00-.057-2.64 18.472 18.472 0 00-.865-2.509 13.109 13.109 0 00-2.151-4.726 18.409 18.409 0 00-1.587-2.062 20.713 20.713 0 00-2.081-1.563c-.654-.567-.931-1.652-1.647-2.119a20.616 20.616 0 00-2.436-1.031 17.388 17.388 0 00-2.374-1.123 17.872 17.872 0 00-2.572-.624 18.637 18.637 0 00-2.637.016c-.871 0-1.679.676-2.523.795s-1.815-.266-2.634-.033-1.37 1.234-2.143 1.584a18.752 18.752 0 00-2.339.993 16.617 16.617 0 00-2.092 1.465 18.7 18.7 0 00-1.82 1.8c-.567.651-1.446 1.08-1.921 1.818a20.262 20.262 0 00-.779 2.515c-.358.792-1.161 1.422-1.4 2.249-.241.808.361 1.823.236 2.683-.122.838-.846 1.628-.846 2.512a18.127 18.127 0 00.133 2.634 18.624 18.624 0 00.955 2.469 5.111 5.111 0 01-.385 2.65c-.214.871-.146 1.964-.806 2.626a5.388 5.388 0 01-2.5 1.21 5.483 5.483 0 01-2.789.2c-.855-.247-1.576-.966-2.444-1.18s-1.875.266-2.751.081c-.86-.187-1.571-1.191-2.452-1.356-.868-.149-1.872.5-2.745.369s-1.75-.2-2.637-.3-1.69-.9-2.575-.971-1.788.041-2.678-.008-1.782.1-2.675.07-1.772.071-2.664.071c-.939 0-1.875-.659-2.8-.629s-1.875.176-2.8.225-1.8.925-2.727 1.007-1.9-.3-2.824-.19-1.839.3-2.756.437-1.872.149-2.781.325-1.807.5-2.71.7-1.78.57-2.672.817-1.761.594-2.642.863c-.906.274-1.88-.209-2.762-.426a5.24 5.24 0 01-2.569-1 5.325 5.325 0 01-1.194-2.534 5.005 5.005 0 01.478-2.618 18.77 18.77 0 00.377-2.775 18.375 18.375 0 00.4-2.765 17.418 17.418 0 00-.515-2.572 17.185 17.185 0 00-.469-2.55 18.169 18.169 0 00-.917-2.431 19.245 19.245 0 00-1.3-2.225 20.764 20.764 0 00-1.207-2.363 21.548 21.548 0 00-2.062-1.644 19.559 19.559 0 00-2.089-1.541 21.091 21.091 0 00-2.14-1.541 17.418 17.418 0 00-2.493-.849 14.438 14.438 0 00-5.187-.855 18.192 18.192 0 00-2.621.315c-.863.119-1.573.887-2.393 1.131s-1.915-.141-2.694.212a23.057 23.057 0 00-2.236 1.411 19.439 19.439 0 00-1.874 1.823 21.889 21.889 0 00-1.935 1.733 19.593 19.593 0 00-1.386 2.195 17.685 17.685 0 00-.909 2.4c-.355.789-1.516 1.28-1.763 2.108s.458 1.872.334 2.724a17.83 17.83 0 00-.429 2.52 17.644 17.644 0 00.07 2.629 17.2 17.2 0 00.893 2.488 18.082 18.082 0 00.686 2.542 18.335 18.335 0 001.473 2.173 17.8 17.8 0 001.715 1.937c.591.651.654 1.856 1.329 2.423a18.01 18.01 0 002.168 1.592 17.433 17.433 0 002.482 1.047 18.942 18.942 0 002.507.933c.909.236 2.021.231 2.653.876a5.553 5.553 0 011.028 2.634 5.453 5.453 0 01.233 2.794 5.565 5.565 0 01-1.717 2.236c-.681.61-1.728.841-2.371 1.46-.665.635-.8 1.8-1.422 2.458s-1.432 1.156-2.029 1.829c-.608.7-.979 1.568-1.544 2.265-.586.711-.977 1.53-1.522 2.26s-1.194 1.375-1.706 2.113c-.518.765-.911 1.579-1.394 2.341s-1.65 1.137-2.1 1.929-.548 1.788-.96 2.588c-.426.819-.8 1.65-1.183 2.461-.391.83-.675 1.7-1.025 2.531-.361.852-1.063 1.546-1.381 2.4s-.827 1.66-1.115 2.509c-.288.89-.068 1.91-.32 2.767-.247.906-.41 1.8-.627 2.659-.217.9-.062 1.864-.236 2.737-.179.9-1.291 1.639-1.424 2.528-.084.89.152 2.312.055 3.207z"/></g></g></g><g data-name="グループ 18579"><g data-name="グループ 18578"><g data-name="グループ 18577"><path data-name="パス 331433" d="M312.836 33.859a1.987 1.987 0 01-1.934 1.991c-.665 0-.665.052-1.337.052s-.667.117-1.34.117-.67-.13-1.337-.13-.67.122-1.34.122-.676-.228-1.343-.228-.675-.038-1.346-.038a1.983 1.983 0 01-1.47-.407 2.037 2.037 0 01-.388-1.479c0-.673-.285-.673-.285-1.335s.1-.673.1-1.351-.1-.673-.1-1.338.1-.673.1-1.346.092-.676.092-1.343-.046-.678-.046-1.34a2.082 2.082 0 01.545-1.47 2.045 2.045 0 011.451-.553c.662 0 .662.114 1.34.114s.667-.016 1.343-.016.665-.049 1.335-.049.67.033 1.343.033.67-.109 1.34-.109.673.005 1.343.005a1.952 1.952 0 011.346.686 1.8 1.8 0 01.507 1.359c0 .662.022.662.022 1.335v1.34c0 .673.157.676.157 1.343s-.176.67-.176 1.335c0 .684.079.681.057 1.356s.021.671.021 1.344z"/></g></g></g><g data-name="グループ 18588"><g data-name="グループ 18584"><g data-name="グループ 18581"><g data-name="グループ 18580"><path data-name="パス 331434" d="M409.406 33.859a2.115 2.115 0 01-.355 1.514 2.229 2.229 0 01-1.508.591c-.673 0-.673-.1-1.34-.1s-.673.1-1.343.1-.67-.176-1.34-.176-.665.008-1.343.008c-.662 0-.662-.051-1.34-.051s-.673-.019-1.343-.019a1.754 1.754 0 01-1.335-.513 1.981 1.981 0 01-.7-1.348c0-.673-.095-.673-.095-1.335s.206-.673.206-1.351-.214-.673-.214-1.337-.022-.673-.022-1.346.049-.676.049-1.343.005-.678.005-1.34a2.111 2.111 0 01.705-1.416 1.871 1.871 0 011.4-.475c.67 0 .67-.217 1.34-.217s.665.019 1.335.019.673.108 1.34.108.673-.122 1.343-.122.673-.065 1.346-.065.667.206 1.346.206a1.982 1.982 0 011.427.518 2.065 2.065 0 01.621 1.443c0 .662.022.662.022 1.335s-.13.667-.13 1.34.117.675.117 1.343-.106.67-.106 1.335c0 .684.174.692.128 1.365a11.372 11.372 0 00-.216 1.329z"/></g></g><g data-name="グループ 18583"><g data-name="グループ 18582"><path data-name="パス 331435" d="M409.406 33.859a2.115 2.115 0 01-.355 1.514 2.229 2.229 0 01-1.508.591c-.673 0-.673-.1-1.34-.1s-.673.1-1.343.1-.67-.176-1.34-.176-.665.008-1.343.008c-.662 0-.662-.051-1.34-.051s-.673-.019-1.343-.019a1.754 1.754 0 01-1.335-.513 1.981 1.981 0 01-.7-1.348c0-.673-.095-.673-.095-1.335s.206-.673.206-1.351-.214-.673-.214-1.337-.022-.673-.022-1.346.049-.676.049-1.343.005-.678.005-1.34a2.111 2.111 0 01.705-1.416 1.871 1.871 0 011.4-.475c.67 0 .67-.217 1.34-.217s.665.019 1.335.019.673.108 1.34.108.673-.122 1.343-.122.673-.065 1.346-.065.667.206 1.346.206a1.982 1.982 0 011.427.518 2.065 2.065 0 01.621 1.443c0 .662.022.662.022 1.335s-.13.667-.13 1.34.117.675.117 1.343-.106.67-.106 1.335c0 .684.174.692.128 1.365a11.372 11.372 0 00-.216 1.329z"/></g></g></g><g data-name="グループ 18587"><g data-name="グループ 18586"><g data-name="グループ 18585"><path data-name="パス 331436" d="M409.406 33.859a2.115 2.115 0 01-.355 1.514 2.229 2.229 0 01-1.508.591c-.673 0-.673-.1-1.34-.1s-.673.1-1.343.1-.67-.176-1.34-.176-.665.008-1.343.008c-.662 0-.662-.051-1.34-.051s-.673-.019-1.343-.019a1.754 1.754 0 01-1.335-.513 1.981 1.981 0 01-.7-1.348c0-.673-.095-.673-.095-1.335s.206-.673.206-1.351-.214-.673-.214-1.337-.022-.673-.022-1.346.049-.676.049-1.343.005-.678.005-1.34a2.111 2.111 0 01.705-1.416 1.871 1.871 0 011.4-.475c.67 0 .67-.217 1.34-.217s.665.019 1.335.019.673.108 1.34.108.673-.122 1.343-.122.673-.065 1.346-.065.667.206 1.346.206a1.982 1.982 0 011.427.518 2.065 2.065 0 01.621 1.443c0 .662.022.662.022 1.335s-.13.667-.13 1.34.117.675.117 1.343-.106.67-.106 1.335c0 .684.174.692.128 1.365a11.372 11.372 0 00-.216 1.329z"/></g></g></g></g></g><g data-name="グループ 18590"><path data-name="パス 331437" d="M260.808 123.586c.491.988.583.6 1.251 1.839.293.545.673 1.172 1.091 1.9.339.586.524 1.335.939 2.013.364.591.591 1.324 1.012 1.975.383.594 1 1.066 1.441 1.7.4.589.776 1.224 1.218 1.84.426.58.9 1.148 1.359 1.742.439.575.719 1.3 1.191 1.88.461.562.982 1.093 1.473 1.658s.974 1.1 1.476 1.649 1.313.779 1.837 1.3.768 1.318 1.308 1.823 1 1.107 1.56 1.592 1.359.667 1.943 1.12 1.156.909 1.755 1.338 1.327.654 1.951 1.047 1.139.955 1.785 1.313 1.316.651 1.978.971 1.4.464 2.081.732 1.278.779 1.986 1 1.346.695 2.07.863 1.457.323 2.189.434 1.522-.382 2.263-.331 1.449.453 2.192.445 1.476-.022 2.219-.092c.727-.06 1.454-.236 2.195-.366.713-.119 1.424-.336 2.154-.515.757-.187 1.454-.453 2.135-.684.743-.247 1.563-.212 2.216-.5a18.349 18.349 0 001.948-1.156 15.5 15.5 0 001.85-1.294 12.759 12.759 0 001.641-1.568 11.721 11.721 0 001.34-1.839 11.947 11.947 0 00.828-2.119 13.472 13.472 0 00.613-2.2 15.121 15.121 0 00.1-2.279c-.019-.738-.627-1.432-.751-2.181a20.024 20.024 0 00-.41-2.176c-.2-.711-.038-1.552-.309-2.257s-.6-1.375-.925-2.056-.657-1.356-1.028-2-1.177-1.023-1.593-1.644-.48-1.495-.931-2.086-1.232-.933-1.717-1.489-.749-1.362-1.27-1.88c-.54-.532-1.031-1.123-1.584-1.6-.586-.494-1.24-.9-1.834-1.329a19.12 19.12 0 00-2.094-.873 16.222 16.222 0 00-1.94-1.091 11.07 11.07 0 00-2.149-.507 7.425 7.425 0 00-2.162-.108 6.025 6.025 0 00-2.2.274 16.918 16.918 0 01-2.062.781 14.721 14.721 0 01-2.111.605 13.623 13.623 0 01-2.17.445 11.9 11.9 0 01-2.2-.212 11.071 11.071 0 01-2.094-.681 13.6 13.6 0 01-2.13-.667 13.974 13.974 0 01-1.826-1.289 12.448 12.448 0 01-1.354-1.793c-.893-.979-1.21-.483-1.726-1.457-.526-1-.128-1.2-.635-2.216s-.453-1.047-.96-2.059-.643-.952-1.15-1.972-.814-.871-1.3-1.9c-.475-1 .109-.952-.141-2.263a12.9 12.9 0 01-.448-2.149 13.065 13.065 0 01-.146-2.23 13.259 13.259 0 01.64-2.135 11.364 11.364 0 01.562-2.181 12.548 12.548 0 011.226-1.9 13.283 13.283 0 011.565-1.628 17.777 17.777 0 011.975-1.091 16.969 16.969 0 011.82-1.289 6.1 6.1 0 001.983-1.115 8.771 8.771 0 00.887-2.1 11.487 11.487 0 001.121-1.972 16.6 16.6 0 00.445-2.214 21.855 21.855 0 00-.027-2.26c.019-.724-.068-1.47-.114-2.233-.052-.732-.3-1.449-.4-2.2-.1-.732.117-1.527-.038-2.268-.157-.722-.323-1.468-.524-2.189s-.844-1.294-1.093-2-.046-1.584-.345-2.268-1.017-1.183-1.359-1.842-.646-1.345-1.042-1.967c-.407-.643-.781-1.289-1.232-1.869a20.14 20.14 0 00-1.373-1.782 16.986 16.986 0 00-1.88-1.234 15 15 0 00-1.685-1.473 12.831 12.831 0 00-2.055-.861 11.246 11.246 0 00-2.186-.345 10.481 10.481 0 00-2.187-.03 11.955 11.955 0 00-2.211.084 14.719 14.719 0 00-2.157.589 18.518 18.518 0 00-2.029.966c-.619.345-1.3.678-1.948 1.121-.586.41-1.245.806-1.848 1.3-.583.477-.914 1.221-1.441 1.725s-1.031 1.05-1.514 1.59c-.5.556-1.063 1.039-1.508 1.617s-.762 1.27-1.153 1.885-.694 1.289-1.036 1.934-.635 1.313-.93 1.983-1.1 1.158-1.34 1.853-.182 1.5-.374 2.211-.347 1.432-.491 2.154-.106 1.473-.212 2.2-.469 1.432-.529 2.165.288 1.489.271 2.225-.2 1.47-.185 2.206-.236 1.487-.19 2.225.155 1.476.233 2.206.106 1.484.212 2.208.532 1.419.665 2.138-.038 1.519.117 2.23c.157.733.383 1.446.553 2.151.185.727.285 1.476.486 2.17.2.73.779 1.332 1 2.021.225.727.591 1.378.819 2.059.25.724.353 1.465.6 2.127.271.73.665 1.365.922 2.013.29.738.117 1.609.385 2.227.331.776.806 1.389 1.069 1.953.586 1.259.48.985.977 1.956s.716.86 1.2 1.829.578.933 1.063 1.91.187 1.129.673 2.108.7.876 1.169 1.869.277 1.08.76 2.067z" fill="#ed8c00"/><path data-name="パス 331438" d="M299.951 160.425c-.79 0-1.59-.035-2.363-.09l-.507-.03c-.708-.049-1.427-.1-2.119-.2a9.9 9.9 0 01-2.29-.694 3 3 0 00-.309-.122 10.758 10.758 0 01-1.9-.681c-.141-.06-.271-.122-.412-.174-.2-.057-.4-.111-.6-.166a15.131 15.131 0 01-1.828-.564c-.209-.084-.418-.157-.619-.228a17.091 17.091 0 01-1.75-.7l-.545-.25c-.581-.266-1.156-.529-1.72-.841a33.162 33.162 0 01-1.731-1.05l-.4-.255a14.467 14.467 0 00-.594-.35c-.515-.3-1.028-.608-1.511-.947l-.307-.217c-.567-.4-1.131-.8-1.674-1.224a22.928 22.928 0 01-1.313-1.129c-.174-.157-.347-.32-.532-.472a10.855 10.855 0 01-1.432-1.546c-.079-.1-.155-.2-.239-.293-.068-.054-.2-.141-.32-.23a11.932 11.932 0 01-1.5-1.243c-.391-.391-.752-.8-1.118-1.2l-.491-.551a4.887 4.887 0 00-.271-.206 11.317 11.317 0 01-1.506-1.4 14.035 14.035 0 01-1.091-1.487 5.086 5.086 0 00-.3-.434c-.1-.119-.231-.231-.35-.347a12.358 12.358 0 01-1.264-1.373 8.576 8.576 0 01-1.232-2.377l-.005-.019c-.089-.106-.176-.217-.269-.32-.3-.372-.6-.738-.868-1.12l-.163-.149a8.756 8.756 0 01-1.544-1.75c-.453-.689-.857-1.357-1.243-1.986a9.043 9.043 0 01-.974-2.333l-.144-.3c-.347-.6-.654-1.139-.909-1.617a7.364 7.364 0 01-1.37-1.975 7.512 7.512 0 01-.719-2.311 8.21 8.21 0 01-1.091-1.65 18.34 18.34 0 01-.581-1.27c-.081-.179-.157-.363-.336-.716l-.963-1.953a8.759 8.759 0 01-.629-1.582 7.178 7.178 0 01-1.644-2.32 8.718 8.718 0 01-.627-2.078 3.394 3.394 0 00-.073-.345 3.4 3.4 0 01-.182-.3 15.764 15.764 0 01-.811-1.663 11.2 11.2 0 01-.526-1.831 4.506 4.506 0 00-.1-.451c-.165-.442-.312-.917-.464-1.4-.062-.206-.13-.418-.2-.627l-.106-.174a9.2 9.2 0 01-1-2.121 8.523 8.523 0 01-.347-2.45l-.027-.052a10.229 10.229 0 01-.806-2.067 18.931 18.931 0 01-.306-1.625c-.035-.233-.068-.469-.12-.7a4.188 4.188 0 00-.144-.442 12.367 12.367 0 01-.515-1.842 10.318 10.318 0 01-.122-2.176c0-.117.011-.228 0-.345a21.142 21.142 0 01-.146-1.527c-.019-.171-.024-.344-.041-.515l-.049-.136a8.716 8.716 0 01-.57-2.458c-.014-.193-.046-.391-.076-.589a15.628 15.628 0 01-.182-1.842 9.453 9.453 0 01.288-2.344c.008-.043.019-.081.027-.125l-.019-.122a9.4 9.4 0 01-.146-2.352c.049-.6.146-1.21.241-1.807l.1-.67a12.811 12.811 0 01.453-1.943c.049-.176.108-.35.147-.526a10.7 10.7 0 01.632-2c.054-.144.111-.277.155-.418l.149-.589c.16-.629.32-1.259.537-1.872.282-.8.57-1.6.914-2.393a14.288 14.288 0 01.966-1.766c.1-.165.206-.326.3-.5.407-.76.854-1.481 1.332-2.217l.263-.412c.369-.591.738-1.172 1.172-1.736a15.659 15.659 0 011.291-1.465c.076-.073.149-.152.225-.228l.008-.024a7.958 7.958 0 011.666-2.387l.152-.144c.562-.54 1.15-1.091 1.771-1.6.659-.54 1.34-1.02 1.991-1.468a8.339 8.339 0 012.623-1.2 7.142 7.142 0 012.4-1.641 31.056 31.056 0 005.982-1.251 9.907 9.907 0 012.77.277c.133.027.266.057.4.073s.3.033.445.043a10.2 10.2 0 012.71.5 16.428 16.428 0 012.824 1.337 19.286 19.286 0 012.485 1.666 17.475 17.475 0 011.78 1.693l.559.581a19.273 19.273 0 011.614 1.8 28.403 28.403 0 011.552 2.208c.111.176.228.342.347.513a15.207 15.207 0 011.088 1.72 18.227 18.227 0 01.789 1.807c.079.2.152.4.242.6a8.8 8.8 0 01.6 2.287 7.322 7.322 0 011.3 2.5 9.513 9.513 0 01.326 2.32c.008.119.008.236.019.353l.128.526c.152.629.3 1.256.385 1.888.092.673.13 1.348.166 2.016l.03.578a12.666 12.666 0 01-.073 2.135c-.019.171-.038.339-.043.51.005-.041.024.079.043.187a8.788 8.788 0 01.1 2.574 9.168 9.168 0 01-.765 2.588l-.114.29a16.1 16.1 0 01-1.036 2.838c-.054.119-.1.239-.144.355a8.579 8.579 0 01-1.6 2.805 11.114 11.114 0 01-3.264 2.458 13.08 13.08 0 01-1.517.616c-.062.022-.122.038-.171.057-.136.114-.312.282-.453.415a26.28 26.28 0 01-.556.524c-.269.239-.551.464-.825.689l-.054.038a8.667 8.667 0 01-.594 1.487 12.442 12.442 0 01-.67 1.118c-.043.07-.09.141-.133.212-.068.214-.141.429-.214.64l-.09.244a8.543 8.543 0 01.2 2.973 7.54 7.54 0 01.583 1.025c.372.781.442.922.708 1.451l1.278 2.52a7.177 7.177 0 01.714 2.363 7.43 7.43 0 011.164 1.647c.19.374.323.662.423.9a10.941 10.941 0 001.123 1.007.884.884 0 01.271.111c.342.168.684.345 1.023.543a8.335 8.335 0 011.2.86 11.139 11.139 0 011.2.117c.358.06.719.141 1.085.228.117.03.239.062.361.084l.293-.005a7.848 7.848 0 00.99-.054 10.012 10.012 0 001.237-.366l.138-.1a11.192 11.192 0 011.5-.931 10.681 10.681 0 013.912-1.226 7.546 7.546 0 013.505.632 7.778 7.778 0 013.182.513 20.73 20.73 0 012.545 1.289 10.463 10.463 0 011.9 1.427c.111.095.214.2.334.29.052.03.16.081.269.141a10.337 10.337 0 011.989 1.289 8.351 8.351 0 011.693 2.059l.027.041c.027.019.057.038.084.06a9.438 9.438 0 011.815 1.56c.133.154.29.3.437.456a16.587 16.587 0 011.291 1.443 30.5 30.5 0 011.272 1.82l.57.833c.38.532.746 1.066 1.063 1.62a13.28 13.28 0 01.849 1.866c.073.176.136.353.212.518a8.527 8.527 0 01.713 2.452 7.878 7.878 0 011.272 2.512 26.932 26.932 0 01.627 2.732 12.145 12.145 0 01.111 2.368c0 .174-.008.345 0 .513a16 16 0 01-.184 2.651l-.046.336c-.014.138-.019.285-.027.426a10.055 10.055 0 01-.41 2.672 8.463 8.463 0 01-1.489 2.659l-.176.231a14.585 14.585 0 01-1.679 2.528l-.239.29a13.652 13.652 0 01-1.855 1.957c-.1.089-.187.185-.279.274a10.621 10.621 0 01-2.021 1.652 22.948 22.948 0 01-2.547 1.291 11.463 11.463 0 01-2.067.667c-.182.046-.364.087-.545.149a13.285 13.285 0 01-1.948.464c-.2.035-.412.068-.616.122s-.412.111-.61.176a15.929 15.929 0 01-1.883.469c-.868.152-1.731.239-2.585.312a1.976 1.976 0 01-.233.068 9.454 9.454 0 01-2.341.355zm-3.345-9.94c.361.046.719.065 1.077.087l.594.038c.537.035 1.1.065 1.652.065.079-.019.155-.041.225-.06a11.022 11.022 0 011.763-.326c.605-.057 1.21-.111 1.818-.212a5.266 5.266 0 00.678-.19c.366-.109.724-.217 1.1-.312.412-.1.827-.179 1.232-.252a4.787 4.787 0 00.589-.117c.423-.144.857-.255 1.291-.363a3.917 3.917 0 00.483-.13 13.3 13.3 0 001.419-.7 1.1 1.1 0 01.2-.222c.3-.3.6-.589.909-.846a5.912 5.912 0 00.564-.643l.326-.393a6.746 6.746 0 00.665-1.055 9.525 9.525 0 01.814-1.229c.016-.393.044-.79.092-1.18l.052-.407a7.522 7.522 0 00.106-1.069c-.008-.331 0-.676.005-1.023a5.822 5.822 0 000-.616 14.11 14.11 0 00-.266-1.194 8.414 8.414 0 01-1.126-2 9.987 9.987 0 01-.491-1.956l-.024-.149a24.372 24.372 0 01-.377-.928 4.954 4.954 0 00-.228-.553c-.155-.271-.355-.54-.543-.811-.179-.252-.361-.5-.535-.762l-.212-.323c-.285-.429-.573-.863-.879-1.272a6.937 6.937 0 00-.515-.545c-.233-.239-.467-.477-.689-.724a3.744 3.744 0 00-.2-.141 10.553 10.553 0 01-1.441-1.167 9.106 9.106 0 01-1.262-1.62l-.03-.016a11.915 11.915 0 01-1.411-.846 13.212 13.212 0 01-1.175-.966c-.1-.09-.2-.185-.3-.266-.263-.144-.572-.315-.846-.456a8.941 8.941 0 01-1.78-.138 8.023 8.023 0 01-1.183-.326l-.038.019a6.394 6.394 0 00-.247.176 9.1 9.1 0 01-2.222 1.226 20.543 20.543 0 01-2.854.833 14.58 14.58 0 01-2.74.247l-.342.005a10.1 10.1 0 01-2.762-.35c-.125-.03-.247-.062-.366-.084-.1-.014-.228-.014-.353-.019a8.982 8.982 0 01-2.775-.48 8.326 8.326 0 01-2.651-1.655l-.117-.1c-.111-.06-.225-.114-.334-.168a10.917 10.917 0 01-2.1-1.286 20.775 20.775 0 01-2.168-2.008 7.839 7.839 0 01-1.714-2.632 7.44 7.44 0 01-1.6-2.162 6.857 6.857 0 01-.749-2.821l-1.006-1.98c-.258-.515-.358-.711-.64-1.3a6.657 6.657 0 01-1.682-3.475 8.145 8.145 0 010-2.727c.008-.062.019-.122.03-.19l-.022-.081a8.735 8.735 0 01-.228-2.981 11.905 11.905 0 01.638-2.512c.06-.165.119-.331.171-.5a9.354 9.354 0 011.2-2.444c.046-.073.1-.144.147-.214l.027-.106a8.156 8.156 0 011.405-2.887 10.883 10.883 0 011.837-1.763c.141-.114.279-.222.415-.342l.336-.309a13.032 13.032 0 011.921-1.593 9.445 9.445 0 012.221-1.038c.122-.043.25-.079.369-.133a1.045 1.045 0 00.122-.07c.141-.355.282-.716.453-1.066a6.644 6.644 0 00.421-1.2 10.424 10.424 0 01.526-1.454 9.764 9.764 0 01-.144-1.774c.008-.412.046-.836.087-1.261a5.593 5.593 0 00.049-.567l-.041-.724c-.019-.374-.033-.751-.081-1.126-.046-.336-.133-.662-.212-.99-.068-.29-.141-.583-.2-.876a10.7 10.7 0 01-.2-1.617 7.528 7.528 0 01-1.082-1.98 9.748 9.748 0 01-.45-1.97l-.024-.179c-.1-.242-.2-.478-.282-.716-.106-.266-.2-.537-.328-.787a5.728 5.728 0 00-.429-.64c-.212-.3-.421-.6-.61-.9a18.8 18.8 0 00-1.02-1.454 10.016 10.016 0 00-.868-.944l-.678-.7a7.656 7.656 0 00-.757-.754 9.248 9.248 0 00-1.229-.822 9 9 0 00-1.115-.575c-.119-.014-.241-.016-.361-.03-.35-.027-.7-.054-1.047-.1s-.714-.122-1.069-.2a8.7 8.7 0 01-1.487.5 7.211 7.211 0 01-1.495.19 7.349 7.349 0 01-1.346.966 8.5 8.5 0 01-2.089.784c-.383.263-.773.537-1.15.844s-.708.624-1.042.936a8.134 8.134 0 01-1.275 1.972c-.22.244-.45.486-.684.722a6.537 6.537 0 00-.543.591 11.546 11.546 0 00-.659 1l-.32.507a20.602 20.602 0 00-.939 1.544c-.193.361-.4.708-.613 1.044a5.28 5.28 0 00-.312.529c-.25.564-.45 1.137-.654 1.717-.111.328-.187.656-.269.979-.068.277-.136.543-.209.817a13.864 13.864 0 01-.5 1.438 4.036 4.036 0 00-.155.415c-.076.385-.2.83-.336 1.272-.049.182-.111.355-.141.535l-.138.9c-.049.277-.1.551-.13.833.008.065.022.13.033.2a8.881 8.881 0 01-.119 3.945l-.038.174c.016.149.046.3.065.445.054.353.1.7.133 1.055l.049.119a9.437 9.437 0 01.537 2.165c.038.358.065.713.1 1.066.022.317.038.635.084.947a10.8 10.8 0 01.081 1.918c0 .076-.005.155-.005.231.03.1.076.223.117.342a14.725 14.725 0 01.456 1.541c.087.429.16.855.225 1.28.033.214.062.426.1.632.038.079.076.149.114.228a10.167 10.167 0 01.732 1.815 9.259 9.259 0 01.3 2.17 9.443 9.443 0 01.876 1.818c.122.35.225.7.339 1.045.095.323.193.632.3.936a12.077 12.077 0 01.48 1.742c.03.13.051.26.089.38s.168.312.274.5c.233.431.45.844.632 1.259a9.585 9.585 0 01.545 1.744 6.515 6.515 0 011.375 1.858 8.74 8.74 0 01.77 2.1l.96 1.942c.312.624.448.947.586 1.264.06.144.119.288.225.515a7.3 7.3 0 011.508 2.29 7.8 7.8 0 01.567 1.978 9.355 9.355 0 011.082 1.622c.214.412.477.857.765 1.365l.25.429a8.828 8.828 0 01.806 2l.052.176c.268.429.545.882.841 1.346l.1.092a9.262 9.262 0 011.506 1.668c.133.2.3.377.453.564.279.347.564.694.833 1.063a8.152 8.152 0 011.072 2.116l.122.117a14.262 14.262 0 011.129 1.2c.315.393.6.811.884 1.234a3.993 3.993 0 00.317.458c.008-.019.1.068.209.155a10.885 10.885 0 011.348 1.207c.214.228.426.469.638.705.239.269.48.545.741.806.079.068.2.152.328.241a13.022 13.022 0 011.261 1.02 11.173 11.173 0 011.18 1.308 3.737 3.737 0 00.247.3c.157.133.4.353.654.578s.491.456.752.662c.415.318.849.624 1.286.931l.326.225a9.251 9.251 0 00.792.488c.3.174.589.345.882.532l.437.274c.4.255.8.51 1.215.741.325.185.686.342 1.039.5l.678.315c.271.127.548.214.833.317.312.111.627.222.936.345a5.4 5.4 0 00.716.2c.361.095.713.19 1.074.3.464.149.914.336 1.373.535a4.056 4.056 0 00.415.174 10.5 10.5 0 011.625.553c.082.026.149.058.22.083zm-.168-.022zm-33.887-14.728l.005.011zm49.929-1.424zm-53.642-4.52l.011.019zm49.416-1.812l.008.008zm-43.179-6.495l-4.379 2.151 4.381-2.141zm24.986-6.557l-.038.005zm-10.986-16.609zm.13-.339zm-26.4-11.969v.005zm27.3-1.913zm-1.02-16.378l.005.005zm-15.946-6.679l-.016.008zm-11.085-2.518l-.005.005z"/></g></g></g></svg>