<svg xmlns="http://www.w3.org/2000/svg" width="301.283" height="115.698"><g data-name="グループ 18892"><g data-name="グループ 18566"><g data-name="グループ 18564"><g data-name="グループ 18545"><g data-name="グループ 18542"><g data-name="グループ 18541"><path data-name="パス 331419" d="M136.506 61.321c0 25.66-25.134 43.313-56.133 43.313S24.242 86.98 24.242 61.321 38.404 3.957 80.373 3.957s56.133 31.708 56.133 57.364z" fill="#fff"/></g></g><g data-name="グループ 18544"><g data-name="グループ 18543"><path data-name="パス 331420" d="M80.373 108.226c-.647 0-1.3.326-1.943.317s-1.3-.084-1.941-.113-1.281-.307-1.922-.354-1.263-.383-1.9-.44-1.279-.131-1.916-.213-1.349.34-1.984.252-1.265-.313-1.9-.416-1.314 0-1.947-.119-1.247-.4-1.873-.544-1.185-.608-1.808-.764-1.218-.44-1.838-.61-1.337-.014-1.949-.207-1.294-.223-1.9-.426-1.249-.368-1.849-.59-1.116-.714-1.717-.954-1.284-.289-1.871-.549-1.2-.514-1.775-.788-1.179-.559-1.75-.847-1-.874-1.57-1.187-1.318-.307-1.871-.637-.964-.907-1.507-1.257-.852-1.034-1.382-1.4-1.279-.42-1.793-.807-.9-.923-1.39-1.324-.942-.85-1.417-1.267-.856-.944-1.314-1.38-1.294-.5-1.74-.948-.991-.833-1.417-1.306-.768-1.034-1.171-1.521-.624-1.144-1.007-1.65-1.007-.85-1.367-1.368-.456-1.239-.79-1.777-.688-1.073-1-1.627-.608-1.114-.9-1.677-.647-1.11-.907-1.687-.44-1.2-.671-1.791-.586-1.144-.792-1.748-.375-1.224-.551-1.834.016-1.314-.127-1.937-.491-1.187-.61-1.814-.367-1.23-.458-1.863-.209-1.261-.266-1.9.37-1.294.34-1.932-.491-1.257-.491-1.894c0-.62.156-1.281.174-1.971.02-.629-.268-1.3-.235-1.99.037-.637.737-1.247.788-1.928.057-.633-.233-1.32-.162-1.99.068-.637.477-1.247.565-1.918.084-.633 0-1.31.108-1.971.1-.637.08-1.31.2-1.967.119-.637.133-1.308.274-1.961.135-.633.757-1.157.917-1.81.156-.631.237-1.281.412-1.922.174-.624-.121-1.4.076-2.033s.686-1.157.9-1.781.53-1.2.766-1.824.278-1.294.528-1.91c.256-.6.843-1.058 1.116-1.662s.039-1.433.33-2.027 1.05-.936 1.363-1.523.281-1.337.612-1.914c.328-.561.936-.968 1.286-1.525s.463-1.267.839-1.816.9-.974 1.288-1.507.931-.935 1.341-1.455.532-1.247.954-1.744.676-1.153 1.12-1.634 1.054-.809 1.513-1.267 1.046-.8 1.523-1.243 1.019-.817 1.513-1.243.968-.868 1.478-1.271 1.028-.79 1.558-1.177 1.134-.643 1.677-1.007.809-1.144 1.365-1.488 1.12-.686 1.687-1.007 1.361-.231 1.937-.534 1.185-.524 1.777-.807 1.089-.733 1.687-.993 1.111-.723 1.72-.964 1.327-.16 1.947-.383 1.1-.788 1.728-.987 1.218-.506 1.849-.686 1.365.072 2-.088 1.177-.7 1.816-.837 1.386.3 2.031.18 1.271-.26 1.916-.36 1.226-.63 1.879-.71 1.284-.244 1.937-.311 1.318.057 1.973 0 1.316.26 1.973.227 1.29-.311 1.945-.33 1.3-.256 1.959-.256 1.308.293 1.957.313 1.3.283 1.943.317 1.322-.2 1.967-.151 1.308.08 1.953.141 1.329-.051 1.971.029 1.21.78 1.853.878 1.4-.458 2.039-.34 1.171.827 1.8.964 1.4-.217 2.023-.061 1.263.373 1.885.547 1.267.36 1.885.553 1.194.567 1.806.784 1.138.671 1.742.913 1.259.364 1.853.618 1.263.383 1.853.663 1.282.364 1.857.667.964.968 1.531 1.29.978.892 1.531 1.237 1.226.491 1.767.854 1.04.776 1.57 1.159 1.333.407 1.842.811.919.95 1.414 1.376.723 1.148 1.2 1.591 1.154.672 1.617 1.14.921.921 1.361 1.4.6 1.2 1.024 1.7 1.085.79 1.492 1.3.7 1.13 1.079 1.658.68 1.13 1.05 1.674.741 1.083 1.091 1.636.526 1.218.85 1.785 1.157.866 1.466 1.441.283 1.343.571 1.93.6 1.171.874 1.767.647 1.157.9 1.758.633 1.171.866 1.787.477 1.238.69 1.851c.217.629-.088 1.417.106 2.041s.438 1.24.612 1.863c.18.647.473 1.241.63 1.871.16.651.176 1.318.311 1.957s.606 1.224.727 1.861c.123.657.223 1.308.332 1.947.1.661.26 1.3.344 1.947.09.665.147 1.322.217 1.961.072.671.123 1.331.176 1.971.051.674.3 1.324.334 1.955.035.686.039 1.353.057 1.98.02.7-.385 1.357-.385 1.977 0 .637.248 1.281.221 1.914s-.473 1.238-.53 1.871.192 1.3.1 1.928-.36 1.228-.477 1.852-.131 1.273-.28 1.887-.373 1.214-.547 1.828-.426 1.193-.633 1.8-.25 1.257-.485 1.851-.608 1.116-.872 1.7-.467 1.183-.759 1.754-.669 1.077-.985 1.631-.3 1.3-.637 1.838-.612 1.14-.974 1.664-1.284.637-1.675 1.144-.549 1.177-.956 1.668-.69 1.083-1.116 1.554-.891.917-1.333 1.371-.954.85-1.419 1.29-.714 1.11-1.193 1.531-1.044.753-1.541 1.153-1.03.753-1.541 1.14-1.234.5-1.765.864-1.013.8-1.556 1.153-.923.964-1.48 1.294-1.4.147-1.965.459-1.075.708-1.65 1.007-1.038.8-1.625 1.081-1.06.8-1.65 1.064-1.423-.053-2.019.19-1.062.817-1.672 1.038-1.351.039-1.965.246-1.095.79-1.716.977-1.294.162-1.916.332-1.259.274-1.885.43-1.138.8-1.773.94-1.359-.186-1.992-.066-1.218.491-1.859.6-1.312-.033-1.951.061-1.286.086-1.926.16-1.279.119-1.926.18-1.245.534-1.893.577-1.294.029-1.943.057-1.286.166-1.937.184-1.286-.285-1.934-.285zm0-100.678c-.647 0-1.286.344-1.918.358-.649.02-1.286 0-1.92.033s-1.3-.164-1.932-.113c-.651.053-1.32-.174-1.951-.1-.647.07-1.292.143-1.922.233s-1.2.68-1.828.788-1.288.113-1.912.24-1.206.493-1.824.643-1.283.166-1.9.336-1.331.043-1.937.24-1.277.289-1.871.506c-.61.221-1.089.78-1.677 1.021s-1.116.651-1.7.917-1.132.594-1.7.884-1.269.344-1.824.657-1 .827-1.543 1.161-1.069.7-1.6 1.06-1.034.737-1.55 1.12-1.21.534-1.7.94-.735 1.11-1.212 1.535-1.128.663-1.586 1.107-1.2.637-1.634 1.1-.583 1.214-1.007 1.7-.972.864-1.37 1.361-.837.987-1.214 1.5-.86.978-1.22 1.511-.25 1.367-.587 1.91-.53 1.167-.841 1.724-.71 1.064-1 1.634-.786 1.046-1.052 1.621-.256 1.286-.508 1.877-.778 1.067-1.009 1.664-.42 1.21-.633 1.82-.411 1.214-.6 1.824-.276 1.251-.448 1.871-.4 1.224-.549 1.842-.151 1.281-.283 1.906-.27 1.251-.383 1.881-.571 1.214-.667 1.847.041 1.3-.031 1.937.014 1.29-.043 1.928-.055 1.277-.09 1.918-.54 1.263-.555 1.9.422 1.294.422 1.933c0 .657-.137 1.312-.1 1.955s.407 1.273.477 1.92-.485 1.388-.375 2.031.585 1.224.731 1.861-.006 1.363.182 1.986.565 1.2.786 1.818.6 1.173.86 1.767.643 1.134.94 1.72.18 1.39.51 1.957.757 1.087 1.12 1.634 1.144.784 1.537 1.314.547 1.22.968 1.724.77 1.064 1.218 1.546 1.044.807 1.513 1.267.7 1.167 1.189 1.605 1.349.43 1.859.847.7 1.224 1.226 1.617c.5.377 1.251.424 1.773.788s.878.966 1.412 1.306 1.226.414 1.777.737 1 .78 1.56 1.081 1.042.751 1.615 1.03 1.294.213 1.871.473 1.247.278 1.834.514 1.087.673 1.681.89 1.13.59 1.73.788 1.177.479 1.787.663 1.222.317 1.836.481 1.216.336 1.832.483 1.2.43 1.828.563 1.333-.246 1.957-.133 1.234.217 1.865.311 1.183.643 1.81.723 1.253.223 1.887.284 1.279-.084 1.908-.037 1.277-.147 1.908-.113 1.249.377 1.885.391 1.267-.364 1.9-.364 1.261-.137 1.891-.151 1.279.387 1.908.354 1.24-.471 1.863-.52 1.314.473 1.941.413 1.263-.176 1.887-.256 1.193-.6 1.818-.7 1.226-.283 1.848-.4 1.271-.064 1.887-.194 1.316.072 1.928-.074 1.167-.559 1.777-.723 1.153-.567 1.754-.747 1.294-.1 1.889-.3 1.286-.18 1.877-.4 1.087-.7 1.674-.936 1.157-.51 1.728-.77 1.069-.7 1.634-.974 1.413-.023 1.967-.321.786-1.2 1.329-1.517 1.394-.143 1.928-.477.776-1.116 1.3-1.474 1.06-.686 1.562-1.064c.528-.393 1.03-.8 1.529-1.21s1.116-.714 1.6-1.144 1.136-.714 1.6-1.167.831-1.03 1.275-1.507.751-1.083 1.163-1.584.63-1.157 1.021-1.677 1.085-.827 1.445-1.37.952-.964 1.281-1.527.432-1.265.725-1.848.614-1.161.876-1.761.055-1.38.278-1.994.575-1.167.761-1.8.723-1.157.874-1.791-.023-1.337.088-1.984.186-1.286.258-1.937.485-1.271.526-1.924-.272-1.318-.272-1.975c0-.639.131-1.281.111-1.924s.063-1.29.025-1.933-.1-1.281-.154-1.924.072-1.3 0-1.941-.727-1.2-.817-1.834.17-1.327.061-1.961-.266-1.257-.4-1.887-.389-1.228-.538-1.855-.453-1.206-.629-1.824-.358-1.224-.553-1.84.119-1.388-.088-1.994-.493-1.2-.721-1.8-.592-1.148-.847-1.744-.389-1.234-.661-1.818-.86-1.013-1.152-1.584-.585-1.14-.9-1.7-.692-1.077-1.028-1.627-.661-1.1-1.021-1.63-.714-1.058-1.087-1.578-.925-.9-1.326-1.4-.782-1-1.2-1.488-.542-1.234-.983-1.7-1.077-.743-1.535-1.191-.657-1.177-1.14-1.607-1.181-.6-1.679-1.007-.9-.936-1.415-1.32-1.107-.657-1.642-1.021-1.028-.764-1.576-1.1-1.069-.719-1.63-1.03-1.214-.459-1.791-.747-1.083-.7-1.672-.964-1.2-.459-1.8-.7c-.585-.241-1.151-.563-1.763-.78s-1.331-.051-1.943-.25-1.239-.28-1.863-.454-1.06-.993-1.693-1.144c-.616-.147-1.308-.014-1.947-.147-.618-.127-1.283-.076-1.918-.19s-1.253-.235-1.892-.325-1.259-.242-1.9-.313-1.294.2-1.941.151-1.261-.2-1.91-.235c-.633-.033-1.269-.106-1.918-.123-.639-.025-1.277-.289-1.93-.289z"/></g></g></g><g data-name="グループ 18548"><g data-name="グループ 18547"><g data-name="グループ 18546"><path data-name="パス 331421" d="M49.97 59.628a1.453 1.453 0 01-.417 1.026 1.473 1.473 0 01-1.03.424c-.481 0-.481.029-.964.029s-.481-.023-.964-.023-.477.047-.96.047-.481-.01-.964-.01-.483-.117-.964-.117-.485.07-.968.07a1.5 1.5 0 01-1.06-.393 1.552 1.552 0 01-.454-1.054c0-.481.151-.481.151-.964s-.141-.481-.141-.964.047-.477.047-.96-.1-.481-.1-.964.213-.487.213-.968-.111-.483-.111-.964a1.366 1.366 0 01.5-.956 1.321 1.321 0 01.952-.453c.481 0 .481-.041.964-.041s.479-.039.964-.039.477.152.96.152.481-.029.964-.029.483-.16.968-.16.483.1.964.1a1.367 1.367 0 01.987.444 1.407 1.407 0 01.473.983c0 .481-.113.481-.113.964s.184.481.184.964-.17.477-.17.96.133.481.133.964-.1.481-.1.964.056.487.056.968z"/></g></g></g><g data-name="グループ 18552"><g data-name="グループ 18551"><g data-name="グループ 18550"><g data-name="グループ 18549"><path data-name="パス 331422" d="M119.441 59.628a1.541 1.541 0 01-.344 1.083 1.608 1.608 0 01-1.083.44c-.483 0-.483-.08-.962-.08s-.483-.09-.964-.09-.483-.006-.966-.006-.479.16-.96.16-.483-.037-.97-.037-.481.07-.968.07a1.579 1.579 0 01-1.054-.481 1.459 1.459 0 01-.336-1.06c0-.481.041-.481.041-.964s-.111-.481-.111-.964-.053-.477-.053-.96-.024-.481-.024-.964.09-.487.09-.968-.07-.483-.07-.964a1.532 1.532 0 011.517-1.533c.483 0 .483.106.964.106s.481-.129.964-.129.481.09.964.09.481.123.964.123.483-.123.964-.123.485.063.97.063a1.355 1.355 0 01.981.424 1.308 1.308 0 01.36.979c0 .481.172.481.172.964s.049.481.049.964-.037.477-.037.96-.074.481-.074.964.1.487.094.968-.118.484-.118.965z"/></g></g></g></g><g data-name="グループ 18563"><g data-name="グループ 18557"><g data-name="グループ 18554"><g data-name="グループ 18553"><path data-name="パス 331423" d="M97.557 66.778c0 3.824-7.693 6.919-17.183 6.919s-17.18-3.097-17.18-6.919 7.7-6.917 17.181-6.917 17.182 3.099 17.182 6.917z" fill="#ed8c00"/></g></g><g data-name="グループ 18556"><g data-name="グループ 18555"><path data-name="パス 331424" d="M80.374 77.034c-.653 0-1.294-.02-1.951-.049s-1.341.436-1.99.379-1.277-.45-1.924-.534-1.257-.413-1.894-.53c-.653-.117-1.337.01-1.967-.147-.647-.156-1.394.057-2.01-.133-.635-.2-1.2-.633-1.789-.874a18.881 18.881 0 01-1.852-.714 14.968 14.968 0 01-1.613-1.161 11.612 11.612 0 01-1.505-1.263 8.237 8.237 0 01-1.079-1.621 6.4 6.4 0 01-.817-1.72 6.521 6.521 0 01-.274-1.89 7.01 7.01 0 01.061-1.951 7.386 7.386 0 01.592-1.941 9.861 9.861 0 011.425-1.433 11.814 11.814 0 011.609-1.154 16.367 16.367 0 011.789-.807 18.83 18.83 0 011.793-.751c.6-.24 1.132-.639 1.773-.837.614-.194 1.165-.7 1.806-.854s1.306-.2 1.959-.323c.637-.117 1.326.01 1.98-.08s1.31-.029 1.963-.084 1.29-.313 1.947-.34 1.314.188 1.967.188 1.292.137 1.951.166 1.3.033 1.951.09 1.29.164 1.939.25 1.376-.3 2.012-.18c.653.117 1.257.454 1.887.61.647.156 1.355.08 1.971.274.637.2 1.322.3 1.918.538.626.246 1 1.017 1.572 1.31a17.956 17.956 0 011.8.8 11.1 11.1 0 011.339 1.435 8.39 8.39 0 011.222 1.476 7.4 7.4 0 011.11 1.625 7.175 7.175 0 01.217 1.975 21.735 21.735 0 01-1.167 3.7 8.56 8.56 0 01-1.114 1.646 12.364 12.364 0 01-1.707 1.024 15.623 15.623 0 01-1.72.9 18.844 18.844 0 01-1.748.856c-.594.24-1.177.524-1.816.723-.618.194-1.267.264-1.918.424-.624.147-1.23.426-1.885.549-.637.113-1.277.254-1.933.34s-1.318-.063-1.975-.006-1.271.633-1.928.657-1.32-.558-1.977-.558zm-11.867-8.87c.516.254 1.333.2 2.057.438a16.318 16.318 0 001.834.706c.6.151 1.23.51 1.932.624.624.1 1.335-.066 2.037 0 .633.066 1.324-.284 2.02-.25.643.033 1.294.274 1.988.274s1.351-.137 1.994-.164c.694-.033 1.37.094 2.008.027.7-.076 1.361-.141 1.984-.24.7-.119 1.4-.066 2.01-.213.7-.17 1.357-.383 1.932-.577a15.727 15.727 0 001.875-.764c.815-.393.6-1.664-.215-2.061a12.214 12.214 0 00-1.758-.913 18.984 18.984 0 00-1.887-.671c-.6-.147-1.222-.5-1.924-.614-.624-.106-1.29-.25-1.988-.327-.639-.066-1.327.08-2.018.047-.649-.033-1.32.293-2.014.293s-1.351-.076-1.994-.043c-.694.033-1.376-.147-2.014-.084-.694.074-1.384.041-2.006.147-.7.117-1.32.457-1.926.6-.71.17-1.419.137-1.994.336a19.808 19.808 0 00-1.934.641 1.889 1.889 0 00.001 2.788z"/></g></g></g><g data-name="グループ 18562"><g data-name="グループ 18559"><g data-name="グループ 18558"><path data-name="パス 331425" d="M97.556 80.61c0 3.814-7.693 6.919-17.183 6.919s-17.181-3.1-17.181-6.919 7.7-6.913 17.181-6.913 17.183 3.095 17.183 6.913z" fill="#ed8c00"/></g></g><g data-name="グループ 18561"><g data-name="グループ 18560"><path data-name="パス 331426" d="M80.374 91.183c-.653 0-1.314.094-1.971.065s-1.3-.2-1.957-.254-1.3-.137-1.951-.223-1.322-.09-1.959-.207c-.655-.117-1.326-.147-1.953-.3-.649-.156-1.267-.42-1.881-.614-.643-.2-1.234-.506-1.826-.743-.628-.25-1.322-.336-1.887-.628-.6-.313-.925-1.046-1.449-1.4-.557-.389-1.419-.379-1.871-.823a8.676 8.676 0 01-1.06-1.711 4.15 4.15 0 01-.919-3.734 7.3 7.3 0 01.035-1.965 7.087 7.087 0 01.907-1.754 8.735 8.735 0 011.095-1.674c.452-.438 1.3-.424 1.859-.811.52-.36.844-1.073 1.447-1.38.561-.3 1.347-.143 1.971-.393.592-.237 1.167-.52 1.8-.714.614-.194 1.251-.287 1.9-.444.626-.151 1.169-.708 1.826-.827.637-.117 1.335.123 1.99.033s1.283-.207 1.935-.264 1.306 0 1.963-.02 1.3-.524 1.951-.524 1.324-.17 1.98-.143 1.32.137 1.975.194 1.294.317 1.939.4c.661.084 1.232.624 1.869.741.653.119 1.39-.227 2.022-.076s1.245.473 1.859.667c.643.2 1.324.266 1.918.5.624.252 1.2.586 1.773.88a15.26 15.26 0 011.564 1.214 11.571 11.571 0 011.578 1.15 8.191 8.191 0 011.222 1.517 7.086 7.086 0 01.907 1.738 6.967 6.967 0 01.458 1.951c0 .682-.608 1.249-.788 1.857a6.827 6.827 0 01-.559 1.849 8.587 8.587 0 01-1 1.752 12.9 12.9 0 01-1.742 1.017 15.138 15.138 0 01-1.584 1.2c-.567.293-1.136.694-1.759.944-.6.237-1.441-.184-2.078.016-.616.194-1.181.557-1.83.714-.63.154-1.288.154-1.937.274s-1.2.774-1.857.864-1.357-.34-2.014-.284-1.284.426-1.937.454-1.318-.081-1.974-.081zm-11.677-9.57a4.478 4.478 0 001.8.864c.579.2 1.218.393 1.926.563.606.147 1.28.18 1.98.293.624.1 1.294.084 1.994.156.633.07 1.284.207 1.98.241.641.027 1.3.141 2 .141s1.351-.221 1.994-.254c.694-.033 1.4.377 2.035.317.7-.076 1.282-.714 1.906-.817.7-.119 1.4.018 2.008-.129.71-.17 1.367-.4 1.943-.594.718-.246 1.511-.2 2.029-.45.809-.4.7-2.254-.115-2.645a18.146 18.146 0 00-1.89-.616 19.67 19.67 0 00-1.887-.794c-.6-.147-1.355.16-2.057.043-.626-.1-1.232-.653-1.93-.727-.635-.066-1.322-.039-2.022-.072-.641-.031-1.322-.131-2.016-.131s-1.357.454-2 .481c-.7.033-1.392-.26-2.027-.194-.7.076-1.367.217-1.992.323-.7.113-1.394.15-2 .3-.71.17-1.451.538-2.029.733a3.268 3.268 0 00-1.519 1.191c-.542.661-.625 1.224-.112 1.777z"/></g></g></g></g></g><g data-name="グループ 18565"><path data-name="パス 331427" d="M12.938 89.206c.352.71.418.43.9 1.324.211.393.485.841.786 1.367.242.42.379.958.676 1.445.26.426.422.95.725 1.417.278.43.723.77 1.032 1.224.293.422.563.88.882 1.324.3.416.645.823.975 1.253.317.411.518.931.858 1.351.33.4.7.784 1.056 1.191s.7.794 1.064 1.187.942.557 1.32.94.551.944.938 1.31.719.8 1.12 1.144.979.481 1.4.807.831.651 1.263.958.954.473 1.4.757.817.686 1.283.94.946.473 1.425.7 1 .336 1.494.53.921.557 1.427.717.97.5 1.488.624 1.05.233 1.578.313 1.093-.28 1.627-.242 1.04.326 1.58.323c.518-.006 1.058-.014 1.591-.066s1.044-.17 1.576-.264c.516-.086 1.026-.243 1.552-.37.544-.137 1.044-.327 1.535-.491.532-.18 1.124-.152 1.591-.36a13.316 13.316 0 001.4-.831 10.872 10.872 0 001.333-.933 9.24 9.24 0 001.175-1.128 8.226 8.226 0 00.966-1.324 8.552 8.552 0 00.6-1.521 9.05 9.05 0 00.438-1.584 10.823 10.823 0 00.076-1.636c-.018-.528-.454-1.03-.542-1.568a13.9 13.9 0 00-.3-1.564c-.143-.51-.029-1.116-.223-1.627-.188-.495-.43-.987-.663-1.478s-.475-.974-.741-1.441-.848-.733-1.146-1.183-.342-1.071-.669-1.5-.884-.671-1.234-1.073-.538-.978-.917-1.351-.739-.807-1.138-1.154c-.418-.354-.892-.647-1.316-.954a14.793 14.793 0 00-1.505-.628 12.168 12.168 0 00-1.394-.786 8.044 8.044 0 00-1.548-.364 5.468 5.468 0 00-1.554-.08 4.344 4.344 0 00-1.582.2 12.172 12.172 0 01-1.484.561 10.764 10.764 0 01-1.517.436 10.244 10.244 0 01-1.562.321 8.565 8.565 0 01-1.586-.156 7.671 7.671 0 01-1.5-.487 9.9 9.9 0 01-1.531-.481 10.056 10.056 0 01-1.314-.927 8.554 8.554 0 01-.974-1.29c-.643-.7-.87-.344-1.239-1.044-.381-.723-.1-.87-.461-1.6s-.325-.751-.69-1.48-.46-.684-.827-1.417-.583-.628-.933-1.365.082-.686-.1-1.63a9.109 9.109 0 01-.325-1.546 4.5 4.5 0 01.358-3.138 8.334 8.334 0 01.4-1.568 8.888 8.888 0 01.882-1.361 9.387 9.387 0 011.124-1.173 13.109 13.109 0 011.419-.784 12.192 12.192 0 011.308-.927 4.452 4.452 0 001.429-.8 6.54 6.54 0 00.639-1.513 8.025 8.025 0 00.8-1.417 11.84 11.84 0 00.325-1.593 16.145 16.145 0 00-.022-1.621c.012-.524-.049-1.058-.082-1.607-.035-.528-.217-1.044-.293-1.582s.086-1.1-.027-1.631-.231-1.054-.373-1.574-.606-.931-.786-1.437-.035-1.14-.25-1.63-.727-.85-.976-1.324-.465-.968-.749-1.417-.563-.927-.886-1.341a14.018 14.018 0 00-.985-1.281 11.734 11.734 0 00-1.357-.889 10.157 10.157 0 00-1.201-1.051 8.655 8.655 0 00-1.476-.624 8.034 8.034 0 00-1.574-.25 7.755 7.755 0 00-1.568-.02 8.291 8.291 0 00-1.593.061 10.568 10.568 0 00-1.55.422 13.761 13.761 0 00-1.454.694 16.134 16.134 0 00-1.4.807c-.422.293-.893.577-1.327.931s-.657.88-1.036 1.24-.741.755-1.091 1.148-.766.747-1.083 1.163-.547.911-.831 1.351-.5.931-.745 1.394-.456.944-.669 1.427-.788.831-.964 1.327-.133 1.083-.27 1.593-.248 1.03-.354 1.55-.076 1.058-.149 1.582-.338 1.03-.381 1.556.209 1.071.194 1.6-.143 1.054-.131 1.584-.17 1.073-.135 1.6.111 1.06.168 1.584.074 1.067.151 1.593.383 1.015.477 1.535-.027 1.091.086 1.6c.113.528.272 1.038.4 1.548s.205 1.06.346 1.56c.147.524.563.954.717 1.451.162.524.424.993.59 1.484.18.52.252 1.05.43 1.527.194.524.475.983.661 1.445.211.536.086 1.159.278 1.6.24.563.579 1 .766 1.408.424.9.35.7.7 1.4s.516.62.866 1.314.416.671.764 1.374.133.813.485 1.517.5.63.841 1.343.201.792.549 1.5z" fill="#ed8c00"/><path data-name="パス 331428" d="M41.082 115.698c-.569 0-1.146-.029-1.7-.066l-.364-.023a17.696 17.696 0 01-1.525-.143 6.93 6.93 0 01-1.646-.5c-.074-.027-.147-.061-.221-.084a7.757 7.757 0 01-1.371-.493c-.1-.041-.2-.09-.3-.123-.143-.041-.289-.08-.434-.117a11.522 11.522 0 01-1.316-.41c-.151-.057-.3-.11-.444-.16a13.478 13.478 0 01-1.257-.5l-.393-.178c-.418-.2-.831-.383-1.232-.606-.432-.24-.843-.5-1.249-.757l-.285-.184c-.141-.09-.285-.17-.428-.25a15.42 15.42 0 01-1.087-.686l-.221-.154a24.307 24.307 0 01-1.2-.88 15.86 15.86 0 01-.944-.807c-.127-.113-.252-.233-.381-.34a7.669 7.669 0 01-1.03-1.11c-.059-.07-.113-.147-.176-.213-.047-.037-.141-.1-.231-.166a8.7 8.7 0 01-1.077-.892c-.28-.285-.543-.577-.8-.87l-.354-.393c-.039-.037-.117-.094-.19-.151a7.858 7.858 0 01-1.087-1 9.746 9.746 0 01-.784-1.068 3.627 3.627 0 00-.219-.317 3.245 3.245 0 00-.246-.246 8.84 8.84 0 01-.911-.987 6.063 6.063 0 01-.884-1.711v-.014c-.067-.076-.127-.156-.194-.231-.217-.266-.43-.53-.628-.8l-.115-.109a6.277 6.277 0 01-1.11-1.257 59.9 59.9 0 01-.893-1.427 6.475 6.475 0 01-.7-1.677l-.106-.213c-.246-.434-.469-.821-.651-1.161a5.287 5.287 0 01-.985-1.423 5.336 5.336 0 01-.518-1.658 5.767 5.767 0 01-.784-1.187c-.223-.45-.321-.68-.42-.913-.057-.131-.111-.264-.238-.514l-.692-1.408a6.438 6.438 0 01-.454-1.134 5.155 5.155 0 01-1.185-1.67 6.119 6.119 0 01-.45-1.5c-.016-.076-.027-.16-.051-.246a1.931 1.931 0 01-.131-.217 11.3 11.3 0 01-.581-1.195 8.157 8.157 0 01-.383-1.32 2.538 2.538 0 00-.072-.321 21.124 21.124 0 01-.334-1.013c-.047-.145-.094-.3-.143-.448l-.074-.127a6.819 6.819 0 01-.719-1.523 6.119 6.119 0 01-.248-1.761l-.022-.039a7.3 7.3 0 01-.577-1.488c-.094-.383-.16-.77-.219-1.167-.029-.166-.053-.336-.09-.506-.023-.1-.066-.207-.1-.317a8.617 8.617 0 01-.371-1.324 7.269 7.269 0 01-.088-1.564c0-.084.008-.164 0-.25-.047-.307-.08-.7-.108-1.095-.01-.123-.017-.252-.029-.373l-.033-.1a6.328 6.328 0 01-.409-1.767c-.01-.141-.035-.283-.053-.424a10.463 10.463 0 01-.133-1.324 6.715 6.715 0 01.207-1.687c.006-.029.014-.057.02-.09a.611.611 0 01-.014-.084 6.682 6.682 0 01-.105-1.693c.035-.434.105-.87.176-1.3l.072-.481a9.327 9.327 0 01.325-1.4c.037-.127.08-.25.1-.377a8.16 8.16 0 01.454-1.437 2.647 2.647 0 00.113-.3l.109-.426c.113-.453.231-.9.385-1.341.2-.577.411-1.153.659-1.724a9.583 9.583 0 01.694-1.267c.071-.119.147-.237.213-.36.293-.544.616-1.064.96-1.591l.186-.3a15.031 15.031 0 01.844-1.247 11.551 11.551 0 01.931-1.054c.051-.051.1-.107.158-.166l.006-.014a5.82 5.82 0 011.2-1.72l.111-.1c.4-.387.827-.784 1.273-1.148.473-.387.964-.733 1.433-1.054a5.881 5.881 0 011.889-.864A5.075 5.075 0 0114.12 36.5a5.663 5.663 0 012.256-.358 5.734 5.734 0 012.049-.54 7.132 7.132 0 011.994.2c.094.02.19.043.283.053.11.02.215.023.321.033a7.181 7.181 0 011.949.36 11.925 11.925 0 012.031.958 14.385 14.385 0 011.785 1.2 11.579 11.579 0 011.281 1.22l.4.417a14.286 14.286 0 011.161 1.29c.379.491.757 1.024 1.114 1.591.078.123.164.246.25.364a10.917 10.917 0 01.782 1.24 12.206 12.206 0 01.567 1.3c.057.147.111.293.172.436a6.418 6.418 0 01.438 1.644 5.268 5.268 0 01.94 1.8 6.987 6.987 0 01.231 1.668c.006.086.008.17.014.25l.1.379c.106.454.207.907.274 1.361.066.481.094.968.117 1.451l.022.411a9.142 9.142 0 01-.049 1.537c-.014.121-.029.244-.033.367 0-.027.019.057.033.133a6.384 6.384 0 01.07 1.852 6.837 6.837 0 01-.547 1.863l-.086.207a11.15 11.15 0 01-.747 2.041c-.039.086-.07.17-.1.256a6.083 6.083 0 01-1.153 2.018 7.861 7.861 0 01-2.344 1.767 10.133 10.133 0 01-1.091.444c-.043.014-.084.023-.123.039a8.47 8.47 0 00-.321.3c-.137.131-.27.254-.4.377-.194.17-.4.336-.594.5l-.039.029a6.409 6.409 0 01-.424 1.067 9.924 9.924 0 01-.483.8c-.033.051-.065.1-.1.151-.049.156-.1.307-.154.459-.023.061-.041.121-.066.178a6.27 6.27 0 01.176 1.2 6.48 6.48 0 01-.029.94 6 6 0 01.42.737c.266.563.317.667.506 1.044l.923 1.814a5.169 5.169 0 01.512 1.7 5.368 5.368 0 01.833 1.187c.143.27.237.471.309.641a7.966 7.966 0 00.805.723.761.761 0 01.2.08c.242.119.491.246.733.389a6.549 6.549 0 01.864.618c.291.016.581.043.864.086.26.043.52.1.786.164.082.02.166.043.254.063l.213-.006a5.643 5.643 0 00.714-.041 7.25 7.25 0 00.888-.26l.1-.07a7.857 7.857 0 011.079-.673 7.668 7.668 0 012.815-.878 5.375 5.375 0 012.518.454 5.6 5.6 0 012.287.368 14.291 14.291 0 011.828.927 7.6 7.6 0 011.371 1.026 2.952 2.952 0 00.238.207c.041.023.117.061.2.1a7.147 7.147 0 011.431.927 6.192 6.192 0 011.216 1.478l.02.029c.018.014.037.027.061.043a6.855 6.855 0 011.289 1.113c.1.109.2.217.311.326a11.2 11.2 0 01.931 1.04c.323.42.62.864.913 1.308l.411.6c.27.377.534.76.766 1.163a9.1 9.1 0 01.61 1.341c.051.127.094.256.151.373a6.128 6.128 0 01.514 1.763 5.543 5.543 0 01.913 1.8 18 18 0 01.452 1.967 8.852 8.852 0 01.082 1.7v.368a11.326 11.326 0 01-.135 1.91l-.033.24c-.01.1-.014.2-.02.307a7.3 7.3 0 01-.3 1.92 6.036 6.036 0 01-1.069 1.914l-.125.164a10.613 10.613 0 01-1.208 1.814l-.174.213a9.878 9.878 0 01-1.337 1.4c-.068.061-.133.127-.2.194a7.63 7.63 0 01-1.455 1.191 17.156 17.156 0 01-1.834.927 8.363 8.363 0 01-1.484.483c-.131.033-.262.061-.393.1a9.342 9.342 0 01-1.4.334c-.147.023-.3.049-.444.086s-.3.084-.44.127a10.7 10.7 0 01-1.353.34 21.77 21.77 0 01-1.859.223c-.006 0-.088.027-.168.051a7 7 0 01-1.685.256zm-2.4-7.149c.256.033.516.047.772.061l.426.029c.385.027.786.047 1.189.047l.166-.043a7.7 7.7 0 011.261-.237c.44-.037.87-.074 1.31-.151a4.282 4.282 0 00.491-.137c.26-.076.52-.156.79-.223.3-.076.594-.127.886-.184a4.06 4.06 0 00.422-.08c.3-.1.62-.186.927-.26.119-.033.239-.057.35-.1.358-.164.755-.344 1.021-.5-.008-.01.066-.086.139-.16.217-.219.432-.426.655-.61a5.288 5.288 0 00.407-.463l.231-.283a4.749 4.749 0 00.477-.757 7.039 7.039 0 01.587-.884c.014-.283.033-.567.066-.85l.037-.293a5.693 5.693 0 00.076-.764c-.006-.243 0-.487 0-.737a3.4 3.4 0 000-.446 8.555 8.555 0 00-.192-.854 6.087 6.087 0 01-.809-1.437 7.017 7.017 0 01-.35-1.408l-.02-.109c-.1-.217-.184-.44-.274-.667a3.618 3.618 0 00-.16-.4c-.113-.194-.254-.387-.393-.581s-.26-.364-.381-.547l-.152-.233c-.207-.311-.41-.624-.633-.917a4.374 4.374 0 00-.373-.391c-.164-.17-.332-.346-.491-.52a1.692 1.692 0 00-.147-.1 7.72 7.72 0 01-1.038-.837 6.333 6.333 0 01-.9-1.167l-.024-.01a8.88 8.88 0 01-1.017-.61 9.429 9.429 0 01-.845-.694 2.8 2.8 0 00-.219-.19c-.19-.1-.409-.227-.6-.33a6.158 6.158 0 01-1.284-.1 5.786 5.786 0 01-.85-.231.049.049 0 01-.025.008 3.107 3.107 0 01-.18.129 6.524 6.524 0 01-1.6.884 15.561 15.561 0 01-2.053.6 10.581 10.581 0 01-1.969.174l-.248.006a7.415 7.415 0 01-1.986-.252 2.544 2.544 0 00-.262-.061c-.07-.01-.164-.01-.252-.014a6.347 6.347 0 01-1.994-.346 5.888 5.888 0 01-1.908-1.191l-.084-.07c-.08-.043-.162-.08-.242-.123a7.855 7.855 0 01-1.505-.921 14.685 14.685 0 01-1.56-1.447 5.615 5.615 0 01-1.23-1.89 5.337 5.337 0 01-1.154-1.554 5.03 5.03 0 01-.538-2.027l-.723-1.427c-.184-.368-.256-.51-.457-.936a4.776 4.776 0 01-1.21-2.5 5.794 5.794 0 010-1.961c.006-.043.014-.09.018-.137l-.012-.057a6.2 6.2 0 01-.162-2.147 8.241 8.241 0 01.457-1.8c.043-.119.084-.237.119-.36a6.668 6.668 0 01.87-1.758l.1-.156.023-.076a5.859 5.859 0 011.007-2.074 7.951 7.951 0 011.326-1.267c.1-.08.2-.16.3-.244l.242-.227a9.677 9.677 0 011.384-1.144 6.789 6.789 0 011.6-.743c.088-.033.18-.061.268-.1a.651.651 0 00.084-.049c.1-.254.205-.514.327-.764a5.065 5.065 0 00.3-.866 7.827 7.827 0 01.375-1.048 6.868 6.868 0 01-.1-1.277c.006-.293.031-.6.062-.907a3.823 3.823 0 00.033-.407l-.029-.52c-.014-.268-.023-.538-.061-.811a7.247 7.247 0 00-.152-.71c-.047-.207-.1-.42-.141-.628a7.23 7.23 0 01-.139-1.169 5.433 5.433 0 01-.784-1.421 7.029 7.029 0 01-.321-1.417l-.02-.127c-.07-.17-.137-.34-.2-.516a5.707 5.707 0 00-.235-.563 4.307 4.307 0 00-.307-.461c-.152-.219-.3-.43-.44-.649q-.343-.545-.733-1.048a7.408 7.408 0 00-.624-.676l-.487-.506a6.821 6.821 0 00-.545-.543 6.957 6.957 0 00-.884-.59 6.835 6.835 0 00-.8-.411c-.084-.014-.174-.014-.26-.023-.252-.02-.5-.037-.753-.076s-.508-.084-.768-.141a6.673 6.673 0 01-1.073.364 5.376 5.376 0 01-1.069.137 5.268 5.268 0 01-.97.694 6.128 6.128 0 01-1.505.563c-.272.19-.553.387-.827.61s-.5.444-.743.671a6 6 0 01-.919 1.417c-.156.176-.323.35-.491.52a4.526 4.526 0 00-.395.426c-.174.231-.321.471-.471.714l-.233.367c-.241.373-.469.727-.671 1.11-.141.26-.291.506-.444.753a3.549 3.549 0 00-.225.377c-.178.407-.32.817-.467 1.234a7.314 7.314 0 00-.194.708c-.051.194-.1.389-.151.587a9.937 9.937 0 01-.358 1.034 2.293 2.293 0 00-.113.3c-.055.274-.145.594-.239.917a3.251 3.251 0 00-.107.381c-.027.2-.061.426-.1.649-.033.2-.066.4-.09.594a1.278 1.278 0 00.023.143 7.43 7.43 0 01.117 1.408 7.137 7.137 0 01-.207 1.431l-.023.123c.01.11.029.213.047.323.037.25.07.5.094.755l.033.09a6.58 6.58 0 01.387 1.556c.029.254.049.51.067.764.02.233.031.457.065.68a7.6 7.6 0 01.059 1.38v.166c.022.074.053.16.084.244a10.074 10.074 0 01.325 1.11c.067.307.115.616.162.923.023.151.045.3.076.454.025.057.055.107.08.164a7.135 7.135 0 01.526 1.3 6.2 6.2 0 01.213 1.56 6.67 6.67 0 01.632 1.3c.09.256.166.506.246.757.07.227.137.454.217.671a8.885 8.885 0 01.346 1.253c.022.09.039.184.065.27s.123.225.2.364c.168.311.326.608.454.907a6.6 6.6 0 01.395 1.251 4.726 4.726 0 01.987 1.337 6.368 6.368 0 01.555 1.507l.69 1.4c.225.45.325.68.42.907.045.1.088.207.168.37a5.36 5.36 0 011.083 1.648 5.612 5.612 0 01.4 1.423 6.355 6.355 0 01.778 1.167c.156.293.346.614.553.978l.18.313a6.183 6.183 0 01.577 1.441l.037.123c.192.311.393.637.6.968l.072.066a6.728 6.728 0 011.081 1.2 4.938 4.938 0 00.327.407c.2.25.407.5.6.766a5.881 5.881 0 01.77 1.521c.027.027.059.057.09.084a10.416 10.416 0 01.807.856c.233.283.436.586.639.888a2.88 2.88 0 00.225.33c.006-.014.076.053.153.113a7.8 7.8 0 01.968.866c.153.164.3.34.457.51.172.194.346.391.532.577.057.051.151.108.239.174a10.274 10.274 0 01.909.733 8.133 8.133 0 01.847.94c.059.076.113.147.174.213.117.1.293.254.473.42s.354.326.544.473c.3.231.61.448.921.671l.235.16a6.537 6.537 0 00.569.35c.213.127.426.25.635.381l.315.2c.285.184.571.37.87.534.24.133.495.246.751.36l.487.227c.194.09.4.156.6.227.223.08.452.16.678.25a3.593 3.593 0 00.512.147c.258.067.512.137.77.217a9.506 9.506 0 01.987.383c.1.043.2.09.3.123a7.226 7.226 0 011.171.4.816.816 0 00.142.068zm-.123-.016zm-24.37-10.59zm35.9-1.026zm-38.573-3.251l.01.014zm35.536-1.3l.006.006zM16 87.694l-3.146 1.55 3.151-1.541zm17.964-4.711zm-7.9-11.947zm.1-.24zM7.181 62.19zm19.625-1.38zm-.729-11.775v.01zm-11.466-4.8l-.01.01zm-7.971-1.81v.006z"/></g></g><g data-name="グループ 18591"><g data-name="グループ 18589"><g data-name="グループ 18571"><g data-name="グループ 18568"><g data-name="グループ 18567"><path data-name="パス 331429" d="M184.444 74.102c0 21.574 25.255 31.075 56.416 31.075s56.414-9.5 56.414-31.075h-112.83z" fill="#fff"/></g></g><g data-name="グループ 18570"><g data-name="グループ 18569"><path data-name="パス 331430" d="M240.86 108.71c-.649 0-1.294.344-1.93.338s-1.3-.112-1.928-.125c-.653-.02-1.292-.074-1.933-.1s-1.284-.205-1.924-.239-1.271-.354-1.908-.393-1.29-.022-1.924-.074c-.649-.047-1.281-.17-1.918-.239s-1.3.078-1.934 0-1.331.242-1.967.162-1.253-.393-1.883-.489c-.647-.092-1.245-.395-1.879-.5s-1.351.225-1.978.111-1.261-.3-1.889-.422-1.23-.42-1.853-.565-1.328-.029-1.941-.192c-.63-.16-1.157-.688-1.773-.86s-1.255-.311-1.861-.5c-.626-.192-1.234-.4-1.83-.606-.618-.209-1.128-.7-1.724-.915s-1.187-.5-1.771-.741-1.41.018-1.99-.239c-.6-.268-.993-.94-1.562-1.22-.585-.291-1.4-.117-1.957-.42-.573-.311-.956-.946-1.505-1.275s-1.206-.524-1.732-.872c-.543-.36-1.161-.62-1.675-.991s-.665-1.255-1.155-1.658-1.132-.651-1.6-1.077c-.479-.444-.811-1.013-1.257-1.466s-1.23-.626-1.646-1.108c-.42-.506-.571-1.208-.948-1.72s-.849-.989-1.189-1.529-.61-1.13-.915-1.7-.9-1.009-1.159-1.6-.514-1.21-.735-1.816.119-1.384-.057-2.012-.71-1.14-.841-1.781c-.129-.626.184-1.322.1-1.967s-.721-1.222-.759-1.869.24-1.308.24-1.953a3.105 3.105 0 011.787-3.273 3.941 3.941 0 011.887-.59c.972 0 .972-.117 1.945-.117s.972.285 1.945.285.972.192 1.943.192.974.17 1.943.17.976-.033 1.937-.033.974-.371 1.945-.371.972-.285 1.943-.285.974.141 1.943.141.97.538 1.941.538.974-.364 1.943-.364.972-.291 1.947-.291.972.117 1.945.117.972.418 1.945.418.968.033 1.939.033.972.1 1.941.1.976-.033 1.945-.033.972-.481 1.943-.481.975.373 1.947.373.972.047 1.941.047.972-.4 1.947-.4.972-.127 1.943-.127.972.522 1.941.522.972-.1 1.947-.1.974-.213 1.949-.213.97.053 1.941.053.974.055 1.945.055.974-.2 1.945-.2.972-.084 1.943-.084.974.287 1.945.287.974.252 1.947.252.972-.125 1.945-.125.975.086 1.945.086.976-.317 1.943-.317.976.074 1.951.074.968.264 1.943.264.972-.5 1.943-.5.976.006 1.949.006.976-.1 1.943-.1.976.07 1.947.07.976.086 1.947.086.974.1 1.947.1.974.373 1.945.373.974-.149 1.941-.149.976.106 1.947.106.974-.606 1.951-.606.972.213 1.945.213.97.35 1.941.35.976-.317 1.945-.317.976.344 1.949.344.972-.362 1.949-.362.974-.109 1.949-.109.974.176 1.951.176.966.127 1.939.127.976.145 1.951.145.974-.2 1.945-.2.975.28 1.951.28.974.016 1.951.016.975-.465 1.949-.465a4.041 4.041 0 011.939.45 4 4 0 011.277 1.5 4.137 4.137 0 01.792 1.863c0 .645-.61 1.283-.657 1.92s.432 1.335.348 1.979-.328 1.265-.454 1.9-.188 1.292-.366 1.912-.794 1.109-1.013 1.709-.262 1.283-.524 1.867-.837 1.007-1.138 1.572-.35 1.273-.694 1.82-.983.874-1.37 1.4-.411 1.294-.833 1.793-1.06.764-1.507 1.23-.9.9-1.376 1.343-.9.9-1.406 1.312c-.493.4-.983.817-1.505 1.2s-.79 1.108-1.333 1.468-1.138.622-1.7.958c-.545.321-1.339.221-1.908.532s-1.077.694-1.66.983-1.128.592-1.722.854-1.216.4-1.814.651-1.236.34-1.846.565c-.592.221-1 .989-1.619 1.2s-1.314.1-1.933.291-1.138.678-1.762.852-1.337-.041-1.969.121-1.124.813-1.754.956-1.312.016-1.949.151-1.275.152-1.91.272-1.21.532-1.848.637-1.294.047-1.936.141-1.308-.131-1.953-.049-1.243.4-1.887.471-1.275.2-1.918.266-1.265.3-1.91.348-1.3-.24-1.949-.2-1.265.323-1.914.356-1.3-.282-1.941-.256-1.285-.025-1.934-.01-1.279.442-1.924.446-1.269-.339-1.92-.339zm-52.5-31.067c.109.649.5 1.355.665 1.967a16.163 16.163 0 00.508 1.861 17.079 17.079 0 00.743 1.783c.289.579.477 1.218.823 1.767s.508 1.245.907 1.756.88.981 1.325 1.453.872.987 1.349 1.437c.473.428 1.112.706 1.617 1.107s1.259.459 1.8.827c.524.373.94.9 1.5 1.243s1.011.831 1.584 1.14 1.349.19 1.933.473 1.136.585 1.734.843 1.124.63 1.732.856 1.3.188 1.914.407 1.1.762 1.722.952 1.249.328 1.875.5 1.243.348 1.869.51 1.195.586 1.822.721 1.263.321 1.894.448 1.38-.307 2.012-.2 1.206.653 1.844.747c.641.112 1.359-.319 1.994-.233s1.24.536 1.873.618c.651.076 1.316-.043 1.947.02.655.076 1.3-.01 1.939.053.661.061 1.251.712 1.887.757.661.051 1.326-.147 1.951-.1.665.039 1.3.233 1.93.266.673.031 1.335-.434 1.955-.415.684.025 1.32.362 1.926.373.7.008 1.345-.106 1.93-.106s1.23.072 1.939.055c.6-.012 1.241-.371 1.924-.391.616-.02 1.257-.049 1.934-.08.618-.027 1.3.5 1.957.459.631-.033 1.245-.491 1.906-.54.631-.051 1.306.327 1.965.27.635-.065 1.22-.7 1.871-.768.633-.066 1.306.156 1.957.078.629-.074 1.247-.325 1.9-.411.631-.09 1.279-.119 1.92-.221s1.253-.291 1.895-.4 1.243-.346 1.875-.473 1.314 0 1.951-.133 1.3-.108 1.933-.27 1.3-.152 1.922-.328 1.243-.387 1.861-.571 1.122-.739 1.734-.946 1.12-.7 1.719-.932 1.251-.332 1.842-.583 1.408-.041 1.988-.315 1.011-.9 1.576-1.2.991-.868 1.542-1.2 1.146-.577 1.675-.948 1.3-.424 1.8-.817 1.036-.8 1.511-1.236c.477-.448 1.026-.843 1.466-1.314s.858-1 1.257-1.515.379-1.32.727-1.865.989-.927 1.283-1.5a18.958 18.958 0 00.831-1.783 19.418 19.418 0 00.235-1.973 13.7 13.7 0 00.469-1.588c-.917-.323-.88-.495-1.848-.495s-.97.094-1.937.094-.974.211-1.941.211-.972-.053-1.938-.053-.968-.049-1.943-.049-.968.2-1.941.2-.972.078-1.943.078-.97-.278-1.943-.278-.97-.256-1.939-.256-.966.131-1.937.131-.974-.084-1.943-.084-.968.311-1.941.311-.968-.068-1.939-.068-.97-.274-1.941-.274-.97.5-1.941.5-.974-.008-1.945-.008-.968.09-1.939.09-.97-.065-1.937-.065-.972-.086-1.947-.086-.972-.1-1.943-.1-.968-.371-1.943-.371-.97.156-1.941.156-.968-.108-1.939-.108-.968.6-1.943.6-.974-.211-1.943-.211-.972-.34-1.943-.34-.972.309-1.939.309-.974-.334-1.945-.334-.972.354-1.943.354-.972.108-1.943.108-.972-.17-1.943-.17-.972-.127-1.941-.127-.976-.139-1.947-.139-.97.2-1.945.2-.966-.293-1.939-.293-.974-.016-1.945-.016-.974.469-1.941.469-.972.072-1.947.072-.97-.158-1.943-.158-.97.287-1.941.287-.972-.587-1.943-.587-.968.53-1.937.53-.974-.141-1.945-.141-.976.094-1.951.094-.968-.448-1.939-.448-.972.207-1.949.207-.968-.34-1.941-.34-.97.332-1.945.332-.972-.346-1.943-.346-.976.465-1.947.465-.972-.3-1.943-.3h-1.947a8.4 8.4 0 01-1.928.066c-1.03-.154-1.116-.349-2.033-.011z"/></g></g></g><g data-name="グループ 18576"><g data-name="グループ 18573"><g data-name="グループ 18572"><path data-name="パス 331431" d="M279.691 36.775a16.7 16.7 0 10-21.435-16.006 16.889 16.889 0 00.69 4.755 68.208 68.208 0 00-37.024.26 16.871 16.871 0 00.764-5.015 16.67 16.67 0 10-20.848 16.178c-11.75 10.469-17.394 25.052-17.394 37.155h112.83c0-12.164-5.707-26.838-17.583-37.327z" fill="#ed8c00"/></g></g><g data-name="グループ 18575"><g data-name="グループ 18574"><path data-name="パス 331432" d="M297.274 77.43c-.972 0-.972.624-1.941.624s-.976-.082-1.947-.082-.974-.227-1.945-.227-.97.2-1.949.2-.968-.381-1.939-.381-.974.014-1.935.014-.974-.121-1.945-.121-.972-.041-1.943-.041-.972.084-1.943.084-.97.33-1.943.33-.972.217-1.947.217-.97-.469-1.943-.469-.972.483-1.943.483-.972.047-1.945.047-.968-.111-1.939-.111-.974-.021-1.945-.021-.972-.268-1.939-.268-.976-.25-1.945-.25-.974.5-1.949.5-.972-.039-1.939-.039-.976-.248-1.947-.248-.972.284-1.947.284-.968.151-1.941.151-.974-.479-1.945-.479-.972.176-1.947.176-.966.063-1.939.063-.976.043-1.951.043-.97-.287-1.941-.287-.978.26-1.945.26-.974-.24-1.945-.24-.974.282-1.945.282-.972-.319-1.947-.319-.972.018-1.947.018-.972.094-1.945.094-.97.11-1.947.11-.972.264-1.947.264-.968-.287-1.939-.287-.977.266-1.947.266-.978-.508-1.947-.508-.974-.09-1.945-.09-.976.473-1.947.473-.977-.516-1.951-.516-.968.651-1.939.651-.975-.233-1.951-.233-.972.236-1.939.236-.972-.233-1.949-.233-.974-.2-1.945-.2-.972.1-1.949.1-.968.147-1.943.147-.972-.127-1.947-.127-.972-.246-1.945-.246-.979.031-1.953.031-.976.111-1.947.111-.972-.061-1.949-.061-.97.235-1.943.235-.975-.014-1.947-.014-.977-.3-1.955-.3-.976-.113-1.949-.113a3.16 3.16 0 01-2.891-1.632c-.313-.54-.807-1.009-.807-1.674s.409-1.3.44-1.969c.029-.653-.043-1.31.012-1.975s-.391-1.365-.307-2.021.61-1.253.721-1.9.18-1.306.317-1.955.219-1.308.383-1.951.561-1.2.751-1.846.258-1.288.473-1.916.321-1.288.555-1.908.714-1.138.972-1.744.1-1.4.37-2.006 1.056-.944 1.353-1.546-.037-1.505.28-2.084.694-1.146 1.028-1.709.741-1.116 1.095-1.672 1.015-.911 1.39-1.454.6-1.208.989-1.736.792-1.065 1.2-1.58 1-.886 1.431-1.382.5-1.063.946-1.548c-.54-.332-.733-.8-1.239-1.189s-1.044-.71-1.511-1.126a17.981 17.981 0 01-1.175-1.484 18.308 18.308 0 01-1.189-1.439c-.381-.5-.649-1.056-.979-1.588a18.538 18.538 0 01-1.112-1.525c-.278-.561-.479-1.148-.708-1.736s-.473-1.161-.647-1.767-.344-1.208-.457-1.83-.471-1.2-.528-1.844c-.055-.622.422-1.261.422-1.9 0-.678-.162-1.329-.1-1.984a19 19 0 01.444-1.935c.129-.655.326-1.263.514-1.894s.28-1.288.534-1.906.137-1.415.45-2 1.028-.944 1.4-1.5.354-1.412.776-1.924 1.021-.9 1.49-1.384c.467-.465 1.013-.872 1.529-1.294s1.06-.813 1.613-1.2c.551-.366 1.281-.428 1.873-.747s1.017-.935 1.634-1.193 1.361-.115 2-.315 1.142-.917 1.8-1.046 1.388.248 2.051.182 1.306-.055 1.98-.055 1.343-.256 2-.192a19.918 19.918 0 011.918.616c.661.129 1.408-.129 2.043.063s1.23.567 1.842.821 1.3.393 1.883.708.976.972 1.527 1.349 1.4.375 1.908.8.6 1.322 1.073 1.8 1.343.585 1.765 1.1.87 1.058 1.24 1.615.278 1.392.592 1.984.714 1.122.972 1.734.6 1.208.8 1.846.426 1.283.561 1.939-.252 1.367-.19 2.039a19.744 19.744 0 01.165 1.962c0 .037.176-.283.176-.248.588-.127 1.24.117 1.842 0s1.191-.25 1.8-.344 1.216-.059 1.824-.129 1.2-.242 1.8-.3 1.2-.221 1.812-.264 1.214-.168 1.826-.194 1.226.321 1.84.3 1.208-.328 1.82-.328c.663 0 1.324.154 1.973.168s1.31.334 1.961.368 1.322-.106 1.979-.059 1.294.252 1.947.321 1.335-.086 1.982 0 1.3.242 1.945.35 1.333.205 1.976.336c0-.678 0-1.374.067-2.027a19.488 19.488 0 01.616-1.912c.129-.657.078-1.341.27-1.969.2-.645.411-1.263.665-1.881s.745-1.093 1.058-1.674a18.619 18.619 0 01.966-1.72 19.6 19.6 0 011.236-1.533c.422-.512.848-.981 1.316-1.447a18.387 18.387 0 011.4-1.39c.506-.416.782-1.155 1.333-1.541.549-.366 1.388-.24 1.976-.553s1.114-.688 1.726-.942a19.256 19.256 0 011.783-.9 17.592 17.592 0 011.953-.381c.647-.129 1.279-.369 1.947-.436s1.324-.352 1.992-.352 1.3.69 1.959.757 1.415-.483 2.065-.354a18.839 18.839 0 011.908.667 18.38 18.38 0 011.853.766c.622.256 1.335.328 1.926.643s1.071.831 1.619 1.2 1.2.655 1.711 1.075 1.11.794 1.58 1.263.489 1.376.911 1.889.778 1.052 1.15 1.6a19.845 19.845 0 011.151 1.619c.313.592.534 1.2.786 1.82s.882 1.1 1.079 1.748a19.278 19.278 0 01.209 2.014 19.731 19.731 0 01.54 1.955c.064.653-.076 1.337-.076 2.016s-.426 1.314-.489 1.98c-.072.682.346 1.412.211 2.066a19.819 19.819 0 01-.676 1.926c-.2.641-.248 1.361-.51 1.975s-.442 1.314-.766 1.91a18.983 18.983 0 01-1.157 1.681 19.349 19.349 0 01-1.159 1.7c-.426.512-1.314.612-1.8 1.093s-.778 1.128-1.3 1.554-1.036.823-1.6 1.195c.428.463.894.862 1.312 1.337.416.491.61 1.157 1.009 1.652s.671 1.085 1.05 1.6 1.054.794 1.421 1.308.766 1.036 1.116 1.56.909.938 1.238 1.49.051 1.445.362 1.992.972.921 1.265 1.486.643 1.1.919 1.675.5 1.177.753 1.754c.26.592.141 1.324.377 1.914s1.1.95 1.316 1.542.346 1.24.538 1.849.012 1.331.186 1.947.719 1.122.872 1.738-.309 1.38-.178 2 .747 1.155.852 1.781.156 1.269.237 1.908.164 1.261.215 1.895.11 1.279.139 1.91.151 1.286.151 1.92c0 .665-.729 1.134-1.038 1.674-.323.557-.524 1.146-1.079 1.466a3.4 3.4 0 01-1.814.189zm-109.09-6.672c.921.313 1.083-.6 2.053-.6s.972.08 1.941.08.974.237 1.943.237.972-.209 1.947-.209.972.383 1.943.383.976-.008 1.947-.008.97.108 1.945.108.972.043 1.943.043.974-.082 1.945-.082.972-.326 1.945-.326.972-.219 1.945-.219.974.471 1.945.471.972-.485 1.945-.485.975-.055 1.945-.055.976.115 1.947.115.976.018 1.947.018.972.283 1.943.283.972.237 1.947.237.972-.5 1.945-.5.976.043 1.945.043.978.256 1.949.256.974-.3 1.945-.3.972-.152 1.941-.152.977.491 1.949.491.978-.178 1.951-.178.972-.066 1.943-.066.973-.041 1.945-.041.976.293 1.949.293.976-.272 1.947-.272.974.254 1.949.254.97-.3 1.947-.3.972.332 1.947.332.974-.018 1.947-.018.972-.094 1.949-.094.972-.115 1.943-.115.979-.27 1.955-.27.966.3 1.941.3.976-.274 1.949-.274.976.512 1.947.512.974.08 1.947.08.972-.473 1.945-.473.976.512 1.951.512.972-.649 1.943-.649.974.239 1.951.239.972-.242 1.945-.242.974.237 1.949.237.974.215 1.949.215.976-.1 1.949-.1.975-.155 1.949-.155.975.133 1.953.133.972.242 1.943.242.976-.026 1.949-.026.977-.115 1.957-.115 1.083.371 2.01.053c-.066-.653-.26-1.464-.36-2.129-.094-.647-.192-1.3-.319-1.953-.129-.635.018-1.357-.141-2.01-.156-.626-.219-1.318-.4-1.955s-.42-1.249-.633-1.9c-.205-.61-.426-1.251-.659-1.875s-.817-1.095-1.075-1.711-.172-1.372-.457-1.979c-.28-.583-.688-1.13-1-1.732-.3-.577-1.083-.9-1.417-1.47s-.3-1.361-.659-1.918-.762-1.081-1.146-1.623-.809-1.04-1.214-1.568-.62-1.2-1.044-1.711-.936-.938-1.382-1.435-.97-.9-1.435-1.372c-.45-.475-.741-1.134-1.224-1.588s-1.271-.563-1.769-1-.391-1.265-.592-1.873-.932-1.247-.794-1.9a4.379 4.379 0 011.026-1.84 4.154 4.154 0 011.791-1.04 13.924 13.924 0 001.846-.321 13.294 13.294 0 001.521-1.079 12.444 12.444 0 001.462-1.11 12.007 12.007 0 001.462-1.167c.4-.463.45-1.187.786-1.711s.944-.878 1.2-1.437a113.722 113.722 0 011.181-3.562 13 13 0 00.153-1.877 13.9 13.9 0 00-.041-1.9 13.315 13.315 0 00-.624-1.808 9.447 9.447 0 00-1.55-3.406 13.266 13.266 0 00-1.144-1.486 14.924 14.924 0 00-1.5-1.126c-.471-.409-.671-1.191-1.187-1.527a14.855 14.855 0 00-1.756-.743 12.534 12.534 0 00-1.711-.809 12.882 12.882 0 00-1.853-.45 13.433 13.433 0 00-1.9.012c-.628 0-1.21.487-1.818.573s-1.308-.192-1.9-.023-.987.89-1.544 1.142a13.514 13.514 0 00-1.685.716 11.974 11.974 0 00-1.507 1.056 13.478 13.478 0 00-1.312 1.3c-.409.469-1.042.778-1.384 1.31a14.6 14.6 0 00-.561 1.812c-.258.571-.837 1.024-1.011 1.621s.26 1.314.17 1.934c-.088.6-.61 1.173-.61 1.81a13.061 13.061 0 00.1 1.9 13.42 13.42 0 00.688 1.779 3.683 3.683 0 01-.278 1.91c-.154.628-.105 1.415-.581 1.892a3.883 3.883 0 01-1.8.872 3.951 3.951 0 01-2.01.145c-.616-.178-1.136-.7-1.762-.85s-1.351.192-1.982.059-1.132-.858-1.767-.977-1.349.358-1.978.266-1.261-.143-1.9-.219-1.218-.649-1.855-.7-1.288.029-1.93-.006-1.284.07-1.928.051-1.277.051-1.92.051c-.677 0-1.351-.475-2.018-.454s-1.351.127-2.018.162-1.3.667-1.965.725-1.368-.219-2.035-.137-1.326.213-1.986.315-1.349.108-2 .235-1.3.36-1.953.5-1.283.411-1.926.589-1.269.428-1.9.622a3.9 3.9 0 01-1.99-.307 3.776 3.776 0 01-1.851-.719 3.837 3.837 0 01-.86-1.826 3.607 3.607 0 01.344-1.887 13.524 13.524 0 00.272-2 13.239 13.239 0 00.291-1.992 12.55 12.55 0 00-.371-1.853 12.389 12.389 0 00-.338-1.838 13.1 13.1 0 00-.661-1.752 13.877 13.877 0 00-.934-1.6 14.963 14.963 0 00-.87-1.7 15.529 15.529 0 00-1.486-1.185 14.094 14.094 0 00-1.505-1.11 15.2 15.2 0 00-1.542-1.11 12.553 12.553 0 00-1.8-.612 10.405 10.405 0 00-3.738-.616 13.112 13.112 0 00-1.889.227c-.622.086-1.134.639-1.724.815s-1.38-.1-1.941.152a16.619 16.619 0 00-1.611 1.017 14.006 14.006 0 00-1.351 1.314 15.771 15.771 0 00-1.394 1.249 14.118 14.118 0 00-1 1.582 12.743 12.743 0 00-.655 1.728c-.256.569-1.093.923-1.271 1.519s.33 1.349.241 1.963a12.847 12.847 0 00-.309 1.816 12.713 12.713 0 00.051 1.894 12.394 12.394 0 00.643 1.793 13.031 13.031 0 00.495 1.832 13.21 13.21 0 001.062 1.566 12.826 12.826 0 001.236 1.4c.426.469.471 1.337.958 1.746a12.976 12.976 0 001.562 1.148 12.562 12.562 0 001.789.755 13.649 13.649 0 001.806.673c.655.17 1.456.166 1.912.631a4 4 0 01.741 1.9 3.929 3.929 0 01.168 2.014 4.01 4.01 0 01-1.238 1.611c-.491.44-1.245.606-1.709 1.052-.479.457-.575 1.3-1.024 1.771s-1.032.833-1.462 1.318c-.438.5-.706 1.13-1.112 1.632-.422.512-.7 1.1-1.1 1.628s-.86.991-1.23 1.523c-.373.551-.657 1.138-1 1.687s-1.189.819-1.513 1.39-.395 1.288-.692 1.865-.575 1.189-.852 1.773-.487 1.226-.739 1.824c-.26.614-.766 1.114-1 1.728s-.6 1.2-.8 1.808c-.207.641-.049 1.376-.231 1.994-.178.653-.3 1.294-.452 1.916-.156.645-.045 1.343-.17 1.973-.129.651-.931 1.181-1.026 1.822-.095.653.075 1.677.005 2.322z"/></g></g></g><g data-name="グループ 18579"><g data-name="グループ 18578"><g data-name="グループ 18577"><path data-name="パス 331433" d="M210.303 24.399a1.432 1.432 0 01-1.394 1.435c-.479 0-.479.037-.964.037s-.481.084-.966.084-.483-.094-.964-.094-.483.088-.966.088-.487-.164-.968-.164-.487-.027-.97-.027a1.429 1.429 0 01-1.06-.293 1.468 1.468 0 01-.28-1.066c0-.485-.205-.485-.205-.962s.072-.485.072-.974-.074-.485-.074-.964.074-.485.074-.97.066-.487.066-.968-.033-.489-.033-.966a1.5 1.5 0 01.393-1.06 1.474 1.474 0 011.046-.4c.477 0 .477.082.966.082s.481-.012.968-.012.479-.035.962-.035.483.023.968.023.483-.078.966-.078h.968a1.407 1.407 0 01.97.495 1.3 1.3 0 01.366.979c0 .477.016.477.016.962v.966c0 .485.113.487.113.968s-.127.483-.127.962.057.491.041.978.016.49.016.974z"/></g></g></g><g data-name="グループ 18588"><g data-name="グループ 18584"><g data-name="グループ 18581"><g data-name="グループ 18580"><path data-name="パス 331434" d="M279.898 24.4a1.524 1.524 0 01-.256 1.091 1.606 1.606 0 01-1.087.426c-.485 0-.485-.072-.966-.072s-.485.068-.968.068-.483-.127-.966-.127-.479.006-.968.006-.477-.037-.966-.037-.485-.014-.968-.014a1.264 1.264 0 01-.962-.369 1.428 1.428 0 01-.5-.972c0-.485-.068-.485-.068-.962s.149-.485.149-.974-.155-.485-.155-.964-.016-.485-.016-.97.035-.487.035-.968v-.966a1.521 1.521 0 01.508-1.021 1.348 1.348 0 011.009-.342c.483 0 .483-.156.966-.156s.479.014.962.014.485.078.966.078.485-.088.968-.088.485-.047.97-.047.481.149.97.149a1.428 1.428 0 011.028.373 1.488 1.488 0 01.448 1.04c0 .477.016.477.016.962s-.094.481-.094.966.084.487.084.968-.076.483-.076.962.125.5.092.983a8.194 8.194 0 00-.155.963z"/></g></g><g data-name="グループ 18583"><g data-name="グループ 18582"><path data-name="パス 331435" d="M279.898 24.4a1.524 1.524 0 01-.256 1.091 1.606 1.606 0 01-1.087.426c-.485 0-.485-.072-.966-.072s-.485.068-.968.068-.483-.127-.966-.127-.479.006-.968.006-.477-.037-.966-.037-.485-.014-.968-.014a1.264 1.264 0 01-.962-.369 1.428 1.428 0 01-.5-.972c0-.485-.068-.485-.068-.962s.149-.485.149-.974-.155-.485-.155-.964-.016-.485-.016-.97.035-.487.035-.968v-.966a1.521 1.521 0 01.508-1.021 1.348 1.348 0 011.009-.342c.483 0 .483-.156.966-.156s.479.014.962.014.485.078.966.078.485-.088.968-.088.485-.047.97-.047.481.149.97.149a1.428 1.428 0 011.028.373 1.488 1.488 0 01.448 1.04c0 .477.016.477.016.962s-.094.481-.094.966.084.487.084.968-.076.483-.076.962.125.5.092.983a8.194 8.194 0 00-.155.963z"/></g></g></g><g data-name="グループ 18587"><g data-name="グループ 18586"><g data-name="グループ 18585"><path data-name="パス 331436" d="M279.898 24.4a1.524 1.524 0 01-.256 1.091 1.606 1.606 0 01-1.087.426c-.485 0-.485-.072-.966-.072s-.485.068-.968.068-.483-.127-.966-.127-.479.006-.968.006-.477-.037-.966-.037-.485-.014-.968-.014a1.264 1.264 0 01-.962-.369 1.428 1.428 0 01-.5-.972c0-.485-.068-.485-.068-.962s.149-.485.149-.974-.155-.485-.155-.964-.016-.485-.016-.97.035-.487.035-.968v-.966a1.521 1.521 0 01.508-1.021 1.348 1.348 0 011.009-.342c.483 0 .483-.156.966-.156s.479.014.962.014.485.078.966.078.485-.088.968-.088.485-.047.97-.047.481.149.97.149a1.428 1.428 0 011.028.373 1.488 1.488 0 01.448 1.04c0 .477.016.477.016.962s-.094.481-.094.966.084.487.084.968-.076.483-.076.962.125.5.092.983a8.194 8.194 0 00-.155.963z"/></g></g></g></g></g><g data-name="グループ 18590"><path data-name="パス 331437" d="M172.814 89.058c.354.712.42.434.9 1.325.211.393.485.845.786 1.369.244.422.377.962.676 1.451.262.426.426.954.729 1.423.276.428.723.768 1.038 1.224.289.424.559.882.878 1.326.307.418.651.827.979 1.255s.518.935.858 1.355c.332.4.708.788 1.062 1.195s.7.8 1.064 1.189.946.561 1.324.94.553.95.942 1.314.719.8 1.124 1.148.979.481 1.4.807.833.655 1.265.964.956.471 1.406.755.821.688 1.286.946.948.469 1.425.7 1.007.334 1.5.528.921.561 1.431.723.97.5 1.492.622 1.05.233 1.578.313 1.1-.276 1.631-.238 1.044.326 1.58.321 1.064-.016 1.6-.067 1.048-.17 1.582-.264c.514-.086 1.026-.242 1.552-.371.545-.135 1.048-.326 1.539-.493.536-.178 1.126-.152 1.6-.362a13.213 13.213 0 001.4-.833 11.166 11.166 0 001.333-.933 9.194 9.194 0 001.183-1.13 8.447 8.447 0 00.966-1.326 8.611 8.611 0 00.6-1.527 9.706 9.706 0 00.442-1.583 10.9 10.9 0 00.072-1.642c-.014-.532-.452-1.032-.542-1.572a14.43 14.43 0 00-.3-1.568c-.145-.512-.027-1.118-.223-1.627s-.432-.991-.667-1.482-.473-.977-.741-1.445-.849-.737-1.148-1.185-.346-1.077-.671-1.5-.888-.673-1.237-1.073-.54-.981-.915-1.355-.743-.809-1.142-1.155c-.422-.356-.893-.651-1.322-.958a13.785 13.785 0 00-1.509-.629 11.7 11.7 0 00-1.4-.786 7.98 7.98 0 00-1.548-.366 5.35 5.35 0 00-1.558-.078 4.342 4.342 0 00-1.586.2 12.19 12.19 0 01-1.486.563 10.61 10.61 0 01-1.521.436 9.82 9.82 0 01-1.564.321 8.572 8.572 0 01-1.587-.153 7.98 7.98 0 01-1.509-.491 9.793 9.793 0 01-1.535-.481 10.07 10.07 0 01-1.316-.929 8.97 8.97 0 01-.975-1.292c-.643-.706-.872-.348-1.243-1.05-.379-.721-.092-.868-.457-1.6s-.327-.755-.692-1.484-.463-.686-.829-1.421-.586-.628-.934-1.37c-.342-.721.078-.686-.1-1.63a9.3 9.3 0 01-.323-1.548 9.415 9.415 0 01-.106-1.607 9.557 9.557 0 01.461-1.539 8.193 8.193 0 01.4-1.572 9.046 9.046 0 01.884-1.367 9.573 9.573 0 011.128-1.173 12.809 12.809 0 011.423-.786 12.233 12.233 0 011.312-.929 4.4 4.4 0 001.429-.8 6.321 6.321 0 00.639-1.511 8.279 8.279 0 00.808-1.421 11.953 11.953 0 00.321-1.6 15.744 15.744 0 00-.02-1.628c.014-.522-.049-1.06-.082-1.609-.037-.528-.217-1.044-.291-1.584s.084-1.1-.027-1.634-.233-1.058-.377-1.578-.608-.932-.788-1.441-.033-1.142-.248-1.634-.733-.852-.98-1.327-.465-.97-.751-1.417c-.293-.463-.563-.929-.888-1.347a14.514 14.514 0 00-.989-1.284 12.239 12.239 0 00-1.355-.889 10.809 10.809 0 00-1.214-1.062 9.245 9.245 0 00-1.478-.624 8.1 8.1 0 00-1.576-.248 7.555 7.555 0 00-1.576-.022 8.617 8.617 0 00-1.593.061 10.611 10.611 0 00-1.554.424 13.338 13.338 0 00-1.462.7c-.446.248-.94.489-1.4.808-.422.3-.9.581-1.331.934s-.659.88-1.038 1.243-.743.757-1.091 1.146c-.364.4-.766.749-1.087 1.165s-.549.915-.831 1.359-.5.929-.747 1.394-.458.946-.671 1.429-.79.835-.966 1.335-.131 1.081-.27 1.593-.25 1.032-.354 1.552-.076 1.062-.152 1.587-.338 1.032-.381 1.56.207 1.073.2 1.6-.145 1.06-.133 1.59-.17 1.071-.137 1.6.111 1.064.168 1.589.076 1.069.152 1.591.383 1.022.479 1.541-.027 1.095.084 1.607c.113.528.276 1.042.4 1.55.133.524.205 1.064.35 1.564.145.526.561.96.717 1.456.162.524.426.993.59 1.484.18.522.254 1.056.43 1.533.2.526.479.983.665 1.451.209.532.084 1.159.278 1.605.239.559.581 1 .77 1.408.422.907.346.71.7 1.41s.516.62.868 1.318.416.672.766 1.376.135.813.485 1.519.5.632.843 1.347.203.779.551 1.488z" fill="#ed8c00"/><path data-name="パス 331438" d="M201.021 115.607c-.569 0-1.146-.025-1.7-.065l-.366-.022c-.51-.035-1.028-.07-1.527-.145a7.132 7.132 0 01-1.65-.5 2.164 2.164 0 00-.223-.088 7.753 7.753 0 01-1.372-.491c-.1-.043-.2-.088-.3-.125-.141-.041-.289-.08-.434-.119a10.907 10.907 0 01-1.318-.407c-.151-.061-.3-.113-.446-.164a12.316 12.316 0 01-1.261-.5l-.393-.18c-.418-.192-.833-.381-1.239-.606a26.47 26.47 0 01-1.247-.757l-.287-.184c-.139-.088-.283-.17-.428-.252a15.69 15.69 0 01-1.089-.682l-.221-.156a29.586 29.586 0 01-1.206-.882 16.78 16.78 0 01-.946-.813c-.125-.113-.25-.231-.383-.34a7.825 7.825 0 01-1.032-1.114c-.057-.07-.111-.143-.172-.211-.049-.039-.145-.1-.231-.166a8.6 8.6 0 01-1.083-.9c-.282-.282-.542-.575-.806-.868l-.354-.4a2.73 2.73 0 00-.2-.149 8.154 8.154 0 01-1.085-1.007 10.114 10.114 0 01-.786-1.071 3.671 3.671 0 00-.215-.313c-.074-.086-.166-.166-.252-.25a8.9 8.9 0 01-.911-.989 6.179 6.179 0 01-.888-1.713v-.014c-.064-.076-.127-.156-.194-.231-.217-.268-.43-.532-.626-.807l-.117-.108a6.309 6.309 0 01-1.112-1.261c-.326-.5-.618-.978-.9-1.431a6.517 6.517 0 01-.7-1.681l-.1-.213c-.25-.434-.471-.821-.655-1.165a5.308 5.308 0 01-.987-1.423 5.414 5.414 0 01-.518-1.666 5.919 5.919 0 01-.786-1.189 12.898 12.898 0 01-.418-.915c-.059-.129-.113-.262-.242-.516l-.699-1.404a6.311 6.311 0 01-.454-1.14 5.173 5.173 0 01-1.185-1.672 6.281 6.281 0 01-.452-1.5 2.45 2.45 0 00-.053-.248 2.456 2.456 0 01-.131-.219 11.371 11.371 0 01-.584-1.2 8.072 8.072 0 01-.379-1.32 3.249 3.249 0 00-.074-.325c-.119-.319-.225-.661-.334-1.011-.045-.149-.094-.3-.143-.452l-.076-.125a6.634 6.634 0 01-.719-1.529 6.144 6.144 0 01-.25-1.765l-.02-.037a7.369 7.369 0 01-.581-1.49c-.094-.383-.16-.776-.221-1.171-.025-.168-.049-.338-.086-.506a3.017 3.017 0 00-.1-.319 8.911 8.911 0 01-.371-1.327 7.437 7.437 0 01-.088-1.568c0-.084.008-.164 0-.248-.045-.307-.078-.7-.106-1.1-.014-.123-.018-.248-.029-.371l-.035-.1a6.282 6.282 0 01-.411-1.771c-.01-.139-.033-.282-.055-.424a11.26 11.26 0 01-.131-1.328 6.814 6.814 0 01.207-1.689l.02-.09-.014-.088a6.773 6.773 0 01-.106-1.7c.035-.434.106-.872.174-1.3l.074-.483a9.238 9.238 0 01.326-1.4c.035-.127.078-.252.106-.379a7.707 7.707 0 01.455-1.439c.039-.1.08-.2.112-.3l.107-.424c.115-.454.231-.907.387-1.349.2-.575.411-1.153.659-1.724a10.3 10.3 0 01.7-1.273c.072-.119.149-.235.215-.358.293-.547.616-1.067.96-1.6l.19-.3c.266-.426.532-.845.845-1.251a11.291 11.291 0 01.931-1.056c.055-.053.108-.109.162-.164l.006-.018a5.735 5.735 0 011.2-1.72l.11-.1c.4-.389.829-.786 1.277-1.153a21.38 21.38 0 011.435-1.058 6.01 6.01 0 011.891-.866 5.147 5.147 0 011.726-1.183 22.382 22.382 0 004.311-.9 7.139 7.139 0 012 .2c.1.02.192.041.287.053s.215.023.321.031a7.35 7.35 0 011.953.362 11.837 11.837 0 012.035.964 13.9 13.9 0 011.791 1.2 12.591 12.591 0 011.283 1.22l.4.418a13.887 13.887 0 011.163 1.3c.381.489.759 1.026 1.118 1.591.08.127.164.246.25.37a10.963 10.963 0 01.784 1.239 13.14 13.14 0 01.569 1.3c.057.145.11.291.174.434a6.338 6.338 0 01.436 1.648 5.277 5.277 0 01.94 1.8 6.856 6.856 0 01.235 1.672c.006.086.006.17.014.254l.092.379c.109.454.213.905.278 1.361.067.485.094.972.119 1.453l.022.416a9.126 9.126 0 01-.053 1.539 4.526 4.526 0 00-.031.368c0-.029.018.057.031.135a6.333 6.333 0 01.07 1.855 6.607 6.607 0 01-.551 1.865l-.082.209a11.6 11.6 0 01-.747 2.045 2.646 2.646 0 00-.1.256 6.184 6.184 0 01-1.153 2.022 8.01 8.01 0 01-2.352 1.771 9.425 9.425 0 01-1.093.444c-.045.016-.088.027-.123.041-.1.082-.225.2-.326.3-.135.131-.268.256-.4.377-.194.172-.4.334-.594.5l-.039.027a6.246 6.246 0 01-.428 1.071 8.964 8.964 0 01-.483.805c-.031.051-.065.1-.1.152a14.648 14.648 0 01-.219.637 6.157 6.157 0 01.145 2.143 5.44 5.44 0 01.42.739c.268.563.319.665.51 1.046l.921 1.816a5.172 5.172 0 01.514 1.7 5.355 5.355 0 01.839 1.187c.137.27.233.477.3.645a7.885 7.885 0 00.809.725.638.638 0 01.2.08c.246.121.493.248.737.391a6.006 6.006 0 01.864.62 8.026 8.026 0 01.868.084c.258.043.518.1.782.164.084.021.172.045.26.061h.211a5.656 5.656 0 00.714-.039 7.216 7.216 0 00.891-.264l.1-.07a8.067 8.067 0 011.083-.671 7.7 7.7 0 012.819-.884 5.438 5.438 0 012.526.456 5.606 5.606 0 012.293.37 14.938 14.938 0 011.834.929 7.541 7.541 0 011.37 1.028c.08.068.155.145.241.209.037.021.115.059.194.1a7.45 7.45 0 011.433.929 6.019 6.019 0 011.22 1.484l.02.029c.02.014.041.027.061.043a6.8 6.8 0 011.308 1.124c.1.111.209.219.315.328a11.963 11.963 0 01.931 1.04c.325.422.622.866.917 1.312l.411.6c.274.383.538.768.766 1.167a9.573 9.573 0 01.612 1.345c.053.127.1.254.153.374a6.145 6.145 0 01.514 1.767 5.677 5.677 0 01.917 1.81 19.406 19.406 0 01.452 1.969 8.753 8.753 0 01.08 1.707c0 .125-.006.248 0 .369a11.529 11.529 0 01-.133 1.91l-.033.242c-.01.1-.014.205-.02.307a7.246 7.246 0 01-.3 1.926 6.1 6.1 0 01-1.078 1.922l-.127.166a10.512 10.512 0 01-1.21 1.822l-.172.209a9.839 9.839 0 01-1.341 1.406c-.07.064-.135.133-.2.2a7.654 7.654 0 01-1.457 1.191 16.534 16.534 0 01-1.836.931 8.26 8.26 0 01-1.49.481c-.131.033-.262.063-.393.108a9.575 9.575 0 01-1.4.334c-.147.025-.3.049-.444.088s-.3.08-.44.127a11.478 11.478 0 01-1.357.338c-.626.109-1.247.172-1.863.225a1.424 1.424 0 01-.168.049 6.812 6.812 0 01-1.687.256zm-2.411-7.163c.26.033.518.047.776.063l.428.027c.387.025.79.047 1.191.047.057-.014.111-.029.162-.043a7.946 7.946 0 011.271-.235c.436-.041.872-.08 1.31-.152a3.8 3.8 0 00.489-.137c.264-.078.522-.156.794-.225.3-.074.6-.129.888-.182a3.451 3.451 0 00.424-.084c.305-.1.618-.184.931-.262a2.823 2.823 0 00.348-.094 9.586 9.586 0 001.023-.506.8.8 0 01.141-.16c.217-.217.434-.424.655-.61a4.26 4.26 0 00.407-.463l.235-.284a4.862 4.862 0 00.479-.76 6.861 6.861 0 01.586-.886c.012-.284.031-.569.067-.85l.037-.293a5.427 5.427 0 00.076-.77c-.006-.238 0-.487 0-.737a4.189 4.189 0 000-.444 9.788 9.788 0 00-.192-.86 6.063 6.063 0 01-.811-1.439 7.194 7.194 0 01-.354-1.41l-.018-.107c-.1-.221-.186-.446-.272-.669a3.573 3.573 0 00-.164-.4c-.111-.2-.256-.389-.391-.585s-.26-.364-.385-.549l-.152-.233a20.393 20.393 0 00-.633-.917 4.994 4.994 0 00-.371-.393c-.168-.172-.336-.344-.5-.522a1.8 1.8 0 00-.147-.1 7.6 7.6 0 01-1.038-.841 6.564 6.564 0 01-.909-1.167l-.021-.012a8.586 8.586 0 01-1.017-.61 9.516 9.516 0 01-.846-.7c-.072-.064-.145-.133-.219-.192-.19-.1-.413-.227-.61-.329a6.444 6.444 0 01-1.282-.1 5.783 5.783 0 01-.852-.235l-.027.014a4.183 4.183 0 00-.178.127 6.559 6.559 0 01-1.6.884 14.8 14.8 0 01-2.057.6 10.5 10.5 0 01-1.975.178h-.246a7.281 7.281 0 01-1.99-.252c-.09-.022-.178-.045-.264-.061s-.164-.01-.254-.014a6.472 6.472 0 01-2-.346 6 6 0 01-1.91-1.193l-.084-.072c-.08-.043-.162-.082-.24-.121a7.868 7.868 0 01-1.511-.927 14.968 14.968 0 01-1.562-1.447 5.649 5.649 0 01-1.236-1.9 5.362 5.362 0 01-1.152-1.558 4.942 4.942 0 01-.54-2.033l-.725-1.427c-.186-.371-.258-.512-.461-.94a4.8 4.8 0 01-1.212-2.5 5.87 5.87 0 010-1.965c.006-.045.014-.088.022-.137l-.016-.059a6.3 6.3 0 01-.164-2.149 8.577 8.577 0 01.459-1.81c.043-.119.086-.238.123-.36a6.74 6.74 0 01.866-1.761c.033-.053.072-.1.106-.154l.02-.076a5.877 5.877 0 011.013-2.08 7.843 7.843 0 011.324-1.271c.1-.082.2-.16.3-.246l.242-.223a9.392 9.392 0 011.384-1.148 6.805 6.805 0 011.605-.747c.088-.031.18-.057.266-.1a.749.749 0 00.088-.051c.1-.256.2-.516.326-.768a4.789 4.789 0 00.3-.866 7.511 7.511 0 01.379-1.048 7.033 7.033 0 01-.1-1.279c.006-.3.033-.6.063-.909a4.028 4.028 0 00.035-.409l-.029-.522c-.014-.27-.023-.541-.059-.811-.033-.242-.1-.477-.152-.714-.049-.209-.1-.42-.145-.631a7.709 7.709 0 01-.141-1.165 5.426 5.426 0 01-.78-1.427 7.026 7.026 0 01-.325-1.419l-.018-.129c-.07-.174-.141-.344-.2-.516-.076-.192-.145-.387-.236-.567a4.126 4.126 0 00-.309-.461c-.152-.217-.3-.432-.44-.651a13.339 13.339 0 00-.735-1.048 7.212 7.212 0 00-.626-.68l-.489-.506a5.514 5.514 0 00-.545-.543 6.662 6.662 0 00-.886-.592 6.488 6.488 0 00-.8-.414c-.086-.01-.174-.012-.26-.022-.252-.02-.506-.039-.755-.074s-.514-.088-.77-.143a6.273 6.273 0 01-1.071.364 5.2 5.2 0 01-1.077.137 5.3 5.3 0 01-.97.7 6.125 6.125 0 01-1.505.565c-.276.19-.557.387-.829.608s-.51.45-.751.674a5.862 5.862 0 01-.919 1.421c-.158.176-.325.35-.493.52a4.717 4.717 0 00-.391.426 8.322 8.322 0 00-.475.719l-.231.366c-.244.375-.473.731-.676 1.112-.139.26-.289.51-.442.753a3.809 3.809 0 00-.225.381c-.18.407-.324.819-.471 1.238-.08.237-.135.473-.194.706-.049.2-.1.391-.151.588a9.99 9.99 0 01-.36 1.036 2.908 2.908 0 00-.111.3c-.055.278-.147.6-.242.917-.035.131-.08.256-.1.385l-.1.649c-.035.2-.07.4-.094.6.006.047.016.094.023.143a6.4 6.4 0 01-.086 2.843l-.027.125c.012.108.033.213.047.321.039.254.074.506.1.761l.035.086a6.8 6.8 0 01.387 1.56c.027.258.047.514.069.768.016.229.027.457.061.682a7.782 7.782 0 01.059 1.382v.166c.022.074.055.16.084.246a10.618 10.618 0 01.328 1.11c.063.309.115.616.162.923.023.154.045.307.074.456.027.057.055.107.082.164a7.328 7.328 0 01.528 1.308 6.673 6.673 0 01.215 1.564 6.806 6.806 0 01.632 1.31c.088.252.162.5.244.753.068.233.139.456.219.674a8.7 8.7 0 01.346 1.255c.021.094.037.188.064.274s.121.225.2.364c.168.311.324.608.455.907a6.908 6.908 0 01.393 1.257 4.7 4.7 0 01.991 1.339 6.3 6.3 0 01.555 1.511l.692 1.4c.225.45.323.682.422.911.043.1.086.207.162.371a5.26 5.26 0 011.087 1.65 5.617 5.617 0 01.409 1.425 6.743 6.743 0 01.78 1.169c.154.3.344.618.551.983l.18.309a6.359 6.359 0 01.581 1.445l.037.127c.194.309.393.635.606.97l.07.066a6.675 6.675 0 011.085 1.2c.1.141.213.272.327.407.2.25.407.5.6.766a5.875 5.875 0 01.772 1.525l.088.084a10.279 10.279 0 01.813.862c.227.283.436.585.637.89a2.871 2.871 0 00.229.33c.006-.014.074.049.151.111a7.842 7.842 0 01.972.87c.154.164.307.338.459.508.172.194.346.393.534.581.057.049.147.109.237.174a9.389 9.389 0 01.909.735 8.053 8.053 0 01.85.942 2.692 2.692 0 00.178.215c.113.1.291.254.471.416s.354.328.542.477c.3.229.612.45.927.671l.235.162a6.659 6.659 0 00.571.352c.213.125.424.248.635.383l.315.2c.287.184.575.368.876.534.235.133.495.246.749.362l.489.227c.2.092.395.154.6.229.225.08.452.16.675.248a3.892 3.892 0 00.516.147c.26.068.514.137.774.217.334.108.659.242.989.385a2.928 2.928 0 00.3.125 7.565 7.565 0 011.171.4c.04.03.084.053.135.071zm-.121-.016zm-24.42-10.614v.008zm35.98-1.026zm-38.657-3.257l.008.014zm35.611-1.306l.006.006zm-31.116-4.68l-3.155 1.55 3.157-1.543zm18.006-4.725h-.027zm-7.916-11.969zm.094-.244zm-19.024-8.631zm19.673-1.378zm-.735-11.8zm-11.492-4.813l-.012.006zm-7.988-1.814z"/></g></g></g></svg>