<svg xmlns="http://www.w3.org/2000/svg" width="341.672" height="66.461"><g data-name="グループ 18817"><g data-name="グループ 17952"><g data-name="グループ 17950"><path data-name="パス 331817" d="M.2 64.657c2.64-.1 5.84-.4 7.02-.54v1.64h1.9v-9.8h9.78v-1.68H0v1.68h1.3v6.84H0zm7.02-6.02v1.2H3.2v-1.2zm0 3.84c-1.98.2-2.82.24-4.02.28v-1.44h4.02zm0-6.52v1.2H3.2v-1.2zm-5.46-2.66h15.28v-5.76H1.76zm13.2-4.3v.94H3.86v-.94zm0 2.04v.94H3.86v-.94zm-4.58 8.5a8.686 8.686 0 002.08 3.14 12.856 12.856 0 01-3.16 1.32l.76 1.76a12.079 12.079 0 003.92-1.82 12.917 12.917 0 003.86 1.82l1.06-1.86a13.537 13.537 0 01-3.38-1.26 9.945 9.945 0 002.54-3.92v-1.72H9.7v1.68h6.24a7.627 7.627 0 01-1.96 2.88 7.517 7.517 0 01-1.82-2.48zm10.74 6.04c4.04-1.46 6.98-5.18 8.36-8.82.68 2.38 2.28 6.24 8.34 8.94l1.42-2.2c-5.2-1.42-7.58-5.42-8.4-9.68h7.92v-2.12h-8.3v-4.78h-2.22v4.78h-8.12v2.12h7.92a13.207 13.207 0 01-8.32 9.68z" fill="#2e3032"/><path data-name="パス 331818" d="M155.36 56.449a24.881 24.881 0 01-.5 5.382 1.128 1.128 0 01-1.224.972h-2.916l.522 2.808h3.708a2.433 2.433 0 002.43-1.874c.234-.7.882-3.762.918-9.9h-7.866v-2.1h9.328v-2.664h-17v2.664h4.846v1.728c0 4.64-1.346 7.52-5.202 9.68l1.818 2.52a12.515 12.515 0 005.922-9.216zm19.35 5.814c0 .27-.018.558-.54.558h-2.48l.486 2.79h3.366c1.8 0 1.962-1.242 1.962-2.088V49.051h-15.588v16.56h2.772v-6.552h10.026zm-3.668-10.566h3.672v4.77h-3.672zm-6.354 0h3.672v4.77h-3.672z" fill="#009f44"/><path data-name="パス 331816" d="M66.893 30.76h-5.65c-.75 5.35-5.3 7.05-10.25 6.95v5.35h8.8v22.7h7.1zm10.5 17.35c0 13.95 5.9 18.35 12.8 18.35 7 0 12.9-4.4 12.9-18.35 0-13.65-5.9-18.05-12.9-18.05-6.9 0-12.8 4.4-12.8 18.05zm7.1 0c0-3.65 0-12.2 5.7-12.2 5.8 0 5.8 8.55 5.8 12.2 0 3.95 0 12.5-5.8 12.5-5.7 0-5.7-8.55-5.7-12.5zm21.95 0c0 13.95 5.9 18.35 12.8 18.35 7 0 12.9-4.4 12.9-18.35 0-13.65-5.9-18.05-12.9-18.05-6.9 0-12.8 4.4-12.8 18.05zm7.1 0c0-3.65 0-12.2 5.7-12.2 5.8 0 5.8 8.55 5.8 12.2 0 3.95 0 12.5-5.8 12.5-5.7 0-5.7-8.55-5.7-12.5z" fill="#009f44"/></g><path data-name="パス 331822" d="M81.919 7.259v-2.64a27.475 27.475 0 005.48-1.36c.36-.12.44-.16.66-.22l-1.64-1.94c-1.02.76-4.48 1.64-6.74 1.7a23.249 23.249 0 01.12 3.12c0 7.58-.5 10.2-2.4 12.52a9.228 9.228 0 011.98 1.32 12.186 12.186 0 001.78-4.02 26.1 26.1 0 00.74-6.46h2.14v8.06a14.227 14.227 0 01-.12 2.36h2.34a13.8 13.8 0 01-.12-2.36v-8.06h.5a11.4 11.4 0 011.6.08v-2.22a9.892 9.892 0 01-1.82.12zm-8.32 2.34v1.42h-2.02a11 11 0 01-1.86-.1v2.12a11.194 11.194 0 011.82-.1h1.3a10.3 10.3 0 01-3.5 3.44 7.5 7.5 0 011.02 2.04 10 10 0 003.3-3.7c-.04.46-.06.98-.06 1.36v2a11.658 11.658 0 01-.1 1.58h2.3a9.582 9.582 0 01-.12-1.66v-2c0-.1-.02-.72-.02-.78-.02-.52-.02-.52-.04-.78a10.144 10.144 0 001.96 2.16 12.106 12.106 0 01.96-1.9 8.772 8.772 0 01-2.06-1.76h.74a14.71 14.71 0 011.82.08v-2.1a11.045 11.045 0 01-1.82.1h-1.54v-1.42h1.62a15.281 15.281 0 011.84.08v-2.14a11.019 11.019 0 01-1.84.1h-.4a7.19 7.19 0 00.44-.88 3.888 3.888 0 01.34-.74c.18-.44.18-.44.3-.7l-1.7-.48h.82a15.8 15.8 0 011.88.08v-2.14a11 11 0 01-1.86.1h-1.36v-.3a7.332 7.332 0 01.1-1.46h-2.42a7.706 7.706 0 01.1 1.46v.3h-1.52a11.515 11.515 0 01-1.92-.1v2.14a15.592 15.592 0 011.88-.08h.94l-1.76.44a8.351 8.351 0 01.88 2.36h-.48a10.851 10.851 0 01-1.86-.1v2.14a14.71 14.71 0 011.82-.08zm2.4-4.76a11.232 11.232 0 01-1.12 2.8h-2.74l1.78-.48a8.855 8.855 0 00-.86-2.32zm27.5 1.24l1.56-.64c-.42-.7-.44-.74-.68-1.08h1.48a15.53 15.53 0 012.08.1v-2.04a12.827 12.827 0 01-2.18.12h-3.86c.28-.64.46-1.04.54-1.18l-2.12-.4a7.54 7.54 0 01-1.6 3.06v-1.62a9.654 9.654 0 01-1.96.12h-2.58c.38-.72.58-1.1.62-1.14l-2.16-.4a8.247 8.247 0 01-3.06 4.12 7.043 7.043 0 011.52 1.2c-.2-.02-.28-.02-.56-.06v1.88a12.034 12.034 0 011.64-.08h.84v1.86a22.968 22.968 0 01-3.14.4l.44 2c.38-.08.38-.08 1.06-.22 1-.2 1.54-.32 2.48-.56a31.967 31.967 0 003.38-1 5.248 5.248 0 01-1.1.7 7.322 7.322 0 011.44 1.36v.46h-5.32a17.878 17.878 0 01-2.36-.12v2.06a20.483 20.483 0 012.38-.12h3.68a18.07 18.07 0 01-6.66 2.54 7.568 7.568 0 011.22 2.04 19.381 19.381 0 003.88-1.52 13.583 13.583 0 003.24-2.26c-.06.78-.06.98-.06 1.28v.96a9.067 9.067 0 01-.12 1.8h2.42a8.052 8.052 0 01-.12-1.8v-.98c-.02-.56-.04-1-.06-1.28a17.261 17.261 0 007.4 3.88 8.122 8.122 0 011.16-2.12 16.59 16.59 0 01-6.74-2.54h3.96a20.608 20.608 0 012.4.12v-2.06a19.218 19.218 0 01-2.4.12h-5.72a6.848 6.848 0 01.08-1.24h-1.08a4.775 4.775 0 001.36-2.58 9.973 9.973 0 011.56 2.3l1.42-1.06a20.431 20.431 0 00-1.76-2.34l-1.16.82a8.113 8.113 0 00.08-1.12h3.02v2.78c0 .7.12.98.54 1.2a4.025 4.025 0 001.8.24c2.06 0 2.36-.42 2.44-3.44a7.974 7.974 0 01-1.72-.74 1.417 1.417 0 00-.02.3l.02.22a8.483 8.483 0 01-.14 1.66c-.08.16-.18.2-.56.2-.4 0-.46-.04-.46-.36v-2.04a15.281 15.281 0 01.08-1.84 11.822 11.822 0 01-1.58.08zm-6.3 2.84c-1 .3-1.34.38-2.2.58v-1.46h.9a11.2 11.2 0 011.48.08v-1.88a10.456 10.456 0 01-1.64.08h-3.56c-.38 0-.48 0-.82-.02a12.88 12.88 0 001.7-1.96h1.02a8.647 8.647 0 01.88 1.8l1.92-.52c-.34-.64-.44-.8-.74-1.28h1.1a10.231 10.231 0 011.12.06c-.16.14-.26.24-.52.46a8.27 8.27 0 011.46 1.22 8.9 8.9 0 01-.96-.06 8.9 8.9 0 01.06 1.14c0 1.68-.28 2.56-1.1 3.3zm2.28-2.84a12.974 12.974 0 001.42-1.72h1.36a10.835 10.835 0 01.88 1.72h-3.66z" fill="#3b3938"/></g><g data-name="グループ 18814"><text transform="translate(266.961 18)" fill="#3b3938" font-size="20" font-family="HiraKakuProN-W6, Hiragino Kaku Gothic ProN" data-name="グループ 17955"><tspan x="-49.6" y="0">リフォーム</tspan></text><g data-name="グループ 17956"><path data-name="パス 331819" d="M192.234 64.658c2.64-.1 5.84-.4 7.02-.54v1.64h1.9v-9.8h9.78v-1.68h-18.9v1.68h1.3v6.84h-1.3zm7.02-6.02v1.2h-4.02v-1.2zm0 3.84c-1.98.2-2.82.24-4.02.28v-1.44h4.02zm0-6.52v1.2h-4.02v-1.2zm-5.46-2.66h15.28v-5.76h-15.28zm13.2-4.3v.94h-11.1v-.94zm0 2.04v.94h-11.1v-.94zm-4.58 8.5a8.686 8.686 0 002.08 3.14 12.856 12.856 0 01-3.16 1.32l.76 1.76a12.079 12.079 0 003.92-1.82 12.917 12.917 0 003.86 1.82l1.06-1.86a13.537 13.537 0 01-3.38-1.26 9.945 9.945 0 002.54-3.92v-1.72h-8.36v1.68h6.24a7.627 7.627 0 01-1.96 2.88 7.517 7.517 0 01-1.82-2.48zm10.74 6.04c4.04-1.46 6.98-5.18 8.36-8.82.68 2.38 2.28 6.24 8.34 8.94l1.42-2.2c-5.2-1.42-7.58-5.42-8.4-9.68h7.92v-2.12h-8.3v-4.78h-2.22v4.78h-8.12v2.12h7.92a13.207 13.207 0 01-8.32 9.68z" fill="#2e3032"/><path data-name="パス 331821" d="M319.527 56.45a24.881 24.881 0 01-.5 5.382 1.128 1.128 0 01-1.224.972h-2.916l.522 2.808h3.708a2.433 2.433 0 002.43-1.874c.234-.7.882-3.762.918-9.9h-7.866v-2.1h9.328v-2.664h-17v2.664h4.846v1.728c0 4.64-1.346 7.52-5.202 9.68l1.818 2.52a12.515 12.515 0 005.922-9.216zm19.35 5.814c0 .27-.018.558-.54.558h-2.48l.486 2.79h3.366c1.8 0 1.962-1.242 1.962-2.088V49.052h-15.588v16.56h2.772V59.06h10.026zm-3.668-10.566h3.672v4.77h-3.672zm-6.354 0h3.672v4.77h-3.672z" fill="#009f44"/><path data-name="パス 331820" d="M266.611 39.761c-.8-6.15-5.3-9.7-11.35-9.7-9.95 0-13.75 9.75-13.75 18.3 0 8.85 2.85 18.1 13.45 18.1 7.3 0 12.25-5.65 12.25-12.8a12.044 12.044 0 00-2.7-7.8 11.179 11.179 0 00-8.05-3.6 8.908 8.908 0 00-7.9 3.9l-.1-.1c.2-3.9 1.55-10.65 6.7-10.65a5.011 5.011 0 014.7 4.35zm-11.85 7.85c3.65 0 5.35 3.3 5.35 6.6 0 3.15-1.95 6.4-5.35 6.4-3.55 0-5.65-3.25-5.65-6.5 0-3.45 1.85-6.5 5.65-6.5zm15.8.5c0 13.95 5.9 18.35 12.8 18.35 7 0 12.9-4.4 12.9-18.35 0-13.65-5.9-18.05-12.9-18.05-6.9 0-12.8 4.4-12.8 18.05zm7.1 0c0-3.65 0-12.2 5.7-12.2 5.8 0 5.8 8.55 5.8 12.2 0 3.95 0 12.5-5.8 12.5-5.7 0-5.7-8.55-5.7-12.5z" fill="#009f44"/></g></g></g></svg>