<svg xmlns="http://www.w3.org/2000/svg" width="409.797" height="80.315"><g data-name="グループ 17990"><g data-name="グループ 17884"><path data-name="パス 331847" d="M2.31 62.903v7.08c-.924.066-1.54.11-1.914.11h-.4l.422 1.918c.792-.154 1.276-.22 2.9-.462 2.094-.286 2.292-.33 4.778-.766v.352a10.5 10.5 0 01-.132 2.134h2.068a11.149 11.149 0 01-.132-2.156v-8.21h7.942a12.371 12.371 0 012.2.132v-1.852a11.267 11.267 0 01-2.178.132H2.2a11 11 0 01-2.178-.132v1.848a12.13 12.13 0 012.156-.128zm1.826 0h3.96v1.232h-3.96zm0 2.618h3.96v1.276h-3.96zm0 2.662h3.96v1.078c-1.628.264-2.706.418-3.96.55zm13.816-4.18a10.285 10.285 0 01-1.672.088h-3.85a13.7 13.7 0 01-1.87-.088v1.738a12.408 12.408 0 011.606-.088h.682l-1.606.7a15.134 15.134 0 002.156 3.062 11.536 11.536 0 01-3.388 1.868 4.931 4.931 0 011.1 1.628 15.021 15.021 0 003.586-2.242 13.373 13.373 0 004.312 2.4 7.654 7.654 0 011.012-1.76 11.532 11.532 0 01-4.048-1.848 15.411 15.411 0 002.574-3.762 7.092 7.092 0 01.374-.638zm-1.408 1.65a9.786 9.786 0 01-1.892 2.662 8.955 8.955 0 01-1.782-2.662zm1.034-10.1a13.96 13.96 0 01.088-1.848c-.726.066-1.342.088-2.354.088H4.862a24.73 24.73 0 01-2.376-.088 14.39 14.39 0 01.088 1.848v3.014a14.835 14.835 0 01-.086 1.85c.726-.066 1.32-.088 2.31-.088h10.734c.814 0 1.54.022 2.134.066a13.6 13.6 0 01-.088-1.826zm-13.112-.284h11.222v1.122H4.466zm0 2.508h11.222v1.144H4.466zm34.54 2.618a16.854 16.854 0 012.618.154v-2.354a16.073 16.073 0 01-2.64.154h-6.16c.044-.836.044-1.386.066-2.42a14.19 14.19 0 01.154-2.486H30.58a14 14 0 01.154 2.42c0 .858-.022 1.408-.066 2.486h-5.68a15.852 15.852 0 01-2.662-.154v2.354a15.553 15.553 0 012.64-.154h5.5a12.031 12.031 0 01-2.728 6.71 14.27 14.27 0 01-5.918 4 6.112 6.112 0 011.3 1.936 16.368 16.368 0 005.038-3.278 13.707 13.707 0 003.916-6.666 16.73 16.73 0 003.19 5.544 18.2 18.2 0 005.744 4.382 7.608 7.608 0 011.364-2.112 14.9 14.9 0 01-6.336-4.576A15.576 15.576 0 0133 60.395z" fill="#3b3938"/><path data-name="パス 331848" d="M169.353 64.051a29.028 29.028 0 01-.588 6.279 1.316 1.316 0 01-1.428 1.134h-3.402l.609 3.276h4.321a2.839 2.839 0 002.84-2.184c.273-.819 1.029-4.389 1.071-11.55h-9.177v-2.457h10.878v-3.108h-19.824v3.108h5.649v2.016c0 5.422-1.575 8.778-6.069 11.298l2.121 2.94a14.6 14.6 0 006.911-10.752zm22.575 6.783c0 .315-.021.651-.63.651h-2.9l.567 3.255h3.927c2.1 0 2.289-1.449 2.289-2.436V55.42h-18.184v19.32h3.234v-7.644h11.7zm-4.284-12.327h4.284v5.565h-4.284zm-7.413 0h4.284v5.565h-4.284z" fill="#009f44"/><path data-name="パス 331846" d="M73.555 35.975h-6.328c-.84 5.992-5.936 7.9-11.48 7.784v5.992h9.856v25.424h7.952zm11.76 19.432c0 15.624 6.608 20.552 14.336 20.552 7.84 0 14.452-4.928 14.452-20.552 0-15.288-6.608-20.216-14.448-20.216-7.732 0-14.34 4.928-14.34 20.216zm7.952 0c0-4.088 0-13.664 6.384-13.664 6.5 0 6.5 9.576 6.5 13.664 0 4.424 0 14-6.5 14-6.384 0-6.384-9.576-6.384-14zm24.584 0c0 15.624 6.608 20.552 14.336 20.552 7.84 0 14.448-4.928 14.448-20.552 0-15.288-6.608-20.216-14.448-20.216-7.728 0-14.336 4.928-14.336 20.216zm7.952 0c0-4.088 0-13.664 6.384-13.664 6.5 0 6.5 9.576 6.5 13.664 0 4.424 0 14-6.5 14-6.384 0-6.384-9.576-6.384-14z" fill="#009f44"/></g><path data-name="パス 331850" d="M100.817 6.3V3.66a27.475 27.475 0 005.48-1.36c.36-.12.44-.16.66-.22l-1.64-1.94c-1.02.76-4.48 1.64-6.74 1.7a23.249 23.249 0 01.12 3.12c0 7.58-.5 10.2-2.4 12.52a9.228 9.228 0 011.98 1.32 12.186 12.186 0 001.78-4.02 26.1 26.1 0 00.74-6.46h2.14v8.06a14.227 14.227 0 01-.12 2.36h2.34a13.8 13.8 0 01-.12-2.36V8.32h.5a11.4 11.4 0 011.6.08V6.18a9.892 9.892 0 01-1.82.12zm-8.32 2.34v1.42h-2.02a11 11 0 01-1.86-.1v2.12a11.194 11.194 0 011.82-.1h1.3a10.3 10.3 0 01-3.5 3.44 7.5 7.5 0 011.02 2.04 10 10 0 003.3-3.7c-.04.46-.06.98-.06 1.36v2a11.658 11.658 0 01-.1 1.58h2.3a9.582 9.582 0 01-.12-1.66v-2c0-.1-.02-.72-.02-.78-.02-.52-.02-.52-.04-.78a10.144 10.144 0 001.96 2.16 12.106 12.106 0 01.96-1.9 8.772 8.772 0 01-2.06-1.76h.74a14.71 14.71 0 011.82.08v-2.1a11.045 11.045 0 01-1.82.1h-1.54V8.64h1.62a15.281 15.281 0 011.84.08V6.58a11.019 11.019 0 01-1.84.1h-.4a7.19 7.19 0 00.44-.88 3.888 3.888 0 01.34-.74c.18-.44.18-.44.3-.7l-1.7-.48h.82a15.8 15.8 0 011.88.08V1.82a11 11 0 01-1.86.1h-1.36v-.3a7.331 7.331 0 01.1-1.46h-2.42a7.706 7.706 0 01.1 1.46v.3h-1.52a11.515 11.515 0 01-1.92-.1v2.14a15.592 15.592 0 011.88-.08h.94l-1.76.44a8.351 8.351 0 01.88 2.36h-.48a10.851 10.851 0 01-1.86-.1v2.14a14.71 14.71 0 011.82-.08zm2.4-4.76a11.232 11.232 0 01-1.12 2.8h-2.74l1.78-.48a8.855 8.855 0 00-.86-2.32zm27.5 1.24l1.56-.64c-.42-.7-.44-.74-.68-1.08h1.48a15.53 15.53 0 012.08.1V1.46a12.827 12.827 0 01-2.18.12h-3.86c.28-.64.46-1.04.54-1.18l-2.12-.4a7.54 7.54 0 01-1.6 3.06V1.44a9.654 9.654 0 01-1.96.12h-2.58c.38-.72.58-1.1.62-1.14l-2.16-.4a8.248 8.248 0 01-3.06 4.12 7.043 7.043 0 011.52 1.2c-.2-.02-.28-.02-.56-.06v1.88a12.034 12.034 0 011.64-.08h.84v1.86a22.968 22.968 0 01-3.14.4l.44 2c.38-.08.38-.08 1.06-.22 1-.2 1.54-.32 2.48-.56a31.967 31.967 0 003.38-1 5.248 5.248 0 01-1.1.7 7.322 7.322 0 011.44 1.36v.46h-5.32a17.878 17.878 0 01-2.36-.12v2.06a20.483 20.483 0 012.38-.12h3.68a18.07 18.07 0 01-6.66 2.54 7.568 7.568 0 011.22 2.04 19.381 19.381 0 003.88-1.52 13.583 13.583 0 003.24-2.26c-.06.78-.06.98-.06 1.28v.96a9.067 9.067 0 01-.12 1.8h2.42a8.052 8.052 0 01-.12-1.8v-.98c-.02-.56-.04-1-.06-1.28a17.261 17.261 0 007.4 3.88 8.122 8.122 0 011.16-2.12 16.59 16.59 0 01-6.74-2.54h3.96a20.608 20.608 0 012.4.12v-2.06a19.218 19.218 0 01-2.4.12h-5.72a6.848 6.848 0 01.08-1.24h-1.08a4.775 4.775 0 001.36-2.58 9.973 9.973 0 011.56 2.3l1.42-1.06a20.431 20.431 0 00-1.76-2.34l-1.16.82a8.112 8.112 0 00.08-1.12h3.02v2.78c0 .7.12.98.54 1.2a4.025 4.025 0 001.8.24c2.06 0 2.36-.42 2.44-3.44a7.974 7.974 0 01-1.72-.74 1.417 1.417 0 00-.02.3l.02.22a8.483 8.483 0 01-.14 1.66c-.08.16-.18.2-.56.2-.4 0-.46-.04-.46-.36V6.88a15.281 15.281 0 01.08-1.84 11.822 11.822 0 01-1.58.08zm-6.3 2.84c-1 .3-1.34.38-2.2.58V7.08h.9a11.2 11.2 0 011.48.08V5.28a10.456 10.456 0 01-1.64.08h-3.56c-.38 0-.48 0-.82-.02a12.88 12.88 0 001.7-1.96h1.02a8.647 8.647 0 01.88 1.8l1.92-.52c-.34-.64-.44-.8-.74-1.28h1.1a10.231 10.231 0 011.12.06c-.16.14-.26.24-.52.46a8.27 8.27 0 011.46 1.22 8.9 8.9 0 01-.96-.06 8.9 8.9 0 01.06 1.14c0 1.68-.28 2.56-1.1 3.3zm2.28-2.84a12.975 12.975 0 001.42-1.72h1.36a10.835 10.835 0 01.88 1.72h-3.66z" fill="#3b3938"/><g data-name="グループ 17885"><g data-name="グループ 17878"><g data-name="グループ 17683"><path data-name="パス 331853" d="M246.002 63.272v7.08c-.924.066-1.54.11-1.914.11h-.4l.422 1.918c.792-.154 1.276-.22 2.9-.462 2.094-.286 2.292-.33 4.778-.766v.352a10.5 10.5 0 01-.132 2.134h2.068a11.149 11.149 0 01-.132-2.156v-8.21h7.942a12.371 12.371 0 012.2.132v-1.852a11.267 11.267 0 01-2.178.132h-15.664a11 11 0 01-2.178-.132V63.4a12.13 12.13 0 012.156-.128zm1.826 0h3.96v1.232h-3.96zm0 2.618h3.96v1.276h-3.96zm0 2.662h3.96v1.078c-1.628.264-2.706.418-3.96.55zm13.816-4.18a10.285 10.285 0 01-1.672.088h-3.85a13.7 13.7 0 01-1.87-.088v1.738a12.408 12.408 0 011.606-.088h.682l-1.606.7a15.134 15.134 0 002.156 3.062 11.536 11.536 0 01-3.388 1.868 4.931 4.931 0 011.1 1.628 15.021 15.021 0 003.586-2.242 13.373 13.373 0 004.312 2.4 7.654 7.654 0 011.012-1.76 11.532 11.532 0 01-4.048-1.848 15.411 15.411 0 002.574-3.762 7.092 7.092 0 01.374-.638zm-1.408 1.65a9.786 9.786 0 01-1.892 2.662 8.955 8.955 0 01-1.782-2.662zm1.034-10.1a13.96 13.96 0 01.088-1.848c-.726.066-1.342.088-2.354.088h-10.45a24.73 24.73 0 01-2.376-.088 14.39 14.39 0 01.088 1.848v3.014a14.835 14.835 0 01-.086 1.85c.726-.066 1.32-.088 2.31-.088h10.734c.814 0 1.54.022 2.134.066a13.6 13.6 0 01-.088-1.826zm-13.112-.284h11.222v1.122h-11.222zm0 2.508h11.222v1.144h-11.222zm34.54 2.618a16.854 16.854 0 012.618.154v-2.354a16.073 16.073 0 01-2.64.154h-6.16c.044-.836.044-1.386.066-2.42a14.19 14.19 0 01.154-2.486h-2.464a14 14 0 01.154 2.42c0 .858-.022 1.408-.066 2.486h-5.68a15.852 15.852 0 01-2.662-.154v2.354a15.553 15.553 0 012.64-.154h5.5a12.031 12.031 0 01-2.728 6.71 14.27 14.27 0 01-5.918 4 6.112 6.112 0 011.3 1.936 16.368 16.368 0 005.038-3.278 13.707 13.707 0 003.916-6.666 16.73 16.73 0 003.19 5.544 18.2 18.2 0 005.744 4.382 7.608 7.608 0 011.364-2.112 14.9 14.9 0 01-6.336-4.576 15.576 15.576 0 01-3.036-5.94z" fill="#3b3938"/><path data-name="パス 331854" d="M383.968 64.421a29.028 29.028 0 01-.588 6.279 1.316 1.316 0 01-1.428 1.134h-3.402l.609 3.276h4.321a2.839 2.839 0 002.84-2.184c.273-.819 1.029-4.389 1.071-11.55h-9.177v-2.457h10.878v-3.108h-19.824v3.108h5.649v2.016c0 5.422-1.575 8.778-6.069 11.298l2.121 2.94a14.6 14.6 0 006.911-10.752zm22.575 6.783c0 .315-.021.651-.63.651h-2.9l.567 3.255h3.927c2.1 0 2.289-1.449 2.289-2.436V55.79h-18.184v19.32h3.234v-7.644h11.7zm-4.284-12.327h4.284v5.565h-4.284zm-7.413 0h4.284v5.565h-4.284z" fill="#009f44"/><path data-name="パス 331852" d="M324.8 49.878c-.911-7.011-6.042-11.06-12.939-11.06-11.343 0-15.672 11.117-15.672 20.864 0 10.089 3.246 20.636 15.33 20.636 8.322 0 13.97-6.443 13.97-14.594a13.73 13.73 0 00-3.078-8.892 12.745 12.745 0 00-9.177-4.1 10.155 10.155 0 00-9.006 4.446l-.114-.114c.223-4.446 1.762-12.146 7.633-12.146 2.793 0 4.845 2.28 5.358 4.959zm-13.511 8.949c4.161 0 6.1 3.762 6.1 7.524 0 3.591-2.223 7.3-6.1 7.3-4.047 0-6.441-3.705-6.441-7.41.002-3.937 2.111-7.414 6.441-7.414zm18.012.57c.002 15.903 6.728 20.921 14.594 20.921 7.98 0 14.706-5.016 14.706-20.919 0-15.561-6.726-20.577-14.706-20.577-7.866-.004-14.592 5.014-14.592 20.575zm8.094 0c0-4.161 0-13.908 6.5-13.908 6.612 0 6.612 9.747 6.612 13.908 0 4.5 0 14.25-6.612 14.25-6.498 0-6.498-9.747-6.498-14.25z" fill="#009f44"/></g></g><path data-name="パス 331851" d="M280.006 1.261a12.628 12.628 0 01.08 1.8v5.5a14.424 14.424 0 01-.1 1.8h2.74a9.654 9.654 0 01-.08-1.76v-5.52a10.166 10.166 0 01.08-1.8zm9.02.04a10.532 10.532 0 01.1 1.9v2.5c0 1.6-.02 2.48-.1 3.34-.22 2.64-.88 3.86-2.76 5.1a10.788 10.788 0 01-4.32 1.6 6.832 6.832 0 011.4 2.38 16.917 16.917 0 003.9-1.54 7.66 7.66 0 003.94-4.66 23.623 23.623 0 00.52-6.06v-2.7a9.486 9.486 0 01.1-1.86zm23.26.96a7.31 7.31 0 01-2.14.2h-9.18a14.088 14.088 0 01-2.56-.14v2.6a15.877 15.877 0 012.52-.12h9.52a13.857 13.857 0 01-6.06 8.72 16.272 16.272 0 01-4.38 2.04 7.36 7.36 0 011.76 2.38 19.473 19.473 0 007.44-5.1 18.8 18.8 0 004.1-8.38 3.008 3.008 0 01.34-.9zm13.32 6.66a14.791 14.791 0 01-2.92 3.28 17.557 17.557 0 01-4.3 2.7 6.279 6.279 0 011.48 1.88 19.087 19.087 0 006.48-5.28 7.853 7.853 0 00.68-1.12c0 .24-.02 1.02-.02 1.24l.02 5a12.414 12.414 0 01-.08 1.64h2.44a9.152 9.152 0 01-.12-1.7l-.1-7.62h1.72a14.505 14.505 0 011.82.08v-2.16a8.6 8.6 0 01-1.8.12h-1.74l-.02-1.32a9.242 9.242 0 01.06-1.5h-2.34a10.406 10.406 0 01.1 1.58v1.22h-5.82a8.6 8.6 0 01-1.8-.12v2.16a14.978 14.978 0 011.8-.08zm11.74 1.84a21.956 21.956 0 013.26-.1h10.62a21.956 21.956 0 013.26.1v-2.78a19.641 19.641 0 01-3.24.14h-10.66a19.641 19.641 0 01-3.24-.14zm25.6-9.94a31.631 31.631 0 01-1.46 5.54c-1.04 3.28-1.84 5.54-2.9 8.06-.84.04-1.32.06-1.72.06h-.52l.36 2.7a10.94 10.94 0 011.82-.24c5.98-.58 9.3-1 11.32-1.42.46-.1.46-.1.72-.16a20.481 20.481 0 01.96 2.48l2.42-1.26a46.782 46.782 0 00-4.84-9.26l-2.26.88a24.83 24.83 0 011.9 3.18c.48.9.72 1.34.94 1.82a79.042 79.042 0 01-8.32 1.02 118.786 118.786 0 003.96-11.4 6.122 6.122 0 01.52-1.44z" fill="#3b3938"/></g></g></svg>