<svg xmlns="http://www.w3.org/2000/svg" width="148.37" height="35.703"><g data-name="グループ 18820"><g data-name="グループ 17952"><g data-name="グループ 17950"><path data-name="パス 331830" d="M.2 33.897c2.64-.1 5.84-.4 7.02-.54v1.64h1.9v-9.8h9.78v-1.68H0v1.68h1.3v6.84H0zm7.02-6.02v1.2H3.2v-1.2zm0 3.84c-1.98.2-2.82.24-4.02.28v-1.44h4.02zm0-6.52v1.2H3.2v-1.2zm-5.46-2.66h15.28v-5.76H1.76zm13.2-4.3v.94H3.86v-.94zm0 2.04v.94H3.86v-.94zm-4.58 8.5a8.686 8.686 0 002.08 3.14 12.856 12.856 0 01-3.16 1.32l.76 1.76a12.079 12.079 0 003.92-1.82 12.917 12.917 0 003.86 1.82l1.06-1.86a13.537 13.537 0 01-3.38-1.26 9.945 9.945 0 002.54-3.92v-1.72H9.7v1.68h6.24a7.627 7.627 0 01-1.96 2.88 7.517 7.517 0 01-1.82-2.48zm10.74 6.04c4.04-1.46 6.98-5.18 8.36-8.82.68 2.38 2.28 6.24 8.34 8.94l1.42-2.2c-5.2-1.42-7.58-5.42-8.4-9.68h7.92v-2.12h-8.3v-4.78h-2.22v4.78h-8.12v2.12h7.92a13.207 13.207 0 01-8.32 9.68z" fill="#2e3032"/><path data-name="パス 331829" d="M126.226 25.689a24.881 24.881 0 01-.5 5.382 1.128 1.128 0 01-1.224.972h-2.916l.522 2.808h3.708a2.433 2.433 0 002.43-1.874c.234-.7.882-3.762.918-9.9h-7.866v-2.1h9.328v-2.664h-17v2.664h4.846v1.728c0 4.64-1.346 7.52-5.202 9.68l1.818 2.52a12.515 12.515 0 005.922-9.216zm19.35 5.814c0 .27-.018.558-.54.558h-2.48l.486 2.79h3.366c1.8 0 1.962-1.242 1.962-2.088V18.291h-15.588v16.56h2.772v-6.552h10.026zm-3.668-10.566h3.672v4.77h-3.672zm-6.354 0h3.672v4.77h-3.672z" fill="#f1831f"/><path data-name="パス 331828" d="M66.893 0h-5.65c-.75 5.35-5.3 7.05-10.25 6.95v5.35h8.8V35h7.1zm34.45 0h-19.55l-3.45 19.35h6.4a5.9 5.9 0 015.35-2.8c3.8 0 6.05 2.9 6.05 6.55 0 3.5-2.35 6.75-6.05 6.75a5.654 5.654 0 01-5.75-5.25h-7.1c.1 7.35 6.2 11.1 13 11.1a12.637 12.637 0 0013-12.6c0-6.55-3.9-11.9-10.8-11.9a8.9 8.9 0 00-6.85 2.7l-.1-.1 1.4-7.95h14.45z" fill="#f1831f"/></g></g></g></svg>