<svg xmlns="http://www.w3.org/2000/svg" width="165.755" height="45"><g data-name="グループ 18939"><g data-name="グループ 18938"><g data-name="グループ 17875"><path data-name="パス 331838" d="M.22 39.3c2.904-.11 6.424-.44 7.722-.592v1.8h2.09V29.73H20.79v-1.848H0v1.848h1.43v7.524H0zm7.722-6.622v1.32H3.52v-1.32zm0 4.224c-2.178.22-3.1.264-4.422.308v-1.584h4.422zm0-7.172v1.32H3.52v-1.32zm-6.006-2.922h16.808v-6.34H1.936zm14.52-4.73v1.03H4.246v-1.034zm0 2.244v1.034H4.246v-1.038zm-5.038 9.346a9.555 9.555 0 002.288 3.454 14.142 14.142 0 01-3.476 1.452l.836 1.934a13.287 13.287 0 004.312-2 14.209 14.209 0 004.246 2l1.166-2.044a14.891 14.891 0 01-3.718-1.386 10.939 10.939 0 002.794-4.312v-1.892h-9.2v1.848h6.864a8.389 8.389 0 01-2.156 3.168 8.269 8.269 0 01-2-2.728zm11.814 6.64c4.444-1.6 7.674-5.694 9.196-9.7.748 2.62 2.508 6.866 9.178 9.836l1.562-2.42c-5.72-1.562-8.338-5.962-9.24-10.648h8.708v-2.332h-9.13v-5.258h-2.442v5.258h-8.932v2.332h8.712a14.527 14.527 0 01-9.152 10.648z" fill="#2e3032"/><path data-name="パス 331840" d="M139.925 31.076a29.028 29.028 0 01-.588 6.279 1.316 1.316 0 01-1.428 1.134h-3.402l.609 3.276h4.321a2.839 2.839 0 002.84-2.184c.273-.819 1.029-4.389 1.071-11.55h-9.177v-2.457h10.878v-3.108h-19.824v3.108h5.649v2.016c0 5.422-1.575 8.778-6.069 11.298l2.121 2.94a14.6 14.6 0 006.911-10.752zm22.575 6.783c0 .315-.021.651-.63.651h-2.9l.567 3.255h3.927c2.1 0 2.289-1.449 2.289-2.436V22.445h-18.184v19.32h3.234v-7.644h11.7zm-4.284-12.327h4.284v5.565h-4.284zm-7.413 0h4.284v5.565h-4.284z" fill="#f1831f"/><path data-name="パス 331839" d="M73.973 3h-6.328c-.84 5.992-5.936 7.9-11.48 7.784v5.992h9.856V42.2h7.952zm38.584 0H90.661l-3.864 21.672h7.168a6.605 6.605 0 015.992-3.136c4.256 0 6.776 3.248 6.776 7.336 0 3.92-2.632 7.56-6.776 7.56a6.332 6.332 0 01-6.44-5.88h-7.952c.112 8.232 6.944 12.432 14.556 12.432a14.153 14.153 0 0014.56-14.112c0-7.336-4.368-13.328-12.1-13.328a9.966 9.966 0 00-7.66 3.024l-.112-.112 1.568-8.9h16.18z" fill="#f1831f"/></g></g><path data-name="長方形 4546" fill="rgba(255,255,255,0)" d="M.406 0h165v45h-165z"/></g></svg>