<svg xmlns="http://www.w3.org/2000/svg" width="546.004" height="295.583"><g data-name="グループ 18922"><path data-name="パス 331961" d="M0 212.791h546v82H0z" fill="#fcede2"/><path data-name="パス 331962" d="M0 .791h546v49H0z" fill="#f0f0ee"/><path data-name="パス 331142" d="M0 49.931h546" fill="none" stroke="#878787"/><path data-name="パス 331143" d="M-.004 131.481h546" fill="none" stroke="#878787"/><path data-name="パス 331144" d="M0 213.032h546" fill="none" stroke="#878787" stroke-width="2"/><path data-name="パス 331145" d="M0 294.583h546" fill="none" stroke="#878787" stroke-width="2"/><path data-name="パス 331147" d="M177.5 1v293.584" fill="none" stroke="#878787"/><path data-name="パス 331963" d="M329.252 28.691a18.047 18.047 0 002 2.184 8.715 8.715 0 011.354-2.184 10.82 10.82 0 01-1.43-1.17 24.73 24.73 0 001.56-2.236v9.88a17.226 17.226 0 01-.156 2.836h2.912a24.069 24.069 0 01-.1-2.86v-2.886h2.782v3.042a14.581 14.581 0 01-.1 2.366h2.826a18.534 18.534 0 01-.1-2.392v-3.016h3.146v2.136c0 .52-.1.624-.52.624a10.844 10.844 0 01-1.826-.16 5.312 5.312 0 01.676 2.73c.624.052.91.052 1.17.052a5.1 5.1 0 002.264-.286c.624-.338.884-.988.884-2.132V23.571a24.208 24.208 0 01.1-2.678 16.893 16.893 0 01-2.34.1H340.8v-1.82h4a16.409 16.409 0 012.47.13v-2.808a22.157 22.157 0 01-2.47.13h-.156l1.4-1.118a11.03 11.03 0 00-2.808-2.028l-1.716 1.274a13.513 13.513 0 012.444 1.872H340.8v-.52a10.828 10.828 0 01.156-2.236h-2.938a13.234 13.234 0 01.156 2.236v.52h-3.536a16.131 16.131 0 01-2.548-.156v2.7l-1.014-1.222a6.546 6.546 0 01-1.326.078h-.52v-2.184a14.108 14.108 0 01.13-1.95h-2.938a14.744 14.744 0 01.13 2.028v2.106h-.6a11.232 11.232 0 01-1.924-.1v2.73a18.414 18.414 0 012.132-.13h2.73a16.7 16.7 0 01-5.46 7.332 10.508 10.508 0 011.09 2.812 24.856 24.856 0 002.054-2.054v6.422a20.123 20.123 0 01-.182 2.964h2.99a24.156 24.156 0 01-.156-2.99l.026-5.512zm2.938-9.412a17.714 17.714 0 012.21-.1h3.77v1.82h-2.912a22.09 22.09 0 01-2.6-.1 20.955 20.955 0 01.078 2.652v.962l-1.378-1.092a17.849 17.849 0 01-1.534 2.652 7.276 7.276 0 01-.624-.858 32.214 32.214 0 002.47-4.784 7.921 7.921 0 01.52-1.118zm3.2 10.712v-2.234h2.782v2.234zm0-4.5v-2.158h2.782v2.158zm5.41 4.5v-2.234h3.146v2.234zm0-4.5v-2.158h3.146v2.158zm22.174 4.84l-1.248.416V17.903c0-1.144.026-2.366.078-2.834a13.976 13.976 0 01-1.95.1h-5.408a13.74 13.74 0 01-1.95-.1c.052.572.078 1.716.078 2.834v15.132a16.055 16.055 0 01-1.794.234l.52 3.068c.676-.208.832-.234 1.716-.468a99.534 99.534 0 009.8-3.042 12.53 12.53 0 01-3.17 3.146 9.174 9.174 0 012.288 2.054 13.725 13.725 0 002.782-2.936 18.4 18.4 0 002.652-5.176 32.868 32.868 0 001.248-7.878h3.016a75.085 75.085 0 01-.572 9.954c-.338 2.34-.546 2.678-1.638 2.678a19.034 19.034 0 01-2.964-.278 12.7 12.7 0 01.52 2.834c1.95.1 1.95.1 2.6.1 2.626 0 3.38-.572 3.9-2.938a59.71 59.71 0 00.91-10.92c.078-3.51.078-3.51.156-4.29a20.551 20.551 0 01-2.756.13h-3.042c.026-1.248.052-2 .052-2.964a15.074 15.074 0 01.156-2.288h-3.094a13.356 13.356 0 01.156 2.262 83.64 83.64 0 01-.052 2.99h-.676a20.268 20.268 0 01-2.782-.13v2.99a19.968 19.968 0 012.6-.13h.728c-.364 5.07-1.118 7.904-2.86 10.554zm-7.674-1.64h3.718v2.86a51.2 51.2 0 01-3.718.936zm0-2.5v-2.938h3.718v2.938zm0-5.434v-2.938h3.718v2.938zm32.344-.39a8.252 8.252 0 01-1.2.052h-2.08c.234-.416.234-.416.39-.728l.208-.416-2.41-.484a10.471 10.471 0 01-4.472 5.17 5.717 5.717 0 011.378 2.03 12.4 12.4 0 001.872-1.56 13.971 13.971 0 001.534 1.586 15.592 15.592 0 01-5.1 2.34 6.2 6.2 0 011.3 2.392c.546-.234.7-.312 1.144-.52.026.39.026.6.026.962v4.054a20.821 20.821 0 01-.13 2.418h2.678v-1.43h3.562v1.222h2.6c-.022-.338-.044-.728-.074-1.248a8.217 8.217 0 011.378 1.95 14.379 14.379 0 005.278-3.744l-1.9-1.638h4.264l-1.82 1.664a14.322 14.322 0 005.252 3.666 10.326 10.326 0 011.56-2.5 11.893 11.893 0 01-4.782-2.83h.884a38.6 38.6 0 012.236.078 41.677 41.677 0 01-.078-2.678v-8.97c0-.988.026-1.586.078-2.314a17.919 17.919 0 01-2.548.078h-1.716a19.244 19.244 0 00.65-1.82h1.846a20.134 20.134 0 012.73.13v-2.756a19.3 19.3 0 01-2.73.13h-6.786a18.132 18.132 0 01-2.73-.13v1.668c-.39.026-.858.052-1.924.052h-2.132v-.52a6.88 6.88 0 01.13-1.664h-2.99a7.6 7.6 0 01.13 1.638v.546h-2.444a16.7 16.7 0 01-2.08-.078 23 23 0 01.078 1.742v1.248a12.426 12.426 0 01-.1 1.664h2.574v-2.262h6.474zm.936.338h1.508a11.8 11.8 0 01-.078-1.742v-1.69a22.6 22.6 0 012.652-.13h2.262c-.182.572-.286.91-.65 1.82h-1.504a20.663 20.663 0 01-2.184-.052c.078 1.274.078 1.274.078 2.444v9.1c0 .6-.026 1.768-.078 2.392q1.365-.078 2.028-.078h.78a9.587 9.587 0 01-2.028 1.768 9.2 9.2 0 01-2.522 1.28v-4.446c0-.988 0-.988.052-1.794l.754.234a8.451 8.451 0 01.91-2.34 20.023 20.023 0 01-4.134-1.56 22.041 22.041 0 002.674-3.64c.13-.182.156-.208.312-.416l.1-.13zm-2.34 1.872a17.376 17.376 0 01-1.742 2.08 10.432 10.432 0 01-1.768-1.794 1.134 1.134 0 00.234-.286zm-4.234 6.74a16.349 16.349 0 002.7-1.82 23.748 23.748 0 003.462 1.794c-.312.026-.468.026-1.014.026zm.754 2.158h3.588v2.522h-3.588zm10.452-10.166h5.356v1.56h-5.356zm0 3.692h5.356v1.638h-5.356zm0 3.77h5.356v1.612h-5.356z" fill="#3b3938"/><path data-name="パス 331964" d="M36.142 176.435a28.931 28.931 0 014.108 6.396l2.444-1.69a33.328 33.328 0 00-3.718-5.408l2.184-1.56a37.437 37.437 0 00-5.59-5.174c3.3-.026 3.978-.286 4.42-1.612h2.028a18.3 18.3 0 01-.1-2.08v-1.664a12.087 12.087 0 01.1-1.9c-.806.078-1.612.1-2.86.1H31.7v-.468a9.721 9.721 0 01.13-1.638h-3.12a7.449 7.449 0 01.156 1.638v.468h-6.972c-1.248 0-2.054-.026-2.86-.1a13.19 13.19 0 01.1 1.9v1.69a13.611 13.611 0 01-.1 2h2.834v-3.042h4.706a3.535 3.535 0 01-1.456 1.9 13.329 13.329 0 01-5.252 1.872 8.584 8.584 0 011.508 2.262c3.146-.884 4.862-1.742 6.4-3.224a4.926 4.926 0 001.608-2.81h1.872v3.016c0 1.352.546 1.638 3.484 1.69l-1.768 1.042c1.04.832 1.43 1.144 2.028 1.69-1.352.13-4.264.26-7.124.338a35.619 35.619 0 002.886-3.876l-2.99-.728a24.055 24.055 0 01-3.12 4.68c-1.612.026-2.47.026-2.6.026-.936 0-1.352-.026-2-.078l.39 2.886c.754-.078 1.2-.1 1.508-.1 5.352-.186 10.632-.548 15.13-1.068.52.572.7.832 1.222 1.456zm-2.236-12.144h5.278v1.352a9.244 9.244 0 01-1.508-.39c-.078 1.482-.156 1.586-1.4 1.586a15.015 15.015 0 01-1.95-.078c-.338-.052-.416-.13-.416-.442zm-12.948 18.722a18.4 18.4 0 003.142-6.396l-2.5-1.066a12.812 12.812 0 01-1.24 3.146 12.7 12.7 0 01-1.742 2.47zm4.134-7.436a10.973 10.973 0 01.13 2.054v3.484c0 1.924.936 2.392 4.888 2.392 4 0 5.1-.1 5.928-.572.91-.494 1.2-1.3 1.482-4.082a11.586 11.586 0 01-2.7-.78c-.03 1.43-.16 2.288-.42 2.518-.364.312-1.118.39-4.264.39a6.227 6.227 0 01-1.716-.126c-.39-.1-.468-.234-.468-.806v-2.7a10.705 10.705 0 01.1-1.768zm9.178 2.392a15.552 15.552 0 00-2.964-3.378l-2.288 1.246a14.158 14.158 0 012.912 3.692z" fill="#3b3938"/><path data-name="パス 331965" d="M62.42 181.571a15.371 15.371 0 01-2.54-3.98 13.529 13.529 0 01-1.06-5.48 13.123 13.123 0 011.04-5.3 15.586 15.586 0 012.54-3.98h-2.8a16.145 16.145 0 00-2.2 3.94 14.154 14.154 0 00-1.02 5.34 14.717 14.717 0 001.06 5.52 16.019 16.019 0 002.18 3.94zm17.68-3.16c0 .58-.1.64-1.08.64a18.7 18.7 0 01-2.6-.22 7.451 7.451 0 01.62 2.28c.8.04 1.4.06 1.94.06 1.88 0 2.6-.16 3.04-.72.24-.3.3-.6.3-1.44v-11.46a17.164 17.164 0 01.08-1.94 17.346 17.346 0 01-2.28.1h-5.1c.02-.32.02-.32.04-.74.04-.82.04-.82.06-1.1a4.721 4.721 0 01.12-1h-2.5a10.369 10.369 0 01.12 1.76c0 .34 0 .62-.02 1.08h-4.9a19 19 0 01-2.32-.1 17.622 17.622 0 01.08 1.94v11.4a16.786 16.786 0 01-.14 2.42h2.46a16.494 16.494 0 01-.1-2.38v-3.88a7.491 7.491 0 011.28 1.68 11.469 11.469 0 003.8-3.54 8.9 8.9 0 00.96-1.9 14.872 14.872 0 004.82 5.08 7.63 7.63 0 011.32-1.88zm0-10.7v6.62a13.5 13.5 0 01-3.14-2.34 11.744 11.744 0 01-2.26-3.32c.06-.36.08-.46.14-.96zm-12.18 0h4.74a10.2 10.2 0 01-1.42 4.16 9.09 9.09 0 01-3.32 3zm31.42 7.96a22.255 22.255 0 013.16 4.92l1.88-1.3a25.637 25.637 0 00-2.86-4.16l1.68-1.2a28.8 28.8 0 00-4.3-3.98c2.54-.02 3.06-.22 3.4-1.24h1.56a14.076 14.076 0 01-.08-1.6v-1.28a9.3 9.3 0 01.08-1.46c-.62.06-1.24.08-2.2.08h-5.74v-.36a7.478 7.478 0 01.1-1.26h-2.4a5.73 5.73 0 01.12 1.26v.36h-5.36c-.96 0-1.58-.02-2.2-.08a10.146 10.146 0 01.08 1.46v1.3a10.47 10.47 0 01-.08 1.54h2.18v-2.34h3.62a2.72 2.72 0 01-1.12 1.46 10.253 10.253 0 01-4.04 1.44 6.6 6.6 0 011.16 1.74 10.474 10.474 0 004.92-2.48 3.789 3.789 0 001.24-2.16h1.44v2.32c0 1.04.42 1.26 2.68 1.3l-1.36.8c.8.64 1.1.88 1.56 1.3-1.04.1-3.28.2-5.48.26a27.4 27.4 0 002.22-2.98l-2.3-.56a18.5 18.5 0 01-2.4 3.6c-1.24.02-1.9.02-2 .02-.72 0-1.04-.02-1.54-.06l.3 2.22c.58-.06.92-.08 1.16-.08 4.12-.14 8.18-.42 11.64-.82.4.44.54.64.94 1.12zm-1.72-9.34h4.06v1.04a7.11 7.11 0 01-1.16-.3c-.06 1.14-.12 1.22-1.08 1.22a11.55 11.55 0 01-1.5-.06c-.26-.04-.32-.1-.32-.34zm-9.96 14.4a14.153 14.153 0 002.42-4.92l-1.92-.82a9.856 9.856 0 01-.96 2.42 9.771 9.771 0 01-1.34 1.9zm3.18-5.72a8.441 8.441 0 01.1 1.58v2.68c0 1.48.72 1.84 3.76 1.84 3.08 0 3.92-.08 4.56-.44.7-.38.92-1 1.14-3.14a8.912 8.912 0 01-2.08-.6c-.02 1.1-.12 1.76-.32 1.94-.28.24-.86.3-3.28.3a4.79 4.79 0 01-1.32-.1c-.3-.08-.36-.18-.36-.62v-2.08a8.235 8.235 0 01.08-1.36zm7.06 1.84a11.963 11.963 0 00-2.28-2.6l-1.76.96a10.891 10.891 0 012.24 2.84zm25.26-5.56a7.042 7.042 0 01-1.4.08h-5.9a6.156 6.156 0 01-1.28-.1v2.12a5.785 5.785 0 01.9-.08 11.419 11.419 0 002.58 4.14 14.035 14.035 0 01-4.26 1.94v-3a9.494 9.494 0 01.06-1.46 7.1 7.1 0 01-1.34.06h-3.44c-.62 0-1.04-.02-1.54-.06a9.256 9.256 0 01.1 1.58v2.94a15.265 15.265 0 01-.12 1.98h2.04v-.96h2.34v.68h1.98a9.558 9.558 0 01-.08-1.42 6.966 6.966 0 011.02 1.7 16.174 16.174 0 004.8-2.56 15.5 15.5 0 005 2.5 10.871 10.871 0 011-2.14 14.006 14.006 0 01-4.46-1.82 14.755 14.755 0 002.7-4.22 5.957 5.957 0 01.4-.82zm-1.62 2a10.117 10.117 0 01-1.98 2.88 8.317 8.317 0 01-2-2.88zm-11.98 3.44h2.34v1.98h-2.34zm-1.96-11.36a13.283 13.283 0 011.68-.08h2.88a13.694 13.694 0 011.68.08v-1.94a9.656 9.656 0 01-1.68.1h-2.88a9.656 9.656 0 01-1.68-.1zm-.64 2.96a12.087 12.087 0 011.62-.08h4.22a9.039 9.039 0 011.52.08v-2.06a10.655 10.655 0 01-1.62.08h-4.12a8.917 8.917 0 01-1.62-.1zm.68 2.82a11.245 11.245 0 011.32-.06h3.56a11.446 11.446 0 011.28.06v-1.86a9.838 9.838 0 01-1.28.06h-3.56a11.012 11.012 0 01-1.32-.06zm0 2.82a11.339 11.339 0 011.3-.06h3.54a8.34 8.34 0 011.32.06v-1.86a9.838 9.838 0 01-1.28.06h-3.56a11.012 11.012 0 01-1.32-.06zm12.52-8.42v3.52c0 1.06.42 1.3 2.36 1.3 2.54 0 2.76-.24 3-3.52a7.874 7.874 0 01-1.8-.72c-.12 2.4-.12 2.4-.92 2.4-.48 0-.62-.08-.62-.34v-2.96a12.832 12.832 0 01.08-1.7 14.043 14.043 0 01-1.7.08h-3.06a12.824 12.824 0 01-1.58-.08 6.9 6.9 0 01.1 1.34c0 2.62-.5 3.84-2.08 5a10.5 10.5 0 011.74 1.38 5.833 5.833 0 001.48-1.9 8.174 8.174 0 00.82-3.8zm16.36 2.12c-.08.36-.08.42-.16.76h-6.04a14.156 14.156 0 01-2.28-.12v1.9a18.3 18.3 0 012.28-.1h5.58c-.1.28-.1.3-.24.72h-1.16c-.96 0-1.2 0-1.84-.04.04.48.06.98.06 1.9v3.82c0 .76-.02 1.24-.06 1.78.86-.06 1.16-.06 1.94-.06h7.62c.78 0 1.12.02 1.94.06a16.208 16.208 0 01-.06-1.78v-3.82c0-.9.02-1.44.06-1.92-.4.04-1.06.06-1.86.06h-4.62l.24-.72h5.68a18.1 18.1 0 012.28.1v-1.9a14.01 14.01 0 01-2.28.12h-5.22c.06-.26.06-.26.18-.76h4.66c.98 0 1.64.02 2.04.06a10.773 10.773 0 01-.08-1.56v-1.06a12.034 12.034 0 01.08-1.64c-.36.04-1.34.08-2.22.08h-11.92c-.86 0-1.62-.02-2.26-.08a9.576 9.576 0 01.1 1.64v1.06a8.735 8.735 0 01-.1 1.56c.4-.04 1.16-.06 2.08-.06zm-2.78-1.6h-2.78v-.88h2.78zm4.58 0h-2.72v-.88h2.72zm1.86 0v-.88h2.94v.88zm-5.46 6.18h7.38v.66h-7.38zm0 1.92h7.38v.68h-7.38zm0 1.94h7.38v.68h-7.38zm-3.58 2.88v-6.1a10.955 10.955 0 01.1-1.78h-2.32a9.307 9.307 0 01.12 1.8v6.58a10.745 10.745 0 01-.12 1.98h2.22v-.76h12.62a14.3 14.3 0 012.28.12v-1.94a17.721 17.721 0 01-2.28.1zm20.26 2.58a16.708 16.708 0 002.18-3.94 15.021 15.021 0 001.04-5.52 14.154 14.154 0 00-1.02-5.34 15.963 15.963 0 00-2.18-3.94h-2.82a16.341 16.341 0 012.56 3.98 12.984 12.984 0 011.02 5.3 13.463 13.463 0 01-1.06 5.48 15.371 15.371 0 01-2.54 3.98z" fill="#3b3938"/><path data-name="パス 331966" d="M57.156 249.311a31.623 31.623 0 013.612-.168h14.364a30.575 30.575 0 013.78.168v-2.94a40.82 40.82 0 006.846 3.7 22.613 22.613 0 012.31-4.62 39.492 39.492 0 01-10.71-5.76 27.441 27.441 0 01-7.058-7.1h-5a29.331 29.331 0 01-6.594 7.014A41.965 41.965 0 0148 245.657a16.265 16.265 0 012.436 4.284 42.758 42.758 0 006.72-3.528zm3.654-4.536h-1.176a29.4 29.4 0 008.232-8.19 38.365 38.365 0 008.652 8.19H60.81zm-2.058 26.208v-2.142h18.354v2.142h5a26.238 26.238 0 01-.252-4.41v-9.828a28.628 28.628 0 01.21-4.158 27.55 27.55 0 01-3.654.168h-21a26.45 26.45 0 01-3.61-.164 37.919 37.919 0 01.21 4.158v9.782a33.584 33.584 0 01-.252 4.452zm0-14.154h18.354v7.9H58.752zm60.1-11.55h-2.644a40.175 40.175 0 01-5.082-.252v4.83a46.972 46.972 0 015.124-.252h2.6v15.33a47.8 47.8 0 01-.294 6.342h5.25a49.937 49.937 0 01-.294-6.342v-15.33h2.94a46.972 46.972 0 015.124.252v-4.83a40.174 40.174 0 01-5.082.252h-2.978v-7.6a32.414 32.414 0 01.294-5.04h-5.25a28.451 28.451 0 01.294 5.04zm-23.812-7.476a29.345 29.345 0 013.612-.168h7.266a29.049 29.049 0 013.57.168v-4.112a20.809 20.809 0 01-3.57.21h-7.266a20.752 20.752 0 01-3.612-.21zm-1.764 6.006a23.44 23.44 0 013.528-.21h10.836a25.376 25.376 0 013.57.168v-4.2a20.514 20.514 0 01-3.57.21H96.846a20.841 20.841 0 01-3.57-.252zm1.806 5.838a17.514 17.514 0 012.772-.126h8.9a16.66 16.66 0 012.688.126v-3.99a15.609 15.609 0 01-2.688.126h-8.9a23.614 23.614 0 01-2.772-.126zm0 5.964a23.31 23.31 0 012.73-.126h8.862a23.126 23.126 0 012.772.126v-3.99a15.609 15.609 0 01-2.688.126h-8.9a21.274 21.274 0 01-2.772-.126zm4.41 13.78h5.838v1.3h4.494a22.2 22.2 0 01-.21-3.654v-6.176a22.726 22.726 0 01.168-3.234 22.819 22.819 0 01-2.73.126h-9.03a23.933 23.933 0 01-2.94-.126 26.229 26.229 0 01.168 3.276v6.342a28.525 28.525 0 01-.21 4.032h4.452zm-.084-7.816h5.964v4.074h-5.964z" fill="#ef4123"/><path data-name="パス 331967" d="M46.684 84.752l-4.836.754a24.166 24.166 0 01-2.86.286l.52 3.2a27.732 27.732 0 012.86-.6l4.836-.754.78 4.264-6.318 1.014a16 16 0 01-2.756.26l.52 3.2a20.922 20.922 0 012.652-.572l6.418-1.016.936 5.122a19.678 19.678 0 01.338 2.73l3.484-.624a14.686 14.686 0 01-.624-2.678l-.934-5.044 6.188-.988c.52-.078.858-.13 1.04-.156a2.021 2.021 0 01.416-.052 6.236 6.236 0 011.2-.13l-.572-3.12a23.1 23.1 0 01-2.7.6l-6.11.962-.78-4.264 5.486-.858a22.074 22.074 0 012.5-.338l-.546-3.12a13.392 13.392 0 01-2.5.572l-5.486.858-.416-2.262a17.886 17.886 0 01-.32-2.446l-3.432.546a11.2 11.2 0 01.624 2.444zm21.346 1.976a26.012 26.012 0 012.37 6.292l2.938-.936a29.991 29.991 0 00-2.548-6.162zm5.564-1.092a28.59 28.59 0 012.366 6.11l2.886-.91a25.542 25.542 0 00-2.522-5.98zm8.944-.26a11.533 11.533 0 01-.468 2.99 14.95 14.95 0 01-5.9 9.022 16.865 16.865 0 01-4.42 2.392 9.444 9.444 0 012.08 2.574c3.848-1.95 6.006-3.64 7.93-6.266a22.194 22.194 0 003.588-8.658 5.472 5.472 0 01.364-1.326zm28.392-5.616a13.673 13.673 0 01-3.146 1.222 44.882 44.882 0 01-11.128 1.508c-.39 0-.806 0-1.612-.052a10.911 10.911 0 01.962 2.808 58.18 58.18 0 007.2-.6c0 1.82 0 2.834-.052 3.926H96.5a16.118 16.118 0 01-3.172-.182v3.12a23.757 23.757 0 013.12-.13h6.422a14.958 14.958 0 01-.286 1.742 8.3 8.3 0 01-2.99 4.42 11.99 11.99 0 01-4.03 2.184 8.423 8.423 0 012.262 2.758 16.211 16.211 0 002.418-1.3 13.445 13.445 0 004.238-4.134 13.63 13.63 0 001.742-5.668h5.746a23.757 23.757 0 013.12.13v-3.12a16.118 16.118 0 01-3.172.182h-5.512c.052-.884.052-.884.078-4.394a32.156 32.156 0 004.342-1.066c1.872-.624 1.872-.624 2.184-.7zm9.672 4.42a27.3 27.3 0 016.63 5.278l2.236-2.834a36.824 36.824 0 00-6.708-5.018zm.91 17.16a9.2 9.2 0 011.716-.442 28.084 28.084 0 009.906-3.9c3.566-2.366 6.032-5.434 8.242-10.192a11.212 11.212 0 01-2.756-2.548 21.711 21.711 0 01-2.652 5.2 17.371 17.371 0 01-7.722 6.37 24.774 24.774 0 01-7.7 1.924z" fill="#3b3938"/><path data-name="パス 331141" d="M-.004 1h546" fill="none" stroke="#878787" stroke-width="2"/><path data-name="パス 331968" d="M481.743 261.95h14.875v6.1c0 .6-.15.675-1.125.675-.9 0-2.15-.1-3.8-.275a9.62 9.62 0 01.775 2.7c.975.05 2.35.1 3.325.1a6.149 6.149 0 002.625-.35c.725-.375 1.025-1.075 1.025-2.35v-16.025a24.6 24.6 0 01.1-2.725 22.918 22.918 0 01-2.725.1h-15.2a26.858 26.858 0 01-2.775-.1 21.539 21.539 0 01.1 2.4v16.35a23.747 23.747 0 01-.15 3h3.075a18.377 18.377 0 01-.125-2.9zm5.925-2.625h-5.925v-6.775h5.925zm2.7 0v-6.775h6.25v6.775z" fill="#ef4123"/><path data-name="パス 331969" d="M232.767 246.916c0-4.662 1.7-10.143 6.993-10.143 3.843 0 6.615 2.646 6.615 6.8-.063 5.418-5.355 8.127-9.261 10.773-7.623 5.166-13.86 9.513-13.923 19.719h32.382v-7.682H234.72c3.213-4.536 8.379-7.056 12.726-10.143s7.875-6.741 7.875-13.356c0-8.631-7.056-13.8-15.12-13.8-10.584 0-16.317 7.749-16 17.829zm58.275-16.947h-30.114v8.316h20.916a64.424 64.424 0 00-14.805 35.784h9.576c.126-11.781 5.166-28.35 14.427-36.414zm36.981 11.34c-1.008-7.749-6.678-12.222-14.3-12.222-12.537 0-17.325 12.285-17.325 23.058 0 11.151 3.591 22.806 16.947 22.806 9.2 0 15.435-7.119 15.435-16.128a15.175 15.175 0 00-3.4-9.828 14.086 14.086 0 00-10.143-4.536c-4.284 0-7.5 1.449-9.954 4.914l-.126-.126c.252-4.914 1.953-13.419 8.442-13.419 3.087 0 5.355 2.52 5.922 5.481zm-14.931 9.891c4.6 0 6.741 4.158 6.741 8.316 0 3.969-2.457 8.064-6.741 8.064-4.473 0-7.119-4.095-7.119-8.19 0-4.347 2.327-8.19 7.119-8.19zm22.428 22.869h4.536a5.753 5.753 0 01-4.473 5.922v4.536c5.417-.819 9.828-4.658 9.828-10.458v-9.7h-9.891zm16.569-22.239c0 17.577 7.434 23.121 16.128 23.121 8.82 0 16.254-5.544 16.254-23.121 0-17.2-7.434-22.743-16.254-22.743-8.694 0-16.128 5.544-16.128 22.743zm8.946 0c0-4.6 0-15.372 7.182-15.372 7.308 0 7.308 10.773 7.308 15.372 0 4.977 0 15.75-7.308 15.75-7.182 0-7.182-10.773-7.182-15.75zm27.657 0c0 17.577 7.434 23.121 16.128 23.121 8.82 0 16.254-5.544 16.254-23.121 0-17.2-7.434-22.743-16.254-22.743-8.694 0-16.128 5.544-16.128 22.743zm8.946 0c0-4.6 0-15.372 7.182-15.372 7.308 0 7.308 10.773 7.308 15.372 0 4.977 0 15.75-7.308 15.75-7.182 0-7.182-10.773-7.182-15.75zm27.657 0c0 17.577 7.434 23.121 16.128 23.121 8.82 0 16.254-5.544 16.254-23.121 0-17.2-7.434-22.743-16.254-22.743-8.694 0-16.128 5.544-16.128 22.743zm8.946 0c0-4.6 0-15.372 7.182-15.372 7.308 0 7.308 10.773 7.308 15.372 0 4.977 0 15.75-7.308 15.75-7.182 0-7.182-10.773-7.182-15.75z" fill="#ef4123"/><path data-name="パス 331970" d="M481.743 101.079h14.875v6.1c0 .6-.15.675-1.125.675-.9 0-2.15-.1-3.8-.275a9.62 9.62 0 01.775 2.7c.975.05 2.35.1 3.325.1a6.149 6.149 0 002.625-.35c.725-.375 1.025-1.075 1.025-2.35V91.654a24.6 24.6 0 01.1-2.725 22.918 22.918 0 01-2.725.1h-15.2a26.858 26.858 0 01-2.775-.1 21.539 21.539 0 01.1 2.4v16.35a23.747 23.747 0 01-.15 3h3.075a18.377 18.377 0 01-.125-2.9zm5.925-2.625h-5.925v-6.775h5.925zm2.7 0v-6.775h6.25v6.775z" fill="#009f44"/><path data-name="パス 331971" d="M293.261 68.868h-24.633l-4.347 24.381h8.064a7.431 7.431 0 016.741-3.528c4.788 0 7.623 3.654 7.623 8.253 0 4.41-2.961 8.505-7.623 8.505a7.124 7.124 0 01-7.245-6.615h-8.951c.126 9.261 7.812 13.986 16.38 13.986a15.923 15.923 0 0016.38-15.876c0-8.253-4.914-14.994-13.608-14.994a11.212 11.212 0 00-8.631 3.4l-.126-.126 1.764-10.017h18.207zm29.8 0h-7.119c-.945 6.741-6.678 8.883-12.915 8.757v6.743h11.088v28.6h8.946zm15.749 44.1h4.536a5.753 5.753 0 01-4.473 5.922v4.536c5.417-.819 9.828-4.658 9.828-10.458v-9.7h-9.891zm16.569-22.239c0 17.577 7.434 23.121 16.128 23.121 8.82 0 16.254-5.544 16.254-23.121 0-17.2-7.434-22.743-16.254-22.743-8.694 0-16.128 5.544-16.128 22.743zm8.946 0c0-4.6 0-15.372 7.182-15.372 7.308 0 7.308 10.773 7.308 15.372 0 4.977 0 15.75-7.308 15.75-7.182 0-7.182-10.773-7.182-15.75zm27.657 0c0 17.577 7.434 23.121 16.128 23.121 8.82 0 16.254-5.544 16.254-23.121 0-17.2-7.434-22.743-16.254-22.743-8.694 0-16.128 5.544-16.128 22.743zm8.946 0c0-4.6 0-15.372 7.182-15.372 7.308 0 7.308 10.773 7.308 15.372 0 4.977 0 15.75-7.308 15.75-7.182 0-7.182-10.773-7.182-15.75zm27.657 0c0 17.577 7.434 23.121 16.128 23.121 8.82 0 16.254-5.544 16.254-23.121 0-17.2-7.434-22.743-16.254-22.743-8.694 0-16.128 5.544-16.128 22.743zm8.946 0c0-4.6 0-15.372 7.182-15.372 7.308 0 7.308 10.773 7.308 15.372 0 4.977 0 15.75-7.308 15.75-7.182 0-7.182-10.773-7.182-15.75z" fill="#009f44"/><path data-name="パス 331972" d="M481.743 182.618h14.875v6.1c0 .6-.15.675-1.125.675-.9 0-2.15-.1-3.8-.275a9.62 9.62 0 01.775 2.7c.975.05 2.35.1 3.325.1a6.149 6.149 0 002.625-.35c.725-.375 1.025-1.075 1.025-2.35v-16.025a24.6 24.6 0 01.1-2.725 22.918 22.918 0 01-2.725.1h-15.2a26.858 26.858 0 01-2.775-.1 21.539 21.539 0 01.1 2.4v16.35a23.747 23.747 0 01-.15 3h3.075a18.377 18.377 0 01-.125-2.9zm5.925-2.625h-5.925v-6.775h5.925zm2.7 0v-6.775h6.25v6.775z" fill="#eb5e00"/><path data-name="パス 331973" d="M232.767 167.124c0-4.662 1.7-10.143 6.993-10.143 3.843 0 6.615 2.646 6.615 6.8-.063 5.418-5.355 8.127-9.261 10.773-7.623 5.166-13.86 9.513-13.923 19.719h32.382v-7.682H234.72c3.213-4.536 8.379-7.056 12.726-10.143s7.875-6.741 7.875-13.356c0-8.631-7.056-13.8-15.12-13.8-10.584 0-16.317 7.749-16 17.829zm36.6 0c0-4.662 1.7-10.143 6.993-10.143 3.843 0 6.615 2.646 6.615 6.8-.063 5.418-5.355 8.127-9.261 10.773-7.623 5.166-13.86 9.513-13.923 19.719h32.382v-7.682H271.32c3.213-4.536 8.379-7.056 12.726-10.143s7.875-6.741 7.875-13.356c0-8.631-7.056-13.8-15.12-13.8-10.584 0-16.317 7.749-16 17.829zm57.2-16.947h-24.633l-4.347 24.381h8.064a7.431 7.431 0 016.741-3.528c4.788 0 7.623 3.654 7.623 8.253 0 4.41-2.961 8.505-7.623 8.505a7.124 7.124 0 01-7.245-6.615h-8.946c.126 9.261 7.812 13.986 16.38 13.986a15.923 15.923 0 0016.38-15.876c0-8.253-4.914-14.994-13.608-14.994a11.212 11.212 0 00-8.631 3.4l-.126-.126 1.764-10.017h18.207zm8.953 44.1h4.536a5.753 5.753 0 01-4.473 5.922v4.536c5.417-.819 9.828-4.658 9.828-10.458v-9.7h-9.891zm16.569-22.239c0 17.577 7.434 23.121 16.128 23.121 8.82 0 16.254-5.544 16.254-23.121 0-17.2-7.434-22.743-16.254-22.743-8.694 0-16.128 5.544-16.128 22.743zm8.946 0c0-4.6 0-15.372 7.182-15.372 7.308 0 7.308 10.773 7.308 15.372 0 4.977 0 15.75-7.308 15.75-7.182 0-7.182-10.773-7.182-15.75zm27.657 0c0 17.577 7.434 23.121 16.128 23.121 8.82 0 16.254-5.544 16.254-23.121 0-17.2-7.434-22.743-16.254-22.743-8.694 0-16.128 5.544-16.128 22.743zm8.946 0c0-4.6 0-15.372 7.182-15.372 7.308 0 7.308 10.773 7.308 15.372 0 4.977 0 15.75-7.308 15.75-7.182 0-7.182-10.773-7.182-15.75zm27.657 0c0 17.577 7.434 23.121 16.128 23.121 8.82 0 16.254-5.544 16.254-23.121 0-17.2-7.434-22.743-16.254-22.743-8.694 0-16.128 5.544-16.128 22.743zm8.946 0c0-4.6 0-15.372 7.182-15.372 7.308 0 7.308 10.773 7.308 15.372 0 4.977 0 15.75-7.308 15.75-7.182 0-7.182-10.773-7.182-15.75z" fill="#eb5e00"/><path data-name="パス 331974" d="M484.798 155.436l-4.133-4.142-.385.385 4.145 4.165-4.142 4.141.385.385 4.13-4.106 4.141 4.106.373-.385-4.141-4.141 4.142-4.167-.373-.385zm.012-3.859a.9.9 0 00-.9.887.906.906 0 00.9.9.889.889 0 00.887-.9.886.886 0 00-.887-.887zm-3.345 3.369a.889.889 0 00-.9.887.906.906 0 00.9.9.889.889 0 00.887-.9.886.886 0 00-.887-.887zm6.673.012a.886.886 0 00-.887.887.886.886 0 00.887.887.886.886 0 00.887-.887.886.886 0 00-.891-.888zm-3.34 3.382l-.023.023c-.012 0-.012 0-.023-.012a.043.043 0 00-.035-.012.94.94 0 00-.817.9.939.939 0 00.9.9.9.9 0 00.887-.9.889.889 0 00-.889-.899zm11.351 2.077a9.779 9.779 0 01-.093-1.517V153a17.578 17.578 0 01.093-1.925 8.484 8.484 0 01-1.19.058h-1.073a6.483 6.483 0 01-1.167-.07v1.482a10.375 10.375 0 011.2-.07h.56v6.428a9.683 9.683 0 01-.093 1.517z" fill="#2e3032"/></g></svg>