<svg xmlns="http://www.w3.org/2000/svg" width="470.155" height="33.215"><g data-name="グループ 18911"><path data-name="パス 331763" d="M118.125 15.33h-7.14a1.4 1.4 0 00-1.435 1.435 1.436 1.436 0 001.435 1.5h7.14v7.315a1.466 1.466 0 001.54 1.435 1.519 1.519 0 001.575-1.435v-7.31h7.175a1.436 1.436 0 001.435-1.5 1.4 1.4 0 00-1.435-1.435h-7.175v-7.18a1.519 1.519 0 00-1.575-1.435 1.466 1.466 0 00-1.54 1.435zm195.195-.77c0 7-2.31 11.235-8.155 14.105a2.065 2.065 0 00-1.295 1.82 2.091 2.091 0 002.065 2.065 2.619 2.619 0 001.05-.28c6.755-3.22 10.535-8.575 10.535-17.43V4.445a1.881 1.881 0 00-2.065-1.785 1.906 1.906 0 00-2.135 1.785zm-9.24-9.52a2.116 2.116 0 00-4.2 0v13.755a2.122 2.122 0 004.2 0zm30.87.63a1.835 1.835 0 00-1.855 1.925 1.992 1.992 0 002.03 2.065l16.87-.21c1.015 0 1.47.245 1.47.91a2.829 2.829 0 01-.105.7c-1.82 6.265-6.195 11.865-13.93 15.89a2.088 2.088 0 00-1.225 1.855 2.038 2.038 0 002.03 2.065 2.531 2.531 0 001.155-.28c8.26-4.025 14.35-11.165 16.275-19.46a8.6 8.6 0 00.245-2c0-2.345-1.435-3.675-5.11-3.64zm46.585 11.165a31.844 31.844 0 01-10.4 9.065 1.7 1.7 0 00.665 3.255 1.874 1.874 0 00.91-.245 36.314 36.314 0 0010.85-9.415v5.635l.035 2.45v.14c0 .77-.28.945-.945.945-.56 0-1.085-.105-1.645-.105a1.59 1.59 0 00-1.575 1.68 1.626 1.626 0 001.505 1.645 17.324 17.324 0 002.31.175 3.474 3.474 0 003.78-3.815v-.175l-.245-11.235h5.74a1.488 1.488 0 001.47-1.61 1.478 1.478 0 00-1.47-1.575h-5.81l-.105-4.725a1.549 1.549 0 00-1.715-1.4c-.91 0-1.82.525-1.785 1.47l.14 4.655h-10.39a1.471 1.471 0 00-1.435 1.575 1.482 1.482 0 001.435 1.61zm24.64-1.855a1.862 1.862 0 00-1.89 2 1.88 1.88 0 001.89 2h25.55a1.88 1.88 0 001.89-2 1.862 1.862 0 00-1.89-2zm44.555 10.08a163.578 163.578 0 006.475-19.81 3.109 3.109 0 00.07-.525 2.064 2.064 0 00-2.24-1.925 1.987 1.987 0 00-2.065 1.5 175.533 175.533 0 01-6.79 21.14c-1.015.07-1.995.105-2.975.175a1.884 1.884 0 00-1.82 1.995 1.862 1.862 0 001.89 2c.245 0 1.015-.07 1.575-.1a167.9 167.9 0 0019.95-2.66c.49.945.98 1.82 1.365 2.7a1.994 1.994 0 001.82 1.225 2.135 2.135 0 002.17-2.065 2.523 2.523 0 00-.245-1.05 55.557 55.557 0 00-7.035-10.885 2.307 2.307 0 00-1.785-.875 1.909 1.909 0 00-1.995 1.75 2.039 2.039 0 00.455 1.19 50.167 50.167 0 013.325 4.725c-4.025.62-8.085 1.11-12.145 1.495z" fill="#3b3938"/><path data-name="パス 331764" d="M4.13 3.465a2.077 2.077 0 00-4.13 0v26.7a2.081 2.081 0 004.13 0v-15.08a2.5 2.5 0 001.015.98 61.825 61.825 0 016.545 4.2 2.368 2.368 0 001.47.525 2.032 2.032 0 002-2.065 2.249 2.249 0 00-.98-1.82 41.041 41.041 0 00-7.42-4.48 2.155 2.155 0 00-.91-.21A2 2 0 004.13 13.3zM40.39 30.38a2.081 2.081 0 004.13 0V15.015a1.829 1.829 0 00-1.82-1.82 55.21 55.21 0 007.42-7.8 2.148 2.148 0 00.49-1.3 2.088 2.088 0 00-2.135-1.96 2.189 2.189 0 00-1.75.91 53.883 53.883 0 01-17.01 14.35 2.224 2.224 0 00-1.33 1.96 1.949 1.949 0 001.925 1.96A2.369 2.369 0 0031.535 21a61.573 61.573 0 008.855-5.88zm31.64-24.4a2.135 2.135 0 00-4.2 0v18.9c0 3.08 1.61 4.655 4.06 4.655a7.5 7.5 0 002.38-.385A40.237 40.237 0 0091.84 17.5a2.282 2.282 0 00.595-1.47 2.124 2.124 0 00-3.815-1.23 36.212 36.212 0 01-14.945 10.12 2.588 2.588 0 01-.805.14c-.6 0-.84-.35-.84-1.33z" fill="#169f44"/><path data-name="パス 331765" d="M165.41 29.12c2.03 0 3.325-.49 3.325-2.765V24.4c0-1.89-.875-2.765-3.325-2.765h-7.56c-2.45 0-3.325.875-3.325 2.765v1.96c0 1.89.875 2.765 3.325 2.765zm-6.72-2.52c-.455 0-.8-.1-.8-.63v-1.19c0-.455.175-.63.8-.63h5.88c.63 0 .8.175.8.63v1.19c0 .455-.175.63-.8.63zm7.875-11.1c2.17 0 4.06-.21 4.06-2.8v-2c0-1.96-.945-2.835-4.06-2.835h-9.625c-3.08 0-4.025.875-4.025 2.835v2c0 1.925.945 2.8 4.025 2.8zm-8.96-2.59c-.49 0-1.12 0-1.12-.63v-1.12c0-.56.21-.7 1.12-.7h8.33c.91 0 1.12.14 1.12.7v1.05c0 .56-.21.7-1.12.7zm2.135-9.73h-12.39a1.446 1.446 0 00-1.4 1.58 1.465 1.465 0 001.4 1.575h28.7a1.443 1.443 0 001.4-1.575 1.425 1.425 0 00-1.4-1.575h-12.53V1.61c0-1.015-.945-1.5-1.89-1.5s-1.89.49-1.89 1.5zm-7.7 13.86c-3.43 0-4.69 1.225-4.69 3.92v10.5c0 .945.945 1.435 1.89 1.435s1.89-.49 1.89-1.435V21.385c0-.98.385-1.33 1.68-1.33h17.78c1.295 0 1.68.35 1.68 1.33v6.825c0 .875-.245 1.155-.98 1.155a14.088 14.088 0 01-1.61-.175.969.969 0 00-.315-.035 1.614 1.614 0 00-1.54 1.715 1.542 1.542 0 001.225 1.61 13.222 13.222 0 002.8.245c2.87 0 4.2-1.33 4.2-3.99v-7.77c0-2.695-1.26-3.92-4.69-3.92zm50.435 11.45h-8.365c-.84 0-1.3.84-1.3 1.715 0 .84.455 1.715 1.3 1.715h19.285c.875 0 1.33-.875 1.33-1.715 0-.875-.455-1.715-1.33-1.715h-7.145v-6.93h5.145c.875 0 1.33-.875 1.33-1.715 0-.875-.455-1.715-1.33-1.715h-5.145v-5.845h6.4c.91 0 1.365-.84 1.365-1.68s-.455-1.68-1.365-1.68h-6.4v-6.65a1.921 1.921 0 00-3.78 0v6.65h-2.8a25.605 25.605 0 00.84-3.22 1.436 1.436 0 00.035-.385 1.791 1.791 0 00-3.535-.28 29.51 29.51 0 01-3.15 8.365 2.291 2.291 0 00-.35 1.155 1.66 1.66 0 001.75 1.61 2.112 2.112 0 001.855-1.19c.455-.84.91-1.75 1.33-2.695h4.025v5.845h-5.32c-.875 0-1.295.84-1.295 1.715 0 .84.42 1.715 1.295 1.715h5.32zM190.26 2.03c0-1.05-.945-1.54-1.89-1.54-.98 0-1.925.49-1.925 1.54v29.61c0 1.05.945 1.575 1.925 1.575a1.694 1.694 0 001.89-1.575zM183.15 9a31.964 31.964 0 01-.98 4.83 1.275 1.275 0 00-.07.49 1.375 1.375 0 001.435 1.33 1.49 1.49 0 001.435-1.12 28.785 28.785 0 00.98-5.18v-.18a1.36 1.36 0 00-1.43-1.37 1.324 1.324 0 00-1.37 1.2zm10.15-1.365a1.422 1.422 0 00-1.365-1.015 1.257 1.257 0 00-1.33 1.19 2.048 2.048 0 00.07.455 32.414 32.414 0 01.665 3.22 1.274 1.274 0 001.3 1.155 1.484 1.484 0 001.47-1.5v-.245a20.991 20.991 0 00-.805-3.265zm32.3 4.48c-2.9 0-3.92 1.05-3.92 3.36V31.71c0 .875.91 1.33 1.785 1.33.91 0 1.785-.455 1.785-1.33v-6.3h5.18v2.975c0 .595-.1.735-.63.735a8.766 8.766 0 01-1.12-.1c-.1 0-.175-.035-.28-.035a1.612 1.612 0 00-1.575 1.68 1.724 1.724 0 001.54 1.75 10.8 10.8 0 002.03.14c2.31 0 3.605-.945 3.605-3.815V15.47c0-2.31-1.015-3.36-3.92-3.36zm3.815 3.01c.77 0 1.015.21 1.015.91v1.4h-5.18v-1.4c0-.7.21-.91.98-.91zm1.015 7.42h-5.18V20.3h5.18zM222.32 7.21c-.525 0-1.015.035-1.54.035a1.518 1.518 0 00-1.47 1.645 1.672 1.672 0 001.645 1.785 99.066 99.066 0 0011.1-1.085 6.5 6.5 0 01.385.665 1.642 1.642 0 001.505.91 1.78 1.78 0 001.82-1.68 1.905 1.905 0 00-.245-.945 25.012 25.012 0 00-3.08-4.27 2.011 2.011 0 00-1.54-.735 1.609 1.609 0 00-1.72 1.435 1.681 1.681 0 00.42 1.05c.175.21.315.42.49.63l-3.605.315C227.22 5.6 227.85 4.2 228.48 2.7a1.373 1.373 0 00.14-.63 1.885 1.885 0 00-2.03-1.645 1.777 1.777 0 00-1.715 1.155 53.068 53.068 0 01-2.555 5.63zm18.8 17.955a34.424 34.424 0 007.63-3.4 1.964 1.964 0 001.015-1.61 1.921 1.921 0 00-1.855-1.89 2.026 2.026 0 00-1.05.315 27.5 27.5 0 01-5.74 2.87v-3.36a1.853 1.853 0 00-3.64 0v10.33c0 2.555.7 3.64 6.4 3.64 3.185 0 5.04-.35 6.16-1.33a5.652 5.652 0 001.54-4.13 1.857 1.857 0 00-3.675-.1c-.175 1.75-.665 2.24-3.745 2.24-2.765 0-3.045-.28-3.045-.98zm0-15.785a37.081 37.081 0 007.315-3.36 1.831 1.831 0 001.015-1.54 1.76 1.76 0 00-2.765-1.435 30.629 30.629 0 01-5.565 2.8v-3.5a1.853 1.853 0 00-3.64 0v9.2c0 2.555.7 3.64 6.4 3.64 2.765 0 4.375-.35 5.53-1.3a5.468 5.468 0 001.505-3.99 1.684 1.684 0 00-1.855-1.565 1.645 1.645 0 00-1.75 1.435c-.21 1.75-.595 2.2-3.15 2.2-2.765 0-3.045-.28-3.045-1.085zm45.85-2.695c0-2.38-1.3-3.36-4.515-3.36h-8.68v-1.89c0-.945-.945-1.435-1.89-1.435-.98 0-1.925.49-1.925 1.435v1.89h-8.47c-3.22 0-4.48.98-4.48 3.36V8.82a1.874 1.874 0 003.675 0V7.175c0-.665.28-.945 1.225-.945h5.18a1.693 1.693 0 00-.735.665c-1.365 2.45-4.165 4.41-7.6 5.39a1.516 1.516 0 00-1.225 1.47 1.605 1.605 0 001.575 1.645 1.36 1.36 0 00.525-.07c4.06-1.19 7.98-3.85 9.66-7.07a1.869 1.869 0 00.175-.7 1.431 1.431 0 00-.98-1.33h4.445v3.92c0 2.31.98 2.975 5.32 2.975 4.375 0 5.81-.91 6.09-3.57a2 2 0 00.77.14 1.655 1.655 0 001.855-1.5zm-10.61-.455h5.74c.91 0 1.155.245 1.155.91v1.015a1.982 1.982 0 00-.63-.1 1.429 1.429 0 00-1.54 1.155c-.14.945-.56 1.26-2.835 1.26-1.68 0-1.89-.175-1.89-.875zm3.535 13.72c.49.49.945.945 1.4 1.435a1.879 1.879 0 001.365.665 1.8 1.8 0 001.75-1.715 1.886 1.886 0 00-.63-1.3 40.635 40.635 0 00-5.81-4.76 1.9 1.9 0 00-1.085-.35 1.667 1.667 0 00-1.715 1.54 1.461 1.461 0 00.7 1.19 12.439 12.439 0 011.085.805c-2.765.21-5.565.42-8.4.56a45.55 45.55 0 002.345-3.6 1.946 1.946 0 00.28-.91 1.683 1.683 0 00-1.785-1.54 1.943 1.943 0 00-1.75 1.12 37.308 37.308 0 01-3.29 5.075c-1.47.035-2.94.07-4.41.07a1.516 1.516 0 00-1.645 1.54 1.591 1.591 0 001.715 1.61c5.915-.14 12.915-.56 19.88-1.435zm-15.785 9.275c0 2.765.91 3.43 7.8 3.43 6.86 0 8.4-1.155 8.715-4.69v-.175a1.689 1.689 0 00-1.855-1.61 1.623 1.623 0 00-1.75 1.4c-.175 1.75-.77 2.135-5.11 2.135-3.815 0-4.13-.175-4.13-.945v-4.305a1.62 1.62 0 00-1.82-1.5c-.945 0-1.855.49-1.855 1.5zm-5.04-4.375a17.925 17.925 0 01-1.96 3.43 1.672 1.672 0 001.47 2.73 1.955 1.955 0 001.57-.81 20.15 20.15 0 002.205-4.025 2.207 2.207 0 00.175-.77 1.719 1.719 0 00-1.82-1.575 1.743 1.743 0 00-1.64 1.02zm24.955-.84a2.006 2.006 0 00-1.4-.56 1.785 1.785 0 00-1.855 1.61 1.679 1.679 0 00.49 1.155 34.175 34.175 0 012.52 3.045 1.821 1.821 0 001.47.805 1.8 1.8 0 001.5-2.905 20.972 20.972 0 00-2.725-3.15zm-11.76-1.96a2 2 0 00-.945-.245 1.7 1.7 0 00-1.75 1.575 1.475 1.475 0 00.735 1.225c.665.455 1.47 1.12 2.065 1.61a1.872 1.872 0 001.155.455 1.7 1.7 0 001.68-1.645 1.758 1.758 0 00-.735-1.4 14.022 14.022 0 00-2.205-1.575z" fill="#eb5e1d"/></g></svg>