<svg xmlns="http://www.w3.org/2000/svg" width="318" height="182"><g data-name="グループ 18929"><path data-name="パス 48646" d="M-.002 1h318" fill="none" stroke="#878787" stroke-width="2"/><g data-name="グループ 18928"><path data-name="長方形 4344" fill="#fcede2" d="M0 131h318v50H0z"/><path data-name="長方形 4346" fill="#f0f0ee" d="M0 1h318v30H0z"/><path data-name="パス 48645" d="M-.002 31h318" fill="none" stroke="#878787"/><path data-name="パス 48644" d="M-.002 81h318" fill="none" stroke="#878787"/><path data-name="パス 48643" d="M-.002 131h318" fill="none" stroke="#878787" stroke-width="2"/><path data-name="パス 48640" d="M-.002 181h318" fill="none" stroke="#878787" stroke-width="2"/><path data-name="パス 48642" d="M116.5.997v180" fill="none" stroke="#878787"/><g data-name="グループ 18913"><path data-name="パス 331872" d="M195.663 17.632a11.106 11.106 0 001.232 1.344 5.363 5.363 0 01.836-1.344 6.658 6.658 0 01-.88-.72 15.219 15.219 0 00.96-1.376v6.08a10.6 10.6 0 01-.1 1.744h1.792a14.811 14.811 0 01-.064-1.76v-1.776h1.712V21.7a8.973 8.973 0 01-.064 1.456h1.744a11.405 11.405 0 01-.064-1.476v-1.856h1.936v1.312c0 .32-.064.384-.32.384a6.673 6.673 0 01-1.12-.1 3.269 3.269 0 01.416 1.68c.384.032.56.032.72.032a3.141 3.141 0 001.392-.172c.384-.208.544-.608.544-1.312V14.48a14.9 14.9 0 01.064-1.648 10.4 10.4 0 01-1.44.064h-2.192v-1.12h2.464a10.1 10.1 0 011.52.08v-1.728a13.635 13.635 0 01-1.52.08h-.1l.864-.688a6.788 6.788 0 00-1.728-1.248l-1.056.784a8.316 8.316 0 011.5 1.152h-1.952v-.32a6.664 6.664 0 01.1-1.376h-1.808a8.144 8.144 0 01.1 1.376v.32h-2.176a9.927 9.927 0 01-1.568-.1v1.664l-.624-.752a4.028 4.028 0 01-.816.048h-.32V9.724a8.682 8.682 0 01.08-1.2h-1.808a9.073 9.073 0 01.08 1.248v1.3h-.368a6.912 6.912 0 01-1.184-.064v1.68a11.332 11.332 0 011.312-.08h1.68a10.279 10.279 0 01-3.36 4.512 6.466 6.466 0 01.672 1.728 15.3 15.3 0 001.264-1.264v3.952a12.383 12.383 0 01-.112 1.824h1.84a14.866 14.866 0 01-.1-1.84l.016-3.392zm1.808-5.792a10.9 10.9 0 011.36-.064h2.32V12.9h-1.792a13.594 13.594 0 01-1.6-.064 12.9 12.9 0 01.048 1.632v.592l-.848-.672a10.984 10.984 0 01-.944 1.632 4.478 4.478 0 01-.384-.528 19.824 19.824 0 001.52-2.944 4.875 4.875 0 01.32-.688zm1.968 6.592v-1.376h1.712v1.376zm0-2.768v-1.328h1.712v1.328zm3.328 2.768v-1.376h1.936v1.376zm0-2.768v-1.328h1.936v1.328zm13.648 2.976l-.768.26V11c0-.7.016-1.456.048-1.744a8.6 8.6 0 01-1.2.064h-3.328a8.456 8.456 0 01-1.2-.064c.032.352.048 1.056.048 1.744v9.3a9.88 9.88 0 01-1.1.144l.316 1.892c.416-.128.512-.144 1.056-.288a61.251 61.251 0 006.032-1.872 7.711 7.711 0 01-1.952 1.936 5.646 5.646 0 011.408 1.264 8.446 8.446 0 001.712-1.808 11.321 11.321 0 001.632-3.184 20.227 20.227 0 00.768-4.848h1.856a46.206 46.206 0 01-.352 6.128c-.208 1.436-.336 1.648-1.008 1.648a11.713 11.713 0 01-1.824-.176 7.813 7.813 0 01.32 1.744c1.2.064 1.2.064 1.6.064 1.616 0 2.08-.352 2.4-1.808a36.744 36.744 0 00.56-6.72c.048-2.16.048-2.16.1-2.64a12.647 12.647 0 01-1.7.08h-1.872c.016-.768.032-1.232.032-1.824a9.276 9.276 0 01.1-1.408h-1.908a8.219 8.219 0 01.1 1.392c0 .752-.016 1.408-.032 1.84h-.42a12.473 12.473 0 01-1.708-.08v1.84a12.288 12.288 0 011.6-.08h.448c-.224 3.12-.688 4.864-1.76 6.5zm-4.72-1.008h2.288v1.76c-.64.192-1.408.384-2.288.576zm0-1.536v-1.808h2.288V16.1zm0-3.344v-1.808h2.288v1.808zm19.9-.24a5.078 5.078 0 01-.736.032h-1.28c.144-.256.144-.256.24-.448l.128-.256-1.488-.3a6.444 6.444 0 01-2.748 3.18 3.518 3.518 0 01.848 1.248 7.628 7.628 0 001.152-.96 8.6 8.6 0 00.944.976 9.6 9.6 0 01-3.136 1.44 3.815 3.815 0 01.8 1.472c.336-.144.432-.192.7-.32.016.24.016.368.016.592v2.5a12.813 12.813 0 01-.08 1.488h1.648v-.884h2.192v.752h1.6a27.918 27.918 0 01-.048-.768 5.057 5.057 0 01.848 1.2 8.848 8.848 0 003.248-2.3l-1.164-1.012h2.624l-1.12 1.024a8.814 8.814 0 003.232 2.256 6.354 6.354 0 01.96-1.536 7.319 7.319 0 01-2.944-1.744h.544c.384 0 .832.016 1.376.048-.032-.576-.048-.96-.048-1.648v-5.52c0-.608.016-.976.048-1.424a11.027 11.027 0 01-1.568.048h-1.052a11.843 11.843 0 00.4-1.12h1.136a12.39 12.39 0 011.68.08v-1.7a11.878 11.878 0 01-1.68.08h-4.18a11.158 11.158 0 01-1.68-.08v1.024c-.24.016-.528.032-1.184.032h-1.312v-.32a4.234 4.234 0 01.08-1.024h-1.84a4.675 4.675 0 01.08 1.008v.336h-1.5a10.277 10.277 0 01-1.28-.048c.032.4.048.784.048 1.072v.768a7.647 7.647 0 01-.068 1.028h1.584v-1.392h3.984zm.576.208h.928a7.264 7.264 0 01-.048-1.072v-1.04a13.907 13.907 0 011.632-.08h1.392c-.112.352-.176.56-.4 1.12h-.924a12.716 12.716 0 01-1.344-.032c.048.784.048.784.048 1.5v5.6c0 .368-.016 1.088-.048 1.472q.84-.048 1.248-.048h.48a5.9 5.9 0 01-1.248 1.092 5.661 5.661 0 01-1.556.784V19.28c0-.608 0-.608.032-1.1l.464.144a5.2 5.2 0 01.56-1.44 12.322 12.322 0 01-2.544-.96 13.564 13.564 0 001.648-2.24c.08-.112.1-.128.192-.256l.064-.08zm-1.44 1.152a10.693 10.693 0 01-1.072 1.28 6.42 6.42 0 01-1.088-1.1.7.7 0 00.144-.176zm-2.6 4.144a10.061 10.061 0 001.66-1.116 14.614 14.614 0 002.128 1.1c-.192.016-.288.016-.624.016zm.464 1.328h2.208V20.9h-2.212zm6.432-6.256h3.3v.96h-3.3zm0 2.272h3.3v1.008h-3.3zm0 2.32h3.3v.992h-3.3z" fill="#3b3938"/><path data-name="パス 331869" d="M26.97 108.7a17.8 17.8 0 012.528 3.94l1.5-1.04a20.509 20.509 0 00-2.284-3.328l1.344-.96a23.038 23.038 0 00-3.44-3.184c2.032-.016 2.448-.176 2.72-.992h1.248a11.26 11.26 0 01-.064-1.28v-1.024a7.438 7.438 0 01.064-1.168c-.5.048-.992.064-1.76.064h-4.592v-.288a5.982 5.982 0 01.08-1.008h-1.916a4.584 4.584 0 01.1 1.008v.288h-4.3c-.768 0-1.264-.016-1.76-.064a8.117 8.117 0 01.064 1.168v1.04a8.376 8.376 0 01-.06 1.228h1.744v-1.872h2.9a2.176 2.176 0 01-.9 1.168 8.2 8.2 0 01-3.232 1.156 5.283 5.283 0 01.928 1.392 8.379 8.379 0 003.936-1.984 3.031 3.031 0 00.992-1.728h1.152v1.856c0 .832.336 1.012 2.144 1.04l-1.088.64c.64.512.88.7 1.248 1.04-.832.08-2.624.16-4.384.208a21.919 21.919 0 001.776-2.384l-1.84-.448a14.8 14.8 0 01-1.92 2.88c-.992.016-1.52.016-1.6.016-.576 0-.832-.016-1.232-.048l.24 1.776c.464-.048.736-.064.928-.064 3.3-.112 6.544-.336 9.312-.656.32.352.432.512.752.9zm-1.372-7.468h3.244v.832a5.688 5.688 0 01-.928-.24c-.048.912-.1.976-.864.976a9.24 9.24 0 01-1.2-.048c-.208-.032-.252-.08-.252-.272zm-7.972 11.52a11.322 11.322 0 001.936-3.936l-1.536-.656a7.885 7.885 0 01-.768 1.94 7.817 7.817 0 01-1.072 1.516zm2.544-4.576a6.753 6.753 0 01.08 1.264v2.144c0 1.184.576 1.472 3.008 1.472 2.464 0 3.14-.064 3.648-.356.56-.3.736-.8.912-2.512a7.13 7.13 0 01-1.664-.48c-.016.884-.096 1.412-.256 1.556-.224.192-.688.24-2.624.24a3.832 3.832 0 01-1.056-.08c-.24-.064-.288-.144-.288-.5v-1.66a6.588 6.588 0 01.068-1.088zm5.648 1.472a9.57 9.57 0 00-1.82-2.08l-1.408.768a8.713 8.713 0 011.788 2.272z" fill="#3b3938"/><path data-name="パス 331870" d="M42.65 112.068a9.223 9.223 0 01-1.524-2.388 8.118 8.118 0 01-.636-3.288 7.874 7.874 0 01.624-3.18 9.351 9.351 0 011.524-2.388h-1.68a9.687 9.687 0 00-1.32 2.364 8.492 8.492 0 00-.612 3.2 8.831 8.831 0 00.636 3.312 9.611 9.611 0 001.308 2.364zm10.608-1.9c0 .348-.06.384-.648.384a11.222 11.222 0 01-1.56-.132 4.47 4.47 0 01.372 1.372c.48.024.84.036 1.164.036 1.128 0 1.56-.1 1.824-.432.144-.18.18-.36.18-.864v-6.876a10.3 10.3 0 01.048-1.164 10.408 10.408 0 01-1.368.06h-3.06c.012-.192.012-.192.024-.444.024-.492.024-.492.036-.66a2.833 2.833 0 01.072-.6h-1.5a6.222 6.222 0 01.072 1.052c0 .2 0 .372-.012.648h-2.94a11.4 11.4 0 01-1.392-.06 10.573 10.573 0 01.048 1.164v6.848a10.071 10.071 0 01-.084 1.448h1.476a9.9 9.9 0 01-.06-1.428v-2.328a4.5 4.5 0 01.768 1.008 6.881 6.881 0 002.28-2.124 5.34 5.34 0 00.576-1.14 8.923 8.923 0 002.892 3.048 4.578 4.578 0 01.792-1.128zm0-6.42v3.972a8.1 8.1 0 01-1.884-1.4 7.046 7.046 0 01-1.356-1.992c.036-.216.048-.276.084-.576zm-7.308 0h2.848a6.118 6.118 0 01-.852 2.5 5.454 5.454 0 01-1.992 1.8zm18.848 4.78a13.353 13.353 0 011.9 2.952l1.128-.78a15.382 15.382 0 00-1.716-2.5l1.008-.72a17.279 17.279 0 00-2.58-2.38c1.524-.012 1.836-.132 2.04-.744h.936a8.445 8.445 0 01-.048-.96v-.768a5.579 5.579 0 01.048-.876c-.372.036-.744.048-1.32.048H62.75v-.22a4.487 4.487 0 01.06-.756h-1.44a3.438 3.438 0 01.072.756v.22h-3.216c-.576 0-.948-.012-1.32-.048a6.088 6.088 0 01.048.876v.78a6.282 6.282 0 01-.048.924h1.308v-1.4h2.172a1.632 1.632 0 01-.672.876 6.152 6.152 0 01-2.424.864 3.962 3.962 0 01.7 1.044 6.284 6.284 0 002.948-1.496 2.274 2.274 0 00.744-1.3h.864v1.392c0 .624.252.756 1.608.78l-.816.48c.48.384.66.528.936.78-.624.06-1.968.12-3.288.156a16.439 16.439 0 001.332-1.784l-1.38-.336a11.1 11.1 0 01-1.44 2.16c-.744.012-1.14.012-1.2.012-.432 0-.624-.012-.924-.036l.18 1.332c.348-.036.552-.048.7-.048 2.472-.084 4.908-.252 6.984-.492.24.264.324.384.564.672zm-1.032-5.6h2.436v.624a4.266 4.266 0 01-.7-.18c-.036.684-.072.732-.648.732a6.93 6.93 0 01-.9-.036c-.156-.024-.192-.06-.192-.2zm-5.968 8.636a8.492 8.492 0 001.448-2.952l-1.148-.492a5.913 5.913 0 01-.576 1.452 5.863 5.863 0 01-.8 1.14zm1.9-3.432a5.064 5.064 0 01.06.948v1.608c0 .888.432 1.1 2.256 1.1 1.848 0 2.352-.048 2.736-.264.42-.228.552-.6.684-1.884a5.347 5.347 0 01-1.248-.36c-.008.664-.068 1.06-.188 1.168-.168.144-.516.18-1.968.18a2.874 2.874 0 01-.792-.06c-.18-.048-.216-.108-.216-.368v-1.252a4.941 4.941 0 01.048-.816zm4.236 1.1a7.178 7.178 0 00-1.368-1.56l-1.056.576a6.535 6.535 0 011.344 1.7zm15.164-3.332a4.225 4.225 0 01-.84.048h-3.544a3.694 3.694 0 01-.768-.06v1.272a3.471 3.471 0 01.54-.048 6.851 6.851 0 001.548 2.488 8.421 8.421 0 01-2.556 1.16v-1.8a5.7 5.7 0 01.036-.876 4.26 4.26 0 01-.8.036h-2.068c-.372 0-.624-.012-.924-.036a5.553 5.553 0 01.06.948v1.768a9.159 9.159 0 01-.072 1.184h1.224v-.576h1.4v.408h1.192a5.735 5.735 0 01-.048-.852 4.18 4.18 0 01.612 1.02 9.7 9.7 0 002.88-1.536 9.3 9.3 0 003 1.5 6.522 6.522 0 01.6-1.284 8.4 8.4 0 01-2.672-1.092 8.853 8.853 0 001.62-2.532 3.575 3.575 0 01.24-.492zm-.976 1.2a6.07 6.07 0 01-1.188 1.728 4.99 4.99 0 01-1.2-1.728zm-7.188 2.064h1.4v1.188h-1.4zm-1.176-6.816a7.97 7.97 0 011.008-.048h1.732a8.217 8.217 0 011 .048v-1.164a5.794 5.794 0 01-1 .06h-1.732a5.794 5.794 0 01-1.008-.06zm-.384 1.776a7.252 7.252 0 01.972-.048h2.532a5.424 5.424 0 01.912.048v-1.236a6.393 6.393 0 01-.972.048h-2.472a5.35 5.35 0 01-.972-.06zm.408 1.692a6.747 6.747 0 01.792-.036h2.136a6.868 6.868 0 01.768.036V104.7a5.9 5.9 0 01-.768.036h-2.136a6.607 6.607 0 01-.792-.036zm0 1.692a6.8 6.8 0 01.78-.036h2.124a5 5 0 01.792.036v-1.116a5.9 5.9 0 01-.768.036h-2.136a6.607 6.607 0 01-.792-.036zm7.516-5.052v2.112c0 .636.252.78 1.416.78 1.524 0 1.656-.144 1.8-2.112a4.725 4.725 0 01-1.08-.432c-.072 1.44-.072 1.44-.552 1.44-.288 0-.372-.048-.372-.2v-1.78a7.7 7.7 0 01.048-1.02 8.426 8.426 0 01-1.02.048h-1.84a7.694 7.694 0 01-.948-.048 4.139 4.139 0 01.06.8c0 1.572-.3 2.3-1.248 3a6.3 6.3 0 011.044.828 3.5 3.5 0 00.892-1.136 4.9 4.9 0 00.492-2.28zm9.816 1.272c-.048.216-.048.252-.1.456H83.39a8.494 8.494 0 01-1.368-.072v1.14a10.979 10.979 0 011.368-.06h3.348c-.06.168-.06.18-.144.432h-.7c-.576 0-.72 0-1.1-.024.024.288.036.588.036 1.14v2.292c0 .456-.012.744-.036 1.068.516-.036.7-.036 1.164-.036h4.572c.468 0 .672.012 1.164.036a9.724 9.724 0 01-.036-1.068v-2.292c0-.54.012-.864.036-1.152-.24.024-.636.036-1.116.036h-2.772l.144-.432h3.408a10.863 10.863 0 011.368.06v-1.14a8.406 8.406 0 01-1.368.072h-3.132l.108-.456h2.8c.588 0 .984.012 1.224.036a6.464 6.464 0 01-.048-.936v-.636a7.221 7.221 0 01.048-.984c-.216.024-.8.048-1.332.048H83.87c-.516 0-.972-.012-1.356-.048a5.746 5.746 0 01.06.984v.636a5.241 5.241 0 01-.06.936c.24-.024.7-.036 1.248-.036zm-1.668-.96h-1.672v-.528h1.668zm2.748 0h-1.636v-.528h1.632zm1.116 0v-.528h1.764v.528zm-3.28 3.708h4.428v.4H86.03zm0 1.152h4.428v.408H86.03zm0 1.164h4.428v.408H86.03zm-2.148 1.728v-3.66a6.573 6.573 0 01.06-1.068H82.55a5.584 5.584 0 01.072 1.08v3.948a6.447 6.447 0 01-.072 1.188h1.332v-.456h7.572a8.582 8.582 0 011.368.072v-1.164a10.633 10.633 0 01-1.368.06zm12.156 1.548a10.025 10.025 0 001.308-2.368 9.012 9.012 0 00.624-3.312 8.492 8.492 0 00-.612-3.2 9.578 9.578 0 00-1.308-2.364h-1.692a9.8 9.8 0 011.54 2.388 7.79 7.79 0 01.612 3.18 8.078 8.078 0 01-.636 3.288 9.223 9.223 0 01-1.524 2.388z" fill="#3b3938"/><path data-name="パス 331868" d="M38.231 154.44a18.07 18.07 0 012.064-.1h8.204a17.471 17.471 0 012.16.1v-1.68a23.326 23.326 0 003.912 2.112 12.922 12.922 0 011.32-2.64 22.567 22.567 0 01-6.12-3.288 15.681 15.681 0 01-4.032-4.056h-2.856a16.76 16.76 0 01-3.764 4.012 23.98 23.98 0 01-6.12 3.452 9.294 9.294 0 011.392 2.448 24.433 24.433 0 003.84-2.016zm2.088-2.592h-.672a16.8 16.8 0 004.7-4.68 21.923 21.923 0 004.952 4.68h-8.98zm-1.176 14.976V165.6h10.488v1.224h2.856a14.993 14.993 0 01-.144-2.524v-5.612a16.359 16.359 0 01.12-2.376 15.743 15.743 0 01-2.088.1h-12a15.114 15.114 0 01-2.064-.1 21.669 21.669 0 01.12 2.376v5.592a19.191 19.191 0 01-.144 2.544zm0-8.088h10.488v4.512H39.143zm34.344-6.6h-1.512a22.957 22.957 0 01-2.9-.144v2.76a26.841 26.841 0 012.924-.144h1.488v8.76a27.316 27.316 0 01-.168 3.624h3a28.535 28.535 0 01-.168-3.624v-8.76h1.68a26.841 26.841 0 012.928.144v-2.76a22.957 22.957 0 01-2.9.144h-1.7v-4.344a18.522 18.522 0 01.168-2.88h-3a16.258 16.258 0 01.168 2.88zm-13.608-4.272a16.769 16.769 0 012.064-.1h4.156a16.6 16.6 0 012.04.1v-2.352a11.891 11.891 0 01-2.04.12h-4.156a11.859 11.859 0 01-2.064-.12zm-1.008 3.436a13.394 13.394 0 012.016-.12h6.192a14.5 14.5 0 012.04.1v-2.4a11.722 11.722 0 01-2.04.12h-6.168a11.909 11.909 0 01-2.04-.144zm1.028 3.332a10.008 10.008 0 011.584-.072h5.092a9.52 9.52 0 011.536.072v-2.28a8.919 8.919 0 01-1.536.072h-5.088a13.494 13.494 0 01-1.588-.072zm0 3.408a13.32 13.32 0 011.56-.072h5.068a13.215 13.215 0 011.584.072v-2.28a8.92 8.92 0 01-1.536.072h-5.088a12.157 12.157 0 01-1.588-.072zm2.524 7.872h3.336v.744h2.568a12.686 12.686 0 01-.12-2.088v-3.528a12.986 12.986 0 01.1-1.848 13.04 13.04 0 01-1.56.072h-5.164a13.676 13.676 0 01-1.684-.072 14.988 14.988 0 01.1 1.872v3.624a16.3 16.3 0 01-.12 2.3h2.544zm-.048-4.464h3.408v2.328h-3.408z" fill="#ef4123"/><path data-name="パス 331871" d="M30.343 52.08l-2.976.464a14.872 14.872 0 01-1.76.176l.32 1.968a17.066 17.066 0 011.76-.368l2.976-.464.48 2.624-3.888.624a9.846 9.846 0 01-1.7.16l.32 1.968a12.875 12.875 0 011.632-.352l3.952-.624.576 3.152a12.11 12.11 0 01.208 1.68l2.148-.388a9.038 9.038 0 01-.384-1.648l-.576-3.1 3.808-.608.64-.1a1.243 1.243 0 01.256-.032 3.837 3.837 0 01.736-.08l-.352-1.92a14.218 14.218 0 01-1.664.368l-3.76.592-.48-2.624 3.376-.528a13.584 13.584 0 011.536-.208l-.336-1.92a8.241 8.241 0 01-1.536.352l-3.376.528-.256-1.392a11.007 11.007 0 01-.192-1.5l-2.112.336a6.894 6.894 0 01.384 1.5zm13.136 1.22a16.007 16.007 0 011.456 3.872l1.808-.576a18.456 18.456 0 00-1.568-3.796zm3.424-.672a17.594 17.594 0 011.456 3.756l1.776-.56a15.718 15.718 0 00-1.552-3.68zm5.5-.16a7.1 7.1 0 01-.284 1.832 9.2 9.2 0 01-3.632 5.556 10.379 10.379 0 01-2.72 1.472 5.812 5.812 0 011.28 1.584 12.281 12.281 0 004.88-3.856 13.658 13.658 0 002.208-5.328 3.367 3.367 0 01.224-.816zm17.476-3.46a8.414 8.414 0 01-1.936.752 27.62 27.62 0 01-6.848.928c-.24 0-.5 0-.992-.032a6.715 6.715 0 01.596 1.728 35.8 35.8 0 004.432-.368c0 1.12 0 1.744-.032 2.416h-4.1a9.919 9.919 0 01-1.952-.112v1.92a14.62 14.62 0 011.92-.08h3.952a9.2 9.2 0 01-.176 1.072 5.106 5.106 0 01-1.844 2.72 7.379 7.379 0 01-2.476 1.348 5.183 5.183 0 011.392 1.692 9.976 9.976 0 001.484-.8 8.274 8.274 0 002.612-2.544 8.388 8.388 0 001.072-3.488h3.536a14.62 14.62 0 011.92.08v-1.92a9.919 9.919 0 01-1.952.112h-3.388c.032-.544.032-.544.048-2.7a19.789 19.789 0 002.672-.656c1.152-.384 1.152-.384 1.344-.432zm5.952 2.72a16.8 16.8 0 014.08 3.248l1.376-1.744a22.661 22.661 0 00-4.128-3.088zm.56 10.56a5.664 5.664 0 011.056-.272 17.282 17.282 0 006.1-2.4 14.042 14.042 0 005.072-6.272 6.9 6.9 0 01-1.7-1.568 13.36 13.36 0 01-1.632 3.2 10.69 10.69 0 01-4.752 3.924 15.246 15.246 0 01-4.736 1.18z" fill="#3b3938"/><path data-name="パス 331861" d="M284.502 62.869h7.735v3.172c0 .312-.078.351-.585.351-.468 0-1.118-.052-1.976-.143a5 5 0 01.4 1.4c.51.03 1.225.056 1.732.056a3.2 3.2 0 001.365-.182c.377-.2.533-.559.533-1.222v-8.333a12.794 12.794 0 01.052-1.417 11.918 11.918 0 01-1.417.052h-7.9a13.966 13.966 0 01-1.443-.052 11.2 11.2 0 01.048 1.248v8.5a12.348 12.348 0 01-.078 1.562h1.595a9.556 9.556 0 01-.061-1.508zm3.081-1.365h-3.081v-3.523h3.081zm1.4 0v-3.523h3.25v3.523z" fill="#009f44"/><path data-name="パス 331862" d="M178.41 43.8h-14.076l-2.484 13.932h4.608a4.246 4.246 0 013.852-2.016c2.736 0 4.356 2.088 4.356 4.716 0 2.52-1.692 4.86-4.356 4.86a4.071 4.071 0 01-4.14-3.78h-5.112c.072 5.288 4.464 7.988 9.36 7.988a9.1 9.1 0 009.36-9.072c0-4.716-2.808-8.568-7.776-8.568a6.407 6.407 0 00-4.932 1.944l-.072-.072 1.008-5.724h10.4zm17.028 0h-4.068c-.54 3.852-3.816 5.076-7.38 5v3.852h6.336V69h5.112zm9 25.2h2.592a3.287 3.287 0 01-2.556 3.384v2.592c3.1-.468 5.616-2.664 5.616-5.976v-5.544h-5.652zm9.468-12.708c0 10.044 4.248 13.208 9.216 13.208 5.04 0 9.288-3.168 9.288-13.212 0-9.828-4.248-13-9.288-13-4.968.012-9.216 3.176-9.216 13.004zm5.112 0c0-2.628 0-8.784 4.1-8.784 4.176 0 4.176 6.156 4.176 8.784 0 2.844 0 9-4.176 9-4.1 0-4.1-6.156-4.1-9zm15.8 0c.004 10.044 4.252 13.208 9.22 13.208 5.04 0 9.288-3.168 9.288-13.212 0-9.828-4.248-13-9.288-13-4.968.012-9.216 3.176-9.216 13.004zm5.112 0c0-2.628 0-8.784 4.1-8.784 4.176 0 4.176 6.156 4.176 8.784 0 2.844 0 9-4.176 9-4.096 0-4.096-6.156-4.096-9zm15.8 0c.008 10.044 4.256 13.208 9.224 13.208 5.044 0 9.288-3.164 9.288-13.208 0-9.828-4.248-13-9.288-13-4.968.008-9.216 3.172-9.216 13zm5.112 0c0-2.628 0-8.784 4.1-8.784 4.176 0 4.176 6.156 4.176 8.784 0 2.844 0 9-4.176 9-4.092 0-4.092-6.156-4.092-9z" fill="#009f44"/><path data-name="パス 331866" d="M284.501 162.818h7.735v3.172c0 .312-.078.351-.585.351-.468 0-1.118-.052-1.976-.143a5 5 0 01.4 1.4c.51.03 1.225.056 1.732.056a3.2 3.2 0 001.365-.182c.377-.2.533-.559.533-1.222v-8.333a12.794 12.794 0 01.052-1.417 11.918 11.918 0 01-1.417.052h-7.9a13.966 13.966 0 01-1.443-.052 11.2 11.2 0 01.048 1.248v8.5a12.348 12.348 0 01-.078 1.562h1.595a9.556 9.556 0 01-.061-1.508zm3.081-1.365h-3.081v-3.523h3.081zm1.4 0v-3.523h3.25v3.523z" fill="#ef4123"/><path data-name="パス 331867" d="M144.131 153.053c0-2.738 1-5.957 4.107-5.957a3.74 3.74 0 013.885 4c-.037 3.182-3.145 4.773-5.439 6.327-4.477 3.034-8.14 5.587-8.177 11.581h19.018v-4.518h-12.247c1.887-2.664 4.921-4.144 7.474-5.957s4.625-3.959 4.625-7.844c0-5.069-4.144-8.1-8.88-8.1-6.216 0-9.583 4.551-9.4 10.471zm34.225-9.953H160.67v4.884h12.284A37.836 37.836 0 00164.259 169h5.624c.074-6.919 3.034-16.65 8.473-21.386zm21.719 6.66c-.592-4.551-3.922-7.178-8.4-7.178-7.363 0-10.175 7.215-10.175 13.542-.002 6.549 2.11 13.394 9.954 13.394 5.4 0 9.065-4.181 9.065-9.472a8.912 8.912 0 00-2-5.772 8.273 8.273 0 00-5.957-2.664 6.592 6.592 0 00-5.844 2.89l-.074-.074c.148-2.886 1.147-7.881 4.958-7.881a3.708 3.708 0 013.478 3.219zm-8.769 5.809c2.7 0 3.959 2.442 3.959 4.884 0 2.331-1.443 4.736-3.959 4.736-2.627 0-4.181-2.4-4.181-4.81 0-2.553 1.373-4.81 4.181-4.81zM204.478 169h2.664a3.379 3.379 0 01-2.627 3.478v2.664c3.183-.481 5.772-2.742 5.772-6.142v-5.7h-5.809zm9.731-13.061c0 10.323 4.366 13.579 9.472 13.579 5.18 0 9.546-3.256 9.546-13.579 0-10.1-4.366-13.357-9.546-13.357-5.106 0-9.472 3.256-9.472 13.357zm5.254 0c0-2.7 0-9.028 4.218-9.028 4.292 0 4.292 6.327 4.292 9.028 0 2.923 0 9.25-4.292 9.25-4.218 0-4.218-6.327-4.218-9.25zm16.243 0c0 10.323 4.366 13.579 9.472 13.579 5.18 0 9.546-3.256 9.546-13.579 0-10.1-4.366-13.357-9.546-13.357-5.106 0-9.472 3.256-9.472 13.357zm5.254 0c0-2.7 0-9.028 4.218-9.028 4.292 0 4.292 6.327 4.292 9.028 0 2.923 0 9.25-4.292 9.25-4.218 0-4.218-6.327-4.218-9.25zm16.243 0c-.005 10.323 4.366 13.579 9.472 13.579 5.18 0 9.546-3.256 9.546-13.579 0-10.1-4.366-13.357-9.546-13.357-5.106 0-9.477 3.256-9.477 13.357zm5.254 0c0-2.7 0-9.028 4.218-9.028 4.292 0 4.292 6.327 4.292 9.028 0 2.923 0 9.25-4.292 9.25-4.218 0-4.218-6.327-4.218-9.25z" fill="#ef4123"/><path data-name="パス 331863" d="M284.5 110.846h7.735v3.172c0 .312-.078.351-.585.351-.468 0-1.118-.052-1.976-.143a5 5 0 01.4 1.4c.51.03 1.225.056 1.732.056a3.2 3.2 0 001.365-.182c.377-.2.533-.559.533-1.222v-8.333a12.794 12.794 0 01.052-1.417 11.918 11.918 0 01-1.417.052h-7.9a13.966 13.966 0 01-1.443-.052 11.2 11.2 0 01.048 1.248v8.5a12.348 12.348 0 01-.078 1.562h1.595a9.556 9.556 0 01-.061-1.508zm3.081-1.365H284.5v-3.523h3.081zm1.4 0v-3.523h3.25v3.523z" fill="#eb5e00"/><path data-name="パス 331864" d="M144.13 101.362c0-2.738 1-5.957 4.107-5.957a3.74 3.74 0 013.885 4c-.037 3.182-3.145 4.773-5.439 6.327-4.477 3.034-8.14 5.587-8.177 11.581h19.018v-4.518h-12.247c1.887-2.664 4.921-4.144 7.474-5.957s4.625-3.959 4.625-7.844c0-5.069-4.144-8.1-8.88-8.1-6.216 0-9.583 4.551-9.4 10.471zm21.5 0c0-2.738 1-5.957 4.107-5.957a3.74 3.74 0 013.885 4c-.037 3.182-3.145 4.773-5.439 6.327-4.477 3.034-8.14 5.587-8.177 11.581h19.018v-4.518h-12.247c1.887-2.664 4.921-4.144 7.474-5.957s4.625-3.959 4.625-7.844c0-5.069-4.144-8.1-8.88-8.1-6.216 0-9.583 4.551-9.4 10.471zm33.6-9.953h-14.474l-2.553 14.319h4.736a4.364 4.364 0 013.958-2.072c2.812 0 4.477 2.146 4.477 4.847 0 2.59-1.739 4.995-4.477 4.995a4.184 4.184 0 01-4.254-3.889h-5.254c.074 5.439 4.588 8.214 9.62 8.214a9.351 9.351 0 009.62-9.324c0-4.847-2.886-8.806-7.992-8.806a6.585 6.585 0 00-5.069 2l-.074-.074 1.036-5.883h10.693zm5.247 25.9h2.664a3.379 3.379 0 01-2.627 3.478v2.664c3.183-.481 5.772-2.742 5.772-6.142v-5.7h-5.809zm9.731-13.061c0 10.323 4.366 13.579 9.472 13.579 5.18 0 9.546-3.256 9.546-13.579 0-10.1-4.366-13.357-9.546-13.357-5.106 0-9.472 3.256-9.472 13.357zm5.254 0c0-2.7 0-9.028 4.218-9.028 4.292 0 4.292 6.327 4.292 9.028 0 2.923 0 9.25-4.292 9.25-4.218 0-4.218-6.327-4.218-9.25zm16.243 0c0 10.323 4.366 13.579 9.472 13.579 5.18 0 9.546-3.256 9.546-13.579 0-10.1-4.366-13.357-9.546-13.357-5.106 0-9.472 3.256-9.472 13.357zm5.254 0c0-2.7 0-9.028 4.218-9.028 4.292 0 4.292 6.327 4.292 9.028 0 2.923 0 9.25-4.292 9.25-4.218 0-4.218-6.327-4.218-9.25zm16.243 0c-.005 10.323 4.366 13.579 9.472 13.579 5.18 0 9.546-3.256 9.546-13.579 0-10.1-4.366-13.357-9.546-13.357-5.106 0-9.477 3.256-9.477 13.357zm5.254 0c0-2.7 0-9.028 4.218-9.028 4.292 0 4.292 6.327 4.292 9.028 0 2.923 0 9.25-4.292 9.25-4.218 0-4.218-6.327-4.218-9.25z" fill="#eb5e00"/><path data-name="パス 331865" d="M285.654 95.162l-2.684-2.692-.25.25 2.692 2.707-2.692 2.692.25.25 2.684-2.669 2.692 2.67.243-.25-2.692-2.693 2.692-2.707-.243-.25zm.009-2.51a.583.583 0 00-.584.576.589.589 0 00.584.581.578.578 0 00.576-.584.576.576 0 00-.576-.573zm-2.177 2.192a.578.578 0 00-.584.576.589.589 0 00.584.584.578.578 0 00.577-.584.576.576 0 00-.577-.576zm4.337.008a.576.576 0 00-.576.576.576.576 0 00.576.576.576.576 0 00.576-.576.576.576 0 00-.576-.577zm-2.169 2.2l-.015.015c-.008 0-.008 0-.015-.008a.028.028 0 00-.023-.008.611.611 0 00-.531.584.61.61 0 00.584.584.588.588 0 00.576-.584.578.578 0 00-.576-.585zm7.378 1.35a6.356 6.356 0 01-.061-.986v-3.839a11.426 11.426 0 01.061-1.251 5.515 5.515 0 01-.773.038h-.696a4.214 4.214 0 01-.76-.045v.963a6.744 6.744 0 01.781-.045h.364v4.178a6.294 6.294 0 01-.061.986z" fill="#2e3032"/></g></g></g></svg>