<svg xmlns="http://www.w3.org/2000/svg" width="445.515" height="33.215"><g data-name="グループ 18902"><path data-name="パス 331741" d="M93.485 15.33h-7.14a1.4 1.4 0 00-1.435 1.435 1.436 1.436 0 001.435 1.5h7.14v7.315a1.466 1.466 0 001.54 1.435A1.519 1.519 0 0096.6 25.58v-7.31h7.175a1.436 1.436 0 001.435-1.5 1.4 1.4 0 00-1.435-1.435H96.6v-7.18a1.519 1.519 0 00-1.575-1.435 1.466 1.466 0 00-1.54 1.435zm195.195-.77c0 7-2.31 11.235-8.155 14.105a2.065 2.065 0 00-1.295 1.82 2.091 2.091 0 002.065 2.065 2.619 2.619 0 001.05-.28c6.755-3.22 10.54-8.57 10.54-17.43V4.445a1.881 1.881 0 00-2.07-1.785 1.906 1.906 0 00-2.135 1.785zm-9.24-9.52a2.116 2.116 0 00-4.2 0v13.755a2.122 2.122 0 004.2 0zm30.87.63a1.835 1.835 0 00-1.855 1.925 1.992 1.992 0 002.03 2.065l16.87-.21c1.015 0 1.47.245 1.47.91a2.829 2.829 0 01-.105.7c-1.82 6.265-6.2 11.865-13.93 15.89a2.088 2.088 0 00-1.225 1.85 2.038 2.038 0 002.03 2.065 2.531 2.531 0 001.155-.28c8.26-4.025 14.35-11.165 16.275-19.46a8.6 8.6 0 00.245-2c0-2.345-1.435-3.675-5.11-3.64zm46.585 11.165a31.844 31.844 0 01-10.4 9.065 1.7 1.7 0 00.665 3.255 1.874 1.874 0 00.91-.245 36.314 36.314 0 0010.855-9.41v5.63l.035 2.45v.14c0 .77-.28.945-.945.945-.56 0-1.085-.105-1.645-.105a1.59 1.59 0 00-1.575 1.68 1.626 1.626 0 001.505 1.645 17.324 17.324 0 002.31.175 3.474 3.474 0 003.78-3.815v-.175l-.245-11.235h5.74a1.488 1.488 0 001.47-1.61 1.478 1.478 0 00-1.47-1.575h-5.81l-.105-4.725a1.549 1.549 0 00-1.715-1.4c-.91 0-1.82.525-1.785 1.47l.14 4.655h-10.395a1.471 1.471 0 00-1.435 1.575 1.482 1.482 0 001.435 1.61zm24.64-1.855a1.862 1.862 0 00-1.89 2 1.88 1.88 0 001.89 2h25.55a1.88 1.88 0 001.89-2 1.862 1.862 0 00-1.89-2zm44.555 10.08a163.578 163.578 0 006.475-19.81 3.109 3.109 0 00.07-.525 2.064 2.064 0 00-2.24-1.925 1.987 1.987 0 00-2.065 1.5 175.533 175.533 0 01-6.79 21.14c-1.015.07-1.995.105-2.975.175a1.884 1.884 0 00-1.82 1.995 1.862 1.862 0 001.89 2c.245 0 1.015-.07 1.575-.1a167.9 167.9 0 0019.95-2.66c.49.945.98 1.82 1.365 2.7a1.994 1.994 0 001.82 1.225 2.135 2.135 0 002.17-2.065 2.523 2.523 0 00-.245-1.05 55.557 55.557 0 00-7.035-10.885 2.307 2.307 0 00-1.785-.875 1.909 1.909 0 00-1.995 1.75 2.039 2.039 0 00.455 1.19 50.167 50.167 0 013.325 4.725c-4.025.62-8.085 1.11-12.145 1.495z" fill="#3b3938"/><path data-name="パス 331740" d="M140.77 29.12c2.03 0 3.325-.49 3.325-2.765V24.4c0-1.89-.875-2.765-3.325-2.765h-7.56c-2.45 0-3.325.875-3.325 2.765v1.96c0 1.89.875 2.765 3.325 2.765zm-6.72-2.52c-.455 0-.8-.1-.8-.63v-1.19c0-.455.175-.63.8-.63h5.88c.63 0 .8.175.8.63v1.19c0 .455-.175.63-.8.63zm7.875-11.1c2.17 0 4.06-.21 4.06-2.8v-2c0-1.96-.945-2.835-4.06-2.835H132.3c-3.08 0-4.025.875-4.025 2.835v2c0 1.925.945 2.8 4.025 2.8zm-8.96-2.59c-.49 0-1.12 0-1.12-.63v-1.12c0-.56.21-.7 1.12-.7h8.33c.91 0 1.12.14 1.12.7v1.05c0 .56-.21.7-1.12.7zm2.135-9.73h-12.39a1.446 1.446 0 00-1.4 1.575 1.465 1.465 0 001.4 1.575h28.7a1.443 1.443 0 001.4-1.575 1.425 1.425 0 00-1.4-1.575h-12.525V1.61c0-1.015-.945-1.5-1.89-1.5s-1.89.49-1.89 1.5zm-7.7 13.86c-3.43 0-4.69 1.225-4.69 3.92v10.5c0 .945.945 1.435 1.89 1.435s1.89-.49 1.89-1.435V21.385c0-.98.385-1.33 1.68-1.33h17.78c1.295 0 1.68.35 1.68 1.33v6.825c0 .875-.245 1.155-.98 1.155a14.088 14.088 0 01-1.61-.175.969.969 0 00-.315-.035 1.614 1.614 0 00-1.54 1.715 1.542 1.542 0 001.225 1.61 13.222 13.222 0 002.8.245c2.87 0 4.2-1.33 4.2-3.99v-7.77c0-2.695-1.26-3.92-4.69-3.92zm50.435 11.45h-8.365c-.84 0-1.3.84-1.3 1.715 0 .84.455 1.715 1.3 1.715h19.285c.875 0 1.33-.875 1.33-1.715 0-.875-.455-1.715-1.33-1.715h-7.14v-6.93h5.145c.875 0 1.33-.875 1.33-1.715 0-.875-.455-1.715-1.33-1.715h-5.145v-5.845h6.4c.91 0 1.365-.84 1.365-1.68s-.455-1.68-1.365-1.68h-6.4v-6.65a1.921 1.921 0 00-3.78 0v6.65h-2.8a25.605 25.605 0 00.84-3.22 1.436 1.436 0 00.035-.385 1.791 1.791 0 00-3.535-.28 29.51 29.51 0 01-3.15 8.365 2.291 2.291 0 00-.35 1.155 1.66 1.66 0 001.75 1.61 2.112 2.112 0 001.855-1.19c.455-.84.91-1.75 1.33-2.695h4.025v5.845h-5.32c-.875 0-1.295.84-1.295 1.715 0 .84.42 1.715 1.295 1.715h5.32zM165.62 2.03c0-1.05-.945-1.54-1.89-1.54-.98 0-1.925.49-1.925 1.54v29.61c0 1.05.945 1.575 1.925 1.575a1.694 1.694 0 001.89-1.575zM158.515 9a31.964 31.964 0 01-.98 4.83 1.275 1.275 0 00-.07.49 1.375 1.375 0 001.435 1.33 1.49 1.49 0 001.435-1.12 28.785 28.785 0 00.98-5.18v-.18a1.36 1.36 0 00-1.43-1.37 1.324 1.324 0 00-1.37 1.2zm10.15-1.37a1.422 1.422 0 00-1.365-1.015 1.257 1.257 0 00-1.33 1.19 2.048 2.048 0 00.07.455 32.414 32.414 0 01.665 3.22 1.274 1.274 0 001.3 1.155 1.484 1.484 0 001.47-1.5v-.245a20.991 20.991 0 00-.81-3.26zm32.3 4.48c-2.9 0-3.92 1.05-3.92 3.36v16.24c0 .875.91 1.33 1.785 1.33.91 0 1.785-.455 1.785-1.33v-6.3h5.18v2.975c0 .595-.1.735-.63.735a8.766 8.766 0 01-1.12-.1c-.1 0-.175-.035-.28-.035a1.612 1.612 0 00-1.575 1.68 1.724 1.724 0 001.54 1.75 10.8 10.8 0 002.03.14c2.31 0 3.605-.945 3.605-3.815V15.47c0-2.31-1.015-3.36-3.92-3.36zm3.815 3.01c.77 0 1.015.21 1.015.91v1.4h-5.18v-1.4c0-.7.21-.91.98-.91zm1.015 7.42h-5.18V20.3h5.18zm-8.12-15.33c-.525 0-1.015.035-1.54.035a1.518 1.518 0 00-1.47 1.645 1.672 1.672 0 001.645 1.785 99.066 99.066 0 0011.1-1.085 6.5 6.5 0 01.385.665 1.642 1.642 0 001.505.91 1.78 1.78 0 001.82-1.68 1.905 1.905 0 00-.245-.945 25.012 25.012 0 00-3.08-4.27 2.011 2.011 0 00-1.54-.735 1.609 1.609 0 00-1.715 1.435 1.681 1.681 0 00.42 1.05c.175.21.315.42.49.63l-3.605.315c.735-1.365 1.365-2.765 1.995-4.27a1.373 1.373 0 00.14-.63A1.885 1.885 0 00201.95.42a1.777 1.777 0 00-1.715 1.155 53.068 53.068 0 01-2.555 5.635zm18.8 17.955a34.424 34.424 0 007.63-3.4 1.964 1.964 0 001.015-1.61 1.921 1.921 0 00-1.855-1.89 2.026 2.026 0 00-1.05.315 27.5 27.5 0 01-5.74 2.87v-3.36a1.853 1.853 0 00-3.64 0v10.33c0 2.555.7 3.64 6.4 3.64 3.185 0 5.04-.35 6.16-1.33a5.652 5.652 0 001.54-4.13 1.857 1.857 0 00-3.675-.1c-.175 1.75-.665 2.24-3.745 2.24-2.765 0-3.045-.28-3.045-.98zm0-15.785a37.081 37.081 0 007.315-3.36 1.831 1.831 0 001.015-1.54 1.76 1.76 0 00-2.765-1.435 30.629 30.629 0 01-5.565 2.8v-3.5a1.853 1.853 0 00-3.64 0v9.2c0 2.555.7 3.64 6.4 3.64 2.765 0 4.375-.35 5.53-1.3a5.468 5.468 0 001.505-3.99 1.684 1.684 0 00-1.855-1.575 1.645 1.645 0 00-1.75 1.435c-.21 1.75-.595 2.2-3.15 2.2-2.765 0-3.045-.28-3.045-1.085zm45.85-2.695c0-2.38-1.3-3.36-4.515-3.36h-8.68v-1.89c0-.945-.945-1.435-1.89-1.435-.98 0-1.925.49-1.925 1.435v1.89h-8.47c-3.22 0-4.48.98-4.48 3.36V8.82a1.874 1.874 0 003.675 0V7.175c0-.665.28-.945 1.225-.945h5.18a1.693 1.693 0 00-.735.665c-1.365 2.45-4.165 4.41-7.6 5.39a1.516 1.516 0 00-1.225 1.47 1.605 1.605 0 001.58 1.645 1.36 1.36 0 00.525-.07c4.06-1.19 7.98-3.85 9.66-7.07a1.869 1.869 0 00.175-.7 1.431 1.431 0 00-.98-1.33h4.445v3.92c0 2.31.98 2.975 5.32 2.975 4.375 0 5.81-.91 6.09-3.57a2 2 0 00.77.14 1.655 1.655 0 001.855-1.5zM251.72 6.23h5.74c.91 0 1.155.245 1.155.91v1.015a1.982 1.982 0 00-.63-.1 1.429 1.429 0 00-1.54 1.155c-.14.945-.56 1.26-2.835 1.26-1.68 0-1.89-.175-1.89-.875zm3.535 13.72c.49.49.945.945 1.4 1.435a1.879 1.879 0 001.365.665 1.8 1.8 0 001.75-1.715 1.886 1.886 0 00-.63-1.3 40.635 40.635 0 00-5.81-4.76 1.9 1.9 0 00-1.085-.35 1.667 1.667 0 00-1.715 1.54 1.461 1.461 0 00.7 1.19 12.439 12.439 0 011.085.805c-2.765.21-5.565.42-8.4.56a45.55 45.55 0 002.345-3.6 1.946 1.946 0 00.28-.91 1.683 1.683 0 00-1.785-1.54 1.943 1.943 0 00-1.75 1.12 37.308 37.308 0 01-3.29 5.075c-1.47.035-2.94.07-4.41.07a1.516 1.516 0 00-1.645 1.54 1.591 1.591 0 001.715 1.61c5.915-.14 12.915-.56 19.88-1.435zm-15.785 9.275c0 2.765.91 3.43 7.8 3.43 6.86 0 8.4-1.155 8.715-4.69v-.175a1.689 1.689 0 00-1.855-1.61 1.623 1.623 0 00-1.75 1.4c-.175 1.75-.77 2.135-5.11 2.135-3.815 0-4.13-.175-4.13-.945v-4.305a1.62 1.62 0 00-1.82-1.5c-.945 0-1.855.49-1.855 1.5zm-5.04-4.375a17.925 17.925 0 01-1.96 3.43 1.672 1.672 0 001.47 2.73 1.955 1.955 0 001.575-.805 20.15 20.15 0 002.205-4.025 2.207 2.207 0 00.175-.77 1.719 1.719 0 00-1.82-1.575 1.743 1.743 0 00-1.645 1.015zm24.955-.84a2.006 2.006 0 00-1.4-.56 1.785 1.785 0 00-1.855 1.61 1.679 1.679 0 00.49 1.155 34.175 34.175 0 012.52 3.045 1.821 1.821 0 001.47.805 1.8 1.8 0 001.505-2.905 20.972 20.972 0 00-2.73-3.15zm-11.76-1.96a2 2 0 00-.945-.245 1.7 1.7 0 00-1.75 1.575 1.475 1.475 0 00.735 1.225c.665.455 1.47 1.12 2.065 1.61a1.872 1.872 0 001.155.455 1.7 1.7 0 001.68-1.645 1.758 1.758 0 00-.735-1.4 14.022 14.022 0 00-2.205-1.575z" fill="#eb5e1d"/><path data-name="パス 331739" d="M24.15 32.515c2.625 0 4.2-.98 4.2-3.78v-4.69c0-2.52-1.33-3.78-4.2-3.78h-6.755c-2.835 0-4.165 1.26-4.165 3.78v4.69c0 2.52 1.33 3.78 4.165 3.78zm-6.09-3.15c-.735 0-1.05-.21-1.05-.98V24.4c0-.735.28-.98 1.05-.98h5.425c.8 0 1.085.245 1.085.98v3.99c0 .735-.28.98-1.085.98zM22.575 9.8a1.757 1.757 0 00.07-.42 1.864 1.864 0 00-1.96-1.645 1.691 1.691 0 00-1.47.805 35.012 35.012 0 01-9.065 9.73 2 2 0 00-.945 1.61 1.75 1.75 0 001.785 1.68 2.34 2.34 0 001.33-.455 41.706 41.706 0 008.4-8.435 45.765 45.765 0 008.785 8.085 2.163 2.163 0 001.33.49 1.935 1.935 0 001.855-1.96 1.9 1.9 0 00-.98-1.68A37.747 37.747 0 0122.575 9.8zm-17.5 11.27a42.484 42.484 0 01-3.78 8.365 2.069 2.069 0 00-.35 1.085 1.874 1.874 0 001.96 1.75 2.173 2.173 0 001.855-1.085 41.261 41.261 0 004.06-9.2 1.541 1.541 0 00.07-.56 1.872 1.872 0 00-1.96-1.75 1.9 1.9 0 00-1.855 1.395zm.7-19.39a2.018 2.018 0 00-1.26-.42 1.87 1.87 0 00-1.96 1.68 1.743 1.743 0 00.7 1.33A30.541 30.541 0 015.95 6.86a1.824 1.824 0 001.4.665 1.891 1.891 0 001.89-1.82 2.056 2.056 0 00-.595-1.4 22.814 22.814 0 00-2.87-2.625zm-2.59 8.4a2.258 2.258 0 00-1.26-.42A1.891 1.891 0 000 11.41a1.743 1.743 0 00.7 1.33 32.31 32.31 0 012.87 2.66 1.848 1.848 0 001.365.63 1.959 1.959 0 001.925-1.89 2.121 2.121 0 00-.6-1.4 18.921 18.921 0 00-3.075-2.66zM15.19 2.625a22.738 22.738 0 01-4.1 5.6 2.063 2.063 0 00-.7 1.47 1.86 1.86 0 001.855 1.82 2.247 2.247 0 001.575-.735 25.988 25.988 0 004.69-6.51 1.839 1.839 0 00.21-.8 1.958 1.958 0 00-2-1.785 1.692 1.692 0 00-1.53.94zm10.85-.315a2.006 2.006 0 00-1.61-.84 1.8 1.8 0 00-1.89 1.68 1.876 1.876 0 00.35 1.05 35.247 35.247 0 005.39 6.16 1.932 1.932 0 001.295.56 2.028 2.028 0 001.96-1.96 1.932 1.932 0 00-.735-1.47 35.928 35.928 0 01-4.76-5.18zm25.025 1.68h-8.61c-3.255 0-4.41 1.12-4.41 3.465v2.66c0 .98.98 1.5 1.925 1.5.98 0 1.925-.525 1.925-1.5V8.05c0-.7.315-.98 1.225-.98h19.95c.91 0 1.19.28 1.19.98v1.925c0 .98.98 1.5 1.96 1.5.945 0 1.925-.525 1.925-1.5v-2.52c0-2.345-1.19-3.465-4.41-3.465h-8.82V1.75c0-.98-.945-1.435-1.925-1.435-.945 0-1.925.455-1.925 1.435zm.07 24.92H38.64a1.411 1.411 0 00-1.295 1.575 1.431 1.431 0 001.295 1.575h28.945a1.434 1.434 0 001.33-1.575 1.415 1.415 0 00-1.33-1.575h-12.67v-2.975h8.82c.84 0 1.225-.77 1.225-1.54s-.385-1.54-1.225-1.54h-8.82v-1.4c0-.98-.945-1.47-1.89-1.47s-1.89.49-1.89 1.47v1.4h-8.96c-.805 0-1.225.77-1.225 1.54s.42 1.54 1.225 1.54h8.96zm10.78-16.45a1.391 1.391 0 001.33-1.505 1.372 1.372 0 00-1.33-1.5h-17.57a1.346 1.346 0 00-1.295 1.5 1.364 1.364 0 001.295 1.505H48.3a51.728 51.728 0 01-2.31 4.025c-1.435.035-2.835.07-4.2.07a1.485 1.485 0 00-1.5 1.575 1.542 1.542 0 001.61 1.61c5.985-.175 12.25-.56 18.865-1.295.56.49 1.155.98 1.68 1.47a2.093 2.093 0 001.365.56 1.667 1.667 0 001.68-1.61 1.858 1.858 0 00-.735-1.4 39.305 39.305 0 00-5.845-4.305 2.028 2.028 0 00-1.12-.315 1.559 1.559 0 00-1.61 1.47 1.237 1.237 0 00.6 1.05l.735.525c-2.52.175-5.005.315-7.49.42a47.52 47.52 0 002.24-3.85z" fill="#169f44"/></g></svg>