<svg xmlns="http://www.w3.org/2000/svg" width="220" height="30"><g data-name="グループ 18092"><g data-name="グループ 18046" transform="translate(-542 -1084)"><rect data-name="長方形 4295" width="220" height="30" rx="8" transform="translate(542 1084)" fill="#009f44"/><path data-name="パス 331739" d="M559.408 1094.84a4.8 4.8 0 01.592.048 25.228 25.228 0 002.928.192 17.056 17.056 0 002.4-.128c-.736.416-1.52.9-2.352 1.424l1.392 1.1a29.416 29.416 0 014.272-2.656l-.064-1.792a19.842 19.842 0 01-4.224.3 20.985 20.985 0 01-4.8-.4zm1.184 3.616c-1.44 1.2-2.064 2.256-2.064 3.472a2.749 2.749 0 002.048 2.672 11.445 11.445 0 004 .528 27.376 27.376 0 004.324-.352 6.362 6.362 0 01.7-.064l-.176-2.192a17.063 17.063 0 01-5.024.672c-2.7 0-3.872-.448-3.872-1.488 0-.688.448-1.36 1.456-2.192zm16.032-6.112a8.635 8.635 0 01.256 1.056 39.66 39.66 0 001.072 4.336 9.891 9.891 0 00-2.176 1.364 3.808 3.808 0 00-1.424 2.86 3.01 3.01 0 001.392 2.672 8.96 8.96 0 004.64.88 33.813 33.813 0 003.744-.24c.848-.08.96-.1 1.3-.112l-.176-2.176a18.136 18.136 0 01-5.168.64c-2.576 0-3.664-.5-3.664-1.664q0-1.728 3.5-3.024a36.891 36.891 0 015.28-1.536l-.688-2.016a5.917 5.917 0 01-1.136.416c-2.016.64-2.624.848-3.616 1.232a27.669 27.669 0 01-1.06-5.008zm6.272.24a10.8 10.8 0 011.68 2.384l1.12-.592a10.369 10.369 0 00-1.68-2.352zm4.7.752a9.253 9.253 0 00-1.664-2.256l-1.072.56a11.789 11.789 0 011.64 2.32zm2.064 6.528a2.71 2.71 0 01.608.1c.64.144 1.264.24 2.224.368a10.928 10.928 0 00-.08 1.36c0 2.576 1.584 3.968 4.5 3.968a5.748 5.748 0 003.616-1.06 3.807 3.807 0 001.536-2.992 4.976 4.976 0 00-.688-2.352 6.149 6.149 0 00-.752-1.008 5.912 5.912 0 01-1.984.4 3.727 3.727 0 011.44 2.7c0 1.568-1.168 2.464-3.2 2.464a2.911 2.911 0 01-1.98-.588 2 2 0 01-.6-1.648 11.347 11.347 0 01.08-1.136c.624.032.768.032 1.024.032a23.3 23.3 0 002.4-.144 2.057 2.057 0 01.48-.048l.048-1.84a12.791 12.791 0 01-3.056.32c-.176 0-.3 0-.784-.016.1-.768.144-1.088.3-2.256.688.016.832.016.992.016.576 0 1.088-.032 2.24-.128.352-.032.432-.048.64-.064l.064-1.872a15.9 15.9 0 01-3.648.336 12.99 12.99 0 01.512-2.7l-2.128-.192a.663.663 0 01.016.16 18.833 18.833 0 01-.32 2.656 12.141 12.141 0 01-2.9-.576l-.16 1.76c.24.048.32.064.544.112a20.985 20.985 0 002.288.4c-.08.592-.224 1.664-.288 2.24a10.491 10.491 0 01-2.816-.608zm23.24-4.24h2.688a16.277 16.277 0 012.048.08v-2a11.565 11.565 0 01-2.08.112h-7.12a11.565 11.565 0 01-2.08-.112v2a16.434 16.434 0 012.048-.08h2.448v6.576h-3.616a11.461 11.461 0 01-2.08-.112v2.012a16.434 16.434 0 012.044-.076h9.6a16.434 16.434 0 012.048.08v-2.016a11.461 11.461 0 01-2.08.112H612.9zm18.6 8.592v.976h2.144a10.554 10.554 0 01-.08-1.648v-8.784a9.707 9.707 0 01.048-1.328c-.56.032-.56.032-1.392.032h-7.7a10.755 10.755 0 01-2.064-.112v2.08a15.657 15.657 0 012.048-.08h7.008v6.976h-7.28a10.287 10.287 0 01-2-.112v2.064a17.885 17.885 0 011.968-.064zm14.82-7.728v-1.04c1.264-.032 1.552-.032 1.936-.032 1.328 0 2.1.032 2.688.08l-.016-1.84c-.592.064-1.84.1-4.624.112a12.579 12.579 0 01.08-1.9l-2.016.016a8.681 8.681 0 01.1 1.936c-.832.032-.832.032-1.36.048-1.312.032-1.472.032-2.512.064-2.064.08-2.32.08-2.72.08a6.967 6.967 0 01-.784-.032l.064 1.9c.432-.064.432-.064 2.848-.24.7-.048 2.208-.1 4.5-.16 0 .432 0 1.328.016 1.36a.659.659 0 00.016.192 2.674 2.674 0 00-1.664-.48 2.945 2.945 0 00-3.192 2.912 2.5 2.5 0 001.1 2.16 2.949 2.949 0 001.86.576 2.636 2.636 0 002.352-1.136 3.368 3.368 0 01-1.856 2.336 7.551 7.551 0 01-2.72.928 5.251 5.251 0 011.136 1.808 11.185 11.185 0 002.9-1.312 5.134 5.134 0 002.38-4.324 4.869 4.869 0 00-.512-2.252c0-.192-.016-.32-.016-.384zm-1.84 2.64a1.458 1.458 0 01-1.568 1.44 1.263 1.263 0 01-1.36-1.268 1.4 1.4 0 011.488-1.276c.88 0 1.44.432 1.44 1.104zm21.904 4.172c-.224-.128-.3-.192-.576-.368a14.311 14.311 0 00-4.384-2.252c-.016-.38-.016-.38-.064-1.936.624-.032.864-.048 1.088-.064 1.2-.112 1.92-.192 2.16-.224.368-.048.768-.1 1.04-.112l-.048-1.76a11.841 11.841 0 01-1.984.352c-1.472.16-1.472.16-2.272.208-.016-.992-.016-1.184-.032-1.584 1.408-.08 2.032-.128 3.44-.32a10.008 10.008 0 011.264-.14l-.08-1.776a21.647 21.647 0 01-4.608.608 9.919 9.919 0 01.112-1.952h-2.032a11.416 11.416 0 01.08 2.016c-.4.016-.944.032-1.2.032a21.039 21.039 0 01-4.3-.336l-.02 1.772h.256c.048 0 .176 0 .352.016 1.072.08 3.136.16 3.92.16.24 0 .5 0 1.008-.016.016.912.016 1.456.016 1.6-.448.016-.992.032-1.312.032a20.632 20.632 0 01-3.728-.272l-.032 1.728c.24 0 .4 0 .608.016 1.328.1 1.92.112 2.9.112.336 0 .832-.016 1.6-.032.016.64.016.64.032.864v.352a3.083 3.083 0 01.016.384 8.359 8.359 0 00-1.072-.064c-2.688 0-4.272 1.024-4.272 2.768-.004 1.588 1.34 2.496 3.676 2.496a4.26 4.26 0 002.64-.688 2.5 2.5 0 00.9-2.16v-.176a7.12 7.12 0 01.864.4 10.8 10.8 0 012.96 2.192zm-6.752-1.228v.384a2.028 2.028 0 01-.192 1.024 1.661 1.661 0 01-1.392.512c-1.136 0-1.824-.368-1.824-.96 0-.688.784-1.1 2.08-1.1a5.616 5.616 0 011.328.14zm10.08-8.832a7.645 7.645 0 01.064 1.024c.064 4.432.352 6.752 1.008 8.352.64 1.536 1.5 2.32 2.576 2.32 1.36 0 2.288-1.3 3.12-4.416a7.9 7.9 0 01-1.6-1.456 11.8 11.8 0 01-.848 2.9c-.192.448-.416.688-.656.688-.512 0-1.024-1.024-1.3-2.688a29.941 29.941 0 01-.3-4.288 18.6 18.6 0 01.124-2.436zm8.08 1.52a13.966 13.966 0 012.272 3.94 16.22 16.22 0 011.024 4.62l1.984-.752a15.952 15.952 0 00-3.6-8.608zm13.184-1.152h-4.048a15.766 15.766 0 01-1.952-.1v1.824a15.3 15.3 0 011.936-.1h4.064v2.048h-2.928a14.959 14.959 0 01-1.936-.1v1.744a14.763 14.763 0 011.5-.1 11.085 11.085 0 003.04 3.776 17.255 17.255 0 01-5.932 1.9 7.924 7.924 0 01.88 1.712 17.588 17.588 0 006.512-2.528 17.369 17.369 0 006.432 2.596 6.446 6.446 0 01.864-1.856 16.508 16.508 0 01-5.744-1.84 14.926 14.926 0 002.976-3.264c.32-.464.576-.832.752-1.04l-1.056-1.072a6.963 6.963 0 01-1.36.08h-2.144v-2.048h4.3a15.131 15.131 0 011.936.1v-1.824a15.588 15.588 0 01-1.952.1h-4.284v-.624a7.759 7.759 0 01.08-1.408h-2.032a7.793 7.793 0 01.1 1.408zm3.808 5.232a9.375 9.375 0 01-2.608 2.8 8.533 8.533 0 01-2.624-2.8zm13.008-1.424c-.032.32-.048.432-.1.864h-.528a10.461 10.461 0 01-1.536-.08v1.6a9.742 9.742 0 011.5-.08h.272a9.231 9.231 0 01-3.208 4.944v-4.7c.48-.192.56-.24 1.072-.448l-.016-1.568c-.512.208-.7.288-1.056.416v-2.264h.416a7.048 7.048 0 01.832.048v-1.648a7.048 7.048 0 01-.832.048h-.416v-1.328a10.7 10.7 0 01.08-1.632h-1.856a8.951 8.951 0 01.1 1.648v1.312h-.688a5.865 5.865 0 01-1.1-.08v1.7a8.777 8.777 0 011.08-.068h.7v2.784a8.116 8.116 0 01-1.984.464l.336 1.776a7.125 7.125 0 01.768-.256c.384-.112.432-.128.88-.288v3.668c0 .352-.08.432-.4.432a9.982 9.982 0 01-1.376-.112 5.153 5.153 0 01.368 1.632c.528.032.768.048.96.048 1.552 0 2-.256 2.112-1.2a5.031 5.031 0 01.864 1.168 9.032 9.032 0 001.252-1.184 6.4 6.4 0 01.768 1.344 12.328 12.328 0 003.776-1.552 12.481 12.481 0 004.048 1.568 10.79 10.79 0 01.72-1.728 11.424 11.424 0 01-3.408-.832 10.154 10.154 0 001.568-1.7 6.625 6.625 0 01.56-.72l-.848-1.04a8.561 8.561 0 01-1.36.064h-3.248c.1-.3.128-.416.208-.72h4.4a14.686 14.686 0 011.84.1v-1.632a10.625 10.625 0 01-1.84.1h-4.128c.048-.336.064-.48.112-.864h4.1a14.348 14.348 0 011.536.064v-1.524a6.465 6.465 0 01-1.248.08h-.368a18.056 18.056 0 001.264-2.256l-1.616-.416a9.375 9.375 0 01-1.236 2.672h-1.824l1.168-.432a8.049 8.049 0 00-.8-1.92l-1.392.432a7.311 7.311 0 01.8 1.92h-2.32l.928-.4a6.344 6.344 0 00-.8-1.712l-1.36.448a5.846 5.846 0 01.848 1.664h-.08a8.413 8.413 0 01-1.216-.064v1.5a12.938 12.938 0 011.424-.064zm.24 5.072a10.636 10.636 0 001.408 1.344 10.668 10.668 0 01-2.928.96 11.97 11.97 0 001.52-2.304zm3.868-.624a6.25 6.25 0 01-1.18 1.152 11.846 11.846 0 01-1.392-1.152zm1.892-10.384a28.962 28.962 0 01-8 .976h-.528a4.146 4.146 0 01.512 1.376 60.223 60.223 0 008.736-.9 2.87 2.87 0 01.432-.08zm9.216 8.82h-4.624a10.977 10.977 0 01-1.728-.08v1.52a11.459 11.459 0 011.76-.08h4.592v.688h-3.824a11.621 11.621 0 01-1.52-.064v1.488a10.906 10.906 0 011.584-.08h3.76v.768c0 .288-.128.368-.624.368a18.145 18.145 0 01-2.032-.148 4.554 4.554 0 01.5 1.584c.512.032 1.152.064 1.536.064 1.952 0 2.352-.3 2.352-1.744v-.9h3.536v.624h1.792a12.029 12.029 0 01-.08-1.728v-.928a9.506 9.506 0 011.392.08v-1.52a9.04 9.04 0 01-1.392.08v-.56a10.828 10.828 0 01.048-1.456c-.448.032-.768.048-1.712.048h-3.588v-.604h3.68c.512 0 .928.016 1.28.048a10.111 10.111 0 01-.048-1.068v-1.06a10.893 10.893 0 01.048-1.12c-.384.032-.736.048-1.344.048h-3.616v-.608h4.592a15.429 15.429 0 011.872.1v-1.584a15.008 15.008 0 01-1.968.1h-4.5a4.52 4.52 0 01.112-1.088h-1.932a5.913 5.913 0 01.1 1.088h-4.292a14.841 14.841 0 01-1.968-.1v1.584a15.429 15.429 0 011.872-.1h4.384v.608h-3.376c-.608 0-.944-.016-1.36-.048.032.384.048.672.048 1.12v1.06c0 .4-.016.736-.048 1.072.368-.032.768-.048 1.344-.048h3.392v.608h-3.76a11.975 11.975 0 01-1.5-.064v1.392a13.289 13.289 0 011.472-.064h3.792zm1.728 0v-.7h3.536v.7zm0 1.36h3.536v.688h-3.536zm-1.728-5.84v.656h-2.992v-.656zm1.728 0h3.216v.656h-3.216zm14.304 2.14v.768h-3.168a11.362 11.362 0 01-1.632-.08v1.44a11.5 11.5 0 011.632-.08h3.168v.8h-4.24a14.852 14.852 0 01-1.92-.1v1.6a17.588 17.588 0 011.936-.1h2.976a11.5 11.5 0 01-5.232 2.28 6.549 6.549 0 01.976 1.536 15.48 15.48 0 003.264-1.344 8.9 8.9 0 002.3-1.76 10.772 10.772 0 00-.048 1.088v.768a11.941 11.941 0 01-.1 1.632h1.888a9.1 9.1 0 01-.112-1.616v-.784a10.953 10.953 0 00-.048-1.136 12.485 12.485 0 005.944 3.168 6.336 6.336 0 01.912-1.632 13.733 13.733 0 01-3.328-.908 8.306 8.306 0 01-2.176-1.28h3.216a17.284 17.284 0 011.92.1v-1.6a14.132 14.132 0 01-1.936.1h-4.464v-.8h3.344a11.745 11.745 0 011.648.08v-1.44a11.607 11.607 0 01-1.648.08h-3.344v-.78h4.176a11.745 11.745 0 011.648.08v-1.52a14.714 14.714 0 01-1.648.064h-1.856c.224-.4.288-.544.592-1.184h1.6c.784 0 1.408.032 1.9.08v-1.6a12.974 12.974 0 01-1.808.1h-.448c.352-.5.608-.9.992-1.536l-1.648-.608a8.537 8.537 0 01-1.152 2.144h-1.004v-1.14a8.4 8.4 0 01.08-1.248h-1.744a11.4 11.4 0 01.048 1.184v1.2h-1.136v-1.2a10.776 10.776 0 01.048-1.184h-1.744a8.9 8.9 0 01.08 1.248v1.136h-.912a11.312 11.312 0 00-1.232-2.1l-1.6.608a6.763 6.763 0 011.088 1.488h-.512a13.559 13.559 0 01-1.824-.1v1.6a20.14 20.14 0 011.9-.08h1.728c.176.3.352.672.592 1.184h-1.932a14.532 14.532 0 01-1.648-.064v1.52a11.885 11.885 0 011.648-.08zm-.368-1.376a10.212 10.212 0 00-.48-1.184h3.648a9.33 9.33 0 01-.528 1.184z" fill="#fff"/></g></g></svg>