<svg xmlns="http://www.w3.org/2000/svg" width="220" height="30"><g data-name="グループ 18093"><g data-name="グループ 18046" transform="translate(-542 -1084)"><rect data-name="長方形 4295" width="220" height="30" rx="8" transform="translate(542 1084)" fill="#eb5e00"/><path data-name="パス 331740" d="M587.9 1095.656v2.192h-4.48a12.934 12.934 0 01-1.776-.1v1.892a13.6 13.6 0 011.776-.1h2.416c-.048.672-.064.768-.1 1.04a4.426 4.426 0 01-.928 2.176 6.744 6.744 0 01-3.544 2.084 7.248 7.248 0 011.024 1.648 10.183 10.183 0 002.432-1.216 6.208 6.208 0 002.5-3.248 8.74 8.74 0 00.384-2.48h1.792v5.3c0 1.04.5 1.3 2.576 1.3a13 13 0 002.22-.152 1.661 1.661 0 001.088-.692 6.015 6.015 0 00.656-2.96 5.972 5.972 0 01-1.728-.624 5.643 5.643 0 01-.32 2.432c-.176.256-.528.336-1.632.336-.992 0-1.184-.064-1.184-.416v-4.524h3.072a13.694 13.694 0 011.792.1v-1.892a13.033 13.033 0 01-1.792.1H589.7v-2.196h3.36a12.484 12.484 0 011.728.1v-1.84a12.484 12.484 0 01-1.728.1h-3.36v-.848a9.145 9.145 0 01.1-1.568h-1.984a11.784 11.784 0 01.1 1.568v.848h-2.288c.144-.3.16-.352.48-1.136.16-.368.256-.592.3-.7l-1.84-.432a7.252 7.252 0 01-.784 2.112 9.11 9.11 0 01-2.1 2.624 6.489 6.489 0 011.36 1.184 13.165 13.165 0 001.632-2zm20.42 4.656h1.3c.88 0 1.168.016 1.616.048v-1.488a12.237 12.237 0 01-1.616.064h-1.3v-1.184h1.3c.88 0 1.168.016 1.616.048v-1.488a12.237 12.237 0 01-1.616.064h-1.3v-1.2h2.048a10.578 10.578 0 011.36.064v-1.616a10.773 10.773 0 01-1.584.08h-1.664a10.761 10.761 0 00.656-1.136c.224-.416.272-.512.384-.7l-1.744-.3a9.623 9.623 0 01-1.024 2.132h-2c.3-.544.464-.848.48-.88.24-.528.24-.528.5-1.024l-1.824-.3a3.334 3.334 0 01-.24.7 11.109 11.109 0 01-3.028 4.164 5.225 5.225 0 011.008 1.408 6.636 6.636 0 00.976-1.168c-.032.384-.032.608-.032.944v4.064a14.259 14.259 0 01-.064 1.616 11.6 11.6 0 011.456-.064h6.272a11.012 11.012 0 011.6.08v-1.648a10.214 10.214 0 01-1.616.08h-1.92zm-1.632 0v1.36h-2.432v-1.36zm0-1.376h-2.432v-1.184h2.432zm0-2.56h-2.432v-1.2h2.432zm-9.1-3.392a16.139 16.139 0 012.712 2.992l1.328-1.3a19.435 19.435 0 00-2.784-2.9zm-.128 6.368a5.62 5.62 0 011.072-.08h.88v3.44a9.564 9.564 0 01-2.312 1.588l.784 1.824a5.994 5.994 0 01.532-.424 14.891 14.891 0 001.856-1.548 3.748 3.748 0 001.984 1.472 14.939 14.939 0 004.288.352c1.888 0 3.968-.032 5.392-.1a8.4 8.4 0 01.48-1.888 46.665 46.665 0 01-6.656.352 8.467 8.467 0 01-3.52-.464 2.215 2.215 0 01-1.152-1.168v-3.34a16.121 16.121 0 01.064-1.744 7.046 7.046 0 01-1.216.08h-1.2a7.156 7.156 0 01-1.28-.08zm17.84-5.472h-.56a7.75 7.75 0 01-.848-.048 13.182 13.182 0 01.064 1.632v8.32a16.412 16.412 0 01-.08 2.064h1.744v-1.408h2.272v.96h1.708a15.518 15.518 0 01-.064-1.584v-6.144a4.1 4.1 0 01.688.8 12.368 12.368 0 002.048-3.008h3.712c-.048 4.4-.256 7.424-.592 8.416-.144.464-.384.592-1.072.592a13.2 13.2 0 01-2.048-.224 5.453 5.453 0 01.448 1.824c.8.048 1.2.064 1.584.064 2.464 0 2.88-.608 3.184-4.656.064-.816.208-4.512.24-6.5a9.292 9.292 0 01.064-1.264 9.38 9.38 0 01-1.36.064h-3.408c.144-.368.4-1.1.464-1.344a4.476 4.476 0 01.224-.624l-1.84-.3a12.025 12.025 0 01-2.336 5.04v-1.344c0-.816.016-.864.016-.9a4.552 4.552 0 01.032-.48c-.128.016-.592.032-1.376.048h-.88a17.662 17.662 0 00.816-2.08l-1.84-.256a11.554 11.554 0 01-.688 2.336zm.3 1.552h2.288v2.832H615.6zm0 4.384h2.288v3.084H615.6zm9.152 1.484a20.829 20.829 0 00-2.224-3.968l-1.456.784a15.548 15.548 0 012.064 4.064zm15.44.4a17.8 17.8 0 012.528 3.94l1.5-1.04a20.509 20.509 0 00-2.288-3.328l1.344-.96a23.038 23.038 0 00-3.44-3.184c2.032-.016 2.448-.176 2.72-.992h1.248a11.26 11.26 0 01-.064-1.28v-1.024a7.438 7.438 0 01.064-1.168c-.5.048-.992.064-1.76.064h-4.592v-.288a5.982 5.982 0 01.08-1.008h-1.92a4.584 4.584 0 01.1 1.008v.288h-4.288c-.768 0-1.264-.016-1.76-.064a8.117 8.117 0 01.064 1.168v1.04a8.376 8.376 0 01-.064 1.228h1.744v-1.872h2.9a2.176 2.176 0 01-.9 1.168 8.2 8.2 0 01-3.232 1.152 5.283 5.283 0 01.924 1.396 8.379 8.379 0 003.94-1.984 3.031 3.031 0 00.992-1.728h1.152v1.856c0 .832.336 1.008 2.144 1.04l-1.088.64c.64.512.88.7 1.248 1.04-.832.08-2.624.16-4.384.208a21.919 21.919 0 001.776-2.384l-1.84-.448a14.8 14.8 0 01-1.92 2.88c-.992.016-1.52.016-1.6.016-.576 0-.832-.016-1.232-.048l.24 1.776c.464-.048.736-.064.928-.064 3.3-.112 6.544-.336 9.312-.656.32.352.432.512.752.9zm-1.376-7.472h3.248v.832a5.688 5.688 0 01-.928-.24c-.048.912-.1.976-.864.976a9.24 9.24 0 01-1.2-.048c-.208-.032-.256-.08-.256-.272zm-7.968 11.524a11.322 11.322 0 001.936-3.936l-1.536-.656a7.885 7.885 0 01-.768 1.94 7.817 7.817 0 01-1.072 1.52zm2.544-4.576a6.753 6.753 0 01.08 1.264v2.144c0 1.184.576 1.472 3.008 1.472 2.464 0 3.136-.064 3.648-.352.56-.3.736-.8.912-2.512a7.13 7.13 0 01-1.664-.48c-.016.88-.1 1.408-.256 1.552-.224.192-.688.24-2.624.24a3.832 3.832 0 01-1.056-.08c-.24-.064-.288-.144-.288-.5v-1.66a6.588 6.588 0 01.064-1.088zm5.648 1.472a9.57 9.57 0 00-1.824-2.08l-1.408.768a8.713 8.713 0 011.792 2.272zm8.944-10.272a10.1 10.1 0 01.064 1.44v4.4a11.539 11.539 0 01-.08 1.44h2.192a7.723 7.723 0 01-.06-1.408v-4.416a8.133 8.133 0 01.064-1.44zm7.216.032a8.425 8.425 0 01.08 1.52v2c0 1.28-.016 1.984-.08 2.672-.176 2.112-.7 3.088-2.208 4.08a8.63 8.63 0 01-3.456 1.28 5.466 5.466 0 011.12 1.9 13.534 13.534 0 003.12-1.228 6.128 6.128 0 003.152-3.732 18.9 18.9 0 00.416-4.848v-2.152a7.589 7.589 0 01.08-1.488zm16.432-.032a14.088 14.088 0 01-1.6 4.064 14.864 14.864 0 01-8.032 6.928 6.658 6.658 0 011.424 1.932 19.963 19.963 0 005.536-3.84 19.62 19.62 0 004.32-6.96 8.758 8.758 0 01.56-1.376zm5.616 9.524c.224-.272.288-.352.544-.656.864-1.028 2.208-2.692 2.864-3.572s.72-.928.976-.928c.272 0 .272 0 1.3 1.12a81.531 81.531 0 006.768 6.752l1-2.192a9.616 9.616 0 01-1.52-1.2 54.979 54.979 0 01-5.18-5.104c-1.216-1.376-1.584-1.632-2.384-1.632a2.035 2.035 0 00-1.088.3 5.416 5.416 0 00-1.2 1.264c-2.144 2.688-2.976 3.632-3.44 3.872zm8.384-7.552a10.8 10.8 0 011.68 2.384l1.12-.592a10.369 10.369 0 00-1.68-2.352zm4.7.752a8.857 8.857 0 00-1.664-2.256l-1.068.556a11.789 11.789 0 011.632 2.32zm7.952 5.2h-4.62a10.977 10.977 0 01-1.728-.08v1.52a11.459 11.459 0 011.76-.08h4.592v.688h-3.824a11.621 11.621 0 01-1.52-.064v1.488a10.906 10.906 0 011.584-.08h3.76v.768c0 .288-.128.368-.624.368a18.145 18.145 0 01-2.032-.148 4.554 4.554 0 01.5 1.584c.512.032 1.152.064 1.536.064 1.952 0 2.352-.3 2.352-1.744v-.9h3.536v.624h1.792a12.03 12.03 0 01-.08-1.728v-.928a9.506 9.506 0 011.392.08v-1.52a9.04 9.04 0 01-1.392.08v-.56a10.828 10.828 0 01.048-1.456c-.448.032-.768.048-1.712.048h-3.588v-.604h3.684c.512 0 .928.016 1.28.048a10.111 10.111 0 01-.052-1.068v-1.06a10.892 10.892 0 01.048-1.12c-.384.032-.736.048-1.344.048h-3.616v-.608h4.592a15.429 15.429 0 011.872.1v-1.584a15.008 15.008 0 01-1.968.1h-4.5a4.52 4.52 0 01.112-1.088h-1.932a5.912 5.912 0 01.1 1.088H694a14.841 14.841 0 01-1.968-.1v1.584a15.429 15.429 0 011.872-.1h4.384v.608h-3.376c-.608 0-.944-.016-1.36-.048.032.384.048.672.048 1.12v1.06c0 .4-.016.736-.048 1.072.368-.032.768-.048 1.344-.048h3.392v.608h-3.76a11.975 11.975 0 01-1.5-.064v1.392a13.289 13.289 0 011.472-.068h3.792zm1.728 0v-.7h3.536v.7zm0 1.36h3.536v.688h-3.532zm-1.728-5.84v.656H695.3v-.656zm1.728 0h3.216v.656h-3.212zm14.308 2.14v.768h-3.168a11.361 11.361 0 01-1.632-.08v1.44a11.5 11.5 0 011.632-.08h3.168v.8h-4.24a14.852 14.852 0 01-1.92-.1v1.6a17.588 17.588 0 011.936-.1h2.976a11.5 11.5 0 01-5.232 2.28 6.549 6.549 0 01.976 1.536 15.48 15.48 0 003.264-1.344 8.9 8.9 0 002.3-1.76 10.773 10.773 0 00-.048 1.088v.768a11.941 11.941 0 01-.1 1.632h1.888a9.1 9.1 0 01-.112-1.616v-.784a10.952 10.952 0 00-.048-1.136 12.485 12.485 0 005.94 3.168 6.336 6.336 0 01.912-1.632 13.733 13.733 0 01-3.324-.908 8.306 8.306 0 01-2.176-1.28h3.216a17.284 17.284 0 011.92.1v-1.6a14.132 14.132 0 01-1.936.1h-4.464v-.8h3.344a11.745 11.745 0 011.648.08v-1.44a11.607 11.607 0 01-1.648.08h-3.344v-.78h4.176a11.745 11.745 0 011.648.08v-1.52a14.714 14.714 0 01-1.648.064h-1.856c.224-.4.288-.544.592-1.184h1.6c.784 0 1.408.032 1.9.08v-1.6a12.974 12.974 0 01-1.808.1h-.448c.352-.5.608-.9.992-1.536l-1.648-.608a8.537 8.537 0 01-1.148 2.14h-1.008v-1.136a8.4 8.4 0 01.08-1.248h-1.744a11.4 11.4 0 01.048 1.184v1.2h-1.136v-1.2a10.775 10.775 0 01.048-1.184h-1.744a8.9 8.9 0 01.08 1.248v1.136h-.912a11.312 11.312 0 00-1.232-2.1l-1.6.608a6.763 6.763 0 011.088 1.488h-.512a13.559 13.559 0 01-1.824-.1v1.6a20.14 20.14 0 011.9-.08h1.728c.176.3.352.672.592 1.184h-1.932a14.532 14.532 0 01-1.648-.064v1.52a11.885 11.885 0 011.648-.08zm-.368-1.376a10.213 10.213 0 00-.48-1.184h3.648a9.33 9.33 0 01-.528 1.184z" fill="#fff"/></g></g></svg>