<svg data-name="グループ 17724" xmlns="http://www.w3.org/2000/svg" width="412.741" height="35.262"><path data-name="パス 331734" d="M70.547 17.18c0 12.838 5.428 16.882 11.776 16.882 6.44 0 11.868-4.048 11.868-16.882C94.191 4.622 88.763.574 82.323.574c-6.348 0-11.776 4.044-11.776 16.606zm6.532 0c0-3.358 0-11.224 5.244-11.224 5.336 0 5.336 7.866 5.336 11.224 0 3.634 0 11.5-5.336 11.5-5.24 0-5.24-7.862-5.24-11.5zm40.71-15.962h-5.2c-.69 4.922-4.876 6.486-9.43 6.394v4.922h8.1v20.884h6.532zm20.1 12.374c0-3.4 1.242-7.406 5.106-7.406a4.649 4.649 0 014.83 4.968c-.046 3.956-3.91 5.934-6.762 7.866-5.566 3.772-10.12 6.946-10.166 14.4h23.646v-5.614h-15.226c2.346-3.312 6.118-5.152 9.292-7.406s5.75-4.922 5.75-9.752c0-6.3-5.152-10.074-11.04-10.074-7.728 0-11.914 5.658-11.684 13.018zm23.184 3.588c.002 12.838 5.43 16.882 11.778 16.882 6.44 0 11.868-4.048 11.868-16.882 0-12.558-5.428-16.606-11.868-16.606-6.348 0-11.776 4.044-11.776 16.606zm6.532 0c0-3.358 0-11.224 5.244-11.224 5.336 0 5.336 7.866 5.336 11.224 0 3.634 0 11.5-5.336 11.5-5.242 0-5.242-7.862-5.242-11.5zm25.118 6.486h13.846v-5.612h-13.846zm44.942-14.168c-.736-5.658-4.876-8.924-10.442-8.924-9.154 0-12.65 8.97-12.65 16.836 0 8.142 2.622 16.652 12.374 16.652 6.716 0 11.27-5.2 11.27-11.776a11.08 11.08 0 00-2.484-7.176 10.285 10.285 0 00-7.406-3.312 8.2 8.2 0 00-7.268 3.588l-.092-.092c.184-3.588 1.426-9.8 6.164-9.8a4.61 4.61 0 014.324 4zm-10.902 7.22c3.358 0 4.922 3.036 4.922 6.072 0 2.9-1.794 5.888-4.922 5.888-3.266 0-5.2-2.99-5.2-5.98.002-3.172 1.704-5.98 5.2-5.98zm24.2 6.946c0-3.312 2.53-5.106 5.7-5.106a5.2 5.2 0 015.52 5.154 5.292 5.292 0 01-5.52 5.428 5.427 5.427 0 01-5.704-5.474zm-5.2-14.306c0 3.174 1.61 5.75 4.738 6.624v.092a7.655 7.655 0 00-6.074 7.914c0 6.946 6.026 10.074 12.236 10.074 5.98 0 12.052-3.358 12.052-10.12 0-4.048-2.208-6.992-6.026-7.866v-.092a6.757 6.757 0 004.694-6.766c0-3.128-2.76-8.648-10.764-8.648-5.246.004-10.858 2.994-10.858 8.79zm5.934.6c0-2.852 2.3-4.462 4.922-4.462 4.048 0 4.83 2.806 4.83 4.462 0 2.76-2.162 4.232-4.83 4.232-2.624 0-4.924-1.426-4.924-4.232zm29.438 13.708c0-3.312 2.53-5.106 5.7-5.106a5.2 5.2 0 015.52 5.152 5.292 5.292 0 01-5.52 5.428 5.427 5.427 0 01-5.7-5.474zm-5.2-14.306c0 3.174 1.61 5.75 4.738 6.624v.092a7.655 7.655 0 00-6.07 7.912c0 6.946 6.026 10.074 12.236 10.074 5.98 0 12.052-3.358 12.052-10.12 0-4.048-2.208-6.992-6.026-7.866v-.092a6.757 6.757 0 004.692-6.766c0-3.128-2.76-8.648-10.764-8.648-5.244.004-10.856 2.994-10.856 8.79zm5.934.6c0-2.852 2.3-4.462 4.922-4.462 4.048 0 4.83 2.806 4.83 4.462 0 2.76-2.162 4.232-4.83 4.232-2.62-.002-4.92-1.428-4.92-4.234zm24.704 13.706h13.846v-5.612h-13.846zm43.884-22.448h-17.986l-3.174 17.8h5.886a5.426 5.426 0 014.922-2.576c3.5 0 5.566 2.668 5.566 6.026 0 3.22-2.162 6.21-5.566 6.21a5.2 5.2 0 01-5.29-4.83h-6.532c.094 6.764 5.706 10.214 11.962 10.214a11.626 11.626 0 0011.96-11.592c0-6.026-3.588-10.948-9.936-10.948a8.187 8.187 0 00-6.3 2.484l-.092-.092 1.288-7.314h13.294zm15.134 12.374c0-3.4 1.242-7.406 5.106-7.406a4.649 4.649 0 014.83 4.968c-.046 3.956-3.91 5.934-6.762 7.866-5.566 3.772-10.12 6.946-10.166 14.4h23.644v-5.614h-15.226c2.346-3.312 6.118-5.152 9.292-7.406s5.75-4.922 5.75-9.752c0-6.3-5.152-10.074-11.04-10.074-7.728 0-11.914 5.658-11.684 13.018zm29.392 10.074c0-3.312 2.53-5.106 5.7-5.106a5.2 5.2 0 015.52 5.152 5.292 5.292 0 01-5.52 5.428 5.427 5.427 0 01-5.7-5.474zm-5.2-14.306c0 3.174 1.61 5.75 4.738 6.624v.092a7.655 7.655 0 00-6.068 7.912c0 6.946 6.03 10.074 12.236 10.074 5.98 0 12.052-3.358 12.052-10.12 0-4.048-2.208-6.992-6.026-7.866v-.092a6.757 6.757 0 004.692-6.762c0-3.128-2.76-8.648-10.764-8.648-5.244 0-10.86 2.99-10.86 8.786zm5.934.6c0-2.852 2.3-4.462 4.922-4.462 4.048 0 4.83 2.806 4.83 4.462 0 2.76-2.162 4.232-4.83 4.232-2.618-.002-4.918-1.428-4.918-4.234z" fill="#fff"/><g data-name="グループ 17723"><g data-name="グループ 17722"><g data-name="グループ 17720"><g data-name="グループ 17719"><g data-name="グループ 17718"><path data-name="パス 48621" d="M54.961 31.927a3.334 3.334 0 103.333-3.334 3.337 3.337 0 00-3.333 3.334m.386 0a2.948 2.948 0 112.946 2.946 2.952 2.952 0 01-2.946-2.945z" fill="#fff"/></g></g></g><path data-name="パス 48622" d="M59.917 34.085h-.64l-1.294-2h-.568v2h-.513v-4.406h1.247a1.492 1.492 0 01.991.3 1.042 1.042 0 01.365.848 1.086 1.086 0 01-.265.718 1.365 1.365 0 01-.732.425l1.409 2.11m-2.5-2.447h.646a.972.972 0 00.661-.22.709.709 0 00.253-.555q0-.737-.9-.737h-.66z" fill="#fff"/><g data-name="グループ 17721" fill="#fff"><path data-name="パス 48623" d="M33.512 20.082a6.565 6.565 0 1013.118 0c0-3.584-3.545-6.447-6.559-8.157-3.012 1.711-6.559 4.573-6.559 8.157z"/><path data-name="パス 48624" d="M6.847 20.156a6.566 6.566 0 1013.12 0c0-3.582-3.548-6.444-6.56-8.156-3.012 1.715-6.56 4.577-6.56 8.156z"/><path data-name="パス 48625" d="M0 0v34.825h53.36V0zm53.352 8.469a27 27 0 00-10.155 1.925c3.3 2.2 6.486 5.546 6.486 9.763a9.91 9.91 0 01-9.82 9.831 9.778 9.778 0 01-9.662-9.831c0-4.217 3.031-7.558 6.327-9.763a26.189 26.189 0 00-19.711 0c3.3 2.2 6.327 5.546 6.327 9.763a9.777 9.777 0 01-9.662 9.831 9.973 9.973 0 01-9.893-9.831c0-4.217 3.262-7.558 6.559-9.763A26.957 26.957 0 00.002 8.469V5.416a30.033 30.033 0 0113.48 3.048 30.069 30.069 0 0126.381 0 30.068 30.068 0 0113.489-3.048z"/></g></g></g></svg>