<svg xmlns="http://www.w3.org/2000/svg" width="96" height="96"><g data-name="グループ 18828"><g data-name="グループ 18778"><circle data-name="楕円形 807" cx="48" cy="48" r="48" fill="#fff"/></g><g data-name="グループ 18827" fill="#eb5e00"><path data-name="パス 331604" d="M59.479 44.3a.779.779 0 01-.718-1.081l.106-.249c.255-.606.609-1.442.8-2.013a8.243 8.243 0 01-3.822-6.745c0-4.9 4.9-8.884 10.922-8.884s10.921 3.985 10.921 8.884-4.9 8.882-10.921 8.882a13.137 13.137 0 01-3.32-.426 21.2 21.2 0 01-3.736 1.6.753.753 0 01-.234.036m7.289-17.414c-5.163 0-9.364 3.286-9.364 7.326a6.862 6.862 0 003.575 5.742.777.777 0 01.357.792 8.08 8.08 0 01-.461 1.435 13.162 13.162 0 002.031-1.01.794.794 0 01.638-.094 11.63 11.63 0 003.224.457c5.163 0 9.363-3.285 9.363-7.324s-4.2-7.326-9.363-7.326"/><path data-name="パス 331605" d="M24.237 61.631a.779.779 0 01-.779-.779V32.916a1.82 1.82 0 011.818-1.818h28.408a.779.779 0 010 1.558H25.276a.262.262 0 00-.26.26v27.937a.779.779 0 01-.779.779"/><path data-name="パス 331606" d="M69.312 61.631a.779.779 0 01-.779-.779V45.324a.779.779 0 111.558 0v15.528a.779.779 0 01-.779.779"/><path data-name="パス 331607" d="M71.928 68.509H21.461a2.515 2.515 0 01-2.173-1.411l-.831-1.864a1.4 1.4 0 011.327-2.046h53.82a1.4 1.4 0 011.327 2.046l-.83 1.863a2.512 2.512 0 01-2.174 1.412m-51.978-3.763l.761 1.717a.981.981 0 00.75.488h50.467a.978.978 0 00.75-.487l.763-1.713z"/><path data-name="パス 331608" d="M35.273 61.631a.779.779 0 01-.779-.779v-2.228a10.108 10.108 0 017.067-9.679.779.779 0 11.533 1.464 8.6 8.6 0 00-6.042 8.215v2.228a.779.779 0 01-.779.779"/><path data-name="パス 331609" d="M58.116 61.631a.779.779 0 01-.779-.779v-2.228a8.6 8.6 0 00-6.042-8.215.779.779 0 11.533-1.464 10.108 10.108 0 017.067 9.679v2.228a.779.779 0 01-.779.779"/><path data-name="パス 331610" d="M46.695 49.506a5.835 5.835 0 115.835-5.835 5.841 5.841 0 01-5.835 5.835m0-10.112a4.277 4.277 0 104.277 4.277 4.282 4.282 0 00-4.277-4.277"/></g></g></svg>