<svg xmlns="http://www.w3.org/2000/svg" width="247.917" height="21.896"><path data-name="パス 331735" d="M8.763 18.423v.92c0 1.725.667 2.254 5.428 2.254 5.2 0 6.233-.644 6.463-3.059v-.115a1.093 1.093 0 00-1.219-1.035 1.077 1.077 0 00-1.15.9c-.161 1.219-.506 1.449-4.025 1.449-2.852 0-3.128-.161-3.128-.736v-.575h3.749c1.518 0 2.645-.276 2.645-2v-3.155c0-1.4-.828-2.047-2.668-2.047H5.313c-1.84 0-2.668.644-2.668 2.047v3.147c0 1.449.805 2 2.668 2zm0-2.875v1.219H5.727c-.552 0-.69-.138-.69-.506v-.713zm2.369 0h4v.713c0 .368-.138.506-.69.506H11.13zm0-2.668h3.312c.552 0 .69.138.69.506v.69h-4zm-2.369 0v1.2H5.037v-.69c0-.368.138-.506.69-.506zm2.484-9.752h6.463c.529 0 .782-.483.782-.989 0-.483-.253-.966-.782-.966H2.737c-.506 0-.759.483-.759.966 0 .506.253.989.759.989h6.049v.782H2.737C.713 3.91 0 4.531 0 6.095v1.242c0 .644.621.989 1.242.989a1.1 1.1 0 001.219-.989V6.325c0-.506.138-.69.782-.69h5.543v4.14c0 .621.621.943 1.242.943.6 0 1.219-.322 1.219-.943v-4.14h5.727c.621 0 .759.184.759.69v.874c0 .667.621.989 1.219.989.621 0 1.219-.322 1.219-.989V6.072c0-1.564-.69-2.162-2.714-2.162h-6.21zM7.222 7.866c.414 0 .621-.368.621-.759a.662.662 0 00-.621-.736H3.974a.66.66 0 00-.6.736c0 .391.207.759.6.759zm8.809 0a.673.673 0 00.644-.759.665.665 0 00-.644-.736h-3.243a.662.662 0 00-.621.736c0 .391.207.759.621.759zm-8.809 2.231c.414 0 .621-.368.621-.759a.662.662 0 00-.621-.736h-4a.662.662 0 00-.621.736c0 .391.207.759.621.759zm9.8 0a.673.673 0 00.644-.759.665.665 0 00-.644-.736H12.79a.662.662 0 00-.621.736c0 .391.207.759.621.759zm11.27 11.178c1.587 0 2.346-.483 2.346-2.139v-2.618c0-1.449-.575-2.139-2.346-2.139h-2.438c-1.771 0-2.346.69-2.346 2.139v2.618c0 1.449.575 2.139 2.346 2.139zm-1.955-2.07c-.391 0-.529-.138-.529-.529v-1.7c0-.391.115-.529.529-.529h1.472c.391 0 .506.138.506.529v1.7c0 .391-.115.529-.506.529zm9.937-6.118h-.943c-1.863 0-2.622.69-2.622 2.346v3.358c0 1.656.851 2.346 2.714 2.346h4.232c1.679 0 2.714-.506 2.714-2.346v-3.358c0-1.656-.759-2.346-2.622-2.346h-1.058v-3.036h4.117a1.013 1.013 0 00.966-1.127 1.025 1.025 0 00-.966-1.127h-4.117V4.255a34.523 34.523 0 002.76-.667 1.182 1.182 0 00.966-1.127 1.206 1.206 0 00-1.2-1.219 1.139 1.139 0 00-.391.046 39.984 39.984 0 01-7.567 1.449 1.062 1.062 0 00-1.034 1.081 1.109 1.109 0 001.15 1.15c.368 0 1.932-.161 2.9-.3v3.128h-3.772a1.01 1.01 0 00-.943 1.127 1.022 1.022 0 00.943 1.127h3.773zm-.44 5.888c-.483 0-.69-.138-.69-.644v-2.484c0-.46.161-.644.69-.644h3.4c.529 0 .69.184.69.644v2.484c0 .46-.161.644-.69.644zM30.59 6.969a1.031 1.031 0 00.943-1.15 1.031 1.031 0 00-.943-1.15h-7.452a1.029 1.029 0 00-.92 1.15 1.029 1.029 0 00.92 1.15zm-1.173-3.335a.974.974 0 00.9-1.081.961.961 0 00-.9-1.081h-4.9c-.575 0-.874.529-.874 1.081a.972.972 0 00.874 1.081zm0 6.509a.974.974 0 00.9-1.081.961.961 0 00-.9-1.081h-4.9c-.575 0-.874.529-.874 1.081a.972.972 0 00.874 1.081zm0 3.2a.974.974 0 00.9-1.081.961.961 0 00-.9-1.081h-4.9c-.575 0-.874.529-.874 1.081a.972.972 0 00.874 1.081zm27.853-7.2a9.273 9.273 0 00-3.772 7.175c0 3.427 2.323 6.279 6.509 7.061a7.236 7.236 0 001.035.092 1.289 1.289 0 001.357-1.358 1.34 1.34 0 00-1.242-1.357c-3.22-.391-4.991-1.955-4.991-4.508 0-2.185.759-4.577 4.347-6.624a7.873 7.873 0 012.53-.92 1.242 1.242 0 001.058-1.242 1.189 1.189 0 00-1.242-1.219h-.138c-4.784.437-10.718 1.1-15.5 1.7a1.25 1.25 0 00-1.2 1.265 1.274 1.274 0 001.29 1.31.863.863 0 00.23-.023c3.312-.483 6.969-1.035 9.729-1.4zm3.611 4.186a16.729 16.729 0 011.7 1.955.922.922 0 00.759.437.938.938 0 00.92-.92.961.961 0 00-.207-.621 11.491 11.491 0 00-1.794-2 .959.959 0 00-.644-.253.958.958 0 00-.966.874.818.818 0 00.232.526zm2.3-1.817c.529.552 1.173 1.242 1.7 1.909a1 1 0 00.805.414.9.9 0 00.92-.874 1.07 1.07 0 00-.253-.69 11.533 11.533 0 00-1.771-1.886 1.1 1.1 0 00-.69-.276.924.924 0 00-.966.851.76.76 0 00.255.55zm10.4 9.844c1.771 0 3.128-.667 4.393-2.9a23.013 23.013 0 002.6-9.775 5.622 5.622 0 015.543 5.75c0 2.852-1.311 4.83-4.577 6a1.325 1.325 0 00-.966 1.265 1.29 1.29 0 001.283 1.314 1.509 1.509 0 00.529-.092 8.615 8.615 0 006.417-8.487c0-4.577-3.243-8.1-8.855-8.1-6.325 0-10.672 4.3-10.672 9.545-.002 3.592 1.955 5.478 4.298 5.478zm4.3-12.512a20.8 20.8 0 01-2.3 8.4c-.667 1.173-1.288 1.541-2 1.541-.828 0-1.656-.782-1.656-2.9a7.286 7.286 0 015.949-7.043zm29.437-2.926a14.5 14.5 0 011.518 2.1.909.909 0 00.782.506.942.942 0 00.943-.92 1.017 1.017 0 00-.161-.552 12.281 12.281 0 00-1.61-2.162.922.922 0 00-.69-.322.939.939 0 00-.966.851.766.766 0 00.184.499zm-10.051.667a1.311 1.311 0 00-.3-.023 1.233 1.233 0 00-1.219 1.311 1.244 1.244 0 001.012 1.265 23.578 23.578 0 004.784.391 28.6 28.6 0 004.508-.276 1.206 1.206 0 001.036-1.235 1.231 1.231 0 00-1.242-1.288c-.069 0-.138.023-.207.023-1.127.115-2.668.253-4.117.253a22.065 22.065 0 01-4.255-.418zm4.577 16.563a30.294 30.294 0 006.739-.713 1.343 1.343 0 001.127-1.311 1.221 1.221 0 00-1.219-1.265 2.293 2.293 0 00-.368.046 31.477 31.477 0 01-6.279.667c-4.3 0-5.083-.782-5.083-2.231a4.912 4.912 0 01.138-1.15 1.8 1.8 0 00.046-.322 1.153 1.153 0 00-1.265-1.058 1.269 1.269 0 00-1.288.92 6.26 6.26 0 00-.253 1.725c0 3.128 2.162 4.692 7.705 4.692zm7.93-18.837a25.379 25.379 0 011.518 2.07 1.04 1.04 0 00.851.506.9.9 0 00.92-.9 1.237 1.237 0 00-.207-.621 11.586 11.586 0 00-1.582-2.048 1.064 1.064 0 00-.759-.322.9.9 0 00-.943.805.8.8 0 00.202.51zm21.786 19.987c1.914 0 3.059-.552 3.059-2.622v-14.4c0-1.817-.9-2.622-3.059-2.622h-4.508c-2.162 0-3.059.805-3.059 2.622v14.4c0 1.817.9 2.622 3.059 2.622zm-4.232-2.254c-.575 0-.8-.184-.8-.782v-3.2h5.561v3.2c0 .575-.184.782-.805.782zm-.8-9.614h5.561v3.427h-5.566zm5.561-2.212h-5.566v-2.53c0-.575.184-.782.8-.782h3.961c.621 0 .805.207.805.782zm-14.559.621a24.592 24.592 0 01-3.128 7.291 1.244 1.244 0 00-.207.644 1.066 1.066 0 001.058 1.039 1.068 1.068 0 00.92-.529 18.3 18.3 0 001.679-3.358l-.069 4.784v3.174a1.082 1.082 0 001.2 1.012 1.074 1.074 0 001.169-1.012v-8.441a12.589 12.589 0 011.012 1.242 1 1 0 00.81.433 1.061 1.061 0 001.053-1.008 1.23 1.23 0 00-.3-.759 14.79 14.79 0 00-2.576-2.507v-2h1.771c.6 0 .874-.552.874-1.1s-.276-1.1-.874-1.1h-1.77v-4.14c0-.621-.6-.92-1.173-.92-.6 0-1.2.3-1.2.92v4.14h-2.342c-.575 0-.851.552-.851 1.1s.276 1.1.874 1.1zm34.431 9.02a12.151 12.151 0 004.784 4.416 1.315 1.315 0 00.621.161 1.247 1.247 0 001.219-1.242 1.266 1.266 0 00-.782-1.127 10.767 10.767 0 01-3.381-2.549 14.735 14.735 0 002.921-2.484 1.213 1.213 0 00.368-.8 1.168 1.168 0 00-1.2-1.081 1.125 1.125 0 00-.92.483 12.814 12.814 0 01-2.342 2.222 7.319 7.319 0 01-.368-.736 15.753 15.753 0 00.322-3.036 1.1 1.1 0 00-1.219-.989c-.6 0-1.173.322-1.173.943-.092 4.393-1.449 6.923-4.737 8.533a1.1 1.1 0 00-.69.966 1.185 1.185 0 001.127 1.173 1.228 1.228 0 00.46-.115 10.228 10.228 0 004.99-4.738zm.113-9.752a11.617 11.617 0 004.485 3.772 1.4 1.4 0 00.644.161 1.219 1.219 0 001.219-1.173 1.227 1.227 0 00-.805-1.1 11.71 11.71 0 01-2.852-1.84 14.394 14.394 0 002.645-2.645 1.2 1.2 0 00.322-.782 1.094 1.094 0 00-1.127-1.012 1.147 1.147 0 00-.989.552 14.544 14.544 0 01-2.139 2.369 7.376 7.376 0 01-.437-.713 12.2 12.2 0 00.391-2.852 1.082 1.082 0 00-1.2-1.081 1.089 1.089 0 00-1.173 1.035c-.138 3.979-1.472 6.026-4.554 7.567a1.125 1.125 0 00-.69.989 1.1 1.1 0 001.081 1.1 1.208 1.208 0 00.529-.138 10.261 10.261 0 004.65-4.209zm-9.244 14.375c1.541 0 2.277-.506 2.277-2.093v-2.852c0-1.4-.575-2.093-2.277-2.093h-2.277c-1.725 0-2.3.69-2.3 2.093v2.852c0 1.4.575 2.093 2.3 2.093zm-1.817-2.07c-.368 0-.483-.138-.483-.506v-1.863c0-.391.115-.529.483-.529h1.334c.368 0 .483.138.483.529v1.863c0 .391-.115.506-.483.506zm3.8-12.466a1.031 1.031 0 00.943-1.15 1.031 1.031 0 00-.943-1.15h-6.767a1.029 1.029 0 00-.92 1.15 1.029 1.029 0 00.92 1.15zm-.92-3.358a.974.974 0 00.9-1.081.961.961 0 00-.9-1.081h-4.6c-.575 0-.874.529-.874 1.081a.972.972 0 00.874 1.081zm0 6.578a.974.974 0 00.9-1.081.961.961 0 00-.9-1.081h-4.6c-.575 0-.874.529-.874 1.081a.972.972 0 00.874 1.081zm0 3.22a.974.974 0 00.9-1.081.961.961 0 00-.9-1.081h-4.6c-.575 0-.874.529-.874 1.081a.972.972 0 00.874 1.081zm3.818-9.959a8.6 8.6 0 01-.851 1.794 1.319 1.319 0 00-.207.667 1 1 0 001.058.943 1.326 1.326 0 001.15-.713 9.777 9.777 0 00.943-2.139 1.553 1.553 0 00.046-.322 1.057 1.057 0 00-1.127-.966 1.057 1.057 0 00-1.017.736zm-.345 9.637a9.822 9.822 0 01-.92 1.84 1.319 1.319 0 00-.207.667 1.086 1.086 0 001.127 1.058 1.241 1.241 0 001.081-.644 9.007 9.007 0 001.058-2.392 1.154 1.154 0 00.046-.276 1.1 1.1 0 00-1.15-1.035 1.071 1.071 0 00-1.04.782zM176.274 2.76a1.088 1.088 0 00-1.2-1.058 1.088 1.088 0 00-1.2 1.058v3.427c-.989.069-1.932.092-2.829.092-.414 0-.805-.046-1.219-.046a1.085 1.085 0 00-1.1 1.15 1.16 1.16 0 001.058 1.219 11.01 11.01 0 001.265.046c.9 0 1.863-.023 2.852-.092.023 1.679.069 3.358.207 5.037a11.83 11.83 0 00-1.518-.115c-2.99 0-4.531 1.426-4.531 3.335 0 2.07 1.61 3.358 4.186 3.358 2.852 0 4.163-1.38 4.416-3.289a17.8 17.8 0 012.277 1.518 1.461 1.461 0 00.874.345 1.247 1.247 0 001.219-1.242 1.4 1.4 0 00-.621-1.127 16.084 16.084 0 00-3.836-2.139c-.207-1.955-.253-3.933-.276-5.911a34.36 34.36 0 002.875-.437 1.215 1.215 0 001.012-1.219 1.043 1.043 0 00-1.081-1.1 1.415 1.415 0 00-.3.023c-.782.138-1.633.276-2.53.368zm-4.027 15.134c-1.15 0-1.771-.368-1.771-1.081 0-.667.506-1.173 2.116-1.173a6.434 6.434 0 011.633.253 1.778 1.778 0 01-1.978 2.001zm-8.602-15.276a45.441 45.441 0 00-1.265 9.959 44.72 44.72 0 00.529 7.176 1.22 1.22 0 001.288 1.039 1.257 1.257 0 001.334-1.15c0-.069-.023-.138-.023-.207a60.059 60.059 0 01-.506-6.831 43.911 43.911 0 011.219-9.5 1.031 1.031 0 00.023-.253 1.21 1.21 0 00-1.334-1.127 1.2 1.2 0 00-1.265.894zm26.082.713a1.311 1.311 0 00-.3-.023 1.233 1.233 0 00-1.218 1.31 1.244 1.244 0 001.012 1.265 24.377 24.377 0 005.014.437 29.5 29.5 0 004.738-.322 1.206 1.206 0 001.035-1.242 1.231 1.231 0 00-1.242-1.288c-.069 0-.138.023-.207.023a41.137 41.137 0 01-4.347.3 22.442 22.442 0 01-4.485-.456zm4.347 16.587a30.294 30.294 0 006.739-.713 1.343 1.343 0 001.127-1.311 1.221 1.221 0 00-1.219-1.265 2.293 2.293 0 00-.368.046 31.477 31.477 0 01-6.279.667c-4.3 0-5.083-.782-5.083-2.231a4.912 4.912 0 01.138-1.15 1.8 1.8 0 00.046-.322 1.153 1.153 0 00-1.265-1.058 1.269 1.269 0 00-1.288.92 6.261 6.261 0 00-.253 1.725c0 3.128 2.162 4.692 7.705 4.692zm19.665-7.866a36.448 36.448 0 001.1-4.531c2.047-.23 4.14-.6 5.98-.989a1.205 1.205 0 001.058-1.173 1.162 1.162 0 00-1.15-1.2 1.776 1.776 0 00-.345.046c-1.541.345-3.335.644-5.129.874.138-.943.253-1.955.368-3.013v-.161a1.106 1.106 0 00-1.2-1.081 1.189 1.189 0 00-1.265 1.058 84.26 84.26 0 01-.414 3.473c-1.311.115-2.53.184-3.588.184a1.127 1.127 0 00-1.15 1.173 1.139 1.139 0 001.173 1.2c.966 0 2.024-.046 3.151-.138a45.092 45.092 0 01-1.725 6.486 1.633 1.633 0 00-.092.552 1.246 1.246 0 001.288 1.242 1.455 1.455 0 00.989-.414 9.539 9.539 0 016.886-2.967c1.886 0 2.622.9 2.622 2.093 0 1.863-1.541 3.358-5.865 3.657a1.119 1.119 0 00-1.128 1.173 1.178 1.178 0 001.219 1.2 5.36 5.36 0 00.759-.046c4.163-.395 7.613-2.35 7.613-6.032 0-2.53-1.748-4.3-5.267-4.3a12.124 12.124 0 00-5.842 1.656zM238.464 1.38a2.561 2.561 0 00-.391-.046 1.353 1.353 0 00-1.357 1.334 1.147 1.147 0 00.874 1.1 33.357 33.357 0 013.749 1.426 1.658 1.658 0 00.69.161 1.236 1.236 0 001.219-1.265 1.387 1.387 0 00-.8-1.265 18.836 18.836 0 00-3.984-1.445zm-3.1 10.833c.253-1.334.644-3.082 1.081-5.221a.782.782 0 00.023-.23 1.185 1.185 0 00-1.311-1.081 1.226 1.226 0 00-1.265.966c-.667 3.151-1.219 6.164-1.449 7.866a1.12 1.12 0 00-.023.276 1.324 1.324 0 001.354 1.329 1.5 1.5 0 001.173-.552 9.755 9.755 0 017.13-3.5c2.208 0 3.151 1.1 3.151 2.3 0 1.978-1.564 3.68-6.072 4.209a1.244 1.244 0 00-1.173 1.242 1.245 1.245 0 001.265 1.265c.069 0 .138-.023.207-.023 5.543-.644 8.464-3.174 8.464-6.716 0-2.6-2.231-4.577-5.842-4.577a10.784 10.784 0 00-6.67 2.461z" fill="#ffff3a"/></svg>