<svg xmlns="http://www.w3.org/2000/svg" width="734.678" height="41.49"><g data-name="グループ 18927"><g data-name="グループ 18129" fill="none" stroke="#8d827a" stroke-linecap="round" stroke-width="4"><path data-name="パス 48620" d="M710.25 38.746l21.684-36"/><path data-name="パス 331169" d="M24.427 38.746l-21.684-36"/></g><g data-name="グループ 18900"><g data-name="グループ 18128"><path data-name="パス 331735" d="M381.757 19.806a57.2 57.2 0 008.928-5.076 1.807 1.807 0 00.864-1.44 1.945 1.945 0 00-1.98-1.8 2.187 2.187 0 00-1.44.54c-4.752 3.888-13.032 7.416-20.232 9.072a1.769 1.769 0 00-1.476 1.728 1.834 1.834 0 001.872 1.872 3.59 3.59 0 00.576-.072 53.058 53.058 0 005.508-1.62 2.725 2.725 0 00-.036.54v10.116c0 2.628 1.224 3.744 4.716 3.744h11.88c2.844 0 4.716-.54 4.716-3.744v-10.12c0-2.628-1.224-3.744-4.716-3.744zm-2.376 14.76c-.828 0-1.224-.144-1.224-1.044v-1.3h13.68v1.3c0 .792-.216 1.044-1.26 1.044zm-1.224-7.128h13.68v2.088h-13.68zm13.68-2.7h-13.68v-1.08c0-.792.216-1.008 1.224-1.008h11.2c1.044 0 1.26.216 1.26 1.008zM374.593 7.71a27.851 27.851 0 01-5.616 4.464 2.133 2.133 0 00-1.188 1.8 1.882 1.882 0 001.872 1.872 2.438 2.438 0 001.152-.324 28.523 28.523 0 006.768-5.476 1.681 1.681 0 00.468-1.116 2.044 2.044 0 00-2.052-1.836 1.974 1.974 0 00-1.404.616zm18.576-.612a2.243 2.243 0 00-1.26-.4 1.878 1.878 0 00-1.908 1.8 1.886 1.886 0 00.936 1.548 34.122 34.122 0 014.968 4.288 2.195 2.195 0 001.548.72 1.89 1.89 0 001.908-1.872 2.345 2.345 0 00-.72-1.62 31.5 31.5 0 00-5.472-4.464zm-7.488-1.44c0-1.008-.972-1.548-1.944-1.548-.936 0-1.872.5-1.872 1.512v4.9c0 .684-.18.828-.828.828a7.062 7.062 0 01-1.368-.144 1.753 1.753 0 00-.432-.036 1.682 1.682 0 00-1.692 1.76 1.76 1.76 0 001.512 1.764 18 18 0 002.124.18c3.024 0 4.5-1.26 4.5-3.852zm35.748 8.856h8.712a1.905 1.905 0 001.944-2.016 1.905 1.905 0 00-1.944-2.016h-21.096a1.905 1.905 0 00-1.94 2.016 1.905 1.905 0 001.944 2.016h8.056v14h-11.3a1.905 1.905 0 00-1.944 2.016 1.905 1.905 0 001.944 2.016h27a1.905 1.905 0 001.944-2.016 1.905 1.905 0 00-1.944-2.012h-11.376zm31.752 16.272v5a1.854 1.854 0 002.052 1.728 1.835 1.835 0 002.052-1.724V23.082a36.587 36.587 0 005.112-4.86 4.3 4.3 0 001.188-2.736c0-1.62-1.4-2.808-3.888-2.772l-14.58.144a1.774 1.774 0 00-1.764 1.908 1.784 1.784 0 001.8 1.908l12.708-.18c.432 0 .648.108.648.288a.749.749 0 01-.252.468c-3.452 3.596-9.432 7.452-16.02 9.828a1.922 1.922 0 00-1.4 1.836 1.873 1.873 0 001.832 1.872 2.362 2.362 0 00.828-.144 53.53 53.53 0 009.792-4.788zm-1.764-22.32a37.678 37.678 0 013.348 2.736 1.958 1.958 0 001.3.54 2.189 2.189 0 002.088-2.088 2.063 2.063 0 00-.72-1.512 29.172 29.172 0 00-3.492-2.664 2.243 2.243 0 00-1.26-.4 2.056 2.056 0 00-2.056 1.948 1.756 1.756 0 00.792 1.44zm10.8 14.328a2.376 2.376 0 00-.972-.216 1.882 1.882 0 00-1.872 1.868 1.788 1.788 0 001.008 1.584 43.1 43.1 0 016.156 4.176 2.166 2.166 0 001.4.54 1.951 1.951 0 001.912-1.94 2.177 2.177 0 00-.864-1.692 34.393 34.393 0 00-6.768-4.32zm160.388.864a1.536 1.536 0 001.476-1.692 1.524 1.524 0 00-1.476-1.656h-1.944v-5.22c0-2.556-1.4-3.924-4.392-3.924h-3.132V6.018a1.742 1.742 0 00-1.944-1.62 1.729 1.729 0 00-1.908 1.62v5.148h-4.572a1.528 1.528 0 00-1.44 1.692 1.541 1.541 0 001.44 1.728h4.572v1.728a29.735 29.735 0 01-.216 4h-5.9a1.519 1.519 0 00-1.44 1.656 1.531 1.531 0 001.44 1.692h5.328a17.02 17.02 0 01-7.38 10.512 1.956 1.956 0 00-.972 1.62 1.892 1.892 0 001.836 1.836 1.847 1.847 0 001.08-.36 21.111 21.111 0 008.676-11.2 23.564 23.564 0 008.856 10.692 2.037 2.037 0 001.116.36 2.1 2.1 0 002.012-2.088 2.118 2.118 0 00-1.116-1.8 21.028 21.028 0 01-8.28-9.576zm-5.724-3.348h-3.924c.108-1.26.18-2.556.18-3.816v-1.908h2.592c.864 0 1.152.216 1.152 1.08zM598.737 5.838a1.739 1.739 0 00-1.944-1.584c-1.008 0-1.98.54-1.98 1.584v30.528c0 1.044.972 1.584 1.98 1.584a1.739 1.739 0 001.944-1.584zm-7.232 7.524a28.3 28.3 0 01-1.008 4.968 2.43 2.43 0 00-.072.5 1.375 1.375 0 001.44 1.332 1.533 1.533 0 001.476-1.152 25.6 25.6 0 001.008-5.256v-.18a1.37 1.37 0 00-1.476-1.368 1.318 1.318 0 00-1.368 1.156zm10.3-1.044a1.386 1.386 0 00-1.368-1.008 1.3 1.3 0 00-1.368 1.26 1.807 1.807 0 00.072.432 32.526 32.526 0 01.684 3.276 1.284 1.284 0 001.332 1.152 1.48 1.48 0 001.512-1.44c0-.108-.036-.18-.036-.288a23.037 23.037 0 00-.836-3.384zm56.556 4.356c0-2.412-1.224-3.564-4.464-3.564h-.972c.252-.468.5-.972.756-1.476a1.371 1.371 0 00.144-.612 1.328 1.328 0 00-.36-.864h4.932a1.475 1.475 0 001.368-1.62 1.455 1.455 0 00-1.368-1.62h-8.892V5.586c0-.972-.9-1.44-1.836-1.44-.9 0-1.836.468-1.836 1.44v1.332h-8.6c-.9 0-1.332.792-1.332 1.62a1.448 1.448 0 001.332 1.62h4.536a1.258 1.258 0 00-.288.792 1.268 1.268 0 00.252.756 12.964 12.964 0 01.9 1.4h-1.08c-3.24 0-4.464 1.152-4.464 3.564v13.9c0 .936.9 1.4 1.8 1.4s1.8-.468 1.8-1.4V17.106c0-.684.288-.972 1.224-.972h4.032v1.728h-3.04a1.248 1.248 0 00-1.224 1.368 1.26 1.26 0 001.224 1.4h3.024v1.692h-.36c-2.232 0-3.06.792-3.06 2.592v2.16c0 1.8.828 2.592 3.06 2.592h4.176a5.183 5.183 0 001.476-.18 1.908 1.908 0 00-.288.972 1.677 1.677 0 001.584 1.692 15.859 15.859 0 001.872.108c2.592 0 3.96-1.152 3.96-3.636zm-5.556 8.244c0-1.8-.828-2.592-3.06-2.592h-.432v-1.692h3.132a1.26 1.26 0 001.224-1.4 1.248 1.248 0 00-1.224-1.368h-3.132v-1.728h4.212c.936 0 1.224.288 1.224.972v10.976c0 .54-.216.792-.72.792a6.015 6.015 0 01-1.08-.072 1.111 1.111 0 00-.324-.036.793.793 0 00-.288.036 2.74 2.74 0 00.468-1.728zm-6.948-11.808a1.445 1.445 0 00.108-.54 1.771 1.771 0 00-.18-.72 7.358 7.358 0 00-1.152-1.692h5.94a.784.784 0 00-.18.288 23.49 23.49 0 01-1.368 2.664zm.36 14.112c-.432 0-.684-.108-.684-.576v-1.368c0-.432.144-.576.684-.576h2.88c.54 0 .684.144.684.576v1.368c0 .432-.144.576-.684.576zm-11.628-4c0-2.484-1.116-3.744-3.924-3.744h-2.448a1.618 1.618 0 00-1.584 1.764 1.637 1.637 0 001.584 1.764h1.588c.936 0 1.044.216 1.044.828v6.984a22.568 22.568 0 01-3.6 3.2 2.118 2.118 0 00-1.044 1.664 1.877 1.877 0 001.908 1.8 2.05 2.05 0 001.26-.432 27.144 27.144 0 003.78-3.6c2.772 2.628 6.66 3.636 15.7 3.636 3.816 0 7.092-.108 9.9-.324a1.774 1.774 0 001.724-1.872 1.7 1.7 0 00-1.728-1.8h-.252a95.264 95.264 0 01-9.756.4c-8.352 0-11.88-.864-14.148-3.06zm-3.24-16.38a2.245 2.245 0 00-1.4-.5 1.916 1.916 0 00-1.944 1.836 1.809 1.809 0 00.684 1.4 18.807 18.807 0 012.376 2.484 1.938 1.938 0 001.548.792 2.036 2.036 0 002.052-1.98 2.081 2.081 0 00-.54-1.368 16.379 16.379 0 00-2.772-2.66zm45.684 6.3c.252 3.528.468 8.856.612 12.816a1.485 1.485 0 001.62 1.512 1.546 1.546 0 001.692-1.512c.108-4 .36-9.324.612-12.816.072-1.044.288-3.2.288-4.176a2.362 2.362 0 00-2.52-2.448 2.382 2.382 0 00-2.592 2.448c.004.98.26 3.532.292 4.18zm2.272 16.672a2.682 2.682 0 00-2.736 2.7 2.652 2.652 0 002.736 2.664 2.652 2.652 0 002.736-2.664 2.682 2.682 0 00-2.736-2.7z" fill="#eb5e00"/></g><g data-name="グループ 18899"><path data-name="パス 331735" d="M58.05 31.498c1.827-1.653 3.248-2.929 5.655-5.452 2.61-2.755 3.538-4.553 3.538-7.221 0-3.712-2.32-6.206-6.467-6.206a9.111 9.111 0 00-6.061 2.552 1.51 1.51 0 00-.58 1.189 1.6 1.6 0 001.682 1.624 1.6 1.6 0 001.1-.493 5.587 5.587 0 013.888-1.885c1.827 0 2.958 1.1 2.958 3.277 0 1.682-.783 3.19-2.581 5.307a62.164 62.164 0 01-6.525 6.467 2.409 2.409 0 00-.9 1.972 1.7 1.7 0 001.711 1.856h10.7a1.374 1.374 0 001.537-1.479 1.4 1.4 0 00-1.537-1.508zm20.445-12.064a1.756 1.756 0 00-1.189 1.6 1.6 1.6 0 001.624 1.595 2.3 2.3 0 00.841-.174c5.191-2.291 9.8-3.451 13.427-3.451 3.6 0 5.278 1.914 5.278 4.147 0 3.828-2.378 6.177-9.164 7.337a1.626 1.626 0 00-1.45 1.6 1.584 1.584 0 001.6 1.653 1.412 1.412 0 00.343-.039c7.975-1.131 12.093-5.017 12.093-10.556 0-4.437-3.509-7.221-8.7-7.221a39.046 39.046 0 00-14.703 3.509zm33.379 13.34c2.233 0 3.944-.841 5.539-3.654a29.016 29.016 0 003.277-12.325 7.089 7.089 0 016.989 7.25c0 3.6-1.653 6.09-5.771 7.569a1.67 1.67 0 00-1.218 1.6 1.626 1.626 0 001.624 1.648 1.9 1.9 0 00.667-.116c4.988-1.6 8.091-5.452 8.091-10.7 0-5.771-4.089-10.208-11.165-10.208-7.975 0-13.456 5.423-13.456 12.035 0 4.523 2.465 6.901 5.423 6.901zm5.423-15.776a26.232 26.232 0 01-2.9 10.585c-.841 1.479-1.624 1.943-2.523 1.943-1.044 0-2.088-.986-2.088-3.654a9.186 9.186 0 017.511-8.874zm26.854 7.54v-2.292h4.988a1.263 1.263 0 001.189-1.392 1.253 1.253 0 00-1.189-1.363h-4.988v-2.407h3.857a1.206 1.206 0 001.16-1.334 1.2 1.2 0 00-1.163-1.304h-3.857v-3.045a1.346 1.346 0 00-1.508-1.276 1.346 1.346 0 00-1.508 1.276v3.045h-1.537a11.593 11.593 0 00.493-1.392 1.609 1.609 0 00.087-.493 1.383 1.383 0 00-1.479-1.334 1.377 1.377 0 00-1.363.957 24.191 24.191 0 01-2.117 4.669 1.848 1.848 0 00-.261.87 1.371 1.371 0 001.45 1.305 1.581 1.581 0 001.392-.841c.2-.348.406-.7.609-1.1h2.726v2.407h-5.684a1.231 1.231 0 00-1.16 1.363 1.241 1.241 0 001.16 1.392h5.684v2.291h-1.914c-2.465 0-3.335.783-3.335 2.987v6.148c0 .783.754 1.189 1.508 1.189a1.327 1.327 0 001.479-1.189v-5.773c0-.551.174-.725.754-.725h1.508v8.961a1.364 1.364 0 001.508 1.276 1.364 1.364 0 001.508-1.276v-8.961h1.595c.58 0 .754.174.754.725v3.335c0 .348-.116.464-.348.464a2.5 2.5 0 01-.435-.029h-.145a1.224 1.224 0 00-1.16 1.334 1.247 1.247 0 001.131 1.334c.406.029.754.058 1.218.058 1.624 0 2.668-.667 2.668-2.958v-3.915c0-2.2-.87-2.987-3.306-2.987zm15.892-12.5a1.39 1.39 0 00-1.537-1.276 1.4 1.4 0 00-1.566 1.276v20.794c0 .783-.261.928-.638.928a6.939 6.939 0 01-1.3-.116.9.9 0 00-.261-.029 1.423 1.423 0 00-1.426 1.508 1.449 1.449 0 001.19 1.479 11.263 11.263 0 002.03.174c2.581 0 3.509-1.015 3.509-3.422zm-8.323 17.429a1.372 1.372 0 001.537 1.247 1.361 1.361 0 001.508-1.247v-15.63a1.364 1.364 0 00-1.508-1.276 1.374 1.374 0 00-1.537 1.276zm19.749-3.161a1.149 1.149 0 00-1.073 1.247 1.159 1.159 0 001.073 1.276h1.653a21.074 21.074 0 003.712 3.654 27.3 27.3 0 01-6.9 1.74 1.374 1.374 0 00-1.3 1.363 1.455 1.455 0 001.501 1.48c.087 0 .174-.029.261-.029a28.649 28.649 0 009.222-2.813 25.017 25.017 0 008.207 2.581 1.088 1.088 0 00.29.029 1.451 1.451 0 001.479-1.508 1.4 1.4 0 00-1.218-1.421 27.815 27.815 0 01-5.8-1.45 15.393 15.393 0 002.175-1.885 3.037 3.037 0 00.986-2.088c0-1.189-1.044-2.175-3.132-2.175zm10.15 2.523c.348 0 .551.087.551.232 0 .116-.087.232-.261.377a16.352 16.352 0 01-2.233 1.624 16.561 16.561 0 01-2.871-2.232zm-7.946-8.236v1.45c0 2.059.87 2.755 3.19 2.755h4.205c2.32 0 3.19-.7 3.19-2.755v-1.45h3.944a1.153 1.153 0 001.1-1.247 1.137 1.137 0 00-1.1-1.247h-3.944v-.87c0-.812-.725-1.189-1.45-1.189s-1.45.377-1.45 1.189v.87h-4.785v-.87c0-.812-.725-1.189-1.45-1.189s-1.45.377-1.45 1.189v.87h-3.19a1.133 1.133 0 00-1.078 1.247 1.149 1.149 0 001.073 1.247zm2.9 0h4.785v1.044c0 .638-.087.783-.754.783h-3.248c-.667 0-.783-.145-.783-.783zm-.725-7.685h-6.293c-2.871 0-3.973 1.1-3.973 3.422v4.727c0 5.336-.87 9.193-2.436 12.441a1.971 1.971 0 00-.2.841 1.418 1.418 0 001.479 1.421 1.754 1.754 0 001.566-1.073 29.589 29.589 0 002.7-13.4v-4.379c0-1.015.348-1.363 1.653-1.363h18.125a1.2 1.2 0 001.131-1.334 1.192 1.192 0 00-1.131-1.305h-9.541v-1.885c0-.783-.754-1.16-1.537-1.16-.754 0-1.537.377-1.537 1.16zm26.216 3.77a1.167 1.167 0 00-1.131 1.276 1.167 1.167 0 001.131 1.276h2.436v4.292h-3.395a1.176 1.176 0 00-1.131 1.3 1.192 1.192 0 001.131 1.311h3.335a11.911 11.911 0 01-3.683 8.207 1.7 1.7 0 00-.636 1.276 1.512 1.512 0 001.537 1.45 1.806 1.806 0 001.247-.52 15.111 15.111 0 004.611-10.411h3.567v9.655c0 .841.783 1.247 1.537 1.247.783 0 1.537-.406 1.537-1.247v-9.657h3.77a1.192 1.192 0 001.131-1.305 1.176 1.176 0 00-1.131-1.3h-3.77v-4.292h2.813a1.167 1.167 0 001.131-1.276 1.167 1.167 0 00-1.131-1.276h-3.915a26.793 26.793 0 001.943-4.263 1.718 1.718 0 00.116-.609 1.567 1.567 0 00-1.653-1.508 1.551 1.551 0 00-1.479 1.073 35 35 0 01-2.407 5.307zm9.019 2.552v4.292h-3.509V19.23zm-15.515 16.937c0 .783.783 1.16 1.566 1.16s1.566-.377 1.566-1.16V20.739a1.257 1.257 0 00-1.305-1.16 42.315 42.315 0 002.61-7.279 2.238 2.238 0 00.058-.435 1.529 1.529 0 00-1.682-1.45 1.5 1.5 0 00-1.566 1.1 34.678 34.678 0 01-4.553 10.9 1.857 1.857 0 00-.348 1.015 1.511 1.511 0 001.537 1.45 1.652 1.652 0 001.421-.812c.232-.348.464-.7.7-1.073zm11.02-24.8a1.62 1.62 0 00-1.305-.667 1.516 1.516 0 00-1.6 1.363 1.253 1.253 0 00.232.725c.406.609.9 1.45 1.247 2.088a1.484 1.484 0 001.334.812 1.567 1.567 0 001.6-1.479 1.762 1.762 0 00-.174-.725 13.9 13.9 0 00-1.334-2.112zm21.634.29c-2.726 0-3.944 1.276-3.944 3.6v6.148c0 6.177-.9 9.686-2.726 12.7a1.915 1.915 0 00-.29.986 1.554 1.554 0 001.6 1.508 1.748 1.748 0 001.479-.9 19.464 19.464 0 002.784-8.12h6.119v6.993c0 .841.783 1.247 1.566 1.247s1.566-.406 1.566-1.247v-6.989h6.351v4.524c0 .87-.2 1.189-.841 1.189a5.349 5.349 0 01-1.131-.116 1.3 1.3 0 00-.319-.029 1.5 1.5 0 00-1.508 1.537 1.5 1.5 0 001.276 1.508 11.625 11.625 0 002.146.174c2.494 0 3.567-1.392 3.567-3.886V15.258c0-2.32-1.189-3.6-3.915-3.6zm8.149 2.842h4.785c1.247 0 1.566.348 1.566 1.45v2.262h-6.351zm6.351 6.5v3.8h-6.351v-3.8zm-15.341 3.8c.058-1.131.087-2.233.087-3.364V21h5.771v3.8zm.087-6.583v-2.262c0-1.1.348-1.45 1.6-1.45h4.176v3.712zm37.845-.841a11.692 11.692 0 00-4.756 9.048c0 4.321 2.929 7.917 8.207 8.9a9.124 9.124 0 001.305.123 1.625 1.625 0 001.711-1.711 1.689 1.689 0 00-1.566-1.711c-4.06-.493-6.293-2.465-6.293-5.684 0-2.755.957-5.771 5.481-8.352a9.927 9.927 0 013.19-1.16 1.566 1.566 0 001.334-1.566 1.5 1.5 0 00-1.566-1.537h-.174c-6.032.551-13.514 1.392-19.546 2.146a1.577 1.577 0 00-1.508 1.6 1.606 1.606 0 001.624 1.653 1.088 1.088 0 00.29-.029c4.176-.609 8.787-1.3 12.267-1.769zm4.553 5.278a21.094 21.094 0 012.146 2.465 1.162 1.162 0 00.957.551 1.183 1.183 0 001.16-1.16 1.211 1.211 0 00-.261-.783 14.489 14.489 0 00-2.262-2.523 1.21 1.21 0 00-.812-.319 1.208 1.208 0 00-1.218 1.1 1.031 1.031 0 00.29.669zm2.9-2.291c.667.7 1.479 1.566 2.146 2.407a1.261 1.261 0 001.015.522 1.133 1.133 0 001.16-1.1 1.35 1.35 0 00-.319-.87 14.541 14.541 0 00-2.233-2.378 1.393 1.393 0 00-.87-.348 1.165 1.165 0 00-1.218 1.073.958.958 0 00.319.694zM292.66 12.3a1.088 1.088 0 00.029-.29 1.464 1.464 0 00-1.624-1.364 1.548 1.548 0 00-1.653 1.218l-.725 4.176a27.01 27.01 0 01-2.987-.464 1.412 1.412 0 00-.348-.029 1.5 1.5 0 00-1.479 1.566 1.482 1.482 0 001.247 1.45 21.108 21.108 0 003.045.464 98.725 98.725 0 00-.609 4.06 23.69 23.69 0 01-3.074-.551 1.606 1.606 0 00-.522-.058 1.511 1.511 0 00-1.479 1.6 1.579 1.579 0 001.218 1.566 23.421 23.421 0 003.48.58 27.733 27.733 0 00-.145 2.922c0 4.959 2.7 7.279 7.221 7.279 4.872 0 8.236-2.407 8.236-7.366a8.7 8.7 0 00-.435-2.668 1.711 1.711 0 00-1.711-1.245 1.515 1.515 0 00-1.653 1.392 2.239 2.239 0 00.058.435 7.9 7.9 0 01.348 2.146c0 2.871-1.711 4-4.9 4-2.552 0-3.857-1.073-3.857-4.2 0-.7.029-1.508.116-2.523h.812a27.161 27.161 0 005.046-.464 1.485 1.485 0 001.247-1.537 1.466 1.466 0 00-1.421-1.537.987.987 0 00-.29.029 27.8 27.8 0 01-4.553.377h-.464c.2-1.363.435-2.7.609-4.06h.812a30.5 30.5 0 003.219-.145 1.381 1.381 0 001.247-1.479 1.409 1.409 0 00-1.393-1.534h-.145c-.9.087-1.856.145-2.987.145h-.2zm31.813 8.294a31.612 31.612 0 00-12.064 2.9 1.468 1.468 0 00-.986 1.363 1.361 1.361 0 001.363 1.363 1.5 1.5 0 00.7-.145 28.461 28.461 0 0110.991-2.842c2.871 0 4.205 1.45 4.205 3.306 0 3.074-1.885 4.93-7.4 5.887a1.356 1.356 0 00-1.188 1.363 1.347 1.347 0 001.334 1.421.987.987 0 00.29-.029c6.5-.928 9.889-4.118 9.889-8.642-.002-3.654-2.902-5.945-7.134-5.945zm22.881 2.146c-3.625 2.465-4.727 4.814-4.727 7.192 0 3.915 3.045 5.771 9.135 5.771a33.532 33.532 0 006.67-.551 1.6 1.6 0 001.305-1.624 1.529 1.529 0 00-1.566-1.6 1.784 1.784 0 00-.377.029 31.862 31.862 0 01-6 .522c-4.611 0-5.8-.928-5.8-2.726 0-1.479.87-3.074 3.364-4.7a34.2 34.2 0 017.627-3.364 1.426 1.426 0 001.073-1.421 1.579 1.579 0 00-1.508-1.624 1.642 1.642 0 00-.522.087 39.7 39.7 0 00-5.713 2.262 50.762 50.762 0 01-.667-8.5 1.566 1.566 0 00-1.682-1.566 1.566 1.566 0 00-1.682 1.566 46.2 46.2 0 001.07 10.247zm127.951 8.961a28.221 28.221 0 014.524 4.437 1.768 1.768 0 001.421.725 1.653 1.653 0 001.683-1.624 2.115 2.115 0 00-.522-1.334 23.21 23.21 0 00-5.191-4.582 2.067 2.067 0 00-1.015-.319 1.548 1.548 0 00-1.566 1.508 1.425 1.425 0 00.666 1.189zm41.354-19.4a1.088 1.088 0 00.029-.29 1.464 1.464 0 00-1.623-1.365 1.548 1.548 0 00-1.653 1.218l-.725 4.176a27.01 27.01 0 01-2.987-.464 1.412 1.412 0 00-.348-.029 1.5 1.5 0 00-1.479 1.566 1.482 1.482 0 001.247 1.45 21.108 21.108 0 003.045.464 98.725 98.725 0 00-.609 4.06 23.69 23.69 0 01-3.074-.551 1.606 1.606 0 00-.522-.058 1.511 1.511 0 00-1.479 1.6 1.579 1.579 0 001.218 1.566 23.421 23.421 0 003.48.58 27.735 27.735 0 00-.145 2.929c0 4.959 2.7 7.279 7.221 7.279 4.872 0 8.236-2.407 8.236-7.366a8.7 8.7 0 00-.435-2.668 1.711 1.711 0 00-1.711-1.252 1.515 1.515 0 00-1.653 1.392 2.238 2.238 0 00.058.435 7.9 7.9 0 01.348 2.146c0 2.871-1.711 4-4.9 4-2.552 0-3.857-1.073-3.857-4.2 0-.7.029-1.508.116-2.523h.812a27.161 27.161 0 005.046-.464 1.485 1.485 0 001.247-1.537 1.466 1.466 0 00-1.421-1.537.987.987 0 00-.29.029 27.8 27.8 0 01-4.553.377h-.464c.2-1.363.435-2.7.609-4.06h.812a30.5 30.5 0 003.219-.145 1.381 1.381 0 001.247-1.479 1.409 1.409 0 00-1.392-1.537h-.145c-.9.087-1.856.145-2.987.145h-.2zm31.813 8.294a31.612 31.612 0 00-12.064 2.9 1.468 1.468 0 00-.986 1.363 1.361 1.361 0 001.363 1.363 1.5 1.5 0 00.7-.145 28.461 28.461 0 0110.991-2.842c2.871 0 4.205 1.45 4.205 3.306 0 3.074-1.885 4.93-7.4 5.887a1.356 1.356 0 00-1.189 1.363 1.347 1.347 0 001.336 1.42.986.986 0 00.29-.029c6.5-.928 9.889-4.118 9.889-8.642-.002-3.654-2.902-5.945-7.134-5.945zm22.881 2.146c-3.625 2.465-4.727 4.814-4.727 7.192 0 3.915 3.045 5.771 9.135 5.771a33.532 33.532 0 006.67-.551 1.6 1.6 0 001.305-1.624 1.529 1.529 0 00-1.566-1.6 1.784 1.784 0 00-.377.029 31.862 31.862 0 01-6 .522c-4.611 0-5.8-.928-5.8-2.726 0-1.479.87-3.074 3.364-4.7a34.2 34.2 0 017.627-3.364 1.426 1.426 0 001.073-1.421 1.579 1.579 0 00-1.508-1.624 1.642 1.642 0 00-.522.087 39.7 39.7 0 00-5.713 2.262 50.761 50.761 0 01-.667-8.5 1.566 1.566 0 00-1.682-1.566 1.566 1.566 0 00-1.682 1.566 46.2 46.2 0 001.071 10.246z" fill="#2e3032"/></g></g></g></svg>