<svg xmlns="http://www.w3.org/2000/svg" width="948" height="78.123"><g data-name="グループ 18926"><path data-name="長方形 4278" d="M20 11.124h908a20 20 0 0120 20v47H0v-47a20 20 0 0120-20z" fill="#897d76"/><path data-name="パス 332026" d="M356.394 39.195v-2.21h7.276a1.405 1.405 0 001.292-1.564 1.405 1.405 0 00-1.292-1.564h-2.278a1.576 1.576 0 001.054-1.462 1.539 1.539 0 00-.612-1.224 14 14 0 00-2.142-1.326 2.215 2.215 0 00-.884-.2 1.443 1.443 0 00-1.462 1.428 1.423 1.423 0 00.782 1.258 13.2 13.2 0 011.9 1.258 1.864 1.864 0 00.51.272h-4.148v-3.3a1.574 1.574 0 00-1.768-1.462 1.574 1.574 0 00-1.768 1.462v3.3h-6.392a1.4 1.4 0 00-1.258 1.564 1.4 1.4 0 001.258 1.564h6.392v2.21h-2.89c-2.754 0-3.808 1.054-3.808 3.5v16.524c0 .918.85 1.36 1.7 1.36s1.7-.442 1.7-1.36v-5.882h3.4v5.372a1.508 1.508 0 001.666 1.36 1.489 1.489 0 001.666-1.36v-5.372h3.74v3.06c0 .578-.17.748-.578.748a5.114 5.114 0 01-.986-.1.941.941 0 00-.306-.034 1.507 1.507 0 00-1.424 1.63 1.572 1.572 0 001.292 1.564 10.616 10.616 0 002.074.2c2.244 0 3.332-1.02 3.332-3.672V42.695c0-2.448-1.088-3.5-3.842-3.5zm-.1 3.06h2.686c.884 0 1.054.238 1.054.986v1.632h-3.74zm3.74 5.542v2.652h-3.74v-2.654zm-10.474 2.654v-2.656h3.4v2.652zm0-5.576v-1.632c0-.748.238-.986 1.02-.986h2.38v2.618zm-9.01-.136a26.793 26.793 0 003.264-5.576 4.915 4.915 0 00.442-1.9c0-1.5-1.054-2.414-2.992-2.414h-.85v-4.522c0-.918-.884-1.36-1.734-1.36-.884 0-1.768.442-1.768 1.36v4.522h-2.448c-.85 0-1.258.782-1.258 1.564 0 .816.408 1.6 1.258 1.6h5.236c.442 0 .646.1.646.34a1.174 1.174 0 01-.1.442 23.008 23.008 0 01-6.834 8.432 1.814 1.814 0 00-.816 1.428 1.656 1.656 0 001.666 1.6 2.1 2.1 0 001.292-.476c.51-.408 1.02-.816 1.5-1.258v11.042c0 .884.884 1.36 1.768 1.36.85 0 1.734-.476 1.734-1.36v-9.792c.646.578 1.36 1.19 1.9 1.768a1.589 1.589 0 001.122.544 1.539 1.539 0 001.5-1.53 1.71 1.71 0 00-.578-1.224c-.374-.34-.816-.748-1.326-1.156a18.688 18.688 0 001.726-2.078 1.63 1.63 0 00.306-.884 1.447 1.447 0 00-1.428-1.36 1.374 1.374 0 00-1.156.646 14.146 14.146 0 01-1.7 2.074c-.1-.068-.238-.136-.374-.238zm53.89-4.08c.884 0 1.088.2 1.088.952a80.8 80.8 0 01-.986 13.43c-.17.986-.51 1.258-1.156 1.258a9.224 9.224 0 01-1.394-.136 1.8 1.8 0 00-.408-.034 1.777 1.777 0 00-1.768 1.866 1.9 1.9 0 001.632 1.87 10.766 10.766 0 002.414.238c2.346 0 3.842-1.122 4.352-4.318a96.467 96.467 0 00.986-14.684c0-2.584-.986-3.74-3.978-3.706l-3.026.034v-6.634c0-1.02-.918-1.5-1.836-1.5s-1.836.476-1.836 1.5v6.7l-3.3.034a1.491 1.491 0 00-1.462 1.632 1.517 1.517 0 001.53 1.666l3.2-.068c-.274 7.584-2.348 12.65-6.492 16.73a2 2 0 00-.68 1.428 1.8 1.8 0 001.836 1.7 2.085 2.085 0 001.5-.68 24.564 24.564 0 002.474-2.822 24.511 24.511 0 003.77-7.752 34.032 34.032 0 001.258-8.67zm-23.29 12.92l-1.156.2a1.631 1.631 0 00-1.394 1.67 1.754 1.754 0 001.632 1.87.941.941 0 00.306-.034 82.509 82.509 0 0013.162-3.468 1.643 1.643 0 001.122-1.6 1.606 1.606 0 00-1.53-1.7 1.925 1.925 0 00-.612.1 3.342 3.342 0 01-.544.17V34.369c0-2.584-.782-3.808-3.536-3.808h-3.91c-2.754 0-3.536 1.224-3.536 3.808zm7.446-1.7c-1.292.34-2.584.68-3.91.952v-4.726h3.91zm0-6.9h-3.91v-3.984h3.91zm0-7.106h-3.91v-3.028c0-.782.2-1.02.85-1.02h2.21c.646 0 .85.238.85 1.02zm43.656-7.038a1.2 1.2 0 00.136-.578 1.751 1.751 0 00-1.87-1.564 2.045 2.045 0 00-1.7.85 44.985 44.985 0 01-13.4 11.866 1.9 1.9 0 00-1.054 1.632 1.778 1.778 0 001.734 1.8 1.887 1.887 0 00.986-.272 53.157 53.157 0 0013.162-11.016 45.951 45.951 0 0013.26 10.472 2.69 2.69 0 001.19.306 1.856 1.856 0 001.836-1.87 1.989 1.989 0 00-1.258-1.836 40.328 40.328 0 01-13.022-9.792zm0 12.172h3.434a1.371 1.371 0 001.292-1.53c0-.782-.408-1.53-1.292-1.53h-10.71a1.374 1.374 0 00-1.292 1.53 1.393 1.393 0 001.292 1.53h3.536v3.162h-9.452a1.374 1.374 0 00-1.292 1.53 1.393 1.393 0 001.292 1.53h9.452v7.206h-11.56a1.409 1.409 0 00-1.326 1.56 1.409 1.409 0 001.326 1.564h27a1.409 1.409 0 001.322-1.564 1.409 1.409 0 00-1.326-1.56h-11.7v-7.208h9.69a1.371 1.371 0 001.292-1.53c0-.782-.408-1.53-1.292-1.53h-9.69zm-7.888 7.788a1.781 1.781 0 00-1.428-.714 1.7 1.7 0 00-1.736 1.594 1.645 1.645 0 00.306.918c.612.85 1.02 1.5 1.564 2.346a1.7 1.7 0 001.462.816 1.794 1.794 0 001.838-1.632 1.6 1.6 0 00-.27-.918 17.358 17.358 0 00-1.736-2.41zm10.336 2.444a1.888 1.888 0 00-.408 1.088 1.617 1.617 0 001.666 1.5 1.718 1.718 0 001.36-.68 20.4 20.4 0 001.9-2.822 1.891 1.891 0 00.272-.884 1.621 1.621 0 00-1.666-1.53 1.7 1.7 0 00-1.53.952 16.191 16.191 0 01-1.594 2.376zm32.368-15.878l.068-.136a1.663 1.663 0 00.17-.646 1.522 1.522 0 00-1.632-1.326 1.493 1.493 0 00-1.394.85 22.447 22.447 0 01-3.536 5.236 1.758 1.758 0 00-.51 1.156 1.48 1.48 0 001.5 1.462 1.7 1.7 0 001.258-.612c.17-.2.374-.408.544-.612v4.046c0 1.972.578 2.822 3.6 2.822h12.886a1.117 1.117 0 001.088-1.19 1.1 1.1 0 00-1.088-1.19h-6.494v-1.156h4.318a.944.944 0 00.954-1.02.944.944 0 00-.952-1.02h-4.318v-1.156h4.318a.944.944 0 00.952-1.02.944.944 0 00-.952-1.02h-4.318v-1.122h5.984a1.072 1.072 0 001.054-1.19 1.061 1.061 0 00-1.054-1.156h-5.95c.068-.17.136-.34.2-.544a.933.933 0 00.068-.408c0-.748-.748-1.19-1.53-1.19a1.5 1.5 0 00-1.5.986c-.136.374-.272.748-.408 1.156zm3.4 3.468h-3.74v-.578c0-.442.1-.544.748-.544h2.992zm0 2.04v1.156h-3.74v-1.156zm0 3.2v1.156h-2.992c-.646 0-.748-.1-.748-.544v-.612zm-15.4-5.95a22.961 22.961 0 01.85 2.584 22.692 22.692 0 01-4.966 6.932 1.872 1.872 0 00-.68 1.36 1.648 1.648 0 001.628 1.6 1.856 1.856 0 001.3-.546 20.345 20.345 0 003.536-4.386c.034.748.068 1.53.068 2.312 0 5.848-.816 6.868-1.938 6.868a5.8 5.8 0 01-1.394-.17 2.34 2.34 0 00-.442-.068 1.723 1.723 0 00-1.636 1.836 1.713 1.713 0 001.428 1.734 8.618 8.618 0 002.142.238c3.23 0 5.3-2.176 5.3-10.4a28.288 28.288 0 00-2.75-12.718 31.224 31.224 0 003.6-5.644 1.811 1.811 0 00.2-.816 1.7 1.7 0 00-1.768-1.564 1.666 1.666 0 00-1.53.952 31.183 31.183 0 01-2.38 3.944 22.284 22.284 0 00-1.768-2.244 1.681 1.681 0 00-1.326-.612 1.714 1.714 0 00-1.734 1.564 1.633 1.633 0 00.408 1.02 32.05 32.05 0 012.244 3.06 22.454 22.454 0 01-2.38 2.38 1.919 1.919 0 00-.748 1.394 1.692 1.692 0 001.7 1.632 2 2 0 001.258-.51 21.054 21.054 0 001.776-1.736zm14.45-8.976v-.884c0-.816-.782-1.224-1.6-1.224-.782 0-1.6.408-1.6 1.224v.884h-3.332a1.256 1.256 0 00-1.19 1.394 1.275 1.275 0 001.19 1.394h3.332v.544c0 .782.816 1.19 1.6 1.19.816 0 1.6-.408 1.6-1.19v-.544h4.08v.544c0 .782.816 1.19 1.6 1.19.816 0 1.6-.408 1.6-1.19v-.544h3.6a1.253 1.253 0 001.19-1.394 1.236 1.236 0 00-1.188-1.398h-3.6v-.884c0-.816-.782-1.224-1.6-1.224-.782 0-1.6.408-1.6 1.224v.884zm-4.048 22.266a17.153 17.153 0 003.468 2.958 35.134 35.134 0 01-7.038 1.258 1.5 1.5 0 00-1.53 1.462 1.493 1.493 0 001.6 1.5h.2a36.72 36.72 0 0010.202-2.35 26.429 26.429 0 007.548 2.04h.272a1.5 1.5 0 001.598-1.53 1.571 1.571 0 00-1.5-1.53 37.529 37.529 0 01-4.318-.816 19.246 19.246 0 001.6-1.156 3.078 3.078 0 001.328-2.312c0-1.224-1.122-2.176-3.026-2.176h-12.716a1.222 1.222 0 00-1.224 1.326 1.24 1.24 0 001.224 1.326zm8.772 0c.272 0 .408.068.408.17s-.068.17-.2.272a18.017 18.017 0 01-2.112 1.224 17.773 17.773 0 01-2.788-1.666zm36.278-11.73c2.346 0 3.842-.714 3.842-3.3v-4.794c0-2.244-1.122-3.3-3.842-3.3h-8.02c-2.72 0-3.842 1.054-3.842 3.3v4.794c0 2.244 1.122 3.3 3.842 3.3zm-7.582-2.72c-.578 0-.884-.068-.884-.714v-.986h8.908v.986c0 .544-.136.714-.884.714zm8.024-4.284h-8.908v-.918c0-.578.136-.748.884-.748h7.14c.748 0 .884.17.884.748zm1.36 11.73h2.72a1.429 1.429 0 001.394-1.53 1.411 1.411 0 00-1.394-1.53h-17.068a1.4 1.4 0 00-1.36 1.53 1.424 1.424 0 001.36 1.53h10.744v2.074h-12.036a1.394 1.394 0 00-1.36 1.5 1.394 1.394 0 001.36 1.5h12.036v4.9c0 .68-.17.85-.748.85a10.851 10.851 0 01-1.768-.2 1.157 1.157 0 00-.34-.034 1.611 1.611 0 00-1.562 1.684 1.646 1.646 0 001.36 1.632 13.032 13.032 0 002.754.272c2.754 0 3.91-1.054 3.91-3.672v-5.44h3.842a1.4 1.4 0 001.394-1.5 1.4 1.4 0 00-1.394-1.5h-3.844zm-22.236 13.19c0 .918.884 1.36 1.768 1.36s1.768-.44 1.768-1.36V45.453a1.348 1.348 0 00-.952-1.258 36.332 36.332 0 003.06-4.76 1.7 1.7 0 00.238-.85 1.777 1.777 0 00-1.87-1.632 1.625 1.625 0 00-1.53.884 34.481 34.481 0 01-6.086 8.194 1.948 1.948 0 00-.68 1.428 1.721 1.721 0 001.698 1.666 1.923 1.923 0 001.326-.578c.408-.408.85-.816 1.258-1.258zm12.58-7.174a1.8 1.8 0 00-1.224-.476 1.8 1.8 0 00-1.87 1.6 1.511 1.511 0 00.442 1.02c.476.51 1.02 1.122 1.632 1.9a1.663 1.663 0 001.36.714 1.868 1.868 0 001.87-1.768 1.762 1.762 0 00-.408-1.116 13.2 13.2 0 00-1.802-1.872zm-11.152-22.132a29.409 29.409 0 01-4.93 6.052 1.882 1.882 0 00-.684 1.394 1.824 1.824 0 001.768 1.768 1.877 1.877 0 001.258-.544 31.218 31.218 0 005.712-7.072 1.7 1.7 0 00.238-.85 1.811 1.811 0 00-1.9-1.6 1.692 1.692 0 00-1.462.852zm59.262-2.21a3.607 3.607 0 00-3.676 3.638 3.615 3.615 0 003.672 3.672 3.607 3.607 0 003.638-3.672 3.6 3.6 0 00-3.634-3.638zm0 1.7a1.916 1.916 0 011.938 1.938 1.945 1.945 0 01-1.938 1.972 1.973 1.973 0 01-1.976-1.972 1.945 1.945 0 011.976-1.938zm-24.106 4.964a1.783 1.783 0 00-1.8 1.87 1.935 1.935 0 001.972 2.006l16.388-.2c.986 0 1.428.238 1.428.884a2.748 2.748 0 01-.1.68c-1.772 6.082-6.022 11.522-13.536 15.432a2.029 2.029 0 00-1.19 1.8 1.98 1.98 0 001.968 2.008 2.459 2.459 0 001.122-.272c8.024-3.91 13.94-10.846 15.81-18.9a8.351 8.351 0 00.238-1.938c0-2.278-1.394-3.57-4.964-3.536zm39.3-2.38a1.707 1.707 0 00-1.662 1.832 1.707 1.707 0 001.666 1.836H570.8a1.713 1.713 0 001.7-1.836 1.713 1.713 0 00-1.7-1.836zm-3.362 7.582a1.686 1.686 0 00-1.666 1.836 1.72 1.72 0 001.734 1.836l17.2-.2c.748 0 1.088.17 1.088.578a2.182 2.182 0 01-.17.68c-1.7 4.488-5.814 8.33-11.764 10.71a1.988 1.988 0 00-1.39 1.832 1.994 1.994 0 001.972 1.972 2.7 2.7 0 00.85-.17c6.664-2.618 12.206-7.65 14.314-13.94a6.131 6.131 0 00.34-1.938c0-2.074-1.462-3.4-4.59-3.366zm38.114-6.05a2.472 2.472 0 00-1.36-.442 2.2 2.2 0 00-2.176 2.074 1.891 1.891 0 00.814 1.528 49.713 49.713 0 014.624 4.114 2.156 2.156 0 001.53.68 2.3 2.3 0 002.176-2.244 2.006 2.006 0 00-.612-1.462 30.53 30.53 0 00-4.996-4.248zm18.224 4.318c-4.08 7.274-11.458 13.156-19.176 16.082a1.835 1.835 0 00-1.326 1.8 2.073 2.073 0 002.04 2.074 2.4 2.4 0 00.916-.174 40.965 40.965 0 0021.014-17.88 2.373 2.373 0 00.34-1.088 1.977 1.977 0 00-2.074-1.87 1.935 1.935 0 00-1.734 1.054z" fill="#fff"/><g data-name="グループ 18442"><g data-name="グループ 18411"><g data-name="グループ 18393"><g data-name="グループ 18390"><g data-name="グループ 18389"><path data-name="パス 331342" d="M647.214 43.047c0 12.54 14.71 18.062 32.862 18.062s32.857-5.522 32.857-18.062h-65.72z" fill="#fff"/></g></g><g data-name="グループ 18392"><g data-name="グループ 18391"><path data-name="パス 331343" d="M680.076 63.159c-.378 0-.755.2-1.127.2s-.752-.065-1.124-.075-.752-.042-1.124-.056-.749-.122-1.12-.14-.741-.2-1.112-.222-.751-.013-1.12-.042-.745-.1-1.115-.139-.759.041-1.128 0-.776.139-1.145.092-.729-.229-1.1-.283-.725-.232-1.091-.294-.789.133-1.153.066-.736-.173-1.1-.248-.719-.244-1.081-.327-.772-.017-1.132-.109-.675-.4-1.03-.5-.732-.182-1.085-.292-.717-.236-1.067-.353-.655-.4-1-.529-.691-.291-1.033-.432-.823.013-1.161-.139-.577-.544-.908-.708-.816-.066-1.141-.244-.557-.553-.875-.743-.7-.3-1.01-.5-.676-.36-.975-.579-.388-.728-.675-.962-.66-.377-.932-.628-.474-.585-.733-.851-.718-.364-.959-.646-.334-.7-.554-1-.492-.572-.692-.887-.354-.66-.532-.989-.522-.584-.675-.926-.3-.7-.426-1.053.068-.807-.034-1.169-.415-.666-.489-1.034.106-.772.058-1.145-.418-.71-.441-1.087.14-.756.14-1.134a2.279 2.279 0 01.2-1.118 2.338 2.338 0 01.838-.785 2.3 2.3 0 011.1-.34c.566 0 .566-.066 1.133-.066s.565.158 1.132.158.566.112 1.133.112.566.1 1.133.1.565-.019 1.131-.019.565-.212 1.131-.212.566-.166 1.132-.166.565.084 1.131.084.565.307 1.131.307.568-.211 1.134-.211.566-.164 1.132-.164.568.067 1.133.067.566.237 1.132.237.566.019 1.132.019.565.058 1.132.058.566-.017 1.132-.017.566-.279 1.133-.279.566.215 1.133.215.565.027 1.133.027.565-.228 1.133-.228.565-.074 1.132-.074.566.3 1.132.3.566-.055 1.133-.055.566-.122 1.134-.122.565.027 1.132.027.566.03 1.133.03.566-.112 1.132-.112.568-.049 1.134-.049.566.162 1.133.162.566.147 1.133.147.566-.072 1.133-.072.566.049 1.133.049.568-.178 1.134-.178.568.038 1.133.038.568.156 1.133.156.568-.292 1.134-.292h1.133c.565 0 .568-.052 1.133-.052s.568.039 1.134.039.566.05 1.134.05.568.058 1.134.058.568.213 1.134.213.565-.089 1.132-.089.568.063 1.134.063.565-.346 1.133-.346.566.123 1.133.123.566.2 1.133.2.568-.179 1.134-.179.568.195 1.134.195.568-.205 1.134-.205.568-.064 1.135-.064.566.1 1.134.1.568.071 1.135.071.566.084 1.134.084.568-.117 1.134-.117.568.168 1.134.168.569.007 1.138.007.569-.267 1.136-.267a2.352 2.352 0 011.13.258 2.3 2.3 0 01.743.874 2.366 2.366 0 01.459 1.081c0 .378-.354.744-.378 1.115s.248.781.2 1.149-.191.74-.264 1.1-.112.755-.212 1.114-.464.641-.59.992-.153.742-.305 1.084-.487.587-.666.916-.2.74-.4 1.058-.572.5-.8.808-.24.755-.484 1.042-.617.446-.88.718-.522.521-.8.777-.525.523-.818.764-.572.472-.877.7-.462.647-.777.857-.663.357-.988.551-.781.132-1.114.313-.625.4-.964.572-.659.341-1 .5-.707.236-1.057.378-.718.2-1.073.331-.586.573-.945.694-.766.056-1.128.168-.661.4-1.025.5-.778-.022-1.145.071-.655.47-1.024.554-.764.009-1.134.085-.742.09-1.112.158-.7.311-1.076.373-.753.028-1.127.083-.763-.076-1.138-.028-.724.233-1.1.275-.741.115-1.117.15-.736.172-1.111.2-.76-.141-1.137-.117-.736.19-1.115.21-.756-.165-1.133-.152-.745-.016-1.124-.006-.743.259-1.12.262-.758-.211-1.134-.211zm-30.584-18.057c.064.378.29.791.386 1.148s.162.733.3 1.082a10.626 10.626 0 00.434 1.034 11.225 11.225 0 00.48 1.026c.2.317.3.725.529 1.021s.515.569.773.845.506.578.785.833.646.413.944.647.731.268 1.044.482.549.522.873.718.589.486.924.663.784.111 1.125.272.663.342 1.011.49.658.369 1.01.5.756.109 1.112.231.643.443 1 .555.728.192 1.092.292l1.088.3c.364.1.7.337 1.063.419s.735.186 1.1.26.8-.179 1.172-.113.7.38 1.071.438.793-.189 1.163-.138.723.311 1.091.358.767-.024 1.136.015.76 0 1.13.027.728.41 1.1.438c.385.028.772-.083 1.137-.062.386.024.76.14 1.124.156.391.018.778-.245 1.139-.234.4.011.768.205 1.12.21.409.007.786-.059 1.127-.059s.717.039 1.127.033c.352-.007.723-.213 1.12-.226.359-.011.733-.027 1.124-.046.364-.016.756.287 1.143.264.366-.022.725-.282 1.11-.311.367-.027.761.186 1.144.153s.709-.4 1.09-.443.761.092 1.139.047.728-.188 1.1-.242.744-.07 1.119-.13.729-.165 1.1-.231.724-.2 1.094-.275.766 0 1.135-.079.759-.06 1.125-.152.759-.09 1.12-.19.725-.227 1.084-.336.655-.43 1.011-.551.651-.4 1-.538.729-.195 1.074-.341.819-.023 1.158-.184.587-.522.916-.7.577-.5.9-.7.67-.337.978-.548.757-.246 1.05-.478.605-.468.881-.719.6-.488.854-.763.5-.585.732-.881.222-.767.425-1.085.574-.537.745-.874a11.066 11.066 0 00.486-1.031c.134-.348.035-.779.136-1.145a8.373 8.373 0 00.272-.927c-.532-.189-.511-.291-1.076-.291s-.564.055-1.13.055-.564.122-1.128.122-.565-.029-1.13-.029-.565-.028-1.131-.028-.565.112-1.132.112-.565.048-1.131.048-.566-.161-1.132-.161-.564-.147-1.13-.147-.565.072-1.131.072-.565-.049-1.131-.049-.565.179-1.13.179-.565-.039-1.131-.039-.565-.155-1.131-.155-.566.291-1.133.291h-1.131c-.566 0-.565.054-1.131.054s-.565-.04-1.13-.04-.566-.05-1.132-.05-.566-.058-1.133-.058-.565-.214-1.131-.214-.565.09-1.131.09-.565-.064-1.132-.064-.565.348-1.132.348-.565-.123-1.131-.123-.566-.2-1.133-.2-.564.179-1.131.179-.566-.195-1.133-.195-.564.205-1.132.205-.564.064-1.131.064-.565-.1-1.132-.1-.566-.071-1.132-.071-.566-.083-1.133-.083-.565.116-1.132.116-.565-.168-1.132-.168-.566-.007-1.132-.007-.566.267-1.133.267-.566.044-1.133.044-.564-.095-1.131-.095-.565.17-1.132.17-.565-.343-1.131-.343-.566.309-1.132.309-.566-.08-1.132-.08-.566.054-1.134.054-.564-.261-1.131-.261-.566.122-1.133.122-.566-.194-1.133-.194-.566.187-1.133.187-.566-.2-1.133-.2-.566.267-1.133.267-.566-.17-1.134-.17h-1.132a5.041 5.041 0 01-1.125.04c-.571-.085-.621-.194-1.156-.005z"/></g></g></g><g data-name="グループ 18398"><g data-name="グループ 18395"><g data-name="グループ 18394"><path data-name="パス 331344" d="M702.693 21.355a9.713 9.713 0 10-12.083-6.542 39.845 39.845 0 00-21.567.152 9.711 9.711 0 10-11.7 6.492 29.85 29.85 0 00-10.129 21.589h65.718a29.89 29.89 0 00-10.239-21.691z" fill="#ed8c00"/></g></g><g data-name="グループ 18397"><g data-name="グループ 18396"><path data-name="パス 331345" d="M712.934 44.982c-.566 0-.566.359-1.133.359s-.566-.048-1.133-.048-.566-.13-1.133-.13-.565.114-1.133.114-.564-.22-1.13-.22-.565.008-1.132.008-.565-.067-1.131-.067-.565-.025-1.131-.025-.566.049-1.132.049-.566.188-1.134.188-.565.128-1.132.128-.566-.272-1.133-.272-.566.28-1.132.28-.566.03-1.132.03-.565-.066-1.132-.066-.566-.011-1.132-.011-.565-.157-1.132-.157-.566-.14-1.133-.14-.566.287-1.134.287-.565-.025-1.132-.025-.566-.144-1.132-.144-.565.166-1.132.166-.566.085-1.133.085-.566-.278-1.134-.278-.566.1-1.133.1-.566.036-1.132.036-.566.025-1.133.025-.566-.166-1.133-.166-.566.149-1.133.149-.568-.139-1.134-.139-.566.165-1.133.165-.566-.187-1.133-.187-.566.011-1.133.011-.568.056-1.134.056-.565.063-1.133.063-.566.153-1.133.153-.568-.168-1.134-.168-.566.155-1.134.155-.566-.3-1.133-.3-.566-.05-1.134-.05-.566.272-1.133.272-.568-.294-1.135-.294-.565.374-1.131.374-.568-.136-1.134-.136-.568.139-1.133.139-.566-.137-1.135-.137-.565-.12-1.132-.12-.566.058-1.135.058-.566.083-1.133.083-.566-.072-1.134-.072-.566-.142-1.135-.142-.566.016-1.133.016-.568.067-1.135.067-.566-.038-1.134-.038-.568.137-1.134.137-.568-.008-1.135-.008-.568-.171-1.137-.171-.568-.063-1.135-.063a1.763 1.763 0 01-.975-.235 1.8 1.8 0 01-.709-.717c-.181-.313-.47-.582-.47-.971s.237-.758.255-1.143-.026-.763.007-1.147-.229-.8-.179-1.181.354-.724.419-1.1.1-.76.185-1.136.13-.757.225-1.131.326-.7.435-1.073.153-.753.277-1.118.187-.747.323-1.108.416-.658.564-1.013.056-.813.217-1.163.617-.554.79-.9-.024-.88.161-1.217.406-.661.6-.992.43-.645.637-.97.592-.531.809-.848.346-.7.576-1.006.462-.616.7-.918.585-.513.834-.806.292-.615.552-.9c-.315-.191-.429-.467-.721-.686s-.608-.413-.88-.659-.44-.588-.687-.857-.468-.548-.691-.841-.377-.611-.571-.922-.482-.556-.646-.884-.279-.669-.414-1.012-.275-.671-.376-1.026-.2-.7-.268-1.061-.271-.7-.305-1.07.244-.739.244-1.109c0-.391-.093-.771-.056-1.152s.185-.745.259-1.124.191-.733.3-1.1.158-.751.307-1.108.081-.822.264-1.161.6-.548.813-.87.206-.818.451-1.117.594-.528.869-.8.592-.512.89-.758.62-.473.941-.69.747-.252 1.088-.435.594-.546.953-.7.793-.068 1.166-.182.664-.531 1.049-.608.806.145 1.194.107.76-.033 1.151-.033.784-.149 1.167-.113.741.285 1.118.36.82-.076 1.188.035.717.326 1.074.474.758.231 1.1.414.566.568.888.783.813.218 1.111.463.351.773.625 1.046.783.339 1.028.638.506.613.723.936.161.813.345 1.155.415.653.565 1.012.351.7.465 1.07.25.742.326 1.125-.147.8-.108 1.188.1.752.1 1.143c0 .02.1-.162.1-.142.345-.072.725.064 1.075 0s.693-.145 1.046-.2.709-.034 1.062-.078.7-.14 1.05-.174.7-.131 1.057-.156.707-.1 1.062-.113.716.187 1.073.178.706-.191 1.062-.191c.384 0 .768.089 1.149.1s.76.194 1.141.213.77-.062 1.151-.032.755.145 1.135.186.777-.051 1.156 0 .755.142 1.131.2.777.116 1.152.189c0-.39 0-.8.039-1.177s.284-.734.359-1.111.046-.775.158-1.142a11.416 11.416 0 01.385-1.09 11.18 11.18 0 01.617-.978c.184-.341.345-.677.561-1s.474-.59.719-.889.495-.571.768-.843.514-.561.814-.806.457-.677.78-.892.809-.144 1.15-.326.647-.4 1.005-.549.668-.408 1.039-.521a11.573 11.573 0 011.136-.222c.376-.074.745-.213 1.134-.252s.769-.205 1.161-.205.758.4 1.14.44.825-.282 1.2-.206a11.752 11.752 0 011.111.389 11.462 11.462 0 011.079.443c.36.148.778.191 1.118.374s.626.484.946.7.7.376 1 .622.647.464.921.739.283.794.53 1.094.452.61.669.932a11.5 11.5 0 01.67.939 11.342 11.342 0 01.459 1.06c.148.356.514.638.627 1.011s.048.791.123 1.174.275.744.313 1.133-.044.782-.044 1.173-.246.766-.285 1.153.2.821.123 1.2-.279.744-.394 1.117-.145.789-.3 1.149-.258.763-.446 1.107-.453.66-.672.984-.426.679-.677.98-.767.361-1.045.637-.454.655-.759.9a11.351 11.351 0 01-.932.692c.252.271.524.5.767.782s.354.668.587.955.39.63.612.926.614.466.826.767.447.594.651.9.528.546.721.862.029.842.211 1.164.565.532.737.859.374.643.533.977.29.684.439 1.021.081.768.219 1.111.642.548.767.9.2.721.313 1.073.007.774.108 1.13.418.658.506 1.017-.176.8-.1 1.16.437.67.5 1.035.092.739.138 1.106.095.737.125 1.107.064.741.081 1.11.087.744.087 1.114c0 .389-.423.658-.6.971s-.3.669-.628.855a2.014 2.014 0 01-1.052.128zm-63.541-3.881c.537.182.63-.348 1.2-.348s.566.047 1.132.047.566.131 1.132.131.566-.114 1.133-.114.565.22 1.132.22.566-.008 1.134-.008.565.067 1.133.067.566.025 1.133.025.568-.048 1.134-.048.566-.189 1.132-.189.566-.126 1.133-.126.566.271 1.133.271.565-.28 1.133-.28.566-.03 1.133-.03.568.066 1.135.066.566.011 1.133.011.566.157 1.132.157.568.141 1.134.141.566-.288 1.133-.288.568.025 1.134.025.568.144 1.134.144.568-.165 1.133-.165.568-.087 1.134-.087.566.278 1.134.278.566-.1 1.134-.1.568-.035 1.134-.035.566-.026 1.133-.026.568.166 1.135.166.566-.15 1.134-.15.566.14 1.134.14.566-.165 1.134-.165.566.187 1.134.187.568-.011 1.134-.011.568-.056 1.135-.056.568-.062 1.134-.062.568-.155 1.135-.155.566.169 1.133.169.569-.155 1.135-.155.566.3 1.134.3.568.049 1.134.049.566-.271 1.134-.271.566.294 1.134.294.566-.374 1.133-.374.568.136 1.135.136.569-.139 1.135-.139.568.137 1.135.137.566.118 1.135.118.568-.057 1.135-.057.568-.084 1.135-.084.568.073 1.135.073.568.144 1.135.144.568-.017 1.136-.017.568-.067 1.136-.067.633.215 1.172.032c-.038-.374-.15-.85-.207-1.238s-.114-.75-.189-1.134.011-.785-.081-1.165-.128-.763-.235-1.138-.245-.731-.369-1.1-.246-.731-.383-1.094-.475-.636-.627-.994-.1-.8-.267-1.148-.4-.663-.579-1.006-.631-.524-.827-.859-.174-.785-.382-1.114-.447-.625-.668-.943-.473-.6-.707-.913-.362-.692-.609-.992-.548-.543-.807-.832-.563-.522-.833-.8-.433-.654-.715-.922-.74-.327-1.03-.584-.227-.731-.343-1.086-.545-.721-.463-1.1a2.542 2.542 0 01.6-1.069 2.449 2.449 0 011.043-.608 8.083 8.083 0 001.076-.186 7.915 7.915 0 00.887-.623 7.482 7.482 0 00.851-.649 7.8 7.8 0 00.853-.674c.233-.272.26-.7.454-1s.553-.509.7-.837a7.553 7.553 0 00.335-1.03 7.986 7.986 0 00.354-1.036 7.744 7.744 0 00.088-1.094 8.108 8.108 0 00-.025-1.107 7.7 7.7 0 00-.361-1.049 7.588 7.588 0 00-.352-1.036 4.92 4.92 0 00-2.091-2.461c-.271-.236-.389-.693-.693-.888a7.936 7.936 0 00-1.02-.432 7.586 7.586 0 00-1-.471 4.541 4.541 0 00-2.185-.255c-.367 0-.708.285-1.059.336s-.764-.114-1.107-.014-.574.512-.9.661a5.9 5.9 0 00-2.624 1.785c-.236.272-.607.454-.8.758a8.26 8.26 0 00-.329 1.057c-.148.326-.487.59-.589.939s.15.764.1 1.125-.354.685-.354 1.051a7.764 7.764 0 00.056 1.106 8.056 8.056 0 00.4 1.035 2.118 2.118 0 01-.162 1.108c-.092.365-.064.821-.337 1.1a3.069 3.069 0 01-2.219.594c-.358-.1-.662-.4-1.026-.495s-.788.111-1.153.033-.66-.5-1.029-.563-.785.2-1.156.149-.734-.081-1.107-.123-.708-.378-1.081-.41-.749.019-1.123 0-.747.041-1.122.03-.743.027-1.117.027c-.394 0-.79-.275-1.179-.263s-.786.074-1.174.1-.757.386-1.144.421-.8-.128-1.184-.081-.774.126-1.158.186-.785.059-1.167.131-.758.209-1.138.294-.745.243-1.12.343-.74.251-1.111.364a2.25 2.25 0 01-1.159-.181 2.179 2.179 0 01-1.078-.418 2.218 2.218 0 01-.5-1.06 2.062 2.062 0 01.2-1.1 127.522 127.522 0 01.327-2.323 7.811 7.811 0 00-.214-1.078 6 6 0 00-.584-2.08 7.644 7.644 0 00-.545-.936 8.3 8.3 0 00-.506-.988 8.188 8.188 0 00-.866-.687 7.716 7.716 0 00-.876-.646 7.5 7.5 0 00-3.016-1.28 7.883 7.883 0 00-1.108-.08 7.986 7.986 0 00-1.1.131c-.36.051-.662.375-1 .475s-.8-.06-1.13.089a7.836 7.836 0 00-.938.589 7.935 7.935 0 00-.788.767 7.662 7.662 0 00-.81.725 8 8 0 00-.584.916 7.618 7.618 0 00-.382 1.008c-.149.326-.637.532-.74.881s.193.78.141 1.14a7.223 7.223 0 00-.181 1.054 7.579 7.579 0 00.029 1.106 7.488 7.488 0 00.375 1.039 3.307 3.307 0 00.907 1.973 7.345 7.345 0 00.72.813c.246.275.272.775.557 1.012a7.864 7.864 0 00.91.671 7.96 7.96 0 001.043.433 7.824 7.824 0 001.05.394c.382.1.85.1 1.116.367a2.329 2.329 0 01.43 1.1 1.628 1.628 0 01-.621 2.106c-.287.255-.725.35-1 .612s-.333.753-.595 1.026-.6.487-.851.77-.413.654-.651.947-.41.645-.638.947-.5.577-.714.888-.383.658-.586.979-.693.475-.881.8-.229.751-.4 1.086-.334.69-.5 1.031-.284.711-.431 1.06-.447.649-.58 1-.348.7-.467 1.055-.03.8-.132 1.159-.177.748-.264 1.112-.027.776-.1 1.144-.541.687-.6 1.058.035.986-.004 1.356z"/></g></g></g><g data-name="グループ 18401"><g data-name="グループ 18400"><g data-name="グループ 18399"><path data-name="パス 331346" d="M662.276 14.161a.784.784 0 01-.236.577.8.8 0 01-.576.258c-.282 0-.282.019-.561.019s-.282.05-.563.05-.282-.055-.562-.055-.282.049-.564.049-.282-.095-.563-.095-.283-.015-.564-.015a.643.643 0 01-.782-.789c0-.28-.117-.28-.117-.561s.042-.282.042-.563-.044-.28-.044-.562.043-.28.043-.562.039-.281.039-.564-.018-.281-.018-.563a.788.788 0 01.838-.842c.282 0 .282.046.562.046s.282-.006.563-.006.28-.021.561-.021.283.011.564.011.28-.043.563-.043h.564a.811.811 0 01.564.288.742.742 0 01.213.564c0 .28.008.28.008.562v.562c0 .282.067.28.067.561s-.074.283-.074.563.033.282.023.562.01.285.01.569z"/></g></g></g><g data-name="グループ 18410"><g data-name="グループ 18406"><g data-name="グループ 18403"><g data-name="グループ 18402"><path data-name="パス 331347" d="M702.81 14.161a.87.87 0 01-.148.634.934.934 0 01-.633.247c-.281 0-.281-.041-.562-.041s-.282.036-.563.036-.282-.071-.562-.071h-.563c-.281 0-.282-.022-.564-.022s-.283-.009-.564-.009a.736.736 0 01-.562-.218.807.807 0 01-.293-.561c0-.28-.04-.28-.04-.561s.085-.282.085-.563-.089-.28-.089-.562-.009-.28-.009-.562.021-.281.021-.564v-.563a.87.87 0 01.3-.588.786.786 0 01.588-.2c.28 0 .28-.092.562-.092s.28.009.562.009.282.046.563.046.282-.054.563-.054.282-.027.563-.027.283.089.565.089a.831.831 0 01.6.217.863.863 0 01.26.6c0 .28.008.28.008.562s-.054.28-.054.562.049.28.049.561-.046.283-.046.563.074.285.054.566a5.12 5.12 0 00-.091.566z"/></g></g><g data-name="グループ 18405"><g data-name="グループ 18404"><path data-name="パス 331348" d="M702.81 14.161a.87.87 0 01-.148.634.934.934 0 01-.633.247c-.281 0-.281-.041-.562-.041s-.282.036-.563.036-.282-.071-.562-.071h-.563c-.281 0-.282-.022-.564-.022s-.283-.009-.564-.009a.736.736 0 01-.562-.218.807.807 0 01-.293-.561c0-.28-.04-.28-.04-.561s.085-.282.085-.563-.089-.28-.089-.562-.009-.28-.009-.562.021-.281.021-.564v-.563a.87.87 0 01.3-.588.786.786 0 01.588-.2c.28 0 .28-.092.562-.092s.28.009.562.009.282.046.563.046.282-.054.563-.054.282-.027.563-.027.283.089.565.089a.831.831 0 01.6.217.863.863 0 01.26.6c0 .28.008.28.008.562s-.054.28-.054.562.049.28.049.561-.046.283-.046.563.074.285.054.566a5.12 5.12 0 00-.091.566z"/></g></g></g><g data-name="グループ 18409"><g data-name="グループ 18408"><g data-name="グループ 18407"><path data-name="パス 331349" d="M702.81 14.161a.87.87 0 01-.148.634.934.934 0 01-.633.247c-.281 0-.281-.041-.562-.041s-.282.036-.563.036-.282-.071-.562-.071h-.563c-.281 0-.282-.022-.564-.022s-.283-.009-.564-.009a.736.736 0 01-.562-.218.807.807 0 01-.293-.561c0-.28-.04-.28-.04-.561s.085-.282.085-.563-.089-.28-.089-.562-.009-.28-.009-.562.021-.281.021-.564v-.563a.87.87 0 01.3-.588.786.786 0 01.588-.2c.28 0 .28-.092.562-.092s.28.009.562.009.282.046.563.046.282-.054.563-.054.282-.027.563-.027.283.089.565.089a.831.831 0 01.6.217.863.863 0 01.26.6c0 .28.008.28.008.562s-.054.28-.054.562.049.28.049.561-.046.283-.046.563.074.285.054.566a5.12 5.12 0 00-.091.566z"/></g></g></g></g></g><g data-name="グループ 18441"><g data-name="グループ 18440"><g data-name="グループ 18416"><g data-name="グループ 18413"><g data-name="グループ 18412"><path data-name="パス 331350" d="M300.805 35.798c0 14.978-14.669 25.285-32.766 25.285s-32.767-10.307-32.767-25.285 8.266-33.486 32.767-33.486 32.766 18.509 32.766 33.486z" fill="#fff"/></g></g><g data-name="グループ 18415"><g data-name="グループ 18414"><path data-name="パス 331351" d="M268.039 63.179c-.378 0-.759.191-1.135.182s-.757-.047-1.132-.065-.748-.178-1.124-.2-.736-.225-1.11-.259-.748-.078-1.12-.122-.786.2-1.158.144-.737-.181-1.108-.243-.769 0-1.139-.07-.726-.235-1.092-.316-.692-.356-1.057-.446-.71-.256-1.071-.356-.782-.011-1.141-.121-.753-.131-1.109-.251-.729-.214-1.082-.343-.651-.419-1-.559-.75-.169-1.093-.319-.7-.3-1.036-.462-.688-.324-1.022-.495-.586-.509-.914-.691-.77-.18-1.093-.373-.564-.529-.879-.733-.5-.605-.808-.819-.748-.247-1.049-.473-.524-.539-.81-.771-.549-.5-.829-.742-.5-.549-.767-.8-.755-.293-1.012-.556-.581-.486-.829-.76-.449-.606-.685-.889-.362-.667-.587-.962-.588-.5-.8-.8-.264-.721-.462-1.035-.4-.626-.584-.948-.357-.653-.524-.983-.377-.646-.529-.984-.256-.7-.392-1.046-.342-.668-.462-1.019-.22-.715-.323-1.071.01-.769-.076-1.131-.286-.694-.353-1.06-.217-.718-.268-1.086-.121-.737-.155-1.108.215-.758.2-1.13-.287-.733-.287-1.106.092-.747.1-1.152c.01-.367-.158-.761-.138-1.16.021-.37.429-.728.46-1.124.031-.372-.138-.77-.1-1.163.04-.373.278-.729.331-1.119.049-.372 0-.764.064-1.151.059-.372.043-.764.116-1.148s.077-.763.16-1.143.443-.679.537-1.057.137-.749.239-1.124-.07-.816.046-1.188.4-.675.527-1.041.308-.7.445-1.062.164-.757.312-1.115.489-.619.65-.972.023-.835.193-1.182.612-.547.8-.888.163-.783.357-1.118.547-.564.752-.892.27-.737.488-1.058.523-.568.752-.881.543-.545.783-.849.31-.729.556-1.019.4-.672.654-.952.615-.473.884-.743.611-.465.889-.724.594-.475.883-.724.564-.507.862-.744.6-.462.911-.686.662-.373.978-.587.474-.667.8-.868.654-.4.985-.588.794-.135 1.132-.311.691-.308 1.035-.472.636-.429.987-.581.649-.421 1-.561.774-.1 1.135-.223.645-.462 1.01-.578.71-.294 1.078-.4.8.039 1.169-.054.687-.407 1.061-.488.809.174 1.187.1.741-.153 1.118-.211.716-.366 1.1-.414.75-.142 1.132-.181.768.031 1.15 0 .769.153 1.152.135.751-.184 1.135-.194.76-.152 1.144-.152.764.173 1.141.182.757.165 1.135.185.77-.115 1.148-.087.764.046 1.139.083.777-.032 1.152.016.706.456 1.079.513.819-.267 1.192-.2.683.483 1.053.562.813-.128 1.18-.036.737.219 1.1.321.737.209 1.1.323.7.332 1.054.458.665.392 1.017.531.735.211 1.083.362.736.223 1.079.386.751.213 1.086.389.563.564.894.752.57.523.892.724.717.286 1.031.5.61.452.916.677.78.237 1.076.474.537.554.825.8.422.669.7.929.675.394.944.664.539.54.8.821.351.7.6.994.631.462.868.761.407.66.633.968.4.66.61.976.435.634.638.957.305.71.5 1.039.675.5.854.841.166.783.335 1.126.352.684.509 1.031.378.676.524 1.028.37.684.506 1.041.278.723.4 1.083-.051.827.062 1.191.256.724.358 1.09.275.723.367 1.092.1.767.182 1.139.353.716.423 1.088.132.764.193 1.136.153.762.2 1.135c.051.39.085.774.127 1.147.041.392.072.776.1 1.149.032.394.177.774.2 1.144.021.4.023.788.033 1.155.011.4-.225.792-.225 1.153s.146.747.128 1.116-.276.725-.309 1.093.113.758.06 1.125-.21.717-.278 1.082-.075.741-.161 1.1-.219.709-.321 1.066-.248.7-.369 1.049-.146.735-.283 1.081-.356.653-.509.993-.274.688-.443 1.02-.39.63-.573.954-.177.76-.374 1.075-.358.662-.569.969-.751.372-.977.669-.323.684-.558.972-.4.631-.653.91-.517.532-.778.8-.554.495-.826.751-.416.65-.7.895-.607.438-.9.672-.6.44-.9.666-.719.289-1.029.506-.592.466-.908.671-.539.562-.864.757-.818.084-1.149.268-.627.414-.963.586-.6.471-.947.633-.617.47-.963.621-.83-.032-1.18.109-.62.479-.976.609-.788.022-1.145.142-.641.461-1 .571-.756.093-1.119.194-.734.16-1.1.251-.665.466-1.034.547-.793-.107-1.164-.035-.712.286-1.085.349-.765-.018-1.139.034-.75.051-1.125.1-.747.07-1.123.1-.729.311-1.107.336-.755.016-1.133.033-.752.1-1.131.106-.754-.155-1.131-.155zm0-58.771c-.38 0-.75.2-1.122.211s-.75 0-1.12.017-.759-.095-1.128-.065-.769-.1-1.137-.062-.755.084-1.12.136-.7.4-1.068.462-.753.064-1.117.139-.7.287-1.065.375-.749.1-1.106.2-.78.025-1.133.138-.744.17-1.093.3-.635.455-.979.595-.651.382-.988.537-.661.348-.992.515-.741.2-1.066.384-.584.483-.9.679-.626.407-.933.617-.606.431-.9.654-.706.312-.994.548-.429.647-.708.9-.659.386-.925.647-.7.37-.954.642-.341.708-.586.99-.569.5-.8.8-.489.574-.709.878-.5.57-.712.88-.146.8-.341 1.117-.31.679-.492 1.006-.414.621-.584.954-.457.608-.615.947-.147.75-.293 1.1-.456.62-.589.97-.247.707-.37 1.06-.239.709-.351 1.067-.161.733-.261 1.093-.234.712-.321 1.076-.089.747-.164 1.112-.158.731-.223 1.1-.335.707-.389 1.076.022.761-.021 1.133.009.752-.024 1.125-.032.747-.052 1.119-.313.737-.325 1.11.246.755.246 1.128-.079.764-.057 1.142.236.742.279 1.119-.286.812-.22 1.187.34.716.426 1.085 0 .8.106 1.16.328.7.459 1.061.35.683.5 1.033.376.663.548 1 .106.813.3 1.143.441.633.653.953.668.46.9.769.319.711.565 1.006.45.62.71.9.61.471.884.74.408.682.693.938.786.251 1.085.495.408.711.715.943.732.247 1.036.458.511.564.824.762.715.243 1.036.43.587.457.914.631.606.439.939.6.758.123 1.1.275.727.163 1.069.3.635.389.982.517.659.343 1.01.46.685.279 1.041.386.715.186 1.073.283.711.195 1.071.28.7.252 1.065.327.778-.141 1.143-.075.721.125 1.088.181.691.375 1.059.422.729.129 1.1.165.747-.049 1.116-.022.743-.085 1.114-.067.729.221 1.1.229.739-.213 1.11-.213.735-.077 1.1-.087.747.225 1.114.207.723-.276 1.088-.3.766.274 1.133.237.736-.1 1.1-.146.7-.351 1.06-.407.718-.169 1.079-.235.743-.035 1.1-.112.768.041 1.126-.046.68-.325 1.036-.421.671-.332 1.024-.439.756-.057 1.1-.174.75-.106 1.1-.234.635-.409.976-.548.677-.3 1.012-.448.621-.408.952-.57.826-.014 1.15-.186.457-.7.774-.886.815-.082 1.125-.278.455-.654.758-.863.617-.4.911-.619.6-.467.894-.708.65-.414.931-.667.662-.416.932-.682.484-.6.743-.879.439-.633.679-.924.368-.676.595-.98.635-.482.843-.8.556-.563.747-.891.253-.741.425-1.079.359-.679.511-1.028.033-.8.164-1.164.334-.682.442-1.047.423-.677.511-1.049-.014-.781.05-1.158.108-.75.153-1.13.284-.742.305-1.125-.158-.767-.158-1.151.078-.749.066-1.125.036-.752.015-1.127-.059-.748-.091-1.123.042-.76 0-1.133-.424-.7-.478-1.071.1-.774.036-1.143-.155-.735-.231-1.1-.228-.717-.316-1.082-.264-.7-.365-1.066-.212-.715-.323-1.073.07-.812-.054-1.166-.287-.7-.421-1.05-.348-.672-.494-1.017-.229-.725-.386-1.063-.5-.59-.672-.925-.342-.664-.525-.992-.4-.63-.6-.951-.388-.638-.6-.949-.416-.62-.636-.924-.539-.524-.773-.818-.457-.585-.7-.868-.317-.72-.574-.994-.628-.432-.9-.693-.383-.688-.665-.939-.69-.349-.98-.586-.524-.547-.825-.773-.647-.382-.96-.594-.6-.448-.92-.646-.625-.418-.953-.6-.707-.264-1.044-.435-.633-.406-.976-.562-.7-.266-1.05-.408-.675-.327-1.029-.455-.776-.031-1.135-.146-.724-.163-1.087-.264-.62-.579-.987-.668-.766-.009-1.137-.085-.748-.046-1.122-.111-.731-.139-1.1-.191-.733-.139-1.109-.181-.757.117-1.134.088-.734-.117-1.114-.137-.741-.063-1.119-.072-.752-.179-1.129-.179z"/></g></g></g><g data-name="グループ 18419"><g data-name="グループ 18418"><g data-name="グループ 18417"><path data-name="パス 331352" d="M250.289 34.81a.842.842 0 01-.843.847c-.282 0-.282.017-.562.017s-.283-.014-.563-.014-.28.025-.562.025h-.563c-.281 0-.282-.068-.564-.068s-.282.041-.563.041a.872.872 0 01-.617-.228.9.9 0 01-.267-.617c0-.282.089-.282.089-.562s-.083-.282-.083-.563.027-.28.027-.561-.059-.282-.059-.563.124-.282.124-.564-.066-.281-.066-.563a.793.793 0 01.3-.557.768.768 0 01.556-.266c.279 0 .279-.025.562-.025s.28-.023.562-.023.28.09.562.09.282-.016.563-.016.282-.093.563-.093.283.057.565.057a.8.8 0 01.574.258.822.822 0 01.277.576c0 .28-.066.28-.066.561s.106.282.106.563-.1.28-.1.561.074.282.074.563-.058.282-.058.564.032.278.032.56z"/></g></g></g><g data-name="グループ 18428"><g data-name="グループ 18424"><g data-name="グループ 18421"><g data-name="グループ 18420"><path data-name="パス 331353" d="M290.843 34.81a.9.9 0 01-.2.631.939.939 0 01-.634.255c-.279 0-.279-.044-.562-.044s-.28-.054-.562-.054h-.562c-.282 0-.282.092-.563.092s-.282-.023-.565-.023-.282.043-.563.043a.927.927 0 01-.618-.284.849.849 0 01-.195-.617c0-.282.023-.282.023-.562s-.064-.282-.064-.563-.033-.28-.033-.561-.011-.282-.011-.563.052-.282.052-.564-.041-.281-.041-.563a.889.889 0 01.887-.892c.282 0 .282.057.562.057s.282-.071.562-.071.282.051.563.051.282.073.563.073.282-.073.564-.073.28.034.563.034a.789.789 0 01.573.248.764.764 0 01.212.572c0 .28.1.28.1.561s.026.282.026.563-.019.28-.019.561-.044.282-.044.563.062.282.056.564-.07.283-.07.566z"/></g></g><g data-name="グループ 18423"><g data-name="グループ 18422"><path data-name="パス 331354" d="M290.843 34.81a.9.9 0 01-.2.631.939.939 0 01-.634.255c-.279 0-.279-.044-.562-.044s-.28-.054-.562-.054h-.562c-.282 0-.282.092-.563.092s-.282-.023-.565-.023-.282.043-.563.043a.927.927 0 01-.618-.284.849.849 0 01-.195-.617c0-.282.023-.282.023-.562s-.064-.282-.064-.563-.033-.28-.033-.561-.011-.282-.011-.563.052-.282.052-.564-.041-.281-.041-.563a.889.889 0 01.887-.892c.282 0 .282.057.562.057s.282-.071.562-.071.282.051.563.051.282.073.563.073.282-.073.564-.073.28.034.563.034a.789.789 0 01.573.248.764.764 0 01.212.572c0 .28.1.28.1.561s.026.282.026.563-.019.28-.019.561-.044.282-.044.563.062.282.056.564-.07.283-.07.566z"/></g></g></g><g data-name="グループ 18427"><g data-name="グループ 18426"><g data-name="グループ 18425"><path data-name="パス 331355" d="M290.843 34.81a.9.9 0 01-.2.631.939.939 0 01-.634.255c-.279 0-.279-.044-.562-.044s-.28-.054-.562-.054h-.562c-.282 0-.282.092-.563.092s-.282-.023-.565-.023-.282.043-.563.043a.927.927 0 01-.618-.284.849.849 0 01-.195-.617c0-.282.023-.282.023-.562s-.064-.282-.064-.563-.033-.28-.033-.561-.011-.282-.011-.563.052-.282.052-.564-.041-.281-.041-.563a.889.889 0 01.887-.892c.282 0 .282.057.562.057s.282-.071.562-.071.282.051.563.051.282.073.563.073.282-.073.564-.073.28.034.563.034a.789.789 0 01.573.248.764.764 0 01.212.572c0 .28.1.28.1.561s.026.282.026.563-.019.28-.019.561-.044.282-.044.563.062.282.056.564-.07.283-.07.566z"/></g></g></g></g><g data-name="グループ 18439"><g data-name="グループ 18433"><g data-name="グループ 18430"><g data-name="グループ 18429"><path data-name="パス 331356" d="M278.068 38.982c0 2.231-4.491 4.037-10.029 4.037s-10.031-1.807-10.031-4.037 4.492-4.036 10.031-4.036 10.029 1.807 10.029 4.036z" fill="#ed8c00"/></g></g><g data-name="グループ 18432"><g data-name="グループ 18431"><path data-name="パス 331357" d="M268.039 44.969c-.382 0-.757-.011-1.141-.029s-.781.254-1.161.221-.745-.261-1.122-.311-.734-.241-1.107-.309-.781 0-1.148-.084-.815.032-1.174-.08-.7-.369-1.045-.507c-.366-.146-.751-.247-1.082-.416a9.187 9.187 0 01-.939-.682 6.87 6.87 0 01-.88-.736 4.864 4.864 0 01-.63-.946 3.852 3.852 0 01-.476-1.005 3.8 3.8 0 01-.16-1.1 4.059 4.059 0 01.036-1.14 4.346 4.346 0 01.346-1.132 5.651 5.651 0 01.831-.838 7.116 7.116 0 01.94-.672 9.808 9.808 0 011.044-.472c.331-.17.68-.293 1.045-.438.348-.139.662-.373 1.035-.489s.678-.407 1.057-.5.76-.119 1.141-.188.775.006 1.157-.046.763-.017 1.147-.051.753-.181 1.135-.2.768.109 1.15.109.755.081 1.139.1.758.021 1.137.052.755.095 1.132.145.8-.174 1.176-.1.733.268 1.1.357.791.048 1.15.16.773.174 1.12.313c.365.146.586.595.916.765a9.817 9.817 0 011.052.467 6.345 6.345 0 01.783.838 4.877 4.877 0 01.711.861c.207.325.54.584.649.951a4.093 4.093 0 01.128 1.151 3.85 3.85 0 01-.294 1.1 4.011 4.011 0 01-.386 1.063 5.1 5.1 0 01-.65.96 7.618 7.618 0 01-1 .6 9.163 9.163 0 01-1.006.524 11.159 11.159 0 01-1.02.5c-.346.139-.687.305-1.061.422-.358.112-.737.155-1.116.247s-.72.25-1.1.319-.747.15-1.128.2-.769-.038-1.152 0-.744.369-1.126.385-.772-.339-1.153-.339zm-6.928-5.177c.3.147.778.115 1.2.256a10.9 10.9 0 001.07.411c.354.085.719.3 1.13.362.364.062.778-.039 1.187 0 .37.039.775-.165 1.181-.146.375.018.756.158 1.161.158s.789-.077 1.163-.1c.407-.021.8.055 1.171.015.408-.041.8-.08 1.16-.14.409-.068.818-.036 1.173-.121.411-.1.792-.226 1.128-.339a9.3 9.3 0 001.094-.447c.474-.23.349-.972-.127-1.2a7.424 7.424 0 00-1.026-.535c-.336-.113-.687-.29-1.1-.389-.353-.087-.713-.292-1.124-.36-.364-.06-.753-.146-1.161-.188-.37-.039-.775.046-1.18.025-.375-.018-.767.172-1.172.172s-.79-.043-1.165-.025c-.407.021-.8-.085-1.175-.047-.407.042-.807.023-1.172.083-.41.068-.77.269-1.125.354-.411.1-.829.081-1.165.194a10.966 10.966 0 00-1.127.378 1.1 1.1 0 00.002 1.629z"/></g></g></g><g data-name="グループ 18438"><g data-name="グループ 18435"><g data-name="グループ 18434"><path data-name="パス 331358" d="M278.067 47.057c0 2.227-4.491 4.039-10.029 4.039s-10.031-1.812-10.031-4.039 4.492-4.038 10.031-4.038 10.029 1.808 10.029 4.038z" fill="#ed8c00"/></g></g><g data-name="グループ 18437"><g data-name="グループ 18436"><path data-name="パス 331359" d="M268.039 53.229c-.382 0-.768.055-1.151.039s-.76-.116-1.142-.149-.763-.08-1.14-.13-.77-.051-1.144-.12-.774-.087-1.14-.176-.74-.244-1.1-.357-.718-.3-1.065-.434c-.366-.146-.77-.2-1.1-.367-.351-.181-.54-.609-.845-.819-.327-.225-.831-.219-1.094-.478a5.13 5.13 0 01-.617-1 4.2 4.2 0 01-.539-1.025 61.009 61.009 0 01.022-2.3 4.17 4.17 0 01.53-1.025 5.078 5.078 0 01.638-.973c.263-.259.759-.251 1.086-.475.3-.211.491-.627.843-.808.329-.171.785-.08 1.15-.226.348-.138.68-.3 1.054-.419.358-.112.729-.165 1.108-.256s.684-.416 1.066-.486.781.072 1.163.02.749-.121 1.132-.154.76 0 1.142-.014.76-.3 1.142-.3.772-.1 1.155-.084.77.08 1.152.113.756.185 1.134.236.717.364 1.09.431.813-.13 1.18-.041.728.276 1.086.388.772.155 1.118.293c.365.146.706.342 1.035.513a8.682 8.682 0 01.912.707 6.822 6.822 0 01.922.671 4.917 4.917 0 01.715.887 4.664 4.664 0 01.8 2.154c0 .4-.357.726-.463 1.083a3.947 3.947 0 01-.324 1.082 5.222 5.222 0 01-.586 1.022 7.61 7.61 0 01-1.017.592 8.674 8.674 0 01-.926.7c-.331.171-.662.406-1.027.552-.349.139-.841-.107-1.214.009s-.69.326-1.067.417-.752.09-1.133.16-.7.452-1.084.5-.791-.2-1.174-.165-.751.248-1.132.264-.771-.052-1.151-.052zm-6.817-5.587a2.58 2.58 0 001.05.507c.336.114.711.227 1.124.327.353.084.747.1 1.156.172.365.06.755.048 1.163.091.37.039.751.12 1.157.14.375.018.763.083 1.168.083s.788-.131 1.161-.149c.408-.019.817.221 1.189.182.407-.042.75-.415 1.114-.475.41-.068.817.011 1.172-.074.413-.1.8-.234 1.134-.348.421-.142.883-.116 1.184-.262.474-.232.407-1.315-.067-1.547a10.75 10.75 0 00-1.1-.357 11.465 11.465 0 00-1.1-.464c-.354-.085-.793.093-1.2.025-.366-.059-.719-.382-1.127-.424-.37-.039-.772-.023-1.18-.043-.374-.019-.77-.076-1.175-.076s-.793.263-1.168.283c-.406.019-.813-.152-1.183-.114-.408.043-.8.127-1.164.187-.408.068-.814.089-1.167.174-.413.1-.849.313-1.185.426a1.94 1.94 0 00-.888.7c-.32.387-.367.715-.068 1.036z"/></g></g></g></g></g></g></g></g></svg>