<svg xmlns="http://www.w3.org/2000/svg" width="635" height="96.504"><g data-name="グループ 18907"><path data-name="パス 331749" d="M68.823 35.945c2.142-1.938 3.808-3.434 6.63-6.392 3.06-3.23 4.148-5.338 4.148-8.466 0-4.352-2.72-7.276-7.582-7.276a10.682 10.682 0 00-7.106 2.992 1.77 1.77 0 00-.68 1.394 1.876 1.876 0 001.972 1.9 1.874 1.874 0 001.292-.578 6.55 6.55 0 014.556-2.206c2.142 0 3.468 1.292 3.468 3.842 0 1.972-.918 3.74-3.026 6.222a72.881 72.881 0 01-7.65 7.582 2.825 2.825 0 00-1.054 2.312 1.994 1.994 0 002.006 2.176h12.546a1.611 1.611 0 001.8-1.734 1.635 1.635 0 00-1.8-1.768zm23.97-14.144a2.059 2.059 0 00-1.394 1.87 1.872 1.872 0 001.9 1.87 2.694 2.694 0 00.986-.2c6.086-2.686 11.492-4.046 15.742-4.046 4.216 0 6.188 2.244 6.188 4.862 0 4.488-2.788 7.242-10.744 8.6a1.906 1.906 0 00-1.7 1.87 1.857 1.857 0 001.87 1.938 1.655 1.655 0 00.412-.036c9.35-1.326 14.178-5.882 14.178-12.376 0-5.2-4.114-8.466-10.2-8.466-4.896 0-11.118 1.466-17.238 4.114zm39.134 15.64c2.618 0 4.624-.986 6.494-4.284a34.019 34.019 0 003.842-14.45c5.168.374 8.194 4.046 8.194 8.5 0 4.216-1.938 7.14-6.766 8.874a1.958 1.958 0 00-1.428 1.872 1.907 1.907 0 001.9 1.938 2.231 2.231 0 00.79-.138c5.848-1.87 9.486-6.392 9.486-12.546 0-6.766-4.794-11.968-13.09-11.968-9.35 0-15.776 6.358-15.776 14.11-.004 5.304 2.886 8.092 6.354 8.092zm6.358-18.5a30.754 30.754 0 01-3.4 12.41c-.986 1.734-1.9 2.278-2.958 2.278-1.224 0-2.448-1.156-2.448-4.284a10.77 10.77 0 018.806-10.4zm31.484 8.84v-2.686h5.848a1.481 1.481 0 001.394-1.632 1.469 1.469 0 00-1.394-1.6h-5.848v-2.822h4.522a1.414 1.414 0 001.36-1.564 1.4 1.4 0 00-1.36-1.53h-4.522v-3.57a1.578 1.578 0 00-1.768-1.5 1.578 1.578 0 00-1.768 1.5v3.57h-1.8a13.592 13.592 0 00.578-1.632 1.886 1.886 0 00.1-.578 1.621 1.621 0 00-1.734-1.564 1.615 1.615 0 00-1.6 1.122 28.361 28.361 0 01-2.482 5.474 2.167 2.167 0 00-.306 1.02 1.608 1.608 0 001.7 1.53 1.853 1.853 0 001.632-.986c.238-.408.476-.816.714-1.292h3.2v2.822h-6.664a1.443 1.443 0 00-1.36 1.6 1.455 1.455 0 001.36 1.632h6.664v2.686h-2.244c-2.89 0-3.91.918-3.91 3.5v7.208c0 .918.884 1.394 1.768 1.394a1.555 1.555 0 001.734-1.394v-6.76c0-.646.2-.85.884-.85h1.768v10.506a1.6 1.6 0 001.768 1.5 1.6 1.6 0 001.768-1.5V30.879h1.87c.68 0 .884.2.884.85v3.91c0 .408-.136.544-.408.544a2.936 2.936 0 01-.51-.034h-.17a1.435 1.435 0 00-1.36 1.564 1.462 1.462 0 001.326 1.564c.476.034.884.068 1.428.068 1.9 0 3.128-.782 3.128-3.468v-4.59c0-2.584-1.02-3.5-3.876-3.5zm18.632-14.654a1.63 1.63 0 00-1.8-1.5 1.642 1.642 0 00-1.836 1.5v24.382c0 .918-.306 1.088-.748 1.088a8.136 8.136 0 01-1.53-.136 1.049 1.049 0 00-.306-.034 1.668 1.668 0 00-1.668 1.768 1.7 1.7 0 001.394 1.734 13.205 13.205 0 002.38.2c3.026 0 4.114-1.19 4.114-4.012zm-9.758 20.438a1.608 1.608 0 001.8 1.462 1.6 1.6 0 001.768-1.462V15.239a1.6 1.6 0 00-1.768-1.5 1.611 1.611 0 00-1.8 1.5zm23.154-3.706a1.347 1.347 0 00-1.258 1.462 1.359 1.359 0 001.258 1.5h1.938a24.708 24.708 0 004.352 4.284 32.012 32.012 0 01-8.092 2.04 1.611 1.611 0 00-1.53 1.6 1.705 1.705 0 001.768 1.728c.1 0 .2-.034.306-.034a33.588 33.588 0 0010.814-3.298 29.33 29.33 0 009.622 3.026 1.275 1.275 0 00.34.034 1.7 1.7 0 001.732-1.768 1.639 1.639 0 00-1.428-1.666 32.611 32.611 0 01-6.8-1.7 18.048 18.048 0 002.55-2.21 3.56 3.56 0 001.156-2.448c0-1.394-1.224-2.55-3.672-2.55zm11.9 2.958c.408 0 .646.1.646.272 0 .136-.1.272-.306.442a19.17 19.17 0 01-2.618 1.9 19.417 19.417 0 01-3.366-2.614zm-9.316-9.656v1.7c0 2.414 1.02 3.23 3.74 3.23h4.932c2.72 0 3.74-.816 3.74-3.23v-1.7h4.624a1.351 1.351 0 001.292-1.462 1.333 1.333 0 00-1.292-1.462h-4.624v-1.02c0-.952-.85-1.394-1.7-1.394s-1.7.442-1.7 1.394v1.02h-5.61v-1.02c0-.952-.85-1.394-1.7-1.394s-1.7.442-1.7 1.394v1.02h-3.74a1.328 1.328 0 00-1.258 1.462 1.347 1.347 0 001.258 1.462zm3.4 0h5.61v1.224c0 .748-.1.918-.884.918h-3.808c-.782 0-.918-.17-.918-.918zm-.85-9.01h-7.378c-3.366 0-4.658 1.292-4.658 4.012v5.542c0 6.256-1.02 10.778-2.856 14.586a2.311 2.311 0 00-.238.986 1.662 1.662 0 001.734 1.666 2.057 2.057 0 001.836-1.258c2.074-4.216 3.162-9.214 3.162-15.708v-5.134c0-1.19.408-1.6 1.938-1.6h21.25a1.409 1.409 0 001.326-1.564 1.4 1.4 0 00-1.326-1.53h-11.186v-2.21c0-.918-.884-1.36-1.8-1.36-.884 0-1.8.442-1.8 1.36zm30.736 4.42a1.368 1.368 0 00-1.326 1.5 1.368 1.368 0 001.326 1.5h2.856v5.032h-3.978a1.379 1.379 0 00-1.326 1.53 1.4 1.4 0 001.326 1.53h3.91c-.374 4.284-1.836 7.344-4.318 9.622a1.987 1.987 0 00-.748 1.5 1.773 1.773 0 001.8 1.7 2.118 2.118 0 001.464-.624c3.162-2.924 5.032-7 5.406-12.206h4.182v11.322c0 .986.918 1.462 1.8 1.462.918 0 1.8-.476 1.8-1.462V29.653h4.42a1.4 1.4 0 001.326-1.53 1.379 1.379 0 00-1.326-1.53h-4.42v-5.03h3.3a1.368 1.368 0 001.326-1.5 1.368 1.368 0 00-1.326-1.5h-4.588a31.413 31.413 0 002.278-5 2.014 2.014 0 00.136-.714 1.838 1.838 0 00-1.938-1.768 1.818 1.818 0 00-1.734 1.272 41.031 41.031 0 01-2.822 6.222zm10.574 2.992v5.032h-4.114v-5.032zm-18.188 19.856c0 .918.918 1.36 1.836 1.36s1.836-.442 1.836-1.36V23.331a1.473 1.473 0 00-1.53-1.36 49.61 49.61 0 003.06-8.534 2.624 2.624 0 00.068-.51 1.793 1.793 0 00-1.972-1.7 1.764 1.764 0 00-1.836 1.292 40.657 40.657 0 01-5.34 12.784 2.178 2.178 0 00-.408 1.19 1.771 1.771 0 001.8 1.7 1.937 1.937 0 001.666-.952c.272-.408.544-.816.816-1.258zm12.92-29.07a1.9 1.9 0 00-1.53-.782 1.777 1.777 0 00-1.87 1.6 1.469 1.469 0 00.272.85 35.76 35.76 0 011.462 2.448 1.739 1.739 0 001.564.952 1.837 1.837 0 001.87-1.734 2.066 2.066 0 00-.2-.85 16.3 16.3 0 00-1.57-2.48zm25.364.34c-3.2 0-4.624 1.5-4.624 4.216v7.208c0 7.242-1.054 11.356-3.2 14.892a2.245 2.245 0 00-.34 1.156 1.822 1.822 0 001.87 1.768 2.05 2.05 0 001.734-1.054 22.82 22.82 0 003.266-9.522h7.174v8.2c0 .986.918 1.462 1.836 1.462s1.836-.48 1.836-1.462v-8.2h7.446v5.3c0 1.02-.238 1.394-.986 1.394a6.271 6.271 0 01-1.326-.136 1.525 1.525 0 00-.37-.028 1.76 1.76 0 00-1.768 1.8 1.762 1.762 0 001.5 1.768 13.63 13.63 0 002.516.2c2.924 0 4.182-1.632 4.182-4.556v-20.2c0-2.72-1.394-4.216-4.59-4.216zm9.554 3.332h5.61c1.462 0 1.836.408 1.836 1.7v2.652h-7.446zm7.446 7.616v4.454h-7.446v-4.454zm-17.984 4.454c.068-1.326.1-2.618.1-3.944v-.51h6.766v4.454zm.1-7.718v-2.652c0-1.292.408-1.7 1.87-1.7h4.9v4.352zm44.37-.986a13.708 13.708 0 00-5.578 10.608c0 5.066 3.434 9.282 9.622 10.438a10.7 10.7 0 001.53.136 1.905 1.905 0 002.006-2.006 1.98 1.98 0 00-1.836-2.01c-4.76-.578-7.378-2.89-7.378-6.664 0-3.23 1.122-6.766 6.426-9.792a11.638 11.638 0 013.74-1.36 1.836 1.836 0 001.564-1.832 1.757 1.757 0 00-1.836-1.8h-.2c-7.076.648-15.848 1.63-22.92 2.514a1.848 1.848 0 00-1.768 1.87 1.883 1.883 0 001.9 1.938 1.275 1.275 0 00.34-.034c4.9-.714 10.3-1.53 14.382-2.074zm5.338 6.188a24.73 24.73 0 012.516 2.89 1.362 1.362 0 001.122.646 1.387 1.387 0 001.354-1.358 1.42 1.42 0 00-.3-.92 16.986 16.986 0 00-2.652-2.958 1.418 1.418 0 00-.952-.374 1.416 1.416 0 00-1.43 1.292 1.209 1.209 0 00.34.782zm3.4-2.686c.782.816 1.734 1.836 2.516 2.822a1.479 1.479 0 001.19.612 1.328 1.328 0 001.36-1.292 1.582 1.582 0 00-.374-1.02 17.049 17.049 0 00-2.62-2.788 1.633 1.633 0 00-1.02-.408 1.365 1.365 0 00-1.428 1.258 1.124 1.124 0 00.374.816zm23.322-9.452a1.275 1.275 0 00.034-.34 1.717 1.717 0 00-1.9-1.6 1.815 1.815 0 00-1.938 1.428l-.85 4.9a31.667 31.667 0 01-3.5-.544 1.655 1.655 0 00-.408-.034 1.763 1.763 0 00-1.734 1.836 1.737 1.737 0 001.462 1.7 24.747 24.747 0 003.57.544c-.272 1.6-.51 3.162-.714 4.76a27.775 27.775 0 01-3.6-.646 1.883 1.883 0 00-.612-.068 1.771 1.771 0 00-1.74 1.868 1.851 1.851 0 001.428 1.836 27.459 27.459 0 004.072.676 32.517 32.517 0 00-.17 3.434c0 5.814 3.162 8.534 8.466 8.534 5.712 0 9.656-2.822 9.656-8.636a10.2 10.2 0 00-.51-3.128 2.005 2.005 0 00-2.006-1.462 1.776 1.776 0 00-1.936 1.636 2.625 2.625 0 00.068.51 9.261 9.261 0 01.41 2.512c0 3.366-2.006 4.692-5.746 4.692-2.992 0-4.522-1.258-4.522-4.93 0-.816.034-1.768.136-2.958h.954a31.844 31.844 0 005.916-.544 1.742 1.742 0 001.462-1.8 1.718 1.718 0 00-1.666-1.8 1.157 1.157 0 00-.34.034 32.6 32.6 0 01-5.338.442h-.544c.238-1.6.51-3.162.714-4.76h.952a35.762 35.762 0 003.774-.17 1.619 1.619 0 001.462-1.734 1.651 1.651 0 00-1.632-1.8h-.17c-1.054.1-2.176.17-3.5.17h-.238zm37.3 9.724a37.062 37.062 0 00-14.144 3.4 1.722 1.722 0 00-1.156 1.6 1.6 1.6 0 001.6 1.6 1.763 1.763 0 00.816-.17c5-2.21 9.384-3.332 12.886-3.332 3.366 0 4.93 1.7 4.93 3.876 0 3.6-2.21 5.78-8.67 6.9a1.59 1.59 0 00-1.394 1.6 1.58 1.58 0 001.56 1.662 1.157 1.157 0 00.342-.034c7.614-1.088 11.592-4.828 11.592-10.132 0-4.284-3.4-6.97-8.364-6.97zm26.826 2.516c-4.25 2.89-5.542 5.644-5.542 8.432 0 4.59 3.57 6.766 10.71 6.766a39.314 39.314 0 007.82-.646 1.872 1.872 0 001.53-1.9 1.792 1.792 0 00-1.838-1.876 2.091 2.091 0 00-.442.034 37.356 37.356 0 01-7.038.612c-5.406 0-6.8-1.088-6.8-3.2 0-1.734 1.02-3.6 3.944-5.508a40.093 40.093 0 018.942-3.938 1.672 1.672 0 001.258-1.666 1.851 1.851 0 00-1.768-1.9 1.925 1.925 0 00-.612.1 46.55 46.55 0 00-6.7 2.652 59.514 59.514 0 01-.782-9.962 1.836 1.836 0 00-1.972-1.836 1.836 1.836 0 00-1.966 1.834 54.164 54.164 0 001.254 12.002zm149.39 10.506a33.086 33.086 0 015.3 5.2 2.072 2.072 0 001.666.85 1.937 1.937 0 001.972-1.9 2.48 2.48 0 00-.612-1.564 27.212 27.212 0 00-6.086-5.372 2.423 2.423 0 00-1.19-.374 1.815 1.815 0 00-1.836 1.768 1.67 1.67 0 00.786 1.392zM224.883 63.437a1.276 1.276 0 00.034-.34 1.717 1.717 0 00-1.9-1.6 1.815 1.815 0 00-1.938 1.428l-.85 4.9a31.667 31.667 0 01-3.5-.544 1.655 1.655 0 00-.408-.034 1.763 1.763 0 00-1.734 1.836 1.737 1.737 0 001.462 1.7 24.747 24.747 0 003.57.544c-.272 1.6-.51 3.162-.714 4.76a27.775 27.775 0 01-3.6-.646 1.883 1.883 0 00-.612-.068 1.771 1.771 0 00-1.734 1.87 1.851 1.851 0 001.428 1.836 27.459 27.459 0 004.08.68 32.516 32.516 0 00-.17 3.434c0 5.814 3.162 8.534 8.466 8.534 5.712 0 9.656-2.822 9.656-8.636a10.2 10.2 0 00-.51-3.128 2.005 2.005 0 00-2.006-1.462 1.776 1.776 0 00-1.95 1.63 2.625 2.625 0 00.068.51 9.261 9.261 0 01.408 2.516c0 3.366-2.006 4.692-5.746 4.692-2.992 0-4.522-1.258-4.522-4.93 0-.816.034-1.768.136-2.958h.952a31.845 31.845 0 005.916-.544 1.742 1.742 0 001.462-1.8 1.718 1.718 0 00-1.666-1.8 1.157 1.157 0 00-.34.034 32.6 32.6 0 01-5.338.442h-.544c.238-1.6.51-3.162.714-4.76h.952a35.762 35.762 0 003.774-.17 1.619 1.619 0 001.462-1.734 1.651 1.651 0 00-1.632-1.8h-.17c-1.054.1-2.176.17-3.5.17h-.238zm37.3 9.724a37.062 37.062 0 00-14.144 3.4 1.722 1.722 0 00-1.156 1.6 1.6 1.6 0 001.6 1.6 1.763 1.763 0 00.816-.17c5-2.21 9.384-3.332 12.886-3.332 3.366 0 4.93 1.7 4.93 3.876 0 3.6-2.21 5.78-8.67 6.9a1.59 1.59 0 00-1.394 1.6 1.58 1.58 0 001.564 1.666 1.157 1.157 0 00.34-.034c7.616-1.088 11.594-4.828 11.594-10.132-.004-4.288-3.404-6.974-8.368-6.974zm26.826 2.516c-4.25 2.89-5.542 5.644-5.542 8.432 0 4.59 3.57 6.766 10.71 6.766a39.314 39.314 0 007.82-.646 1.872 1.872 0 001.53-1.9 1.792 1.792 0 00-1.836-1.87 2.091 2.091 0 00-.442.034 37.356 37.356 0 01-7.038.612c-5.406 0-6.8-1.088-6.8-3.2 0-1.734 1.02-3.6 3.944-5.508a40.093 40.093 0 018.94-3.944 1.672 1.672 0 001.258-1.666 1.851 1.851 0 00-1.768-1.9 1.925 1.925 0 00-.612.1 46.55 46.55 0 00-6.7 2.652 59.514 59.514 0 01-.782-9.962 1.836 1.836 0 00-1.972-1.836 1.836 1.836 0 00-1.966 1.834 54.164 54.164 0 001.254 12.002z" fill="#2e3032"/><g data-name="グループ 18184" fill="none" stroke="#8d827a" stroke-linecap="round" stroke-width="4"><path data-name="パス 48620" d="M576.057 93.751l56.19-91"/><path data-name="パス 48619" d="M58.941 93.751l-56.188-91"/></g><path data-name="パス 331750" d="M448.247 22.323a66.739 66.739 0 0010.416-5.922 2.109 2.109 0 001.008-1.68 2.269 2.269 0 00-2.31-2.1 2.551 2.551 0 00-1.68.63c-5.544 4.536-15.2 8.652-23.6 10.584a2.064 2.064 0 00-1.728 2.018 2.14 2.14 0 002.184 2.184 4.188 4.188 0 00.672-.084 61.9 61.9 0 006.426-1.89 3.179 3.179 0 00-.042.63v11.8c0 3.066 1.428 4.368 5.5 4.368h13.86c3.318 0 5.5-.63 5.5-4.368v-11.8c0-3.066-1.428-4.368-5.5-4.368zm-2.772 17.22c-.966 0-1.428-.168-1.428-1.218v-1.512h15.96v1.512c0 .924-.252 1.218-1.47 1.218zm-1.428-8.316h15.96v2.436h-15.96zm15.96-3.15h-15.96v-1.26c0-.924.252-1.176 1.428-1.176h13.062c1.218 0 1.47.252 1.47 1.176zM439.889 8.211a32.492 32.492 0 01-6.552 5.208 2.489 2.489 0 00-1.386 2.1 2.2 2.2 0 002.184 2.184 2.844 2.844 0 001.344-.378 33.276 33.276 0 007.9-6.384 1.961 1.961 0 00.546-1.3 2.384 2.384 0 00-2.394-2.142 2.3 2.3 0 00-1.642.712zm21.672-.714a2.616 2.616 0 00-1.47-.462 2.191 2.191 0 00-2.226 2.1 2.2 2.2 0 001.092 1.806 39.809 39.809 0 015.8 5 2.56 2.56 0 001.806.84 2.2 2.2 0 002.226-2.184 2.736 2.736 0 00-.84-1.89 36.755 36.755 0 00-6.388-5.21zm-8.736-1.68c0-1.176-1.134-1.806-2.268-1.806-1.092 0-2.184.588-2.184 1.764v5.712c0 .8-.21.966-.966.966a8.239 8.239 0 01-1.6-.168 2.045 2.045 0 00-.5-.042 1.962 1.962 0 00-1.974 2.058 2.053 2.053 0 001.764 2.058 21 21 0 002.478.21c3.528 0 5.25-1.47 5.25-4.494zm41.706 10.336h10.164a2.223 2.223 0 002.268-2.352 2.223 2.223 0 00-2.268-2.352h-24.612a2.223 2.223 0 00-2.268 2.352 2.223 2.223 0 002.268 2.352h9.408v16.334h-13.188a2.223 2.223 0 00-2.268 2.352 2.223 2.223 0 002.268 2.352h31.5a2.223 2.223 0 002.268-2.352 2.223 2.223 0 00-2.268-2.352h-13.272zm37.044 18.98v5.838a2.163 2.163 0 002.394 2.016 2.141 2.141 0 002.394-2.016V26.145a42.685 42.685 0 005.964-5.67 5.019 5.019 0 001.386-3.192c0-1.89-1.638-3.276-4.536-3.234l-17.01.168a2.07 2.07 0 00-2.058 2.226 2.081 2.081 0 002.1 2.226l14.826-.21c.5 0 .756.126.756.336a.874.874 0 01-.294.546c-4.032 4.2-11 8.694-18.69 11.466a2.243 2.243 0 00-1.638 2.146 2.186 2.186 0 002.142 2.184 2.756 2.756 0 00.966-.168 62.452 62.452 0 0011.424-5.586zm-2.058-26.04a43.956 43.956 0 013.906 3.192 2.284 2.284 0 001.512.63 2.554 2.554 0 002.436-2.436 2.406 2.406 0 00-.84-1.764 34.034 34.034 0 00-4.074-3.108 2.616 2.616 0 00-1.47-.462 2.4 2.4 0 00-2.394 2.268 2.048 2.048 0 00.924 1.68zm12.6 16.716a2.772 2.772 0 00-1.134-.252 2.2 2.2 0 00-2.184 2.184 2.087 2.087 0 001.176 1.848 50.281 50.281 0 017.178 4.872 2.527 2.527 0 001.638.63 2.277 2.277 0 002.226-2.268 2.54 2.54 0 00-1.004-1.97 40.124 40.124 0 00-7.896-5.044zM348.903 76.817a1.968 1.968 0 000-3.906h-2.268v-6.09c0-2.982-1.638-4.578-5.124-4.578h-3.658v-6.006a2.032 2.032 0 00-2.268-1.89 2.017 2.017 0 00-2.226 1.89v6.006h-5.33a1.783 1.783 0 00-1.676 1.974 1.8 1.8 0 001.68 2.016h5.33v2.02a34.689 34.689 0 01-.252 4.662h-6.888a1.772 1.772 0 00-1.68 1.928 1.786 1.786 0 001.68 1.974h6.216a19.856 19.856 0 01-8.61 12.264 2.282 2.282 0 00-1.134 1.89 2.208 2.208 0 002.142 2.142 2.155 2.155 0 001.26-.42 24.63 24.63 0 0010.122-13.062 27.492 27.492 0 0010.334 12.474 2.376 2.376 0 001.3.42 2.4 2.4 0 001.05-4.536 24.532 24.532 0 01-9.66-11.172zm-6.678-3.906h-4.578c.126-1.47.21-2.982.21-4.452v-2.226h3.024c1.008 0 1.344.252 1.344 1.26zm-21.172-16.884a2.028 2.028 0 00-2.268-1.848c-1.176 0-2.31.63-2.31 1.848v35.616c0 1.218 1.134 1.848 2.31 1.848a2.028 2.028 0 002.268-1.848zm-8.442 8.778a33.011 33.011 0 01-1.176 5.8 2.836 2.836 0 00-.084.588 1.6 1.6 0 001.68 1.554 1.788 1.788 0 001.722-1.348 29.871 29.871 0 001.18-6.132v-.214a1.6 1.6 0 00-1.722-1.6 1.538 1.538 0 00-1.596 1.352zm12.016-1.218a1.617 1.617 0 00-1.6-1.176 1.515 1.515 0 00-1.6 1.47 2.108 2.108 0 00.084.5 37.949 37.949 0 01.8 3.822 1.5 1.5 0 001.56 1.35 1.726 1.726 0 001.764-1.68c0-.126-.042-.21-.042-.336a26.874 26.874 0 00-.966-3.95zm65.982 5.082c0-2.814-1.428-4.158-5.208-4.158h-1.134c.294-.546.588-1.134.882-1.722a1.6 1.6 0 00.168-.714 1.55 1.55 0 00-.42-1.008h5.756a1.721 1.721 0 001.6-1.89 1.7 1.7 0 00-1.6-1.89h-10.376v-1.554c0-1.134-1.05-1.68-2.142-1.68-1.05 0-2.142.546-2.142 1.68v1.554h-10.04c-1.05 0-1.554.924-1.554 1.89a1.69 1.69 0 001.554 1.89h5.292a1.454 1.454 0 00-.042 1.806 15.12 15.12 0 011.05 1.638h-1.26c-3.78 0-5.208 1.344-5.208 4.158v16.212c0 1.092 1.05 1.638 2.1 1.638s2.1-.546 2.1-1.638V69.173c0-.8.336-1.134 1.428-1.134h4.7v2.014h-3.522a1.629 1.629 0 000 3.234h3.528v1.976h-.42c-2.6 0-3.57.924-3.57 3.024v2.52c0 2.1.966 3.024 3.57 3.024h4.872a6.046 6.046 0 001.722-.21 2.226 2.226 0 00-.34 1.132 1.957 1.957 0 001.848 1.974 18.5 18.5 0 002.184.126c3.024 0 4.62-1.344 4.62-4.242zm-6.468 9.618c0-2.1-.966-3.024-3.57-3.024h-.5v-1.974h3.654a1.629 1.629 0 000-3.234h-3.658v-2.016h4.914c1.092 0 1.428.336 1.428 1.134v12.81c0 .63-.252.924-.84.924a7.018 7.018 0 01-1.26-.084 1.3 1.3 0 00-.378-.042.925.925 0 00-.336.042 3.2 3.2 0 00.546-2.016zm-8.106-13.776a1.685 1.685 0 00.126-.63 2.066 2.066 0 00-.21-.84 8.583 8.583 0 00-1.344-1.974h6.93a.915.915 0 00-.21.336 27.4 27.4 0 01-1.6 3.108zm.42 16.464c-.5 0-.8-.126-.8-.672v-1.6c0-.5.168-.672.8-.672h3.36c.63 0 .8.168.8.672v1.6c0 .5-.168.672-.8.672zm-13.566-4.662c0-2.9-1.3-4.368-4.578-4.368h-2.858a1.888 1.888 0 00-1.848 2.058 1.91 1.91 0 001.848 2.058h1.85c1.092 0 1.218.252 1.218.966v8.148a26.328 26.328 0 01-4.2 3.738 2.471 2.471 0 00-1.218 1.932 2.19 2.19 0 002.226 2.1 2.391 2.391 0 001.47-.5 31.67 31.67 0 004.41-4.2c3.234 3.066 7.77 4.242 18.312 4.242 4.452 0 8.274-.126 11.55-.378a2.069 2.069 0 002.016-2.184 1.981 1.981 0 00-2.016-2.1h-.294a111.141 111.141 0 01-11.382.462c-9.744 0-13.86-1.008-16.506-3.57zm-3.78-19.11a2.619 2.619 0 00-1.638-.588 2.235 2.235 0 00-2.268 2.138 2.111 2.111 0 00.8 1.638 21.94 21.94 0 012.772 2.9 2.26 2.26 0 001.806.924 2.376 2.376 0 002.394-2.31 2.428 2.428 0 00-.63-1.6 19.108 19.108 0 00-3.236-3.102zm53.3 7.35c.294 4.116.546 10.332.714 14.952a1.733 1.733 0 001.89 1.764 1.8 1.8 0 001.974-1.764c.126-4.662.42-10.878.714-14.952.084-1.218.336-3.738.336-4.872a2.985 2.985 0 00-5.964 0c-.002 1.134.292 4.116.334 4.872zm2.644 19.446a3.129 3.129 0 00-3.192 3.15 3.193 3.193 0 006.384 0 3.129 3.129 0 00-3.192-3.15z" fill="#eb5e00"/></g></svg>