<svg xmlns="http://www.w3.org/2000/svg" width="121.836" height="148.332"><g data-name="グループ 18714"><g data-name="グループ 18686"><g data-name="グループ 18643"><g data-name="グループ 18638"><g data-name="グループ 18635"><g data-name="グループ 18634"><path data-name="パス 331455" d="M65.569 119.959c-.071.34-.227.2-.316.641-.039.2 0 .436-.051.7-.043.207-.175.422-.225.659-.043.217.04.474-.011.716-.039.212-.158.426-.2.657s.045.471 0 .711-.25.42-.3.651.062.482.016.714 0 .463-.051.695-.341.4-.388.632-.023.466-.063.7.079.49.036.719-.248.42-.29.652-.093.454-.135.688-.154.434-.2.665.043.481 0 .714c-.035.331.1.246.068.684-.016.19-.162.4-.183.66-.016.2.094.447.07.687-.019.216 0 .446-.019.675s-.281.422-.3.653-.031.445-.058.675-.013.448-.044.677.02.455-.012.679.035.463.005.685-.269.419-.3.64.045.466.007.688-.252.41-.295.632-.054.454-.094.679.02.463-.031.685-.035.452-.088.675-.316.384-.377.608-.072.446-.141.66-.1.443-.175.659-.275.372-.364.58-.034.489-.135.685-.355.32-.475.5a3.661 3.661 0 01-.41.506c-.171.171-.226.483-.414.582a1.644 1.644 0 01-.7.177c-.238 0-.465.009-.679.009-.241 0-.47-.07-.687-.07-.241 0-.467-.064-.677-.064-.245 0-.469-.142-.684-.142-.24 0-.469.124-.681.124-.241 0-.465.017-.681.017-.238 0-.463-.008-.683-.008s-.452-.09-.677-.09-.447.017-.682.017c-.217 0-.446.17-.681.17a1.1 1.1 0 01-.613-.365 2.906 2.906 0 01-.539-.446c-.125-.167-.158-.427-.284-.631s-.241-.378-.355-.589c-.106-.186-.072-.463-.181-.677-.1-.2-.329-.331-.426-.542s-.106-.446-.2-.661-.309-.355-.4-.569-.039-.473-.126-.685-.27-.384-.355-.6-.17-.422-.254-.632-.087-.456-.169-.661c-.076-.224-.083-.463-.158-.668-.083-.224-.248-.4-.32-.615s-.27-.391-.343-.605-.031-.481-.1-.687c-.075-.225-.309-.38-.378-.6s.055-.506-.013-.709c-.076-.234-.074-.471-.138-.671-.08-.249-.262-.427-.32-.613-.13-.411.064-.411-.258-.507a1.229 1.229 0 00-.624-.055c-.328 0-.328-.072-.663-.072s-.329.083-.663.083-.332-.179-.664-.179-.331.117-.664.117-.335-.134-.663-.134-.335.167-.663.167-.336-.044-.668-.044-.336.044-.668.044-.376-.249-.694-.15.042.355-.087.766c-.059.181-.147.392-.226.641-.064.2-.2.393-.274.624-.071.2-.2.411-.266.633-.071.2-.025.462-.1.685-.068.2-.074.444-.149.669s-.387.336-.463.558-.079.447-.161.669c-.076.206-.012.471-.092.684s-.276.384-.358.6-.061.465-.143.679-.158.428-.242.643-.313.365-.4.569-.254.391-.343.6-.2.418-.292.613c-.1.216.04.536-.059.731-.1.214-.41.313-.511.507s-.24.391-.351.58c-.129.2-.167.443-.291.613a3.472 3.472 0 01-.483.482.889.889 0 01-.562.294c-.241 0-.467.008-.683.008-.233 0-.459.071-.682.071s-.45.047-.684.047c-.217 0-.443-.146-.677-.146-.214 0-.441-.035-.682-.035h-.681c-.214 0-.439.134-.68.134-.213 0-.441-.054-.681-.054-.217 0-.445.154-.679.154s-.447-.064-.685-.064a1.7 1.7 0 01-.681-.187 2.251 2.251 0 01-.542-.43 3.754 3.754 0 01-.465-.5c-.123-.181-.039-.493-.15-.7s-.354-.319-.445-.53-.258-.376-.339-.6-.019-.467-.09-.688-.071-.444-.136-.667c-.059-.206-.119-.427-.177-.652s-.142-.418-.194-.64-.213-.42-.258-.644.09-.479.046-.7-.121-.424-.162-.648-.266-.418-.3-.643.122-.481.091-.7-.194-.427-.224-.652.151-.481.126-.7-.126-.446-.149-.671-.051-.45-.072-.665c-.021-.241.017-.464 0-.688s-.331-.434-.347-.649c-.023-.24.02-.473 0-.676-.017-.262.157-.5.145-.688-.029-.427-.025-.345-.061-.676-.046-.233-.236-.436-.281-.669l-.133-.675c-.043-.222-.064-.465-.111-.689s.051-.487.008-.71-.226-.436-.268-.66.072-.491.025-.714-.1-.455-.15-.676c-.044-.242-.075-.463-.121-.688s-.228-.434-.273-.657-.2-.436-.246-.659.046-.489 0-.714-.1-.463-.145-.675c-.048-.242.037-.5-.007-.716-.051-.237-.165-.451-.207-.659-.051-.266-.213-.47-.253-.659-.088-.436.119-.383.047-.72" fill="#fff"/></g></g><g data-name="グループ 18637"><g data-name="グループ 18636"><path data-name="パス 331456" d="M27.562 148.332a4.754 4.754 0 01-.655-.054c-.026 0-.051-.007-.076-.007a4.043 4.043 0 01-1.715-.447 4.384 4.384 0 01-1.162-.873l-.067-.062a5.218 5.218 0 01-.684-.793 5.329 5.329 0 00-.767-1.514l-.011-.02a3.721 3.721 0 01-.43-.818 3.341 3.341 0 01-.19-1.024c-.044-.186-.068-.348-.091-.465l-.009-.072a31.154 31.154 0 01-.183-.676c-.013-.046-.03-.09-.042-.133-.034-.1-.074-.232-.116-.374a3.8 3.8 0 01-.317-.884 3.061 3.061 0 01-.035-1.008c0-.008-.007-.016-.009-.034a2.985 2.985 0 01-.394-1.068 3.126 3.126 0 00-.142-1.41 2.933 2.933 0 01.042-1 4.942 4.942 0 01-.071-.42c-.016-.169-.036-.328-.052-.49l-.021-.2a4.983 4.983 0 01-.02-.285 2.71 2.71 0 01-.339-1.086 5.062 5.062 0 010-.7v-.071a2.979 2.979 0 01.1-.933 3.12 3.12 0 01-.257-.768l-.13-.688c-.028-.151-.051-.3-.074-.451-.009-.072-.025-.151-.035-.232a3.036 3.036 0 01-.055-.695 3.3 3.3 0 01-.21-.669 3.219 3.219 0 01-.028-.98c-.033-.134-.066-.266-.092-.411s-.046-.268-.071-.391c-.005-.027-.005-.043-.011-.07a17.9 17.9 0 01-.557-1.534 3.272 3.272 0 01-.046-.924c-.009-.027-.015-.064-.021-.091-.027-.126-.055-.249-.078-.366a3.468 3.468 0 01-.056-.827 3.755 3.755 0 01-.115-.368 3.439 3.439 0 01-.29-.826 3.056 3.056 0 010-1.327 2.4 2.4 0 014.754-.367 2.9 2.9 0 01.058.854 3.771 3.771 0 01.134.447l.021.055a5.042 5.042 0 01.206.7 3.47 3.47 0 01.048.909c0 .025.011.054.016.08.027.131.062.265.088.408a3.213 3.213 0 01.055.739c.04.107.086.224.125.356a3.674 3.674 0 01.34.926l.07.394.054.3c.015.08.035.159.051.241.037.142.071.293.1.435a2.887 2.887 0 01.047.758 3.364 3.364 0 01.194.622 3.448 3.448 0 01.035.956l.031.2c.015.079.024.161.037.244l.059.3c.008.043.019.087.025.131a3.248 3.248 0 01.328.918 1.284 1.284 0 01.024.171l.021.159c.023.178.024.212.052.635a2.588 2.588 0 00.2 1.949 4.379 4.379 0 01.009.638v.089l.016.163c.013.115.023.241.036.355l.009.045a4.017 4.017 0 01.145.676 2.768 2.768 0 01-.017.819 5.173 5.173 0 00.309 1.758c.009.026.021.07.032.114a5.076 5.076 0 01.123.509 2.8 2.8 0 01.042.763 3.13 3.13 0 01.151.494l.044.123c.05.153.1.315.139.463.05.2.1.394.159.588a4.491 4.491 0 01.125.6l.009.064a3.3 3.3 0 01.111.578l.007.017a3.063 3.063 0 01.573.758 3.029 3.029 0 01.225.57 3 3 0 01.847-.126 4.265 4.265 0 01.546.037 3.088 3.088 0 01.815-.118h.681c.187 0 .367.019.544.027a.729.729 0 00.143.009 3.094 3.094 0 01.869.126l.4-.028h.042a3.647 3.647 0 01.554-.064c.039-.079.089-.169.143-.257l.119-.2a6.09 6.09 0 00.167-.276 2.935 2.935 0 01.293-.436 2.689 2.689 0 01.214-.669l.118-.248c.048-.1.1-.2.15-.321a3.943 3.943 0 01.357-.632l.015-.028a3.443 3.443 0 01.436-.684.142.142 0 00.016-.045l.059-.149a3.409 3.409 0 01.2-.831 3.234 3.234 0 01.274-.55 3.042 3.042 0 01.133-.608l.007-.044a4.615 4.615 0 01.177-.7 2.816 2.816 0 01.515-.889c0-.028.013-.054.019-.08a3.429 3.429 0 01.161-.9 5.2 5.2 0 01.245-.6l.036-.071a4.884 4.884 0 01.266-.613l.015-.038c.016-.054.037-.107.056-.158a2.553 2.553 0 011.783-2.719 2.759 2.759 0 011.732 0 4.986 4.986 0 01.775.008 3.09 3.09 0 01.922-.141 3.453 3.453 0 01.7.068 3.545 3.545 0 01.624-.048 3.087 3.087 0 01.884.12c.13-.008.274-.024.443-.024a3.66 3.66 0 01.723.07 3.029 3.029 0 011.3.167 2.569 2.569 0 011.826 2 3.915 3.915 0 01.307.689 4.278 4.278 0 01.146.676l.009.052a2.752 2.752 0 01.111.671 2.712 2.712 0 01.245.533 2.395 2.395 0 00.378 1.112 3.879 3.879 0 01.554 1.471v.025a4.668 4.668 0 01.151.6l.007.027c.033.09.066.17.1.257l.04.107a3.456 3.456 0 01.414.73 3.27 3.27 0 01.186.652 3.205 3.205 0 01.308.542 3.1 3.1 0 01.177.5 3.049 3.049 0 01.4.606 3.178 3.178 0 01.276.83l.032.052.123.186.074.134c.078 0 .157-.009.234-.009.146-.008.295-.008.44-.008a4.169 4.169 0 01.809.087h.228a4.606 4.606 0 00.545 0c.078-.007.155-.007.236-.007a3.489 3.489 0 01.906-.125 3.007 3.007 0 01.968.161c.146.007.265.025.359.035.027 0 .051.009.08.009a4.3 4.3 0 01.623.063h.062l.055-.054a1.215 1.215 0 00.122-.17 3.245 3.245 0 01.228-.293 2.745 2.745 0 01.163-.483 3.061 3.061 0 01.345-.605c.026-.115.055-.23.088-.347l.012-.063c.025-.133.058-.345.123-.588a2.864 2.864 0 01.376-.813c0-.032.008-.068.017-.115a3.391 3.391 0 01.06-.872c.011-.052.013-.1.02-.159.02-.163.044-.313.071-.475a3.016 3.016 0 01.233-.711 3.156 3.156 0 01.042-.544 2.747 2.747 0 01.261-.819c0-.107.007-.222.019-.348v-.035a4.737 4.737 0 01.02-.714c.005-.054.005-.107.008-.15.007-.171.016-.34.035-.509.009-.088.013-.175.02-.268.012-.133.021-.258.035-.384a2.985 2.985 0 01.3-1.013.171.171 0 010-.037 3.327 3.327 0 01-.06-.9 3.837 3.837 0 01.124-.679 3.124 3.124 0 01-.008-.669 3.532 3.532 0 01.037-.969 4.05 4.05 0 01.19-.676l.02-.064c.02-.107.042-.213.064-.32s.042-.2.059-.3a3.087 3.087 0 01.2-.657 3.238 3.238 0 01.039-.651v-.062a4.825 4.825 0 01.076-.706 2.751 2.751 0 01.391-.972.324.324 0 010-.051 3.063 3.063 0 01.268-1.747 3.059 3.059 0 01.056-.649 3.546 3.546 0 01.163-.57 3.1 3.1 0 01.055-.8 3.868 3.868 0 01.208-.685 3.429 3.429 0 01.071-.687 3.1 3.1 0 01.5-1.193 2.4 2.4 0 014.525 1.522 2.935 2.935 0 01-.3.821 3.9 3.9 0 01-.064.518 3.836 3.836 0 01-.173.568 3.253 3.253 0 01-.06.792 3.881 3.881 0 01-.151.544 3.4 3.4 0 01-.055.822 2.726 2.726 0 01-.222.675 2.876 2.876 0 01-.032.562v.025a4.392 4.392 0 01-.068.792 2.759 2.759 0 01-.4.98 3.213 3.213 0 01-.012 1.062 3.4 3.4 0 01-.347.934c0 .028-.013.051-.019.082-.023.107-.042.2-.063.309a4.231 4.231 0 01-.147.561c0 .092.007.2 0 .313a3.5 3.5 0 01.05.908 3.113 3.113 0 01-.133.688 3.4 3.4 0 01.015.7v.116a5.822 5.822 0 01-.023.588 2.941 2.941 0 01-.335 1.088c-.011.087-.017.186-.028.282a.683.683 0 00-.008.135c0 .153-.013.312-.029.462v.044a3.654 3.654 0 01-.008.6 3.566 3.566 0 01-.019.873 2.8 2.8 0 01-.258.835 3.194 3.194 0 01-.047.554 3.023 3.023 0 01-.336.942c-.009.082-.02.154-.034.233a3.391 3.391 0 01-.06.873v.064a4.556 4.556 0 01-.112.738 2.9 2.9 0 01-.439.953c-.029.134-.062.292-.115.463a.858.858 0 00-.031.126c-.042.161-.094.375-.181.621a3.617 3.617 0 01-.329.651 2.978 2.978 0 01-.3.91 3.18 3.18 0 01-.758.925 4.58 4.58 0 01-.355.446 2.853 2.853 0 01-1.233 1.238 4.071 4.071 0 01-1.784.436l-.679.008a4.336 4.336 0 01-.7-.06l-.055-.009a4.624 4.624 0 01-.616-.054l-.063-.011a2.874 2.874 0 01-.672-.087 3.166 3.166 0 01-.624.063c-.09 0-.179.007-.264.007a8.292 8.292 0 01-.8.008h-.3a3.914 3.914 0 01-.8-.086.477.477 0 00-.108.008h-.107a3.279 3.279 0 01-1.029.18 3.231 3.231 0 01-2.159-.929 3.674 3.674 0 01-.925-.854 3.415 3.415 0 01-.475-.928l-.019-.027c-.1-.179-.224-.356-.327-.549a3.01 3.01 0 01-.277-.722 3.188 3.188 0 01-.4-.635 3.7 3.7 0 01-.217-.6 3.222 3.222 0 01-.412-.706 3.283 3.283 0 01-.209-.756 3.383 3.383 0 01-.293-.581l-.095-.23c-.058-.142-.112-.284-.167-.428a4.545 4.545 0 01-.2-.72l-.009-.047a5.051 5.051 0 01-.146-.566 4.123 4.123 0 01-.229-.448 3.594 3.594 0 01-.432-.829 3.64 3.64 0 01-.146-.613 3.026 3.026 0 01-.341-.695 3.065 3.065 0 01-.149-.917c-.075 0-.162.005-.249.005a2.949 2.949 0 01-.791-.1 3.73 3.73 0 01-1.119-.011 3.059 3.059 0 01-.743.092h-.213c-.039.079-.079.159-.106.22l-.032.055a4.816 4.816 0 01-.19.463 3.753 3.753 0 01-.135.739l-.008.036a3.878 3.878 0 01-.177.73 2.771 2.771 0 01-.529.917.355.355 0 00-.011.044 3.224 3.224 0 01-.2 1.007 3.143 3.143 0 01-.333.661 3.868 3.868 0 01-.181.66c-.032.071-.06.158-.091.237-.055.145-.106.285-.163.422a3.358 3.358 0 01-.545.89c-.1.17-.189.315-.253.408l-.013.027c-.023.045-.047.1-.07.153a2.8 2.8 0 01-.289 1.21 2.893 2.893 0 01-.77.955c-.035.06-.074.115-.112.177l-.024.044a3.515 3.515 0 01-.467.883 4.9 4.9 0 01-.735.777l-.06.051a3.277 3.277 0 01-2.181.92c-.11 0-.215 0-.32.007h-.289l-.043.008a4.089 4.089 0 01-.712.064c-.039 0-.082.009-.129.009-.185.017-.368.035-.556.035a3.228 3.228 0 01-.942-.151c-.08 0-.158-.007-.24-.007a.868.868 0 00-.177-.02h-.443a3.276 3.276 0 01-.918.134c-.19 0-.355-.019-.487-.027a3.126 3.126 0 01-.848.131z"/></g></g></g><g data-name="グループ 18640"><g data-name="グループ 18639"><path data-name="パス 331457" d="M61.704 129.961a.436.436 0 01-.153-.025.525.525 0 01-.352-.657c.182-.6.031-.74-.166-.91a2.214 2.214 0 00-.981-.135.53.53 0 11-.063-1.059 2.767 2.767 0 011.76.4 1.745 1.745 0 01.464 2.012.539.539 0 01-.509.374z"/></g></g><g data-name="グループ 18642"><g data-name="グループ 18641"><path data-name="パス 331458" d="M23.971 129.919a.536.536 0 01-.511-.375 1.755 1.755 0 01.469-2.015 2.723 2.723 0 011.758-.39.527.527 0 01.5.561.538.538 0 01-.562.5 2.066 2.066 0 00-.984.126c-.19.178-.345.311-.162.91a.523.523 0 01-.351.656.5.5 0 01-.157.027z"/></g></g></g><g data-name="グループ 18644"><path data-name="パス 331459" d="M25.809 87.107c-.42-.355-.549.036-1.1-.39-.246-.19-.293-.742-.629-.992-.274-.2-.675-.292-1-.517-.284-.2-.653-.32-.975-.534-.293-.2-.477-.6-.8-.8-.3-.194-.681-.282-1-.478s-.695-.268-1.02-.458c-.316-.174-.529-.56-.855-.736s-.758-.143-1.088-.3-.56-.552-.9-.7-.755-.126-1.094-.269-.73-.151-1.075-.274-.7-.213-1.058-.315-.707-.191-1.062-.274-.707-.24-1.068-.284a9.753 9.753 0 00-1.091-.252c-.375-.007-.735.242-1.1.268a15.541 15.541 0 01-2.154.376c-.335.153-.788.134-1.1.345s-.325.759-.6 1.025c-.252.249-.633.392-.855.706a7.222 7.222 0 00-.641.916 9.281 9.281 0 00-.526.971c-.269.482-.052.428-.252 1.1a4.646 4.646 0 00-.353 1.052 94.72 94.72 0 00.013 2.236 9.055 9.055 0 00.244 1.1c.107.331.519.57.673.926.142.319.324.625.507.973.161.3.412.566.616.9.187.3.131.774.352 1.087.206.294.594.464.831.759.214.284.423.586.672.872.233.276.412.605.668.881s.458.58.723.846.7.312.984.58c.258.24.469.553.75.811.266.242.407.643.693.882s.542.5.833.738.633.376.932.617c.284.222.606.411.9.632s.455.632.762.855.858.054 1.169.274c.3.2.348.783.661 1 .295.2.839.052 1.15.258s.609.407.926.613.44.685.76.881.594.439.914.632.661.339.985.535.667.278 1 .465c.216.525.122.41 0 1.12-.053.323-.2.677-.266 1.107-.055.337-.083.709-.142 1.112-.055.356-.084.73-.135 1.125-.052.361-.013.746-.064 1.129s-.222.732-.265 1.112-.11.74-.15 1.125c-.043.365.047.758.011 1.141s-.2.739-.229 1.123c-.032.363-.17.736-.2 1.111s-.167.752-.187 1.133.071.767.059 1.15-.149.756-.158 1.141.27.758.27 1.141.033.766.044 1.139.091.756.108 1.131-.064.75-.032 1.123c.008.024-.087-.044-.056-.044.552 0 .552.161 1.1.161s.553-.242 1.1-.242.552.126 1.1.126.549-.116 1.1-.116h1.1c.549 0 .549.17 1.1.17s.549-.045 1.1-.045.55.162 1.1.162.546-.091 1.1-.091.552-.266 1.1-.266.552.374 1.1.374.552-.3 1.1-.3.554.241 1.106.241.549-.008 1.1-.008.549-.074 1.1-.074.55.181 1.1.181.549-.153 1.1-.153.553-.17 1.1-.17.554.037 1.106.037.55.311 1.1.311.554-.063 1.1-.063.554-.054 1.1-.054.552-.24 1.106-.24.549.072 1.1.072.549.035 1.1.035.546.213 1.1.213.553-.391 1.1-.391.555.178 1.107.178.552-.178 1.1-.178.553.2 1.1.2.55-.059 1.1-.059.553.159 1.111.159.55.106 1.1.106.554-.428 1.108-.428.554.285 1.109.285.553.02 1.107.02.554-.107 1.11-.107.552-.061 1.1-.061.556.2 1.111.2.554.02 1.11.02.561-.337 1.117-.337.6.427 1.13.257c.032-.375-.191-.809-.174-1.193s.458-.74.467-1.117-.151-.764-.151-1.138-.252-.758-.258-1.133.329-.772.313-1.15-.039-.754-.059-1.139-.3-.738-.328-1.111.177-.784.145-1.159-.384-.73-.419-1.1.082-.775.044-1.149.1-.785.049-1.15c-.046-.384-.046-.775-.094-1.139-.05-.386-.42-.723-.473-1.078-.055-.394.007-.786-.047-1.142-.059-.411.115-.821.061-1.167-.072-.426-.356-.766-.414-1.086-.123-.7-.529-.644-.311-1.161.323-.194.685-.482 1-.665s.8-.107 1.115-.305.665-.336.974-.525c.32-.2.478-.641.782-.837s.744-.222 1.046-.427.606-.435.9-.643.448-.659.75-.871.764-.2 1.06-.419.538-.527.823-.748c.305-.221.684-.34.968-.561s.659-.376.94-.608.487-.585.76-.829c.289-.24.391-.684.661-.926.282-.258.8-.24 1.056-.491.277-.256.446-.612.7-.87.268-.265.337-.714.58-.972.26-.284.7-.382.936-.649.252-.3.464-.6.688-.874.236-.3.6-.5.807-.783.221-.323.444-.624.629-.928.2-.329.206-.755.371-1.067.185-.337.545-.588.683-.909.158-.356 0-.819.107-1.15.12-.382.542-.659.606-1a8.023 8.023 0 00.084-1.131 6.2 6.2 0 00-.19-1.106 7.673 7.673 0 00-.064-1.129c-.2-.652-.478-.384-.743-.854-.145-.369-.2-.76-.361-1.072a8.183 8.183 0 00-.677-.864 7.445 7.445 0 00-.586-.944 6.385 6.385 0 00-.775-.819c-.309-.214-.79-.108-1.123-.253s-.584-.552-.948-.639a8.9 8.9 0 00-1.114-.107 7.354 7.354 0 00-1.112-.133c-.36.007-.7.374-1.072.418s-.789-.241-1.155-.162-.73.155-1.088.26-.691.277-1.044.4-.676.312-1.02.444-.612.446-.948.6-.715.214-1.047.372-.636.392-.956.562-.564.517-.884.694-.75.2-1.062.384-.667.348-.969.544c-.321.2-.6.455-.892.66-.325.211-.589.481-.878.685-.327.232-.635.435-.91.632-.336.249-.727.357-.973.545-.544.426-.348.435-.767.79" fill="#ed8c00"/><path data-name="パス 331460" d="M41.819 128.449a3.257 3.257 0 01-1.448-.323 3.406 3.406 0 01-.375-.017 2.652 2.652 0 00-.286-.009 3.8 3.8 0 01-1.158.17 4.121 4.121 0 01-1.147.151 3.838 3.838 0 01-1.2-.177.874.874 0 00-.141.016 6.192 6.192 0 01-.863.054h-1.1a3.7 3.7 0 01-1.015-.131 3.529 3.529 0 01-1.193.2 3.169 3.169 0 01-1.24-.241 3.344 3.344 0 01-.965.134.938.938 0 00-.162.009 5.511 5.511 0 01-.941.079 4.281 4.281 0 01-1.165-.158c-.137 0-.2 0-.292.007a6.933 6.933 0 01-.751.035 3.917 3.917 0 01-1.173-.169h-1.065l-.035.009a4.61 4.61 0 01-1.039.107 4.247 4.247 0 01-.967-.1 3.52 3.52 0 01-1.238.214 4.114 4.114 0 01-.981-.115 2.448 2.448 0 01-1.592-.526 2.421 2.421 0 01-.869-2.51c0-.045 0-.09.011-.135.007-.079.015-.2.015-.241 0-.072-.021-.2-.037-.329a8.259 8.259 0 01-.074-.853 17.962 17.962 0 00-.02-.411c-.009-.17-.016-.348-.024-.534a4 4 0 01-.269-1.436 5.564 5.564 0 01.121-.976c.009-.076.028-.154.032-.2s-.009-.149-.017-.218a6.273 6.273 0 01-.039-.954 6.412 6.412 0 01.143-.963c.018-.08.04-.186.044-.222a6.227 6.227 0 01.154-.926c.02-.079.043-.186.047-.224a5.389 5.389 0 01.187-.981c.013-.048.03-.1.042-.158s-.007-.126-.012-.187a5.557 5.557 0 01.005-.979c.026-.241.058-.483.094-.712.02-.143.043-.294.059-.439a5.808 5.808 0 01.222-.987c.019-.055.036-.117.051-.17s.007-.181.009-.284a6.23 6.23 0 01.053-.858c.024-.158.038-.32.056-.479.024-.233.051-.454.084-.669.025-.17.042-.337.062-.49.028-.232.051-.454.087-.668.027-.153.052-.285.082-.418-.2-.1-.418-.218-.656-.357a6.7 6.7 0 01-.649-.447c-.11-.078-.214-.158-.285-.2a3.469 3.469 0 01-1.067-1.08c-.1-.071-.2-.133-.3-.2a3.274 3.274 0 01-1.544-.522 3.079 3.079 0 01-.81-.83 3.122 3.122 0 01-1.075-.481 4.168 4.168 0 01-.918-.964l-.007-.005a6.494 6.494 0 00-.19-.135c-.185-.126-.4-.268-.615-.438-.032-.016-.135-.079-.209-.122a6.674 6.674 0 01-.756-.519c-.218-.177-.41-.345-.582-.5a3.8 3.8 0 00-.3-.268 4.445 4.445 0 01-.821-.979.593.593 0 00-.031-.052 6.551 6.551 0 01-.518-.556.778.778 0 01-.048-.052 3.778 3.778 0 01-1.157-.766 8.27 8.27 0 01-.577-.661c-.068-.078-.133-.166-.2-.237a5.774 5.774 0 01-.59-.758 1.5 1.5 0 00-.145-.2 13.146 13.146 0 01-.537-.687l-.137-.178a.542.542 0 00-.051-.033 4.274 4.274 0 01-.92-.91 3.586 3.586 0 01-.574-1.408c-.012-.009-.021-.028-.032-.032a6.1 6.1 0 01-.533-.814c-.051-.09-.094-.178-.145-.266-.112-.2-.236-.427-.355-.669a3.691 3.691 0 01-.855-1.363 9.16 9.16 0 01-.278-1.158c-.015-.07-.024-.142-.04-.212a4.884 4.884 0 01-.066-1.331c0-.05.009-.1.009-.151a8.8 8.8 0 010-1.478 4.749 4.749 0 01.414-1.453.337.337 0 01.032-.07 3.157 3.157 0 01.383-1.436 9.4 9.4 0 01.446-.843c.044-.072.088-.143.128-.224a7.325 7.325 0 01.668-1c.049-.063.1-.126.143-.191a3.926 3.926 0 01.932-.9 3.191 3.191 0 011.111-1.407 4.114 4.114 0 011.506-.589c.027 0 .054-.009.083-.009a3.889 3.889 0 011.382-.269.321.321 0 00.079-.007l.09-.016a7.24 7.24 0 011.1-.222c.012 0 .027-.013.04-.013a4 4 0 011.5-.284 4.761 4.761 0 011.212.225 1.083 1.083 0 00.149.042 6.1 6.1 0 011 .253c.08.023.189.06.232.068.382.087.781.189 1.217.312.09.027.178.056.265.08.273.072.586.162.916.276.044.009.112.028.174.037a5.044 5.044 0 01.908.24c.032.009.06.009.092.016a4.256 4.256 0 011.194.331 3.813 3.813 0 011.016.7 3.65 3.65 0 011.113.382 3.96 3.96 0 011.012.8.081.081 0 01.042.02 5.261 5.261 0 01.937.426s.1.044.166.075a5.457 5.457 0 01.888.442 4.046 4.046 0 01.96.893c.027.009.055.027.08.033a8.019 8.019 0 01.775.436c.044.017.087.036.131.055a4.755 4.755 0 01.952.525 3.135 3.135 0 01.822.9 3.3 3.3 0 011.035.578 2.409 2.409 0 01-2.507 4.055 3.256 3.256 0 01-1.619-.7 2.975 2.975 0 01-.847-1.05 5.268 5.268 0 01-.669-.378c-.053-.036-.111-.051-.166-.087a5.484 5.484 0 01-.8-.439 3.862 3.862 0 01-.855-.81.037.037 0 00-.025-.007 6.6 6.6 0 01-.783-.384l-.146-.054a5.03 5.03 0 01-.868-.391 3.718 3.718 0 01-.823-.652 3.466 3.466 0 01-.995-.32 3.67 3.67 0 01-.9-.643 4.029 4.029 0 01-.888-.23c-.059-.019-.118-.028-.181-.044a5.189 5.189 0 01-.821-.213c-.181-.063-.392-.117-.616-.178-.1-.036-.2-.064-.309-.091-.336-.1-.624-.17-.9-.229s-.507-.135-.692-.2a1.534 1.534 0 00-.2-.064 6.19 6.19 0 01-.719-.161 3.905 3.905 0 01-.9.2 5.1 5.1 0 00-.513.107l-.19.054a4.948 4.948 0 01-.93.115h-.012a1.838 1.838 0 01-.189.063 3.032 3.032 0 01-.534.712 4.189 4.189 0 01-.72.569l-.005.009c-.039.047-.068.09-.1.124a2.674 2.674 0 00-.245.349 8.24 8.24 0 01-.232.4 3.147 3.147 0 00-.182.328v.008a4.312 4.312 0 01-.181.892 4.689 4.689 0 01-.225.588 1.493 1.493 0 00-.043.1 5.677 5.677 0 00.016.641 5.072 5.072 0 01-.012.7c0 .062 0 .127-.008.169.013.063.029.135.039.2.02.09.037.187.055.276a3.669 3.669 0 01.669 1.017c.058.126.149.293.252.469.055.11.115.217.177.333.013.016.087.114.139.185a6.149 6.149 0 01.4.573 3.253 3.253 0 01.415 1.015 3.765 3.765 0 01.622.621c.094.116.183.234.275.357.122.159.231.312.339.435a5.836 5.836 0 01.446.59c.057.078.134.187.163.225.162.175.3.345.419.487.031.044.066.08.094.114a4.249 4.249 0 011.086.706c.209.2.378.4.515.553a2.176 2.176 0 00.187.214 4.169 4.169 0 01.742.909.164.164 0 01.032.043c.091.08.182.159.276.252.129.115.258.23.4.345.016.009.108.063.181.11a5.748 5.748 0 01.71.47c.084.062.208.149.337.24.158.107.343.222.531.375a3.276 3.276 0 01.588.553 3.132 3.132 0 011.269.514 2.911 2.911 0 01.776.8 2.967 2.967 0 01.981.418l.268.178c.2.143.411.277.628.419a3.4 3.4 0 011.032 1.07c.1.063.189.134.273.187a3.191 3.191 0 00.311.221 3.58 3.58 0 00.339.179c.186.1.394.2.62.34 0 0 .1.033.165.058a8.226 8.226 0 01.8.383 2.434 2.434 0 011.015 1.161 3.155 3.155 0 01.2 2.175c-.016.07-.039.161-.058.282-.048.258-.11.49-.166.688-.041.15-.08.284-.1.394-.023.141-.039.281-.058.44-.022.21-.05.43-.084.653-.02.161-.039.32-.055.479-.025.209-.045.412-.075.625a2.55 2.55 0 00-.009.258 6.967 6.967 0 01-.049.846 5.637 5.637 0 01-.21.917c-.019.062-.05.153-.056.2-.021.179-.051.357-.075.545-.026.17-.048.329-.067.5 0 .06.005.124.009.186a5.852 5.852 0 010 .952 5.01 5.01 0 01-.181.926c-.017.072-.04.151-.05.2a6.048 6.048 0 01-.142.846 2.111 2.111 0 00-.051.233 5.739 5.739 0 01-.136.873c-.016.062-.035.159-.044.2.007.043.015.141.021.213a6.211 6.211 0 01.04.893 6.035 6.035 0 01-.118.9v.008a3.742 3.742 0 01.238 1.266c0 .145.009.321.017.507l.019.34a4.367 4.367 0 01.933.123h.026l.032-.007a5.18 5.18 0 011.043-.107h1.1a3.953 3.953 0 011.173.167 2.371 2.371 0 00.285-.017c.155-.009.372-.027.744-.027a3.907 3.907 0 011.165.161.713.713 0 01.1-.017 5.55 5.55 0 01.677-.071 3.417 3.417 0 011.364-.268 3.165 3.165 0 011.18.222 3.356 3.356 0 011.025-.15 3.652 3.652 0 011.321.232h.886a1.015 1.015 0 00.24-.017 6.152 6.152 0 01.865-.055 3.827 3.827 0 011.138.161 3.914 3.914 0 01.967-.125 3.818 3.818 0 011.2-.179 6.284 6.284 0 01.723.029c.114 0 .188.007.379.007a3.35 3.35 0 011.4.293 6.4 6.4 0 01.81-.042c.163 0 .218-.013.325-.02.162-.017.327-.026.567-.038a3.62 3.62 0 011.317-.241 4.786 4.786 0 01.865.067c.1.007.119.007.236.007.336 0 .523.019.675.019.108.009.215.016.428.016a3.528 3.528 0 01.893.1 3.292 3.292 0 011.317-.277 3.783 3.783 0 011.1.151 3.73 3.73 0 011.112-.151 3.776 3.776 0 011.249.2c.045-.008.082-.008.139-.017a6.44 6.44 0 01.817-.044 4.3 4.3 0 011.178.161 5.592 5.592 0 01.639.051 3.189 3.189 0 011.5-.371 3.351 3.351 0 011.4.295h.305c.123 0 .252.007.5.007a.16.16 0 00.06-.007l.044-.009a5.03 5.03 0 011-.091 2.238 2.238 0 00.278-.016 6.484 6.484 0 01.822-.046 3.753 3.753 0 011.265.206c.214 0 .34.008.469.008.036 0 .068.008.106.008a2.128 2.128 0 01.311-.134c.033-.068.067-.141.1-.2a4.64 4.64 0 01-.07-.57c0-.009-.005-.016-.008-.028a4.089 4.089 0 01-.256-1.281 3.587 3.587 0 01.3-1.443 9.94 9.94 0 00-.021-.339c0-.071 0-.134-.011-.2a4.151 4.151 0 01-.335-1.3 3.661 3.661 0 01.071-1.015 3.393 3.393 0 01-.343-1.178 5.171 5.171 0 01.026-1.068c.007-.035.009-.079.013-.126a4.989 4.989 0 01.042-1.06c0-.027.007-.063.013-.1a29.89 29.89 0 01-.048-.581c0-.055-.007-.1-.009-.141a3.611 3.611 0 01-.5-1.337 6.958 6.958 0 01-.046-.955v-.185a4.054 4.054 0 01.012-1.141 4.271 4.271 0 01-.309-.831 2.843 2.843 0 01-.21-2.7 2.4 2.4 0 011.013-1.169 6.39 6.39 0 00.351-.232c.188-.131.4-.284.628-.418a3.569 3.569 0 011.39-.454 3.88 3.88 0 01.344-.179c.037-.017.071-.036.106-.053a3.606 3.606 0 01.96-.936 4.069 4.069 0 011.141-.489l.019-.009a3.36 3.36 0 01.249-.178c.083-.072.173-.134.258-.2a3.736 3.736 0 01.948-1.005 4.01 4.01 0 011.166-.534.063.063 0 00.019-.017 6.432 6.432 0 01.639-.569 4.663 4.663 0 01.838-.5c.043-.028.089-.046.134-.071a5.717 5.717 0 01.711-.455c.042-.027.083-.044.126-.071.023-.03.044-.063.067-.088a6.366 6.366 0 01.471-.537 3.9 3.9 0 01.813-1.067 3.281 3.281 0 011.155-.661c.09-.126.2-.265.325-.418a3.564 3.564 0 011.728-1.873c.071-.086.146-.182.218-.282s.163-.214.244-.313a4.607 4.607 0 01.758-.747.151.151 0 01.055-.044c.145-.2.274-.394.387-.57a.248.248 0 00.01-.037 4.309 4.309 0 01.372-1.023 4.158 4.158 0 01.462-.676 3.58 3.58 0 01.158-.991 3.524 3.524 0 01.569-1.051v-.1c0-.092 0-.171.008-.25a1.494 1.494 0 00-.026-.106 4.791 4.791 0 01-.146-.75 8.588 8.588 0 01-.023-.41 3.012 3.012 0 01-.486-.659 2.783 2.783 0 01-.139-.284 7.341 7.341 0 01-.232-.716c-.011-.032-.02-.079-.029-.114a1.235 1.235 0 01-.089-.1 6 6 0 01-.4-.49 5.394 5.394 0 01-.423-.714c-.011-.019-.02-.034-.029-.054-.068-.072-.129-.141-.183-.2a3.122 3.122 0 01-.866-.248 3.331 3.331 0 01-.838-.529h-.023c-.159 0-.307-.016-.453-.025-.2-.016-.388-.052-.544-.079a3.35 3.35 0 01-1.106.356 3.483 3.483 0 01-1.367-.115 11.74 11.74 0 00-.526.134 3.625 3.625 0 00-.337.135c-.167.071-.36.15-.58.229-.078.027-.216.091-.349.153s-.291.139-.462.214a.439.439 0 00-.083.059 4.842 4.842 0 01-.878.538 7.051 7.051 0 01-.783.282 1.682 1.682 0 00-.2.064c-.086.042-.2.114-.324.186q-.2.135-.446.269c-.021.017-.041.043-.062.059a4.649 4.649 0 01-.861.66 3.862 3.862 0 01-1.12.43.2.2 0 01-.039.016c-.161.09-.312.17-.444.242a3.186 3.186 0 00-.325.167 5.583 5.583 0 00-.313.24c-.155.116-.328.258-.536.394-.072.054-.178.142-.29.233-.153.122-.329.277-.538.418-.131.1-.261.186-.386.268-.17.125-.329.232-.478.34a5.16 5.16 0 01-.941.544.078.078 0 01-.037.015 3.964 3.964 0 01-.657.688 2.404 2.404 0 01-3.134-3.645 4.487 4.487 0 011.763-1.4 1.121 1.121 0 00.167-.088c.183-.135.38-.266.585-.41.111-.071.224-.151.345-.24.051-.038.145-.118.232-.189a8.466 8.466 0 01.681-.523c.064-.046.163-.118.262-.2.182-.146.411-.323.676-.5s.49-.281.7-.388a3.518 3.518 0 00.324-.179 4.032 4.032 0 011.122-.446 4.333 4.333 0 01.926-.7 2.8 2.8 0 00.3-.174 6.924 6.924 0 01.727-.412 6.316 6.316 0 01.92-.353.994.994 0 00.158-.047l.07-.055a5.007 5.007 0 011.015-.594c.106-.035.209-.09.311-.134.222-.107.5-.24.817-.357.1-.033.2-.08.3-.115a6.265 6.265 0 01.869-.329c.4-.116.792-.2 1.142-.278l.106-.015a3.2 3.2 0 011.372.008 3.242 3.242 0 011.289-.32 5.4 5.4 0 011.186.107 1.639 1.639 0 00.225.033c.088.011.175.011.261.019a6.8 6.8 0 011.21.153 3.471 3.471 0 011.343.695 3.373 3.373 0 011.511.544 4.789 4.789 0 01.987.952 1.207 1.207 0 00.126.151 4.3 4.3 0 01.778 1.125c.023.035.043.079.07.124s.072.079.108.123a5.436 5.436 0 01.726 1.008 4.479 4.479 0 01.341.845 3.163 3.163 0 01.946 1.53 4.132 4.132 0 01.15 1.383v.214a.581.581 0 01.026.091 4.6 4.6 0 01.171 1.451 2.457 2.457 0 00-.009.23 7.218 7.218 0 01-.121 1.233 3.2 3.2 0 01-.6 1.29 3.408 3.408 0 01-.27 1.325 3.888 3.888 0 01-.734 1.087 4.051 4.051 0 01-.491 1.2c-.214.347-.446.677-.707 1.044a4.581 4.581 0 01-.833.866.486.486 0 00-.09.067l-.151.2a12.23 12.23 0 01-.558.7 3.46 3.46 0 01-.944.759 3.68 3.68 0 01-.66.961 1.091 1.091 0 00-.09.124 5.308 5.308 0 01-.688.829 3.024 3.024 0 01-1.108.667 3.466 3.466 0 01-.655.787c-.03.032-.058.079-.09.116a5.267 5.267 0 01-.755.783 5.787 5.787 0 01-.8.533l-.185.107a5.288 5.288 0 01-.865.526c-.047.025-.094.043-.138.071s-.09.088-.133.134a6.443 6.443 0 01-.715.624 3.608 3.608 0 00-1.866 1.328c-.111.08-.221.162-.329.241-.175.134-.375.274-.6.426a3.7 3.7 0 01-.968.446 3.471 3.471 0 01-.91.849c-.25.147-.49.274-.684.371a4.376 4.376 0 00-.316.171 3.482 3.482 0 01-.406.2 4.636 4.636 0 01.143.578 4.08 4.08 0 01-.027 1.287c0 .013-.007.043-.011.062a6.052 6.052 0 01.027.775 3.521 3.521 0 01.481 1.333c.035.27.052.517.064.74.007.142.016.285.035.428a4.423 4.423 0 01-.032 1.141c0 .043-.007.08-.012.123a4.536 4.536 0 01-.02.9 3.5 3.5 0 01.394 1.317 4.107 4.107 0 01-.09 1.15 3.69 3.69 0 01.277 1.185c.008.133.013.26.023.382.016.27.035.526.043.791a3.406 3.406 0 01-.224 1.305 4.016 4.016 0 01.166 1.005c.005.046.017.09.027.143a4.838 4.838 0 01.122 1.112 3.17 3.17 0 01-.372 1.4 3.746 3.746 0 01.076 1.052 2.409 2.409 0 01-1.648 2.091 2.974 2.974 0 01-1.872.029 3.527 3.527 0 01-1.108.175c-.313 0-.47 0-.628-.008-.118 0-.237-.008-.478-.008a3.761 3.761 0 01-1.253-.2c-.04 0-.078.008-.131.008a5.934 5.934 0 01-.821.054h-.059l-.043.011a5.294 5.294 0 01-1.005.1c-.3 0-.447-.009-.6-.009-.126 0-.255-.009-.509-.009a4.015 4.015 0 01-.933-.117 3.191 3.191 0 01-1.272.258 5.822 5.822 0 01-.984-.088l-.062-.017h-.059a4.021 4.021 0 01-1.177-.162 1.367 1.367 0 00-.213.02c-.214.016-.439.043-.818.043a3.785 3.785 0 01-1.138-.17 3.735 3.735 0 01-1.07.143 4.5 4.5 0 01-.839-.079 3.311 3.311 0 01-1.37.293 3.621 3.621 0 01-1.279-.222c-.229 0-.376-.008-.5-.008a3.753 3.753 0 00-.43-.02 6.286 6.286 0 01-.868-.054c-.017 0-.036-.009-.052-.009a3.455 3.455 0 01-1.288.234c-.161 0-.217 0-.324.008a5.823 5.823 0 01-.779.044 2.289 2.289 0 00-.272.009 6.273 6.273 0 01-.816.051z"/></g><g data-name="グループ 18647"><g data-name="グループ 18645"><path data-name="パス 331461" d="M82.676 84.182a3 3 0 01.439.981 5.761 5.761 0 01.2 1.058 6.955 6.955 0 010 1.08 7.489 7.489 0 01-.079 1.067 9.266 9.266 0 01-.254 1.054c-.1.32-.264.64-.407 1-.131.313-.323.616-.5.943-.158.312-.256.659-.452.98-.179.3-.41.58-.625.89-.194.286-.412.573-.643.866-.21.277-.446.542-.688.839-.225.268-.426.568-.676.845-.237.257-.489.5-.748.766-.478-.285-.356-.419-.715-.854s-.339-.446-.7-.885-.348-.434-.709-.863-.407-.391-.764-.821-.364-.426-.72-.851-.375-.42-.735-.855-.311-.474-.669-.91-.395-.4-.751-.829-.358-.435-.716-.874-.34-.444-.7-.87-.349-.439-.711-.874-.4-.392-.762-.827-.348-.448-.708-.874-.328-.462-.692-.9-.357-.434-.719-.87-.533-.329-.74-.854c.315-.178.626-.359.948-.527s.667-.294.993-.454.619-.4.951-.544.707-.2 1.04-.337.655-.349 1-.465.7-.23 1.045-.331.727-.115 1.08-.185.723-.126 1.079-.171.723-.08 1.083-.088a10.111 10.111 0 011.09.029 6.868 6.868 0 011.083.149 6.538 6.538 0 011.023.384 5.064 5.064 0 01.952.533 6.606 6.606 0 01.839.7 7.409 7.409 0 01.72.826 9.961 9.961 0 01.554.943c.154.304.317.624.464.98z" fill="#fff"/></g><g data-name="グループ 18646"><path data-name="パス 331462" d="M78.228 98.935c-.031 0-.06-.025-.091-.025a2.337 2.337 0 01-.976-.179 2.264 2.264 0 01-.782-.631c-.357-.43-.328-.446-.688-.881s-.416-.384-.778-.822-.349-.435-.708-.862-.368-.419-.728-.847-.295-.479-.653-.918-.434-.365-.794-.8-.347-.446-.707-.874-.319-.463-.677-.9-.383-.41-.744-.846-.315-.462-.675-.892-.422-.382-.785-.81-.319-.463-.677-.9-.4-.4-.758-.842-.321-.461-.683-.9-.371-.427-.732-.863l-.727-.87a2.451 2.451 0 01-.491-.93 2.348 2.348 0 01.035-1.032 2.256 2.256 0 01.4-.936 2.435 2.435 0 01.7-.791c.333-.19.691-.323 1.017-.493s.7-.293 1.029-.462c.347-.17.667-.367 1-.517.351-.161.695-.305 1.036-.447s.705-.277 1.052-.4.7-.315 1.052-.419.759-.1 1.117-.178.739-.154 1.1-.214.734-.214 1.1-.25.758.009 1.123.009.75.027 1.115.062a10.414 10.414 0 011.091.2 16.929 16.929 0 012.121.679 8.061 8.061 0 01.926.624 7.674 7.674 0 01.853.7 9.553 9.553 0 01.825.758 9.969 9.969 0 01.675.879 10.616 10.616 0 01.556.973c.174.321.4.622.552.968a7.33 7.33 0 01.455 1.071 8.545 8.545 0 01.236 1.142 7.693 7.693 0 01.2 1.139 9.407 9.407 0 01-.075 1.158 10.644 10.644 0 01-.084 1.122c-.064.356-.094.74-.2 1.1s-.307.687-.442 1.044c-.129.336-.254.693-.414 1.043-.157.328-.337.647-.522.985-.177.323-.325.663-.529.989s-.4.624-.624.934-.442.6-.677.9c-.225.282-.438.594-.684.881s-.467.586-.723.873-.57.489-.838.767a2.385 2.385 0 01-.751.586 2.45 2.45 0 01-.949.145zm-7.77-15.418c.175.525.337.454.692.87s.412.384.764.806.341.435.7.853.324.454.679.882.408.375.76.794.347.435.7.862.364.412.719.839.292.473.647.9.431.37.786.8.343.438.7.874.19.612.677.888c.248-.32.462-.64.668-.944.234-.331.486-.622.668-.934.209-.359.313-.731.467-1.05a10.3 10.3 0 00.474-1.036 6.491 6.491 0 00.236-1.122 5.787 5.787 0 00.122-1.122 2.789 2.789 0 00-.253-1.087 1.411 1.411 0 01-.253-.49 7.663 7.663 0 00-.513-1.016 4.839 4.839 0 00-.625-.942 3.732 3.732 0 00-.917-.7 3.912 3.912 0 00-1.1-.266 5.454 5.454 0 00-1.118-.163 7.475 7.475 0 00-1.178.031 11.35 11.35 0 00-1.146.265c-.365.091-.74.2-1.125.331-.361.115-.732.248-1.11.4-.362.126-.753.303-1.121.475z"/></g></g><g data-name="グループ 18648"><path data-name="パス 331463" d="M43.528 90.668c0 .554-.082.554-.082 1.1s.134.544.134 1.1-.139.556-.139 1.1.046.544.046 1.1.056.542.056 1.094-.1.554-.1 1.1.067.552.067 1.1.036.542.036 1.094-.04.554-.04 1.107-.06.545-.06 1.094v1.106c0 .553.036.542.036 1.1s.094.552.094 1.106.019.542.019 1.084v2.207c0 .553-.051.542-.051 1.1s-.082.556-.082 1.1.145.544.145 1.1-.092.553-.092 1.1.035.552.035 1.1-.1.553-.1 1.106.171.552.171 1.106-.1.553-.1 1.1.043.552.043 1.1-.084.553-.084 1.1.066.554.066 1.107.036.552.036 1.1-.127.552-.127 1.111-.02.554-.02 1.117.029.552.029 1.1" fill="#fff"/><path data-name="パス 331464" d="M43.461 127.21a2.406 2.406 0 01-2.4-2.406c0-.2-.007-.312-.011-.418-.009-.15-.021-.34-.021-.685 0-.313.005-.473.012-.633 0-.116.009-.23.009-.465a4.48 4.48 0 01.123-1.092v-.012c0-.2-.005-.276-.012-.388-.009-.162-.023-.359-.023-.715a1.36 1.36 0 00-.019-.266 6.842 6.842 0 01-.047-.829 5.333 5.333 0 01.071-.921.9.9 0 00.016-.185c0-.187-.008-.25-.016-.365-.015-.2-.028-.4-.028-.74a4.9 4.9 0 01.083-.952c0-.019 0-.034.007-.063a3.879 3.879 0 01-.17-1.183 4.74 4.74 0 01.1-1.007l.009-.052v-.044c0-.19-.005-.268-.015-.385-.009-.158-.026-.355-.026-.712a5.033 5.033 0 01.084-.963l.011-.062v-.048a4.106 4.106 0 01-.146-1.13 5.423 5.423 0 01.066-.89 1.21 1.21 0 00.015-.213c0-.384.02-.608.034-.776a2.377 2.377 0 00.015-.328v-2.2c0-.238 0-.363-.005-.489 0-.149-.009-.3-.009-.605v-.079c0-.028-.007-.046-.008-.062a4.909 4.909 0 01-.087-.964c0-.183 0-.266-.009-.372a7.579 7.579 0 01-.029-.731v-1.096a6.743 6.743 0 01.048-.821 1.722 1.722 0 00.017-.285c0-.365.012-.56.026-.728.009-.118.015-.189.015-.364a3.822 3.822 0 00-.015-.384c-.009-.163-.026-.368-.026-.722a1.7 1.7 0 00-.015-.25 6.525 6.525 0 01-.054-.847 5.152 5.152 0 01.094-1l.012-.062v-.044a2.38 2.38 0 00-.016-.3 6.821 6.821 0 01-.044-.8c0-.178 0-.241-.012-.357a7.85 7.85 0 01-.031-.74 4.258 4.258 0 01.133-1.1 4.375 4.375 0 01-.128-1.1 5.86 5.86 0 01.064-.91.747.747 0 00.016-.194 2.406 2.406 0 114.811 0 6.345 6.345 0 01-.064.908.675.675 0 00-.019.178 4.265 4.265 0 01.135 1.114 4.387 4.387 0 01-.135 1.123 3.1 3.1 0 00.012.337c.013.2.031.4.031.742a2 2 0 00.015.3 6.847 6.847 0 01.039.8 5.437 5.437 0 01-.088 1l-.015.056v.051a1.525 1.525 0 00.019.252 6.428 6.428 0 01.051.846 3.716 3.716 0 00.016.382c.011.161.024.357.024.724s-.016.56-.03.717a5.105 5.105 0 00-.011.375 6.5 6.5 0 01-.048.821 1.945 1.945 0 00-.015.285c0 .288 0 .427-.007.561v.536c0 .2.007.268.015.381.011.162.024.357.024.722a.5.5 0 000 .082.5.5 0 01.008.062 4.787 4.787 0 01.084.961c0 .242.005.365.007.489.005.154.007.3.007.605v2.2c0 .391-.017.615-.032.774a2.252 2.252 0 00-.017.331 5.945 5.945 0 01-.06.89.824.824 0 00-.017.178 4.3 4.3 0 01.143 1.131 5.489 5.489 0 01-.079.964.181.181 0 00-.012.06.454.454 0 000 .082 3.676 3.676 0 00.016.382c.011.161.024.357.024.716a4.92 4.92 0 01-.1 1.005l-.005.027a3.8 3.8 0 01.17 1.175 5.43 5.43 0 01-.08.952.375.375 0 00-.011.064.454.454 0 00-.005.078 3.532 3.532 0 00.016.368c.016.2.028.4.028.738a5.466 5.466 0 01-.074.92.943.943 0 00-.012.186 1.635 1.635 0 00.016.265 7.068 7.068 0 01.048.83c0 .2.007.276.013.394.011.159.024.353.024.71a4.451 4.451 0 01-.126 1.095v.009c0 .315-.008.472-.015.633 0 .117-.007.233-.007.465 0 .215.007.32.013.418.008.153.019.348.019.685a2.407 2.407 0 01-2.402 2.399z"/></g><g data-name="グループ 18649"><path data-name="パス 331465" d="M43.705 95.407c.443.268.453.252.893.517s.461.24.9.509.416.313.855.58.467.23.91.5.436.277.884.544.427.3.872.57.385.606.893.5c.553-.115.361-.408.715-.854s.353-.435.706-.882.337-.453.688-.9.371-.43.723-.865.373-.428.728-.863.313-.474.665-.918.388-.416.743-.855.335-.463.691-.908.383-.42.739-.863.325-.471.683-.918" fill="#ed8c00"/><path data-name="パス 331466" d="M49.737 101.541a2.79 2.79 0 01-2.117-.96 6.392 6.392 0 01-.4-.269c-.078-.052-.151-.107-.309-.2a5.728 5.728 0 01-.475-.3l-.406-.249a1.73 1.73 0 00-.262-.139c-.177-.094-.36-.181-.651-.357s-.455-.3-.613-.412a2.241 2.241 0 00-.244-.167c-.147-.092-.208-.116-.307-.171a12.6 12.6 0 01-.6-.339c-.175-.108-.268-.15-.357-.2a11.1 11.1 0 01-.535-.315 2.404 2.404 0 112.5-4.106c.177.106.27.151.357.2.137.082.274.151.539.315a3.04 3.04 0 00.305.167c.134.072.3.162.6.337a7.15 7.15 0 01.616.418c.082.055.116.082.242.163a2.438 2.438 0 00.264.143c.174.087.353.177.644.355.241.142.357.214.477.293.1.064.19.116.378.232l.082-.106c.145-.177.216-.277.282-.365.1-.141.2-.277.4-.534s.32-.384.432-.518a5.54 5.54 0 00.3-.355c.212-.268.336-.41.439-.525a4.183 4.183 0 00.289-.34c.114-.141.149-.2.217-.293.09-.135.213-.323.453-.624s.378-.444.493-.572a2.53 2.53 0 00.249-.285l.281-.363c.1-.142.2-.277.406-.534.226-.287.36-.426.469-.553.083-.09.139-.151.266-.313a3.432 3.432 0 00.237-.319c.1-.134.21-.305.442-.6a2.405 2.405 0 013.759 3 3.464 3.464 0 00-.234.32c-.094.135-.213.3-.442.6-.224.276-.361.428-.466.544a4.077 4.077 0 00-.27.32c-.146.179-.214.276-.281.365-.1.135-.2.269-.41.533-.233.3-.378.446-.49.573-.079.088-.132.141-.249.285a3.5 3.5 0 00-.217.293c-.092.133-.216.32-.455.625-.213.266-.339.408-.439.523-.078.08-.149.171-.287.34-.21.266-.32.39-.43.514-.074.091-.155.181-.3.357s-.213.276-.281.368c-.1.142-.2.273-.406.531l-.612.767a2.908 2.908 0 01-2.179 1.823 3.172 3.172 0 01-.694.079z"/></g><g data-name="グループ 18650"><path data-name="パス 331467" d="M43.337 95.379c-.439.268-.455.248-.893.515s-.427.295-.869.561-.423.289-.865.556-.472.221-.914.487-.416.32-.861.588-.466.233-.913.5-.363.66-.872.544c-.553-.116-.336-.436-.688-.882s-.367-.43-.719-.873-.339-.454-.693-.89-.4-.4-.754-.846-.341-.447-.692-.893-.335-.463-.688-.9-.355-.446-.711-.89-.329-.463-.687-.909-.394-.408-.751-.855-.331-.461-.688-.908" fill="#ed8c00"/><path data-name="パス 331468" d="M37.309 101.553a3.024 3.024 0 01-.671-.068 2.908 2.908 0 01-2.182-1.89c-.076-.1-.13-.159-.186-.224-.1-.123-.21-.24-.414-.5s-.3-.382-.395-.517c-.076-.1-.145-.186-.295-.375a2.229 2.229 0 00-.193-.221 6.346 6.346 0 01-.565-.624c-.2-.25-.3-.383-.4-.509-.071-.1-.146-.2-.3-.391-.213-.27-.315-.4-.414-.544a14.944 14.944 0 00-.273-.357l-.709-.882c-.216-.276-.328-.428-.42-.55a3.22 3.22 0 00-.264-.357 1.839 1.839 0 00-.237-.265c-.112-.126-.268-.29-.51-.59a14.895 14.895 0 01-.419-.552 4.636 4.636 0 00-.265-.359 2.404 2.404 0 013.756-3c.217.276.327.427.418.56.064.092.131.179.266.351a2.3 2.3 0 00.237.265c.112.123.268.288.51.589.218.266.331.428.419.553.064.087.128.178.265.348l.708.89c.214.265.324.418.415.541.067.091.131.178.272.356.2.254.3.375.39.51.074.1.15.2.305.394.088.106.118.13.194.212a7.586 7.586 0 01.565.625c.2.258.3.391.4.517.072.1.143.2.293.382.043.054.08.1.11.134a1.044 1.044 0 00.183-.124 7.065 7.065 0 01.627-.428 6.978 6.978 0 01.692-.364 1.609 1.609 0 00.224-.124c.165-.1.246-.154.327-.2.119-.079.268-.189.542-.345.162-.107.248-.161.327-.217.119-.079.266-.186.542-.348a6.286 6.286 0 01.556-.32c.088-.041.17-.1.34-.2a2.404 2.404 0 012.5 4.107c-.274.167-.43.252-.558.323a3.777 3.777 0 00-.34.194 2.993 2.993 0 00-.331.216 9.638 9.638 0 01-.539.345 3.64 3.64 0 00-.327.213 11.39 11.39 0 01-.545.348 5.163 5.163 0 01-.691.367 1.511 1.511 0 00-.22.125 2.711 2.711 0 00-.232.153 5.072 5.072 0 01-.629.427 6.386 6.386 0 01-.643.353.249.249 0 00-.072.038 2.752 2.752 0 01-2.144 1.009z"/></g><g data-name="グループ 18653"><g data-name="グループ 18651"><path data-name="パス 331469" d="M3.144 84.193a2.887 2.887 0 00-.439.98 5.229 5.229 0 00-.245 1.048 6.989 6.989 0 00-.011 1.08 80.993 80.993 0 00.41 2.111c.1.323.253.643.4 1 .135.312.249.649.424.987.155.305.317.623.511.944.178.3.381.6.594.91.2.286.388.588.616.89.212.279.464.537.7.821.224.268.513.5.766.774.236.258.46.588.72.855.479-.295.321-.481.68-.908s.407-.394.768-.821.329-.451.689-.892.376-.41.731-.835.307-.482.667-.91.382-.416.739-.845.407-.394.769-.829.306-.475.665-.9.4-.4.762-.839.3-.471.664-.9.359-.435.718-.863.384-.411.743-.846.372-.428.734-.855.347-.453.708-.884.4-.411.763-.845.509-.356.715-.88c-.313-.179-.631-.394-.957-.572s-.656-.3-.984-.463-.655-.323-.989-.465-.677-.265-1.015-.4-.687-.257-1.028-.375-.7-.2-1.047-.3-.708-.189-1.062-.264-.705-.217-1.064-.254a9.308 9.308 0 00-1.094 0 9.107 9.107 0 00-1.094-.027 7.634 7.634 0 00-1.072.206 6.277 6.277 0 00-1.948.952 5.422 5.422 0 00-.841.681 7.036 7.036 0 00-.68.834 7.817 7.817 0 00-.59.917 9.868 9.868 0 00-.496.982z" fill="#fff"/></g><g data-name="グループ 18652"><path data-name="パス 331470" d="M7.575 98.999a2.526 2.526 0 01-.957-.17 2.463 2.463 0 01-.738-.616c-.266-.277-.5-.561-.758-.837s-.549-.518-.786-.8-.529-.55-.754-.838-.455-.615-.665-.908c-.222-.313-.356-.679-.553-.989s-.446-.614-.623-.933c-.186-.341-.344-.68-.5-1.009-.159-.345-.262-.714-.394-1.05-.133-.357-.253-.714-.353-1.072s-.19-.72-.254-1.086a9.711 9.711 0 01-.087-1.112 9.278 9.278 0 01-.048-1.166 13.05 13.05 0 01.4-2.283 6.507 6.507 0 01.5-1.043c.149-.344.372-.649.546-.972a10.852 10.852 0 01.549-.968 9.587 9.587 0 01.683-.874 7.507 7.507 0 01.789-.783 6.863 6.863 0 012.8-1.8 8.441 8.441 0 011.074-.323 9.189 9.189 0 011.118-.107 11.133 11.133 0 011.114-.09c.367 0 .744.009 1.129.036.363.036.74.071 1.118.145.361.05.712.2 1.084.29s.722.179 1.088.287c.349.107.722.169 1.084.3.347.115.679.3 1.032.446s.716.213 1.066.372.653.368 1 .535.657.348 1 .527.636.39.97.578a2.58 2.58 0 011.21 1.6 2.727 2.727 0 01-.533 1.96c-.359.427-.372.418-.73.846s-.321.464-.683.9c-.359.422-.412.378-.771.806s-.3.482-.659.91-.372.42-.731.845-.315.473-.673.909-.352.438-.711.863-.4.4-.762.831-.353.442-.716.872-.348.434-.705.866-.391.407-.75.845-.32.462-.679.889-.388.419-.747.849-.377.426-.742.855-.313.482-.676.917-.445.363-.806.8a2.522 2.522 0 01-.719.7 2.463 2.463 0 01-.992.217c-.038.014-.067.033-.099.033zm-2.408-13.4a3.1 3.1 0 00-.213 1.09 4.645 4.645 0 00-.023 1.138 7.207 7.207 0 00.265 1.112 10.514 10.514 0 00.485 1.035c.151.321.377.623.584.971.183.312.38.632.612.971.207.294.412.668.663.983.481-.271.319-.471.672-.893s.363-.418.715-.845.387-.392.74-.822.348-.426.706-.854.343-.428.693-.854.392-.394.746-.821.324-.446.675-.873.361-.418.716-.847.309-.462.665-.89.368-.42.726-.846.6-.3.78-.829c-.37-.17-.776-.375-1.131-.506-.38-.153-.746-.3-1.107-.414-.387-.12-.764-.256-1.13-.345a11.35 11.35 0 00-1.162-.177 8.65 8.65 0 00-1.167-.028 5.363 5.363 0 00-1.118.107 4 4 0 00-1.046.382 3.536 3.536 0 00-.941.625 4.494 4.494 0 00-.652.917 6.721 6.721 0 00-.489 1.025 1.429 1.429 0 01-.264.487z"/></g></g><g data-name="グループ 18654" fill="#fff"><path data-name="パス 331471" d="M51.475 104.253h-2a.1.1 0 00-.1.1v.384a.1.1 0 00.1.1h.685v2.37a.1.1 0 00.1.1h.434a.1.1 0 00.1-.1v-2.37h.689a.1.1 0 00.094-.1v-.384a.1.1 0 00-.102-.1z"/><path data-name="パス 331472" d="M53.292 104.226a1.076 1.076 0 00-.806.323c-.317.309-.317.64-.317 1.225s0 .92.317 1.233a1.179 1.179 0 001.612 0c.317-.313.317-.66.317-1.233s0-.916-.317-1.225a1.076 1.076 0 00-.806-.323zm-.352 2.37c-.112-.116-.145-.249-.145-.822s.032-.7.142-.826a.512.512 0 01.711 0c.112.124.138.268.138.826s-.025.7-.138.822a.5.5 0 01-.708 0z"/><path data-name="パス 331473" d="M56.923 105.989a.839.839 0 00.528-.809.914.914 0 00-.983-.928H55.36a.1.1 0 00-.1.1v2.85a.1.1 0 00.1.1h.436a.1.1 0 00.1-.1v-1.1h.383l.574 1.149a.105.105 0 00.087.054h.509a.1.1 0 00.1-.1.079.079 0 00-.023-.062zm-.486-.455h-.545v-.7h.545a.342.342 0 01.384.357.337.337 0 01-.384.343z"/><path data-name="長方形 4470" d="M58.366 104.252h.48a.072.072 0 01.073.072v2.9a.073.073 0 01-.073.073h-.48a.073.073 0 01-.073-.07v-2.902a.073.073 0 01.073-.073z"/></g><g data-name="グループ 18685"><g data-name="グループ 18659"><g data-name="グループ 18656"><g data-name="グループ 18655"><path data-name="パス 331474" d="M82.356 60.753c0 17.754-17.393 29.979-38.847 29.979S4.67 78.507 4.67 60.753s9.8-39.689 38.839-39.689 38.847 21.935 38.847 39.689z" fill="#fff"/></g></g><g data-name="グループ 18658"><g data-name="グループ 18657"><path data-name="パス 331475" d="M43.509 93.215c-.446 0-.9.224-1.343.214s-.9-.052-1.34-.08-.888-.2-1.333-.241-.873-.268-1.316-.3-.886-.1-1.327-.141-.934.233-1.375.169-.874-.213-1.312-.3-.912.009-1.352-.078-.859-.276-1.293-.376-.821-.418-1.252-.523-.842-.3-1.27-.427-.926-.008-1.351-.135-.9-.159-1.317-.3-.865-.248-1.282-.408-.77-.489-1.185-.657-.889-.2-1.3-.375-.827-.357-1.226-.554-.817-.383-1.214-.589-.693-.6-1.083-.818-.912-.217-1.3-.436-.667-.635-1.042-.874-.592-.712-.959-.969-.885-.288-1.242-.562c-.352-.257-.62-.633-.961-.908s-.649-.589-.981-.884-.59-.652-.908-.952-.9-.349-1.2-.661-.692-.569-.983-.9-.533-.72-.814-1.051c-.278-.349-.43-.794-.693-1.142s-.7-.586-.946-.952-.313-.854-.546-1.229-.477-.74-.693-1.122-.419-.775-.621-1.167-.447-.756-.629-1.169-.3-.83-.462-1.237-.4-.793-.548-1.2-.26-.846-.383-1.272.013-.91-.09-1.337-.339-.83-.419-1.256-.258-.855-.315-1.292-.145-.874-.189-1.311.26-.9.236-1.344-.336-.865-.336-1.311c0-.43.108-.881.123-1.361.009-.438-.189-.9-.165-1.374.024-.443.507-.863.547-1.336.035-.436-.165-.916-.115-1.383.047-.432.328-.862.391-1.325.058-.436 0-.9.076-1.363.071-.434.051-.9.138-1.356s.091-.908.189-1.361c.1-.438.525-.8.639-1.244s.161-.894.281-1.34c.122-.427-.084-.963.054-1.406s.475-.8.624-1.232.367-.825.529-1.265c.161-.416.194-.89.369-1.316s.582-.732.77-1.151.028-.988.232-1.408c.2-.4.723-.639.94-1.05.215-.394.194-.926.423-1.327.226-.382.648-.668.89-1.052s.323-.873.581-1.256.617-.677.892-1.042.643-.649.928-1.008.369-.864.66-1.212.47-.791.774-1.13.728-.553 1.048-.873.724-.554 1.055-.865.7-.564 1.044-.857.676-.6 1.023-.88.716-.546 1.08-.811.79-.447 1.159-.695.561-.794.948-1.033.772-.474 1.166-.695.941-.161 1.341-.375.819-.363 1.229-.553.752-.507 1.169-.693.768-.5 1.189-.671.918-.106 1.348-.258.764-.552 1.2-.684.842-.348 1.275-.471.948.044 1.388-.063.814-.479 1.261-.58.959.206 1.4.124.878-.179 1.329-.248.846-.436 1.3-.491.892-.171 1.343-.213.908.035 1.364 0 .91.178 1.365.159.89-.224 1.345-.232.9-.178 1.353-.178.909.206 1.355.213.9.2 1.347.224.913-.133 1.36-.107.9.054 1.349.1.921-.036 1.365.019.838.542 1.284.613.968-.321 1.408-.241.81.57 1.25.668.963-.151 1.4-.044.873.258 1.3.384.877.249 1.305.383.825.39 1.249.542.789.462 1.2.625.872.257 1.284.434.873.258 1.281.455.888.258 1.288.463.665.665 1.058.889.675.628 1.059.858.849.337 1.221.6.723.534 1.087.8.926.273 1.278.56.635.66.975.953.5.794.831 1.1.8.471 1.118.791.639.643.942.972.419.827.712 1.178.748.542 1.028.9.482.783.751 1.15.47.785.723 1.155.513.75.756 1.133.36.847.586 1.238.8.6 1.015 1 .2.924.4 1.328.419.817.6 1.229.448.8.622 1.221.439.811.6 1.228.327.854.475 1.282-.062.979.074 1.416.3.855.423 1.293.325.855.432 1.29.126.909.222 1.344c.1.455.418.857.5 1.295.083.454.154.909.228 1.344.074.465.179.908.24 1.353s.1.909.151 1.352c.046.467.083.92.119 1.367s.21.916.233 1.352c.024.473.028.936.04 1.374.011.481-.266.932-.266 1.361 0 .446.171.892.15 1.328s-.325.855-.367 1.289.134.9.074 1.339-.25.846-.332 1.282-.087.873-.193 1.309-.256.838-.378 1.258-.293.825-.436 1.244-.174.875-.336 1.285-.423.774-.6 1.175-.328.811-.525 1.209-.464.742-.681 1.127-.21.908-.442 1.272-.426.793-.677 1.151-.885.443-1.155.79-.384.811-.663 1.158-.479.748-.774 1.08-.616.632-.924.943-.655.588-.98.892-.494.764-.827 1.059-.719.515-1.062.8-.715.518-1.068.785-.851.348-1.222.6-.7.562-1.075.8-.639.669-1.023.892-.971.107-1.363.321-.744.49-1.142.695-.716.561-1.123.747-.73.564-1.142.739-.984-.035-1.4.134-.736.564-1.157.723-.937.017-1.358.159-.759.556-1.19.679-.894.116-1.325.23-.873.187-1.305.305-.79.55-1.229.639-.936-.123-1.375-.035-.845.339-1.288.41-.906-.019-1.349.044-.888.055-1.335.107-.882.088-1.328.124-.867.375-1.312.4-.9.02-1.344.044-.893.108-1.339.124-.884-.202-1.335-.202zm0-69.675c-.448 0-.885.245-1.327.252s-.888 0-1.329.028-.9-.119-1.336-.082-.913-.127-1.347-.071-.9.1-1.332.158-.833.473-1.265.545-.894.08-1.323.17-.834.337-1.262.444-.885.116-1.308.233-.922.027-1.345.169-.881.193-1.3.347-.752.534-1.159.7-.771.454-1.175.633-.781.42-1.171.616-.881.241-1.265.451-.691.573-1.067.806-.74.491-1.107.728c-.368.26-.716.518-1.072.786s-.835.364-1.177.641-.507.772-.839 1.07-.78.453-1.1.764-.826.436-1.13.759-.406.843-.693 1.174-.675.6-.952.946-.578.685-.839 1.039-.6.68-.845 1.043-.173.947-.4 1.319-.367.81-.584 1.194-.49.739-.691 1.131-.542.722-.73 1.123-.174.892-.348 1.3-.538.74-.7 1.151-.3.838-.438 1.257-.285.845-.418 1.262-.19.873-.309 1.3-.277.838-.38 1.273-.107.881-.194 1.317-.19.865-.264 1.3-.4.839-.463 1.274.027.9-.024 1.345.009.89-.029 1.328-.036.89-.064 1.325-.368.884-.382 1.319.292.9.292 1.337c0 .455-.1.909-.067 1.352s.281.885.329 1.327-.337.964-.261 1.411.4.846.5 1.293 0 .934.126 1.368.39.831.545 1.258.414.81.594 1.228.447.783.651 1.186.127.964.356 1.355.522.746.774 1.13.79.544 1.062.91.38.847.669 1.193.537.739.845 1.071.723.56 1.048.88.481.8.821 1.106.934.3 1.286.588.482.847.849 1.122c.349.258.866.3 1.226.544s.607.668.975.9.851.284 1.23.509.7.539 1.084.747.716.525 1.114.711.9.153 1.3.333.863.191 1.268.355.752.462 1.166.615.779.407 1.193.55.817.329 1.236.456.846.222 1.272.339.845.23 1.269.328.833.3 1.264.384.921-.161 1.353-.088.858.15 1.291.222.822.438 1.256.5.868.149 1.3.2.888-.067 1.323-.027.882-.108 1.32-.083.863.258 1.3.268.88-.249 1.316-.249.874-.09 1.309-.106.882.265 1.321.248.854-.329 1.29-.356.906.321 1.341.278.871-.118 1.307-.17.825-.42 1.256-.483.85-.2 1.279-.276.881-.043 1.309-.142.908.051 1.332-.044.808-.392 1.228-.51.8-.391 1.214-.514.9-.063 1.309-.209.888-.122 1.3-.273.755-.49 1.157-.651.8-.356 1.2-.533.734-.483 1.125-.679.981-.007 1.364-.216.545-.835.918-1.048.967-.1 1.332-.329.538-.776.9-1.025.734-.473 1.079-.731c.365-.274.714-.562 1.062-.838s.771-.5 1.1-.793.786-.5 1.106-.81.577-.714.882-1.043.521-.748.806-1.1.436-.8.7-1.158.751-.569 1-.953.659-.659.884-1.051.3-.884.5-1.287.424-.8.6-1.217.04-.955.2-1.372.4-.813.526-1.246.5-.8.6-1.238-.013-.928.064-1.384c.076-.434.128-.881.181-1.333s.337-.881.361-1.336-.19-.909-.19-1.364c0-.434.1-.881.08-1.328s.043-.892.019-1.333-.074-.893-.11-1.34.051-.9 0-1.344-.506-.827-.568-1.264.123-.917.045-1.355-.185-.873-.274-1.309-.272-.845-.375-1.283-.313-.839-.43-1.265-.254-.847-.387-1.265.084-.963-.063-1.391-.34-.829-.5-1.237-.411-.8-.584-1.21-.272-.855-.459-1.258-.594-.7-.8-1.1-.406-.794-.623-1.175-.478-.751-.709-1.133-.459-.758-.706-1.122-.5-.73-.755-1.1-.641-.621-.917-.968-.541-.7-.83-1.028-.376-.854-.681-1.181-.743-.509-1.066-.821-.451-.813-.789-1.112-.817-.414-1.159-.7-.621-.649-.98-.917-.767-.447-1.138-.7-.711-.526-1.09-.758-.74-.5-1.129-.722-.838-.312-1.238-.517-.75-.481-1.157-.668-.826-.312-1.245-.483-.8-.38-1.22-.533-.92-.036-1.345-.178-.859-.186-1.29-.313-.731-.684-1.171-.79c-.424-.1-.9-.012-1.344-.1s-.889-.056-1.329-.134-.87-.161-1.311-.222-.867-.17-1.316-.217-.9.134-1.345.1-.867-.134-1.316-.162-.878-.071-1.328-.087-.86-.181-1.311-.181z"/></g></g></g><g data-name="グループ 18662"><g data-name="グループ 18661"><g data-name="グループ 18660"><path data-name="パス 331476" d="M22.473 59.587a.962.962 0 01-.292.7.988.988 0 01-.711.3c-.333 0-.333.019-.665.019s-.336-.019-.668-.019-.332.027-.665.027h-.665c-.339 0-.339-.08-.669-.08s-.336.046-.669.046a1.057 1.057 0 01-.73-.265 1.087 1.087 0 01-.319-.732c0-.339.106-.339.106-.669s-.1-.328-.1-.667.031-.331.031-.669-.07-.329-.07-.66.145-.339.145-.668-.075-.336-.075-.667a.976.976 0 01.348-.672.934.934 0 01.66-.307c.333 0 .333-.028.664-.028s.336-.028.669-.028.332.108.664.108.335-.019.668-.019.333-.114.668-.114.336.07.669.07a1.094 1.094 0 011.009.989c0 .331-.078.331-.078.659s.123.337.123.667-.112.332-.112.669.087.329.087.669-.067.329-.067.667.044.335.044.674z"/></g></g></g><g data-name="グループ 18671"><g data-name="グループ 18667"><g data-name="グループ 18664"><g data-name="グループ 18663"><path data-name="パス 331477" d="M70.546 59.587a1.063 1.063 0 01-.238.747 1.122 1.122 0 01-.755.3c-.327 0-.327-.052-.663-.052s-.333-.06-.665-.06h-.667c-.335 0-.335.1-.667.1s-.336-.025-.671-.025-.331.054-.668.054a1.124 1.124 0 01-.732-.336 1.023 1.023 0 01-.232-.732c0-.339.028-.339.028-.669s-.074-.328-.074-.667-.039-.331-.039-.669-.016-.329-.016-.66.062-.339.062-.668-.048-.336-.048-.667a1.094 1.094 0 01.307-.748 1.114 1.114 0 01.744-.311c.337 0 .337.07.667.07s.335-.088.667-.088.333.062.665.062.336.079.668.079.335-.079.671-.079.332.037.663.037a.943.943 0 01.684.293.921.921 0 01.249.685c0 .331.12.331.12.659s.032.337.032.667-.024.332-.024.669-.055.329-.055.669.074.329.067.667-.08.334-.08.673z"/></g></g><g data-name="グループ 18666"><g data-name="グループ 18665"><path data-name="パス 331478" d="M70.546 59.587a1.063 1.063 0 01-.238.747 1.122 1.122 0 01-.755.3c-.327 0-.327-.052-.663-.052s-.333-.06-.665-.06h-.667c-.335 0-.335.1-.667.1s-.336-.025-.671-.025-.331.054-.668.054a1.124 1.124 0 01-.732-.336 1.023 1.023 0 01-.232-.732c0-.339.028-.339.028-.669s-.074-.328-.074-.667-.039-.331-.039-.669-.016-.329-.016-.66.062-.339.062-.668-.048-.336-.048-.667a1.094 1.094 0 01.307-.748 1.114 1.114 0 01.744-.311c.337 0 .337.07.667.07s.335-.088.667-.088.333.062.665.062.336.079.668.079.335-.079.671-.079.332.037.663.037a.943.943 0 01.684.293.921.921 0 01.249.685c0 .331.12.331.12.659s.032.337.032.667-.024.332-.024.669-.055.329-.055.669.074.329.067.667-.08.334-.08.673z"/></g></g></g><g data-name="グループ 18670"><g data-name="グループ 18669"><g data-name="グループ 18668"><path data-name="パス 331479" d="M70.546 59.587a1.063 1.063 0 01-.238.747 1.122 1.122 0 01-.755.3c-.327 0-.327-.052-.663-.052s-.333-.06-.665-.06h-.667c-.335 0-.335.1-.667.1s-.336-.025-.671-.025-.331.054-.668.054a1.124 1.124 0 01-.732-.336 1.023 1.023 0 01-.232-.732c0-.339.028-.339.028-.669s-.074-.328-.074-.667-.039-.331-.039-.669-.016-.329-.016-.66.062-.339.062-.668-.048-.336-.048-.667a1.094 1.094 0 01.307-.748 1.114 1.114 0 01.744-.311c.337 0 .337.07.667.07s.335-.088.667-.088.333.062.665.062.336.079.668.079.335-.079.671-.079.332.037.663.037a.943.943 0 01.684.293.921.921 0 01.249.685c0 .331.12.331.12.659s.032.337.032.667-.024.332-.024.669-.055.329-.055.669.074.329.067.667-.08.334-.08.673z"/></g></g></g></g><g data-name="グループ 18684"><g data-name="グループ 18677"><g data-name="グループ 18674"><g data-name="グループ 18673"><g data-name="グループ 18672"><path data-name="パス 331480" d="M55.4 64.529c0 2.648-5.323 4.786-11.892 4.786s-11.886-2.138-11.886-4.786 5.324-4.781 11.886-4.781S55.4 61.885 55.4 64.529z" fill="#ed8c00"/><path data-name="パス 331481" d="M43.512 71.719c-6.882 0-14.291-2.242-14.291-7.19s7.408-7.188 14.291-7.188 14.3 2.253 14.3 7.188-7.414 7.19-14.3 7.19zm-9.423-7.19c.614.787 3.862 2.38 9.423 2.38s8.815-1.593 9.427-2.38c-.612-.771-3.864-2.378-9.427-2.378s-8.812 1.606-9.426 2.378zm18.929.138z"/></g></g></g><g data-name="グループ 18676"><g data-name="グループ 18675"><path data-name="パス 331482" d="M43.508 71.63c-.45 0-.894-.017-1.347-.036s-.928.305-1.38.257-.882-.3-1.329-.365-.87-.284-1.313-.36-.924 0-1.359-.1c-.448-.118-.963.035-1.392-.1s-.826-.436-1.238-.606a12.6 12.6 0 01-1.281-.49 11.631 11.631 0 01-1.114-.8 7.68 7.68 0 01-1.043-.88 5.981 5.981 0 01-.748-1.115 4.712 4.712 0 01-.564-1.2 4.47 4.47 0 01-.189-1.311 4.851 4.851 0 01.042-1.349 5.032 5.032 0 01.414-1.339 6.575 6.575 0 01.984-1 8.783 8.783 0 011.112-.8 11.265 11.265 0 011.24-.561 12.11 12.11 0 011.237-.514 13.571 13.571 0 011.228-.581c.426-.133.806-.482 1.252-.6.435-.1.9-.134 1.355-.221s.914.007 1.371-.046.9-.029 1.359-.063.892-.222 1.344-.241.912.133 1.361.133.9.1 1.349.118.9.016 1.352.062.9.108 1.341.169.955-.206 1.4-.124.87.32 1.3.42c.448.116.936.062 1.361.194.442.135.918.207 1.328.376.435.169.695.7 1.088.9a12.89 12.89 0 011.244.553 7.525 7.525 0 01.929 1 6.036 6.036 0 01.845 1.015c.245.392.64.7.77 1.133a4.85 4.85 0 01.15 1.36 4.6 4.6 0 01-.348 1.311 4.834 4.834 0 01-.458 1.258 5.954 5.954 0 01-.772 1.139 8.824 8.824 0 01-1.181.7 9.948 9.948 0 01-1.191.622c-.392.206-.776.418-1.209.6-.411.161-.815.356-1.258.5-.424.133-.873.174-1.324.291-.432.1-.851.292-1.3.375s-.885.177-1.337.242-.912-.047-1.37-.009-.881.435-1.332.462-.925-.379-1.379-.379zM35.3 65.492c.356.169.92.134 1.418.3a12.937 12.937 0 001.27.489c.418.1.854.347 1.339.426.432.072.924-.043 1.408.015.435.042.916-.209 1.4-.181.443.024.892.187 1.372.187s.938-.091 1.382-.116c.482-.019.948.071 1.39.016.482-.044.942-.087 1.369-.159.49-.08.975-.046 1.394-.142.49-.125.94-.266 1.339-.4a9.724 9.724 0 001.3-.535c.562-.276.412-1.149-.147-1.424a8.943 8.943 0 00-1.218-.632c-.4-.133-.817-.347-1.305-.464-.42-.1-.849-.345-1.333-.426-.43-.074-.893-.169-1.375-.222-.439-.046-.92.054-1.4.036-.445-.027-.908.2-1.391.2s-.933-.047-1.379-.028c-.479.028-.952-.1-1.391-.055-.486.046-.959.029-1.391.1-.486.08-.91.32-1.332.418-.487.118-.984.1-1.379.23a14.078 14.078 0 00-1.34.447 1.308 1.308 0 00.003 1.92z"/></g></g></g><g data-name="グループ 18683"><g data-name="グループ 18680"><g data-name="グループ 18679"><g data-name="グループ 18678"><path data-name="パス 331483" d="M55.4 74.108c0 2.636-5.323 4.783-11.892 4.783S31.62 76.742 31.62 74.108s5.324-4.794 11.886-4.794S55.4 71.463 55.4 74.108z" fill="#ed8c00"/><path data-name="パス 331484" d="M43.512 81.297c-6.882 0-14.291-2.254-14.291-7.189s7.408-7.2 14.291-7.2 14.3 2.254 14.3 7.2-7.414 7.189-14.3 7.189zm-9.421-7.2c.613.783 3.866 2.388 9.421 2.388s8.813-1.605 9.427-2.388c-.614-.778-3.865-2.38-9.427-2.38s-8.812 1.603-9.424 2.381zm18.921.136z"/></g></g></g><g data-name="グループ 18682"><g data-name="グループ 18681"><path data-name="パス 331485" d="M43.509 81.423c-.45 0-.908.06-1.362.044s-.9-.145-1.353-.178-.9-.1-1.352-.154-.913-.062-1.355-.142-.917-.106-1.352-.214c-.451-.106-.877-.284-1.3-.418-.444-.143-.853-.348-1.261-.517a13.483 13.483 0 01-1.308-.436c-.416-.217-.639-.72-1-.972-.388-.266-.984-.257-1.3-.56a6.659 6.659 0 01-.734-1.194 7.726 7.726 0 01-.61-3.938 4.745 4.745 0 01.629-1.209 6.053 6.053 0 01.755-1.162c.313-.3.9-.292 1.288-.56.362-.25.584-.747 1-.962.388-.2.93-.088 1.363-.268.412-.159.806-.357 1.248-.5.424-.125.863-.194 1.312-.3s.813-.489 1.268-.569c.439-.09.92.08 1.378.024s.885-.15 1.34-.186.9 0 1.353-.016.9-.357 1.351-.357.918-.123 1.372-.108.913.1 1.364.142.9.215 1.345.28.851.427 1.293.506.96-.149 1.4-.041.867.317 1.29.454c.44.141.913.185 1.324.344.432.179.838.412 1.226.619a9.921 9.921 0 011.082.833 8.352 8.352 0 011.092.8 5.88 5.88 0 01.847 1.051 4.638 4.638 0 01.628 1.2 4.99 4.99 0 01.317 1.355c0 .463-.423.854-.547 1.281a4.711 4.711 0 01-.383 1.284 6.515 6.515 0 01-.7 1.212 9.086 9.086 0 01-1.2.695 10.976 10.976 0 01-1.1.839c-.391.194-.783.483-1.218.651-.41.165-1-.126-1.438.005-.426.134-.818.392-1.264.5s-.893.108-1.341.187-.835.535-1.286.6-.937-.232-1.392-.2-.89.3-1.345.313-.91-.058-1.364-.058zm-8.075-6.629a2.993 2.993 0 001.244.605c.4.133.842.266 1.329.384.419.107.885.123 1.374.2.43.074.892.064 1.375.106.442.047.892.142 1.372.17.445.019.9.1 1.382.1s.938-.151 1.38-.179c.483-.016.968.27 1.411.224.479-.052.886-.5 1.32-.569.483-.08.965.015 1.388-.088.483-.118.945-.28 1.344-.412.5-.167 1.047-.134 1.4-.311.56-.276.482-1.56-.076-1.837-.36-.167-.813-.246-1.311-.415a11.919 11.919 0 00-1.305-.553c-.42-.1-.94.114-1.423.032-.431-.068-.855-.453-1.337-.509-.439-.041-.916-.025-1.4-.052-.446-.016-.913-.086-1.4-.086s-.937.309-1.382.337c-.481.017-.961-.178-1.4-.137-.482.044-.945.154-1.38.224-.482.082-.965.1-1.384.2-.487.118-1 .364-1.4.5a2.3 2.3 0 00-1.055.829c-.369.471-.423.862-.066 1.236z"/></g></g></g></g></g></g><g data-name="グループ 18706"><g data-name="グループ 18705"><g data-name="グループ 18703"><g data-name="グループ 18699"><g data-name="グループ 18687"><path data-name="パス 331486" d="M112.394 62.492c-.615 0-.615-.165-1.229-.165s-.616.06-1.232.06-.62-.007-1.238-.007-.617-.078-1.234-.078-.617.129-1.236.129-.619.016-1.238.016-.619-.092-1.237-.092-.617.051-1.236.051-.617-.092-1.234-.092-.62.185-1.24.185-.621-.1-1.242-.1-.622-.063-1.246-.063-.623.129-1.245.129a2.625 2.625 0 01-2.536-2.55c0-.648.019-.648.019-1.3s.02-.648.02-1.3-.005-.648-.005-1.3.072-.647.072-1.292-.159-.649-.159-1.3.062-.651.062-1.3.141-.652.141-1.3-.141-.653-.141-1.305a2.438 2.438 0 01.435-1.208 1.99 1.99 0 012.092-1.222c.615 0 .615-.1 1.23-.1h1.232c.618 0 .618-.062 1.237-.062s.617.028 1.236.028.617.023 1.234.023.62.092 1.238.092.619-.064 1.237-.064.619-.052 1.236-.052.617.129 1.234.129.62.035 1.241.035.621-.151 1.241-.151.624.106 1.246.106.623-.1 1.245-.1a2.57 2.57 0 011.264.359 4.266 4.266 0 011.312 2.188c0 .649-.071.649-.071 1.3s.09.647.09 1.294-.143.649-.143 1.3.032.645.032 1.292.064.649.064 1.3-.118.649-.118 1.3.147.652.147 1.3-.031.652-.031 1.3a2.753 2.753 0 01-1.288 2.178 2.594 2.594 0 01-1.258.409zm-13.53-5.13c.412.455.548.137 1.163.137s.617-.062 1.233-.062.616.008 1.232.008.616.076 1.232.076.613-.129 1.228-.129.619-.016 1.236-.016.618.092 1.237.092.62-.051 1.241-.051.885.521 1.305.064c.457-.5-.161-.735-.161-1.408s.1-.676.1-1.351.062-.677.062-1.355.343-.813-.112-1.313c-.414-.455-.57-.042-1.185-.042s-.617.021-1.234.021-.616.024-1.232.024-.616-.019-1.23-.019-.615-.019-1.229-.019-.617.005-1.236.005-.618-.074-1.237-.074-.62.161-1.24.161-.794-.531-1.214-.075c-.456.5-.13.649-.13 1.324s.141.675.141 1.351a5 5 0 01-.11 1.34c-.122.681-.315.811.14 1.311z"/></g><g data-name="グループ 18688"><path data-name="パス 331487" d="M113.943 51.398c-.639 0-.639-.07-1.278-.07s-.636-.029-1.273-.029-.636-.224-1.272-.224h-1.273c-.636 0-.64.015-1.28.015s-.638.191-1.277.191-.639-.112-1.277-.112-.64.106-1.281.106-.639.032-1.278.032-.64-.2-1.28-.2-.639-.015-1.276-.015-.641.2-1.282.2-.641.107-1.284.107-.644-.035-1.288-.035-.643-.285-1.286-.285a2.593 2.593 0 01-1.206-.072 2.546 2.546 0 01-.791-.92 2.594 2.594 0 01-.616-1.07c-.075-.7-.1-.695-.173-1.392s.256-.735.181-1.434a6.137 6.137 0 00-.178-1.42c-.312-.3-.834-.483-1.123-.782s-.6-.615-.874-.93-.509-.691-.754-1.033a12.55 12.55 0 01-.665-1.087 11.788 11.788 0 01-.442-1.191 11.521 11.521 0 01-.451-1.178 13.22 13.22 0 01-.308-1.226c-.079-.4-.06-.817-.112-1.254-.048-.4-.34-.8-.364-1.248-.021-.407.05-.838.05-1.281 0-.42.129-.83.155-1.241s.165-.814.22-1.221-.131-.865-.05-1.268.1-.842.212-1.24.3-.789.436-1.177.41-.736.576-1.114.189-.838.382-1.2.408-.738.629-1.088.519-.663.766-.995.469-.7.74-1.013.734-.452 1.028-.746.545-.627.861-.9.531-.673.867-.918.755-.376 1.107-.6.669-.513 1.038-.705.767-.335 1.149-.5.813-.2 1.206-.339.79-.234 1.191-.344.788-.253 1.2-.336.811-.149 1.226-.2.819-.122 1.237-.149.827.072 1.248.072.827.035 1.238.06.853-.151 1.261-.1.779.39 1.183.471.821.111 1.218.22.849.072 1.237.209.707.475 1.084.64.783.276 1.148.467.834.225 1.185.443.682.5 1.015.739.652.526.966.8.565.617.86.909.645.537.916.851.356.775.6 1.108.522.637.744.988.63.6.826.963.193.83.361 1.212.327.755.467 1.149.452.728.564 1.13.112.831.2 1.241.032.831.087 1.246.293.8.321 1.222-.256.834-.256 1.254c0 .443 0 .859-.025 1.266-.023.443.06.871.013 1.276-.052.439-.244.83-.323 1.229-.087.432.039.894-.079 1.285a11.026 11.026 0 01-.637 1.118c-.169.4-.112.9-.317 1.257a12.523 12.523 0 01-.673 1.091c-.245.341-.6.609-.874.933s-.56.627-.859.934-.582.574-.894.873c-.185.677.051.705-.025 1.4s-.248.68-.323 1.379-.13.693-.206 1.392a2.334 2.334 0 01-.416 1.091 2.3 2.3 0 01-.886.739c-.357.195-.694.574-1.114.574zm-16.828-5.266c.42.442.487.017 1.1.017s.613.029 1.225.029.612.224 1.224.224h1.222c.611 0 .613-.015 1.228-.015s.612-.191 1.224-.191.613.112 1.225.112.61-.106 1.221-.106.614-.032 1.229-.032.615.2 1.23.2.617.015 1.233.015.759.268 1.188-.177c.5-.522-.047-.694.031-1.415s.112-.718.19-1.438a2.569 2.569 0 011.015-1.436c.311-.288.445-.726.715-.987.305-.294.7-.462.954-.738a9.485 9.485 0 00.6-1.05 6.569 6.569 0 00.6-1c.174-.343.627-.585.746-.983a9.266 9.266 0 00.238-1.19c.055-.366-.158-.787-.134-1.214.023-.371.015-.762.015-1.189 0-.447.026-.876-.011-1.3-.039-.443-.074-.871-.15-1.289-.082-.436-.055-.892-.175-1.3a11.761 11.761 0 00-.459-1.229 11.9 11.9 0 00-.576-1.179 11.683 11.683 0 00-.636-1.154c-.257-.355-.732-.53-1.023-.847a11.429 11.429 0 00-.872-.959 12.021 12.021 0 00-.961-.89 12.651 12.651 0 00-1.072-.77c-.383-.206-.89-.161-1.292-.327s-.827-.228-1.244-.353-.81-.285-1.237-.37-.834-.266-1.266-.309-.869.12-1.3.12-.853.023-1.286.064-.861.035-1.287.118a12.646 12.646 0 00-1.24.365c-.418.125-.9.04-1.307.2a12.8 12.8 0 00-1.15.631 12.547 12.547 0 00-1.009.831 11.485 11.485 0 00-1.1.691 11.281 11.281 0 00-.859.971 10.508 10.508 0 00-.847.971 10.93 10.93 0 00-.8 1.027 11.442 11.442 0 00-.594 1.165 12.311 12.311 0 00-.387 1.249 12.435 12.435 0 00-.3 1.266c-.078.418-.108.853-.147 1.3-.036.423-.167.857-.167 1.3 0 .428-.011.834.012 1.206a10.155 10.155 0 00.34 1.162c.064.423-.116.87-.009 1.229a6.879 6.879 0 00.509 1.1 7.491 7.491 0 00.773.921 9.618 9.618 0 00.614 1.042c.254.274.589.5.893.8.269.26.7.382 1.008.669a2.755 2.755 0 01.787 1.663 7.11 7.11 0 01.131 1.457c-.031.709-.323.798.178 1.322z"/></g><g data-name="グループ 18698"><g data-name="グループ 18691"><g data-name="グループ 18689"><path data-name="パス 331488" d="M96.364 53.061c.44.43.56.021 1.174.021s.616.083 1.232.083.618-.044 1.237-.044.618.064 1.236.064.617.008 1.234.008.62-.005 1.238-.005.619-.015 1.237-.015h1.236c.618 0 .617-.031 1.234-.031s.62-.074 1.24-.074.621.015 1.242.015.622.056 1.246.056.838.458 1.288.027c.431-.414-.116-.643-.116-1.24s.1-.6.1-1.2.438-.813.008-1.23-.645-.028-1.261-.028-.616-.017-1.232-.017-.618.029-1.237.029-.617.09-1.234.09-.618-.072-1.236-.072-.618.076-1.238.076-.618-.024-1.237-.024-.617-.012-1.236-.012h-1.234c-.617 0-.62-.062-1.24-.062s-.621.127-1.242.127-.622-.092-1.245-.092-.782-.4-1.23.035c-.431.415-.042.582-.042 1.179s.194.621.08 1.21-.432.707-.002 1.126z" fill="#fff"/></g><g data-name="グループ 18690"><path data-name="パス 331489" d="M112.392 54.652c-.614 0-.614-.072-1.229-.072s-.616.058-1.232.058-.62.046-1.238.046-.617-.137-1.234-.137-.617.079-1.236.079-.618.078-1.238.078-.618-.1-1.237-.1-.617-.055-1.236-.055-.617.107-1.234.107-.62-.107-1.24-.107-.621.114-1.242.114-.622-.133-1.246-.133-.622.116-1.245.116a1.4 1.4 0 01-1.512-1.527c0-.6-.031-.6-.031-1.2s-.013-.6-.013-1.2.138-.6.138-1.2a1.445 1.445 0 01.352-1.064 1.467 1.467 0 011.066-.38c.614 0 .614-.029 1.23-.029s.616.036 1.232.036.618-.039 1.237-.039.617-.024 1.236-.024.617-.028 1.234-.028.62.046 1.238.046.619-.1 1.237-.1.618.067 1.236.067.617.106 1.234.106.62-.052 1.241-.052h1.241c.62 0 .624.025 1.246.025s.622-.005 1.245-.005a1.426 1.426 0 011.043.4 1.559 1.559 0 01.539 1.042c0 .6-.066.6-.066 1.2s-.112.6-.112 1.2.056.6.056 1.2a1.507 1.507 0 01-.377 1.083 1.561 1.561 0 01-1.083.449zM97.815 51.59c.593.274.637.068 1.289.068s.653-.058 1.307-.058.655-.046 1.309-.046.655.137 1.308.137.655-.079 1.309-.079.652-.078 1.3-.078.656.1 1.312.1.656.055 1.312.055.659-.107 1.317-.107.746.376 1.344.1a.338.338 0 00-.048-.62c-.593-.274-.632-.127-1.285-.127s-.653.115-1.305.115-.656.052-1.311.052-.653-.068-1.308-.068-.655.031-1.309.031-.652.013-1.3.013-.656-.138-1.311-.138-.657.09-1.313.09-.659-.062-1.316-.062-.69-.149-1.323.031c-.307.088-.251.464.024.591z"/></g></g><g data-name="グループ 18694"><g data-name="グループ 18692"><path data-name="パス 331490" d="M96.308 56.717c.44.43.616-.029 1.23-.029s.616.078 1.232.078.618-.084 1.237-.084.618-.042 1.236-.042.617.108 1.234.108.62-.05 1.238-.05.619.028 1.237.028.619-.04 1.236-.04.617-.047 1.234-.047.62.145 1.24.145.621-.137 1.242-.137.622.123 1.246.123.821.4 1.27-.028c.431-.415.017-.624.017-1.222s-.095-.6-.095-1.2.528-.829.1-1.248-.66.019-1.276.019-.616.02-1.232.02-.618-.012-1.237-.012-.617-.016-1.234-.016-.618-.043-1.236-.043-.619.143-1.238.143-.619-.142-1.237-.142-.617.1-1.236.1-.617.052-1.234.052-.62-.1-1.24-.1-.621.035-1.242.035-.622-.042-1.245-.042-.829-.436-1.277 0c-.431.415.088.63.088 1.229a3.73 3.73 0 01-.118 1.187c-.137.629-.37.796.06 1.215z" fill="#fff"/></g><g data-name="グループ 18693"><path data-name="パス 331491" d="M112.394 58.222c-.614 0-.614-.021-1.229-.021s-.616.071-1.232.071-.62.021-1.238.021-.617-.1-1.234-.1-.617.1-1.236.1-.619-.031-1.238-.031h-1.237c-.617 0-.617-.062-1.236-.062s-.617.008-1.234.008-.62-.079-1.24-.079-.621.007-1.242.007-.622-.019-1.246-.019-.623.017-1.245.017a1.185 1.185 0 01-1.4-1.42c0-.6-.039-.6-.039-1.2s-.139-.6-.139-1.2.15-.6.15-1.2a1.455 1.455 0 01.367-1.064 1.493 1.493 0 011.064-.419c.614 0 .614-.083 1.23-.083s.616.165 1.232.165.618-.015 1.237-.015.617-.052 1.236-.052.617-.008 1.234-.008.62.07 1.238.07.619-.086 1.237-.086.619.008 1.236.008.617-.088 1.234-.088.62.09 1.241.09.621.076 1.241.076.624-.005 1.246-.005.623-.058 1.245-.058a1.5 1.5 0 011.078.392 1.57 1.57 0 01.471 1.078c0 .6-.068.6-.068 1.2s-.011.6-.011 1.2.078.6.078 1.2a1.488 1.488 0 01-.533 1.013 1.443 1.443 0 01-1.018.494zm-14.588-3.011c.592.277.648.021 1.3.021s.653-.071 1.307-.071.655-.021 1.309-.021.655.1 1.308.1.655-.1 1.309-.1.652.031 1.3.031h1.312c.656 0 .656.062 1.312.062s.659-.008 1.317-.008.752.348 1.349.071a.441.441 0 000-.748c-.592-.276-.684-.024-1.337-.024s-.653.017-1.305.017-.656.124-1.311.124-.653-.142-1.308-.142-.655.039-1.309.039-.652.139-1.3.139-.656-.15-1.311-.15-.657.074-1.313.074-.659-.021-1.316-.021a3.019 3.019 0 00-1.3.08c-.319.094-.288.399-.013.527z"/></g></g><g data-name="グループ 18697"><g data-name="グループ 18695"><path data-name="パス 331492" d="M96.295 60.325c.441.43.628.054 1.242.054s.616.007 1.232.007.618-.134 1.237-.134.618.02 1.236.02.617.1 1.234.1.62-.086 1.238-.086.619.082 1.237.082.618-.107 1.236-.107.617.1 1.234.1.62-.117 1.24-.117.621.126 1.242.126.622.012 1.246.012.783.348 1.233-.083c.431-.414.083-.585.083-1.183s-.083-.6-.083-1.2.408-.747-.021-1.165-.581-.051-1.2-.051-.616-.021-1.232-.021-.618.076-1.237.076-.617.016-1.234.016-.618-.09-1.236-.09-.618.036-1.238.036-.618.021-1.237.021-.617-.082-1.236-.082-.617.118-1.234.118-.62-.028-1.24-.028-.621.008-1.242.008-.622-.021-1.245-.021-.758-.408-1.208.023c-.431.414-.052.558-.052 1.155a3.681 3.681 0 01-.012 1.194c-.135.636-.412.802.017 1.22z" fill="#fff"/></g><g data-name="グループ 18696"><path data-name="パス 331493" d="M112.395 61.792c-.614 0-.614.028-1.229.028s-.616.019-1.232.019-.62.005-1.238.005-.617.029-1.234.029-.617-.037-1.236-.037-.618.012-1.238.012-.618-.062-1.237-.062-.617-.037-1.236-.037-.617.054-1.234.054-.62-.06-1.24-.06-.621-.024-1.242-.024-.622.129-1.246.129-.622.044-1.245.044a1.563 1.563 0 01-1.048-.53 1.5 1.5 0 01-.471-1.048c0-.6.062-.6.062-1.2s-.039-.6-.039-1.2.1-.6.1-1.2a1.4 1.4 0 01.353-1.047 1.54 1.54 0 011.048-.509c.614 0 .614.118 1.23.118s.616-.019 1.232-.019.618-.04 1.237-.04.617-.066 1.236-.066.617.1 1.234.1.62-.1 1.238-.1.619.146 1.237.146.618-.02 1.236-.02.617.028 1.234.028.62-.007 1.241-.007.621-.12 1.241-.12.624.074 1.246.074.623-.084 1.245-.084a1.614 1.614 0 011.106.447 1.57 1.57 0 01.391 1.106v1.2c0 .6-.037.6-.037 1.2s.041.6.041 1.2a1.565 1.565 0 01-.4 1.1 1.546 1.546 0 01-1.106.371zm-14.6-2.96c.593.276.66-.027 1.312-.027s.653-.019 1.307-.019.655-.005 1.309-.005.655-.029 1.308-.029.655.039 1.309.039.652-.013 1.3-.013.656.062 1.312.062.656.037 1.312.037.659-.054 1.317-.054.746.329 1.343.054a.44.44 0 00.011-.746c-.592-.274-.689.122-1.343.122s-.653.043-1.305.043-.656-.1-1.311-.1-.653.037-1.308.037-.655-.062-1.309-.062-.652.039-1.3.039-.656-.1-1.311-.1-.657.08-1.313.08-.659.075-1.316.075-.7-.309-1.333-.115c-.331.108-.266.555.009.682z"/></g></g></g></g><g data-name="グループ 18700"><path data-name="パス 331494" d="M104.503 13.904a2.547 2.547 0 01-1.261-.361 3.325 3.325 0 01-1.285-2.183c0-.4.005-.6.017-.8.005-.1.138-.2.139-.356a3.934 3.934 0 01-.234-1.384 3.805 3.805 0 01-.185-1.256 3.91 3.91 0 01.194-1.45 5.926 5.926 0 01-.058-1.09.809.809 0 00-.048-.232 7.263 7.263 0 01-.027-1.042 3.544 3.544 0 01.344-1.592 2.48 2.48 0 01.387-1.116 2.078 2.078 0 012.042-1.05 2.486 2.486 0 012.118 1.261 2.5 2.5 0 01.431 1.224 3.418 3.418 0 01-.43 1.5 4.771 4.771 0 01.135 1.046c0 .08-.021.084-.009.163a5.281 5.281 0 01.1 1.107 3.616 3.616 0 01-.274 1.387 4.01 4.01 0 01.151 1.016 3.8 3.8 0 01.329 1.394 5.877 5.877 0 01-.091.79c-.008.118.021.238.021.475a2.481 2.481 0 01-.367 1.237 2.534 2.534 0 01-.882.948 2.56 2.56 0 01-1.257.364z"/></g><g data-name="グループ 18701"><path data-name="パス 331495" d="M94.338 15.264a2.184 2.184 0 01-2.166-1.232 8.329 8.329 0 01-.47-.843 1.818 1.818 0 00-.133-.269c-.036-.056.015-.09-.028-.142a4.233 4.233 0 01-1.092-1.826c-.027-.063-.075-.115-.142-.232a4.645 4.645 0 01-.5-1.161c-.177-.311-.2-.49-.289-.64a1.63 1.63 0 00-.218-.355 3.96 3.96 0 01-.94-1.129c-.32-.549-.327-.545-.649-1.094a2.467 2.467 0 01.89-3.364 2.3 2.3 0 012.451.024 2.481 2.481 0 01.983.838c.277.473.17.541.487.988a3.706 3.706 0 011 1.1c.171.3.224.466.308.616.142.254.125.265.27.518a4.653 4.653 0 01.494 1.159c.256.45.432.648.523.882a.959.959 0 00.072.257 6.3 6.3 0 01.785 1.009 4.254 4.254 0 01.329.9 1.778 1.778 0 00.127.29 1.908 1.908 0 01.015 2.434 2.463 2.463 0 01-.845.973 2.516 2.516 0 01-1.262.299zm-1.7-10.3l.06-.023z"/></g><g data-name="グループ 18702"><path data-name="パス 331496" d="M113.906 15.276a2.711 2.711 0 01-2.185-1.241 2.346 2.346 0 01.005-2.523c.319-.544.36-.519.655-1.078a6.653 6.653 0 01.537-1.153c.04-.075.019-.086.05-.166a5.478 5.478 0 01.467-1 4.156 4.156 0 01.835-.989 5.355 5.355 0 01.627-.876 1.041 1.041 0 00.118-.159c.2-.341.241-.546.352-.711a2.865 2.865 0 00.308-.375c.2-.348.274-.539.386-.706.067-.1.082-.226.2-.431a2.481 2.481 0 01.991-.833 2.393 2.393 0 011.217-.333 2.457 2.457 0 011.254.27 2.509 2.509 0 01.906.925 2.481 2.481 0 01.305 1.249 2.426 2.426 0 01-.349 1.222c-.2.347-.284.53-.395.7a3.737 3.737 0 00-.28.387c-.2.345-.295.518-.406.685-.067.1-.115.212-.234.418a6.012 6.012 0 01-.605.912 1 1 0 00-.1.15 4.46 4.46 0 01-.8 1.017.352.352 0 00-.076.134 5.392 5.392 0 01-.47.995 5.962 5.962 0 01-.475 1.19c-.319.548-.332.539-.652 1.086a2.58 2.58 0 01-2.183 1.233z"/></g></g><g data-name="グループ 18704"><path data-name="パス 331497" d="M106.97 47.715a1.528 1.528 0 01-1.107-.308 1.568 1.568 0 01-.38-1.107c0-.755-.068-.755-.068-1.511a7.636 7.636 0 01.125-1.163 5.416 5.416 0 01.775-2.182 7.51 7.51 0 01.565-1.015 7.608 7.608 0 01.766-.876 4.5 4.5 0 00.719-.9 4.3 4.3 0 00.39-1.082 4.361 4.361 0 00.2-1.133 2.494 2.494 0 00-.479-1.435 2.393 2.393 0 00-1.169-.894 5.051 5.051 0 01.369 1.019 5.469 5.469 0 01.173 1.118c.008.063.062.129.062.193a3.552 3.552 0 01-.309 1.341 3.389 3.389 0 01-5.656 1.072 2.625 2.625 0 01-1.084-2.414 5.375 5.375 0 01.234-1.2 5.637 5.637 0 01.347-1.194 2.674 2.674 0 00-1.254.914 2.516 2.516 0 00-.353 1.467 4.4 4.4 0 00.449 2.257 4.6 4.6 0 00.728.922 7.808 7.808 0 01.873.787 7.552 7.552 0 01.474 1.074 7.429 7.429 0 01.883 3.328c0 .756.048.756.048 1.511a1.64 1.64 0 01-1.552 1.57 1.607 1.607 0 01-1.088-.482 1.526 1.526 0 01-.386-1.088v-1.511a4.5 4.5 0 00-.147-1.149 4.427 4.427 0 00-.4-1.092 4.536 4.536 0 00-.774-.866 13.659 13.659 0 01-1.349-1.888 7.6 7.6 0 01-.5-1.054 7.489 7.489 0 01-.25-1.142 7.693 7.693 0 010-1.165 5.635 5.635 0 01.049-1.236 8.232 8.232 0 011.119-2.187 4.773 4.773 0 011.871-1.606 5.641 5.641 0 011.2-.347 5.537 5.537 0 011.228-.126c.007 0 .015-.062.023-.062a5.584 5.584 0 011.029.2 1.614 1.614 0 002.007-.122 5.89 5.89 0 011.06.027 5.3 5.3 0 011.209.161 5.485 5.485 0 011.185.327 3.758 3.758 0 011.894 1.55 4.606 4.606 0 011.131 2.181 5.656 5.656 0 01.027 1.236 7.461 7.461 0 01-.076 1.151 7.26 7.26 0 01-.226 1.134 4.469 4.469 0 01-1.1 2.021 7.551 7.551 0 01-.679.944 4.124 4.124 0 00-1.122 1.972 4.386 4.386 0 00-.165 1.133c0 .756-.048.756-.048 1.511a1.56 1.56 0 01-.356 1.11 1.534 1.534 0 01-1.135.306zm-2.616-12.833a2.693 2.693 0 00-.408 1.552.429.429 0 00.411.483.436.436 0 00.411-.408c0-.024.033-.04.033-.064a2.713 2.713 0 00-.446-1.56z"/></g></g></g></g></svg>