<svg xmlns="http://www.w3.org/2000/svg" width="454" height="115.353"><g data-name="グループ 18930"><g data-name="グループ 17837" fill="#eb5e00"><text transform="translate(257.711 102.137)" font-size="26" font-family="HiraKakuProN-W6, Hiragino Kaku Gothic ProN"><tspan x="0" y="0">円</tspan></text><path data-name="パス 332029" d="M15.182 82.991c4.623 0 10.854-.134 10.854 6.968 0 4.422-3.35 7.37-7.638 7.37-5.494 0-8.04-4.154-8.241-9.246H1.112c-.2 10.787 6.9 17.085 17.42 17.085 9.179 0 17.42-5.561 17.42-15.41a10.478 10.478 0 00-8.308-10.653v-.134C32 77.765 34.21 73.812 34.21 69.39c0-8.375-8.241-13-15.745-13-9.648 0-15.879 6.633-16.214 16.214h9.045c-.067-4.824 2.479-8.375 7.236-8.375 3.484 0 6.633 2.278 6.633 6.231 0 5.36-5.9 6.164-9.983 5.829zm44.555 21.239h9.045V93.376h6.231v-7.839h-6.231V57.33h-8.509L39.9 84.666v8.71h19.832zm0-18.693H47.409l12.127-16.281h.2zm19.43-4.958c0 18.693 7.906 24.589 17.152 24.589 9.38 0 17.286-5.9 17.286-24.589 0-18.291-7.906-24.187-17.286-24.187-9.246 0-17.152 5.896-17.152 24.187zm9.514 0c0-4.891 0-16.348 7.638-16.348 7.772 0 7.772 11.457 7.772 16.348 0 5.293 0 16.75-7.772 16.75-7.638.001-7.638-11.457-7.638-16.75zm32.093 23.651h4.826a6.118 6.118 0 01-4.759 6.3v4.824c5.759-.873 10.452-4.96 10.452-11.124V93.912h-10.519zm17.621-23.651c0 18.693 7.905 24.589 17.152 24.589 9.38 0 17.286-5.9 17.286-24.589 0-18.291-7.906-24.187-17.286-24.187-9.247 0-17.152 5.896-17.152 24.187zm9.514 0c0-4.891 0-16.348 7.638-16.348 7.772 0 7.772 11.457 7.772 16.348 0 5.293 0 16.75-7.772 16.75-7.638.001-7.638-11.457-7.638-16.75zm29.413 0c0 18.693 7.906 24.589 17.152 24.589 9.38 0 17.286-5.9 17.286-24.589 0-18.291-7.906-24.187-17.286-24.187-9.246 0-17.152 5.896-17.152 24.187zm9.514 0c0-4.891 0-16.348 7.638-16.348 7.772 0 7.772 11.457 7.772 16.348 0 5.293 0 16.75-7.772 16.75-7.638.001-7.638-11.457-7.638-16.75zm29.413 0c0 18.693 7.906 24.589 17.151 24.589 9.38 0 17.286-5.9 17.286-24.589 0-18.291-7.906-24.187-17.286-24.187-9.245 0-17.151 5.896-17.151 24.187zm9.514 0c0-4.891 0-16.348 7.638-16.348 7.772 0 7.772 11.457 7.772 16.348 0 5.293 0 16.75-7.772 16.75-7.638.001-7.638-11.457-7.638-16.75z"/></g><g data-name="グループ 17838" transform="translate(-660 -1917.03)"><rect data-name="長方形 4295" width="109" height="36" rx="18" transform="translate(660 1917.029)" fill="#ada19a"/><path data-name="パス 331858" d="M689.54 1937.078a13.882 13.882 0 001.54 1.68 6.7 6.7 0 011.04-1.68 8.323 8.323 0 01-1.1-.9 19.025 19.025 0 001.2-1.72v7.6a13.251 13.251 0 01-.12 2.18h2.24a18.514 18.514 0 01-.08-2.2v-2.22h2.14v2.34a11.216 11.216 0 01-.08 1.82h2.18a14.257 14.257 0 01-.08-1.84v-2.32h2.42v1.64c0 .4-.08.48-.4.48a8.341 8.341 0 01-1.4-.12 4.086 4.086 0 01.52 2.1c.48.04.7.04.9.04a3.926 3.926 0 001.74-.22c.48-.26.68-.76.68-1.64v-8.96a18.622 18.622 0 01.08-2.06 12.994 12.994 0 01-1.8.08h-2.74v-1.4h3.08a12.623 12.623 0 011.9.1v-2.16a17.044 17.044 0 01-1.9.1h-.12l1.08-.86a8.485 8.485 0 00-2.16-1.56l-1.32.98a10.4 10.4 0 011.88 1.44h-2.44v-.4a8.329 8.329 0 01.12-1.72h-2.26a10.18 10.18 0 01.12 1.72v.4h-2.72a12.408 12.408 0 01-1.96-.12v2.08l-.78-.94a5.036 5.036 0 01-1.02.06h-.4v-1.68a10.852 10.852 0 01.1-1.5h-2.26a11.342 11.342 0 01.1 1.56v1.62H687a8.64 8.64 0 01-1.48-.08v2.1a14.165 14.165 0 011.64-.1h2.1a12.849 12.849 0 01-4.2 5.64 8.083 8.083 0 01.84 2.16 19.119 19.119 0 001.58-1.58v4.94a15.479 15.479 0 01-.14 2.28h2.3a18.582 18.582 0 01-.12-2.3l.02-4.24zm2.26-7.24a13.626 13.626 0 011.7-.08h2.9v1.4h-2.24a16.992 16.992 0 01-2-.08 16.119 16.119 0 01.06 2.04v.74l-1.06-.84a13.73 13.73 0 01-1.18 2.04 5.6 5.6 0 01-.48-.66 24.78 24.78 0 001.9-3.68 6.094 6.094 0 01.4-.86zm2.46 8.24v-1.72h2.14v1.72zm0-3.46v-1.66h2.14v1.66zm4.16 3.46v-1.72h2.42v1.72zm0-3.46v-1.66h2.42v1.66zm16.06 3.72l-.96.32v-9.88c0-.88.02-1.82.06-2.18a10.751 10.751 0 01-1.5.08h-4.16a10.57 10.57 0 01-1.5-.08c.04.44.06 1.32.06 2.18v11.64a12.35 12.35 0 01-1.38.18l.4 2.36c.52-.16.64-.18 1.32-.36a76.564 76.564 0 007.54-2.34 9.638 9.638 0 01-2.44 2.42 7.057 7.057 0 011.76 1.58 10.558 10.558 0 002.14-2.26 14.152 14.152 0 002.04-3.98 25.283 25.283 0 00.96-6.06h2.32a57.758 57.758 0 01-.44 7.66c-.26 1.8-.42 2.06-1.26 2.06a14.642 14.642 0 01-2.28-.22 9.766 9.766 0 01.4 2.18c1.5.08 1.5.08 2 .08 2.02 0 2.6-.44 3-2.26a45.93 45.93 0 00.7-8.4c.06-2.7.06-2.7.12-3.3a15.809 15.809 0 01-2.12.1h-2.34c.02-.96.04-1.54.04-2.28a11.6 11.6 0 01.12-1.76h-2.38a10.274 10.274 0 01.12 1.74c0 .94-.02 1.76-.04 2.3h-.52a15.591 15.591 0 01-2.14-.1v2.3a15.36 15.36 0 012-.1h.56c-.28 3.9-.86 6.08-2.2 8.12zm-5.9-1.26h2.86v2.2c-.8.24-1.76.48-2.86.72zm0-1.92v-2.26h2.86v2.26zm0-4.18v-2.26h2.86v2.26zm23.88-.3a6.348 6.348 0 01-.92.04h-1.6c.18-.32.18-.32.3-.56l.16-.32-1.86-.38a8.054 8.054 0 01-3.44 3.98 4.4 4.4 0 011.06 1.56 9.536 9.536 0 001.44-1.2 10.747 10.747 0 001.18 1.22 11.993 11.993 0 01-3.92 1.8 4.769 4.769 0 011 1.84c.42-.18.54-.24.88-.4.02.3.02.46.02.74v3.12a16.016 16.016 0 01-.1 1.86h2.06v-1.1h2.74v.94h2c-.02-.26-.04-.56-.06-.96a6.321 6.321 0 011.06 1.5 11.061 11.061 0 004.06-2.88l-1.46-1.26h3.28l-1.4 1.28a11.017 11.017 0 004.04 2.82 7.943 7.943 0 011.2-1.92 9.149 9.149 0 01-3.68-2.18h.68c.48 0 1.04.02 1.72.06-.04-.72-.06-1.2-.06-2.06v-6.9c0-.76.02-1.22.06-1.78a13.783 13.783 0 01-1.96.06h-1.32a14.8 14.8 0 00.5-1.4h1.42a15.488 15.488 0 012.1.1v-2.12a14.848 14.848 0 01-2.1.1h-5.22a13.948 13.948 0 01-2.1-.1v1.28c-.3.02-.66.04-1.48.04h-1.64v-.4a5.292 5.292 0 01.1-1.28h-2.3a5.844 5.844 0 01.1 1.26v.42h-1.88a12.846 12.846 0 01-1.6-.06c.04.5.06.98.06 1.34v.96a9.558 9.558 0 01-.08 1.28h1.98v-1.74h4.98zm.72.26h1.16a9.079 9.079 0 01-.06-1.34v-1.3a17.383 17.383 0 012.04-.1h1.74c-.14.44-.22.7-.5 1.4h-1.16a15.9 15.9 0 01-1.68-.04c.06.98.06.98.06 1.88v7c0 .46-.02 1.36-.06 1.84q1.05-.06 1.56-.06h.6a7.375 7.375 0 01-1.56 1.36 7.077 7.077 0 01-1.94.98v-3.42c0-.76 0-.76.04-1.38l.58.18a6.5 6.5 0 01.7-1.8 15.4 15.4 0 01-3.18-1.2 16.955 16.955 0 002.06-2.8c.1-.14.12-.16.24-.32l.08-.1zm-1.8 1.44a13.367 13.367 0 01-1.34 1.6 8.025 8.025 0 01-1.36-1.38.872.872 0 00.18-.22zm-3.26 5.18a12.576 12.576 0 002.08-1.4 18.268 18.268 0 002.66 1.38c-.24.02-.36.02-.78.02zm.58 1.66h2.76v1.94h-2.76zm8.04-7.82h4.12v1.2h-4.12zm0 2.84h4.12v1.26h-4.12zm0 2.9h4.12v1.24h-4.12z" fill="#fff"/></g><g data-name="グループ 18715"><g data-name="グループ 18618"><g data-name="グループ 18617"><g data-name="グループ 18616"><g data-name="グループ 18598"><g data-name="グループ 18595"><g data-name="グループ 18594"><path data-name="パス 331439" d="M333.959 79.048c0 15.848 18.6 22.829 41.541 22.829s41.527-6.981 41.527-22.829h-83.068z" fill="#fff"/></g></g><g data-name="グループ 18597"><g data-name="グループ 18596"><path data-name="パス 331440" d="M375.502 104.469c-.48 0-.956.253-1.423.246s-.954-.081-1.422-.094-.952-.054-1.422-.07-.947-.155-1.416-.181-.935-.246-1.4-.279-.949-.014-1.42-.053-.939-.134-1.409-.172-.958.048-1.425 0-.982.175-1.445.114-.925-.289-1.392-.357-.911-.295-1.379-.371-.995.168-1.455.083-.934-.218-1.388-.312c-.47-.1-.912-.315-1.369-.416s-.976-.021-1.43-.137-.851-.507-1.3-.632-.925-.231-1.372-.369-.905-.3-1.345-.45c-.455-.149-.827-.5-1.27-.666s-.871-.366-1.3-.545c-.445-.178-1.042.014-1.472-.175s-.726-.686-1.146-.892-1.033-.087-1.443-.312c-.426-.226-.7-.7-1.106-.938s-.888-.379-1.28-.636-.854-.457-1.228-.733-.491-.921-.851-1.218-.84-.474-1.183-.793-.6-.737-.922-1.077-.908-.458-1.213-.817-.423-.88-.7-1.257-.625-.727-.88-1.119-.445-.838-.672-1.255-.656-.736-.851-1.17-.377-.882-.539-1.328.087-1.02-.041-1.479-.528-.838-.618-1.3.134-.979.073-1.449-.528-.9-.559-1.375.179-.952.179-1.435a2.914 2.914 0 01.25-1.413 3.028 3.028 0 011.06-1 2.95 2.95 0 011.389-.426c.717 0 .717-.085 1.433-.085s.717.2 1.432.2.717.142 1.43.142.72.125 1.433.125.714-.023 1.432-.023.712-.27 1.426-.27.716-.211 1.429-.211.719.111 1.433.111.716.384 1.428.384.72-.268 1.433-.268.717-.2 1.432-.2.717.084 1.433.084.712.3 1.43.3.714.023 1.427.023.712.077 1.43.077.719-.023 1.432-.023.714-.354 1.43-.354.717.273 1.432.273.716.033 1.433.033.714-.286 1.43-.286.714-.094 1.432-.094.717.38 1.428.38.716-.071 1.433-.071.717-.154 1.433-.154.719.038 1.435.038.715.034 1.432.034.716-.144 1.43-.144.716-.057 1.43-.057.717.2 1.433.2.717.189 1.432.189.716-.09 1.433-.09.717.06 1.432.06.716-.226 1.43-.226.72.048 1.43.048.722.2 1.438.2.716-.37 1.433-.37.714.01 1.429.01.717-.071 1.436-.071.717.048 1.429.048.717.065 1.433.065.722.075 1.436.075.716.266 1.433.266.715-.11 1.432-.11.716.078 1.432.078.716-.44 1.43-.44.719.155 1.432.155.717.252 1.436.252.717-.225 1.432-.225.714.245 1.435.245.716-.262 1.43-.262.717-.078 1.435-.078.716.127 1.433.127.717.093 1.435.093.716.1 1.433.1.72-.145 1.435-.145.717.209 1.435.209.717.011 1.437.011.717-.337 1.435-.337a2.943 2.943 0 011.426.324 2.9 2.9 0 01.941 1.1 3.021 3.021 0 01.582 1.368c0 .482-.448.941-.478 1.409s.312.986.253 1.452-.241.934-.337 1.4-.139.951-.265 1.4-.589.811-.746 1.255-.194.937-.389 1.369-.615.743-.838 1.16-.256.935-.511 1.336-.72.635-1 1.019-.306.952-.612 1.315-.781.566-1.114.909-.658.658-1.009.983-.669.66-1.036.965-.723.595-1.11.882-.581.816-.979 1.08-.84.451-1.251.694-.985.169-1.408.4-.789.508-1.218.722-.833.43-1.27.625-.9.3-1.336.481-.907.245-1.353.416-.743.722-1.2.88-.969.071-1.428.211-.834.5-1.294.628-.982-.026-1.449.09-.827.594-1.292.7-.965.011-1.435.108-.937.114-1.406.2-.885.393-1.359.473-.951.037-1.423.1-.965-.1-1.439-.038-.912.3-1.389.35-.934.145-1.41.189-.929.219-1.406.256-.958-.176-1.438-.144-.932.238-1.409.262-.954-.209-1.432-.192-.942-.023-1.416-.007-.944.329-1.418.33-.956-.243-1.429-.243zm-38.659-22.823c.081.474.363 1 .49 1.452a13.743 13.743 0 00.372 1.365c.171.45.339.884.549 1.308a13.93 13.93 0 00.606 1.291 14.12 14.12 0 00.672 1.3c.292.373.65.72.978 1.066s.635.727.989 1.052.816.522 1.191.818.925.34 1.321.612.693.659 1.1.907.744.613 1.17.838.988.141 1.42.344.837.434 1.277.622.834.463 1.277.633.954.138 1.406.295.81.558 1.268.7.921.238 1.381.37.918.255 1.376.369.884.426 1.344.529.931.235 1.4.33 1.012-.226 1.479-.142.888.481 1.356.552 1-.241 1.467-.174.914.394 1.379.454.968-.031 1.435.018.964-.01 1.43.034c.484.043.919.518 1.385.554.485.036.976-.107 1.436-.077.491.027.961.175 1.42.195.5.023.985-.309 1.44-.295.5.014.972.259 1.42.266.512.007.989-.08 1.423-.08s.9.053 1.425.047c.445-.01.909-.272 1.418-.287a88.35 88.35 0 001.416-.053c.46-.027.955.36 1.445.327.463-.024.917-.354 1.4-.393.464-.033.964.238 1.447.2.464-.044.9-.51 1.379-.561.465-.05.961.117 1.435.06s.922-.241 1.4-.307.938-.085 1.415-.162.922-.211 1.393-.293.912-.255 1.381-.347.969.006 1.435-.1.961-.078 1.422-.2.959-.112 1.419-.239.914-.285 1.369-.423.828-.544 1.274-.7.826-.51 1.27-.678.921-.245 1.355-.434 1.036-.026 1.465-.228.742-.662 1.157-.884.73-.638 1.134-.881.851-.427 1.235-.693.958-.313 1.328-.6.766-.592 1.114-.908.753-.619 1.079-.965.63-.739.925-1.114.282-.968.537-1.369.726-.679.939-1.1a13.65 13.65 0 00.618-1.305c.168-.438.044-.983.171-1.449a10.618 10.618 0 00.343-1.171c-.672-.239-.648-.367-1.361-.367s-.71.07-1.425.07-.715.155-1.428.155-.716-.036-1.428-.036-.716-.037-1.428-.037-.716.144-1.43.144-.716.058-1.427.058-.719-.2-1.433-.2-.713-.188-1.428-.188-.716.094-1.43.094-.717-.066-1.43-.066-.714.225-1.428.225-.714-.046-1.427-.046-.715-.2-1.433-.2-.712.366-1.429.366-.713-.006-1.429-.006-.712.073-1.429.073-.712-.053-1.428-.053-.716-.061-1.43-.061-.716-.075-1.432-.075-.714-.269-1.426-.269-.716.114-1.433.114-.713-.081-1.43-.081-.715.438-1.43.438-.715-.159-1.428-.159-.717-.246-1.43-.246-.714.228-1.432.228-.714-.249-1.432-.249-.713.26-1.429.26-.714.08-1.43.08-.714-.125-1.429-.125-.716-.088-1.433-.088-.715-.105-1.43-.105-.714.144-1.432.144-.713-.209-1.43-.209-.717-.013-1.428-.013-.717.342-1.436.342-.712.056-1.428.056-.717-.12-1.43-.12-.714.216-1.43.216-.716-.437-1.429-.437-.716.391-1.433.391-.712-.1-1.43-.1-.712.073-1.432.073-.716-.333-1.428-.333-.717.154-1.433.154-.717-.243-1.433-.243-.714.235-1.432.235-.715-.252-1.43-.252-.717.339-1.435.339-.713-.213-1.43-.213h-1.432a6.438 6.438 0 01-1.42.051c-.746-.128-.809-.265-1.488-.026z"/></g></g></g><g data-name="グループ 18603"><g data-name="グループ 18600"><g data-name="グループ 18599"><path data-name="パス 331441" d="M404.081 51.63a12.283 12.283 0 10-15.27-8.269 48.376 48.376 0 00-13.313-1.783 47.881 47.881 0 00-13.947 1.974 12.274 12.274 0 10-14.783 8.205c-8.653 7.686-12.811 18.4-12.811 27.291h83.067c0-8.939-4.2-19.716-12.943-27.418z" fill="#ed8c00"/></g></g><g data-name="グループ 18602"><g data-name="グループ 18601"><path data-name="パス 331442" d="M417.025 81.494c-.714 0-.714.45-1.432.45s-.716-.058-1.433-.058-.714-.162-1.428-.162-.717.141-1.435.141-.713-.275-1.43-.275-.713.008-1.428.008-.715-.084-1.428-.084-.717-.031-1.433-.031-.712.06-1.429.06-.713.239-1.433.239-.714.159-1.428.159-.717-.343-1.435-.343-.716.354-1.43.354-.714.038-1.429.038-.714-.088-1.426-.088-.72-.014-1.436-.014-.717-.194-1.43-.194-.717-.181-1.432-.181-.716.364-1.433.364-.712-.028-1.43-.028-.717-.184-1.432-.184-.713.211-1.43.211-.717.108-1.43.108-.717-.354-1.432-.354-.72.13-1.436.13-.714.047-1.429.047-.716.031-1.43.031-.717-.211-1.433-.211-.717.189-1.433.189-.716-.174-1.433-.174-.713.206-1.429.206-.717-.235-1.435-.235-.714.013-1.433.013-.715.073-1.432.073-.716.078-1.43.078-.717.192-1.435.192-.716-.211-1.43-.211-.717.2-1.435.2-.716-.373-1.433-.373-.715-.064-1.435-.064-.716.346-1.43.346-.717-.371-1.435-.371-.716.47-1.43.47-.713-.169-1.435-.169-.713.175-1.428.175-.719-.175-1.436-.175-.715-.148-1.428-.148-.717.071-1.437.071-.717.108-1.43.108-.717-.09-1.435-.09-.717-.184-1.438-.184-.716.02-1.432.02-.716.084-1.436.084-.714-.047-1.429-.047-.72.174-1.436.174-.717-.008-1.433-.008-.719-.215-1.439-.215-.714-.083-1.437-.083a2.218 2.218 0 01-1.228-.295 2.276 2.276 0 01-.9-.905c-.229-.4-.593-.737-.593-1.228s.3-.958.32-1.446-.028-.964.013-1.449-.292-1.009-.226-1.492.444-.915.529-1.395.129-.958.233-1.437.167-.955.283-1.428.411-.89.552-1.358.192-.954.35-1.412.235-.944.4-1.4.529-.831.714-1.281.07-1.025.275-1.472.779-.7 1-1.133-.028-1.112.2-1.539.517-.833.764-1.255.538-.811.8-1.223.746-.672 1.021-1.073.438-.881.729-1.272.585-.78.887-1.159.737-.652 1.053-1.018.37-.78.7-1.14c-.4-.243-.544-.588-.914-.867a13.323 13.323 0 01-1.109-.833c-.346-.312-.559-.742-.871-1.085s-.591-.692-.875-1.06-.475-.774-.719-1.169-.612-.7-.82-1.117-.352-.842-.522-1.275-.344-.851-.474-1.3-.253-.88-.339-1.341-.343-.887-.386-1.352.306-.934.306-1.4c0-.5-.117-.978-.071-1.456s.236-.942.33-1.422a14.117 14.117 0 01.383-1.395 13.024 13.024 0 01.39-1.4c.186-.454.1-1.042.33-1.467s.759-.693 1.026-1.1.26-1.032.574-1.412.75-.665 1.094-1.012.75-.646 1.127-.958.783-.6 1.191-.872.941-.315 1.375-.552.752-.685 1.2-.874a14.108 14.108 0 011.476-.231c.46-.144.838-.673 1.322-.767s1.019.182 1.509.132.962-.038 1.457-.038.992-.194 1.476-.144.936.359 1.413.453 1.033-.094 1.5.046.907.413 1.355.6.958.3 1.392.524.714.717 1.12.989 1.028.278 1.406.586.44.975.789 1.321.988.43 1.3.813.638.774.912 1.177.2 1.029.436 1.462a14.361 14.361 0 01.717 1.28c.185.445.443.88.586 1.352s.315.936.411 1.42-.188 1.006-.139 1.5.131.952.131 1.449c0 .026.127-.2.125-.179.437-.093.917.078 1.359 0s.875-.185 1.322-.253.9-.038 1.342-.094.88-.179 1.326-.225.885-.164 1.335-.2.888-.12 1.344-.14.9.233 1.355.228.89-.249 1.345-.249c.481 0 .968.114 1.452.128s.958.246 1.439.269.976-.078 1.457-.04.951.182 1.433.232.982-.061 1.462 0 .951.181 1.43.258.979.151 1.453.242c0-.494 0-1.006.051-1.487s.359-.928.455-1.406a14.282 14.282 0 01.2-1.442 13.964 13.964 0 01.492-1.381 12.809 12.809 0 01.777-1.235 13.579 13.579 0 01.709-1.258c.272-.406.6-.744.907-1.124s.625-.719.971-1.066.652-.71 1.026-1.023.581-.854.988-1.121 1.023-.185 1.457-.416a13.316 13.316 0 011.27-.692c.45-.189.844-.515 1.312-.66s.954-.185 1.438-.277a13.243 13.243 0 011.43-.319 14.878 14.878 0 011.469-.262c.5 0 .959.51 1.44.557s1.043-.354 1.523-.26.941.35 1.4.492a13.927 13.927 0 011.368.561c.454.186.979.243 1.409.47s.794.615 1.2.887.882.475 1.258.786.816.589 1.163.934.359 1 .672 1.383.572.77.844 1.176.615.757.848 1.19a14.552 14.552 0 01.579 1.339c.188.451.652.807.793 1.277s.061 1 .155 1.487a14.6 14.6 0 01.4 1.429c.047.487-.055.988-.055 1.484s-.315.968-.36 1.455.253 1.04.155 1.524-.35.939-.5 1.41-.182 1-.373 1.45-.327.965-.566 1.4a14.648 14.648 0 01-.848 1.247c-.279.409-.539.857-.857 1.238s-.969.46-1.322.806-.572.828-.956 1.143-.761.6-1.18.871c.319.347.663.635.971.989s.445.847.742 1.207.492.8.774 1.173.776.585 1.045.968.562.75.821 1.143.666.689.911 1.087.039 1.066.268 1.474.713.67.931 1.087.473.81.673 1.23.367.864.557 1.294.1.968.279 1.4.81.7.966 1.133.253.909.4 1.358.009.976.134 1.423.534.834.645 1.288-.221 1.009-.131 1.466.549.85.631 1.307.117.932.175 1.4.117.931.155 1.4.08.938.1 1.4.11.938.11 1.408c0 .491-.535.833-.764 1.228a2.566 2.566 0 01-.791 1.08 2.6 2.6 0 01-1.327.133zm-80.309-4.906c.676.229.793-.443 1.51-.443s.716.064 1.43.064.714.164 1.43.164.714-.144 1.432-.144.713.278 1.429.278.717-.01 1.432-.01.716.083 1.435.083.719.034 1.436.034.712-.061 1.429-.061.716-.239 1.43-.239.719-.161 1.433-.161.714.344 1.43.344.717-.353 1.432-.353.716-.04 1.435-.04.713.082 1.435.082.715.018 1.432.018.714.194 1.428.194.72.181 1.432.181.717-.364 1.433-.364.72.033 1.435.033.717.182 1.435.182.716-.211 1.43-.211.717-.108 1.435-.108.719.352 1.433.352.717-.128 1.435-.128.716-.047 1.43-.047.717-.03 1.433-.03.717.209 1.435.209.715-.189 1.435-.189.717.175 1.433.175.714-.211 1.435-.211.714.238 1.432.238.719-.013 1.433-.013.717-.071 1.433-.071.719-.077 1.435-.077.717-.2 1.435-.2.716.213 1.435.213.717-.194 1.433-.194.717.371 1.432.371.719.061 1.436.061.714-.344 1.432-.344.716.374 1.433.374.717-.471 1.435-.471.714.168 1.433.168.717-.174 1.435-.174.717.169 1.432.169.719.149 1.436.149.717-.073 1.437-.073.717-.1 1.435-.1.714.092 1.435.092.716.182 1.433.182.717-.026 1.435-.026.72-.083 1.438-.083.8.273 1.482.041c-.05-.471-.191-1.073-.263-1.563-.07-.474-.142-.952-.236-1.435s.013-1-.1-1.473-.164-.963-.3-1.436-.307-.924-.465-1.392-.31-.922-.481-1.382-.6-.8-.8-1.257-.124-1.012-.337-1.452-.5-.834-.73-1.274c-.223-.423-.8-.66-1.049-1.083-.235-.417-.218-.993-.481-1.408s-.566-.787-.841-1.2-.6-.757-.9-1.153-.457-.873-.766-1.253-.693-.683-1.019-1.052-.713-.659-1.056-1.008-.545-.83-.9-1.167-.936-.416-1.307-.739-.282-.925-.433-1.373-.689-.912-.582-1.391a3.209 3.209 0 01.754-1.352 3.1 3.1 0 011.317-.77 9.375 9.375 0 001.356-.233 10.131 10.131 0 001.124-.787 8.839 8.839 0 001.075-.823 9.932 9.932 0 001.08-.848c.293-.343.329-.881.571-1.262s.7-.642.888-1.055a9.5 9.5 0 00.424-1.3 5.605 5.605 0 00.559-2.691 10.169 10.169 0 00-.033-1.4 9.929 9.929 0 00-.457-1.322 9.8 9.8 0 00-.445-1.311 10 10 0 00-.7-1.193 9.824 9.824 0 00-.841-1.093 10.562 10.562 0 00-1.1-.826c-.343-.3-.491-.877-.875-1.123a29.217 29.217 0 01-2.549-1.141 9.923 9.923 0 00-1.365-.327 9.775 9.775 0 00-1.4.007c-.464 0-.892.359-1.339.42s-.966-.138-1.4-.011-.727.646-1.136.834a9.054 9.054 0 00-1.24.531 9.761 9.761 0 00-1.11.771 10.012 10.012 0 00-.968.952c-.3.346-.769.576-1.013.959a10.224 10.224 0 00-.414 1.338c-.192.411-.618.746-.749 1.186s.192.964.125 1.42-.45.867-.45 1.331a10.126 10.126 0 00.073 1.395 10.437 10.437 0 00.508 1.312 2.685 2.685 0 01-.2 1.4c-.117.46-.081 1.033-.426 1.385a3.887 3.887 0 01-2.808.752c-.45-.13-.834-.512-1.3-.625s-.995.138-1.455.043-.84-.629-1.3-.715-.993.258-1.46.191-.928-.1-1.4-.155-.9-.48-1.369-.521-.944.026-1.418 0-.945.05-1.419.037-.938.037-1.408.037c-.5 0-1-.346-1.492-.333s-.992.091-1.486.121-.956.487-1.445.532-1.009-.164-1.5-.1-.978.159-1.462.233-.992.078-1.476.167-.955.266-1.437.376-.942.3-1.416.433-.934.313-1.406.457a2.827 2.827 0 01-1.463-.228 2.792 2.792 0 01-1.362-.528 2.858 2.858 0 01-.63-1.342 2.6 2.6 0 01.25-1.382 151.014 151.014 0 01.416-2.936 9.631 9.631 0 00-.275-1.366 9.114 9.114 0 00-.246-1.346 9.311 9.311 0 00-.488-1.281 10.04 10.04 0 00-.689-1.181 10.437 10.437 0 00-.64-1.251 38.275 38.275 0 00-2.2-1.685 10.481 10.481 0 00-1.134-.816 10.6 10.6 0 00-1.325-.451 9.76 9.76 0 00-1.352-.35 9.922 9.922 0 00-1.4-.1 10.3 10.3 0 00-1.391.165c-.454.067-.835.474-1.268.6s-1.018-.077-1.428.11a10.445 10.445 0 00-1.186.746 11 11 0 00-.995.968 6.032 6.032 0 00-2.247 3.35c-.186.413-.8.67-.934 1.114s.246.984.181 1.438a9.126 9.126 0 00-.229 1.336 27.019 27.019 0 00.872 4.053 9.588 9.588 0 00.784 1.15 9.375 9.375 0 00.909 1.029c.312.346.343.979.7 1.275a9.983 9.983 0 001.149.853 10.352 10.352 0 001.316.545 9.787 9.787 0 001.329.5c.483.124 1.076.12 1.412.467a2.945 2.945 0 01.542 1.389 2.052 2.052 0 01-.789 2.661c-.36.324-.915.444-1.258.776s-.42.954-.753 1.3-.759.613-1.076.974-.518.827-.821 1.2-.521.817-.808 1.2-.629.727-.9 1.12-.483.831-.734 1.238-.878.6-1.117 1.015-.289.954-.511 1.376-.42.871-.625 1.305-.363.9-.547 1.336-.562.82-.733 1.268-.437.881-.588 1.332-.04 1.008-.171 1.466-.223.942-.333 1.406-.037.979-.127 1.445c-.093.485-.686.871-.754 1.339-.072.481.048 1.232.004 1.7z"/></g></g></g><g data-name="グループ 18606"><g data-name="グループ 18605"><g data-name="グループ 18604"><path data-name="パス 331443" d="M352.999 42.54a.989.989 0 01-.3.727 1.011 1.011 0 01-.727.322c-.357 0-.357.027-.71.027s-.356.061-.71.061-.356-.068-.713-.068-.354.067-.712.067-.356-.124-.71-.124-.36-.019-.716-.019a1.071 1.071 0 01-.779-.214 1.051 1.051 0 01-.206-.78c0-.357-.149-.357-.149-.713s.054-.354.054-.71-.056-.35-.056-.709.054-.357.054-.714.048-.353.048-.712-.023-.353-.023-.712a1.088 1.088 0 01.285-.771 1.1 1.1 0 01.771-.295c.356 0 .356.061.71.061s.357-.011.713-.011.354-.026.707-.026.36.016.716.016.353-.05.712-.05h.713a1.008 1.008 0 01.712.366.937.937 0 01.273.71c0 .356.006.356.006.712v.709c0 .354.084.354.084.707s-.09.357-.09.715.037.354.024.71.019.359.019.718z"/></g></g></g><g data-name="グループ 18615"><g data-name="グループ 18611"><g data-name="グループ 18608"><g data-name="グループ 18607"><path data-name="パス 331444" d="M404.231 42.539a1.1 1.1 0 01-.191.8 1.183 1.183 0 01-.8.31c-.356 0-.356-.053-.71-.053s-.356.046-.716.046-.353-.087-.7-.087h-.713c-.357 0-.357-.026-.714-.026s-.359-.01-.712-.01a.949.949 0 01-.712-.275 1.037 1.037 0 01-.37-.709c0-.357-.051-.357-.051-.713s.11-.354.11-.71-.111-.35-.111-.709-.013-.357-.013-.714.027-.353.027-.712v-.712a1.1 1.1 0 01.371-.743 1 1 0 01.746-.252c.352 0 .352-.117.709-.117s.354.009.713.009.356.06.71.06.354-.068.712-.068.356-.033.71-.033.359.112.716.112a1.032 1.032 0 01.756.275 1.077 1.077 0 01.329.757c0 .356.01.356.01.712s-.065.354-.065.709.06.354.06.707-.056.357-.056.715.092.36.068.714a6.4 6.4 0 00-.113.717z"/></g></g><g data-name="グループ 18610"><g data-name="グループ 18609"><path data-name="パス 331445" d="M404.231 42.539a1.1 1.1 0 01-.191.8 1.183 1.183 0 01-.8.31c-.356 0-.356-.053-.71-.053s-.356.046-.716.046-.353-.087-.7-.087h-.713c-.357 0-.357-.026-.714-.026s-.359-.01-.712-.01a.949.949 0 01-.712-.275 1.037 1.037 0 01-.37-.709c0-.357-.051-.357-.051-.713s.11-.354.11-.71-.111-.35-.111-.709-.013-.357-.013-.714.027-.353.027-.712v-.712a1.1 1.1 0 01.371-.743 1 1 0 01.746-.252c.352 0 .352-.117.709-.117s.354.009.713.009.356.06.71.06.354-.068.712-.068.356-.033.71-.033.359.112.716.112a1.032 1.032 0 01.756.275 1.077 1.077 0 01.329.757c0 .356.01.356.01.712s-.065.354-.065.709.06.354.06.707-.056.357-.056.715.092.36.068.714a6.4 6.4 0 00-.113.717z"/></g></g></g><g data-name="グループ 18614"><g data-name="グループ 18613"><g data-name="グループ 18612"><path data-name="パス 331446" d="M404.231 42.539a1.1 1.1 0 01-.191.8 1.183 1.183 0 01-.8.31c-.356 0-.356-.053-.71-.053s-.356.046-.716.046-.353-.087-.7-.087h-.713c-.357 0-.357-.026-.714-.026s-.359-.01-.712-.01a.949.949 0 01-.712-.275 1.037 1.037 0 01-.37-.709c0-.357-.051-.357-.051-.713s.11-.354.11-.71-.111-.35-.111-.709-.013-.357-.013-.714.027-.353.027-.712v-.712a1.1 1.1 0 01.371-.743 1 1 0 01.746-.252c.352 0 .352-.117.709-.117s.354.009.713.009.356.06.71.06.354-.068.712-.068.356-.033.71-.033.359.112.716.112a1.032 1.032 0 01.756.275 1.077 1.077 0 01.329.757c0 .356.01.356.01.712s-.065.354-.065.709.06.354.06.707-.056.357-.056.715.092.36.068.714a6.4 6.4 0 00-.113.717z"/></g></g></g></g></g></g></g><g data-name="グループ 18632"><g data-name="グループ 18631"><g data-name="グループ 18621"><g data-name="グループ 18619"><path data-name="パス 331447" d="M314.777 77.245a3.756 3.756 0 01.219-1.386c.157-.4.438-.8.677-1.254.212-.4.362-.868.621-1.285.248-.4.532-.79.807-1.18s.689-.686.978-1.052c.307-.39.575-.784.878-1.116a11.686 11.686 0 01.995-1.013 2.572 2.572 0 011.215-.727 2.015 2.015 0 01-1.24-.524 11.226 11.226 0 01-.938-1.012c-.3-.319-.552-.7-.851-1.08-.28-.353-.6-.689-.872-1.072s-.64-.695-.88-1.083c-.25-.407-.468-.827-.672-1.22a11.048 11.048 0 01-.524-1.291 4.038 4.038 0 01-.307-1.348 3.9 3.9 0 01-.268 1.376 13.393 13.393 0 01-.626 1.278c-.212.4-.482.8-.742 1.211-.248.4-.569.756-.844 1.147s-.421.885-.71 1.251c-.307.389-.653.73-.955 1.062a10.454 10.454 0 01-1.055.958 2.085 2.085 0 01-1.223.575 2.434 2.434 0 011.25.666 10.048 10.048 0 011 .959c.3.317.527.733.826 1.109.28.354.561.723.83 1.106s.554.749.793 1.137c.25.407.566.77.769 1.163a11.621 11.621 0 01.568 1.275 4.023 4.023 0 01.281 1.37z" fill="#ed8c00"/></g><g data-name="グループ 18620"><path data-name="パス 331448" d="M314.716 79.306c-.009 0-.016-.02-.024-.02a2.093 2.093 0 01-1.512-.532 2.128 2.128 0 01-.565-1.52h-.059a3.759 3.759 0 00-.421-1.247c-.175-.362-.454-.72-.7-1.132-.223-.371-.369-.817-.626-1.193s-.539-.737-.807-1.083c-.293-.381-.646-.679-.922-.981a4.748 4.748 0 00-.961-.865 2.2 2.2 0 01-1.278-.75 2.139 2.139 0 01-.465-1.379c0-.016.09-.029.09-.044a2.081 2.081 0 01.343-1.381 2.183 2.183 0 011.26-.746 4.711 4.711 0 001.066-.89c.286-.317.541-.73.848-1.13.28-.363.68-.665.951-1.057s.343-.921.582-1.309c.266-.436.645-.771.835-1.15a4.016 4.016 0 00.443-1.329 2.069 2.069 0 114.115.04h.185-.144.064l-.007.009a3.915 3.915 0 00.431 1.27c.175.359.349.787.6 1.2.223.372.529.719.787 1.095s.551.724.818 1.07c.293.38.615.706.89 1.006a4.968 4.968 0 00.971.885 2.13 2.13 0 011.25.742 2.1 2.1 0 01.528 1.344c0 .014-.084.031-.084.047a1.959 1.959 0 01-.451 1.309 2.042 2.042 0 01-1.188.777 5.114 5.114 0 00-1.055.926c-.287.317-.578.7-.887 1.1-.279.363-.517.78-.787 1.173s-.534.8-.773 1.186c-.266.436-.582.81-.773 1.188a3.614 3.614 0 00-.38 1.335 2.073 2.073 0 01-.781 1.388 1.948 1.948 0 01-1.407.648zm-2.71-10.807c.295.31.619.739.962 1.16.29.359.68.682.982 1.1.28.387.532.834.8 1.252.269-.43.534-.9.834-1.315s.609-.838.931-1.23c.334-.407.677-.771 1.023-1.127-.293-.31-.67-.621-1.013-1.042-.292-.357-.5-.823-.8-1.238-.282-.387-.575-.784-.844-1.2-.27.43-.492.908-.793 1.326s-.618.835-.938 1.227c-.336.401-.794.731-1.144 1.087zm9.117-2.279z"/></g></g><g data-name="グループ 18624"><g data-name="グループ 18622"><path data-name="パス 331449" d="M425.265 26.302a4.765 4.765 0 01.45-1.348 11.024 11.024 0 01.467-1.351c.212-.4.6-.733.857-1.15.248-.4.5-.8.77-1.2s.592-.754.881-1.12c.307-.39.608-.756.911-1.087a11.69 11.69 0 01.974-1.032 2.241 2.241 0 011.217-.636 2.235 2.235 0 01-1.264-.588 10.763 10.763 0 01-.952-1.006c-.3-.318-.645-.635-.944-1.011-.28-.353-.508-.767-.777-1.15s-.458-.81-.7-1.2c-.25-.407-.471-.813-.675-1.205-.229-.443-.565-.807-.71-1.2a4.074 4.074 0 01-.3-1.364 4.148 4.148 0 01-.366 1.325 11.725 11.725 0 01-.554 1.3c-.212.4-.316.894-.575 1.311-.248.4-.537.787-.811 1.177s-.665.706-.954 1.072c-.307.389-.532.828-.834 1.159a11.2 11.2 0 01-1.011 1.018 2.212 2.212 0 01-1.285.575 2.278 2.278 0 011.2.652 10.264 10.264 0 01.966.973c.295.319.68.6.979.976.282.353.572.722.84 1.106s.508.784.747 1.173c.25.407.525.794.729 1.187a10.4 10.4 0 01.461 1.315 3.708 3.708 0 01.263 1.329z" fill="#ed8c00"/></g><g data-name="グループ 18623"><path data-name="パス 331450" d="M425.342 28.33c-.009 0-.016.135-.024.135a2.636 2.636 0 01-2.124-2.175 4.156 4.156 0 00-.481-1.221c-.176-.362-.342-.783-.589-1.2-.223-.371-.381-.814-.639-1.191s-.649-.656-.917-1c-.293-.381-.477-.827-.753-1.129a4.783 4.783 0 00-1.045-.861 2.078 2.078 0 01-1.26-.693 2 2 0 01-.431-1.338c0-.016-.212-.027-.212-.043a2.334 2.334 0 01.492-1.438 2.286 2.286 0 011.325-.7 5.089 5.089 0 001.012-.929c.286-.316.707-.592 1.015-.993.279-.361.421-.85.693-1.243s.585-.76.824-1.15c.266-.434.6-.8.794-1.178a3.516 3.516 0 00.342-1.358 2.14 2.14 0 01.7-1.463 2.164 2.164 0 011.476-.689c.008 0 .016.15.024.15a2.124 2.124 0 011.523.514 2.167 2.167 0 01.565 1.53h.1-.111.044-.057.15a3.238 3.238 0 00.334 1.25c.177.36.407.747.655 1.157.225.372.34.84.6 1.215s.541.74.808 1.085a13.041 13.041 0 001 .919 5.242 5.242 0 00.945.912 2.036 2.036 0 011.171.806 1.931 1.931 0 01.556 1.271c0 .016.083.03.083.047a2.055 2.055 0 01-.571 1.3 2.1 2.1 0 01-1.161.843 5.563 5.563 0 00-.966.966 14.1 14.1 0 00-1.057.955c-.279.363-.508.791-.779 1.184s-.411.874-.65 1.264c-.266.435-.545.821-.734 1.2a4.472 4.472 0 00-.524 1.281 2.158 2.158 0 01-.64 1.492 2.069 2.069 0 01-1.506.516zm-2.747-10.777c.295.312.747.665 1.09 1.087.292.359.471.842.771 1.258.282.387.649.7.918 1.122.27-.431.49-.881.789-1.3s.665-.8.986-1.188c.334-.407.779-.771 1.124-1.127-.295-.31-.759-.648-1.1-1.069-.292-.359-.48-.838-.78-1.253-.28-.389-.621-.773-.89-1.191-.27.43-.578.867-.877 1.285s-.683.773-1 1.163c-.339.408-.685.859-1.031 1.213zm9.149-2.24z"/></g></g><g data-name="グループ 18627"><g data-name="グループ 18625"><path data-name="パス 331451" d="M440.299 68.563a4.615 4.615 0 01.021-1.358 11.967 11.967 0 01.4-1.3c.158-.393.468-.754.673-1.178.188-.389.325-.828.545-1.237.211-.384.49-.749.723-1.143s.645-.652.889-1.036.29-.882.545-1.255.6-.683.867-1.048.45-.8.723-1.15.67-.629.951-.971c.3-.359.4-.868.693-1.2.315-.352.71-.612 1.015-.918.337-.342.638-.693.954-.965a7.322 7.322 0 011.226-.611c.474-.3.823-.675 1.167-.683a2.223 2.223 0 01-1.29-.205 8.942 8.942 0 01-1.052-.817c-.312-.26-.7-.5-1.035-.828-.3-.292-.615-.608-.921-.944-.285-.314-.406-.794-.693-1.14-.275-.329-.464-.736-.736-1.087s-.714-.552-.973-.909-.4-.793-.646-1.156-.649-.629-.882-1-.221-.9-.438-1.275c-.228-.389-.695-.633-.9-1.012-.214-.4-.192-.905-.373-1.289-.2-.417-.292-.844-.441-1.231-.171-.443-.569-.774-.669-1.163a4.614 4.614 0 01-.044-1.311 6.57 6.57 0 01-.418 1.287 9.655 9.655 0 01-.174 1.361c-.159.393-.484.744-.689 1.168-.189.389-.453.757-.675 1.164-.209.386-.332.833-.567 1.228-.226.38-.524.727-.769 1.112s-.477.76-.732 1.133-.529.732-.794 1.1-.622.663-.894 1.018-.488.77-.77 1.11c-.295.359-.4.865-.7 1.193-.315.352-.757.566-1.06.872-.339.34-.74.568-1.056.84a9.032 9.032 0 01-1.05.824 2.566 2.566 0 01-1.2.5 2.539 2.539 0 011.255.41 9.378 9.378 0 011.015.843c.312.26.6.586.935.915.3.292.67.538.976.875.285.313.5.709.783 1.055.275.33.562.659.835 1.011s.635.613.894.971.334.837.581 1.2.481.732.714 1.1.458.751.676 1.126.574.7.776 1.076c.213.4.273.86.453 1.244.2.417.629.71.779 1.1a9.748 9.748 0 01.236 1.312 5.933 5.933 0 01.341 1.272z" fill="#fff"/></g><g data-name="グループ 18626"><path data-name="パス 331452" d="M440.204 70.84c-.009 0-.013-.369-.021-.369-.581-.006-1.2.051-1.574-.332a2.286 2.286 0 01-.558-1.577c0-.009-.127-.017-.127-.026a3.894 3.894 0 00-.231-1.294 10.224 10.224 0 00-.343-1.332c-.181-.39-.37-.811-.6-1.233-.209-.387-.538-.73-.778-1.133-.231-.386-.393-.826-.646-1.215s-.578-.713-.84-1.092-.407-.841-.678-1.207-.68-.649-.959-1c-.295-.374-.455-.841-.742-1.177-.315-.369-.742-.606-1.036-.917a11.78 11.78 0 00-1.082-.84c-.444-.383-.712-.788-1.013-.888a2.32 2.32 0 01-1.548-.511c-.366-.371-.276-1-.288-1.561 0-.014-.209-.026-.209-.04a2.31 2.31 0 01.464-1.541 2.346 2.346 0 011.486-.669 3.153 3.153 0 001.13-.6c.293-.252.562-.611.9-.962.283-.293.538-.65.841-1 .276-.317.719-.522 1-.875.269-.335.529-.693.8-1.05s.578-.665.837-1.025.3-.862.551-1.227.615-.655.85-1.023.6-.683.821-1.055c.232-.391.337-.848.538-1.224.219-.408.272-.877.445-1.253.2-.438.436-.82.561-1.2a4.328 4.328 0 00.256-1.27 1.794 1.794 0 012.133-2.1c.009 0 .014.132.023.132a2.263 2.263 0 011.6.383 2.4 2.4 0 01.621 1.605c0 .007.061.017.061.026a3.938 3.938 0 00.259 1.275c.13.39-.057.959.152 1.413.181.389.626.683.854 1.1.211.387.527.729.767 1.133.231.384.5.752.75 1.141s.35.863.612 1.24.4.845.673 1.211.544.759.823 1.112c.295.373.857.508 1.143.844.315.367.586.729.881 1.039.35.367.552.817.858 1.08a2.85 2.85 0 001.174.555c.556.021.9.565 1.265.939s.918.737.931 1.3c0 .016-.218.036-.218.051a2.03 2.03 0 01-.566 1.4 1.983 1.983 0 01-1.381.559 4.183 4.183 0 00-1.17.749c-.295.252-.4.784-.739 1.136-.283.295-.8.418-1.1.769-.276.317-.595.633-.88.988-.269.333-.548.682-.818 1.039s-.487.733-.746 1.094-.413.789-.659 1.153-.379.81-.613 1.177-.689.625-.909 1c-.232.391-.505.754-.706 1.13-.219.408-.287.878-.461 1.254a12.991 12.991 0 00-.524 1.224 3.607 3.607 0 00-.037 1.3 2.973 2.973 0 01-2.27 2.252zm-6.883-17.752c.216.194.134.515.359.739.3.3.857.4 1.177.751.292.322.524.727.824 1.087.282.34.668.618.952.983s.53.737.8 1.11.38.843.639 1.221.49.766.734 1.149.582.714.813 1.1.417.864.631 1.258c.209-.393.393-.86.625-1.26s.589-.7.831-1.092.354-.851.609-1.231.65-.658.914-1.028.407-.835.682-1.2.448-.818.733-1.166.737-.586 1.035-.921.5-.8.807-1.117c.33-.334.972-.485 1.3-.777-.213-.195-.633-.44-.858-.662-.3-.3-.72-.535-1.042-.891-.292-.322-.555-.7-.855-1.063-.282-.339-.467-.776-.752-1.141s-.606-.675-.878-1.046-.571-.71-.83-1.087-.333-.871-.578-1.254-.5-.763-.727-1.151-.544-.907-.757-1.3c-.209.393-.359 1-.591 1.4s-.586.7-.83 1.095-.608.685-.861 1.065-.4.827-.662 1.2-.406.838-.68 1.2-.619.68-.905 1.028-.586.71-.884 1.045-.491.808-.8 1.123c-.333.33-.648.541-.975.832zm18.423 1.483zm-22.727-3.753z"/></g></g><g data-name="グループ 18630"><g data-name="グループ 18628"><path data-name="パス 331453" d="M308.997 46.848a6.444 6.444 0 01.381-1.315 13.025 13.025 0 01.512-1.237c.159-.393.073-.925.278-1.349.188-.39.527-.729.747-1.136.211-.386.384-.807.619-1.2s.389-.817.635-1.2.7-.615.956-.988.484-.763.749-1.127.6-.68.874-1.035.468-.788.749-1.13c.3-.357.542-.746.834-1.073.314-.351.722-.593 1.026-.9.337-.34.571-.754.887-1.028a8.783 8.783 0 011.1-.787 2.178 2.178 0 011.264-.263 2.944 2.944 0 01-1.278-.512c-.332-.2-.565-.629-.939-.942a12.707 12.707 0 01-1.123-.715c-.3-.293-.558-.655-.863-.992-.285-.313-.636-.593-.924-.939-.275-.329-.5-.72-.769-1.072s-.413-.779-.672-1.136-.534-.693-.781-1.056-.4-.787-.633-1.156-.588-.675-.807-1.047-.609-.683-.811-1.062c-.214-.4-.225-.894-.4-1.277-.2-.417-.235-.871-.384-1.258a10.817 10.817 0 01-.4-1.234 5.157 5.157 0 01-.249-1.24 5.414 5.414 0 01-.2 1.363c-.11.394-.468.754-.65 1.2-.158.393-.339.8-.544 1.223-.188.389-.3.837-.52 1.245-.209.384-.592.683-.827 1.077s-.253.894-.5 1.278-.5.753-.75 1.126-.561.712-.824 1.076-.689.616-.962.971-.293.929-.575 1.27c-.295.359-.7.618-.989.944-.315.352-.707.606-1.011.912-.339.34-.727.572-1.043.845a8.988 8.988 0 01-1.056.8c-.475.3-.808.673-1.153.68a2.266 2.266 0 011.252.3 8.921 8.921 0 011.032.823c.312.26.68.511 1.013.84.3.292.454.744.759 1.082.285.313.693.538.979.882s.484.724.757 1.076.551.675.808 1.032.535.7.781 1.06.589.669.823 1.038.3.855.518 1.228c.226.389.65.659.853 1.038.214.4.418.8.6 1.184.195.417.393.826.542 1.213a9.932 9.932 0 01.243 1.317 4.505 4.505 0 01.066 1.283z" fill="#fff"/></g><g data-name="グループ 18629"><path data-name="パス 331454" d="M309.117 49.089c-.009 0-.014-.3-.023-.3a1.646 1.646 0 01-1.923-1.941c0-.009-.167-.016-.167-.023a4.026 4.026 0 00-.161-1.375c-.13-.39-.386-.794-.595-1.248-.179-.389-.5-.737-.729-1.16-.211-.387-.492-.747-.733-1.151-.231-.386-.426-.8-.677-1.19s-.3-.9-.565-1.275-.592-.712-.862-1.077-.534-.763-.813-1.116c-.293-.374-.695-.643-.982-.979-.315-.369-.49-.831-.784-1.141a11.27 11.27 0 00-1.11-.831 5.151 5.151 0 00-1.085-.9 2.311 2.311 0 01-1.563-.4 2.361 2.361 0 01-.554-1.554c0-.014.229-.03.229-.046a1.962 1.962 0 01.421-1.42 2.1 2.1 0 011.368-.709 3.264 3.264 0 001.21-.569c.295-.252.478-.713.816-1.063.283-.295.455-.726.759-1.075.275-.319.777-.47 1.062-.823.269-.334.6-.639.871-1s.451-.759.709-1.119.525-.71.773-1.075.519-.722.754-1.089.525-.732.744-1.1c.232-.393.461-.781.662-1.156.219-.409.215-.911.389-1.287.2-.438.5-.8.625-1.18a4.225 4.225 0 00.195-1.307 2 2 0 01.656-1.423 1.966 1.966 0 011.43-.6c.009 0 .016-.047.024-.047a1.895 1.895 0 012.074 2.1c0 .007.151.017.151.024a3.739 3.739 0 00.141 1.335 11.8 11.8 0 00.488 1.281c.179.388.522.726.75 1.147.211.387.2.924.438 1.327.231.386.539.737.791 1.127s.676.646.938 1.025.41.835.68 1.2.558.741.837 1.094c.293.373.591.726.878 1.063.313.367.569.757.864 1.067a11.271 11.271 0 001.1.835 4.471 4.471 0 001.072.841 2.059 2.059 0 011.4.631 2.188 2.188 0 01.742 1.41c0 .017-.231.034-.231.05a2.252 2.252 0 01-.33 1.541 2.285 2.285 0 01-1.5.564 3.4 3.4 0 00-1.2.609c-.293.252-.554.636-.891.988-.283.293-.646.565-.949.915-.276.317-.431.766-.716 1.119-.269.333-.669.582-.941.939s-.347.833-.6 1.193-.5.723-.747 1.087-.655.63-.888 1-.407.8-.628 1.171c-.232.393-.42.8-.621 1.171-.219.409-.242.885-.416 1.261-.2.44-.574.761-.7 1.137a4.424 4.424 0 00-.262 1.281 1.989 1.989 0 01-.69 1.4 2.15 2.15 0 01-1.405.816zm-6.919-17.724c.215.195.192.5.417.724.3.3.734.508 1.055.864.292.322.463.77.763 1.131.283.339.7.586.981.954s.46.78.73 1.153.6.688.854 1.065.616.686.861 1.069.544.743.773 1.133.319.767.532 1.161c.209-.393.544-.616.776-1.016s.394-.816.636-1.207.511-.75.764-1.13.394-.834.659-1.206.679-.635.954-1 .424-.83.709-1.178.72-.594 1.018-.927.411-.88.723-1.194c.329-.334.712-.548 1.038-.838-.216-.195-.256-.5-.481-.729-.3-.3-.712-.531-1.032-.885-.292-.323-.625-.635-.925-.995-.282-.34-.414-.813-.7-1.18s-.71-.591-.981-.964-.665-.645-.922-1.023-.269-.915-.514-1.3-.42-.808-.649-1.2-.6-.781-.817-1.176c-.209.391-.512.818-.744 1.218s-.485.76-.729 1.15-.531.733-.784 1.113-.515.744-.779 1.116-.35.875-.625 1.235-.669.636-.955.985-.532.751-.831 1.084-.658.642-.968.956c-.33.345-.481.745-.807 1.037zm18.458 1.527zm-22.725-3.75zm22.633-.487z"/></g></g></g></g></g></g></svg>