<svg xmlns="http://www.w3.org/2000/svg" width="676.391" height="30.42"><g data-name="グループ 17836"><path data-name="パス 331744" d="M67.536 8.666c1.1 0 1.421.377 1.421 1.189v13.63c0 .7-.261.957-.754.957a9.833 9.833 0 01-1.566-.145 1.19 1.19 0 00-.319-.029 1.513 1.513 0 00-1.45 1.624 1.514 1.514 0 001.247 1.566 11.662 11.662 0 002.523.232c2.175 0 3.509-.986 3.509-3.567V9.478c0-2.262-1.189-3.654-4.031-3.654h-6.322c.087-1.1.145-2.291.145-3.509a1.444 1.444 0 00-1.566-1.45 1.444 1.444 0 00-1.566 1.45c0 1.247-.058 2.407-.145 3.509h-6.09c-2.871 0-4.031 1.392-4.031 3.654v17.487c0 .812.812 1.218 1.595 1.218.812 0 1.595-.406 1.595-1.218V9.855c0-.812.319-1.189 1.421-1.189h5.162c-.754 4.263-2.378 7.163-5.1 9.338a1.6 1.6 0 00-.7 1.276 1.461 1.461 0 001.479 1.45 2.02 2.02 0 001.251-.493 16.458 16.458 0 004.495-5.916 28.969 28.969 0 015.684 4.785 1.412 1.412 0 001.044.493 1.665 1.665 0 001.62-1.655 1.906 1.906 0 00-.643-1.361 29.216 29.216 0 00-6.7-4.988 20.377 20.377 0 00.667-2.929zm35.7-2.523c0-1.972-1.073-2.784-3.741-2.784h-7.193V1.793c0-.783-.783-1.189-1.566-1.189-.812 0-1.595.406-1.595 1.189v1.566h-7.018c-2.668 0-3.712.812-3.712 2.784v1.769a1.372 1.372 0 001.533 1.247 1.361 1.361 0 001.508-1.247V6.549c0-.551.232-.783 1.015-.783h4.292a1.4 1.4 0 00-.609.551 10.337 10.337 0 01-6.293 4.466 1.256 1.256 0 00-1.013 1.218 1.33 1.33 0 001.305 1.363 1.127 1.127 0 00.435-.058c3.364-.986 6.612-3.19 8-5.858a1.549 1.549 0 00.145-.58 1.186 1.186 0 00-.812-1.1H91.6v3.248c0 1.914.812 2.465 4.408 2.465 3.625 0 4.814-.754 5.046-2.958a1.653 1.653 0 00.638.116 1.372 1.372 0 001.537-1.247zm-8.792-.377h4.76c.754 0 .957.2.957.754v.841a1.642 1.642 0 00-.522-.087 1.184 1.184 0 00-1.276.957c-.116.783-.464 1.044-2.349 1.044-1.392 0-1.566-.145-1.566-.725zm2.933 11.368c.406.406.783.783 1.16 1.189a1.557 1.557 0 001.131.551 1.488 1.488 0 001.45-1.421 1.562 1.562 0 00-.522-1.073 33.67 33.67 0 00-4.814-3.944 1.572 1.572 0 00-.9-.29 1.381 1.381 0 00-1.421 1.276 1.21 1.21 0 00.58.986 10.3 10.3 0 01.9.667c-2.291.174-4.611.348-6.96.464a37.04 37.04 0 001.943-2.987 1.613 1.613 0 00.232-.754 1.4 1.4 0 00-1.479-1.276 1.61 1.61 0 00-1.45.928 30.912 30.912 0 01-2.726 4.2c-1.218.029-2.436.058-3.654.058a1.256 1.256 0 00-1.363 1.281 1.318 1.318 0 001.421 1.334c4.901-.116 10.701-.464 16.472-1.189zm-13.079 7.685c0 2.291.754 2.842 6.467 2.842 5.684 0 6.96-.957 7.221-3.886v-.145a1.4 1.4 0 00-1.537-1.334 1.345 1.345 0 00-1.45 1.16c-.145 1.45-.638 1.769-4.234 1.769-3.161 0-3.421-.145-3.421-.781v-3.569a1.342 1.342 0 00-1.508-1.247c-.783 0-1.537.406-1.537 1.247zm-4.176-3.625a14.852 14.852 0 01-1.624 2.842 1.482 1.482 0 00-.319.9 1.479 1.479 0 001.537 1.362 1.62 1.62 0 001.305-.667 16.7 16.7 0 001.823-3.335 1.829 1.829 0 00.145-.638 1.424 1.424 0 00-1.508-1.3 1.444 1.444 0 00-1.359.836zm20.677-.7a1.662 1.662 0 00-1.16-.464 1.479 1.479 0 00-1.537 1.334 1.391 1.391 0 00.406.957 28.319 28.319 0 012.088 2.523 1.509 1.509 0 001.218.667 1.562 1.562 0 001.566-1.479 1.559 1.559 0 00-.319-.928 17.376 17.376 0 00-2.262-2.606zm-9.744-1.62a1.658 1.658 0 00-.783-.2 1.412 1.412 0 00-1.45 1.305 1.223 1.223 0 00.609 1.015c.551.377 1.218.928 1.711 1.334a1.551 1.551 0 00.957.377 1.406 1.406 0 001.392-1.361 1.456 1.456 0 00-.609-1.16 11.619 11.619 0 00-1.827-1.31zm22.968-.667c0 6.032 2.291 8.178 6.612 8.178 3.77 0 7.279-1.566 10.585-5.684a1.719 1.719 0 00.406-1.073 1.673 1.673 0 00-1.711-1.6 1.756 1.756 0 00-1.392.725c-2.668 3.306-5.191 4.408-7.888 4.408-2.059 0-3.248-1.044-3.248-4.93 0-4.263.232-8.816.522-13.108.029-.319.087-.928.087-1.305a1.514 1.514 0 00-1.682-1.45 1.558 1.558 0 00-1.682 1.45c-.319 4.268-.609 9.778-.609 14.389zM124.26 7.738a21.094 21.094 0 012.146 2.465 1.162 1.162 0 00.957.551 1.183 1.183 0 001.16-1.16 1.211 1.211 0 00-.261-.783A14.488 14.488 0 00126 6.288a1.21 1.21 0 00-.812-.319 1.208 1.208 0 00-1.218 1.1 1.031 1.031 0 00.29.669zm2.9-2.291c.667.7 1.479 1.566 2.146 2.407a1.261 1.261 0 001.015.522 1.133 1.133 0 001.16-1.1 1.35 1.35 0 00-.319-.87 14.542 14.542 0 00-2.233-2.378 1.393 1.393 0 00-.87-.348 1.165 1.165 0 00-1.215 1.071.958.958 0 00.316.693zm19.778 3.857a1.2 1.2 0 00-1.218-.783c-.754 0-1.508.464-1.508 1.16a.857.857 0 00.058.377l1.334 3.944q-1.653.653-3.654 1.566a1.235 1.235 0 00-.754 1.16 1.345 1.345 0 001.248 1.392 1.549 1.549 0 00.58-.145 74.683 74.683 0 013.451-1.508l3.509 10.324a1.256 1.256 0 001.247.87 1.383 1.383 0 001.45-1.276 1.442 1.442 0 00-.087-.464l-3.538-10.44a20.852 20.852 0 016.931-1.421c2.233 0 3.016.754 3.016 1.827 0 1.276-.783 2-2.32 2a5.835 5.835 0 01-1.653-.232 2.239 2.239 0 00-.435-.058 1.341 1.341 0 00-1.334 1.392 1.446 1.446 0 001.183 1.422 10.894 10.894 0 002.349.232c2.987 0 5.1-1.8 5.1-4.756 0-2.639-2.146-4.408-5.887-4.408a23.227 23.227 0 00-7.8 1.537zm5.365-2.378a1.767 1.767 0 00-.812-.2 1.439 1.439 0 00-1.45 1.363 1.188 1.188 0 00.638 1.015 19.927 19.927 0 012.291 1.595 1.563 1.563 0 00.986.377 1.443 1.443 0 001.45-1.392 1.538 1.538 0 00-.638-1.16 15.46 15.46 0 00-2.465-1.598zm34.974 15.718a17.981 17.981 0 013.306 1.856 1.849 1.849 0 00.986.348 1.6 1.6 0 001.537-1.6 1.629 1.629 0 00-.783-1.363 20.179 20.179 0 00-5.452-2.523 22.051 22.051 0 01-.406-3.77 16.805 16.805 0 01.2-2.378c0-.087.029-.145.029-.232a1.462 1.462 0 00-1.624-1.334 1.415 1.415 0 00-1.508 1.16 15.747 15.747 0 00-.2 2.813 21.1 21.1 0 00.29 3.074 12.921 12.921 0 00-1.45-.087c-3.712 0-5.684 1.914-5.684 4.234 0 2.7 2.088 4.205 5.539 4.205 2.787.005 5.162-1.155 5.22-4.403zm-5.22 1.537c-1.885 0-2.465-.493-2.465-1.334 0-.783.638-1.421 2.668-1.421a10.221 10.221 0 011.827.174 5.823 5.823 0 01.029.725c0 1.276-.725 1.856-2.059 1.856zm-6.322-17.023a80.081 80.081 0 01-4.234.29 1.415 1.415 0 00-1.392 1.508 1.483 1.483 0 001.508 1.6c.9-.029 1.943-.087 3.016-.2a44.439 44.439 0 01-3.915 7.888 1.807 1.807 0 00-.319 1.015 1.586 1.586 0 001.624 1.537 1.917 1.917 0 001.621-1.052 53.283 53.283 0 004.466-9.773c1.421-.2 2.842-.435 4.089-.7a1.491 1.491 0 001.305-1.479 1.5 1.5 0 00-1.508-1.537 1.3 1.3 0 00-.319.029c-.812.145-1.682.29-2.552.435.319-1.16.609-2.32.841-3.422a1.653 1.653 0 00.029-.377 1.44 1.44 0 00-1.566-1.421 1.514 1.514 0 00-1.566 1.247c-.287 1.454-.693 2.933-1.128 4.412zm12.876-.348a1.971 1.971 0 00-.551-.087 1.64 1.64 0 00-1.653 1.595 1.4 1.4 0 001.044 1.3 28.338 28.338 0 014.147 2 1.679 1.679 0 00.87.261 1.6 1.6 0 001.537-1.6 1.8 1.8 0 00-.957-1.508 18.361 18.361 0 00-4.437-1.961zm24.853-4.2a56.01 56.01 0 01-6.438 8.352 4.156 4.156 0 00-1.363 3.016 4.92 4.92 0 001.537 3.219 75.871 75.871 0 016.873 9.047 1.9 1.9 0 001.624.957 1.772 1.772 0 001.827-1.686 2.225 2.225 0 00-.435-1.189 87.651 87.651 0 00-7.366-9.019 2 2 0 01-.7-1.363 1.7 1.7 0 01.609-1.276 75.255 75.255 0 006.583-8.178 2.024 2.024 0 00.348-1.044 1.7 1.7 0 00-1.74-1.624 1.594 1.594 0 00-1.359.783zm31.668 5.568a11.692 11.692 0 00-4.756 9.048c0 4.466 3.074 7.656 7.366 8.729a15.132 15.132 0 002.146.29 1.676 1.676 0 001.711-1.711 1.689 1.689 0 00-1.566-1.711c-4.06-.493-6.293-2.465-6.293-5.684 0-2.755.957-5.771 5.481-8.352a9.927 9.927 0 013.19-1.16 1.566 1.566 0 001.334-1.566 1.5 1.5 0 00-1.566-1.537h-.174c-6.032.551-13.514 1.392-19.546 2.146a1.577 1.577 0 00-1.508 1.6 1.606 1.606 0 001.624 1.653 1.088 1.088 0 00.29-.029c4.176-.609 8.787-1.3 12.267-1.769zm15.863 14.321a28.221 28.221 0 014.524 4.437 1.768 1.768 0 001.421.725 1.653 1.653 0 001.682-1.624 2.115 2.115 0 00-.522-1.334 23.21 23.21 0 00-5.191-4.582 2.067 2.067 0 00-1.015-.319 1.548 1.548 0 00-1.566 1.508 1.425 1.425 0 00.667 1.189zm37.439-16.878c.232-.841.464-1.682.638-2.494a1.412 1.412 0 00.029-.348 1.465 1.465 0 00-1.6-1.421 1.581 1.581 0 00-1.624 1.247 29.451 29.451 0 01-4.814 10.962 1.719 1.719 0 00-.406 1.073 1.565 1.565 0 001.6 1.45 1.717 1.717 0 001.392-.725 28.832 28.832 0 003.8-6.96h2.7c.7 0 .957.116.957.609a1.088 1.088 0 01-.029.29 23.994 23.994 0 01-1.6 5.365 19.3 19.3 0 00-1.827-1.276 1.476 1.476 0 00-.754-.2 1.5 1.5 0 00-1.45 1.508 1.346 1.346 0 00.667 1.16c.609.406 1.276.87 2.03 1.479a25.216 25.216 0 01-5.858 7.018 1.693 1.693 0 00-.7 1.305 1.629 1.629 0 001.624 1.566 1.734 1.734 0 001.1-.406 28.341 28.341 0 0010.005-17.835 4.328 4.328 0 00.058-.609c0-1.653-1.131-2.755-3.161-2.755zm13.92-2.9a1.407 1.407 0 00-1.566-1.334 1.407 1.407 0 00-1.566 1.334v7.917c-.464-.464-.9-.928-1.3-1.363a1.847 1.847 0 00-1.334-.667 1.481 1.481 0 00-1.508 1.421 1.627 1.627 0 00.435 1.015 30.9 30.9 0 003.712 3.538v12.325a1.586 1.586 0 003.132 0v-9.976a30.635 30.635 0 003.422 2 1.745 1.745 0 00.783.2 1.525 1.525 0 001.445-1.587 1.624 1.624 0 00-1.015-1.508 24.732 24.732 0 01-4.64-2.755zm34.481 3.423c0-1.972-1.073-2.784-3.741-2.784h-7.192V1.794c0-.783-.783-1.189-1.566-1.189-.812 0-1.6.406-1.6 1.189V3.36h-7.018c-2.668 0-3.712.812-3.712 2.784v1.769a1.371 1.371 0 001.537 1.247 1.361 1.361 0 001.508-1.247V6.55c0-.551.232-.783 1.015-.783h4.292a1.4 1.4 0 00-.609.551 10.337 10.337 0 01-6.293 4.466 1.256 1.256 0 00-1.015 1.218 1.33 1.33 0 001.3 1.363 1.127 1.127 0 00.435-.058c3.364-.986 6.612-3.19 8-5.858a1.549 1.549 0 00.145-.58 1.186 1.186 0 00-.812-1.1h3.683v3.248c0 1.914.812 2.465 4.408 2.465 3.625 0 4.814-.754 5.046-2.958a1.653 1.653 0 00.638.116 1.372 1.372 0 001.537-1.247zm-8.787-.377h4.756c.754 0 .957.2.957.754v.841a1.642 1.642 0 00-.522-.087 1.184 1.184 0 00-1.276.957c-.116.783-.464 1.044-2.349 1.044-1.392 0-1.566-.145-1.566-.725zm2.929 11.367c.406.406.783.783 1.16 1.189a1.557 1.557 0 001.131.551 1.488 1.488 0 001.45-1.421 1.563 1.563 0 00-.522-1.073 33.671 33.671 0 00-4.814-3.944 1.572 1.572 0 00-.9-.29 1.381 1.381 0 00-1.421 1.276 1.21 1.21 0 00.58.986 10.3 10.3 0 01.9.667c-2.291.174-4.611.348-6.96.464a37.04 37.04 0 001.943-2.987 1.613 1.613 0 00.232-.754 1.4 1.4 0 00-1.479-1.276 1.61 1.61 0 00-1.45.928 30.913 30.913 0 01-2.726 4.2c-1.218.029-2.436.058-3.654.058a1.256 1.256 0 00-1.363 1.276 1.318 1.318 0 001.421 1.334c4.901-.111 10.701-.459 16.472-1.184zm-13.079 7.685c0 2.291.754 2.842 6.467 2.842 5.684 0 6.96-.957 7.221-3.886v-.145a1.4 1.4 0 00-1.542-1.334 1.345 1.345 0 00-1.45 1.16c-.145 1.45-.638 1.769-4.234 1.769-3.161 0-3.422-.145-3.422-.783v-3.567a1.342 1.342 0 00-1.508-1.247c-.783 0-1.537.406-1.537 1.247zm-4.176-3.625a14.852 14.852 0 01-1.624 2.842 1.481 1.481 0 00-.319.9 1.479 1.479 0 001.537 1.362 1.62 1.62 0 001.3-.667 16.7 16.7 0 001.828-3.335 1.829 1.829 0 00.145-.638 1.424 1.424 0 00-1.508-1.3 1.444 1.444 0 00-1.359.836zm20.677-.7a1.662 1.662 0 00-1.16-.464 1.479 1.479 0 00-1.537 1.334 1.391 1.391 0 00.406.957 28.314 28.314 0 012.088 2.523 1.509 1.509 0 001.218.667 1.562 1.562 0 001.566-1.479 1.559 1.559 0 00-.319-.928 17.376 17.376 0 00-2.262-2.606zm-9.744-1.62a1.658 1.658 0 00-.783-.2 1.412 1.412 0 00-1.45 1.305 1.222 1.222 0 00.609 1.015c.551.377 1.218.928 1.711 1.334a1.551 1.551 0 00.957.377 1.406 1.406 0 001.392-1.361 1.456 1.456 0 00-.609-1.16 11.619 11.619 0 00-1.827-1.31zm23.258 4.7c2.233 0 3.944-.841 5.539-3.654a29.016 29.016 0 003.277-12.325 7.089 7.089 0 016.989 7.25c0 3.6-1.653 6.09-5.771 7.569a1.67 1.67 0 00-1.218 1.6 1.626 1.626 0 001.624 1.646 1.9 1.9 0 00.667-.116c4.988-1.6 8.091-5.452 8.091-10.7 0-5.771-4.089-10.208-11.165-10.208-7.975 0-13.456 5.423-13.456 12.035 0 4.523 2.465 6.901 5.423 6.901zm5.423-15.776a26.231 26.231 0 01-2.9 10.585c-.841 1.479-1.624 1.943-2.523 1.943-1.044 0-2.088-.986-2.088-3.654a9.186 9.186 0 017.511-8.876zm34.075 11.772a20.737 20.737 0 002.958-4.379 1.544 1.544 0 00.174-.7 1.487 1.487 0 00-1.537-1.421 1.621 1.621 0 00-1.45.957 16.32 16.32 0 01-2.349 3.538 18.139 18.139 0 01-2.407-3.248 1.7 1.7 0 00-1.45-.87 1.483 1.483 0 00-1.537 1.392 1.717 1.717 0 00.232.783 21.527 21.527 0 003.045 4.06 25.943 25.943 0 01-9.86 4.962 1.392 1.392 0 00-1.1 1.363 1.508 1.508 0 001.479 1.508 2.238 2.238 0 00.435-.058 26.394 26.394 0 0011.223-5.742 29.2 29.2 0 0010.991 5.452 2.166 2.166 0 00.58.087 1.524 1.524 0 001.6-1.537 1.71 1.71 0 00-1.394-1.623 27.484 27.484 0 01-9.633-4.524zm-3.828-14.993h-9.918a1.216 1.216 0 00-1.16 1.363 1.231 1.231 0 001.16 1.363h23.287a1.253 1.253 0 001.192-1.359 1.237 1.237 0 00-1.189-1.363h-10.211V2.319c0-.841-.783-1.247-1.566-1.247-.812 0-1.6.406-1.6 1.247zm-4.582 4.176a20.6 20.6 0 01-4.582 4.437 1.609 1.609 0 00-.754 1.3 1.479 1.479 0 001.479 1.454 1.729 1.729 0 001.044-.348 27.455 27.455 0 005.307-5.1 1.491 1.491 0 00.377-.957 1.567 1.567 0 00-1.628-1.395 1.5 1.5 0 00-1.243.609zm11.774-.319a1.729 1.729 0 00-.931-.29 1.473 1.473 0 00-1.45 1.45 1.424 1.424 0 00.667 1.189 38.883 38.883 0 014.814 3.915 1.63 1.63 0 001.131.522 1.619 1.619 0 001.537-1.6 1.767 1.767 0 00-.609-1.3 32.955 32.955 0 00-5.159-3.886zm21.808 1.218a3.608 3.608 0 00-.348 1.653v5.568a1.228 1.228 0 001.363 1.131 1.212 1.212 0 001.363-1.131v-5.307c0-.551.174-.725.725-.725h1.334a4.153 4.153 0 01-1.363 3.364 1.2 1.2 0 00-.435.9 1.058 1.058 0 001.044 1.039 1.344 1.344 0 00.87-.377 6.282 6.282 0 002-4.93h1.073v2.958c0 1.276.522 1.682 2.2 1.682 1.1 0 1.769-.174 2.146-.7v1.914a1.228 1.228 0 001.363 1.131 1.212 1.212 0 001.363-1.131v-5.394c0-1.943-.9-2.784-3.016-2.784h-2.842a16.927 16.927 0 00.957-1.537 2.691 2.691 0 00.406-1.363c0-1.073-.87-1.827-2.378-1.827h-2.344c.145-.232.261-.464.377-.7a1.544 1.544 0 00.174-.7 1.424 1.424 0 00-1.508-1.305 1.492 1.492 0 00-1.392.87 17.75 17.75 0 01-4.031 5.22 1.447 1.447 0 00-.609 1.131 1.388 1.388 0 001.421 1.334zm6.5-3.364c.261 0 .377.058.377.174a.463.463 0 01-.087.232 19.513 19.513 0 01-1.16 1.827h-2.842a6.89 6.89 0 00-1.131.087 23.366 23.366 0 002.146-2.32zm3.219 4.553h1.537c.551 0 .725.174.725.725v.754a.926.926 0 00-.406-.087.825.825 0 00-.87.754c-.058.493-.232.638-.609.638-.29 0-.377-.058-.377-.29zm5.655 10.382a1.176 1.176 0 001.131-1.305 1.192 1.192 0 00-1.131-1.3h-7.076a11.935 11.935 0 00.145-1.305 1.321 1.321 0 00-1.45-1.218 1.29 1.29 0 00-1.392 1.16 10.29 10.29 0 01-.174 1.363h-6.438a1.172 1.172 0 00-1.1 1.3 1.188 1.188 0 001.1 1.305h5.394c-1.16 1.8-3.132 3.045-5.974 3.973a1.488 1.488 0 00-1.16 1.392 1.336 1.336 0 001.363 1.334 1.97 1.97 0 00.551-.087 13.59 13.59 0 007.453-5.075 13.771 13.771 0 008.145 4.843 2.239 2.239 0 00.435.058 1.52 1.52 0 001.479-1.566 1.284 1.284 0 00-1.16-1.334 11.662 11.662 0 01-6.931-3.538zM418.581 7.332V2.315a1.329 1.329 0 00-1.479-1.218c-.754 0-1.508.406-1.508 1.218v5.017h-2a1.26 1.26 0 00-1.16 1.392 1.26 1.26 0 001.16 1.392h2v5.51c-.812.261-1.624.522-2.349.725a1.417 1.417 0 00-1.073 1.393 1.411 1.411 0 001.392 1.479 1.357 1.357 0 00.464-.058c.493-.145 1.015-.29 1.566-.493v5.742c0 .406-.145.551-.551.551a3.1 3.1 0 01-.725-.087c-.087 0-.145-.029-.232-.029a1.381 1.381 0 00-1.334 1.478 1.366 1.366 0 001.16 1.421 9.134 9.134 0 001.624.145c2.088 0 3.045-.957 3.045-2.871v-7.453q1.044-.435 2.088-.957a1.313 1.313 0 00.783-1.189 1.431 1.431 0 00-1.363-1.421 1.222 1.222 0 00-.522.116c-.319.145-.638.261-.986.406v-4.408h1.131a1.263 1.263 0 001.189-1.392 1.263 1.263 0 00-1.189-1.392zm37.468-4.234a1.088 1.088 0 00.029-.29 1.464 1.464 0 00-1.624-1.364 1.548 1.548 0 00-1.653 1.218l-.725 4.176a27.011 27.011 0 01-2.987-.464 1.412 1.412 0 00-.348-.029 1.5 1.5 0 00-1.479 1.566 1.482 1.482 0 001.247 1.45 21.108 21.108 0 003.045.464 98.725 98.725 0 00-.609 4.06 23.69 23.69 0 01-3.074-.551 1.606 1.606 0 00-.522-.058 1.511 1.511 0 00-1.479 1.6 1.579 1.579 0 001.218 1.566 23.421 23.421 0 003.48.58 27.735 27.735 0 00-.145 2.929c0 4.959 2.7 7.279 7.221 7.279 4.872 0 8.236-2.407 8.236-7.366a8.7 8.7 0 00-.435-2.668 1.711 1.711 0 00-1.711-1.252 1.515 1.515 0 00-1.653 1.392 2.237 2.237 0 00.058.435 7.9 7.9 0 01.348 2.146c0 2.871-1.711 4-4.9 4-2.552 0-3.857-1.073-3.857-4.2 0-.7.029-1.508.116-2.523h.812a27.161 27.161 0 005.046-.464 1.485 1.485 0 001.247-1.537 1.466 1.466 0 00-1.421-1.537.986.986 0 00-.29.029 27.8 27.8 0 01-4.553.377h-.464c.2-1.363.435-2.7.609-4.06h.812a30.5 30.5 0 003.219-.145 1.381 1.381 0 001.247-1.479 1.409 1.409 0 00-1.392-1.537h-.145c-.9.087-1.856.145-2.987.145h-.2zm22.5 3.625h-3.741a1.273 1.273 0 00-1.189 1.421 1.289 1.289 0 001.189 1.421h6.5a24.992 24.992 0 01-.957 5.452 35.8 35.8 0 00-2.465-2.668 1.85 1.85 0 00-1.247-.551 1.539 1.539 0 00-1.566 1.45 1.563 1.563 0 00.522 1.131c1.073 1.1 2.291 2.494 3.451 3.944a19.019 19.019 0 01-4.988 6.38 1.738 1.738 0 00-.725 1.334 1.481 1.481 0 001.511 1.421 1.679 1.679 0 001.1-.406 21.593 21.593 0 005.075-6.119c.638.9 1.218 1.769 1.682 2.552a1.665 1.665 0 001.421.9 1.528 1.528 0 001.536-1.541 2.127 2.127 0 00-.348-1.1c-.754-1.218-1.74-2.61-2.784-4a27.26 27.26 0 001.856-8.178h1.073a1.292 1.292 0 001.218-1.421 1.277 1.277 0 00-1.218-1.421h-3.77v-4a1.4 1.4 0 00-1.566-1.305 1.4 1.4 0 00-1.566 1.305zm14.964 2.465h-5.769a1.26 1.26 0 00-1.16 1.392 1.27 1.27 0 001.16 1.421h5.771v11.543c0 .87-.2 1.1-.928 1.1a7.512 7.512 0 01-1.189-.116 1.412 1.412 0 00-.348-.029 1.5 1.5 0 00-1.535 1.567 1.416 1.416 0 001.131 1.45 10.406 10.406 0 002.262.2c2.784 0 3.683-1.247 3.683-3.683V12.001h2.553a1.273 1.273 0 001.189-1.421 1.263 1.263 0 00-1.189-1.392h-2.552V2.663a1.382 1.382 0 00-1.537-1.334 1.4 1.4 0 00-1.537 1.334zm-3.828 5.481a1.718 1.718 0 00-1.334-.638 1.49 1.49 0 00-1.566 1.363 1.61 1.61 0 00.348.928 23.132 23.132 0 011.653 2.494 1.51 1.51 0 001.363.87 1.578 1.578 0 001.6-1.537 1.964 1.964 0 00-.261-.928 13.726 13.726 0 00-1.799-2.552zm34.162-1.16c1.856 0 3.306-.348 3.306-2.494V9.362c0-1.711-.9-2.494-3.306-2.494h-4.2c.174-.261.319-.522.493-.812a2.258 2.258 0 00.406-1.247c0-.986-.957-1.682-2.639-1.682h-4.031l.435-.522a1.167 1.167 0 00.29-.725 1.546 1.546 0 00-1.625-1.336 1.606 1.606 0 00-1.247.638 25.661 25.661 0 01-6.96 6.351 1.452 1.452 0 00-.841 1.276 1.411 1.411 0 001.392 1.392 1.679 1.679 0 00.87-.261c.493-.29.957-.609 1.45-.957a1.654 1.654 0 00-.029.377v1.653c0 1.711.9 2.494 3.306 2.494h3.045a29.879 29.879 0 01-8 2.9 1.216 1.216 0 00-1.073 1.189 1.243 1.243 0 001.272 1.248 2.274 2.274 0 00.406-.058 34.9 34.9 0 007.743-2.9 7.989 7.989 0 01.87.841 35.718 35.718 0 01-9.6 3.828 1.264 1.264 0 00-1.044 1.218 1.226 1.226 0 001.276 1.247 2.238 2.238 0 00.435-.058 40.088 40.088 0 0010.382-4.408 7.817 7.817 0 01.551 1.1 38.258 38.258 0 01-11.918 5.165 1.25 1.25 0 00-1.018 1.247 1.236 1.236 0 001.247 1.247 1.357 1.357 0 00.464-.058 37.658 37.658 0 0011.889-5.191c.029.29.058.609.058.9 0 1.972-.435 2.494-1.189 2.494a6.5 6.5 0 01-1.508-.174 1.3 1.3 0 00-.319-.029 1.348 1.348 0 00-1.359 1.389 1.343 1.343 0 001.189 1.334 12.26 12.26 0 002.146.2c2.494 0 3.886-1.421 3.886-5.22a10.658 10.658 0 00-4.263-8.323l1.653-1.131h.841a24.2 24.2 0 008.9 12.3 1.89 1.89 0 001.1.348 1.454 1.454 0 001.45-1.45 1.6 1.6 0 00-.841-1.363 19.133 19.133 0 01-4.959-4.5 29.356 29.356 0 003.944-2.668 1.393 1.393 0 00.551-1.044 1.463 1.463 0 00-1.45-1.392 1.456 1.456 0 00-.986.406 23.19 23.19 0 01-3.48 2.61 19.544 19.544 0 01-1.537-3.248zm-5.361-2.265V9.127h4.872c.7 0 .841.145.841.609v.9c0 .58-.348.609-.841.609zm-1.827-5.858c.261 0 .377.058.377.2a.611.611 0 01-.116.319 6.1 6.1 0 01-.638.957h-5.365a4.915 4.915 0 00-.667.029 42.902 42.902 0 001.6-1.508zm-1.073 3.741v2.117h-4.176c-.7 0-.841-.145-.841-.609v-.9c0-.464.145-.609.841-.609zm22.591-4.408a65.376 65.376 0 00-1.363 13.4 63.178 63.178 0 00.493 7.163 1.6 1.6 0 001.682 1.421 1.579 1.579 0 001.682-1.537c0-.058-.029-.145-.029-.232a60.643 60.643 0 01-.522-6.815 60.587 60.587 0 011.334-12.818 1.3 1.3 0 00.029-.319 1.533 1.533 0 00-1.682-1.479 1.557 1.557 0 00-1.624 1.219zm17.574 1.334a70.47 70.47 0 01-7.975.638 1.536 1.536 0 00-1.566 1.566 1.524 1.524 0 001.682 1.566 73.6 73.6 0 008.178-.638 1.59 1.59 0 001.479-1.595 1.5 1.5 0 00-1.566-1.537zm-7.569 12.821a1.416 1.416 0 00-1.479-1.247 1.614 1.614 0 00-1.682 1.624v.145c.319 3.509 2.552 5.133 7.917 5.133a25.338 25.338 0 005.017-.493 1.5 1.5 0 001.276-1.537 1.546 1.546 0 00-1.537-1.624 1.412 1.412 0 00-.348.029 23.809 23.809 0 01-4.379.435c-3.623.005-4.523-.667-4.785-2.465zm34.945 3.77a17.982 17.982 0 013.306 1.856 1.849 1.849 0 00.986.348 1.6 1.6 0 001.537-1.6 1.629 1.629 0 00-.783-1.363 20.179 20.179 0 00-5.452-2.523 22.054 22.054 0 01-.406-3.77 16.81 16.81 0 01.2-2.378c0-.087.029-.145.029-.232a1.462 1.462 0 00-1.624-1.334 1.415 1.415 0 00-1.508 1.16 15.745 15.745 0 00-.2 2.813 21.1 21.1 0 00.29 3.074 12.921 12.921 0 00-1.45-.087c-3.712 0-5.684 1.914-5.684 4.234 0 2.7 2.088 4.205 5.539 4.205 2.784.005 5.162-1.155 5.22-4.403zm-5.22 1.537c-1.885 0-2.465-.493-2.465-1.334 0-.783.638-1.421 2.668-1.421a10.221 10.221 0 011.827.174 5.826 5.826 0 01.029.725c0 1.276-.722 1.856-2.059 1.856zm-6.322-17.023a80.081 80.081 0 01-4.234.29 1.415 1.415 0 00-1.392 1.508 1.483 1.483 0 001.508 1.6c.9-.029 1.943-.087 3.016-.2a44.439 44.439 0 01-3.915 7.888 1.806 1.806 0 00-.319 1.015 1.586 1.586 0 001.624 1.537 1.917 1.917 0 001.624-1.052 53.284 53.284 0 004.466-9.773c1.421-.2 2.842-.435 4.089-.7a1.491 1.491 0 001.3-1.479 1.5 1.5 0 00-1.508-1.537 1.3 1.3 0 00-.319.029c-.812.145-1.682.29-2.552.435.319-1.16.609-2.32.841-3.422a1.654 1.654 0 00.03-.373 1.44 1.44 0 00-1.566-1.421 1.514 1.514 0 00-1.566 1.247c-.286 1.45-.692 2.929-1.127 4.408zm12.876-.348a1.97 1.97 0 00-.551-.087 1.64 1.64 0 00-1.653 1.595 1.4 1.4 0 001.044 1.3 28.336 28.336 0 014.147 2 1.679 1.679 0 00.87.261 1.6 1.6 0 001.537-1.6 1.8 1.8 0 00-.957-1.508 18.36 18.36 0 00-4.437-1.961zm22.533 5.771a63.827 63.827 0 005.829-6.554 2.3 2.3 0 00.522-1.363 1.883 1.883 0 00-2-1.827 1.914 1.914 0 00-.406.029c-2.784.435-5.858.812-8.207.928a1.453 1.453 0 00-1.421 1.508 1.479 1.479 0 001.45 1.566c.377 0 1.131-.087 1.247-.087 1.45-.116 3.335-.319 4.756-.551a65.259 65.259 0 01-9.8 9.8 1.706 1.706 0 00-.725 1.363 1.635 1.635 0 001.624 1.595 2.009 2.009 0 001.218-.464c3.567-2.755 6.409-3.77 9.338-3.77 2.784 0 4.408 1.653 4.408 3.712a4.971 4.971 0 01-2.813 4.727c-.841-2.9-2.784-4.756-5.568-4.756-2.581 0-4.031 1.537-4.031 3.712 0 2.581 2.523 4.611 6.5 4.611 5.655 0 9.309-3.248 9.309-8.323 0-4.031-2.958-6.5-7.482-6.5a10.02 10.02 0 00-3.683.725zm1.74 11.281c-2.291 0-3.393-.754-3.393-1.711a1.062 1.062 0 011.044-1.131c1.218 0 2.088.986 2.581 2.842zm23.229-.29c2.233 0 3.944-.841 5.539-3.654a29.016 29.016 0 003.277-12.325 7.089 7.089 0 016.989 7.25c0 3.6-1.653 6.09-5.771 7.569a1.67 1.67 0 00-1.218 1.6 1.626 1.626 0 001.624 1.648 1.9 1.9 0 00.667-.116c4.988-1.6 8.091-5.452 8.091-10.7 0-5.771-4.089-10.208-11.165-10.208-7.975 0-13.456 5.423-13.456 12.035.004 4.523 2.465 6.901 5.423 6.901zm5.423-15.776a26.232 26.232 0 01-2.9 10.585c-.841 1.479-1.624 1.943-2.523 1.943-1.044 0-2.088-.986-2.088-3.654a9.186 9.186 0 017.511-8.874zm33.176 9.976c0-1.363.464-2.262 2.581-3.741 2.407-1.711 3.248-3.19 3.248-5.684 0-3.567-2.784-5.742-6.815-5.742a8.331 8.331 0 00-6.873 3.393 1.837 1.837 0 00-.406 1.073 1.64 1.64 0 001.711 1.45 1.338 1.338 0 001.131-.58 5.081 5.081 0 014.408-2.552c2.059 0 3.393 1.044 3.393 2.987 0 1.508-.464 2.436-2.32 3.857-2.349 1.8-2.9 3.161-2.9 5.452v.638a1.31 1.31 0 001.424 1.363 1.281 1.281 0 001.421-1.363zm-1.363 3.8a2.161 2.161 0 00-2.2 2.175 2.137 2.137 0 002.2 2.146 2.137 2.137 0 002.2-2.146 2.161 2.161 0 00-2.2-2.176z" fill="#3b3938"/><path data-name="パス 331745" d="M20.988 23.976a15.633 15.633 0 002.988-9.864C23.976 4.932 18.576 0 11.988 0 5.436 0 0 4.932 0 14.112c0 9.216 5.436 14.184 11.988 14.184a11.507 11.507 0 006.12-1.692l2.664 2.988a2.167 2.167 0 001.62.828 2.03 2.03 0 002.052-1.944A2.181 2.181 0 0023.796 27zm-5.58-6.192a2.219 2.219 0 00-1.512-.864 2.083 2.083 0 00-2.16 1.944 2.016 2.016 0 00.54 1.368l3.2 3.456a6.9 6.9 0 01-3.492.9c-4.68 0-7.452-4.032-7.452-10.476 0-6.408 2.772-10.4 7.452-10.4s7.452 4 7.452 10.4a14.407 14.407 0 01-1.368 6.66zM32.4 22.536a2.759 2.759 0 00-2.808 2.772 2.729 2.729 0 002.808 2.736 2.729 2.729 0 002.808-2.736 2.759 2.759 0 00-2.808-2.772z" fill="#eb5e00"/></g></svg>