<svg xmlns="http://www.w3.org/2000/svg" width="655.53" height="95.294"><g data-name="グループ 18909"><g data-name="グループ 18905"><g data-name="グループ 17830" fill="none" stroke="#897d76" stroke-linecap="round" stroke-width="4"><path data-name="パス 48442" d="M612.114 92.646l40.769-90"/><path data-name="パス 48443" d="M43.417 92.646l-40.769-90"/></g></g><path data-name="パス 331742" d="M206.712 13.825a65.375 65.375 0 00-1.363 13.4 63.176 63.176 0 00.493 7.163 1.6 1.6 0 001.682 1.421 1.579 1.579 0 001.682-1.537c0-.058-.029-.145-.029-.232a60.643 60.643 0 01-.522-6.815 60.586 60.586 0 011.336-12.82 1.3 1.3 0 00.029-.319 1.533 1.533 0 00-1.682-1.479 1.557 1.557 0 00-1.626 1.218zm17.574 1.334a70.471 70.471 0 01-7.975.638 1.536 1.536 0 00-1.566 1.566 1.524 1.524 0 001.682 1.566 73.6 73.6 0 008.178-.638 1.59 1.59 0 001.479-1.595 1.5 1.5 0 00-1.566-1.537zm-7.569 12.818a1.416 1.416 0 00-1.479-1.247 1.614 1.614 0 00-1.682 1.624v.145c.319 3.509 2.552 5.133 7.917 5.133a25.338 25.338 0 005.017-.493 1.5 1.5 0 001.276-1.537 1.546 1.546 0 00-1.537-1.624 1.412 1.412 0 00-.348.029 23.809 23.809 0 01-4.379.435c-3.626.005-4.524-.667-4.785-2.465zm32.915-6.206c0 5.8-1.914 9.309-6.757 11.687a1.711 1.711 0 00-1.074 1.508 1.733 1.733 0 001.711 1.711 2.17 2.17 0 00.87-.232c5.6-2.668 8.729-7.105 8.729-14.442V13.39a1.559 1.559 0 00-1.711-1.479 1.579 1.579 0 00-1.769 1.479zm-7.656-7.888a1.6 1.6 0 00-1.74-1.537 1.6 1.6 0 00-1.74 1.537v11.4a1.591 1.591 0 001.74 1.508 1.591 1.591 0 001.74-1.508zm24.853.522a1.52 1.52 0 00-1.537 1.6 1.65 1.65 0 001.682 1.711l13.978-.174c.841 0 1.218.2 1.218.754a2.344 2.344 0 01-.087.58c-1.508 5.191-5.133 9.831-11.542 13.166a1.73 1.73 0 00-1.015 1.537 1.689 1.689 0 001.681 1.706 2.1 2.1 0 00.957-.232c6.844-3.335 11.89-9.251 13.485-16.124a7.123 7.123 0 00.2-1.653c0-1.943-1.189-3.045-4.234-3.016zm37.874 9.251a26.385 26.385 0 01-8.612 7.511 1.421 1.421 0 00-.843 1.28 1.417 1.417 0 001.392 1.417 1.553 1.553 0 00.751-.203 30.089 30.089 0 008.99-7.8v4.669l.029 2.03v.116c0 .638-.232.783-.783.783-.464 0-.9-.087-1.363-.087a1.318 1.318 0 00-1.302 1.391 1.347 1.347 0 001.247 1.363 14.354 14.354 0 001.914.145 2.879 2.879 0 003.132-3.161v-.145l-.2-9.309h4.756a1.233 1.233 0 001.218-1.334 1.224 1.224 0 00-1.218-1.3h-4.82l-.087-3.915a1.283 1.283 0 00-1.413-1.16c-.754 0-1.508.435-1.479 1.218l.116 3.857h-8.613a1.219 1.219 0 00-1.189 1.3 1.228 1.228 0 001.189 1.334zm19.688-1.537a1.543 1.543 0 00-1.566 1.653 1.558 1.558 0 001.566 1.653h21.17a1.558 1.558 0 001.566-1.653 1.543 1.543 0 00-1.566-1.653zm36.194 8.352a135.528 135.528 0 005.366-16.414 2.574 2.574 0 00.058-.435 1.71 1.71 0 00-1.856-1.595 1.646 1.646 0 00-1.711 1.247 145.445 145.445 0 01-5.627 17.516c-.841.058-1.653.087-2.465.145a1.561 1.561 0 00-1.508 1.653 1.543 1.543 0 001.566 1.653c.2 0 .841-.058 1.305-.087a139.118 139.118 0 0016.53-2.2c.406.783.812 1.508 1.131 2.233a1.652 1.652 0 001.509 1.011 1.769 1.769 0 001.8-1.711 2.091 2.091 0 00-.2-.87 46.032 46.032 0 00-5.829-9.019 1.912 1.912 0 00-1.479-.725 1.581 1.581 0 00-1.653 1.45 1.69 1.69 0 00.377.986 41.577 41.577 0 012.755 3.915c-3.34.523-6.704.928-10.069 1.247zm35.352-13.195a11.692 11.692 0 00-4.756 9.048c0 4.323 2.929 7.917 8.21 8.903a9.124 9.124 0 001.3.12 1.625 1.625 0 001.711-1.711 1.689 1.689 0 00-1.566-1.711c-4.06-.493-6.293-2.465-6.293-5.684 0-2.755.957-5.771 5.481-8.352a9.927 9.927 0 013.19-1.16 1.566 1.566 0 001.334-1.566 1.5 1.5 0 00-1.566-1.537h-.174c-6.032.551-13.514 1.392-19.546 2.146a1.577 1.577 0 00-1.508 1.6 1.606 1.606 0 001.624 1.653 1.088 1.088 0 00.29-.029c4.176-.609 8.787-1.3 12.267-1.769zm4.554 5.278a21.094 21.094 0 012.146 2.465 1.162 1.162 0 00.957.551 1.183 1.183 0 001.16-1.16 1.211 1.211 0 00-.261-.783 14.489 14.489 0 00-2.262-2.523 1.21 1.21 0 00-.812-.319 1.208 1.208 0 00-1.218 1.1 1.031 1.031 0 00.29.669zm2.9-2.291c.667.7 1.479 1.566 2.146 2.407a1.261 1.261 0 001.015.522 1.133 1.133 0 001.16-1.1 1.35 1.35 0 00-.319-.87 14.541 14.541 0 00-2.233-2.378 1.393 1.393 0 00-.87-.348 1.165 1.165 0 00-1.219 1.071.958.958 0 00.32.696zm23.952 6.384a14.845 14.845 0 00-3.944-.464c-5.394 0-7.888 2.03-7.888 5.017 0 3.364 2.726 5.278 8.845 5.278a29.7 29.7 0 003.1-.145 1.49 1.49 0 001.453-1.486 1.429 1.429 0 00-1.537-1.479c-.116 0-.377.029-.551.029-.87.058-1.305.087-2.494.087-4.234 0-5.481-.957-5.481-2.349 0-1.218 1.015-2.262 4.582-2.262a18.252 18.252 0 016.293 1.134 2.468 2.468 0 00.754.145 1.542 1.542 0 001.6-1.537 1.78 1.78 0 00-.435-1.189 36.331 36.331 0 01-3.364-4.7 47.159 47.159 0 005.046-1.276 1.372 1.372 0 001.069-1.303 1.534 1.534 0 00-1.479-1.537 1.442 1.442 0 00-.464.087 54.825 54.825 0 01-5.6 1.363 46.32 46.32 0 01-1.16-2.755 56.688 56.688 0 005.075-1.247 1.266 1.266 0 00.986-1.247 1.477 1.477 0 00-1.45-1.479 1.642 1.642 0 00-.522.087 43.834 43.834 0 01-5.017 1.16c-.29-.986-.58-2-.841-2.987a1.437 1.437 0 00-1.508-1.073 1.428 1.428 0 00-1.6 1.276 1.7 1.7 0 00.058.377c.232.957.522 1.943.841 2.929a57.29 57.29 0 01-5.336.58 1.287 1.287 0 00-1.247 1.392 1.389 1.389 0 001.363 1.479c.232 0 .493-.029.58-.029a55.98 55.98 0 005.626-.7c.348.928.754 1.856 1.189 2.784-2.581.377-5.22.7-7.743.812a1.345 1.345 0 00-1.327 1.428 1.409 1.409 0 001.392 1.479c.145 0 .667-.029 1.073-.058 2.2-.174 5.075-.464 7.946-.957a54.405 54.405 0 002.146 3.277zm25.085-4.959a63.821 63.821 0 005.829-6.554 2.3 2.3 0 00.522-1.363 1.883 1.883 0 00-2-1.827 1.914 1.914 0 00-.406.029c-2.784.435-5.858.812-8.207.928a1.453 1.453 0 00-1.421 1.508 1.479 1.479 0 001.45 1.566c.377 0 1.131-.087 1.247-.087 1.45-.116 3.335-.319 4.756-.551a65.259 65.259 0 01-9.8 9.8 1.706 1.706 0 00-.725 1.363 1.635 1.635 0 001.618 1.593 2.01 2.01 0 001.218-.464c3.567-2.755 6.409-3.77 9.338-3.77 2.784 0 4.408 1.653 4.408 3.712a4.971 4.971 0 01-2.813 4.727c-.841-2.9-2.784-4.756-5.568-4.756-2.581 0-4.031 1.537-4.031 3.712 0 2.581 2.523 4.611 6.5 4.611 5.655 0 9.309-3.248 9.309-8.323 0-4.031-2.958-6.5-7.482-6.5a10.019 10.019 0 00-3.683.725zm1.74 11.281c-2.291 0-3.393-.754-3.393-1.711a1.062 1.062 0 011.044-1.131c1.218 0 2.088.986 2.581 2.842zm135.554-12.068c.7-.928 1.421-2.03 2.146-3.219a79.58 79.58 0 006.148-.841 1.448 1.448 0 001.276-1.45 1.354 1.354 0 00-1.392-1.392 1.412 1.412 0 00-.348.029c-1.247.232-2.7.435-4.2.58a23.526 23.526 0 00.87-2.291 1.127 1.127 0 00.058-.435 1.473 1.473 0 00-1.6-1.334 1.476 1.476 0 00-1.479 1.044 41.756 41.756 0 01-1.276 3.364c-1.682.116-3.306.2-4.669.2a1.478 1.478 0 00-1.6 1.479 1.485 1.485 0 001.6 1.508c.957-.029 2-.058 3.132-.145a27.305 27.305 0 01-4.9 5.655 1.693 1.693 0 00-.667 1.276 1.592 1.592 0 001.566 1.537 1.713 1.713 0 001.044-.377c2.755-2.2 4.872-2.987 5.945-2.987a1.774 1.774 0 012.03 1.305c-5.162 2.581-6.525 4.814-6.525 7.134 0 2.842 2.32 4.669 7.8 4.669a34.008 34.008 0 005.945-.464 1.6 1.6 0 001.45-1.566 1.546 1.546 0 00-1.566-1.595 1.3 1.3 0 00-.319.029 34.051 34.051 0 01-5.626.493c-3.335 0-4.379-.667-4.379-1.8 0-1.073.7-2.378 3.712-3.915.058.783.116 1.711.145 2.813a1.412 1.412 0 001.537 1.342 1.516 1.516 0 001.653-1.508c-.058-1.508-.116-2.784-.261-3.857 2.436-.986 5.017-1.856 7.54-2.61a1.508 1.508 0 001.16-1.479 1.508 1.508 0 00-1.508-1.566 2.166 2.166 0 00-.58.087 75.573 75.573 0 00-7.25 2.61c-.754-2.146-2.059-2.755-4.06-2.755a6.946 6.946 0 00-2.494.493zm-450.354 49.49q.087-1.436.087-3.045a1.494 1.494 0 00-1.653-1.392 1.5 1.5 0 00-1.682 1.392c0 7.656-1.363 12.035-3.857 15.428a21.123 21.123 0 01-6.467 5.6 1.592 1.592 0 00-.87 1.421 1.558 1.558 0 001.537 1.6 2.012 2.012 0 001.015-.29 24.748 24.748 0 007.279-6.409 20.987 20.987 0 003.534-7.549c1.914 6.061 5.742 11.02 10.556 13.688a1.706 1.706 0 00.87.232 1.727 1.727 0 001.682-1.711 1.711 1.711 0 00-.986-1.508c-6.637-3.769-9.711-10.12-11.045-17.457zm28.13 14.036a24.2 24.2 0 002.32-2.9 1.714 1.714 0 00.29-.9 1.518 1.518 0 00-1.566-1.45 1.575 1.575 0 00-1.3.7 27.359 27.359 0 01-2.407 2.929 41.574 41.574 0 00-4.094-2.059 2.157 2.157 0 00-.812-.174 1.486 1.486 0 00-1.508 1.45 1.388 1.388 0 00.87 1.247c.986.464 2.088 1.073 3.19 1.711a27.435 27.435 0 01-5.8 3.712 1.623 1.623 0 00-1.044 1.45 1.5 1.5 0 001.479 1.479 1.767 1.767 0 00.812-.2 33.1 33.1 0 007.279-4.756c1.363.87 2.7 1.8 3.944 2.755a1.777 1.777 0 001.044.377 1.578 1.578 0 001.537-1.6 1.714 1.714 0 00-.754-1.392 59.212 59.212 0 00-3.48-2.379zm-4.843-16.7c.174-.29.348-.609.493-.9a1.367 1.367 0 00.174-.7 1.41 1.41 0 00-1.537-1.247 1.615 1.615 0 00-1.479.87 25.809 25.809 0 01-4.843 6.554 1.659 1.659 0 00-.551 1.131 1.481 1.481 0 001.508 1.421 1.806 1.806 0 001.247-.522 27.267 27.267 0 003.306-3.944h17.4c.725 0 1.073-.667 1.073-1.334s-.348-1.334-1.073-1.334zm12.267 6.5a1.141 1.141 0 001.069-1.28 1.141 1.141 0 00-1.073-1.276h-12.927a1.159 1.159 0 00-1.073 1.276 1.159 1.159 0 001.073 1.276zm-17.4 1.305c-.725 0-1.073.667-1.073 1.363 0 .667.348 1.363 1.073 1.363h15.051c1.044 0 1.276.232 1.276.957a31.441 31.441 0 001.334 8.642c.957 2.929 2.175 3.886 3.915 3.886a2.58 2.58 0 002.407-1.74 9.658 9.658 0 00.667-3.132 1.285 1.285 0 00-1.392-1.224 1.166 1.166 0 00-1.247 1.1c-.087 1.363-.29 1.682-.522 1.682-.2 0-.435-.2-.9-1.624a32.842 32.842 0 01-1.16-8.178c-.058-2.175-.986-3.1-3.654-3.1zm51.736 8.9a1.2 1.2 0 001.16-1.305 1.181 1.181 0 00-1.16-1.305h-10.643c.087-.609.174-1.218.232-1.827h6.844a1.141 1.141 0 001.073-1.276 1.141 1.141 0 00-1.073-1.276h-6.67c0-.58.029-1.16.029-1.74h7.743a1.162 1.162 0 001.1-1.276 1.162 1.162 0 00-1.1-1.276h-7.743v-1.194c0-.812-.754-1.189-1.537-1.189-.754 0-1.537.377-1.537 1.189v1.19h-6.931a1.141 1.141 0 00-1.073 1.276 1.141 1.141 0 001.073 1.276h6.931v.87c0 .29 0 .58-.029.87h-5.742a1.159 1.159 0 00-1.073 1.276 1.159 1.159 0 001.073 1.276h5.568q-.087.914-.261 1.827h-9.4a1.2 1.2 0 00-1.16 1.305 1.214 1.214 0 001.16 1.305h8.41a6.881 6.881 0 01-1.189 1.421 14.761 14.761 0 01-7.192 3.451 1.378 1.378 0 00-1.218 1.363 1.332 1.332 0 001.392 1.363 1.412 1.412 0 00.348-.029 18.335 18.335 0 008.758-4.147 9.344 9.344 0 001.711-2 19.159 19.159 0 0011.513 5.887 1.19 1.19 0 00.319.029 1.416 1.416 0 001.45-1.45 1.584 1.584 0 00-1.479-1.566 17.11 17.11 0 01-9.541-4.321zm-13.253-16.7h-7.308c-2.639 0-3.567.928-3.567 2.784v1.711c0 .783.812 1.189 1.595 1.189.812 0 1.6-.406 1.6-1.189v-1.198c0-.522.232-.754.957-.754h16.762c.7 0 .928.232.928.754v1.1c0 .783.812 1.189 1.6 1.189.812 0 1.6-.406 1.6-1.189v-1.682c0-1.856-.9-2.726-3.538-2.726h-7.453V66.07c0-.812-.783-1.189-1.566-1.189-.812 0-1.595.377-1.595 1.189zm36.366 8.468v-1.546h3.02a1.128 1.128 0 001.1-1.218 1.137 1.137 0 00-1.1-1.247h-8.41a1.105 1.105 0 00-1.073 1.218 1.115 1.115 0 001.073 1.247h2.552v1.537h-2.465c-2.784 0-3.6.841-3.6 2.929v4.147c0 2.088.841 2.929 3.625 2.929h7.888c2.291 0 3.625-.348 3.625-2.9v-4.205c0-2.088-.812-2.9-3.6-2.9zm-2.842 6.061v1.624h-2.238c-.551 0-.928 0-.928-.667v-.971zm2.842 0h3.335v.957c0 .551-.174.667-.928.667h-2.407zm0-3.741h2.407c.754 0 .928.116.928.667v.928h-3.335zm-2.842 0v1.6h-3.161v-.928c0-.551.174-.667.928-.667zm2.962-10.42v-1.566a1.374 1.374 0 00-1.537-1.276 1.39 1.39 0 00-1.537 1.276V68.1h-4.089c-2.436 0-3.1.928-3.1 2.668v1.624a1.361 1.361 0 001.508 1.247 1.361 1.361 0 001.508-1.247v-1.1c0-.551.145-.638.812-.638h10.295c.667 0 .812.087.812.638v.955a1.361 1.361 0 001.508 1.247 1.361 1.361 0 001.501-1.247v-1.45c0-1.74-.638-2.7-3.1-2.7zm-14.243 13.747A33.515 33.515 0 01215 89.039a1.784 1.784 0 00-.319.928 1.533 1.533 0 001.624 1.45 1.811 1.811 0 001.566-.9 35.263 35.263 0 003.451-7.743 1.442 1.442 0 00.087-.464 1.6 1.6 0 00-1.711-1.479 1.439 1.439 0 00-1.45 1.016zm.319-15.747a1.785 1.785 0 00-1.015-.348 1.572 1.572 0 00-1.624 1.421 1.438 1.438 0 00.58 1.073c.667.551 1.537 1.421 2.291 2.175a1.418 1.418 0 001.131.551 1.572 1.572 0 001.566-1.537 1.814 1.814 0 00-.493-1.16 17.6 17.6 0 00-2.436-2.176zm-2.03 6.931a1.806 1.806 0 00-1.015-.319 1.583 1.583 0 00-1.653 1.45 1.4 1.4 0 00.609 1.1 23.626 23.626 0 012.407 2.233 1.483 1.483 0 001.1.493 1.629 1.629 0 001.624-1.566 1.814 1.814 0 00-.493-1.16 17.187 17.187 0 00-2.579-2.232zm18.1 13.746a1.591 1.591 0 00-.9-.261 1.513 1.513 0 00-1.537 1.45 1.414 1.414 0 00.667 1.16 21.134 21.134 0 004.898 2.521 1.514 1.514 0 00.609.116 1.546 1.546 0 001.508-1.566 1.523 1.523 0 00-1.1-1.45 24.161 24.161 0 01-4.149-1.971zm-7.946.087a20.9 20.9 0 01-4.35 2.32 1.375 1.375 0 00-.986 1.305 1.5 1.5 0 001.421 1.508 1.475 1.475 0 00.58-.116 25.24 25.24 0 005.1-2.726 1.518 1.518 0 00.725-1.247 1.47 1.47 0 00-1.479-1.392 1.651 1.651 0 00-1.011.347zm32.3-13.457v-3.132c0-.7.2-.928.957-.928h8.9c.812 0 1.189-.725 1.189-1.45s-.377-1.45-1.189-1.45h-9.367c-2.552 0-3.538.87-3.538 3.219v5.017c0 6.467-.7 10.469-2.146 13.63a1.432 1.432 0 00-.145-.464 12.854 12.854 0 00-1.247-2 1.569 1.569 0 00-1.276-.667 1.306 1.306 0 00-1.392 1.218 1.569 1.569 0 00.261.812c.319.522.7 1.247.986 1.856a1.427 1.427 0 001.334.9 1.444 1.444 0 00.841-.261 1.412 1.412 0 00-.029.348 1.4 1.4 0 001.479 1.334 1.724 1.724 0 001.508-.928c1.8-3.306 2.755-7.685 2.871-14.384h.841a28.436 28.436 0 002.668 8.584 18.824 18.824 0 01-4.7 4.524 1.453 1.453 0 00-.754 1.247 1.468 1.468 0 001.421 1.45 1.641 1.641 0 00.9-.29 21.632 21.632 0 004.756-4.292 18.176 18.176 0 003.828 3.915 1.868 1.868 0 001.131.406 1.634 1.634 0 001.6-1.624 1.805 1.805 0 00-.841-1.45 16.362 16.362 0 01-3.857-3.886 23.862 23.862 0 002.987-7.83 6.459 6.459 0 00.116-.986c0-1.769-1.247-2.436-3.451-2.436zm6.322 2.668c.522 0 .7.087.7.406a2 2 0 01-.058.377 18.577 18.577 0 01-1.653 4.872 22.675 22.675 0 01-1.682-5.655zm-14.846 8.672c2.088 0 3.016-.783 3.016-2.929V69.147c0-2-.812-2.929-3.016-2.929h-2.494c-2.2 0-3.016.928-3.016 2.929v12.67c0 2 .812 2.929 3.016 2.929zm-1.976-2.553c-.58 0-.725-.261-.725-.812v-2.175h2.9v2.175c0 .609-.174.812-.725.812zm-.725-8.207h2.9v2.76h-2.9zm2.9-2.436h-2.9v-1.914c0-.609.174-.812.725-.812h1.45c.551 0 .725.2.725.812zm-4.7 14.674a16.286 16.286 0 01-1.856 3.074 1.48 1.48 0 00-.377.928 1.479 1.479 0 001.537 1.363 1.537 1.537 0 001.276-.638 15.02 15.02 0 002.117-3.77 1.316 1.316 0 00.116-.522 1.375 1.375 0 00-1.479-1.276 1.432 1.432 0 00-1.328.841zm39.208-14.21h-6.5a1.2 1.2 0 00-1.16 1.3 1.214 1.214 0 001.16 1.305h16.646a1.219 1.219 0 001.189-1.305 1.2 1.2 0 00-1.189-1.3h-6.96v-1.682h9.976a1.219 1.219 0 001.189-1.305 1.2 1.2 0 00-1.189-1.3h-9.976v-1.45c0-.841-.783-1.247-1.6-1.247-.783 0-1.6.406-1.6 1.247v1.45h-9.669a1.2 1.2 0 00-1.16 1.3 1.214 1.214 0 001.16 1.305h9.686zm-3.306 9.425c-.522 3.567-2.552 5.974-6.815 7.453a1.465 1.465 0 00-1.073 1.392 1.466 1.466 0 001.479 1.479 2.166 2.166 0 00.58-.087c4.9-1.595 8.352-5.046 9.019-9.976 0-.087.029-.145.029-.232 0-.841-.783-1.276-1.6-1.276a1.522 1.522 0 00-1.613 1.247zm6.409 6.9c0 2.2.9 2.987 5.307 2.987 4.379 0 5.829-.928 6.177-4.234v-.174a1.438 1.438 0 00-1.537-1.363 1.407 1.407 0 00-1.508 1.218c-.2 1.682-.754 1.943-3.045 1.943-2 0-2.291-.2-2.291-.87V81.44a1.39 1.39 0 00-1.537-1.276 1.4 1.4 0 00-1.566 1.276zm-10.115-12.12c-2.842 0-3.857.9-3.857 3.132v2a1.451 1.451 0 001.6 1.334 1.435 1.435 0 001.6-1.334v-1.565c0-.7.2-.957 1.1-.957h16.443c.9 0 1.073.261 1.073.957v1.421a1.451 1.451 0 001.6 1.334 1.435 1.435 0 001.6-1.334v-1.885c0-2.233-1.015-3.1-3.857-3.1zm39.929-.873v-8.291c0-.87-.812-1.305-1.653-1.305-.812 0-1.653.435-1.653 1.305v8.291h-10.03a1.361 1.361 0 00-1.247 1.508 1.361 1.361 0 001.247 1.508h10.036v9.222h-8.7a1.361 1.361 0 00-1.247 1.508 1.361 1.361 0 001.247 1.511h21.081a1.364 1.364 0 001.276-1.508 1.364 1.364 0 00-1.276-1.508h-9.081v-9.222h10.212a1.364 1.364 0 001.276-1.508 1.364 1.364 0 00-1.276-1.511zm24.244.87a29.457 29.457 0 012.146-.087c1.392 0 1.885.7 1.885 3.306a23.224 23.224 0 01-.754 6.293c-.493 1.711-1.015 2.03-2.03 2.03a13.741 13.741 0 01-1.591-.112c-.087 0-.174-.029-.232-.029a1.493 1.493 0 00-1.479 1.595 1.553 1.553 0 001.421 1.566 13.363 13.363 0 001.972.145c2.929 0 4.234-1.189 5.162-4.524a27.013 27.013 0 00.783-6.931c0-4.553-1.363-6.235-5.075-6.235-.464 0-.986 0-1.566.029.319-1.595.58-3.219.754-4.785v-.2a1.513 1.513 0 00-1.624-1.45 1.518 1.518 0 00-1.6 1.363 66.56 66.56 0 01-.841 5.336c-1.537.174-3.132.377-4.611.667a1.5 1.5 0 00-1.305 1.508 1.393 1.393 0 001.397 1.475 1.654 1.654 0 00.377-.029c1.1-.232 2.262-.435 3.451-.58a48.894 48.894 0 01-4.437 11.339 1.951 1.951 0 00-.261.9 1.507 1.507 0 001.6 1.45 1.751 1.751 0 001.566-.928 52.44 52.44 0 004.896-13.109zm11.546-4.956a1.939 1.939 0 00-1.334-.551 1.609 1.609 0 00-1.682 1.45 1.593 1.593 0 00.464 1.044 27 27 0 014.118 5.974 1.806 1.806 0 001.6 1.1 1.664 1.664 0 001.682-1.682 2.21 2.21 0 00-.232-.986 25.8 25.8 0 00-4.616-6.349zm2.494-5.278c.667.7 1.479 1.566 2.146 2.407a1.261 1.261 0 001.015.522 1.133 1.133 0 001.16-1.1 1.35 1.35 0 00-.319-.87 14.542 14.542 0 00-2.233-2.378 1.393 1.393 0 00-.87-.348 1.165 1.165 0 00-1.218 1.073.958.958 0 00.319.694zm-2.9 2.291a21.094 21.094 0 012.146 2.465 1.162 1.162 0 00.957.551 1.183 1.183 0 001.16-1.16 1.211 1.211 0 00-.261-.783 14.488 14.488 0 00-2.262-2.523 1.215 1.215 0 00-2.03.783 1.031 1.031 0 00.29.667zm17.864 3.886a12.027 12.027 0 00.725-1.769 1.95 1.95 0 00.116-.7c0-.928-.667-1.74-2.146-1.74h-1.6c.174-.406.377-.812.522-1.218a1.473 1.473 0 00.087-.493 1.339 1.339 0 00-1.45-1.189 1.306 1.306 0 00-1.247.812 23.449 23.449 0 01-3.446 5.684 1.481 1.481 0 00-.435 1.015 1.345 1.345 0 001.392 1.218 1.572 1.572 0 00.9-.29 3.194 3.194 0 00-.232 1.363v5.017c0 4.524-.609 7.975-1.711 10.3a1.748 1.748 0 00-.174.7 1.34 1.34 0 001.421 1.276 1.556 1.556 0 001.421-.986 21.6 21.6 0 001.537-6.844h5.481v4.321c0 .377-.145.493-.464.493a7.055 7.055 0 01-1.1-.087c-.087 0-.145-.029-.232-.029a1.427 1.427 0 00-.058 2.813 9.214 9.214 0 001.653.116c1.769 0 2.871-.783 2.871-2.668V74.857c0-1.943-.9-2.7-2.929-2.7zm-3.886 0a4.075 4.075 0 00-1.856.348q.826-1.087 1.566-2.262h1.537q.435 0 .435.261a.315.315 0 01-.029.145 8.563 8.563 0 01-.7 1.508zm-.319 9.715c.029-.58.029-1.16.029-1.74v-.87h1.45v2.61zm5.394 0h-1.537v-2.61h1.537zm0-4.93h-1.537v-2.436h1.073c.377 0 .464.116.464.551zm-3.915-2.436v2.438h-1.45V75.06c0-.435.087-.551.464-.551zm16.008-5.539c.667 0 .812.058.812.435a6.891 6.891 0 01-.435 2.088c-.174.464-.377.58-.783.58a7.984 7.984 0 01-.986-.087c-.087 0-.174-.029-.261-.029a1.311 1.311 0 00-1.334 1.334 1.4 1.4 0 001.276 1.392 11.138 11.138 0 001.6.116 2.925 2.925 0 003.306-2.436 14.386 14.386 0 00.609-3.741c0-1.421-.87-2.262-2.987-2.262h-8.531a1.176 1.176 0 00-1.131 1.3 1.192 1.192 0 001.131 1.305h2.465a7.42 7.42 0 01-3.045 4.234 1.53 1.53 0 00-.754 1.276 1.393 1.393 0 001.418 1.372 1.639 1.639 0 00.957-.319 10.677 10.677 0 004.379-6.554zm-4.437 9.483l.261-.928a1.456 1.456 0 00.058-.348 1.272 1.272 0 00-1.363-1.189 1.288 1.288 0 00-1.305.957 15.052 15.052 0 01-1.6 3.828 1.715 1.715 0 00-.29.9 1.248 1.248 0 001.334 1.189 1.533 1.533 0 001.363-.812 8.817 8.817 0 00.551-1.044h2.298v2.407h-4.439a1.169 1.169 0 00-1.073 1.305 1.186 1.186 0 001.073 1.305h4.439v5.046c0 .783.754 1.189 1.508 1.189s1.508-.406 1.508-1.189v-5.047h4.174c.7 0 1.044-.667 1.044-1.305 0-.667-.348-1.305-1.044-1.305h-4.176v-2.407h3.277a1.3 1.3 0 000-2.552h-3.277v-1.972c0-.783-.754-1.189-1.508-1.189s-1.508.406-1.508 1.189v1.972zm19.227 13.166c1.972 0 2.929-.609 2.929-2.668v-3.509c0-1.8-.725-2.668-2.929-2.668h-2.987c-2.2 0-2.929.87-2.929 2.668v3.505c0 1.8.725 2.668 2.929 2.668zm-2.407-2.61c-.493 0-.609-.2-.609-.667v-2.295c0-.493.145-.667.609-.667h1.827c.464 0 .609.174.609.667v2.291c0 .493-.145.667-.609.667zm17.342-8c2.146-.087 3.219-.609 3.219-2.9v-3.571c0-2.291-1.015-2.871-3.219-2.958a30.319 30.319 0 001.856-4.147 1.609 1.609 0 00.087-.493 1.5 1.5 0 00-1.624-1.334 1.448 1.448 0 00-1.45.986 29.633 29.633 0 01-2.117 4.988h-2.988c-2.784 0-3.509.928-3.509 2.958v3.567c0 1.914.725 2.726 2.639 2.871-.29 4.089-1.769 6.583-4.031 8.381a1.739 1.739 0 00-.754 1.334 1.479 1.479 0 001.479 1.45 1.662 1.662 0 001.073-.406c2.9-2.262 4.814-5.829 5.133-10.73h1.305v8.033c0 2.059.986 2.61 3.6 2.61 2.987 0 3.973-.87 4.321-4.176v-.145a1.347 1.347 0 00-1.45-1.276 1.209 1.209 0 00-1.276 1.1c-.232 1.624-.551 1.8-1.392 1.8-.667 0-.9-.145-.9-.609zm-5.655-2.643c-.754 0-1.131-.145-1.131-.957v-2.378c0-.58.232-.841 1.131-.841h4.756c.9 0 1.131.261 1.131.841v2.378c0 .725-.232.957-1.131.957zm-6.525-5.046a1.479 1.479 0 000-2.9h-9.048a1.486 1.486 0 000 2.9zm-1.363-4.234a1.228 1.228 0 001.131-1.363 1.212 1.212 0 00-1.131-1.363h-6.032c-.725 0-1.1.667-1.1 1.363a1.225 1.225 0 001.1 1.363zm0 8.294a1.228 1.228 0 001.131-1.363 1.212 1.212 0 00-1.131-1.363h-6.032c-.725 0-1.1.667-1.1 1.363a1.225 1.225 0 001.1 1.363zm0 4.06a1.228 1.228 0 001.131-1.363 1.212 1.212 0 00-1.131-1.363h-6.032c-.725 0-1.1.667-1.1 1.363a1.225 1.225 0 001.1 1.363zm7.6-14.906a1.62 1.62 0 00-1.312-.667 1.424 1.424 0 00-1.5 1.28 1.337 1.337 0 00.232.754c.377.609.957 1.624 1.276 2.291a1.3 1.3 0 001.189.754 1.6 1.6 0 001.653-1.479 1.523 1.523 0 00-.174-.667 14.64 14.64 0 00-1.367-2.266zm19.805 15.776c0 6.032 2.291 8.178 6.612 8.178 3.77 0 7.279-1.566 10.585-5.684a1.719 1.719 0 00.406-1.073 1.673 1.673 0 00-1.711-1.6 1.756 1.756 0 00-1.392.725c-2.668 3.306-5.191 4.408-7.888 4.408-2.059 0-3.248-1.044-3.248-4.93 0-4.292.232-8.729.522-13.021.029-.319.087-1.073.087-1.392a1.514 1.514 0 00-1.682-1.45 1.558 1.558 0 00-1.682 1.45c-.319 4.268-.609 9.778-.609 14.389zm38.4-15.6a1.43 1.43 0 00-1.6-1.3c-.812 0-1.624.435-1.624 1.3v2.927c-2.465.029-4.872.145-6.9.232a1.538 1.538 0 00.058 3.074c2.03-.087 4.437-.174 6.9-.232.029 1.044.058 2.059.116 3.1h-1.567a40.055 40.055 0 01-4.176-.2h-.2a1.471 1.471 0 00-1.45 1.537 1.505 1.505 0 001.392 1.537c1.015.116 2.784.174 4.524.174h1.653c.029 1.015.145 2.059.232 3.1a21.722 21.722 0 00-2.349-.145c-4.147 0-6.235 1.943-6.235 4.466 0 2.7 2.262 4.466 5.945 4.466 3.364 0 6.09-1.508 6.09-4.64v-.2a27.073 27.073 0 015.365 2.784 1.7 1.7 0 002.7-1.392 1.857 1.857 0 00-.986-1.566 26.675 26.675 0 00-7.279-3.161c-.116-1.276-.232-2.552-.29-3.828 1.943-.116 3.857-.261 5.626-.493a1.531 1.531 0 001.421-1.537 1.446 1.446 0 00-1.537-1.479h-.232c-1.682.2-3.538.348-5.452.464q-.087-1.522-.087-3.045c.986 0 1.943-.029 2.871-.029 1.305 0 2.552.029 3.683.058a1.413 1.413 0 001.479-1.479 1.483 1.483 0 00-1.479-1.566 239.36 239.36 0 00-4.756-.058h-1.856zm-5.278 21.054c-1.885 0-2.639-.667-2.639-1.45 0-.87.667-1.566 2.929-1.566a13.5 13.5 0 012.61.261v.638c-.004 1.216-.961 2.115-2.904 2.115zm34.51-3.045a8.2 8.2 0 01-4.466 4.06 1.626 1.626 0 00-1.131 1.479 1.646 1.646 0 001.653 1.624 2.137 2.137 0 00.783-.174c4.176-1.914 6.525-5.075 6.525-9.657a7.4 7.4 0 00-.986-3.857 93.462 93.462 0 01-.2-5.017c3.016-.087 5.974-.174 8.555-.174a1.442 1.442 0 001.392-1.537 1.482 1.482 0 00-1.508-1.6c-2.581 0-5.481.058-8.5.145v-3.448a1.433 1.433 0 00-1.566-1.392 1.49 1.49 0 00-1.624 1.421c0 1.305 0 2.494.029 3.538a509.69 509.69 0 00-11.368.551 1.5 1.5 0 00-1.479 1.566 1.57 1.57 0 001.537 1.653c.319 0 .986-.029 1.305-.058 3.016-.2 7.917-.435 10.034-.551l.087 2.32a6.811 6.811 0 00-1.74-.232c-2.7 0-4.495 1.972-4.495 4.814 0 3.306 2.088 5.22 4.93 5.22a3.2 3.2 0 002.146-.725zm-2.407-6.5a2.1 2.1 0 012.03 2.32c0 1.334-.725 2.03-1.711 2.03a2.158 2.158 0 01-2-2.291c-.005-1.274.691-2.057 1.677-2.057zm29.343-5.972c.2 2.842.377 7.134.493 10.324a1.2 1.2 0 001.305 1.218 1.245 1.245 0 001.363-1.218c.087-3.219.29-7.511.493-10.324.058-.841.232-2.581.232-3.364a2.061 2.061 0 00-4.118 0c0 .783.203 2.842.232 3.364zm1.827 13.427a2.161 2.161 0 00-2.2 2.175 2.204 2.204 0 004.408 0 2.161 2.161 0 00-2.208-2.175z" fill="#3b3938"/><path data-name="パス 331743" d="M82.526 31.263c2.808 0 4.248-.936 4.248-3.744v-3.816c0-2.592-1.188-3.744-4.32-3.744h-5.436c-3.132 0-4.32 1.152-4.32 3.744v3.816c0 2.592 1.188 3.744 4.32 3.744zm-5.076-3.1c-.72 0-1.08-.252-1.08-1.008v-3.1c0-.684.288-1.008 1.08-1.008h4.572c.792 0 1.08.324 1.08 1.008v3.1c0 .684-.288 1.008-1.08 1.008zm-15.7-9.5v11.376a9.961 9.961 0 01-1.728-2.664c.18-1.548.4-3.816.4-4.608a1.673 1.673 0 00-1.764-1.656 1.581 1.581 0 00-1.692 1.512 48.563 48.563 0 01-2.052 12.384 2.689 2.689 0 00-.108.72 1.637 1.637 0 001.656 1.692 1.924 1.924 0 001.8-1.548c.36-1.3.72-2.628 1.008-4.032 2.772 3.6 7.308 5 16.668 5 4.176 0 7.812-.072 11.484-.432a1.81 1.81 0 001.728-1.836 1.718 1.718 0 00-1.836-1.764c-.252 0-1.008.072-1.548.108-3.636.252-5.724.36-9.756.36-4.824 0-8.172-.288-10.584-1.044v-6.224h3.348c.9 0 1.332-.828 1.332-1.656a1.448 1.448 0 00-1.332-1.62h-3.348v-4.068h3.888a1.488 1.488 0 001.368-1.656 1.488 1.488 0 00-1.368-1.656h-4.176v-3.42h3.132a1.475 1.475 0 001.368-1.62 1.455 1.455 0 00-1.368-1.62h-3.132V5.559a1.649 1.649 0 00-1.8-1.584 1.661 1.661 0 00-1.836 1.584v3.132h-3.311c-.9 0-1.332.792-1.332 1.62a1.448 1.448 0 001.332 1.62h3.312v3.42h-5.148c-.9 0-1.332.828-1.332 1.656s.432 1.656 1.332 1.656zm20.772-9.324c.684 0 .9.144.9.684a18.626 18.626 0 01-.54 4.068c-.216.792-.468.936-.972.936a6.982 6.982 0 01-1.3-.144 1.35 1.35 0 00-.36-.036 1.651 1.651 0 00-1.692 1.728 1.693 1.693 0 001.476 1.728 14.794 14.794 0 002.268.18c2.16 0 3.492-1.044 4.068-3.492a26.349 26.349 0 00.612-5.76c.036-2.016-1.116-3.2-3.888-3.2H73.05a1.5 1.5 0 00-1.44 1.656 1.5 1.5 0 001.44 1.656h2.88a10.818 10.818 0 01-3.739 6.904 2.032 2.032 0 00-.864 1.548 1.8 1.8 0 001.872 1.692 2.085 2.085 0 001.476-.576 14.908 14.908 0 004.824-9.576zm23.76 5.724a54.134 54.134 0 004.464-.9 1.8 1.8 0 001.512-1.764 1.837 1.837 0 00-1.908-1.836 1.993 1.993 0 00-.648.072c-1.008.252-2.2.468-3.42.684V6.387a1.785 1.785 0 00-1.944-1.764 1.785 1.785 0 00-1.944 1.764v5.472c-1.8.216-3.528.324-4.968.36a1.745 1.745 0 00-1.764 1.872 1.737 1.737 0 001.764 1.836 68.508 68.508 0 004.968-.324v6.044c-6.3 2.916-7.812 5.8-7.812 8.424 0 3.132 3.492 5.616 6.732 5.616 3.348 0 4.968-1.368 4.968-5.112v-6.408a21.253 21.253 0 016.192-.936c3.42 0 5.256 1.692 5.256 3.672 0 2.34-1.4 3.924-4.932 4.536a1.869 1.869 0 00-1.656 1.872 1.88 1.88 0 001.912 1.948 1.477 1.477 0 00.4-.036c5.256-.756 8.388-3.708 8.388-8.352 0-4.5-3.636-7.164-9.4-7.164a24.253 24.253 0 00-6.156.72zm-3.888 15.228c0 .9-.108 1.584-1.152 1.584-1.332.036-2.628-.72-2.628-1.872 0-1.4.648-2.592 3.78-4.356zm15.8-20.52a1.96 1.96 0 00-.972-.252 2.162 2.162 0 00-2.044 2.128 1.8 1.8 0 001.008 1.62 27.7 27.7 0 014.356 3.132 2.2 2.2 0 001.476.612 2.106 2.106 0 002.088-2.052 2.232 2.232 0 00-.828-1.692 27.062 27.062 0 00-5.076-3.496zm27.5-2.52a1.949 1.949 0 00-2.124-1.908 1.968 1.968 0 00-2.124 1.908v27.468a1.94 1.94 0 002.124 1.872 1.921 1.921 0 002.136-1.872V19.203a2.568 2.568 0 001.044 1.008 63.591 63.591 0 016.732 4.32 2.435 2.435 0 001.512.54 2.09 2.09 0 002.052-2.124 2.313 2.313 0 00-1.008-1.872 42.214 42.214 0 00-7.632-4.608 2.217 2.217 0 00-.936-.216 2.055 2.055 0 00-1.764 1.116zm36.576 3.888a41.042 41.042 0 001.62-3.384 2.457 2.457 0 00.18-.828 2.017 2.017 0 00-2.124-1.908 2.12 2.12 0 00-1.98 1.368 37.881 37.881 0 01-8.676 12.384 2.471 2.471 0 00-.9 1.728 1.968 1.968 0 002.016 1.908 2.371 2.371 0 001.656-.684 38.18 38.18 0 005.868-6.84l8.064-.072c.684 0 .972.18.972.576a1.413 1.413 0 01-.108.5 30.827 30.827 0 01-14.148 17.1 2.308 2.308 0 00-1.26 1.944 2.051 2.051 0 002.052 2.052 2.282 2.282 0 001.188-.324 35.406 35.406 0 0016.501-20.372 6.424 6.424 0 00.324-1.908c0-2.16-1.512-3.348-4.5-3.312zm-56.479 77.232a1.592 1.592 0 00-.87 1.421c.005.812 3.195-2.726.87-1.421z" fill="#eb5e00"/><path data-name="パス 331762" d="M494.879 14.955v-2.34h7.7a1.488 1.488 0 001.368-1.656 1.488 1.488 0 00-1.368-1.656h-2.408a1.669 1.669 0 001.116-1.548 1.629 1.629 0 00-.648-1.3 14.822 14.822 0 00-2.268-1.4 2.345 2.345 0 00-.936-.216 1.528 1.528 0 00-1.544 1.508 1.507 1.507 0 00.828 1.332 13.974 13.974 0 012.016 1.332 1.974 1.974 0 00.54.288h-4.392V5.807a1.666 1.666 0 00-1.872-1.548 1.666 1.666 0 00-1.872 1.548v3.492h-6.768a1.485 1.485 0 00-1.332 1.656 1.485 1.485 0 001.332 1.656h6.768v2.34h-3.06c-2.916 0-4.032 1.116-4.032 3.708v17.5c0 .972.9 1.44 1.8 1.44s1.8-.468 1.8-1.44v-6.228h3.6v5.688a1.6 1.6 0 001.764 1.44 1.577 1.577 0 001.76-1.44v-5.688h3.96v3.24c0 .612-.18.792-.612.792a5.414 5.414 0 01-1.044-.108 1 1 0 00-.324-.036 1.6 1.6 0 00-1.512 1.728 1.665 1.665 0 001.368 1.656 11.241 11.241 0 002.2.216c2.376 0 3.528-1.08 3.528-3.888V18.663c0-2.592-1.152-3.708-4.068-3.708zm-.108 3.24h2.844c.936 0 1.116.252 1.116 1.044v1.728h-3.96zm3.96 5.868v2.808h-3.96v-2.808zm-11.088 2.808v-2.808h3.6v2.808zm0-5.9v-1.728c0-.792.252-1.044 1.08-1.044h2.52v2.772zm-9.54-.144a28.369 28.369 0 003.456-5.9 5.2 5.2 0 00.468-2.016c0-1.584-1.116-2.556-3.168-2.556h-.9V5.567c0-.972-.936-1.44-1.836-1.44-.936 0-1.872.468-1.872 1.44v4.78h-2.592c-.9 0-1.332.828-1.332 1.656 0 .864.432 1.692 1.332 1.692h5.544c.468 0 .684.108.684.36a1.243 1.243 0 01-.108.468 24.361 24.361 0 01-7.236 8.928 1.921 1.921 0 00-.864 1.512 1.753 1.753 0 001.764 1.692 2.225 2.225 0 001.368-.5c.54-.432 1.08-.864 1.584-1.332v11.7c0 .936.936 1.44 1.872 1.44.9 0 1.836-.5 1.836-1.44V26.147c.684.612 1.44 1.26 2.016 1.872a1.683 1.683 0 001.188.576 1.63 1.63 0 001.584-1.62 1.811 1.811 0 00-.612-1.3c-.4-.36-.864-.792-1.4-1.224a19.786 19.786 0 001.836-2.2 1.726 1.726 0 00.324-.936 1.533 1.533 0 00-1.512-1.44 1.455 1.455 0 00-1.224.684 14.977 14.977 0 01-1.8 2.2c-.108-.072-.252-.144-.4-.252zm56.16-4.32c.936 0 1.152.216 1.152 1.008a85.55 85.55 0 01-1.044 14.22c-.18 1.044-.54 1.332-1.224 1.332a9.767 9.767 0 01-1.476-.144 1.9 1.9 0 00-.432-.036 1.882 1.882 0 00-1.872 1.98 2.006 2.006 0 001.724 1.98 11.4 11.4 0 002.556.252c2.484 0 4.068-1.188 4.608-4.572a102.141 102.141 0 001.044-15.552c0-2.736-1.044-3.96-4.212-3.924l-3.2.036v-7.02c0-1.08-.972-1.584-1.944-1.584s-1.944.5-1.944 1.584v7.092l-3.492.036a1.579 1.579 0 00-1.548 1.728 1.606 1.606 0 001.62 1.764l3.384-.072c-.288 8.028-2.484 13.392-6.876 17.712a2.122 2.122 0 00-.72 1.512 1.91 1.91 0 001.944 1.8 2.208 2.208 0 001.584-.72 26.01 26.01 0 002.628-2.992 25.953 25.953 0 004-8.208 36.033 36.033 0 001.332-9.18zm-24.66 13.68l-1.224.216a1.727 1.727 0 00-1.476 1.764 1.857 1.857 0 001.728 1.98 1 1 0 00.324-.036 87.363 87.363 0 0013.936-3.676 1.74 1.74 0 001.184-1.688 1.7 1.7 0 00-1.62-1.8 2.038 2.038 0 00-.648.108 3.539 3.539 0 01-.576.18V9.847c0-2.736-.828-4.032-3.744-4.032h-4.14c-2.916 0-3.744 1.3-3.744 4.032zm7.884-1.8c-1.368.36-2.736.72-4.14 1.008v-5h4.14zm0-7.308h-4.14v-4.212h4.14zm0-7.524h-4.14v-3.2c0-.828.216-1.08.9-1.08h2.34c.684 0 .9.252.9 1.08zm45.324-7.452a1.272 1.272 0 00.144-.612 1.854 1.854 0 00-1.98-1.656 2.165 2.165 0 00-1.8.9 47.631 47.631 0 01-14.184 12.56 2.016 2.016 0 00-1.116 1.728 1.883 1.883 0 001.836 1.908 2 2 0 001.044-.284 56.284 56.284 0 0013.936-11.668 48.654 48.654 0 0014.04 11.088 2.848 2.848 0 001.26.324 1.965 1.965 0 001.944-1.98 2.106 2.106 0 00-1.332-1.944 42.7 42.7 0 01-13.792-10.368zm0 12.888h3.636a1.452 1.452 0 001.368-1.62c0-.828-.432-1.62-1.368-1.62h-11.34a1.455 1.455 0 00-1.368 1.62 1.475 1.475 0 001.368 1.62h3.744v3.348h-10.008a1.455 1.455 0 00-1.368 1.62 1.475 1.475 0 001.368 1.62h10.008v7.628h-12.24a1.492 1.492 0 00-1.4 1.656 1.492 1.492 0 001.4 1.656h28.58a1.492 1.492 0 001.4-1.656 1.492 1.492 0 00-1.4-1.656h-12.38v-7.632h10.26a1.452 1.452 0 001.368-1.62c0-.828-.432-1.62-1.368-1.62h-10.26zm-8.352 8.244a1.886 1.886 0 00-1.512-.756 1.8 1.8 0 00-1.836 1.688 1.742 1.742 0 00.324.972c.648.9 1.08 1.584 1.656 2.484a1.8 1.8 0 001.548.864 1.9 1.9 0 001.944-1.728 1.69 1.69 0 00-.288-.972 18.379 18.379 0 00-1.836-2.556zm10.944 2.592a2 2 0 00-.432 1.152 1.712 1.712 0 001.764 1.584 1.819 1.819 0 001.44-.72 21.6 21.6 0 002.016-2.996 2 2 0 00.288-.936 1.716 1.716 0 00-1.764-1.62 1.8 1.8 0 00-1.62 1.008 17.144 17.144 0 01-1.692 2.524zM125.791 88.371a1.592 1.592 0 00-.87 1.421c.005.812 3.195-2.726.87-1.421z" fill="#eb5e00"/></g></svg>