<svg xmlns="http://www.w3.org/2000/svg" width="557.312" height="80.432"><g data-name="グループ 18945"><path data-name="パス 331756" d="M24.384 49.521a3.4 3.4 0 00-3.456 3.424 3.4 3.4 0 003.456 3.456 3.4 3.4 0 003.424-3.456 3.388 3.388 0 00-3.424-3.424zm0 1.6a1.8 1.8 0 011.824 1.824 1.83 1.83 0 01-1.824 1.856 1.857 1.857 0 01-1.856-1.856 1.83 1.83 0 011.856-1.824zM1.696 55.789a1.678 1.678 0 00-1.7 1.76 1.821 1.821 0 001.856 1.888l15.424-.192c.928 0 1.344.224 1.344.832a2.587 2.587 0 01-.1.64c-1.664 5.728-5.664 10.848-12.736 14.528a1.909 1.909 0 00-1.12 1.7 1.864 1.864 0 001.856 1.888 2.315 2.315 0 001.056-.256c7.552-3.68 13.12-10.208 14.88-17.792a7.861 7.861 0 00.224-1.824c0-2.144-1.312-3.36-4.672-3.328zm46.4 1.344a52.5 52.5 0 006.048-1.472 1.681 1.681 0 001.28-1.6 1.849 1.849 0 00-1.824-1.856 2.174 2.174 0 00-.608.1A70.458 70.458 0 0137.6 54.989a1.668 1.668 0 00-1.728 1.7 1.732 1.732 0 001.76 1.76 56.525 56.525 0 006.752-.672v3.68c0 .352 0 .672-.032.992H33.664a1.481 1.481 0 00-1.376 1.664 1.481 1.481 0 001.376 1.664h10.464c-.64 4.736-2.5 7.68-6.08 9.888a1.946 1.946 0 00-1.024 1.664 1.857 1.857 0 001.856 1.86 2.267 2.267 0 001.184-.352c4.384-2.72 7.04-6.656 7.808-13.056h9.952a1.5 1.5 0 001.408-1.664 1.5 1.5 0 00-1.408-1.664h-9.728zm35.264 6.144c0 6.4-2.112 10.272-7.456 12.9a1.888 1.888 0 00-1.184 1.664 1.912 1.912 0 001.888 1.888 2.394 2.394 0 00.96-.256c6.176-2.944 9.632-7.84 9.632-15.936v-9.5a1.72 1.72 0 00-1.888-1.632 1.742 1.742 0 00-1.952 1.632zm-8.448-8.7a1.76 1.76 0 00-1.92-1.7 1.76 1.76 0 00-1.92 1.7v12.576a1.755 1.755 0 001.92 1.664 1.755 1.755 0 001.92-1.664zm28.224.576a1.678 1.678 0 00-1.7 1.76 1.821 1.821 0 001.856 1.888l15.424-.192c.928 0 1.344.224 1.344.832a2.586 2.586 0 01-.1.64c-1.656 5.728-5.656 10.848-12.724 14.528a1.909 1.909 0 00-1.12 1.7 1.864 1.864 0 001.852 1.88 2.314 2.314 0 001.056-.256c7.552-3.68 13.12-10.208 14.88-17.792a7.86 7.86 0 00.224-1.824c0-2.144-1.312-3.36-4.672-3.328zm42.592 10.208a29.114 29.114 0 01-9.5 8.288 1.568 1.568 0 00-.928 1.408 1.563 1.563 0 001.536 1.568 1.714 1.714 0 00.832-.224 33.2 33.2 0 009.92-8.608v5.152l.032 2.24v.128c0 .7-.256.864-.864.864-.512 0-.992-.1-1.5-.1a1.454 1.454 0 00-1.44 1.536 1.486 1.486 0 001.376 1.5 15.839 15.839 0 002.112.16 3.176 3.176 0 003.448-3.484v-.16l-.224-10.272h5.248a1.36 1.36 0 001.344-1.472 1.351 1.351 0 00-1.344-1.44h-5.312l-.1-4.32a1.416 1.416 0 00-1.568-1.28c-.832 0-1.664.48-1.632 1.344l.128 4.256h-9.5a1.345 1.345 0 00-1.312 1.44 1.355 1.355 0 001.312 1.472zm22.528-1.7a1.7 1.7 0 00-1.728 1.828 1.719 1.719 0 001.728 1.824h23.36a1.719 1.719 0 001.728-1.824 1.7 1.7 0 00-1.728-1.824zm40.736 9.216a149.548 149.548 0 005.92-18.112 2.839 2.839 0 00.064-.48 1.887 1.887 0 00-2.048-1.76 1.816 1.816 0 00-1.892 1.38 160.49 160.49 0 01-6.2 19.328c-.928.064-1.824.1-2.72.16a1.722 1.722 0 00-1.664 1.824 1.7 1.7 0 001.724 1.824c.224 0 .928-.064 1.44-.1a153.509 153.509 0 0018.24-2.428c.448.864.9 1.664 1.248 2.464a1.823 1.823 0 001.664 1.12 1.952 1.952 0 001.984-1.888 2.307 2.307 0 00-.224-.96 50.794 50.794 0 00-6.432-9.952 2.109 2.109 0 00-1.632-.8 1.745 1.745 0 00-1.824 1.6 1.864 1.864 0 00.416 1.092 45.877 45.877 0 013.04 4.32c-3.68.572-7.392 1.02-11.104 1.372zm39.808-14.56a12.9 12.9 0 00-5.248 9.984c0 4.768 3.232 8.736 9.056 9.824a10.068 10.068 0 001.44.128 1.793 1.793 0 001.888-1.884 1.864 1.864 0 00-1.728-1.888c-4.48-.544-6.944-2.72-6.944-6.272 0-3.04 1.056-6.368 6.048-9.216a10.953 10.953 0 013.52-1.28 1.728 1.728 0 001.472-1.724 1.654 1.654 0 00-1.728-1.7h-.192c-6.656.608-14.912 1.536-21.568 2.368a1.74 1.74 0 00-1.664 1.76 1.773 1.773 0 001.792 1.824 1.2 1.2 0 00.32-.032c4.608-.672 9.7-1.44 13.536-1.952zm5.024 5.824a23.276 23.276 0 012.368 2.72 1.282 1.282 0 001.056.608 1.3 1.3 0 001.28-1.28 1.337 1.337 0 00-.288-.864 15.987 15.987 0 00-2.5-2.784 1.335 1.335 0 00-.9-.352 1.333 1.333 0 00-1.344 1.216 1.138 1.138 0 00.328.74zm3.2-2.528c.736.768 1.632 1.728 2.368 2.656a1.392 1.392 0 001.12.576 1.25 1.25 0 001.28-1.216 1.489 1.489 0 00-.352-.96 16.046 16.046 0 00-2.464-2.62 1.537 1.537 0 00-.96-.384 1.285 1.285 0 00-1.344 1.184 1.058 1.058 0 00.352.768zm23.552-8.9a1.2 1.2 0 00.032-.32 1.616 1.616 0 00-1.792-1.5 1.708 1.708 0 00-1.824 1.344l-.8 4.608a29.8 29.8 0 01-3.3-.512 1.558 1.558 0 00-.384-.032 1.66 1.66 0 00-1.632 1.728 1.635 1.635 0 001.376 1.6 23.291 23.291 0 003.36.512c-.256 1.5-.48 2.976-.672 4.48a26.141 26.141 0 01-3.392-.608 1.772 1.772 0 00-.576-.064 1.667 1.667 0 00-1.632 1.76 1.743 1.743 0 001.344 1.728 25.844 25.844 0 003.84.64 30.6 30.6 0 00-.16 3.232c.004 5.48 2.98 8.036 7.972 8.036 5.376 0 9.088-2.656 9.088-8.128a9.6 9.6 0 00-.48-2.944 1.888 1.888 0 00-1.888-1.376 1.672 1.672 0 00-1.82 1.536 2.47 2.47 0 00.064.48 8.716 8.716 0 01.384 2.368c0 3.168-1.888 4.416-5.408 4.416-2.816 0-4.256-1.184-4.256-4.64 0-.768.032-1.664.128-2.784h.9a29.971 29.971 0 005.568-.512 1.639 1.639 0 001.376-1.7 1.617 1.617 0 00-1.568-1.7 1.089 1.089 0 00-.32.032 30.68 30.68 0 01-5.024.416h-.512c.224-1.5.48-2.976.672-4.48h.9a33.659 33.659 0 003.552-.16 1.523 1.523 0 001.364-1.624 1.554 1.554 0 00-1.536-1.7h-.16c-.992.1-2.048.16-3.3.16h-.224zm40.672 7.276v-2.08h6.848a1.323 1.323 0 001.216-1.472 1.323 1.323 0 00-1.216-1.472h-2.144a1.483 1.483 0 00.992-1.376 1.448 1.448 0 00-.576-1.152 13.175 13.175 0 00-2.016-1.248 2.084 2.084 0 00-.832-.192 1.358 1.358 0 00-1.376 1.344 1.339 1.339 0 00.736 1.184 12.421 12.421 0 011.792 1.184 1.754 1.754 0 00.48.256h-3.9v-3.1a1.481 1.481 0 00-1.664-1.376 1.481 1.481 0 00-1.664 1.376v3.1h-6.02a1.32 1.32 0 00-1.184 1.472 1.32 1.32 0 001.184 1.472h6.016v2.08h-2.72c-2.592 0-3.584.992-3.584 3.3v15.544c0 .864.8 1.28 1.6 1.28s1.6-.416 1.6-1.28v-5.536h3.2v5.056a1.42 1.42 0 001.568 1.28 1.4 1.4 0 001.568-1.28v-5.056h3.52v2.88c0 .544-.16.7-.544.7a4.813 4.813 0 01-.928-.1.886.886 0 00-.288-.032 1.418 1.418 0 00-1.344 1.544 1.48 1.48 0 001.216 1.472 9.992 9.992 0 001.952.192c2.112 0 3.136-.96 3.136-3.456V63.281c0-2.3-1.024-3.3-3.616-3.3zm-.1 2.88h2.528c.832 0 .992.224.992.928v1.536h-3.52zm3.52 5.216v2.5h-3.52v-2.5zm-9.856 2.5v-2.5h3.2v2.5zm0-5.248v-1.548c0-.7.224-.928.96-.928h2.24v2.464zm-8.48-.128a25.217 25.217 0 003.072-5.248 4.626 4.626 0 00.416-1.792c0-1.408-.992-2.272-2.816-2.272h-.8v-4.256c0-.864-.832-1.28-1.632-1.28-.832 0-1.664.416-1.664 1.28v4.248h-2.3c-.8 0-1.184.736-1.184 1.472 0 .768.384 1.5 1.184 1.5h4.928c.416 0 .608.1.608.32a1.1 1.1 0 01-.1.416 21.655 21.655 0 01-6.428 7.94 1.707 1.707 0 00-.768 1.344 1.559 1.559 0 001.568 1.508 1.978 1.978 0 001.22-.452c.48-.384.96-.768 1.408-1.184v10.4c0 .832.832 1.28 1.664 1.28.8 0 1.632-.448 1.632-1.28v-9.216c.608.544 1.28 1.12 1.792 1.664a1.5 1.5 0 001.056.512 1.449 1.449 0 001.408-1.44 1.61 1.61 0 00-.544-1.152c-.352-.32-.768-.7-1.248-1.088a17.587 17.587 0 001.632-1.952 1.534 1.534 0 00.288-.832 1.362 1.362 0 00-1.344-1.28 1.293 1.293 0 00-1.088.608 13.314 13.314 0 01-1.6 1.952c-.1-.064-.224-.128-.352-.224zm50.72-3.84c.832 0 1.024.192 1.024.9a76.044 76.044 0 01-.928 12.64c-.16.928-.48 1.184-1.088 1.184a8.681 8.681 0 01-1.312-.128 1.691 1.691 0 00-.384-.032 1.673 1.673 0 00-1.66 1.748 1.783 1.783 0 001.532 1.76 10.132 10.132 0 002.272.224c2.208 0 3.616-1.056 4.1-4.064a90.791 90.791 0 00.928-13.824c0-2.432-.928-3.52-3.744-3.488l-2.848.032v-6.24c0-.96-.864-1.408-1.728-1.408s-1.728.448-1.728 1.408v6.3l-3.1.032a1.4 1.4 0 00-1.376 1.536 1.428 1.428 0 001.44 1.568l3.008-.064c-.26 7.136-2.212 11.908-6.116 15.748a1.886 1.886 0 00-.64 1.344 1.7 1.7 0 001.728 1.6 1.963 1.963 0 001.408-.64 23.12 23.12 0 002.336-2.656 23.069 23.069 0 003.552-7.3 32.03 32.03 0 001.184-8.16zm-21.916 12.152l-1.088.192a1.535 1.535 0 00-1.312 1.568 1.651 1.651 0 001.536 1.76.886.886 0 00.288-.032 77.656 77.656 0 0012.384-3.264 1.547 1.547 0 001.056-1.5 1.511 1.511 0 00-1.44-1.6 1.812 1.812 0 00-.576.1 3.146 3.146 0 01-.512.16V55.441c0-2.432-.736-3.584-3.328-3.584h-3.68c-2.592 0-3.328 1.152-3.328 3.584zm7.008-1.6c-1.216.32-2.432.64-3.68.9v-4.452h3.68zm0-6.5h-3.68v-3.744h3.68zm0-6.688h-3.68v-2.844c0-.736.192-.96.8-.96h2.08c.608 0 .8.224.8.96zm41.092-6.62a1.131 1.131 0 00.128-.544 1.648 1.648 0 00-1.76-1.472 1.924 1.924 0 00-1.6.8 42.339 42.339 0 01-12.612 11.168 1.792 1.792 0 00-.992 1.536 1.673 1.673 0 001.632 1.7 1.776 1.776 0 00.928-.256 50.03 50.03 0 0012.384-10.368 43.248 43.248 0 0012.48 9.856 2.532 2.532 0 001.12.288 1.747 1.747 0 001.728-1.76 1.872 1.872 0 00-1.184-1.728 37.955 37.955 0 01-12.252-9.22zm0 11.456h3.232a1.291 1.291 0 001.216-1.44c0-.736-.384-1.44-1.216-1.44h-10.084a1.294 1.294 0 00-1.216 1.44 1.311 1.311 0 001.216 1.44h3.328v2.976h-8.9a1.294 1.294 0 00-1.212 1.444 1.311 1.311 0 001.216 1.44h8.9v6.78h-10.88a1.326 1.326 0 00-1.252 1.472 1.326 1.326 0 001.252 1.472h25.4a1.326 1.326 0 001.252-1.472 1.326 1.326 0 00-1.252-1.472h-11v-6.784h9.12a1.291 1.291 0 001.216-1.44c0-.736-.384-1.44-1.216-1.44h-9.12zm-7.428 7.328a1.676 1.676 0 00-1.344-.672 1.6 1.6 0 00-1.628 1.504 1.548 1.548 0 00.288.864c.576.8.96 1.408 1.472 2.208a1.6 1.6 0 001.376.768 1.689 1.689 0 001.724-1.536 1.5 1.5 0 00-.26-.864 16.336 16.336 0 00-1.628-2.272zm9.728 2.3a1.777 1.777 0 00-.384 1.024 1.522 1.522 0 001.568 1.408 1.617 1.617 0 001.28-.64 19.2 19.2 0 001.792-2.656 1.779 1.779 0 00.256-.832 1.526 1.526 0 00-1.568-1.44 1.6 1.6 0 00-1.44.9 15.239 15.239 0 01-1.504 2.24zm25.28-10.528c.864-.064 1.664-.1 2.368-.1 1.536 0 2.08.768 2.08 3.648a25.627 25.627 0 01-.828 6.952c-.544 1.888-1.12 2.24-2.24 2.24a15.162 15.162 0 01-1.76-.128c-.1 0-.192-.032-.256-.032a1.647 1.647 0 00-1.632 1.76 1.713 1.713 0 001.568 1.728 14.745 14.745 0 002.176.16c3.232 0 4.672-1.312 5.7-4.992a29.807 29.807 0 00.864-7.648c0-5.024-1.5-6.88-5.6-6.88-.512 0-1.088 0-1.728.032.352-1.76.64-3.552.832-5.28v-.224a1.669 1.669 0 00-1.792-1.6 1.675 1.675 0 00-1.76 1.5 74.963 74.963 0 01-.928 5.888c-1.7.192-3.456.416-5.088.736a1.66 1.66 0 00-1.44 1.664 1.537 1.537 0 001.536 1.632 1.825 1.825 0 00.416-.032c1.216-.256 2.5-.48 3.808-.64a53.953 53.953 0 01-4.9 12.512 2.152 2.152 0 00-.288.992 1.663 1.663 0 001.76 1.6 1.932 1.932 0 001.728-1.024 57.865 57.865 0 005.404-14.46zm12.736-5.472a2.14 2.14 0 00-1.472-.608 1.776 1.776 0 00-1.856 1.6 1.757 1.757 0 00.512 1.156 29.8 29.8 0 014.544 6.592 1.993 1.993 0 001.76 1.216 1.836 1.836 0 001.856-1.856 2.438 2.438 0 00-.256-1.088 28.464 28.464 0 00-5.088-7.008zm2.752-5.824c.736.768 1.632 1.728 2.368 2.656a1.392 1.392 0 001.12.576 1.25 1.25 0 001.28-1.216 1.489 1.489 0 00-.352-.96 16.046 16.046 0 00-2.464-2.624 1.537 1.537 0 00-.96-.384 1.285 1.285 0 00-1.344 1.184 1.058 1.058 0 00.352.772zm-3.2 2.528a23.277 23.277 0 012.368 2.72 1.282 1.282 0 001.056.608 1.3 1.3 0 001.28-1.28 1.337 1.337 0 00-.288-.864 15.987 15.987 0 00-2.5-2.784 1.335 1.335 0 00-.9-.352 1.333 1.333 0 00-1.344 1.216 1.138 1.138 0 00.328.74zm27.3 4.416a12.9 12.9 0 00-5.248 9.984c0 4.768 3.232 8.736 9.056 9.824a10.068 10.068 0 001.44.128 1.793 1.793 0 001.884-1.884 1.864 1.864 0 00-1.728-1.888c-4.48-.544-6.944-2.72-6.944-6.272 0-3.04 1.056-6.368 6.048-9.216a10.954 10.954 0 013.52-1.28 1.728 1.728 0 001.472-1.728 1.654 1.654 0 00-1.728-1.7h-.192c-6.656.608-14.912 1.536-21.568 2.368a1.74 1.74 0 00-1.664 1.76 1.773 1.773 0 001.792 1.824 1.2 1.2 0 00.32-.032c4.608-.672 9.7-1.44 13.536-1.952zm5.024 5.824a23.277 23.277 0 012.368 2.72 1.282 1.282 0 001.056.608 1.3 1.3 0 001.28-1.28 1.337 1.337 0 00-.288-.864 15.987 15.987 0 00-2.5-2.784 1.335 1.335 0 00-.9-.352 1.333 1.333 0 00-1.344 1.216 1.138 1.138 0 00.324.74zm3.2-2.528c.736.768 1.632 1.728 2.368 2.656a1.392 1.392 0 001.12.576 1.25 1.25 0 001.28-1.216 1.489 1.489 0 00-.352-.96 16.046 16.046 0 00-2.464-2.624 1.537 1.537 0 00-.96-.384 1.285 1.285 0 00-1.344 1.184 1.058 1.058 0 00.348.772zm22.108 1.576a70.422 70.422 0 006.432-7.232 2.541 2.541 0 00.576-1.5 2.077 2.077 0 00-2.208-2.016 2.113 2.113 0 00-.448.032c-3.072.48-6.464.9-9.056 1.024a1.6 1.6 0 00-1.568 1.664 1.632 1.632 0 001.6 1.728c.416 0 1.248-.1 1.376-.1 1.6-.128 3.68-.352 5.248-.608a72.01 72.01 0 01-10.816 10.808 1.883 1.883 0 00-.8 1.5 1.8 1.8 0 001.792 1.76 2.217 2.217 0 001.344-.512c3.936-3.04 7.072-4.16 10.3-4.16 3.072 0 4.864 1.824 4.864 4.1a5.485 5.485 0 01-3.1 5.216c-.928-3.2-3.072-5.248-6.144-5.248-2.848 0-4.448 1.7-4.448 4.1 0 2.848 2.784 5.088 7.168 5.088 6.24 0 10.272-3.584 10.272-9.184 0-4.448-3.264-7.168-8.256-7.168a11.056 11.056 0 00-4.064.8zm1.92 12.448c-2.528 0-3.744-.832-3.744-1.888a1.172 1.172 0 011.152-1.248c1.344 0 2.3 1.088 2.848 3.136zm25.632-.32c2.464 0 4.352-.928 6.112-4.032a32.018 32.018 0 003.616-13.6c4.864.352 7.712 3.808 7.712 8 0 3.968-1.824 6.72-6.368 8.352a1.843 1.843 0 00-1.344 1.752 1.794 1.794 0 001.792 1.828 2.1 2.1 0 00.736-.128c5.5-1.76 8.928-6.016 8.928-11.808 0-6.368-4.512-11.264-12.32-11.264-8.8 0-14.848 5.984-14.848 13.28 0 4.992 2.72 7.616 5.984 7.616zm5.984-17.408a28.945 28.945 0 01-3.2 11.68c-.928 1.632-1.792 2.144-2.784 2.144-1.152 0-2.3-1.088-2.3-4.032a10.137 10.137 0 018.284-9.796zm36.608 11.004c0-1.5.512-2.5 2.848-4.128 2.656-1.888 3.584-3.52 3.584-6.272 0-3.936-3.072-6.336-7.52-6.336a9.193 9.193 0 00-7.584 3.744 2.027 2.027 0 00-.448 1.184 1.81 1.81 0 001.888 1.6 1.477 1.477 0 001.248-.64 5.606 5.606 0 014.864-2.816c2.272 0 3.744 1.152 3.744 3.3 0 1.664-.512 2.688-2.56 4.256-2.592 1.984-3.2 3.488-3.2 6.016v.7a1.445 1.445 0 001.568 1.5 1.413 1.413 0 001.568-1.5zm-1.5 4.192a2.384 2.384 0 00-2.432 2.4 2.358 2.358 0 002.428 2.368 2.358 2.358 0 002.432-2.368 2.384 2.384 0 00-2.432-2.4z" fill="#3b3938"/><path data-name="パス 331755" d="M284.38 23.976a15.633 15.633 0 002.988-9.864c0-9.18-5.4-14.112-11.988-14.112-6.552 0-11.988 4.932-11.988 14.112 0 9.216 5.436 14.184 11.988 14.184a11.507 11.507 0 006.12-1.692l2.664 2.988a2.167 2.167 0 001.62.828 2.03 2.03 0 002.052-1.944 2.181 2.181 0 00-.648-1.476zm-5.58-6.192a2.219 2.219 0 00-1.512-.864 2.083 2.083 0 00-2.16 1.944 2.016 2.016 0 00.54 1.368l3.2 3.456a6.9 6.9 0 01-3.492.9c-4.68 0-7.452-4.032-7.452-10.476 0-6.408 2.772-10.4 7.452-10.4s7.452 4 7.452 10.4a14.407 14.407 0 01-1.368 6.66zm16.992 4.752a2.759 2.759 0 00-2.808 2.772 2.729 2.729 0 002.808 2.736 2.729 2.729 0 002.808-2.736 2.759 2.759 0 00-2.808-2.772z" fill="#eb5e00"/></g></svg>