<svg xmlns="http://www.w3.org/2000/svg" width="554.591" height="30.42"><g data-name="グループ 17842"><path data-name="パス 331747" d="M71.625.198a3.077 3.077 0 00-3.132 3.1 3.083 3.083 0 003.132 3.132 3.077 3.077 0 003.1-3.132 3.07 3.07 0 00-3.1-3.1zm0 1.45a1.634 1.634 0 011.653 1.653 1.659 1.659 0 01-1.653 1.682 1.683 1.683 0 01-1.681-1.682 1.659 1.659 0 011.681-1.657zM51.064 5.882a1.52 1.52 0 00-1.537 1.595 1.65 1.65 0 001.682 1.711l13.978-.174c.841 0 1.218.2 1.218.754a2.344 2.344 0 01-.087.58c-1.508 5.191-5.133 9.831-11.542 13.166a1.73 1.73 0 00-1.015 1.537 1.689 1.689 0 001.683 1.711 2.1 2.1 0 00.957-.232c6.843-3.335 11.889-9.251 13.484-16.124a7.123 7.123 0 00.2-1.653c0-1.943-1.189-3.045-4.234-3.016zM93.114 7.1a47.576 47.576 0 005.481-1.334 1.524 1.524 0 001.16-1.45 1.676 1.676 0 00-1.653-1.682 1.971 1.971 0 00-.551.087 63.853 63.853 0 01-13.949 2.436 1.512 1.512 0 00-1.566 1.537 1.57 1.57 0 001.6 1.595 51.226 51.226 0 006.119-.609v3.335c0 .319 0 .609-.029.9h-9.691a1.342 1.342 0 00-1.247 1.508 1.342 1.342 0 001.247 1.508h9.483c-.58 4.292-2.262 6.96-5.51 8.961a1.764 1.764 0 00-.928 1.508 1.683 1.683 0 001.682 1.682 2.055 2.055 0 001.073-.319c3.973-2.465 6.38-6.032 7.076-11.832h9.019a1.364 1.364 0 001.276-1.508 1.364 1.364 0 00-1.276-1.508h-8.816zm31.958 5.568c0 5.8-1.914 9.309-6.757 11.687a1.711 1.711 0 00-1.071 1.508 1.733 1.733 0 001.709 1.711 2.17 2.17 0 00.87-.232c5.6-2.668 8.729-7.105 8.729-14.442V4.287a1.559 1.559 0 00-1.708-1.479 1.579 1.579 0 00-1.769 1.479zm-7.656-7.888a1.6 1.6 0 00-1.74-1.537 1.6 1.6 0 00-1.74 1.537v11.4a1.591 1.591 0 001.74 1.508 1.591 1.591 0 001.74-1.508zm25.578.522a1.52 1.52 0 00-1.537 1.6 1.65 1.65 0 001.682 1.711l13.978-.174c.841 0 1.218.2 1.218.754a2.344 2.344 0 01-.087.58c-1.508 5.191-5.133 9.831-11.542 13.166a1.73 1.73 0 00-1.015 1.537 1.689 1.689 0 001.682 1.706 2.1 2.1 0 00.957-.232c6.844-3.335 11.89-9.251 13.485-16.124a7.123 7.123 0 00.2-1.653c0-1.943-1.189-3.045-4.234-3.016zm38.6 9.251a26.385 26.385 0 01-8.613 7.511 1.421 1.421 0 00-.837 1.28 1.417 1.417 0 001.392 1.421 1.553 1.553 0 00.754-.2 30.089 30.089 0 008.99-7.8v4.669l.029 2.03v.116c0 .638-.232.783-.783.783-.464 0-.9-.087-1.363-.087a1.318 1.318 0 00-1.3 1.392 1.347 1.347 0 001.247 1.363 14.354 14.354 0 001.914.145 2.879 2.879 0 003.12-3.169v-.145l-.2-9.309h4.756a1.233 1.233 0 001.218-1.334 1.224 1.224 0 00-1.218-1.3h-4.814l-.087-3.915a1.283 1.283 0 00-1.421-1.16c-.754 0-1.508.435-1.479 1.218l.116 3.857h-8.613a1.219 1.219 0 00-1.189 1.3 1.228 1.228 0 001.189 1.334zm20.416-1.537a1.543 1.543 0 00-1.566 1.653 1.558 1.558 0 001.566 1.653h21.17a1.558 1.558 0 001.566-1.653 1.543 1.543 0 00-1.566-1.653zm36.917 8.352a135.526 135.526 0 005.365-16.414 2.573 2.573 0 00.058-.435 1.71 1.71 0 00-1.856-1.595 1.646 1.646 0 00-1.711 1.247 145.447 145.447 0 01-5.626 17.516c-.841.058-1.653.087-2.465.145a1.561 1.561 0 00-1.508 1.653 1.543 1.543 0 001.56 1.653c.2 0 .841-.058 1.3-.087a139.117 139.117 0 0016.53-2.2c.406.783.812 1.508 1.131 2.233a1.652 1.652 0 001.518 1.011 1.769 1.769 0 001.8-1.711 2.09 2.09 0 00-.2-.87 46.032 46.032 0 00-5.829-9.019 1.912 1.912 0 00-1.479-.725 1.581 1.581 0 00-1.653 1.45 1.69 1.69 0 00.377.986 41.573 41.573 0 012.755 3.915c-3.34.523-6.704.928-10.068 1.247zm36.076-13.195a11.692 11.692 0 00-4.759 9.048c0 4.321 2.929 7.917 8.207 8.9a9.124 9.124 0 001.307.123 1.625 1.625 0 001.711-1.711 1.689 1.689 0 00-1.566-1.711c-4.06-.493-6.293-2.465-6.293-5.684 0-2.755.957-5.771 5.481-8.352a9.927 9.927 0 013.19-1.16 1.566 1.566 0 001.334-1.566 1.5 1.5 0 00-1.566-1.537h-.174c-6.032.551-13.514 1.392-19.546 2.146a1.577 1.577 0 00-1.508 1.6 1.606 1.606 0 001.624 1.653 1.088 1.088 0 00.29-.029c4.176-.609 8.787-1.3 12.267-1.769zm4.553 5.278a21.094 21.094 0 012.146 2.465 1.162 1.162 0 00.957.551 1.183 1.183 0 001.16-1.16 1.211 1.211 0 00-.261-.783 14.488 14.488 0 00-2.262-2.523 1.21 1.21 0 00-.812-.319 1.208 1.208 0 00-1.218 1.1 1.031 1.031 0 00.289.669zm2.9-2.291c.667.7 1.479 1.566 2.146 2.407a1.261 1.261 0 001.015.522 1.133 1.133 0 001.16-1.1 1.35 1.35 0 00-.319-.87 14.541 14.541 0 00-2.233-2.378 1.393 1.393 0 00-.87-.348 1.165 1.165 0 00-1.218 1.073.958.958 0 00.318.694zM303.8 3.098a1.088 1.088 0 00.029-.29 1.464 1.464 0 00-1.625-1.364 1.548 1.548 0 00-1.653 1.218l-.725 4.176a27.01 27.01 0 01-2.982-.463 1.412 1.412 0 00-.348-.029 1.5 1.5 0 00-1.479 1.566 1.482 1.482 0 001.247 1.45 21.108 21.108 0 003.045.464 98.725 98.725 0 00-.609 4.06 23.69 23.69 0 01-3.074-.551 1.606 1.606 0 00-.522-.058 1.511 1.511 0 00-1.479 1.6 1.579 1.579 0 001.218 1.566 23.421 23.421 0 003.48.58 27.735 27.735 0 00-.145 2.929c0 4.959 2.7 7.279 7.221 7.279 4.872 0 8.236-2.407 8.236-7.366a8.7 8.7 0 00-.435-2.668 1.711 1.711 0 00-1.716-1.253 1.515 1.515 0 00-1.653 1.392 2.237 2.237 0 00.058.435 7.9 7.9 0 01.348 2.146c0 2.871-1.711 4-4.9 4-2.552 0-3.857-1.073-3.857-4.2 0-.7.029-1.508.116-2.523h.812a27.161 27.161 0 005.046-.464 1.485 1.485 0 001.247-1.537 1.466 1.466 0 00-1.421-1.537.986.986 0 00-.29.029 27.8 27.8 0 01-4.553.377h-.464c.2-1.363.435-2.7.609-4.06h.812a30.5 30.5 0 003.219-.145 1.381 1.381 0 001.247-1.479 1.409 1.409 0 00-1.392-1.537h-.145c-.9.087-1.856.145-2.987.145h-.2zm36.859 6.583V7.796h6.206a1.2 1.2 0 001.1-1.334 1.2 1.2 0 00-1.1-1.334h-1.943a1.344 1.344 0 00.9-1.247 1.312 1.312 0 00-.522-1.044 11.939 11.939 0 00-1.827-1.131 1.889 1.889 0 00-.754-.174 1.231 1.231 0 00-1.247 1.218 1.214 1.214 0 00.667 1.073 11.258 11.258 0 011.624 1.073 1.59 1.59 0 00.435.232h-3.538V2.315a1.342 1.342 0 00-1.508-1.247 1.342 1.342 0 00-1.508 1.247v2.813h-5.452a1.2 1.2 0 00-1.073 1.334 1.2 1.2 0 001.073 1.334h5.452v1.885h-2.465c-2.349 0-3.248.9-3.248 2.987v14.094c0 .783.725 1.16 1.45 1.16s1.45-.377 1.45-1.16v-5.018h2.9v4.583a1.287 1.287 0 001.421 1.16 1.27 1.27 0 001.421-1.16v-4.583h3.19v2.61c0 .493-.145.638-.493.638a4.362 4.362 0 01-.841-.087.8.8 0 00-.261-.029 1.285 1.285 0 00-1.224 1.393 1.341 1.341 0 001.1 1.334 9.055 9.055 0 001.769.174c1.914 0 2.842-.87 2.842-3.132V12.668c0-2.088-.928-2.987-3.277-2.987zm-.087 2.61h2.291c.754 0 .9.2.9.841v1.392h-3.19zm3.19 4.727v2.262h-3.19v-2.262zm-8.932 2.262v-2.262h2.9v2.262zm0-4.756v-1.392c0-.638.2-.841.87-.841h2.03v2.233zm-7.685-.116a22.852 22.852 0 002.784-4.756 4.192 4.192 0 00.377-1.624c0-1.276-.9-2.059-2.552-2.059h-.725V2.112c0-.783-.754-1.16-1.479-1.16-.754 0-1.508.377-1.508 1.16v3.857h-2.088c-.725 0-1.073.667-1.073 1.334 0 .7.348 1.363 1.073 1.363h4.466c.377 0 .551.087.551.29a1 1 0 01-.087.377 19.625 19.625 0 01-5.829 7.192 1.547 1.547 0 00-.7 1.218 1.412 1.412 0 001.421 1.363 1.792 1.792 0 001.1-.406c.435-.348.87-.7 1.276-1.073v9.425c0 .754.754 1.16 1.508 1.16.725 0 1.479-.406 1.479-1.16V18.7c.551.493 1.16 1.015 1.624 1.508a1.356 1.356 0 00.957.464 1.313 1.313 0 001.276-1.305 1.459 1.459 0 00-.493-1.044c-.319-.29-.7-.638-1.131-.986a15.939 15.939 0 001.479-1.769 1.391 1.391 0 00.261-.754 1.235 1.235 0 00-1.218-1.16 1.172 1.172 0 00-.986.551 12.066 12.066 0 01-1.45 1.769c-.087-.058-.2-.116-.319-.2zm45.965-3.48c.754 0 .928.174.928.812a68.914 68.914 0 01-.841 11.455c-.145.841-.435 1.073-.986 1.073a7.868 7.868 0 01-1.189-.116 1.532 1.532 0 00-.348-.029 1.516 1.516 0 00-1.509 1.595 1.616 1.616 0 001.392 1.6 9.182 9.182 0 002.059.2c2 0 3.277-.957 3.712-3.683a82.279 82.279 0 00.841-12.528c0-2.2-.841-3.19-3.393-3.161l-2.581.029V2.52c0-.87-.783-1.276-1.566-1.276s-1.566.406-1.566 1.276v5.713l-2.813.029a1.272 1.272 0 00-1.247 1.392 1.294 1.294 0 001.3 1.421l2.726-.058c-.232 6.467-2 10.788-5.539 14.268a1.709 1.709 0 00-.58 1.218 1.539 1.539 0 001.566 1.45 1.779 1.779 0 001.276-.58 20.952 20.952 0 002.122-2.409 20.906 20.906 0 003.219-6.612 29.026 29.026 0 001.073-7.4zm-19.866 11.016l-.986.174a1.392 1.392 0 00-1.189 1.426 1.5 1.5 0 001.392 1.595.8.8 0 00.261-.029 70.376 70.376 0 0011.222-2.959 1.4 1.4 0 00.957-1.363 1.369 1.369 0 00-1.305-1.45 1.642 1.642 0 00-.522.087 2.851 2.851 0 01-.464.145V5.563c0-2.2-.667-3.248-3.016-3.248h-3.335c-2.349 0-3.016 1.044-3.016 3.248zm6.351-1.45c-1.1.29-2.2.58-3.335.812v-4.027h3.335zm0-5.887h-3.335v-3.393h3.335zm0-6.061h-3.335V5.965c0-.667.174-.87.725-.87h1.885c.551 0 .725.2.725.87zm37.236-6a1.025 1.025 0 00.116-.493 1.494 1.494 0 00-1.6-1.334 1.744 1.744 0 00-1.45.725 38.37 38.37 0 01-11.426 10.121 1.624 1.624 0 00-.9 1.392 1.517 1.517 0 001.479 1.537 1.609 1.609 0 00.841-.232 45.339 45.339 0 0011.223-9.4 39.194 39.194 0 0011.31 8.932 2.294 2.294 0 001.015.261 1.583 1.583 0 001.566-1.6 1.7 1.7 0 00-1.073-1.566 34.4 34.4 0 01-11.101-8.345zm0 10.382h2.929a1.17 1.17 0 001.1-1.305c0-.667-.348-1.3-1.1-1.3h-9.135a1.172 1.172 0 00-1.1 1.3 1.188 1.188 0 001.1 1.305h3.019v2.7h-8.062a1.172 1.172 0 00-1.1 1.305 1.188 1.188 0 001.1 1.3h8.062v6.151h-9.86a1.2 1.2 0 00-1.134 1.334 1.2 1.2 0 001.131 1.334h23.026a1.2 1.2 0 001.131-1.334 1.2 1.2 0 00-1.131-1.334h-9.976v-6.148h8.265a1.17 1.17 0 001.1-1.3c0-.667-.348-1.305-1.1-1.305h-8.265zm-6.728 6.641a1.519 1.519 0 00-1.218-.609 1.446 1.446 0 00-1.479 1.363 1.4 1.4 0 00.261.783c.522.725.87 1.276 1.334 2a1.446 1.446 0 001.247.7 1.531 1.531 0 001.566-1.392 1.361 1.361 0 00-.232-.783 14.8 14.8 0 00-1.479-2.061zm8.816 2.088a1.61 1.61 0 00-.348.928 1.379 1.379 0 001.421 1.276 1.465 1.465 0 001.16-.58 17.4 17.4 0 001.624-2.407 1.612 1.612 0 00.232-.754 1.382 1.382 0 00-1.421-1.3 1.45 1.45 0 00-1.3.812 13.812 13.812 0 01-1.368 2.026zm22.91-9.541a29.457 29.457 0 012.146-.087c1.392 0 1.885.7 1.885 3.306a23.223 23.223 0 01-.754 6.293c-.493 1.711-1.015 2.03-2.03 2.03a13.741 13.741 0 01-1.6-.116c-.087 0-.174-.029-.232-.029a1.493 1.493 0 00-1.479 1.595 1.553 1.553 0 001.421 1.566 13.362 13.362 0 001.972.145c2.929 0 4.234-1.189 5.162-4.524a27.012 27.012 0 00.783-6.931c0-4.553-1.363-6.235-5.075-6.235-.464 0-.986 0-1.566.029.319-1.595.58-3.219.754-4.785v-.2a1.513 1.513 0 00-1.624-1.45 1.518 1.518 0 00-1.6 1.363 66.56 66.56 0 01-.841 5.336c-1.537.174-3.132.377-4.611.667a1.5 1.5 0 00-1.3 1.508 1.393 1.393 0 001.392 1.479 1.653 1.653 0 00.377-.029c1.1-.232 2.262-.435 3.451-.58a48.9 48.9 0 01-4.432 11.337 1.95 1.95 0 00-.261.9 1.507 1.507 0 001.6 1.45 1.751 1.751 0 001.566-.928 52.439 52.439 0 004.896-13.109zm11.542-4.959a1.939 1.939 0 00-1.334-.551 1.609 1.609 0 00-1.682 1.45 1.593 1.593 0 00.464 1.044 27 27 0 014.118 5.974 1.806 1.806 0 001.6 1.1 1.664 1.664 0 001.682-1.682 2.21 2.21 0 00-.232-.986 25.8 25.8 0 00-4.616-6.348zm2.494-5.278c.667.7 1.479 1.566 2.146 2.407a1.261 1.261 0 001.015.522 1.133 1.133 0 001.16-1.1 1.35 1.35 0 00-.319-.87A14.541 14.541 0 00437.634.46a1.393 1.393 0 00-.87-.348 1.165 1.165 0 00-1.22 1.072.958.958 0 00.321.696zm-2.9 2.291a21.1 21.1 0 012.146 2.465 1.162 1.162 0 00.957.551 1.183 1.183 0 001.16-1.16 1.211 1.211 0 00-.261-.783 14.488 14.488 0 00-2.262-2.523 1.21 1.21 0 00-.812-.319 1.208 1.208 0 00-1.218 1.1 1.031 1.031 0 00.29.67zm24.737 4a11.692 11.692 0 00-4.758 9.051c0 4.321 2.929 7.917 8.207 8.9a9.124 9.124 0 001.3.116 1.625 1.625 0 001.711-1.711 1.689 1.689 0 00-1.566-1.711c-4.06-.493-6.293-2.465-6.293-5.684 0-2.755.957-5.771 5.481-8.352a9.927 9.927 0 013.19-1.16 1.566 1.566 0 001.334-1.566 1.5 1.5 0 00-1.566-1.537h-.174c-6.032.551-13.514 1.392-19.546 2.146a1.577 1.577 0 00-1.508 1.6 1.606 1.606 0 001.624 1.653 1.088 1.088 0 00.29-.029c4.176-.609 8.787-1.3 12.267-1.769zm4.553 5.278a21.1 21.1 0 012.146 2.465 1.162 1.162 0 00.957.551 1.183 1.183 0 001.16-1.16 1.211 1.211 0 00-.261-.783 14.486 14.486 0 00-2.262-2.523 1.21 1.21 0 00-.812-.319 1.208 1.208 0 00-1.218 1.1 1.031 1.031 0 00.29.672zm2.9-2.291c.667.7 1.479 1.566 2.146 2.407a1.261 1.261 0 001.015.522 1.133 1.133 0 001.16-1.1 1.35 1.35 0 00-.319-.87 14.542 14.542 0 00-2.233-2.378 1.393 1.393 0 00-.87-.348 1.165 1.165 0 00-1.218 1.073.958.958 0 00.319.697zm20.039 1.421a63.82 63.82 0 005.829-6.554 2.3 2.3 0 00.522-1.363 1.883 1.883 0 00-2-1.827 1.915 1.915 0 00-.406.029c-2.784.435-5.858.812-8.207.928a1.453 1.453 0 00-1.421 1.508 1.479 1.479 0 001.45 1.566c.377 0 1.131-.087 1.247-.087 1.45-.116 3.335-.319 4.756-.551a65.258 65.258 0 01-9.8 9.8 1.706 1.706 0 00-.725 1.363 1.635 1.635 0 001.624 1.595 2.01 2.01 0 001.218-.464c3.567-2.755 6.409-3.77 9.338-3.77 2.784 0 4.408 1.653 4.408 3.712a4.971 4.971 0 01-2.813 4.727c-.841-2.9-2.784-4.756-5.568-4.756-2.581 0-4.031 1.537-4.031 3.712 0 2.581 2.523 4.611 6.5 4.611 5.655 0 9.309-3.248 9.309-8.323 0-4.031-2.958-6.5-7.482-6.5a10.019 10.019 0 00-3.683.725zm1.74 11.281c-2.291 0-3.393-.754-3.393-1.711a1.062 1.062 0 011.044-1.131c1.218 0 2.088.986 2.581 2.842zm23.229-.29c2.233 0 3.944-.841 5.539-3.654a29.016 29.016 0 003.277-12.325 7.089 7.089 0 016.989 7.25c0 3.6-1.653 6.09-5.771 7.569a1.67 1.67 0 00-1.218 1.6 1.626 1.626 0 001.624 1.651 1.9 1.9 0 00.667-.116c4.988-1.6 8.091-5.452 8.091-10.7 0-5.771-4.089-10.208-11.165-10.208-7.975 0-13.456 5.423-13.456 12.035.004 4.523 2.465 6.901 5.423 6.901zm5.423-15.776a26.231 26.231 0 01-2.9 10.585c-.842 1.482-1.624 1.946-2.523 1.946-1.044 0-2.088-.986-2.088-3.654a9.186 9.186 0 017.511-8.874zm33.176 9.976c0-1.363.464-2.262 2.581-3.741 2.407-1.711 3.248-3.19 3.248-5.684 0-3.567-2.784-5.742-6.815-5.742a8.331 8.331 0 00-6.873 3.393 1.837 1.837 0 00-.406 1.073 1.64 1.64 0 001.711 1.45 1.338 1.338 0 001.131-.58 5.081 5.081 0 014.408-2.552c2.059 0 3.393 1.044 3.393 2.987 0 1.508-.464 2.436-2.32 3.857-2.349 1.8-2.9 3.161-2.9 5.452v.638a1.31 1.31 0 001.424 1.366 1.281 1.281 0 001.421-1.363zm-1.363 3.8a2.161 2.161 0 00-2.2 2.175 2.137 2.137 0 002.2 2.146 2.137 2.137 0 002.2-2.146 2.161 2.161 0 00-2.2-2.173z" fill="#3b3938"/><path data-name="パス 331748" d="M20.988 23.976a15.633 15.633 0 002.988-9.864C23.976 4.932 18.576 0 11.988 0 5.436 0 0 4.932 0 14.112c0 9.216 5.436 14.184 11.988 14.184a11.507 11.507 0 006.12-1.692l2.664 2.988a2.167 2.167 0 001.62.828 2.03 2.03 0 002.052-1.944A2.181 2.181 0 0023.796 27zm-5.58-6.192a2.219 2.219 0 00-1.512-.864 2.083 2.083 0 00-2.16 1.944 2.016 2.016 0 00.54 1.368l3.2 3.456a6.9 6.9 0 01-3.492.9c-4.68 0-7.452-4.032-7.452-10.476 0-6.408 2.772-10.4 7.452-10.4s7.452 4 7.452 10.4a14.407 14.407 0 01-1.368 6.66zM32.4 22.536a2.759 2.759 0 00-2.808 2.772 2.729 2.729 0 002.808 2.736 2.729 2.729 0 002.808-2.736 2.759 2.759 0 00-2.808-2.772z" fill="#eb5e00"/></g></svg>