<svg xmlns="http://www.w3.org/2000/svg" width="425.632" height="125.464"><g data-name="グループ 18944"><path data-name="パス 331753" d="M106.592 58.864c1.216 0 1.568.416 1.568 1.312v15.04c0 .768-.288 1.056-.832 1.056a10.85 10.85 0 01-1.728-.16 1.313 1.313 0 00-.352-.032 1.669 1.669 0 00-1.6 1.792 1.671 1.671 0 001.376 1.728 12.869 12.869 0 002.784.256c2.4 0 3.872-1.088 3.872-3.936V59.76c0-2.5-1.312-4.032-4.448-4.032h-6.976c.1-1.216.16-2.528.16-3.872a1.593 1.593 0 00-1.728-1.6 1.593 1.593 0 00-1.728 1.6c0 1.376-.064 2.656-.16 3.872h-6.72c-3.168 0-4.448 1.536-4.448 4.032v19.3c0 .9.9 1.344 1.76 1.344.9 0 1.76-.448 1.76-1.344V60.18c0-.9.352-1.312 1.568-1.312h5.7c-.832 4.7-2.624 7.9-5.632 10.3a1.769 1.769 0 00-.768 1.408 1.612 1.612 0 001.632 1.6 2.229 2.229 0 001.376-.544 18.161 18.161 0 004.96-6.528 31.966 31.966 0 016.268 5.284 1.558 1.558 0 001.152.544 1.838 1.838 0 001.792-1.824 2.1 2.1 0 00-.7-1.5 32.239 32.239 0 00-7.392-5.5 22.484 22.484 0 00.736-3.232zm39.392-2.784c0-2.176-1.184-3.072-4.128-3.072h-7.936V51.28c0-.864-.864-1.312-1.728-1.312-.9 0-1.76.448-1.76 1.312v1.728h-7.744c-2.944 0-4.1.9-4.1 3.072v1.952a1.513 1.513 0 001.7 1.376 1.5 1.5 0 001.668-1.376v-1.5c0-.608.256-.864 1.12-.864h4.736a1.548 1.548 0 00-.672.608 11.406 11.406 0 01-6.944 4.928 1.386 1.386 0 00-1.12 1.344 1.467 1.467 0 001.44 1.5 1.244 1.244 0 00.48-.064c3.712-1.088 7.3-3.52 8.832-6.464a1.709 1.709 0 00.16-.64 1.308 1.308 0 00-.9-1.216h4.068v3.584c0 2.112.9 2.72 4.864 2.72 4 0 5.312-.832 5.568-3.264a1.824 1.824 0 00.7.128 1.513 1.513 0 001.7-1.376zm-9.7-.416h5.248c.832 0 1.056.224 1.056.832v.928a1.812 1.812 0 00-.576-.1 1.306 1.306 0 00-1.404 1.064c-.128.864-.512 1.152-2.592 1.152-1.536 0-1.728-.16-1.728-.8zm3.236 12.544c.448.448.864.864 1.28 1.312a1.718 1.718 0 001.248.608 1.642 1.642 0 001.6-1.568 1.724 1.724 0 00-.576-1.184 37.154 37.154 0 00-5.316-4.352 1.735 1.735 0 00-.992-.32 1.524 1.524 0 00-1.568 1.408 1.336 1.336 0 00.64 1.088 11.368 11.368 0 01.992.736c-2.528.192-5.088.384-7.68.512a40.22 40.22 0 002.144-3.3 1.779 1.779 0 00.256-.832 1.539 1.539 0 00-1.632-1.408 1.777 1.777 0 00-1.6 1.024 34.11 34.11 0 01-3.008 4.64c-1.344.032-2.688.064-4.032.064a1.386 1.386 0 00-1.5 1.408 1.454 1.454 0 001.568 1.472c5.412-.128 11.812-.508 18.176-1.308zm-14.432 8.48c0 2.528.832 3.136 7.136 3.136 6.272 0 7.68-1.056 7.968-4.288v-.16a1.544 1.544 0 00-1.7-1.472 1.484 1.484 0 00-1.6 1.28c-.16 1.6-.7 1.952-4.672 1.952-3.488 0-3.776-.16-3.776-.864v-3.936a1.481 1.481 0 00-1.664-1.376c-.864 0-1.7.448-1.7 1.376zm-4.608-4a16.388 16.388 0 01-1.792 3.136 1.635 1.635 0 00-.352.992 1.632 1.632 0 001.7 1.5 1.787 1.787 0 001.436-.728 18.424 18.424 0 002.016-3.68 2.018 2.018 0 00.16-.7 1.572 1.572 0 00-1.664-1.44 1.593 1.593 0 00-1.504.92zm22.816-.768a1.834 1.834 0 00-1.28-.512 1.632 1.632 0 00-1.7 1.472 1.535 1.535 0 00.448 1.056 31.249 31.249 0 012.3 2.784 1.665 1.665 0 001.344.736 1.724 1.724 0 001.728-1.632 1.72 1.72 0 00-.352-1.024 19.174 19.174 0 00-2.488-2.88zm-10.752-1.792a1.83 1.83 0 00-.864-.224 1.559 1.559 0 00-1.6 1.44 1.349 1.349 0 00.672 1.12c.604.416 1.344 1.024 1.888 1.472a1.711 1.711 0 001.056.416 1.551 1.551 0 001.536-1.5 1.607 1.607 0 00-.676-1.284 12.821 12.821 0 00-2.012-1.44zm25.344-.74c0 6.656 2.528 9.024 7.3 9.024 4.16 0 8.032-1.728 11.68-6.272a1.9 1.9 0 00.448-1.184 1.847 1.847 0 00-1.888-1.76 1.938 1.938 0 00-1.536.8c-2.944 3.648-5.728 4.864-8.7 4.864-2.272 0-3.584-1.152-3.584-5.44 0-4.7.256-9.728.576-14.464.032-.352.1-1.024.1-1.44a1.67 1.67 0 00-1.856-1.6 1.72 1.72 0 00-1.856 1.6c-.364 4.708-.684 10.788-.684 15.872zm11.3-11.552a23.276 23.276 0 012.368 2.72 1.282 1.282 0 001.056.608 1.3 1.3 0 001.28-1.28 1.337 1.337 0 00-.288-.864 15.987 15.987 0 00-2.5-2.784 1.335 1.335 0 00-.9-.352 1.333 1.333 0 00-1.344 1.216 1.138 1.138 0 00.324.74zm3.2-2.528c.736.768 1.632 1.728 2.368 2.656a1.392 1.392 0 001.12.576 1.25 1.25 0 001.28-1.212 1.489 1.489 0 00-.352-.96 16.046 16.046 0 00-2.464-2.624 1.537 1.537 0 00-.96-.384 1.285 1.285 0 00-1.344 1.184 1.058 1.058 0 00.348.768zm21.824 4.256a1.318 1.318 0 00-1.344-.864c-.832 0-1.664.512-1.664 1.28a.945.945 0 00.064.416l1.472 4.352q-1.824.72-4.032 1.728a1.362 1.362 0 00-.832 1.28 1.484 1.484 0 001.376 1.536 1.709 1.709 0 00.64-.16 82.41 82.41 0 013.808-1.664l3.872 11.392a1.386 1.386 0 001.376.96 1.527 1.527 0 001.6-1.408 1.591 1.591 0 00-.1-.512l-3.9-11.52a23.009 23.009 0 017.648-1.568c2.464 0 3.328.832 3.328 2.016 0 1.408-.864 2.208-2.56 2.208a6.438 6.438 0 01-1.828-.248 2.47 2.47 0 00-.48-.064 1.48 1.48 0 00-1.472 1.536 1.6 1.6 0 001.312 1.564 12.021 12.021 0 002.592.256c3.3 0 5.632-1.984 5.632-5.248 0-2.912-2.368-4.864-6.5-4.864a25.63 25.63 0 00-8.608 1.7zm5.92-2.624a1.95 1.95 0 00-.9-.224 1.588 1.588 0 00-1.6 1.5 1.311 1.311 0 00.7 1.12 21.988 21.988 0 012.528 1.76 1.725 1.725 0 001.088.416 1.593 1.593 0 001.608-1.524 1.7 1.7 0 00-.7-1.28 17.06 17.06 0 00-2.728-1.764zm38.588 17.348a19.841 19.841 0 013.648 2.048 2.04 2.04 0 001.088.384 1.763 1.763 0 001.7-1.76 1.8 1.8 0 00-.864-1.5 22.266 22.266 0 00-6.016-2.784 24.332 24.332 0 01-.448-4.16 18.543 18.543 0 01.224-2.624c0-.1.032-.16.032-.256a1.613 1.613 0 00-1.792-1.472 1.561 1.561 0 00-1.664 1.28 17.376 17.376 0 00-.224 3.1 23.286 23.286 0 00.32 3.392 14.258 14.258 0 00-1.6-.1c-4.1 0-6.272 2.112-6.272 4.672 0 2.976 2.3 4.64 6.112 4.64 3.068.004 5.692-1.276 5.756-4.86zm-5.764 1.7c-2.08 0-2.72-.544-2.72-1.472 0-.864.7-1.568 2.944-1.568a11.279 11.279 0 012.016.192 6.426 6.426 0 01.032.8c.004 1.404-.796 2.048-2.272 2.048zM225.984 57.2c-1.632.16-3.232.256-4.672.32a1.562 1.562 0 00-1.536 1.668 1.637 1.637 0 001.664 1.76c.992-.032 2.144-.1 3.328-.224a49.037 49.037 0 01-4.32 8.7 1.993 1.993 0 00-.352 1.12 1.75 1.75 0 001.792 1.7 2.115 2.115 0 001.792-1.156 58.8 58.8 0 004.928-10.784 73.218 73.218 0 004.512-.768 1.645 1.645 0 001.44-1.632 1.658 1.658 0 00-1.664-1.7 1.435 1.435 0 00-.352.032c-.9.16-1.856.32-2.816.48.352-1.28.672-2.56.928-3.776a1.825 1.825 0 00.032-.416 1.589 1.589 0 00-1.732-1.564 1.671 1.671 0 00-1.728 1.376c-.316 1.6-.764 3.232-1.244 4.864zm14.208-.384a2.174 2.174 0 00-.608-.1 1.81 1.81 0 00-1.824 1.76 1.546 1.546 0 001.152 1.44 31.269 31.269 0 014.576 2.208 1.852 1.852 0 00.96.288 1.764 1.764 0 001.7-1.76 1.986 1.986 0 00-1.06-1.664 20.26 20.26 0 00-4.896-2.172zm27.424-4.64a61.8 61.8 0 01-7.1 9.216 4.586 4.586 0 00-1.5 3.328 5.429 5.429 0 001.7 3.552 83.72 83.72 0 017.572 9.984 2.1 2.1 0 001.792 1.056 1.955 1.955 0 002.016-1.856 2.455 2.455 0 00-.48-1.312 96.721 96.721 0 00-8.128-9.956 2.209 2.209 0 01-.768-1.5 1.87 1.87 0 01.672-1.408 83.04 83.04 0 007.264-9.024 2.233 2.233 0 00.384-1.152 1.879 1.879 0 00-1.92-1.792 1.759 1.759 0 00-1.504.864zm34.94 6.144a12.9 12.9 0 00-5.248 9.984c0 4.928 3.392 8.448 8.128 9.632a16.7 16.7 0 002.368.32 1.85 1.85 0 001.892-1.888 1.864 1.864 0 00-1.728-1.888c-4.48-.544-6.944-2.72-6.944-6.272 0-3.04 1.056-6.368 6.048-9.216a10.953 10.953 0 013.52-1.28 1.728 1.728 0 001.472-1.724 1.654 1.654 0 00-1.728-1.7h-.192c-6.656.608-14.912 1.536-21.568 2.368a1.74 1.74 0 00-1.664 1.76 1.773 1.773 0 001.792 1.824 1.2 1.2 0 00.32-.032c4.608-.672 9.7-1.44 13.536-1.952zm17.5 15.808a31.14 31.14 0 014.992 4.9 1.95 1.95 0 001.568.8 1.824 1.824 0 001.864-1.796 2.334 2.334 0 00-.576-1.472 25.611 25.611 0 00-5.728-5.056 2.281 2.281 0 00-1.12-.352 1.708 1.708 0 00-1.728 1.664 1.572 1.572 0 00.736 1.312zM8.576 100.504c.256-.928.512-1.856.7-2.752a1.557 1.557 0 00.032-.384 1.616 1.616 0 00-1.76-1.568 1.745 1.745 0 00-1.792 1.376 32.5 32.5 0 01-5.312 12.1 1.9 1.9 0 00-.448 1.184 1.727 1.727 0 001.76 1.6 1.9 1.9 0 001.536-.8 31.814 31.814 0 004.192-7.68h2.976c.768 0 1.056.128 1.056.672a1.2 1.2 0 01-.032.32 26.477 26.477 0 01-1.76 5.92 21.3 21.3 0 00-2.016-1.408 1.629 1.629 0 00-.832-.224 1.66 1.66 0 00-1.6 1.664 1.485 1.485 0 00.736 1.28c.672.448 1.408.96 2.24 1.632a27.825 27.825 0 01-6.464 7.744 1.868 1.868 0 00-.768 1.44 1.8 1.8 0 001.792 1.728 1.913 1.913 0 001.216-.448 31.273 31.273 0 0011.04-19.68 4.774 4.774 0 00.064-.672c0-1.824-1.248-3.04-3.488-3.04zm15.36-3.2a1.552 1.552 0 00-1.728-1.472 1.552 1.552 0 00-1.728 1.472v8.736c-.512-.512-.992-1.024-1.44-1.5a2.038 2.038 0 00-1.472-.736 1.634 1.634 0 00-1.664 1.568 1.8 1.8 0 00.48 1.12 34.1 34.1 0 004.1 3.9v13.596a1.552 1.552 0 001.728 1.472 1.552 1.552 0 001.724-1.472v-11a33.8 33.8 0 003.776 2.208 1.925 1.925 0 00.864.224 1.682 1.682 0 001.6-1.76 1.792 1.792 0 00-1.12-1.672 27.29 27.29 0 01-5.12-3.04zm38.048 3.776c0-2.176-1.184-3.072-4.128-3.072H49.92V96.28c0-.864-.864-1.312-1.728-1.312-.9 0-1.76.448-1.76 1.312v1.728h-7.744c-2.944 0-4.1.9-4.1 3.072v1.952a1.513 1.513 0 001.7 1.376 1.5 1.5 0 001.664-1.376v-1.5c0-.608.256-.864 1.12-.864h4.736a1.548 1.548 0 00-.672.608 11.406 11.406 0 01-6.944 4.928 1.386 1.386 0 00-1.12 1.344 1.467 1.467 0 001.44 1.5 1.244 1.244 0 00.48-.064c3.712-1.088 7.3-3.52 8.832-6.464a1.709 1.709 0 00.16-.64 1.308 1.308 0 00-.9-1.216h4.064v3.584c0 2.112.9 2.72 4.864 2.72 4 0 5.312-.832 5.568-3.264a1.824 1.824 0 00.7.128 1.513 1.513 0 001.7-1.376zm-9.7-.416h5.248c.832 0 1.056.224 1.056.832v.928a1.812 1.812 0 00-.576-.1 1.306 1.306 0 00-1.408 1.056c-.128.864-.512 1.152-2.592 1.152-1.536 0-1.728-.16-1.728-.8zm3.232 12.544c.448.448.864.864 1.28 1.312a1.718 1.718 0 001.248.608 1.642 1.642 0 001.6-1.568 1.724 1.724 0 00-.576-1.184 37.153 37.153 0 00-5.312-4.352 1.735 1.735 0 00-.992-.32 1.524 1.524 0 00-1.568 1.408 1.336 1.336 0 00.64 1.088 11.371 11.371 0 01.992.736c-2.528.192-5.088.384-7.68.512a40.22 40.22 0 002.144-3.3 1.779 1.779 0 00.256-.832 1.539 1.539 0 00-1.632-1.408 1.777 1.777 0 00-1.6 1.024 34.109 34.109 0 01-3.008 4.64c-1.344.032-2.688.064-4.032.064a1.386 1.386 0 00-1.5 1.408 1.454 1.454 0 001.568 1.472c5.412-.128 11.812-.508 18.176-1.308zm-14.432 8.48c0 2.528.832 3.136 7.136 3.136 6.272 0 7.68-1.056 7.968-4.288v-.16a1.544 1.544 0 00-1.7-1.472 1.484 1.484 0 00-1.6 1.28c-.16 1.6-.7 1.952-4.672 1.952-3.488 0-3.776-.16-3.776-.864v-3.936a1.481 1.481 0 00-1.664-1.376c-.864 0-1.7.448-1.7 1.376zm-4.608-4a16.388 16.388 0 01-1.792 3.136 1.635 1.635 0 00-.352.992 1.632 1.632 0 001.7 1.5 1.787 1.787 0 001.44-.736 18.424 18.424 0 002.016-3.68 2.018 2.018 0 00.16-.7 1.572 1.572 0 00-1.664-1.44 1.593 1.593 0 00-1.504.928zm22.816-.768a1.834 1.834 0 00-1.28-.512 1.632 1.632 0 00-1.7 1.472 1.535 1.535 0 00.448 1.056 31.245 31.245 0 012.3 2.784 1.665 1.665 0 001.344.736 1.724 1.724 0 001.728-1.632 1.72 1.72 0 00-.352-1.024 19.174 19.174 0 00-2.484-2.88zm-10.752-1.792a1.83 1.83 0 00-.864-.224 1.559 1.559 0 00-1.6 1.44 1.349 1.349 0 00.672 1.12c.608.416 1.344 1.024 1.888 1.472a1.711 1.711 0 001.056.416 1.551 1.551 0 001.536-1.5 1.607 1.607 0 00-.672-1.28 12.821 12.821 0 00-2.012-1.444zm25.664 5.184c2.464 0 4.352-.928 6.112-4.032a32.018 32.018 0 003.616-13.6c4.864.352 7.712 3.808 7.712 8 0 3.968-1.824 6.72-6.368 8.352a1.843 1.843 0 00-1.344 1.76 1.794 1.794 0 001.792 1.824 2.1 2.1 0 00.736-.128c5.5-1.76 8.928-6.016 8.928-11.808 0-6.368-4.512-11.264-12.32-11.264-8.8 0-14.848 5.984-14.848 13.28.004 4.992 2.724 7.616 5.988 7.616zm5.984-17.408a28.945 28.945 0 01-3.2 11.68c-.928 1.632-1.792 2.144-2.784 2.144-1.152 0-2.3-1.088-2.3-4.032a10.137 10.137 0 018.288-9.792zm37.6 12.992a22.882 22.882 0 003.268-4.832 1.7 1.7 0 00.192-.768 1.64 1.64 0 00-1.7-1.568 1.789 1.789 0 00-1.592 1.06 18.008 18.008 0 01-2.592 3.9 20.015 20.015 0 01-2.656-3.584 1.875 1.875 0 00-1.6-.96 1.636 1.636 0 00-1.7 1.536 1.9 1.9 0 00.256.864 23.753 23.753 0 003.36 4.48 28.627 28.627 0 01-10.88 5.472 1.536 1.536 0 00-1.216 1.5 1.664 1.664 0 001.632 1.664 2.47 2.47 0 00.48-.064 29.125 29.125 0 0012.384-6.336 32.218 32.218 0 0012.132 6.02 2.39 2.39 0 00.64.1 1.682 1.682 0 001.76-1.7 1.887 1.887 0 00-1.54-1.792 30.327 30.327 0 01-10.624-4.992zm-4.224-16.544H102.62a1.342 1.342 0 00-1.28 1.5 1.358 1.358 0 001.28 1.5h25.7a1.383 1.383 0 001.312-1.5 1.365 1.365 0 00-1.312-1.5h-11.264v-2.5c0-.928-.864-1.376-1.728-1.376-.9 0-1.76.448-1.76 1.376zm-5.056 4.608a22.73 22.73 0 01-5.056 4.9 1.776 1.776 0 00-.832 1.44 1.632 1.632 0 001.632 1.6 1.908 1.908 0 001.152-.384 30.294 30.294 0 005.856-5.632 1.645 1.645 0 00.416-1.056 1.729 1.729 0 00-1.792-1.536 1.651 1.651 0 00-1.372.668zm12.992-.352a1.908 1.908 0 00-1.024-.32 1.625 1.625 0 00-1.6 1.6 1.571 1.571 0 00.736 1.312 42.909 42.909 0 015.312 4.32 1.8 1.8 0 001.248.576 1.786 1.786 0 001.7-1.76 1.949 1.949 0 00-.672-1.44 36.365 36.365 0 00-5.696-4.288zm24.064 1.344a3.981 3.981 0 00-.384 1.824v6.144a1.355 1.355 0 001.5 1.248 1.338 1.338 0 001.5-1.248v-5.856c0-.608.192-.8.8-.8h1.472c-.1 1.92-.544 2.88-1.5 3.712a1.324 1.324 0 00-.48.992 1.168 1.168 0 001.152 1.152 1.483 1.483 0 00.96-.416c1.44-1.28 2.112-2.88 2.208-5.44h1.184v3.264c0 1.408.576 1.856 2.432 1.856 1.216 0 1.952-.192 2.368-.768v2.112a1.355 1.355 0 001.5 1.248 1.338 1.338 0 001.5-1.248v-5.952c0-2.144-.992-3.072-3.328-3.072h-3.136a18.689 18.689 0 001.056-1.7 2.97 2.97 0 00.448-1.5c0-1.184-.96-2.016-2.624-2.016h-2.576c.16-.256.288-.512.416-.768a1.7 1.7 0 00.192-.768 1.572 1.572 0 00-1.664-1.44 1.646 1.646 0 00-1.536.96 19.587 19.587 0 01-4.448 5.76 1.6 1.6 0 00-.672 1.248 1.532 1.532 0 001.568 1.472zm7.168-3.712c.288 0 .416.064.416.192a.511.511 0 01-.1.256 21.536 21.536 0 01-1.28 2.016h-3.136a7.6 7.6 0 00-1.248.1 25.784 25.784 0 002.368-2.56zm3.552 5.024h1.7c.608 0 .8.192.8.8v.832a1.022 1.022 0 00-.448-.1.911.911 0 00-.96.832c-.064.544-.256.7-.672.7-.32 0-.416-.064-.416-.32zm6.24 11.456a1.3 1.3 0 001.248-1.44 1.315 1.315 0 00-1.248-1.44h-7.808a13.174 13.174 0 00.16-1.44 1.458 1.458 0 00-1.6-1.344 1.423 1.423 0 00-1.536 1.28 11.359 11.359 0 01-.192 1.5h-7.1a1.294 1.294 0 00-1.216 1.44 1.311 1.311 0 001.216 1.44h5.952c-1.28 1.984-3.456 3.36-6.592 4.384a1.641 1.641 0 00-1.28 1.536 1.474 1.474 0 001.5 1.472 2.174 2.174 0 00.608-.1 15 15 0 008.224-5.6 15.2 15.2 0 008.996 5.352 2.47 2.47 0 00.48.064 1.677 1.677 0 001.632-1.728 1.417 1.417 0 00-1.28-1.472 12.868 12.868 0 01-7.648-3.9zm-21.368-15.332v-5.532a1.466 1.466 0 00-1.632-1.344c-.832 0-1.664.448-1.664 1.344v5.532h-2.208a1.39 1.39 0 00-1.28 1.536 1.39 1.39 0 001.28 1.536h2.204v6.08c-.9.288-1.792.576-2.592.8a1.564 1.564 0 00-1.184 1.536 1.557 1.557 0 001.536 1.632 1.5 1.5 0 00.512-.064c.544-.16 1.12-.32 1.728-.544v6.336c0 .448-.16.608-.608.608a3.417 3.417 0 01-.8-.1c-.1 0-.16-.032-.256-.032a1.523 1.523 0 00-1.472 1.632 1.507 1.507 0 001.28 1.568 10.079 10.079 0 001.792.16c2.3 0 3.36-1.056 3.36-3.168v-8.216q1.152-.48 2.3-1.056a1.448 1.448 0 00.864-1.312 1.579 1.579 0 00-1.5-1.568 1.348 1.348 0 00-.576.128c-.352.16-.7.288-1.088.448v-4.864h1.248a1.394 1.394 0 001.312-1.536 1.394 1.394 0 00-1.312-1.54zm41.344-4.672a1.2 1.2 0 00.032-.32 1.616 1.616 0 00-1.792-1.5 1.708 1.708 0 00-1.824 1.344l-.8 4.608a29.8 29.8 0 01-3.3-.512 1.558 1.558 0 00-.384-.032 1.66 1.66 0 00-1.632 1.728 1.635 1.635 0 001.376 1.6 23.291 23.291 0 003.36.512c-.256 1.5-.48 2.976-.672 4.48a26.141 26.141 0 01-3.392-.608 1.772 1.772 0 00-.576-.064 1.667 1.667 0 00-1.632 1.76 1.743 1.743 0 001.344 1.728 25.844 25.844 0 003.84.64 30.6 30.6 0 00-.16 3.232c0 5.472 2.976 8.032 7.968 8.032 5.376 0 9.088-2.656 9.088-8.128a9.6 9.6 0 00-.48-2.944 1.888 1.888 0 00-1.888-1.376 1.672 1.672 0 00-1.82 1.536 2.47 2.47 0 00.064.48 8.716 8.716 0 01.384 2.368c0 3.168-1.888 4.416-5.408 4.416-2.816 0-4.256-1.184-4.256-4.64 0-.768.032-1.664.128-2.784h.9a29.971 29.971 0 005.568-.512 1.639 1.639 0 001.376-1.7 1.617 1.617 0 00-1.568-1.7 1.089 1.089 0 00-.32.032 30.68 30.68 0 01-5.024.416h-.512c.224-1.5.48-2.976.672-4.48h.9a33.659 33.659 0 003.552-.16 1.523 1.523 0 001.376-1.632 1.554 1.554 0 00-1.536-1.7h-.16c-.992.1-2.048.16-3.3.16h-.236zm24.832 4h-4.128a1.4 1.4 0 00-1.316 1.572 1.422 1.422 0 001.312 1.568h7.168a27.578 27.578 0 01-1.056 6.016 39.5 39.5 0 00-2.72-2.944 2.041 2.041 0 00-1.376-.608 1.7 1.7 0 00-1.728 1.6 1.724 1.724 0 00.576 1.248c1.184 1.216 2.528 2.752 3.808 4.352a20.986 20.986 0 01-5.5 7.04 1.918 1.918 0 00-.8 1.472 1.634 1.634 0 001.664 1.568 1.853 1.853 0 001.216-.448 23.827 23.827 0 005.6-6.752c.7.992 1.344 1.952 1.856 2.816a1.837 1.837 0 001.568.992 1.686 1.686 0 001.7-1.7 2.347 2.347 0 00-.384-1.216c-.832-1.344-1.92-2.88-3.072-4.416a30.08 30.08 0 002.036-9.02h1.184a1.426 1.426 0 001.348-1.568 1.409 1.409 0 00-1.344-1.568h-4.16v-4.416a1.549 1.549 0 00-1.728-1.44 1.549 1.549 0 00-1.728 1.44zm16.512 2.72h-6.372a1.39 1.39 0 00-1.28 1.536 1.4 1.4 0 001.28 1.568h6.368v12.74c0 .96-.224 1.216-1.024 1.216a8.29 8.29 0 01-1.312-.128 1.558 1.558 0 00-.384-.032 1.652 1.652 0 00-1.7 1.728 1.562 1.562 0 001.248 1.6 11.482 11.482 0 002.5.224c3.072 0 4.064-1.376 4.064-4.064v-13.28h2.816a1.4 1.4 0 001.308-1.568 1.394 1.394 0 00-1.312-1.536h-2.812v-7.2a1.525 1.525 0 00-1.7-1.472 1.541 1.541 0 00-1.7 1.472zm-4.228 6.052a1.9 1.9 0 00-1.472-.7 1.644 1.644 0 00-1.728 1.5 1.777 1.777 0 00.384 1.024 25.527 25.527 0 011.824 2.752 1.667 1.667 0 001.5.96 1.741 1.741 0 001.76-1.7 2.167 2.167 0 00-.288-1.024 15.145 15.145 0 00-1.98-2.812zm37.7-1.28c2.048 0 3.648-.384 3.648-2.752v-1.824c0-1.888-.992-2.752-3.648-2.752h-4.64c.192-.288.352-.576.544-.9a2.491 2.491 0 00.448-1.376c0-1.088-1.056-1.856-2.912-1.856h-4.452l.48-.576a1.287 1.287 0 00.32-.8 1.706 1.706 0 00-1.792-1.472 1.773 1.773 0 00-1.376.7 28.315 28.315 0 01-7.68 7.016 1.6 1.6 0 00-.928 1.408 1.557 1.557 0 001.536 1.536 1.852 1.852 0 00.96-.288 22.94 22.94 0 001.6-1.056 1.825 1.825 0 00-.032.416v1.824c0 1.888.992 2.752 3.648 2.752h3.36a32.969 32.969 0 01-8.832 3.2 1.342 1.342 0 00-1.184 1.312 1.371 1.371 0 001.408 1.376 2.51 2.51 0 00.448-.064 38.51 38.51 0 008.544-3.2 8.816 8.816 0 01.96.928 39.413 39.413 0 01-10.588 4.228 1.394 1.394 0 00-1.152 1.344 1.353 1.353 0 001.408 1.376 2.47 2.47 0 00.48-.064 44.235 44.235 0 0011.456-4.864 8.624 8.624 0 01.608 1.208 42.216 42.216 0 01-13.152 5.7 1.379 1.379 0 00-1.12 1.376 1.364 1.364 0 001.372 1.376 1.5 1.5 0 00.512-.064 41.554 41.554 0 0013.12-5.728c.032.32.064.672.064.992 0 2.176-.48 2.752-1.312 2.752a7.173 7.173 0 01-1.664-.192 1.435 1.435 0 00-.352-.032 1.511 1.511 0 00-.192 3.008 13.528 13.528 0 002.368.224c2.752 0 4.288-1.568 4.288-5.76a11.76 11.76 0 00-4.7-9.184l1.824-1.248h.928a26.7 26.7 0 009.816 13.568 2.086 2.086 0 001.216.384 1.6 1.6 0 001.6-1.6 1.77 1.77 0 00-.928-1.5 21.113 21.113 0 01-5.472-4.96 32.391 32.391 0 004.352-2.944 1.537 1.537 0 00.608-1.152 1.585 1.585 0 00-2.688-1.088 25.588 25.588 0 01-3.84 2.88 21.564 21.564 0 01-1.7-3.584zm-5.92-2.5v-2.332h5.376c.768 0 .928.16.928.672v.992c0 .64-.384.672-.928.672zm-2.02-6.46c.288 0 .416.064.416.224a.674.674 0 01-.128.352 6.73 6.73 0 01-.7 1.056h-5.92a5.424 5.424 0 00-.736.032 43.236 43.236 0 001.76-1.664zm-1.184 4.128v2.336h-4.608c-.768 0-.928-.16-.928-.672v-.992c0-.512.16-.672.928-.672zm24.928-4.864a72.138 72.138 0 00-1.5 14.784 69.712 69.712 0 00.544 7.9 1.769 1.769 0 001.852 1.572 1.742 1.742 0 001.856-1.7c0-.064-.032-.16-.032-.256a66.918 66.918 0 01-.576-7.52 66.854 66.854 0 011.472-14.14 1.435 1.435 0 00.032-.352 1.692 1.692 0 00-1.856-1.632 1.718 1.718 0 00-1.792 1.344zm19.392 1.476a77.76 77.76 0 01-8.8.7 1.73 1.73 0 10.128 3.456 81.21 81.21 0 009.024-.7 1.755 1.755 0 001.632-1.76 1.654 1.654 0 00-1.728-1.7zm-8.356 14.14a1.563 1.563 0 00-1.632-1.376 1.781 1.781 0 00-1.856 1.792v.16c.352 3.872 2.816 5.664 8.736 5.664a27.959 27.959 0 005.536-.544 1.661 1.661 0 001.408-1.7 1.706 1.706 0 00-1.7-1.792 1.558 1.558 0 00-.384.032 26.272 26.272 0 01-4.832.48c-3.992.004-4.984-.732-5.276-2.716zm38.56 4.16a19.841 19.841 0 013.648 2.048 2.04 2.04 0 001.088.384 1.763 1.763 0 001.7-1.76 1.8 1.8 0 00-.864-1.5 22.266 22.266 0 00-6.016-2.784 24.332 24.332 0 01-.448-4.16 18.542 18.542 0 01.224-2.624c0-.1.032-.16.032-.256a1.613 1.613 0 00-1.792-1.472 1.561 1.561 0 00-1.664 1.28 17.376 17.376 0 00-.224 3.1 23.286 23.286 0 00.32 3.392 14.258 14.258 0 00-1.6-.1c-4.1 0-6.272 2.112-6.272 4.672 0 2.976 2.3 4.64 6.112 4.64 3.072.004 5.696-1.276 5.76-4.86zm-5.76 1.7c-2.08 0-2.72-.544-2.72-1.472 0-.864.7-1.568 2.944-1.568a11.279 11.279 0 012.016.192 6.426 6.426 0 01.032.8c.004 1.404-.796 2.048-2.272 2.048zm-6.972-18.788c-1.632.16-3.232.256-4.672.32a1.562 1.562 0 00-1.536 1.668 1.637 1.637 0 001.664 1.76c.992-.032 2.144-.1 3.328-.224a49.036 49.036 0 01-4.32 8.7 1.993 1.993 0 00-.352 1.12 1.75 1.75 0 001.792 1.7 2.115 2.115 0 001.792-1.156 58.8 58.8 0 004.928-10.784 73.218 73.218 0 004.512-.768 1.672 1.672 0 00-.224-3.328 1.435 1.435 0 00-.352.032c-.9.16-1.856.32-2.816.48.352-1.28.672-2.56.928-3.776a1.824 1.824 0 00.032-.416 1.589 1.589 0 00-1.732-1.568 1.671 1.671 0 00-1.728 1.376c-.316 1.6-.764 3.232-1.244 4.864zm14.208-.384a2.174 2.174 0 00-.608-.1 1.81 1.81 0 00-1.824 1.76 1.546 1.546 0 001.152 1.44 31.269 31.269 0 014.576 2.208 1.852 1.852 0 00.96.288 1.764 1.764 0 001.7-1.76 1.986 1.986 0 00-1.056-1.664 20.26 20.26 0 00-4.9-2.172zm24.864 6.372a70.422 70.422 0 006.432-7.232 2.541 2.541 0 00.576-1.5 2.077 2.077 0 00-2.208-2.016 2.113 2.113 0 00-.448.032c-3.072.48-6.464.9-9.056 1.024a1.6 1.6 0 00-1.568 1.664 1.632 1.632 0 001.6 1.728c.416 0 1.248-.1 1.376-.1 1.6-.128 3.68-.352 5.248-.608a72.01 72.01 0 01-10.816 10.808 1.883 1.883 0 00-.8 1.5 1.8 1.8 0 001.792 1.76 2.217 2.217 0 001.344-.512c3.936-3.04 7.072-4.16 10.3-4.16 3.072 0 4.864 1.824 4.864 4.1a5.485 5.485 0 01-3.1 5.216c-.928-3.2-3.072-5.248-6.144-5.248-2.848 0-4.448 1.7-4.448 4.1 0 2.848 2.784 5.088 7.168 5.088 6.24 0 10.272-3.584 10.272-9.184 0-4.448-3.264-7.168-8.256-7.168a11.056 11.056 0 00-4.064.8zm1.92 12.448c-2.528 0-3.744-.832-3.744-1.888a1.172 1.172 0 011.152-1.248c1.344 0 2.3 1.088 2.848 3.136zm25.632-.32c2.464 0 4.352-.928 6.112-4.032a32.018 32.018 0 003.616-13.6c4.864.352 7.712 3.808 7.712 8 0 3.968-1.824 6.72-6.368 8.352a1.843 1.843 0 00-1.344 1.76 1.794 1.794 0 001.792 1.824 2.1 2.1 0 00.736-.128c5.5-1.76 8.928-6.016 8.928-11.808 0-6.368-4.512-11.264-12.32-11.264-8.8 0-14.848 5.984-14.848 13.28 0 4.988 2.72 7.612 5.984 7.612zm5.984-17.408a28.945 28.945 0 01-3.2 11.68c-.928 1.632-1.792 2.144-2.784 2.144-1.152 0-2.3-1.088-2.3-4.032a10.137 10.137 0 018.284-9.796zm36.608 11.008c0-1.5.512-2.5 2.848-4.128 2.656-1.888 3.584-3.52 3.584-6.272 0-3.936-3.072-6.336-7.52-6.336a9.193 9.193 0 00-7.584 3.744 2.027 2.027 0 00-.448 1.184 1.81 1.81 0 001.888 1.6 1.477 1.477 0 001.248-.64 5.606 5.606 0 014.864-2.816c2.272 0 3.744 1.152 3.744 3.3 0 1.664-.512 2.688-2.56 4.256-2.592 1.984-3.2 3.488-3.2 6.016v.7a1.445 1.445 0 001.568 1.5 1.413 1.413 0 001.568-1.5zm-1.5 4.192a2.384 2.384 0 00-2.432 2.4 2.433 2.433 0 004.864 0 2.384 2.384 0 00-2.436-2.404z" fill="#3b3938"/><path data-name="パス 331754" d="M219.9 23.976a15.633 15.633 0 002.988-9.864c0-9.18-5.4-14.112-11.988-14.112-6.552 0-11.988 4.932-11.988 14.112 0 9.216 5.436 14.184 11.988 14.184a11.507 11.507 0 006.12-1.692l2.664 2.988a2.167 2.167 0 001.62.828 2.03 2.03 0 002.052-1.944 2.181 2.181 0 00-.648-1.476zm-5.58-6.192a2.219 2.219 0 00-1.512-.864 2.083 2.083 0 00-2.16 1.944 2.016 2.016 0 00.54 1.368l3.2 3.456a6.9 6.9 0 01-3.492.9c-4.68 0-7.452-4.032-7.452-10.476 0-6.408 2.772-10.4 7.452-10.4s7.452 4 7.452 10.4a14.407 14.407 0 01-1.368 6.66zm16.992 4.752a2.759 2.759 0 00-2.808 2.772 2.729 2.729 0 002.808 2.736 2.729 2.729 0 002.808-2.736 2.759 2.759 0 00-2.808-2.772z" fill="#eb5e00"/></g></svg>