<svg xmlns="http://www.w3.org/2000/svg" width="495.337" height="121.721"><g data-name="グループ 18908"><g data-name="グループ 18106"><g data-name="グループ 17935" fill="none" stroke="#2e3032" stroke-linecap="round" stroke-width="2"><path data-name="パス 48619" d="M74.833 120.344L1.377 1.375"/><path data-name="パス 48620" d="M420.498 120.344L493.961 1.375"/></g></g><path data-name="パス 331759" d="M192.603 10.546a58.612 58.612 0 00-1.22 12.012 56.641 56.641 0 00.442 6.422 1.437 1.437 0 001.508 1.274 1.415 1.415 0 001.508-1.378c0-.052-.026-.13-.026-.208a54.371 54.371 0 01-.468-6.11 54.319 54.319 0 011.2-11.492 1.166 1.166 0 00.026-.286 1.375 1.375 0 00-1.508-1.326 1.4 1.4 0 00-1.462 1.092zm15.756 1.2a63.18 63.18 0 01-7.15.572 1.377 1.377 0 00-1.4 1.4 1.366 1.366 0 001.508 1.4 65.983 65.983 0 007.332-.572 1.426 1.426 0 001.326-1.43 1.344 1.344 0 00-1.4-1.378zm-6.784 11.488a1.27 1.27 0 00-1.326-1.12 1.447 1.447 0 00-1.508 1.456v.13c.286 3.146 2.288 4.6 7.1 4.6a22.717 22.717 0 004.5-.442 1.349 1.349 0 001.14-1.374 1.386 1.386 0 00-1.378-1.456 1.266 1.266 0 00-.312.026 21.346 21.346 0 01-3.926.39c-3.25 0-4.056-.598-4.29-2.21zm29.51-5.564c0 5.2-1.716 8.346-6.058 10.478a1.534 1.534 0 00-.962 1.352 1.553 1.553 0 001.538 1.534 1.945 1.945 0 00.78-.208c5.014-2.392 7.82-6.37 7.82-12.948v-7.722a1.4 1.4 0 00-1.534-1.326 1.416 1.416 0 00-1.586 1.326zm-6.864-7.072a1.43 1.43 0 00-1.56-1.378 1.43 1.43 0 00-1.56 1.378v10.216a1.426 1.426 0 001.56 1.352 1.426 1.426 0 001.56-1.352zm22.282.468a1.363 1.363 0 00-1.378 1.43 1.479 1.479 0 001.508 1.534l12.532-.156c.754 0 1.092.182 1.092.676a2.1 2.1 0 01-.078.52c-1.352 4.654-4.602 8.814-10.348 11.804a1.551 1.551 0 00-.91 1.378 1.514 1.514 0 001.508 1.534 1.881 1.881 0 00.858-.208 22.02 22.02 0 0012.09-14.456 6.386 6.386 0 00.182-1.482c0-1.742-1.066-2.73-3.8-2.7zm33.956 8.294a23.655 23.655 0 01-7.722 6.734 1.274 1.274 0 00-.754 1.144 1.27 1.27 0 001.248 1.276 1.392 1.392 0 00.672-.184 26.976 26.976 0 008.06-6.994v4.186l.026 1.82v.1c0 .572-.208.7-.7.7-.416 0-.806-.078-1.222-.078a1.181 1.181 0 00-1.164 1.25 1.208 1.208 0 001.118 1.222 12.869 12.869 0 001.716.13 2.581 2.581 0 002.808-2.834v-.13l-.182-8.346h4.26a1.105 1.105 0 001.092-1.2 1.1 1.1 0 00-1.092-1.17h-4.32l-.078-3.51a1.151 1.151 0 00-1.274-1.04c-.676 0-1.352.39-1.326 1.092l.1 3.458h-7.714a1.093 1.093 0 00-1.066 1.17 1.1 1.1 0 001.066 1.2zm17.654-1.378a1.383 1.383 0 00-1.4 1.482 1.4 1.4 0 001.4 1.482h18.98a1.4 1.4 0 001.4-1.482 1.383 1.383 0 00-1.4-1.482zm32.448 7.488a121.507 121.507 0 004.81-14.716 2.307 2.307 0 00.052-.39 1.533 1.533 0 00-1.664-1.43 1.476 1.476 0 00-1.534 1.118 130.4 130.4 0 01-5.044 15.7c-.754.052-1.482.078-2.21.13a1.4 1.4 0 00-1.352 1.482 1.383 1.383 0 001.4 1.482c.182 0 .754-.052 1.17-.078a124.726 124.726 0 0014.824-1.972c.364.7.728 1.352 1.014 2a1.481 1.481 0 001.352.91 1.586 1.586 0 001.612-1.534 1.874 1.874 0 00-.182-.78 41.27 41.27 0 00-5.226-8.084 1.714 1.714 0 00-1.326-.65 1.418 1.418 0 00-1.482 1.3 1.515 1.515 0 00.338.884 37.275 37.275 0 012.47 3.51c-2.99.468-6.006.832-9.022 1.118zm31.694-11.83a10.483 10.483 0 00-4.264 8.112c0 3.874 2.626 7.1 7.358 7.982a8.18 8.18 0 001.17.1 1.457 1.457 0 001.534-1.53 1.514 1.514 0 00-1.4-1.534c-3.64-.442-5.642-2.21-5.642-5.1 0-2.47.858-5.174 4.914-7.488a8.9 8.9 0 012.86-1.04 1.4 1.4 0 001.2-1.4 1.344 1.344 0 00-1.4-1.378h-.156c-5.408.494-12.116 1.248-17.524 1.924a1.413 1.413 0 00-1.352 1.43 1.44 1.44 0 001.456 1.482.975.975 0 00.26-.026c3.744-.546 7.878-1.17 11-1.586zm4.082 4.732a18.912 18.912 0 011.924 2.21 1.042 1.042 0 00.858.494 1.06 1.06 0 001.04-1.04 1.086 1.086 0 00-.234-.7 12.99 12.99 0 00-2.028-2.262 1.084 1.084 0 00-.728-.286 1.083 1.083 0 00-1.092.988.924.924 0 00.26.596zm2.6-2.054c.6.624 1.326 1.4 1.924 2.158a1.131 1.131 0 00.91.468 1.016 1.016 0 001.04-.988 1.21 1.21 0 00-.286-.78 13.037 13.037 0 00-2-2.132 1.249 1.249 0 00-.78-.312 1.044 1.044 0 00-1.092.962.859.859 0 00.284.62zm21.476 5.72a13.309 13.309 0 00-3.536-.416c-4.836 0-7.072 1.82-7.072 4.5 0 3.016 2.444 4.732 7.93 4.732a26.626 26.626 0 002.782-.13 1.336 1.336 0 001.3-1.326 1.281 1.281 0 00-1.378-1.326c-.1 0-.338.026-.494.026-.78.052-1.17.078-2.236.078-3.8 0-4.914-.858-4.914-2.106 0-1.092.91-2.028 4.108-2.028a16.364 16.364 0 015.642 1.014 2.213 2.213 0 00.676.13 1.383 1.383 0 001.43-1.378 1.6 1.6 0 00-.39-1.066 32.573 32.573 0 01-3.016-4.212 42.281 42.281 0 004.524-1.144 1.23 1.23 0 00.962-1.17 1.376 1.376 0 00-1.326-1.378 1.293 1.293 0 00-.416.078 49.155 49.155 0 01-5.018 1.222 41.28 41.28 0 01-1.04-2.47c1.69-.338 3.25-.728 4.55-1.118a1.135 1.135 0 00.884-1.118 1.325 1.325 0 00-1.3-1.326 1.472 1.472 0 00-.468.078 39.3 39.3 0 01-4.5 1.04c-.26-.884-.52-1.794-.754-2.678a1.288 1.288 0 00-1.352-.962 1.28 1.28 0 00-1.43 1.144 1.522 1.522 0 00.052.338c.208.858.468 1.742.754 2.626-1.69.26-3.38.442-4.784.52a1.154 1.154 0 00-1.118 1.248 1.245 1.245 0 001.222 1.326c.208 0 .442-.026.52-.026a50.189 50.189 0 005.044-.624c.312.832.676 1.664 1.066 2.5-2.314.338-4.68.624-6.942.728a1.206 1.206 0 00-1.2 1.274 1.263 1.263 0 001.248 1.326c.13 0 .6-.026.962-.052 1.976-.156 4.55-.416 7.124-.858a48.777 48.777 0 001.924 2.938zm22.49-4.446a57.217 57.217 0 005.226-5.876 2.065 2.065 0 00.468-1.222 1.688 1.688 0 00-1.794-1.638 1.716 1.716 0 00-.364.026c-2.5.39-5.252.728-7.358.832a1.3 1.3 0 00-1.274 1.352 1.326 1.326 0 001.3 1.4c.338 0 1.014-.078 1.118-.078 1.3-.1 2.99-.286 4.264-.494a58.509 58.509 0 01-8.786 8.792 1.53 1.53 0 00-.65 1.222 1.465 1.465 0 001.456 1.43 1.8 1.8 0 001.092-.416c3.2-2.47 5.746-3.38 8.372-3.38 2.5 0 3.952 1.482 3.952 3.328a4.456 4.456 0 01-2.522 4.238c-.754-2.6-2.5-4.264-4.992-4.264-2.314 0-3.614 1.378-3.614 3.328 0 2.314 2.262 4.134 5.824 4.134 5.07 0 8.346-2.912 8.346-7.462 0-3.614-2.652-5.824-6.708-5.824a8.983 8.983 0 00-3.3.65zm1.56 10.114c-2.054 0-3.042-.676-3.042-1.534a.952.952 0 01.936-1.014c1.092 0 1.872.884 2.314 2.548zM180.495 58.89a37.02 37.02 0 001.924-2.886 72.686 72.686 0 005.512-.754 1.3 1.3 0 001.144-1.3 1.214 1.214 0 00-1.248-1.248 1.266 1.266 0 00-.312.026 44.13 44.13 0 01-3.77.52 21.1 21.1 0 00.78-2.054 1.011 1.011 0 00.052-.39 1.321 1.321 0 00-1.43-1.2 1.323 1.323 0 00-1.326.936 36.21 36.21 0 01-1.144 3.016c-1.508.1-2.964.182-4.186.182a1.325 1.325 0 00-1.43 1.326 1.331 1.331 0 001.43 1.352c.858-.026 1.794-.052 2.808-.13a24.48 24.48 0 01-4.394 5.07 1.518 1.518 0 00-.6 1.144 1.428 1.428 0 001.4 1.378 1.536 1.536 0 00.936-.338c2.47-1.976 4.368-2.678 5.33-2.678a1.59 1.59 0 011.82 1.17c-4.628 2.314-5.85 4.316-5.85 6.4 0 2.548 2.08 4.186 6.994 4.186a30.49 30.49 0 005.33-.416 1.434 1.434 0 001.3-1.4 1.386 1.386 0 00-1.4-1.43 1.166 1.166 0 00-.286.026 30.529 30.529 0 01-5.044.442c-2.99 0-3.926-.6-3.926-1.612 0-.962.624-2.132 3.328-3.51.052.7.1 1.534.13 2.522a1.266 1.266 0 001.378 1.2 1.359 1.359 0 001.482-1.352c-.052-1.352-.1-2.5-.234-3.458 2.184-.884 4.5-1.664 6.76-2.34a1.352 1.352 0 001.04-1.326 1.352 1.352 0 00-1.352-1.4 1.942 1.942 0 00-.52.078 67.755 67.755 0 00-6.5 2.34 3.32 3.32 0 00-3.64-2.47 6.227 6.227 0 00-2.236.442zm31.824-4.94q.078-1.287.078-2.73a1.339 1.339 0 00-1.482-1.248 1.349 1.349 0 00-1.512 1.248c0 6.864-1.222 10.79-3.458 13.832a18.938 18.938 0 01-5.8 5.018 1.427 1.427 0 00-.78 1.274 1.4 1.4 0 001.378 1.43 1.8 1.8 0 00.91-.26 22.188 22.188 0 006.526-5.746 18.815 18.815 0 003.172-6.76 21.145 21.145 0 009.464 12.272 1.53 1.53 0 00.78.208 1.548 1.548 0 001.508-1.534 1.534 1.534 0 00-.884-1.352c-5.948-3.38-8.704-9.074-9.9-15.652zm25.22 12.584a21.7 21.7 0 002.08-2.6 1.537 1.537 0 00.26-.806 1.361 1.361 0 00-1.4-1.3 1.412 1.412 0 00-1.17.624 24.528 24.528 0 01-2.158 2.626 37.275 37.275 0 00-3.666-1.846 1.934 1.934 0 00-.728-.156 1.332 1.332 0 00-1.352 1.3 1.244 1.244 0 00.78 1.118c.884.416 1.872.962 2.86 1.534a24.6 24.6 0 01-5.2 3.328 1.455 1.455 0 00-.936 1.3 1.348 1.348 0 001.326 1.326 1.584 1.584 0 00.728-.182 29.679 29.679 0 006.526-4.264 50.234 50.234 0 013.536 2.47 1.593 1.593 0 00.936.338 1.415 1.415 0 001.374-1.43 1.537 1.537 0 00-.676-1.248 57.702 57.702 0 00-3.12-2.132zm-4.342-14.976c.156-.26.312-.546.442-.806a1.226 1.226 0 00.156-.624 1.265 1.265 0 00-1.378-1.114 1.448 1.448 0 00-1.326.78 23.139 23.139 0 01-4.342 5.876 1.487 1.487 0 00-.494 1.014 1.328 1.328 0 001.348 1.27 1.619 1.619 0 001.118-.468 24.446 24.446 0 002.964-3.536h15.6c.65 0 .962-.6.962-1.2s-.312-1.2-.962-1.2zm11 5.824a1.161 1.161 0 000-2.288h-11.594a1.039 1.039 0 00-.962 1.144 1.039 1.039 0 00.962 1.144zm-15.6 1.17c-.65 0-.962.6-.962 1.222 0 .6.312 1.222.962 1.222h13.492c.936 0 1.144.208 1.144.858a28.188 28.188 0 001.2 7.748c.858 2.626 1.95 3.484 3.51 3.484a2.313 2.313 0 002.158-1.56 8.659 8.659 0 00.6-2.808 1.152 1.152 0 00-1.248-1.092 1.045 1.045 0 00-1.118.988c-.078 1.222-.26 1.508-.468 1.508-.182 0-.39-.182-.806-1.456a29.445 29.445 0 01-1.04-7.332c-.052-1.95-.884-2.782-3.276-2.782zm46.382 7.982a1.072 1.072 0 001.04-1.17 1.059 1.059 0 00-1.04-1.17h-9.542c.078-.546.156-1.092.208-1.638h6.136a1.161 1.161 0 000-2.288h-5.978c0-.52.026-1.04.026-1.56h6.942a1.156 1.156 0 000-2.288h-6.944v-1.066c0-.728-.676-1.066-1.378-1.066-.676 0-1.378.338-1.378 1.066v1.066h-6.214a1.161 1.161 0 000 2.288h6.214v.78c0 .26 0 .52-.026.78h-5.148a1.161 1.161 0 000 2.288h4.992q-.078.819-.234 1.638h-8.424a1.074 1.074 0 00-1.04 1.17 1.089 1.089 0 001.04 1.17h7.54a6.17 6.17 0 01-1.068 1.274 13.234 13.234 0 01-6.448 3.094 1.235 1.235 0 00-1.092 1.222 1.194 1.194 0 001.248 1.222 1.266 1.266 0 00.312-.026 16.438 16.438 0 007.852-3.718 8.377 8.377 0 001.534-1.794 17.177 17.177 0 0010.324 5.278 1.067 1.067 0 00.286.026 1.27 1.27 0 001.3-1.3 1.42 1.42 0 00-1.326-1.4 15.34 15.34 0 01-8.554-3.874zm-11.882-14.976h-6.552c-2.366 0-3.2.832-3.2 2.5v1.534c0 .7.728 1.066 1.43 1.066.728 0 1.43-.364 1.43-1.066v-1.07c0-.468.208-.676.858-.676h15.03c.624 0 .832.208.832.676v.992c0 .7.728 1.066 1.43 1.066.728 0 1.43-.364 1.43-1.066v-1.512c0-1.664-.806-2.444-3.172-2.444h-6.682v-1.482c0-.728-.7-1.066-1.4-1.066-.728 0-1.43.338-1.43 1.066zm32.6 7.592v-1.378h2.7a1.112 1.112 0 000-2.21h-7.54a1.116 1.116 0 000 2.21h2.296v1.378h-2.21c-2.5 0-3.224.754-3.224 2.626v3.718c0 1.872.754 2.626 3.25 2.626h7.072c2.054 0 3.25-.312 3.25-2.6v-3.77c0-1.872-.728-2.6-3.224-2.6zm-2.544 5.434v1.456h-2c-.494 0-.832 0-.832-.6v-.856zm2.548 0h2.99v.858c0 .494-.156.6-.832.6h-2.156zm0-3.354h2.158c.676 0 .832.1.832.6v.832h-2.988zm-2.548 0v1.43h-2.834v-.832c0-.494.156-.6.832-.6zm2.65-9.334v-1.4a1.232 1.232 0 00-1.378-1.144 1.246 1.246 0 00-1.378 1.144v1.4h-3.664c-2.184 0-2.782.832-2.782 2.392v1.456a1.376 1.376 0 002.7 0v-.988c0-.494.13-.572.728-.572h9.23c.6 0 .728.078.728.572v.858a1.376 1.376 0 002.7 0v-1.3c0-1.56-.572-2.418-2.782-2.418zM283.039 64.22a30.048 30.048 0 01-2.912 6.448 1.6 1.6 0 00-.286.832 1.375 1.375 0 001.456 1.3 1.624 1.624 0 001.4-.806 31.615 31.615 0 003.094-6.942 1.293 1.293 0 00.078-.416 1.431 1.431 0 00-1.53-1.322 1.29 1.29 0 00-1.3.906zm.286-14.118a1.6 1.6 0 00-.91-.312 1.409 1.409 0 00-1.456 1.274 1.289 1.289 0 00.52.962c.6.494 1.378 1.274 2.054 1.95a1.271 1.271 0 001.014.494 1.409 1.409 0 001.4-1.378 1.626 1.626 0 00-.442-1.04 15.777 15.777 0 00-2.18-1.95zm-1.822 6.212a1.62 1.62 0 00-.91-.286 1.419 1.419 0 00-1.482 1.3 1.253 1.253 0 00.546.988 21.181 21.181 0 012.158 2 1.33 1.33 0 00.988.442 1.46 1.46 0 001.456-1.4 1.626 1.626 0 00-.442-1.04 15.41 15.41 0 00-2.314-2.004zm16.226 12.326a1.427 1.427 0 00-.806-.234 1.356 1.356 0 00-1.378 1.3 1.268 1.268 0 00.6 1.04 18.947 18.947 0 004.394 2.262 1.358 1.358 0 00.546.1 1.386 1.386 0 001.352-1.4 1.365 1.365 0 00-.988-1.3 21.662 21.662 0 01-3.72-1.768zm-7.126.074a18.741 18.741 0 01-3.9 2.08 1.233 1.233 0 00-.884 1.17 1.344 1.344 0 001.274 1.352 1.322 1.322 0 00.52-.1 22.629 22.629 0 004.576-2.444 1.361 1.361 0 00.65-1.118 1.318 1.318 0 00-1.326-1.248 1.48 1.48 0 00-.91.308zm28.966-12.06v-2.808c0-.624.182-.832.858-.832h7.982c.728 0 1.066-.65 1.066-1.3s-.338-1.3-1.066-1.3h-8.4c-2.288 0-3.172.78-3.172 2.886v4.5c0 5.8-.624 9.386-1.924 12.22a1.284 1.284 0 00-.13-.416 11.524 11.524 0 00-1.118-1.794 1.407 1.407 0 00-1.142-.596 1.171 1.171 0 00-1.248 1.092 1.406 1.406 0 00.234.728c.286.468.624 1.118.884 1.664a1.279 1.279 0 001.2.806 1.294 1.294 0 00.754-.234 1.251 1.251 0 001.3 1.508 1.545 1.545 0 001.352-.832c1.612-2.964 2.47-6.89 2.574-12.9h.754a25.494 25.494 0 002.392 7.7 16.877 16.877 0 01-4.216 4.052 1.286 1.286 0 00.6 2.416 1.471 1.471 0 00.806-.26 19.4 19.4 0 004.264-3.848 16.3 16.3 0 003.43 3.508 1.675 1.675 0 001.014.364 1.465 1.465 0 001.43-1.456 1.619 1.619 0 00-.754-1.3 14.669 14.669 0 01-3.458-3.484 21.394 21.394 0 002.678-7.02 5.791 5.791 0 00.1-.884c0-1.586-1.118-2.184-3.094-2.184zm5.668 2.392c.468 0 .624.078.624.364a1.789 1.789 0 01-.052.338 16.655 16.655 0 01-1.482 4.366 20.329 20.329 0 01-1.508-5.07zm-13.312 7.774c1.872 0 2.7-.7 2.7-2.626V52.832c0-1.794-.728-2.626-2.7-2.626h-2.236c-1.976 0-2.7.832-2.7 2.626v11.362c0 1.794.728 2.626 2.7 2.626zm-1.768-2.288c-.52 0-.65-.234-.65-.728v-1.95h2.6v1.95c0 .546-.156.728-.65.728zm-.654-7.358h2.6v2.47h-2.6zm2.6-2.184h-2.6v-1.716c0-.546.156-.728.65-.728h1.3c.494 0 .65.182.65.728zm-4.208 13.156a14.6 14.6 0 01-1.664 2.756 1.221 1.221 0 001.04 2.054 1.378 1.378 0 001.144-.572 13.467 13.467 0 001.9-3.38 1.18 1.18 0 00.1-.468 1.233 1.233 0 00-1.326-1.144 1.284 1.284 0 00-1.194.754zm35.152-12.74h-5.824a1.074 1.074 0 00-1.04 1.17 1.089 1.089 0 001.04 1.17h14.924a1.093 1.093 0 001.066-1.17 1.079 1.079 0 00-1.066-1.17h-6.244v-1.508h8.944a1.093 1.093 0 001.066-1.17 1.079 1.079 0 00-1.066-1.17h-8.944v-1.3c0-.754-.7-1.118-1.43-1.118-.7 0-1.43.364-1.43 1.118v1.3h-8.68a1.074 1.074 0 00-1.04 1.17 1.089 1.089 0 001.04 1.17h8.684zm-2.964 8.45c-.468 3.2-2.288 5.356-6.11 6.682a1.311 1.311 0 00.364 2.574 1.942 1.942 0 00.52-.078c4.394-1.43 7.488-4.524 8.086-8.944 0-.078.026-.13.026-.208 0-.754-.7-1.144-1.43-1.144a1.364 1.364 0 00-1.456 1.118zm5.746 6.188c0 1.976.806 2.678 4.758 2.678 3.926 0 5.226-.832 5.538-3.8v-.156a1.289 1.289 0 00-1.378-1.222 1.261 1.261 0 00-1.352 1.092c-.182 1.508-.676 1.742-2.73 1.742-1.794 0-2.054-.182-2.054-.78v-5.742a1.418 1.418 0 00-2.782 0zm-9.074-10.868c-2.548 0-3.458.806-3.458 2.808v1.794a1.3 1.3 0 001.43 1.2 1.287 1.287 0 001.43-1.2v-1.4c0-.624.182-.858.988-.858h14.742c.806 0 .962.234.962.858v1.274a1.3 1.3 0 001.43 1.2 1.287 1.287 0 001.43-1.2v-1.69c0-2-.91-2.782-3.458-2.782zm35.8-.78V50.96c0-.78-.728-1.17-1.482-1.17-.728 0-1.482.39-1.482 1.17v7.436h-9a1.376 1.376 0 000 2.7h9v8.268h-7.8a1.376 1.376 0 000 2.7h18.9a1.371 1.371 0 000-2.7h-8.138V61.1h9.152a1.371 1.371 0 000-2.7zm21.736.78c.7-.052 1.352-.078 1.924-.078 1.248 0 1.69.624 1.69 2.964a20.821 20.821 0 01-.676 5.642c-.442 1.534-.91 1.82-1.82 1.82a12.32 12.32 0 01-1.43-.1c-.078 0-.156-.026-.208-.026a1.338 1.338 0 00-1.326 1.43 1.392 1.392 0 001.274 1.4 11.98 11.98 0 001.768.13c2.626 0 3.8-1.066 4.628-4.056a24.218 24.218 0 00.7-6.214c0-4.082-1.222-5.59-4.55-5.59-.416 0-.884 0-1.4.026.286-1.43.52-2.886.676-4.29v-.182a1.457 1.457 0 00-2.886-.078 60.76 60.76 0 01-.754 4.784c-1.378.156-2.808.338-4.134.6a1.348 1.348 0 00-1.17 1.352 1.249 1.249 0 001.248 1.326 1.483 1.483 0 00.338-.026c.988-.208 2.028-.39 3.094-.52a43.836 43.836 0 01-3.974 10.164 1.749 1.749 0 00-.234.806 1.351 1.351 0 001.43 1.3 1.57 1.57 0 001.4-.832 47.015 47.015 0 004.394-11.752zm10.348-4.446a1.739 1.739 0 00-1.2-.494 1.443 1.443 0 00-1.508 1.3 1.428 1.428 0 00.416.936 24.211 24.211 0 013.692 5.356 1.619 1.619 0 001.43.988 1.492 1.492 0 001.508-1.508 1.981 1.981 0 00-.208-.884 23.127 23.127 0 00-4.128-5.694zm2.236-4.732c.6.624 1.326 1.4 1.924 2.158a1.131 1.131 0 00.91.468 1.016 1.016 0 001.04-.988 1.21 1.21 0 00-.286-.78 13.038 13.038 0 00-2-2.132 1.249 1.249 0 00-.78-.312 1.044 1.044 0 00-1.092.962.859.859 0 00.286.624zm-2.6 2.054a18.91 18.91 0 011.924 2.21 1.042 1.042 0 00.858.494 1.06 1.06 0 001.04-1.04 1.086 1.086 0 00-.234-.7 12.988 12.988 0 00-2.028-2.262 1.089 1.089 0 00-1.82.7.924.924 0 00.262.598zM171.218 97.536a10.782 10.782 0 00.65-1.586 1.748 1.748 0 00.1-.624c0-.832-.6-1.56-1.924-1.56h-1.43c.156-.364.338-.728.468-1.092a1.321 1.321 0 00.078-.442 1.2 1.2 0 00-1.3-1.066 1.171 1.171 0 00-1.118.728 21.024 21.024 0 01-3.094 5.1 1.328 1.328 0 00-.39.91 1.206 1.206 0 001.248 1.092 1.41 1.41 0 00.806-.26 2.863 2.863 0 00-.208 1.222v4.5c0 4.056-.546 7.15-1.534 9.23a1.567 1.567 0 00-.156.624 1.2 1.2 0 001.274 1.144 1.4 1.4 0 001.274-.884 19.367 19.367 0 001.378-6.136h4.914v3.868c0 .338-.13.442-.416.442a6.326 6.326 0 01-.988-.078c-.078 0-.13-.026-.208-.026a1.175 1.175 0 00-1.088 1.272 1.183 1.183 0 001.04 1.248 8.26 8.26 0 001.482.1c1.586 0 2.574-.7 2.574-2.392V99.954c0-1.742-.806-2.418-2.626-2.418zm-3.484 0a3.653 3.653 0 00-1.664.312q.741-.975 1.4-2.028h1.378q.39 0 .39.234a.283.283 0 01-.026.13 7.677 7.677 0 01-.624 1.352zm-.286 8.71c.026-.52.026-1.04.026-1.56v-.78h1.3v2.34zm4.836 0h-1.381v-2.34h1.378zm0-4.42h-1.381v-2.184h.962c.338 0 .416.1.416.494zm-3.51-2.184v2.184h-1.3v-1.69c0-.39.078-.494.416-.494zm14.352-4.966c.6 0 .728.052.728.39a6.178 6.178 0 01-.39 1.872c-.156.416-.338.52-.7.52a7.158 7.158 0 01-.884-.078c-.078 0-.156-.026-.234-.026a1.175 1.175 0 00-1.2 1.2 1.251 1.251 0 001.144 1.248 9.986 9.986 0 001.43.1 2.622 2.622 0 002.966-2.188 12.9 12.9 0 00.546-3.354c0-1.274-.78-2.028-2.678-2.028h-7.644a1.055 1.055 0 00-1.014 1.17 1.068 1.068 0 001.014 1.17h2.21a6.653 6.653 0 01-2.73 3.8 1.372 1.372 0 00-.676 1.144 1.249 1.249 0 001.274 1.222 1.47 1.47 0 00.858-.286 9.572 9.572 0 003.926-5.876zm-3.978 8.5l.234-.832a1.305 1.305 0 00.052-.312 1.14 1.14 0 00-1.222-1.066 1.155 1.155 0 00-1.17.858 13.5 13.5 0 01-1.43 3.432 1.537 1.537 0 00-.26.806 1.119 1.119 0 001.2 1.066 1.374 1.374 0 001.222-.728 7.9 7.9 0 00.494-.936h2.054v2.16h-3.978a1.048 1.048 0 00-.962 1.17 1.063 1.063 0 00.962 1.17h3.978v4.524c0 .7.676 1.066 1.352 1.066s1.352-.364 1.352-1.066v-4.524h3.744c.624 0 .936-.6.936-1.17 0-.6-.312-1.17-.936-1.17h-3.744v-2.158h2.938a1.02 1.02 0 00.936-1.144 1.02 1.02 0 00-.936-1.144h-2.938v-1.764c0-.7-.676-1.066-1.352-1.066s-1.352.364-1.352 1.066v1.768zm17.238 11.8c1.768 0 2.626-.546 2.626-2.392v-3.14c0-1.612-.65-2.392-2.626-2.392h-2.678c-1.976 0-2.626.78-2.626 2.392v3.146c0 1.612.65 2.392 2.626 2.392zm-2.158-2.34c-.442 0-.546-.182-.546-.6v-2.046c0-.442.13-.6.546-.6h1.638c.416 0 .546.156.546.6v2.054c0 .442-.13.6-.546.6zm15.548-7.176c1.924-.078 2.886-.546 2.886-2.6v-3.2c0-2.054-.91-2.574-2.886-2.652a27.183 27.183 0 001.664-3.718 1.442 1.442 0 00.078-.442 1.346 1.346 0 00-1.456-1.2 1.3 1.3 0 00-1.3.884 26.568 26.568 0 01-1.9 4.472h-2.678c-2.5 0-3.146.832-3.146 2.652v3.2c0 1.716.65 2.444 2.366 2.574-.26 3.666-1.586 5.9-3.614 7.514a1.559 1.559 0 00-.676 1.2 1.326 1.326 0 001.326 1.3 1.49 1.49 0 00.962-.364c2.6-2.028 4.316-5.226 4.6-9.62h1.17v7.2c0 1.846.884 2.34 3.224 2.34 2.678 0 3.562-.78 3.874-3.744v-.13a1.207 1.207 0 00-1.3-1.144 1.084 1.084 0 00-1.144.988c-.208 1.456-.494 1.612-1.248 1.612-.6 0-.806-.13-.806-.546zm-5.07-2.366c-.676 0-1.014-.13-1.014-.858v-2.122c0-.52.208-.754 1.014-.754h4.264c.806 0 1.014.234 1.014.754v2.132c0 .65-.208.858-1.014.858zm-5.85-4.524a1.165 1.165 0 001.066-1.3 1.165 1.165 0 00-1.066-1.3h-8.112a1.163 1.163 0 00-1.04 1.3 1.163 1.163 0 001.04 1.3zm-1.222-3.8a1.1 1.1 0 001.014-1.222 1.087 1.087 0 00-1.014-1.222h-5.408c-.65 0-.988.6-.988 1.222a1.1 1.1 0 00.988 1.222zm0 7.436a1.1 1.1 0 001.014-1.222 1.087 1.087 0 00-1.014-1.222h-5.408c-.65 0-.988.6-.988 1.222a1.1 1.1 0 00.988 1.23zm0 3.64a1.1 1.1 0 001.014-1.222 1.087 1.087 0 00-1.014-1.21h-5.408c-.65 0-.988.6-.988 1.222a1.1 1.1 0 00.988 1.222zm6.812-13.364a1.452 1.452 0 00-1.17-.6 1.277 1.277 0 00-1.352 1.144 1.2 1.2 0 00.208.676c.338.546.858 1.456 1.144 2.054a1.167 1.167 0 001.066.676 1.436 1.436 0 001.482-1.318 1.366 1.366 0 00-.156-.6 13.125 13.125 0 00-1.222-2.022zm17.757 14.154c0 5.408 2.054 7.332 5.928 7.332 3.38 0 6.526-1.4 9.49-5.1a1.541 1.541 0 00.364-.962 1.5 1.5 0 00-1.534-1.43 1.574 1.574 0 00-1.248.65c-2.392 2.964-4.654 3.952-7.072 3.952-1.846 0-2.912-.936-2.912-4.42 0-3.848.208-7.826.468-11.674.026-.286.078-.962.078-1.248a1.357 1.357 0 00-1.508-1.3 1.4 1.4 0 00-1.508 1.3c-.285 3.826-.546 8.766-.546 12.9zm34.425-13.988a1.282 1.282 0 00-1.43-1.17c-.728 0-1.456.39-1.456 1.17v2.626c-2.21.026-4.368.13-6.188.208a1.379 1.379 0 00.049 2.756c1.82-.078 3.978-.156 6.188-.208.026.936.052 1.846.1 2.782h-1.4a35.911 35.911 0 01-3.744-.182h-.179a1.319 1.319 0 00-1.3 1.378 1.349 1.349 0 001.248 1.378c.91.1 2.5.156 4.056.156h1.482c.026.91.13 1.846.208 2.782a19.474 19.474 0 00-2.106-.13c-3.718 0-5.59 1.742-5.59 4 0 2.418 2.028 4 5.33 4 3.016 0 5.46-1.352 5.46-4.16v-.182a24.272 24.272 0 014.81 2.5 1.528 1.528 0 002.418-1.248 1.665 1.665 0 00-.884-1.4 23.916 23.916 0 00-6.526-2.834c-.1-1.144-.208-2.288-.26-3.432 1.742-.1 3.458-.234 5.044-.442a1.373 1.373 0 001.274-1.382 1.3 1.3 0 00-1.378-1.326h-.208c-1.508.182-3.172.312-4.888.416q-.078-1.365-.078-2.73c.884 0 1.742-.026 2.574-.026 1.17 0 2.288.026 3.3.052a1.267 1.267 0 001.326-1.326 1.329 1.329 0 00-1.326-1.4 214.599 214.599 0 00-4.264-.052h-1.662zm-4.732 18.876c-1.69 0-2.366-.6-2.366-1.3 0-.78.6-1.4 2.626-1.4a12.1 12.1 0 012.34.234v.572c0 1.084-.858 1.894-2.6 1.894zm30.94-2.73a7.348 7.348 0 01-4 3.64 1.458 1.458 0 00-1.014 1.326 1.476 1.476 0 001.481 1.454 1.916 1.916 0 00.7-.156c3.744-1.716 5.85-4.55 5.85-8.658a6.632 6.632 0 00-.884-3.458c-.1-1.508-.156-2.99-.182-4.5 2.7-.078 5.356-.156 7.67-.156a1.293 1.293 0 001.246-1.372 1.328 1.328 0 00-1.352-1.43c-2.314 0-4.914.052-7.618.13v-3.1a1.285 1.285 0 00-1.4-1.248 1.336 1.336 0 00-1.456 1.274c0 1.17 0 2.236.026 3.172-3.562.13-7.124.312-10.192.494a1.341 1.341 0 00-1.326 1.4 1.408 1.408 0 001.378 1.482c.286 0 .884-.026 1.17-.052 2.7-.182 7.1-.39 9-.494l.07 2.088a6.107 6.107 0 00-1.56-.208c-2.418 0-4.03 1.768-4.03 4.316 0 2.964 1.872 4.68 4.42 4.68a2.866 2.866 0 001.924-.65zm-2.158-5.824a1.88 1.88 0 011.82 2.08c0 1.2-.65 1.82-1.534 1.82a1.934 1.934 0 01-1.794-2.056c0-1.142.624-1.844 1.508-1.844zm26.312-5.356c.182 2.548.338 6.4.442 9.256a1.073 1.073 0 001.17 1.092 1.117 1.117 0 001.222-1.092c.078-2.886.26-6.734.442-9.256.052-.754.208-2.314.208-3.016a1.848 1.848 0 00-3.692 0c0 .702.182 2.548.208 3.016zm1.638 12.038a1.937 1.937 0 00-1.976 1.95 1.977 1.977 0 003.952 0 1.937 1.937 0 00-1.976-1.95z" fill="#3b3938"/><path data-name="パス 331760" d="M96.115 53.714v-2.08h6.848a1.323 1.323 0 001.216-1.472 1.323 1.323 0 00-1.216-1.472h-2.144a1.483 1.483 0 00.992-1.376 1.448 1.448 0 00-.576-1.152 13.175 13.175 0 00-2.016-1.248 2.084 2.084 0 00-.832-.192 1.358 1.358 0 00-1.376 1.344 1.339 1.339 0 00.736 1.184 12.42 12.42 0 011.792 1.184 1.755 1.755 0 00.48.256h-3.9v-3.1a1.481 1.481 0 00-1.664-1.376 1.481 1.481 0 00-1.664 1.376v3.1h-6.016a1.32 1.32 0 00-1.184 1.472 1.32 1.32 0 001.184 1.472h6.016v2.08h-2.72c-2.592 0-3.584.992-3.584 3.3v15.544c0 .864.8 1.28 1.6 1.28s1.6-.416 1.6-1.28v-5.536h3.2v5.056a1.42 1.42 0 001.568 1.28 1.4 1.4 0 001.568-1.28v-5.056h3.52v2.88c0 .544-.16.7-.544.7a4.813 4.813 0 01-.928-.1.886.886 0 00-.288-.032 1.418 1.418 0 00-1.344 1.536 1.48 1.48 0 001.216 1.472 9.992 9.992 0 001.952.192c2.112 0 3.136-.96 3.136-3.456V57.006c0-2.3-1.024-3.3-3.616-3.3zm-.1 2.88h2.528c.832 0 .992.224.992.928v1.532h-3.52zm3.52 5.216v2.5h-3.52v-2.5zm-9.856 2.5v-2.5h3.2v2.5zm0-5.248v-1.548c0-.7.224-.928.96-.928h2.24v2.468zm-8.48-.128a25.218 25.218 0 003.072-5.248 4.626 4.626 0 00.416-1.792c0-1.408-.992-2.272-2.816-2.272h-.8v-4.264c0-.864-.832-1.28-1.632-1.28-.832 0-1.664.416-1.664 1.28v4.256h-2.3c-.8 0-1.184.736-1.184 1.472 0 .768.384 1.5 1.184 1.5h4.928c.416 0 .608.1.608.32a1.1 1.1 0 01-.1.416 21.655 21.655 0 01-6.432 7.936 1.707 1.707 0 00-.768 1.344 1.559 1.559 0 001.568 1.5 1.978 1.978 0 001.216-.448c.48-.384.96-.768 1.408-1.184v10.4c0 .832.832 1.28 1.664 1.28.8 0 1.632-.448 1.632-1.28v-9.208c.608.544 1.28 1.12 1.792 1.664a1.5 1.5 0 001.056.512 1.449 1.449 0 001.408-1.44 1.61 1.61 0 00-.544-1.152c-.352-.32-.768-.7-1.248-1.088a17.586 17.586 0 001.632-1.952 1.534 1.534 0 00.288-.832 1.362 1.362 0 00-1.344-1.28 1.293 1.293 0 00-1.088.608 13.314 13.314 0 01-1.6 1.952c-.1-.064-.224-.128-.352-.224zm49.92-3.84c.832 0 1.024.192 1.024.9a76.044 76.044 0 01-.928 12.64c-.16.928-.48 1.184-1.088 1.184a8.681 8.681 0 01-1.312-.128 1.691 1.691 0 00-.384-.032 1.673 1.673 0 00-1.664 1.76 1.783 1.783 0 001.536 1.76 10.132 10.132 0 002.272.224c2.208 0 3.616-1.056 4.1-4.064a90.791 90.791 0 00.928-13.824c0-2.432-.928-3.52-3.744-3.488l-2.848.032v-6.24c0-.96-.864-1.408-1.728-1.408s-1.728.448-1.728 1.408v6.3l-3.1.032a1.4 1.4 0 00-1.376 1.536 1.428 1.428 0 001.44 1.568l3.008-.064c-.256 7.136-2.208 11.9-6.112 15.744a1.886 1.886 0 00-.64 1.344 1.7 1.7 0 001.728 1.6 1.963 1.963 0 001.408-.64 23.12 23.12 0 002.336-2.656 23.069 23.069 0 003.552-7.3 32.03 32.03 0 001.184-8.16zm-21.92 12.16l-1.088.192a1.535 1.535 0 00-1.312 1.568 1.651 1.651 0 001.536 1.76.886.886 0 00.288-.032 77.656 77.656 0 0012.384-3.264 1.547 1.547 0 001.056-1.5 1.511 1.511 0 00-1.44-1.6 1.812 1.812 0 00-.576.1 3.146 3.146 0 01-.512.16V49.166c0-2.432-.736-3.584-3.328-3.584h-3.68c-2.592 0-3.328 1.152-3.328 3.584zm7.008-1.6c-1.216.32-2.432.64-3.68.9v-4.46h3.68zm0-6.5h-3.68v-3.748h3.68zm0-6.688h-3.68v-2.852c0-.736.192-.96.8-.96h2.08c.608 0 .8.224.8.96zm40.296-6.628a1.131 1.131 0 00.128-.544 1.648 1.648 0 00-1.76-1.472 1.924 1.924 0 00-1.6.8 42.339 42.339 0 01-12.608 11.168 1.792 1.792 0 00-.992 1.536 1.673 1.673 0 001.632 1.7 1.776 1.776 0 00.928-.256 50.03 50.03 0 0012.38-10.372 43.248 43.248 0 0012.48 9.856 2.532 2.532 0 001.12.288 1.747 1.747 0 001.728-1.76 1.872 1.872 0 00-1.184-1.728 37.955 37.955 0 01-12.252-9.216zm0 11.456h3.232a1.291 1.291 0 001.216-1.44c0-.736-.384-1.44-1.216-1.44h-10.08a1.294 1.294 0 00-1.216 1.44 1.311 1.311 0 001.216 1.44h3.328v2.976h-8.9a1.294 1.294 0 00-1.216 1.44 1.311 1.311 0 001.216 1.44h8.9v6.784h-10.88a1.326 1.326 0 00-1.248 1.472 1.326 1.326 0 001.248 1.472h25.4a1.326 1.326 0 001.248-1.472 1.326 1.326 0 00-1.248-1.472h-11V63.15h9.12a1.291 1.291 0 001.216-1.44c0-.736-.384-1.44-1.216-1.44h-9.12zm-7.424 7.328a1.676 1.676 0 00-1.344-.672 1.6 1.6 0 00-1.632 1.5 1.548 1.548 0 00.288.864c.576.8.96 1.408 1.472 2.208a1.6 1.6 0 001.376.768 1.689 1.689 0 001.728-1.536 1.5 1.5 0 00-.256-.864 16.336 16.336 0 00-1.636-2.268zm9.728 2.3a1.777 1.777 0 00-.384 1.024 1.522 1.522 0 001.568 1.408 1.617 1.617 0 001.28-.64 19.2 19.2 0 001.792-2.656 1.779 1.779 0 00.256-.832 1.526 1.526 0 00-1.568-1.44 1.6 1.6 0 00-1.44.9 15.239 15.239 0 01-1.508 2.24z" fill="#169f44"/><path data-name="パス 331761" d="M82.179 26.206c2.5 0 3.776-.832 3.776-3.328v-3.392c0-2.3-1.056-3.328-3.84-3.328h-4.832c-2.784 0-3.84 1.024-3.84 3.328v3.392c0 2.3 1.056 3.328 3.84 3.328zm-4.512-2.752c-.64 0-.96-.224-.96-.9v-2.748c0-.608.256-.9.96-.9h4.064c.7 0 .96.288.96.9v2.752c0 .608-.256.9-.96.9zm-13.952-8.448v10.108a8.854 8.854 0 01-1.536-2.368c.16-1.376.352-3.392.352-4.1a1.487 1.487 0 00-1.568-1.472 1.405 1.405 0 00-1.5 1.344 43.166 43.166 0 01-1.828 11.016 2.39 2.39 0 00-.1.64 1.455 1.455 0 001.472 1.5 1.71 1.71 0 001.6-1.376c.32-1.152.64-2.336.9-3.584 2.464 3.2 6.5 4.448 14.816 4.448 3.712 0 6.944-.064 10.208-.384a1.609 1.609 0 001.536-1.632 1.528 1.528 0 00-1.632-1.568c-.224 0-.9.064-1.376.1-3.232.224-5.088.32-8.672.32-4.288 0-7.264-.256-9.408-.928v-5.536h2.976c.8 0 1.184-.736 1.184-1.472a1.287 1.287 0 00-1.184-1.44h-2.976v-3.616h3.456a1.323 1.323 0 001.216-1.472 1.323 1.323 0 00-1.216-1.472h-3.712v-3.04h2.784a1.311 1.311 0 001.216-1.44 1.294 1.294 0 00-1.216-1.44h-2.784V3.358a1.466 1.466 0 00-1.6-1.408 1.476 1.476 0 00-1.632 1.408v2.784h-2.944c-.8 0-1.184.7-1.184 1.44a1.287 1.287 0 001.184 1.44h2.944v3.04h-4.576c-.8 0-1.184.736-1.184 1.472s.384 1.472 1.184 1.472zm18.464-8.288c.608 0 .8.128.8.608a16.556 16.556 0 01-.48 3.616c-.192.7-.416.832-.864.832a6.206 6.206 0 01-1.152-.128 1.2 1.2 0 00-.32-.032 1.468 1.468 0 00-1.5 1.536 1.5 1.5 0 001.312 1.536 13.15 13.15 0 002.016.16c1.92 0 3.1-.928 3.616-3.1a23.423 23.423 0 00.544-5.12c.032-1.792-.992-2.848-3.456-2.848h-8.928a1.33 1.33 0 00-1.28 1.472 1.33 1.33 0 001.28 1.472h2.56a9.616 9.616 0 01-3.328 6.144 1.807 1.807 0 00-.768 1.376 1.6 1.6 0 001.664 1.5 1.854 1.854 0 001.312-.512 13.252 13.252 0 004.288-8.512zm21.12 5.088a48.119 48.119 0 003.968-.8 1.6 1.6 0 001.344-1.568 1.633 1.633 0 00-1.7-1.632 1.772 1.772 0 00-.576.064c-.9.224-1.952.416-3.04.608V4.094a1.587 1.587 0 00-1.728-1.568 1.587 1.587 0 00-1.728 1.568v4.864c-1.6.192-3.136.288-4.416.32a1.551 1.551 0 00-1.568 1.664 1.544 1.544 0 001.568 1.632 60.896 60.896 0 004.416-.288v5.376c-5.596 2.592-6.936 5.152-6.936 7.488 0 2.784 3.1 4.992 5.984 4.992 2.976 0 4.416-1.216 4.416-4.544v-5.7a18.892 18.892 0 015.5-.832c3.04 0 4.672 1.5 4.672 3.264 0 2.08-1.248 3.488-4.384 4.032a1.662 1.662 0 00-1.472 1.664 1.671 1.671 0 001.7 1.728 1.313 1.313 0 00.352-.032c4.672-.672 7.456-3.3 7.456-7.424 0-4-3.232-6.368-8.352-6.368a21.558 21.558 0 00-5.472.64zm-3.456 13.536c0 .8-.1 1.408-1.024 1.408-1.184.032-2.336-.64-2.336-1.664 0-1.248.576-2.3 3.36-3.872zm14.048-18.24a1.742 1.742 0 00-.864-.224 1.922 1.922 0 00-1.824 1.888 1.6 1.6 0 00.9 1.44 24.624 24.624 0 013.872 2.784 1.952 1.952 0 001.312.544 1.872 1.872 0 001.856-1.824 1.984 1.984 0 00-.736-1.5 24.055 24.055 0 00-4.516-3.108zm24.448-2.24a1.732 1.732 0 00-1.888-1.7 1.749 1.749 0 00-1.888 1.7v24.416a1.725 1.725 0 001.888 1.664 1.708 1.708 0 001.888-1.664V15.486a2.283 2.283 0 00.928.9 56.526 56.526 0 015.984 3.84 2.165 2.165 0 001.344.48 1.858 1.858 0 001.824-1.892 2.056 2.056 0 00-.9-1.664 37.524 37.524 0 00-6.784-4.1 1.971 1.971 0 00-.832-.192 1.827 1.827 0 00-1.568.992zm32.512 3.452a36.482 36.482 0 001.44-3.008 2.184 2.184 0 00.16-.736 1.793 1.793 0 00-1.888-1.7 1.884 1.884 0 00-1.76 1.224 33.672 33.672 0 01-7.712 11.008 2.2 2.2 0 00-.8 1.536 1.75 1.75 0 001.792 1.7 2.107 2.107 0 001.472-.608 33.938 33.938 0 005.216-6.08l7.168-.064c.608 0 .864.16.864.512a1.256 1.256 0 01-.1.448 27.4 27.4 0 01-12.576 15.2 2.052 2.052 0 00-1.116 1.724 1.823 1.823 0 001.824 1.824 2.028 2.028 0 001.056-.288 31.472 31.472 0 0014.656-18.112 5.71 5.71 0 00.288-1.7c0-1.92-1.344-2.976-4-2.944z" fill="#eb5e1d"/></g></svg>