<svg xmlns="http://www.w3.org/2000/svg" width="690" height="67"><g data-name="グループ 17940"><path data-name="長方形 4373" d="M20 0h650a20 20 0 0120 20v47H0V20A20 20 0 0120 0z" fill="#897d76"/><path data-name="パス 331752" d="M311.5 43.98c2.08-2.64 3.32-6.32 3.32-10.96 0-10.2-6-15.68-13.32-15.68-7.28 0-13.32 5.48-13.32 15.68 0 10.24 6.04 15.76 13.32 15.76a12.786 12.786 0 006.8-1.88l2.96 3.32a2.408 2.408 0 001.8.92 2.256 2.256 0 002.28-2.16 2.423 2.423 0 00-.72-1.64zm-6.2-6.88a2.465 2.465 0 00-1.68-.96 2.314 2.314 0 00-2.4 2.16 2.241 2.241 0 00.6 1.52l3.56 3.84a7.666 7.666 0 01-3.88 1c-5.2 0-8.28-4.48-8.28-11.64 0-7.12 3.08-11.56 8.28-11.56s8.28 4.44 8.28 11.56a16.007 16.007 0 01-1.52 7.4zm49.12 4.52a18.3 18.3 0 002.92-7.8 2.281 2.281 0 00.04-.52c0-1.16-.88-1.84-2.28-1.84a1.767 1.767 0 00-1.84 1.56 15.261 15.261 0 01-1.6 5.8l-5.8-6.4c3.96-1.6 5.84-4.16 5.84-7.68 0-4.04-3.16-6.76-7.4-6.76s-7.36 2.96-7.36 6.96a8.384 8.384 0 002.44 5.92l.32.36c-4.96 2.36-6.72 4.76-6.72 8.88 0 5.2 3.76 8.68 9.52 8.68a11.9 11.9 0 009.32-4l.88.92c1.88 1.96 3.4 2.72 5.28 2.72a8.7 8.7 0 002.08-.28 1.935 1.935 0 001.44-2.08 1.87 1.87 0 00-1.8-2c-.6 0-.84.32-1.64.32-.76 0-1.36-.4-2.48-1.56zm-11.64-12.76c-1.4-1.6-1.88-2.52-1.88-3.88a3.276 3.276 0 013.44-3.52 3.077 3.077 0 013.28 3.32c0 2.4-.88 3.72-4.04 5zm6.52 13.12a8.148 8.148 0 01-6.48 3.16c-3.4 0-5.52-2.04-5.52-5.2 0-2.88 1.08-4.44 4.76-6.08zm28.32 3.28a3.927 3.927 0 00-.2 1.16c0 1.2.96 2.08 2.6 2.08a2.1 2.1 0 002.12-1.52l2.92-9h9.96l2.88 9a1.986 1.986 0 002.08 1.52c1.68 0 2.76-.88 2.76-2.2a3.647 3.647 0 00-.2-1.08l-8.68-24.8c-.68-1.96-1.8-2.8-3.72-2.8-1.84 0-2.96.84-3.68 2.84zm12.56-23.04c.56 2.12 1.2 4.28 1.8 6.2l1.8 5.68h-7.44l1.8-5.6c.6-1.88 1.2-4.16 1.76-6.28z" fill="#fff"/></g></svg>