<svg xmlns="http://www.w3.org/2000/svg" width="948" height="67"><g data-name="グループ 17939"><path data-name="長方形 4373" d="M20 0h908a20 20 0 0120 20v47H0V20A20 20 0 0120 0z" fill="#897d76"/><path data-name="パス 331746" d="M445.525 41.83a14.764 14.764 0 002.822-9.316c0-8.67-5.1-13.328-11.322-13.328-6.188 0-11.322 4.658-11.322 13.328 0 8.7 5.134 13.4 11.322 13.4a10.868 10.868 0 005.78-1.6l2.516 2.822a2.046 2.046 0 001.53.782 1.918 1.918 0 001.938-1.838 2.06 2.06 0 00-.612-1.394zm-5.27-5.848a2.1 2.1 0 00-1.428-.816 1.967 1.967 0 00-2.04 1.836 1.9 1.9 0 00.51 1.292l3.026 3.264a6.516 6.516 0 01-3.3.85c-4.42 0-7.038-3.808-7.038-9.894 0-6.052 2.618-9.826 7.038-9.826s7.038 3.774 7.038 9.826a13.606 13.606 0 01-1.292 6.29zm41.752 3.842a15.551 15.551 0 002.482-6.63 1.939 1.939 0 00.034-.442c0-.986-.748-1.564-1.938-1.564a1.5 1.5 0 00-1.564 1.326 12.972 12.972 0 01-1.36 4.93l-4.93-5.44c3.369-1.36 4.964-3.532 4.964-6.532 0-3.434-2.686-5.746-6.29-5.746a5.921 5.921 0 00-6.256 5.916 7.126 7.126 0 002.074 5.032l.272.306c-4.216 2.006-5.712 4.046-5.712 7.548 0 4.42 3.2 7.378 8.092 7.378a10.113 10.113 0 007.925-3.396l.748.782c1.6 1.666 2.89 2.312 4.488 2.312a7.4 7.4 0 001.764-.238 1.645 1.645 0 001.224-1.768 1.59 1.59 0 00-1.53-1.7c-.51 0-.714.272-1.394.272-.646 0-1.156-.34-2.108-1.326zm-9.894-10.846c-1.19-1.36-1.6-2.142-1.6-3.3a2.785 2.785 0 012.926-2.99 2.616 2.616 0 012.788 2.822c0 2.04-.748 3.162-3.434 4.25zm5.542 11.152a6.926 6.926 0 01-5.508 2.686c-2.89 0-4.692-1.734-4.692-4.42 0-2.448.918-3.774 4.046-5.168zm24.072 2.788a3.338 3.338 0 00-.17.986c0 1.02.816 1.768 2.21 1.768a1.781 1.781 0 001.8-1.292l2.482-7.65h8.466l2.448 7.65a1.688 1.688 0 001.77 1.292c1.428 0 2.346-.748 2.346-1.87a3.1 3.1 0 00-.17-.918l-7.378-21.08a3.024 3.024 0 00-3.162-2.38c-1.564 0-2.516.714-3.128 2.414zM512.4 23.334c.476 1.8 1.02 3.638 1.53 5.27l1.53 4.828h-6.321l1.53-4.76c.51-1.6 1.02-3.536 1.5-5.338z" fill="#fff"/></g></svg>