<svg xmlns="http://www.w3.org/2000/svg" width="300" height="40"><g data-name="グループ 18152" transform="translate(-320 -451)"><rect data-name="長方形 4295" width="300" height="40" rx="8" transform="translate(320 451)" fill="#009f44"/><path data-name="パス 331754" d="M344.842 463.138a1.255 1.255 0 00-.286-.022 1.179 1.179 0 00-1.166 1.254 1.19 1.19 0 00.968 1.21 23.317 23.317 0 004.8.418 28.221 28.221 0 004.532-.308 1.153 1.153 0 00.99-1.188 1.177 1.177 0 00-1.188-1.232c-.066 0-.132.022-.2.022a39.348 39.348 0 01-4.158.286 21.466 21.466 0 01-4.292-.44zM349 479a28.977 28.977 0 006.446-.682 1.285 1.285 0 001.078-1.254 1.168 1.168 0 00-1.166-1.21 2.194 2.194 0 00-.352.044 30.108 30.108 0 01-6.006.638c-4.114 0-4.862-.748-4.862-2.134a4.7 4.7 0 01.132-1.1 1.726 1.726 0 00.044-.308 1.1 1.1 0 00-1.21-1.012 1.214 1.214 0 00-1.232.88 5.989 5.989 0 00-.242 1.65c0 2.988 2.07 4.488 7.37 4.488zm19.382-8.888c-2.75 1.87-3.586 3.652-3.586 5.456 0 2.97 2.31 4.378 6.93 4.378a25.438 25.438 0 005.06-.418 1.212 1.212 0 00.99-1.228 1.16 1.16 0 00-1.188-1.21 1.353 1.353 0 00-.286.022 24.171 24.171 0 01-4.554.4c-3.5 0-4.4-.7-4.4-2.068 0-1.122.66-2.332 2.552-3.564a25.943 25.943 0 015.786-2.56 1.082 1.082 0 00.814-1.078 1.2 1.2 0 00-1.144-1.232 1.246 1.246 0 00-.4.066 30.121 30.121 0 00-4.334 1.716 38.509 38.509 0 01-.506-6.446 1.188 1.188 0 00-1.276-1.188 1.188 1.188 0 00-1.276 1.188 35.047 35.047 0 00.818 7.766zm5.852-6.952a13.864 13.864 0 011.452 2 .87.87 0 00.748.484.9.9 0 00.9-.88.973.973 0 00-.154-.528 11.747 11.747 0 00-1.54-2.068.882.882 0 00-.66-.308.9.9 0 00-.924.814.733.733 0 00.178.486zm2.354-1.54a24.275 24.275 0 011.452 1.98 1 1 0 00.814.484.864.864 0 00.88-.858 1.184 1.184 0 00-.2-.594 11.082 11.082 0 00-1.518-1.958 1.018 1.018 0 00-.726-.308.857.857 0 00-.9.77.765.765 0 00.198.484zm16.3.352a.825.825 0 00.022-.22 1.111 1.111 0 00-1.232-1.034 1.174 1.174 0 00-1.254.924l-.55 3.168a20.491 20.491 0 01-2.266-.352 1.071 1.071 0 00-.264-.022 1.141 1.141 0 00-1.122 1.188 1.124 1.124 0 00.946 1.1 16.013 16.013 0 002.31.352 74.314 74.314 0 00-.462 3.08 17.972 17.972 0 01-2.332-.418 1.218 1.218 0 00-.4-.044 1.146 1.146 0 00-1.116 1.206 1.2 1.2 0 00.924 1.188 17.768 17.768 0 002.64.44 21.039 21.039 0 00-.11 2.222c0 3.762 2.046 5.522 5.478 5.522 3.7 0 6.248-1.826 6.248-5.588a6.6 6.6 0 00-.33-2.024 1.3 1.3 0 00-1.3-.946 1.149 1.149 0 00-1.254 1.056 1.7 1.7 0 00.044.33 5.992 5.992 0 01.264 1.628c0 2.178-1.3 3.036-3.718 3.036-1.936 0-2.926-.814-2.926-3.19 0-.528.022-1.144.088-1.914h.616a20.605 20.605 0 003.828-.352 1.127 1.127 0 00.946-1.166 1.112 1.112 0 00-1.076-1.162.748.748 0 00-.22.02 21.092 21.092 0 01-3.454.286h-.356c.154-1.034.33-2.046.462-3.08h.616a23.14 23.14 0 002.442-.11 1.047 1.047 0 00.946-1.122 1.069 1.069 0 00-1.056-1.166h-.11c-.682.066-1.408.11-2.266.11h-.154zm23.412 4.664h5.324a1.164 1.164 0 001.186-1.236 1.164 1.164 0 00-1.188-1.232H408.73a1.164 1.164 0 00-1.188 1.232 1.164 1.164 0 001.188 1.232h4.928v8.558h-6.908a1.164 1.164 0 00-1.188 1.232 1.164 1.164 0 001.188 1.236h16.5a1.164 1.164 0 001.188-1.232 1.164 1.164 0 00-1.188-1.232h-6.95zm25.718 7.942c0 .814-.33 1.034-1.408 1.034h-10.034a1.134 1.134 0 00-1.1 1.232 1.134 1.134 0 001.1 1.232h10.516c2.508 0 3.476-.968 3.476-2.948v-8.118c0-1.98-.968-2.948-3.476-2.948H430.84a1.134 1.134 0 00-1.1 1.232 1.134 1.134 0 001.1 1.232h9.768c1.078 0 1.408.22 1.408 1.034zm17.71.682a6.218 6.218 0 01-3.39 3.08 1.233 1.233 0 00-.858 1.122 1.249 1.249 0 001.254 1.232 1.621 1.621 0 00.594-.132c3.172-1.452 4.95-3.85 4.95-7.326a5.611 5.611 0 00-.748-2.926 73.352 73.352 0 01-.154-3.806c2.288-.066 4.532-.132 6.49-.132a1.094 1.094 0 001.056-1.166 1.124 1.124 0 00-1.144-1.206 229.2 229.2 0 00-6.446.11v-2.618a1.087 1.087 0 00-1.188-1.056 1.13 1.13 0 00-1.232 1.078c0 .99 0 1.892.022 2.684-3.014.11-6.028.264-8.624.418a1.135 1.135 0 00-1.122 1.184 1.191 1.191 0 001.166 1.254c.242 0 .748-.022.99-.044 2.288-.154 6.006-.33 7.612-.418l.066 1.76a5.167 5.167 0 00-1.32-.176 3.36 3.36 0 00-3.41 3.652 3.619 3.619 0 003.74 3.96 2.425 2.425 0 001.628-.55zm-1.828-4.928a1.591 1.591 0 011.54 1.76c0 1.012-.55 1.54-1.3 1.54a1.637 1.637 0 01-1.518-1.738c.002-.968.53-1.562 1.278-1.562zm24.2-8.732a1.085 1.085 0 00-1.21-.99c-.616 0-1.232.33-1.232.99v2.222c-1.87.022-3.7.11-5.236.176a1.113 1.113 0 00-1.1 1.166 1.1 1.1 0 001.144 1.166c1.54-.066 3.366-.132 5.236-.176.022.792.044 1.562.088 2.354h-1.19a30.387 30.387 0 01-3.168-.154h-.152a1.116 1.116 0 00-1.1 1.166 1.142 1.142 0 001.056 1.164c.77.088 2.112.132 3.432.132h1.254c.022.77.11 1.562.176 2.354a16.479 16.479 0 00-1.782-.11c-3.146 0-4.73 1.474-4.73 3.388 0 2.046 1.714 3.388 4.514 3.388 2.552 0 4.62-1.144 4.62-3.52v-.154a20.538 20.538 0 014.07 2.112 1.306 1.306 0 00.748.242 1.315 1.315 0 001.3-1.3 1.409 1.409 0 00-.748-1.188 20.237 20.237 0 00-5.522-2.4 64.717 64.717 0 01-.22-2.9c1.474-.088 2.926-.2 4.268-.374a1.162 1.162 0 001.078-1.166 1.1 1.1 0 00-1.166-1.122h-.176a71.13 71.13 0 01-4.136.352q-.066-1.155-.066-2.31c.748 0 1.474-.022 2.178-.022.99 0 1.936.022 2.794.044a1.072 1.072 0 001.122-1.122 1.125 1.125 0 00-1.122-1.188 181.584 181.584 0 00-3.608-.044H482.1zm-4 15.97c-1.43 0-2-.506-2-1.1 0-.66.506-1.188 2.222-1.188a10.242 10.242 0 011.98.2v.484c-.002.922-.732 1.604-2.202 1.604zm16.364-13.31a26.89 26.89 0 00-.088 2.244c0 8.36 1.936 12.3 5.126 12.3 1.474 0 2.882-1.078 3.7-4.026a1.09 1.09 0 00.044-.374 1.211 1.211 0 00-1.254-1.188 1.145 1.145 0 00-1.122.946c-.418 1.65-.9 2-1.43 2-.924 0-2.486-2.024-2.486-9.724 0-.682.088-1.76.088-2.068a1.191 1.191 0 00-1.3-1.166 1.2 1.2 0 00-1.278 1.056zm13.6 1.562a1.452 1.452 0 00-.968-.418 1.217 1.217 0 00-1.254 1.122 1.151 1.151 0 00.374.814 19.452 19.452 0 013.806 5.984 1.212 1.212 0 001.166.836 1.187 1.187 0 001.232-1.166 1.3 1.3 0 00-.088-.462 17.364 17.364 0 00-4.272-6.71zm18.018 2.244V465.6h7.854a.98.98 0 00.924-1.078.969.969 0 00-.924-1.078h-7.858v-2.374c0-.616-.594-.9-1.188-.9s-1.188.286-1.188.9v2.376h-7.722a.966.966 0 00-.9 1.078.978.978 0 00.9 1.078h7.72v2.464h-5.61a.961.961 0 00-.924 1.056.961.961 0 00.924 1.056h1.76a16.284 16.284 0 001.188 2.2 18.79 18.79 0 002.356 2.922 22.464 22.464 0 01-7.238 2.886 1.151 1.151 0 00-.968 1.122 1.186 1.186 0 001.188 1.21 1.952 1.952 0 00.33-.044 25.641 25.641 0 008.494-3.63 18.913 18.913 0 008.008 3.5 1.353 1.353 0 00.286.022 1.244 1.244 0 001.252-1.278 1.192 1.192 0 00-1.078-1.188 18.855 18.855 0 01-6.622-2.486 15.162 15.162 0 003.278-4.048 3.445 3.445 0 00.462-1.566c0-1.1-.9-1.738-2.552-1.738zm1.518 2.112c.33 0 .484.088.484.264a.58.58 0 01-.11.33 12.825 12.825 0 01-2.794 3.212 13.04 13.04 0 01-2.93-3.806zm20.2-1.166c-.088.33-.154.66-.242.99h-2.714a.865.865 0 00-.814.968c0 .506.264.99.814.99h2.046a14.283 14.283 0 01-3.872 5.566 1.214 1.214 0 00-.462.924 1.028 1.028 0 001.034 1.012 1.383 1.383 0 00.9-.374 16.928 16.928 0 002.948-3.52 14.166 14.166 0 001.76 1.87 16.585 16.585 0 01-3.232 1.342 1 1 0 00-.792.946 1.051 1.051 0 001.056 1.034 1.246 1.246 0 00.4-.066 18.167 18.167 0 004.352-1.958 14.921 14.921 0 004.418 1.694 1.7 1.7 0 00.33.044 1.158 1.158 0 001.148-1.188 1.089 1.089 0 00-.968-1.078 17.237 17.237 0 01-3.014-.9 9.739 9.739 0 001.386-1.518 2.168 2.168 0 00.462-1.276c0-.88-.748-1.54-2.046-1.54h-3.872a8.046 8.046 0 00.4-1.012H556a.882.882 0 00.836-.968A.889.889 0 00556 470h-6.16c.088-.33.154-.66.22-.99h5.016a.874.874 0 00.836-.946.882.882 0 00-.836-.968h-1.21a18.193 18.193 0 001.234-2.286 1.049 1.049 0 00.088-.44 1.034 1.034 0 00-1.1-.946 1.074 1.074 0 00-1.012.682 17.638 17.638 0 01-1.54 2.992h-4.03a.981.981 0 00.726-.88 1.076 1.076 0 00-.11-.418 8.115 8.115 0 00-.638-1.1 1.073 1.073 0 00-.88-.484.987.987 0 00-1.056.858.849.849 0 00.132.44c.2.33.418.726.616 1.144a.759.759 0 00.462.44h-1.518a.857.857 0 00-.814.946.865.865 0 00.814.968zm4.18 5.72c.2 0 .308.044.308.154a.484.484 0 01-.132.264 8.173 8.173 0 01-1.166 1.122 13.162 13.162 0 01-1.79-1.54zm-10.172-7.458H543a.958.958 0 00.9-1.056.951.951 0 00-.9-1.034h-1.192v-3.7a1.018 1.018 0 00-1.144-.946c-.594 0-1.166.308-1.166.946v3.7h-1.628a.948.948 0 00-.88 1.034.956.956 0 00.88 1.056h1.63v4.136c-.682.242-1.342.462-1.958.638a1.073 1.073 0 00-.792 1.034 1.113 1.113 0 001.078 1.166 1.029 1.029 0 00.352-.044c.418-.132.858-.286 1.32-.44v4.356c0 .352-.11.44-.418.44a2.933 2.933 0 01-.616-.066c-.066 0-.132-.022-.176-.022a1.075 1.075 0 00-1.058 1.144 1.027 1.027 0 00.9 1.078 7.189 7.189 0 001.254.11c1.672 0 2.42-.748 2.42-2.244v-5.72c.55-.242 1.078-.506 1.562-.77a.973.973 0 00.55-.88 1.063 1.063 0 00-.99-1.078 1.175 1.175 0 00-.44.11c-.22.088-.44.2-.682.286zM554.282 461a79.324 79.324 0 01-9.372 1.06.939.939 0 00-.924.99.975.975 0 001.014 1.034 80.531 80.531 0 009.658-1.078.935.935 0 00.836-.946 1.036 1.036 0 00-1.012-1.078.609.609 0 00-.2.018zm-5.39 3.982a12.356 12.356 0 01.55 1.232.871.871 0 00.836.55 1.093 1.093 0 001.144-.946.864.864 0 00-.066-.308 9.988 9.988 0 00-.572-1.188 1.1 1.1 0 00-.946-.55c-.528 0-1.056.352-1.056.836a.893.893 0 00.11.378zm18.92 4.62v.836h-6.16a.809.809 0 00-.792.88.809.809 0 00.792.88h6.16v.9h-8.118a.871.871 0 00-.858.924.871.871 0 00.858.924h8.118v.924h-6.16a.809.809 0 00-.792.88.809.809 0 00.792.88h6.16v.726c0 .418-.11.572-.594.572a4.462 4.462 0 01-.9-.088.987.987 0 00-.242-.022 1.092 1.092 0 00-1.1 1.122 1.056 1.056 0 00.924 1.084 8.3 8.3 0 001.65.132c1.584 0 2.508-.594 2.508-2.464v-1.056h3.564c2.376 0 2.992-.572 2.992-2.024v-.66h1.716a.882.882 0 00.9-.924.882.882 0 00-.9-.924h-1.716v-.638c0-1.452-.616-2.024-2.992-2.024h-3.564v-.836h3.828c1.32 0 1.98-.616 1.98-1.694V466.7c0-1.078-.66-1.694-1.98-1.694h-3.828v-.858h7.788a.925.925 0 00.9-.99.913.913 0 00-.9-.99h-7.788v-1.122a1.032 1.032 0 00-1.144-.946.988.988 0 00-1.1.924v1.144h-7.48a.9.9 0 00-.88.968.941.941 0 00.88 1.012h7.48v.858h-3.566c-1.32 0-1.98.616-1.98 1.694v1.21c0 1.232.858 1.694 1.98 1.694zM565 467.956c-.352 0-.572-.044-.572-.44v-.416c0-.308.11-.44.572-.44h2.816v1.3zm5.06-1.3h3.08c.462 0 .572.132.572.44v.418c0 .308-.11.44-.572.44h-3.08zm0 5.544h3.388c.792 0 .924.066.924.506v.4h-4.312zm4.312 2.75v.418c0 .44-.132.506-.924.506h-3.388v-.924zm15.466-5.17v1.12h-5.328a.813.813 0 00-.77.9.825.825 0 00.77.9h5.324v1.166h-7.612a.852.852 0 00-.814.924.852.852 0 00.814.924h6.16a25.624 25.624 0 01-6.732 2.75.985.985 0 00-.814.968.994.994 0 001.012 1.012 2.194 2.194 0 00.352-.044 26.829 26.829 0 007.722-3.454l-.088 2v1.32c0 .572.572.858 1.122.858.572 0 1.122-.286 1.122-.858v-1.31l-.11-2.09a25.618 25.618 0 007.832 3.366 2.45 2.45 0 00.374.044 1.033 1.033 0 001.056-1.076 1.044 1.044 0 00-.88-1.056 26.313 26.313 0 01-6.842-2.42h6.248a.838.838 0 00.814-.924.838.838 0 00-.814-.924h-7.678v-1.168h5.456a.811.811 0 00.77-.9.8.8 0 00-.77-.9h-5.456v-1.126h7.26a.835.835 0 00.792-.924.835.835 0 00-.792-.924H594.5a10.83 10.83 0 00.682-1.122.924.924 0 00.132-.462.8.8 0 00-.374-.66h5.082a.868.868 0 00.836-.968.861.861 0 00-.836-.946h-3.388a1.342 1.342 0 00.352-.264 9.137 9.137 0 001.014-1.364 1.147 1.147 0 00.176-.528 1.088 1.088 0 00-1.122-.968 1.039 1.039 0 00-.924.528 7.775 7.775 0 01-.814 1.122.97.97 0 00-.242.638.937.937 0 00.572.836h-1.76v-2.706c0-.616-.55-.9-1.1-.9-.572 0-1.122.286-1.122.9v2.706h-1.54v-2.706c0-.616-.55-.9-1.1-.9s-1.1.286-1.1.9v2.706h-1.65a.99.99 0 00.594-.858 1.339 1.339 0 00-.264-.726 6.277 6.277 0 00-.924-1.078 1.137 1.137 0 00-.814-.352 1.045 1.045 0 00-1.078.946.857.857 0 00.242.572 8.57 8.57 0 01.836 1.078 1.183 1.183 0 00.462.418h-3.348a.872.872 0 00-.814.946.879.879 0 00.814.968h5.038a.8.8 0 00-.4.682.94.94 0 00.22.572c.22.286.418.594.638.924l.044.066h-4.532a.835.835 0 00-.792.924.835.835 0 00.792.924zm-.594-1.848a.868.868 0 00.22-.55.957.957 0 00-.154-.506 8.433 8.433 0 00-.726-1.012.861.861 0 00-.22-.176h5.082a1.271 1.271 0 00-.4.484 11.6 11.6 0 01-.99 1.76z" fill="#fff"/></g></svg>