<svg xmlns="http://www.w3.org/2000/svg" width="40.47" height="69.29"><g data-name="グループ 18724"><path data-name="パス 331543" d="M35.9 1.93L11.54 16a3.444 3.444 0 00-1.6 2.76v32.62H2.25a.322.322 0 01-.32-.32V2.25a.322.322 0 01.32-.32z" fill="#fff"/><path data-name="パス 331544" d="M40.47 7.44v43.58a3.409 3.409 0 01-1.59 2.76L12.51 69.01a2.017 2.017 0 01-.98.28l-.01-.01a1.389 1.389 0 01-.77-.2 1.724 1.724 0 01-.81-1.55V53.31h.97a.962.962 0 00.96-.97v14.8l26.04-15.02a1.527 1.527 0 00.63-1.1V7.44a.965.965 0 001.93 0z" fill="#eb5e00"/><path data-name="パス 331545" d="M40.47 2.25v5.19a.965.965 0 01-1.93 0V2.25a.322.322 0 00-.32-.32H35.9L37.91.77A1.717 1.717 0 0139.66.7a1.636 1.636 0 01.58.59.4.4 0 01.05.09c.03.06.05.13.08.2a3.129 3.129 0 01.09.44c0 .08.01.15.01.23z" fill="#eb5e00"/><path data-name="パス 331546" d="M40.37 1.58a1.33 1.33 0 01.09.44 3.129 3.129 0 00-.09-.44z" fill="#eb5e00"/><path data-name="パス 331547" d="M40.37 1.58c-.03-.07-.05-.14-.08-.2a1.191 1.191 0 01.08.2z" fill="#eb5e00"/><path data-name="パス 331548" d="M38.22 0a2.22 2.22 0 012.02 1.29 1.636 1.636 0 00-.58-.59 1.717 1.717 0 00-1.75.07L35.9 1.93H2.25a.322.322 0 00-.32.32v48.81a.322.322 0 00.32.32h7.69v1.93H2.25A2.253 2.253 0 010 51.06V2.25A2.253 2.253 0 012.25 0z" fill="#eb5e00"/><path data-name="パス 331549" d="M38.54 7.44v43.58a1.527 1.527 0 01-.63 1.1L11.87 67.14V18.76a1.573 1.573 0 01.64-1.09L38.54 2.64zm-1.93 42.64V7.64a.96.96 0 00-1.44-.84L14.28 18.86a.979.979 0 00-.49.84v42.44a.963.963 0 00.49.83.887.887 0 00.48.13v-.01a.9.9 0 00.48-.12l20.89-12.06a.953.953 0 00.48-.83z" fill="#fff"/><path data-name="パス 331550" d="M38.54 2.25v.39L12.51 17.67a1.573 1.573 0 00-.64 1.09v33.58a.96.96 0 00-.96-.96h-.97V18.76a3.444 3.444 0 011.6-2.76L35.9 1.93h2.32a.322.322 0 01.32.32z" fill="#eb5e00"/><path data-name="パス 331551" d="M36.61 7.64v42.44a.953.953 0 01-.48.83L15.24 62.97a.9.9 0 01-.48.12v.01a.887.887 0 01-.48-.13.963.963 0 01-.49-.83V19.7a.979.979 0 01.49-.84L35.17 6.8a.96.96 0 011.44.84zm-1.93 41.88V9.31L15.72 20.25v40.22z" fill="#eb5e00"/><path data-name="パス 331552" d="M34.68 9.31v40.21L15.72 60.47V20.25zm-8.43 12.82a.96.96 0 10-1.62-1.03l-4.39 6.92a.961.961 0 00.82 1.47.975.975 0 00.81-.44zm-3.71-1.31a.974.974 0 00-.3-1.34.965.965 0 00-1.33.3l-2.83 4.46a.969.969 0 00.3 1.33.98.98 0 00.52.15.948.948 0 00.81-.45z" fill="#fff"/><path data-name="パス 331553" d="M25.95 20.8a.96.96 0 01.3 1.33l-4.38 6.92a.975.975 0 01-.81.44.961.961 0 01-.82-1.47l4.39-6.92a.955.955 0 011.32-.3z" fill="#eb5e00"/><path data-name="パス 331554" d="M22.69 20.3a.979.979 0 01-.15.52l-2.83 4.45a.948.948 0 01-.81.45.98.98 0 01-.52-.15.969.969 0 01-.3-1.33l2.83-4.46a.965.965 0 011.33-.3.98.98 0 01.45.82z" fill="#eb5e00"/><path data-name="パス 331555" d="M10.91 51.38a.965.965 0 010 1.93h-.97v-1.93z" fill="#eb5e00"/></g></svg>