<svg xmlns="http://www.w3.org/2000/svg" width="69.89" height="57.6"><g data-name="グループ 18727"><path data-name="パス 331592" d="M69.82 46.39a1.79 1.79 0 01.07.51 1.791 1.791 0 01-1.85 1.81H57.59v-.91a.913.913 0 00-.91-.91h11.36l.9-.26-.88.24L56.12 2.32a.759.759 0 00-.64-.5H5.65a.91.91 0 000-1.82h49.83a2.6 2.6 0 012.4 1.84z" fill="#eb5e00"/><path data-name="パス 331593" d="M68.94 46.63l-.9.26H14.69a.745.745 0 01-.65-.5L2.13 1.82h53.35a.759.759 0 01.64.5l11.94 44.55zm-3.71-1.91a.936.936 0 00.16-.79L54.78 4.31a.921.921 0 00-.88-.67H5.65a.915.915 0 00-.72.35.936.936 0 00-.16.79L15.39 44.4a.909.909 0 00.88.67h48.24a.915.915 0 00.72-.35z" fill="#fff"/><path data-name="パス 331594" d="M65.39 43.93a.936.936 0 01-.16.79.915.915 0 01-.72.35H16.27a.909.909 0 01-.88-.67L4.77 4.78a.936.936 0 01.16-.79.915.915 0 01.72-.35H53.9a.921.921 0 01.88.67zm-2.07-.68L53.2 5.45H6.83l10.13 37.8z" fill="#eb5e00"/><path data-name="パス 331595" d="M53.2 5.45l10.12 37.8H16.96L6.83 5.45zm-34.66 5.18a.918.918 0 00-.2-1.27.01.01 0 01-.01-.01.914.914 0 00-1.27.21l-3.74 5.11a.9.9 0 00.2 1.27.849.849 0 00.53.18.91.91 0 00.74-.38zm-3.55-1.28a.9.9 0 00.18-.54.91.91 0 00-.38-.74.921.921 0 00-1.27.2l-2.34 3.2v.01a.9.9 0 00.2 1.27.935.935 0 00.54.17.91.91 0 00.73-.37z" fill="#fff"/><path data-name="パス 331596" d="M57.59 48.71v6.76a2.121 2.121 0 01-2.12 2.12v.01H2.12A2.13 2.13 0 010 55.47V2.12A2.085 2.085 0 011.29.18 1.918 1.918 0 00.64.7a1.866 1.866 0 00-.29 1.62L1.82 7.8v47.67a.315.315 0 00.3.3h53.35a.3.3 0 00.3-.3v-6.76z" fill="#eb5e00"/><path data-name="パス 331597" d="M57.59 47.8v.91h-1.82v-.91a.91.91 0 111.82 0z" fill="#eb5e00"/><path data-name="パス 331598" d="M14.69 46.89h41.99a.913.913 0 00-.91.91v.91H14.69a2.579 2.579 0 01-2.4-1.85L1.82 7.8V2.12a.315.315 0 01.3-.3h.01l11.91 44.57a.745.745 0 00.65.5z" fill="#eb5e00"/><path data-name="パス 331599" d="M55.77 48.71v6.76a.3.3 0 01-.3.3H2.12a.315.315 0 01-.3-.3V7.8l10.47 39.06a2.579 2.579 0 002.4 1.85z" fill="#fff"/><path data-name="パス 331600" d="M18.34 9.36a.918.918 0 01.2 1.27l-3.75 5.11a.91.91 0 01-.74.38.849.849 0 01-.53-.18.9.9 0 01-.2-1.27l3.74-5.11a.914.914 0 011.27-.21.01.01 0 00.01.01z" fill="#eb5e00"/><path data-name="パス 331601" d="M15.17 8.81a.9.9 0 01-.18.54l-2.34 3.2a.91.91 0 01-.73.37.935.935 0 01-.54-.17.9.9 0 01-.2-1.27v-.01l2.34-3.2a.921.921 0 011.27-.2.91.91 0 01.38.74z" fill="#eb5e00"/><path data-name="パス 331602" d="M5.65 0a.91.91 0 010 1.82H2.12a.315.315 0 00-.3.3V7.8L.35 2.32A1.866 1.866 0 01.64.7a1.918 1.918 0 01.65-.52 1.07 1.07 0 01.19-.07A2.089 2.089 0 012.13 0z" fill="#eb5e00"/><path data-name="パス 331603" d="M1.86.02a1.239 1.239 0 00-.38.09 1.239 1.239 0 01.38-.09z" fill="#eb5e00"/></g></svg>