<svg xmlns="http://www.w3.org/2000/svg" width="50.969" height="66.301"><g data-name="グループ 18719"><path data-name="パス 331498" d="M49.785 1.971a2.3 2.3 0 01.94 3.04l-12.23 24.14a.984.984 0 01-1.3.42.962.962 0 01-.42-1.29v-.01l12.23-24.13a.393.393 0 00-.15-.49l-3.04-1.68a.332.332 0 00-.24-.03.328.328 0 00-.18.15l-14.64 27.08a.967.967 0 01-.86.5.908.908 0 01-.45-.11.98.98 0 01-.39-1.31l14.64-27.08a2.239 2.239 0 013.05-.89z" fill="#009f44"/><path data-name="パス 331499" d="M49.555 32.171a2.056 2.056 0 01.44 1.67l-5.02 30.39a2.532 2.532 0 01-2.44 2.07h-22.56a2.424 2.424 0 01-2.38-2.13l-.95-8.17a.969.969 0 00-.65-.72 20.1 20.1 0 01-10.83-7.65 28.422 28.422 0 01-5.16-13.87 2.172 2.172 0 012.17-2.31h45.8a2.1 2.1 0 011.58.72zm-1.46 1.36l-.12-.15h-45.8a.267.267 0 00-.18.07.221.221 0 00-.06.19 26.809 26.809 0 004.78 12.83 18.5 18.5 0 009.7 6.93 2.877 2.877 0 012.15 2.37l.95 8.18a.511.511 0 00.47.43h22.55a.63.63 0 00.55-.46z" fill="#009f44"/><path data-name="パス 331500" d="M48.855 3.651a.393.393 0 01.15.49l-12.23 24.13v.01a.962.962 0 00.42 1.29.976.976 0 00.44.1h-7.74a.967.967 0 00.86-.5l14.64-27.08a.328.328 0 01.18-.15.332.332 0 01.24.03z" fill="#fff"/><path data-name="パス 331501" d="M47.975 33.381l.12.15-5.01 30.39a.63.63 0 01-.55.46h-22.55a.511.511 0 01-.47-.43l-.95-8.18a2.877 2.877 0 00-2.15-2.37 18.5 18.5 0 01-9.7-6.93 26.809 26.809 0 01-4.78-12.83.221.221 0 01.06-.19.267.267 0 01.18-.07z" fill="#fff"/></g></svg>