<svg xmlns="http://www.w3.org/2000/svg" width="948" height="85.543"><g data-name="グループ 17796"><path data-name="パス 48648" d="M945.519 56.032a14.056 14.056 0 00.5-3.172v-.111c.2-7.325.649-16.773 1.1-23 .039-.539.1-1.253.164-2.04.192-2.292.39-4.661.39-6.35a15.132 15.132 0 00-15.36-15.227c-8.832 0-15.492 6.547-15.492 15.227 0 1.532.176 3.759.408 6.545l.009.113c.059.7.11 1.281.128 1.6l.009.156c.351 4.917.722 12.684 1.1 23.1a14.17 14.17 0 00.494 3.173 15.516 15.516 0 00-1.122 2.07 16.374 16.374 0 00-2.056-3 103.529 103.529 0 00-11.235-10.985 64.411 64.411 0 004.553-9.6l.072-.2a21.387 21.387 0 001.326-7.1c0-9.664-7.455-16.415-18.128-16.415l-26.957.467a14.019 14.019 0 00-12.708 9.256 14.941 14.941 0 00-8.636-2.739 14.4 14.4 0 00-12.754 7.568 51.411 51.411 0 01-4.372 6.51 14.661 14.661 0 00-4.12-8.871 69.924 69.924 0 00-11.439-9.705l-.177-.117a15.434 15.434 0 00-8.452-2.567 15.067 15.067 0 00-14.967 14.761 14.165 14.165 0 00.3 2.82 19.171 19.171 0 00-6.756-1.182 20.252 20.252 0 00-3.81.289l-6.3.992-.089-.468a13.885 13.885 0 00-13.916-11.223c-7.912 0-14.109 5.937-14.109 13.516a13.086 13.086 0 00.233 2.574 13.824 13.824 0 00-2.073.513 13.455 13.455 0 00-7.6-5.833 13.866 13.866 0 001.938-7.071 14.554 14.554 0 00-14.5-14.57 15.15 15.15 0 00-4.23.619l-.25.075a136.068 136.068 0 01-29.046 5.054 14.858 14.858 0 00-7.2 2.292 13.974 13.974 0 00-1.883-3.3 44.307 44.307 0 00-6.733-7.155l-.211-.174A13.834 13.834 0 00662.869 0a13.586 13.586 0 00-11.384 6.107 13.277 13.277 0 00-8.63 11.874c-.051.04-.095.086-.145.127a14.45 14.45 0 00-28.6.443q-.21 1.825-.486 3.733a97.519 97.519 0 00-3.268.579 14.461 14.461 0 00-8.358 4.843 68.374 68.374 0 01-16.992-14.374 14.313 14.313 0 00-14.122-11.42 14.5 14.5 0 00-12.515 7.137l-.053.088c-5.351 9.132-13.753 17.933-21.882 22.94l-.058.038c-.178-.077-.354-.157-.536-.226a12.82 12.82 0 00-12.086-7.977 13.069 13.069 0 00-9.4 3.864 13.371 13.371 0 00-9.53-3.863 12.947 12.947 0 00-12.823 9.981 106.87 106.87 0 00-1.953 10.81c-2-2.91-4.1-5.7-6.156-8.154a15.167 15.167 0 00-10.292-5.456c.655-2.332 1.257-4.6 1.8-6.784l.055-.222.045-.225a15.526 15.526 0 00.342-3.1c0-8.059-6.574-14.372-14.965-14.372a14.373 14.373 0 00-14.328 11.031c-2.006 8.014-4.583 16.657-7.416 24.969a14.208 14.208 0 00-14.237-13.069h-48.1a14.465 14.465 0 00-4.621.757 13.385 13.385 0 00-8.826-3.261h-.525c-.952-6.667-6.662-11.531-13.839-11.531a14.511 14.511 0 00-10.436 4.311 13.025 13.025 0 00-3.548 7.22h-8.682a13.389 13.389 0 00-6.535 1.677 16.653 16.653 0 00-4.838-11.7c-3.573-3.538-8.682-5.332-15.189-5.332l-33.929.331a14.17 14.17 0 00-9 3.163 14.458 14.458 0 00-13.6-8.829 14.722 14.722 0 00-13.038 7.386 14.687 14.687 0 00-12.33-6.4c-8.244 0-14.7 6.255-14.7 14.24v24.185a71.91 71.91 0 00-6.833-4.8 17.065 17.065 0 001.773-7.458 15.165 15.165 0 00-4.539-10.885 16.47 16.47 0 00-5.99-3.737 14.818 14.818 0 00-4.182-6.7l-.178-.161a63.954 63.954 0 00-7.642-5.83 14.877 14.877 0 00-8.183-2.473 14.6 14.6 0 00-14.5 14.267 13.759 13.759 0 00-11.021 6.3 14.136 14.136 0 00-13.828-10.683H89.424a14.14 14.14 0 00-11.507 5.785c-.1-.119-.2-.244-.308-.361l-.115-.122a68.082 68.082 0 00-11.919-9.752 14.862 14.862 0 00-8.18-2.472 14.329 14.329 0 00-3.622.478 14.473 14.473 0 00-11.335-5.222 14.266 14.266 0 00-11.63 5.708 14.116 14.116 0 00-12.714 4.036l-.16.163a40.464 40.464 0 01-8 6.36l-.1.058a14.675 14.675 0 00-7.338 12.477 14.075 14.075 0 001.55 6.412 13.708 13.708 0 00-4.053 9.8 14.023 14.023 0 0014.182 14.172h.322v5.663c0 7.287 3.206 11.415 5.9 13.594 3.326 2.7 7.738 4.007 13.485 4.007h21.744c3.477 0 7.549-.3 11.381-2.5a15.618 15.618 0 007.312-9.676 14.233 14.233 0 009.181 3.285h49.418a14.172 14.172 0 0010.414-4.464 13.951 13.951 0 005.733 1.236 14.941 14.941 0 005.241-.93q1.629-.6 3.251-1.262v.6c0 7.8 6.371 13.912 14.5 13.912s14.5-6.111 14.5-13.912v-1.424a14.707 14.707 0 008.755 2.946 14.281 14.281 0 0014.179-12.995 14.77 14.77 0 004.012 1.842 14.083 14.083 0 00-2.839 8.444A14.652 14.652 0 00225.299 83.9a15.342 15.342 0 006.441-1.5l.161-.075c17.223-8.211 25.956-22.514 25.956-42.517v-1.549a14.605 14.605 0 008.308 2.543l18.6-.23c-3.657 4.888-8.782 9.022-15.457 12.5a14.6 14.6 0 006.472 27.664 15.457 15.457 0 006.92-1.632 69.153 69.153 0 0032-31.577 13.421 13.421 0 003.105 3.746 13.94 13.94 0 006.544 26.232 14.249 14.249 0 005.783-1.242 14.005 14.005 0 009.955 6.282l.307.04a42.284 42.284 0 005.5.389c10.518 0 17.865-7.373 17.865-17.929l-.228-10.734a13.688 13.688 0 002.944-.363 14.147 14.147 0 0010.323 4.383h48.1c.2 0 .4-.022.6-.03a14.9 14.9 0 00-1.068 5.557 14.253 14.253 0 0014.306 14.5c.6 0 1.249-.042 2.47-.134l1.308-.094c10.529-.8 21.435-2.116 30.966-3.723a14.543 14.543 0 0011.777 6.126 14.874 14.874 0 009.191-3.17 13.212 13.212 0 009.048 3.546 13.381 13.381 0 007.657-2.4 21.517 21.517 0 007.332 1.24 21.172 21.172 0 0011.1-3.011 12.731 12.731 0 002.99.355 13.042 13.042 0 0012.988-12.454 13.554 13.554 0 006.41 1.592h14.712a14.71 14.71 0 00-1.02 5.33 13.961 13.961 0 0014.24 13.977 14.892 14.892 0 0013.1-7.738 76.406 76.406 0 006.944-17.13l.073-.274a24.57 24.57 0 00.725-4.191 14.262 14.262 0 003.269-1.074 69.361 69.361 0 01-2.16 4.151l-.084.151a15.119 15.119 0 00-1.9 7.186 14.227 14.227 0 0014.372 14.043 14.875 14.875 0 005.761-1.146 14.767 14.767 0 005.848 2.207 40.727 40.727 0 006.116.455c11.621 0 18.639-5.766 22.083-18.143a55.644 55.644 0 001.508-7.737 14.257 14.257 0 006.785 1.7 14.518 14.518 0 0010.77-4.792 13.246 13.246 0 006.957 1.959h4.116c-.219.145-.443.287-.673.428a14.748 14.748 0 00-7.273 12.611 14.586 14.586 0 0014.57 14.569 15.476 15.476 0 008.106-2.34 42.631 42.631 0 0019.191-25.269h11.711a13.5 13.5 0 004.531-.788 13.515 13.515 0 0011.22 5.861 12.708 12.708 0 002.683-.263l.4-.065 2.714 14.023a13.762 13.762 0 0013.7 11.08c7.949 0 14.175-5.994 14.175-13.647a12.673 12.673 0 00-.239-2.563 14.59 14.59 0 007.081-3.85 49.716 49.716 0 009.882-13.3 19 19 0 002.253-8.818 17.023 17.023 0 00-.155-2.177 98.195 98.195 0 013.421 3.251 15.175 15.175 0 006.58 3.9 63.1 63.1 0 01-8.244 3.858 14.354 14.354 0 00-9.587 13.573 14.751 14.751 0 0014.7 14.767 15.437 15.437 0 005.655-1.053 89.952 89.952 0 0046.19-39.375l.089-.159a17.889 17.889 0 00.9-1.916 13.72 13.72 0 007.937 2.509c.121 0 6.358-.122 6.358-.122a60.239 60.239 0 01-16.52 12.111 14.328 14.328 0 00-8.181 12.974 14.586 14.586 0 0014.57 14.569 15.078 15.078 0 006.684-1.578 84.24 84.24 0 0017.17-11.517 88.1 88.1 0 017.452 7.865 14.844 14.844 0 0011.459 5.494 15.183 15.183 0 0013.453-8.412 15.766 15.766 0 0029.847-6.949 15.532 15.532 0 00-2.479-8.415zM93.436 46.387h-9.941A14.246 14.246 0 0075 49.154v-1.11a20.115 20.115 0 00-.97-6.373 14.3 14.3 0 004.837-4.042 14.163 14.163 0 0010.557 4.624h4.011zm29.4 0v-4.134h5.2a14.137 14.137 0 0012.012-6.509 13.989 13.989 0 005.834 8.179c-.409.156-.819.309-1.228.456a14.973 14.973 0 00-5.492 3.428 14.384 14.384 0 00-6.25-1.42z" fill="#eb5e00"/><g data-name="グループ 17795" fill="#fff"><path data-name="パス 48649" d="M16.678 34.692a5.241 5.241 0 002.48-.691 52.914 52.914 0 0012.574-10.165 3.847 3.847 0 001.049-2.545 4.493 4.493 0 00-4.508-4.115 4.4 4.4 0 00-3.111 1.352 50.419 50.419 0 01-10.127 8.05 4.664 4.664 0 00-2.535 3.934 4.181 4.181 0 004.178 4.18z"/><path data-name="パス 48650" d="M70.265 25.582a58.639 58.639 0 00-10.141-8.277 4.847 4.847 0 00-2.723-.85 4.011 4.011 0 00-2.2 7.5 61.254 61.254 0 018.981 7.75 4.764 4.764 0 003.363 1.537 4.214 4.214 0 004.241-4.176 5.058 5.058 0 00-1.519-3.476z"/><path data-name="パス 48651" d="M55.62 40.44H42.146a103.444 103.444 0 0013.445-7.928 4.074 4.074 0 001.9-3.248 4.329 4.329 0 00-4.374-4.044 4.773 4.773 0 00-3.11 1.158 50.036 50.036 0 01-4.3 3.124 8.46 8.46 0 001.044-4.389v-9.817c0-2.353-2.168-3.583-4.308-3.583-2.076 0-4.176 1.208-4.176 3.516v8.961a1.5 1.5 0 01-.081.685c-.018.014-.138.081-.685.081a11.856 11.856 0 01-2.323-.242 3.921 3.921 0 00-.972-.087 3.838 3.838 0 00-3.847 3.978 3.968 3.968 0 003.406 3.969 33.29 33.29 0 004 .339 16.365 16.365 0 002.471-.175 112.231 112.231 0 01-26.966 10.1 3.982 3.982 0 00-3.269 3.889 4.09 4.09 0 004.175 4.176 5.928 5.928 0 001.024-.116l.2-.036a97.51 97.51 0 009.093-2.619V66.56c0 5.4 2.719 7.6 9.382 7.6h21.744c4.539 0 9.381-.588 9.381-7.6V48.044c.001-5.401-2.717-7.604-9.38-7.604zm-22.642 9.027V48.24c0-.97 0-1.095 1.491-1.095H54.96c1.557 0 1.557.125 1.557 1.095v1.227zm0 8.763v-2.322h23.539v2.322zm23.539 6.441v1.624c0 .96 0 1.161-1.557 1.161H34.473c-1.39 0-1.491-.161-1.491-1.161v-1.624z"/><path data-name="パス 48652" d="M132.913 56.385h-20.072V32.254h15.2a4.442 4.442 0 000-8.879H89.424a4.442 4.442 0 000 8.879h14.01v24.131h-19.94a4.442 4.442 0 000 8.88h49.418a4.442 4.442 0 000-8.88z"/><path data-name="パス 48653" d="M197.706 53.99a63.777 63.777 0 00-12.562-8.019 5.132 5.132 0 00-2.083-.459 4.181 4.181 0 00-4.176 4.176 4.03 4.03 0 002.236 3.557 77.715 77.715 0 0111.142 7.557 4.675 4.675 0 003.054 1.166 4.332 4.332 0 004.242-4.307 4.754 4.754 0 00-1.853-3.671z"/><path data-name="パス 48654" d="M185.74 38.774a8.674 8.674 0 002.354-5.494 5.168 5.168 0 00-1.558-3.762 8.664 8.664 0 00-6.316-2.061l-26.678.263a4.249 4.249 0 00.076 8.485l23.249-.329c.111 0 .2 0 .278.011a1.383 1.383 0 01-.094.1c-6.64 6.916-17.765 13.738-29.033 17.8a4.276 4.276 0 00-3.067 4.066 4.2 4.2 0 004.11 4.176 5.061 5.061 0 001.776-.31 99.751 99.751 0 0016.883-8.1l-.168 7.665v9.158c0 2.57 2.267 3.913 4.505 3.913 2.171 0 4.506-1.225 4.506-3.913v-22.9a67.5 67.5 0 009.177-8.768z"/><path data-name="パス 48655" d="M164.638 21.046a67.7 67.7 0 016.057 4.95 4.314 4.314 0 002.877 1.184 4.752 4.752 0 004.572-4.571 4.57 4.57 0 00-1.571-3.329 54.045 54.045 0 00-6.473-4.939 4.852 4.852 0 00-2.723-.85 4.525 4.525 0 00-4.505 4.308 3.952 3.952 0 001.766 3.247z"/><path data-name="パス 48656" d="M222.556 47.253v-25.9c0-2.785-2.367-4.241-4.7-4.241s-4.7 1.457-4.7 4.241v25.9c0 2.742 2.366 4.175 4.7 4.175s4.7-1.434 4.7-4.175z"/><path data-name="パス 48657" d="M243.22 16.127c-2.3 0-4.769 1.286-4.769 4.109v19.04c0 13.175-4.326 20.673-14.937 25.883a4.636 4.636 0 00-2.853 4.1 4.7 4.7 0 004.637 4.637 5.561 5.561 0 002.3-.6c13.633-6.5 20.26-17.453 20.26-33.491V20.236c0-2.697-2.333-4.109-4.638-4.109z"/><path data-name="パス 48658" d="M299.422 21.464l-33.6.329a4.225 4.225 0 00-4.242 4.374 4.513 4.513 0 004.581 4.636l31.75-.395c2.017 0 2.017.535 2.017.964a4.538 4.538 0 01-.168 1.109c-3.635 12.513-12.332 22.424-25.849 29.459a4.713 4.713 0 00-2.711 4.156 4.61 4.61 0 004.571 4.638 5.481 5.481 0 002.5-.6c15.83-7.715 27.435-21.6 31.041-37.136a17 17 0 00.482-3.93 6.976 6.976 0 00-1.892-5.166c-1.689-1.68-4.453-2.486-8.48-2.438z"/><path data-name="パス 48659" d="M363.348 36.816h-10.2l-.182-8.174c-.085-2.307-2.122-3.357-3.977-3.357a4.542 4.542 0 00-3.238 1.253 3.063 3.063 0 00-.872 2.287l.24 7.992h-18.8a3.761 3.761 0 000 7.5h14.845a59.328 59.328 0 01-18.422 15.651 4 4 0 00-2.313 3.563 3.95 3.95 0 003.912 3.978 4.3 4.3 0 002.08-.556 69.784 69.784 0 0019.31-16.215v8.454l.066 4.6v.263c0 .972-.116 1.03-1.029 1.03-.491 0-.97-.047-1.477-.1s-1.057-.1-1.621-.1a3.744 3.744 0 00-3.714 3.912 3.825 3.825 0 003.49 3.841l.191.024a32.094 32.094 0 004.25.311c4.925 0 7.867-2.965 7.867-7.931l-.445-20.731h10.039a3.548 3.548 0 003.517-3.781 3.511 3.511 0 00-3.517-3.714z"/><path data-name="パス 48660" d="M424.892 39.32h-48.1a4.51 4.51 0 000 9.011h48.1a4.51 4.51 0 000-9.011z"/><path data-name="パス 48661" d="M476.208 42.95a5.085 5.085 0 00-3.936-1.917 4.352 4.352 0 00-4.507 4.043 4.636 4.636 0 001.02 2.707 94.322 94.322 0 015.6 7.863c-6.453.986-13.33 1.838-20.474 2.536a305.769 305.769 0 0011.777-36.284 6.125 6.125 0 00.147-1.136c0-2.841-2.56-4.374-4.967-4.374a4.469 4.469 0 00-4.615 3.4 331.578 331.578 0 01-12.579 39.264c-.764.049-1.518.089-2.266.129-.961.051-1.914.1-2.854.169a4.515 4.515 0 00.174 9.009c.3 0 .983-.05 1.723-.107.436-.032.892-.067 1.3-.092a319.869 319.869 0 0037.1-4.909q.228.436.455.863c.672 1.27 1.306 2.471 1.837 3.677a4.532 4.532 0 004.108 2.742 4.755 4.755 0 004.835-4.637 5.529 5.529 0 00-.533-2.3 105.829 105.829 0 00-13.345-20.646z"/><path data-name="パス 48662" d="M534.132 61.339a30.744 30.744 0 00-6.9-3.913c-.332-3.356-.415-6.78-.455-9.809 1.89-.231 3.41-.47 4.742-.743a3.014 3.014 0 002.487-3.005 2.7 2.7 0 00-2.763-2.806 3.325 3.325 0 00-.687.054c-1.121.2-2.426.416-3.83.586v-5.114c0-3.571-5.954-3.571-5.954 0v5.677a76.3 76.3 0 01-4.517.125c-.371 0-.732-.021-1.092-.041a19.797 19.797 0 00-1.178-.045 2.762 2.762 0 00-2.805 2.891 2.9 2.9 0 002.633 3.013 21.149 21.149 0 002.443.091c1.634 0 3.138-.04 4.572-.122.038 2.356.112 5.021.306 7.729a19.71 19.71 0 00-2.009-.112c-6.773 0-9.186 3.594-9.186 6.959 0 4.253 3.354 7 8.544 7 6.091 0 8.11-3.2 8.756-5.694a31.78 31.78 0 013.249 2.242 3.468 3.468 0 002.084.8 3.081 3.081 0 003.014-3.063 3.335 3.335 0 00-1.454-2.7zm-15.008-.02a10.245 10.245 0 012.255.3c-.19 1.655-1.1 2.4-2.9 2.4-1.69 0-2.547-.425-2.547-1.263.002-.357.002-1.437 3.191-1.437z"/><path data-name="パス 48663" d="M504.82 33.911a2.973 2.973 0 00-3.085 2.251 81.142 81.142 0 00-1.38 32.193 3 3 0 003.137 2.558 3.093 3.093 0 003.234-2.892 1.987 1.987 0 00-.032-.316l-.1-.913a104.426 104.426 0 01-.851-11.875 80.42 80.42 0 012.248-17.506 2.638 2.638 0 00.064-.651 3.007 3.007 0 00-3.235-2.849z"/><path data-name="パス 48664" d="M599.644 37.9h-.005c-9.738-5.352-18.651-12.981-24.513-20.968a4.192 4.192 0 00.126-.975 4.237 4.237 0 00-4.374-4.044 4.523 4.523 0 00-3.941 2.282c-6.222 10.617-15.684 20.5-25.309 26.424a4.727 4.727 0 00-2.535 3.934 4.248 4.248 0 004.308 4.176 4.819 4.819 0 002.706-.84 92.773 92.773 0 0024.738-23.548c6.689 8.534 16 16.673 24.5 21.387a5.323 5.323 0 002.618.761 4.5 4.5 0 004.44-4.439 4.84 4.84 0 00-2.759-4.15z"/><path data-name="パス 48665" d="M579.839 44.572c2.353 0 3.583-2.035 3.583-4.045s-1.231-4.044-3.583-4.044h-17.132c-2.4 0-3.648 2.035-3.648 4.044s1.253 4.045 3.648 4.045z"/><path data-name="パス 48666" d="M582.409 48.281h-30.442a3.712 3.712 0 00-3.648 3.978 3.755 3.755 0 003.648 3.978h28.993c.687 0 .837.13.831.173a3.279 3.279 0 01-.094.491 66.194 66.194 0 01-5.2 11.965 5.217 5.217 0 00-.836 2.7 4.026 4.026 0 004.242 3.978 4.983 4.983 0 004.407-2.686 66.369 66.369 0 006.006-14.882 12.793 12.793 0 00.484-3.081c.003-4.203-3.057-6.614-8.391-6.614z"/><path data-name="パス 48667" d="M665.312 10.953a3.9 3.9 0 00-2.445-.955 3.409 3.409 0 00-3.517 3.187 2.92 2.92 0 00.933 2.1c1.444 1.507 3.3 3.484 4.822 5.407a3.615 3.615 0 002.9 1.48 3.325 3.325 0 003.385-3.253 3.806 3.806 0 00-.868-2.418 34.027 34.027 0 00-5.21-5.548z"/><path data-name="パス 48668" d="M658.494 26a3.375 3.375 0 002.792 1.576 3.432 3.432 0 003.385-3.386 3.472 3.472 0 00-.722-2.2 33.424 33.424 0 00-5.263-5.873 3.508 3.508 0 00-5.86 2.34 3.118 3.118 0 00.879 2.046A46.613 46.613 0 01658.494 26z"/><path data-name="パス 48669" d="M666.303 40.85a59.585 59.585 0 00-10.635-14.64 5.156 5.156 0 00-3.541-1.452 4.037 4.037 0 00-3.316 6.927 60.587 60.587 0 019.239 13.408 4.878 4.878 0 004.29 2.909 4.528 4.528 0 004.572-4.572 5.8 5.8 0 00-.607-2.576z"/><path data-name="パス 48670" d="M633.941 30.49c-.8 0-1.681 0-2.64.029q1-5.191 1.545-10.085v-.458a4.439 4.439 0 00-8.808-.282c-.42 3.654-1.024 7.53-1.8 11.526-3.107.357-6.662.81-9.988 1.462a4.168 4.168 0 00-3.572 4.163 3.894 3.894 0 003.912 4.11 4.316 4.316 0 001.012-.083c2.3-.483 4.535-.873 6.67-1.164a108.806 108.806 0 01-9.723 24.518 5.2 5.2 0 00-.685 2.4 4.174 4.174 0 004.374 4.044 4.739 4.739 0 004.21-2.489c4.37-7.695 8.3-18.133 11.082-29.443 1.542-.1 2.978-.157 4.277-.157 2.2 0 3.533.455 3.533 6.762a51.759 51.759 0 01-1.684 14.091c-1.057 3.668-2.044 4.07-3.892 4.07a25.8 25.8 0 01-3.029-.2l-.594-.059a1.027 1.027 0 01-.18-.026 2.047 2.047 0 00-.348-.041 4.122 4.122 0 00-4.11 4.374 4.291 4.291 0 003.861 4.3 30.84 30.84 0 004.6.339c6.969 0 10.226-2.833 12.452-10.828a62.346 62.346 0 001.806-15.949c-.001-10.738-3.444-14.924-12.281-14.924z"/><path data-name="パス 48671" d="M729.814 36.816h-19.281V27.25a107.741 107.741 0 0011.933-2.94 4.207 4.207 0 003.156-4.007 4.552 4.552 0 00-4.506-4.572 5.254 5.254 0 00-1.477.232 145.3 145.3 0 01-31.51 5.5 4.178 4.178 0 00-4.267 4.24 4.332 4.332 0 004.375 4.373 111.063 111.063 0 0013.153-1.27v6.714c0 .463 0 .885-.016 1.293h-21.308c-2.463 0-3.583 2.165-3.583 4.176s1.121 4.176 3.583 4.176h20.68c-1.376 8.932-5.011 14.636-12.043 18.97a4.771 4.771 0 00-2.469 4.067 4.576 4.576 0 004.571 4.571 5.412 5.412 0 002.833-.837c9.513-5.9 14.718-14.422 16.343-26.771h19.831c2.4 0 3.649-2.1 3.649-4.176s-1.252-4.173-3.647-4.173z"/><path data-name="パス 48672" d="M781.346 37.013a10.622 10.622 0 00-2.109.144l-16.005 2.52-1.906-9.961a3.911 3.911 0 00-4.1-3.112c-2.42 0-4.11 1.447-4.11 3.517a3.088 3.088 0 00.08.8l1.96 10.041-10.167 1.593a3.582 3.582 0 00-3.139 3.706 3.782 3.782 0 003.715 3.978 2.632 2.632 0 00.763-.083l10.3-1.656 4.541 23.473a3.774 3.774 0 003.9 3.04c2.025 0 4.176-1.279 4.176-3.648a2.566 2.566 0 00-.088-.776l-4.459-23.382 13.883-2.241a2.908 2.908 0 00.4-.055c-.018.033-.039.07-.064.111a30.561 30.561 0 01-5.661 7.013 4.281 4.281 0 00-1.493 3.053 4.167 4.167 0 004.175 4.045 4.561 4.561 0 003.214-1.389 39.98 39.98 0 007.929-10.67 9.137 9.137 0 001.141-4.235c0-3.539-2.701-5.826-6.876-5.826z"/><path data-name="パス 48673" d="M844.075 27.789a4.481 4.481 0 00-4.014 2.426c-7.535 13.438-21.282 24.964-36.761 30.828a4.308 4.308 0 00-3.067 4.2 4.749 4.749 0 004.7 4.769 5.34 5.34 0 002.045-.379 79.919 79.919 0 0041.113-35 5.21 5.21 0 00.751-2.468 4.605 4.605 0 00-4.767-4.376z"/><path data-name="パス 48674" d="M812.054 38.382a5.233 5.233 0 004.966-5.1 4.608 4.608 0 00-1.4-3.355 59.557 59.557 0 00-9.818-8.345 5.535 5.535 0 00-3.041-.977 5 5 0 00-4.967 4.77 4.375 4.375 0 001.873 3.558 95.508 95.508 0 018.889 7.909 4.87 4.87 0 003.498 1.54z"/><path data-name="パス 48675" d="M891.082 46.355a61.008 61.008 0 008.659-15.327 11.723 11.723 0 00.766-3.806c0-4.017-3.039-6.417-8.13-6.417l-26.643.462a4.178 4.178 0 00-3.955 4.439 4.553 4.553 0 001.3 3.273 3.72 3.72 0 002.757 1.035l23.575-.461a2.436 2.436 0 01.9.11 1.85 1.85 0 01-.208.768c-4.994 12.264-15.959 23.386-30.083 30.515a4.407 4.407 0 00-2.655 4.031 4.636 4.636 0 004.571 4.571 5.053 5.053 0 002.245-.539 76.932 76.932 0 0021.234-16.005 101.824 101.824 0 0115.542 14.954 4.886 4.886 0 003.743 1.854 4.967 4.967 0 004.966-4.7 5.394 5.394 0 00-1.435-3.456 98.289 98.289 0 00-17.149-15.301z"/><path data-name="パス 48676" d="M932.244 58.757a5.66 5.66 0 105.758 5.692 5.664 5.664 0 00-5.758-5.692z"/><path data-name="パス 48677" d="M927.345 29.054c.36 5.048.736 12.932 1.119 23.433a3.463 3.463 0 003.714 3.487 3.572 3.572 0 003.846-3.5c.2-7.475.663-17.107 1.119-23.425.04-.576.1-1.338.173-2.17.167-1.995.356-4.254.356-5.527a5.068 5.068 0 00-5.362-5.229c-3.286 0-5.494 2.1-5.494 5.229 0 1.243.216 3.824.373 5.71.073.878.135 1.606.156 1.992z"/></g></g></svg>