<svg xmlns="http://www.w3.org/2000/svg" width="62.945" height="59.15"><g data-name="グループ 18721"><path data-name="パス 331513" d="M62.82 53.19a.966.966 0 01-1.67.97l-1.32-2.28a6.632 6.632 0 01-.78-2.93V22.42a5.072 5.072 0 00-.53-1.97l-.83-1.44 1.67-.96.83 1.44a6.816 6.816 0 01.79 2.93v26.53a4.808 4.808 0 00.52 1.97z" fill="#009f44"/><path data-name="パス 331514" d="M60.46 16.31a.963.963 0 01-.36 1.31l-.74.43-.48-.83a.966.966 0 00-1.32-.35l.74-.43-6.91-11.98c-1.4-2.34-2.72-2.53-4.07-2.53a4.539 4.539 0 00-4.01 2.4l6.19 6.18a4.871 4.871 0 001.27-1.03.963.963 0 01.73-.33v-.01c.03 0 .06.01.09.01a.97.97 0 01.74.48l4.44 7.69.79-.45a.952.952 0 00-.35 1.31l.48.83-.79.46a.955.955 0 01-1.31-.35l-4.32-7.48a5.961 5.961 0 01-1.63.92.96.96 0 01-1.03-.22l-7.13-7.13a.959.959 0 01-.21-1.02A6.434 6.434 0 0147.33 0c1.89 0 3.9.42 5.72 3.48z" fill="#009f44"/><path data-name="パス 331515" d="M58.88 17.22l.48.83-1.67.96-.48-.83a.952.952 0 01.35-1.31.966.966 0 011.32.35z" fill="#009f44"/><path data-name="パス 331516" d="M51.39 4.46l6.91 11.98-.74.43-.79.45-4.44-7.69a.97.97 0 00-.74-.48c-.03 0-.06-.01-.09-.01v.01a.963.963 0 00-.73.33 4.871 4.871 0 01-1.27 1.03l-6.19-6.18a4.539 4.539 0 014.01-2.4c1.35 0 2.67.19 4.07 2.53z" fill="#fff"/><path data-name="パス 331517" d="M49.18 34.56v22.32a2.275 2.275 0 01-2.27 2.27H2.28A2.29 2.29 0 010 56.88V34.56a.975.975 0 01.97-.96.96.96 0 01.96.96v22.32a.361.361 0 00.35.35h44.63a.352.352 0 00.34-.35V34.56a.975.975 0 01.97-.96.96.96 0 01.96.96z" fill="#009f44"/><path data-name="パス 331518" d="M47.25 38.59v18.29a.352.352 0 01-.34.35H2.28a.361.361 0 01-.35-.35V38.59h1.93a.96.96 0 00.96.96 5.625 5.625 0 012.87.7 8.2 8.2 0 007.43 0 6.254 6.254 0 015.75 0 8.178 8.178 0 007.42 0 6.274 6.274 0 015.76 0 8.2 8.2 0 007.43 0 5.687 5.687 0 012.88-.7.96.96 0 00.96-.96z" fill="#fff"/><path data-name="パス 331519" d="M46.04 13.52a.952.952 0 01.35 1.31l-1.28 2.23a.958.958 0 01-.84.48 1.015 1.015 0 01-.48-.13.974.974 0 01-.35-1.32l1.29-2.22a.963.963 0 011.31-.36z" fill="#009f44"/><path data-name="パス 331520" d="M44.36 37.62a.965.965 0 010 1.93 5.687 5.687 0 00-2.88.7 8.2 8.2 0 01-7.43 0 6.274 6.274 0 00-5.76 0 8.178 8.178 0 01-7.42 0 6.254 6.254 0 00-5.75 0 8.2 8.2 0 01-7.43 0 5.625 5.625 0 00-2.87-.7.965.965 0 010-1.93h.12a7.605 7.605 0 013.59.89 5.753 5.753 0 002.87.7 5.662 5.662 0 002.88-.7 7.5 7.5 0 013.71-.89 7.587 7.587 0 013.71.89 6.274 6.274 0 005.76 0 7.5 7.5 0 013.71-.89 7.679 7.679 0 013.72.89 6.274 6.274 0 005.76 0 7.614 7.614 0 013.71-.89z" fill="#009f44"/><path data-name="パス 331521" d="M43.2 10.63a.962.962 0 01.28.68.945.945 0 01-.28.68l-1.81 1.82a.993.993 0 01-.69.28.96.96 0 01-.68-1.64l1.82-1.82a.972.972 0 011.36 0z" fill="#009f44"/><path data-name="パス 331522" d="M43.31 19.91a.937.937 0 01-.13.48l-1.28 2.23a.958.958 0 01-.84.48.912.912 0 01-.48-.13.963.963 0 01-.35-1.31l1.29-2.23a.96.96 0 011.79.48z" fill="#009f44"/><path data-name="パス 331523" d="M40.23 7.71a.963.963 0 01-.35 1.31l-2.23 1.28a.912.912 0 01-.48.13v.01a.979.979 0 01-.84-.49.963.963 0 01.36-1.31l2.22-1.29a.974.974 0 011.32.35z" fill="#009f44"/><path data-name="パス 331524" d="M39.62 24.64a.966.966 0 01.35 1.32l-1.28 2.22a.958.958 0 01-.84.48.912.912 0 01-.48-.13.952.952 0 01-.35-1.31l1.28-2.23a.966.966 0 011.32-.35z" fill="#009f44"/><path data-name="パス 331525" d="M38.66 15.17a.962.962 0 01.28.68.945.945 0 01-.28.68l-1.82 1.82a.962.962 0 01-.68.29.98.98 0 01-.68-.29.963.963 0 010-1.36l1.82-1.82a.972.972 0 011.36 0z" fill="#009f44"/><path data-name="パス 331526" d="M34.67 10.92a.963.963 0 01-.36 1.31l-2.22 1.29a1.015 1.015 0 01-.48.13.967.967 0 01-.49-1.8l2.23-1.28a.952.952 0 011.31.35z" fill="#009f44"/><path data-name="パス 331527" d="M34.12 19.72a.97.97 0 01.28.68 1.006 1.006 0 01-.28.68L32.3 22.9a.966.966 0 01-1.36 0 .966.966 0 010-1.37l1.82-1.81a.954.954 0 011.36 0z" fill="#009f44"/><path data-name="パス 331528" d="M29.1 14.13a.956.956 0 01-.35 1.31l-2.23 1.29a.985.985 0 01-.48.13.975.975 0 01-.83-.48.963.963 0 01.35-1.32l2.23-1.28a.954.954 0 011.31.35z" fill="#009f44"/></g></svg>