<svg data-name="グループ 17910" xmlns="http://www.w3.org/2000/svg" width="689.094" height="199.966"><g data-name="グループ 17909"><path data-name="パス 331076" d="M689.093 82.043a21.286 21.286 0 00-5.205-13.616 20.835 20.835 0 003.25-11.025 20.333 20.333 0 00-5.414-14.239 20.55 20.55 0 00-5.9-4.452 20.63 20.63 0 00-18.558-11.047 21.179 21.179 0 00-11.75 3.482 20.754 20.754 0 00-11.546-3.494h-.542a20.777 20.777 0 00-20.189 15.8c-.272 1.1-.492 2.2-.732 3.3-.409-.509-.809-1.026-1.224-1.53a23.337 23.337 0 00-10.775-7.489q.495-1.849.969-3.7c.043-.159.08-.321.118-.48a24.806 24.806 0 00.592-4.59q.025-.731-.012-1.465a22.835 22.835 0 00-22.817-21.7c-.191 0-.718.007-.788.007a22.565 22.565 0 00-21.981 17.15q-2.467 9.755-5.457 19.429a22.638 22.638 0 00-16.21-7.968c-.28-.015-.561-.022-.841-.022h-59.937c-.28 0-.561.007-.841.022a22.857 22.857 0 00-3.869.542 21.259 21.259 0 00-9.064-3.482 21.771 21.771 0 00-20.453-14.589 23.9 23.9 0 00-1.026.022 22.658 22.658 0 00-15.225 6.274q-.216.205-.426.419a20.959 20.959 0 00-4.773 7.672h-7.221q-.692 0-1.383.056a21.54 21.54 0 00-2.922.462 25.852 25.852 0 00-6.2-11.257c-.139-.145-.277-.289-.421-.429-5.352-5.284-12.811-7.965-22.167-7.965l-42.311.412a22.181 22.181 0 00-9.52 2.163 22.325 22.325 0 00-18.16-9.243c-.26 0-.52.005-.82.015l-.316.014a23.3 23.3 0 00-16 6.746 22.9 22.9 0 00-14.928-5.515 23 23 0 00-22.868 20.579 16.937 16.937 0 00-.094 1.792v3.393a23.471 23.471 0 00-4.123-5.438c-.267-.26-.54-.513-.824-.756a27.881 27.881 0 00-6.163-4 22.77 22.77 0 00-6.055-8.6 84.663 84.663 0 00-9.934-7.589 23.166 23.166 0 00-12.9-3.9 22.717 22.717 0 00-22.219 18.425 22.1 22.1 0 00-8.17 3.939 22.654 22.654 0 00-17.981-10.037c-.2-.009-.4-.012-.6-.012h-48.106c-.2 0-.4 0-.6.012a22.5 22.5 0 00-13.726 5.3A90.23 90.23 0 0088.96 9.792a23.03 23.03 0 00-12.295-3.874c-.268-.01-.535-.015-.8-.015a22.089 22.089 0 00-2.6.169A22.882 22.882 0 0057.52-.004a22.589 22.589 0 00-16.471 6.872c-.383-.021-.761-.056-1.147-.056h-.28a22.665 22.665 0 00-15.9 6.869 45.743 45.743 0 01-8.883 7.117A22.962 22.962 0 003.132 39.732c-.012.27-.017.539-.017.809a22.141 22.141 0 001.2 7.146A21.968 21.968 0 000 60.487a22.229 22.229 0 0018.061 22.157v2.8c0 12.845 7.561 26.569 28.787 26.569h27.094c13.62 0 21.591-5.662 25.569-13.107a22.509 22.509 0 008.631 2.016c.174.005.35.007.526.007h5.31a82.2 82.2 0 01-23.679 23.793 23.1 23.1 0 00-11.356 18.6c-.024.41-.031.819-.024 1.229a22.506 22.506 0 0014.445 20.5 21.688 21.688 0 0017.434 10.813c.183.012.52.027.7.034s.366.008.549.008h12.534c-.048.52-.078 1.039-.092 1.564q-.008.31-.005.621a22.187 22.187 0 0022.111 21.88l.576-.009a23.229 23.229 0 0020.224-12.31 99.212 99.212 0 002.581-5.041 22.187 22.187 0 0019.424 11.285c.22 0 .668-.01.672-.01a22.93 22.93 0 006.209-.954 22.593 22.593 0 007.508 2.286 55.817 55.817 0 007.912.564h.034c16.42 0 27.181-8.749 31.983-26 .046-.162.089-.325.128-.491.345-1.395.646-2.8.925-4.209a22.879 22.879 0 004.2.556c.144.007.67.012.67.012a22.59 22.59 0 0014.189-5.019 21.024 21.024 0 002.133.723 23.051 23.051 0 00-3.7 11.965c0 .142-.005.284-.005.427a22.837 22.837 0 0022.774 22.769h.2a23.7 23.7 0 0012.358-3.609c12.109-7.508 20.328-17.658 24.875-30.792h11.194a17.273 17.273 0 002.3-.156c.549-.075 1.08-.192 1.612-.3a21.722 21.722 0 0014.635 6.758c.079 0 1.072.031 1.173.031l2.571 13.283a21.838 21.838 0 0021.381 17.589s.427.009.641.009a22.02 22.02 0 0021.841-20.121c.009-.114.049-.74.055-.88.007-.2.012-.4.014-.593a22.958 22.958 0 004.939-2.875 23.055 23.055 0 0022.215 18.213h.316a23.638 23.638 0 008.6-1.612 116.854 116.854 0 0039.845-25.33 22.6 22.6 0 00-.3 3.534v.282a22.753 22.753 0 0022.552 22.552h.327a23.609 23.609 0 0010.481-2.542 112.776 112.776 0 0018.916-12.168q3.1 3.131 5.942 6.5a23.087 23.087 0 0017.563 8.53h.308a23.208 23.208 0 0016.91-7.313 24.086 24.086 0 0017.523 7.643c.106 0 .339 0 .443-.005a24.121 24.121 0 0020.911-35.385c.111-.641.2-1.291.248-1.951.038-.458.06-.911.065-1.226.244-9.067.8-20.752 1.361-28.479.045-.646.116-1.5.2-2.45.294-3.513.5-6.166.5-8.31 0-.2-.005-.4-.012-.607a24.007 24.007 0 00-1.41-7.286c.224.01.443.041.668.043h.39a23.082 23.082 0 0011.194-2.872 20.674 20.674 0 0011.226 3.347h.4a20.772 20.772 0 0010.014-2.581 31.5 31.5 0 008.459 1.13 30.433 30.433 0 0014.8-3.506 20.951 20.951 0 002.1.186c.221.008.439.012.66.012h.357a20.822 20.822 0 0020.5-20.812c.002-.12.002-.237 0-.353z" fill="#eb5e00"/><g data-name="グループ 17908" fill="#fff"><g data-name="グループ 17906"><path data-name="パス 48649" d="M25.415 45.731a6.54 6.54 0 003.089-.855 65.925 65.925 0 0015.665-12.665 4.787 4.787 0 001.306-3.171 5.6 5.6 0 00-5.614-5.128 5.483 5.483 0 00-3.877 1.684 62.8 62.8 0 01-12.62 10.03 5.808 5.808 0 00-3.157 4.9 5.208 5.208 0 005.208 5.205z"/><path data-name="パス 48650" d="M92.186 34.378a73.194 73.194 0 00-12.637-10.312 6.055 6.055 0 00-3.392-1.058 5 5 0 00-2.735 9.346 76.525 76.525 0 0111.192 9.657 5.938 5.938 0 004.192 1.915 5.252 5.252 0 005.284-5.2 6.315 6.315 0 00-1.893-4.332z"/><path data-name="パス 48651" d="M73.94 52.894H57.151a128.944 128.944 0 0016.753-9.878 5.079 5.079 0 002.366-4.048 5.4 5.4 0 00-5.45-5.04 5.947 5.947 0 00-3.875 1.443 62.518 62.518 0 01-5.358 3.893 10.566 10.566 0 001.3-5.471V21.56c0-2.932-2.7-4.465-5.368-4.465-2.586 0-5.2 1.5-5.2 4.381v11.167a1.888 1.888 0 01-.1.855c-.022.017-.171.1-.855.1a14.819 14.819 0 01-2.894-.3 4.973 4.973 0 00-1.21-.108 4.787 4.787 0 00-4.79 4.783v.174a4.941 4.941 0 004.245 4.946 41.211 41.211 0 004.983.422 20.39 20.39 0 003.079-.218 139.873 139.873 0 01-33.6 12.582 4.957 4.957 0 00-4.074 4.847 5.094 5.094 0 004.985 5.2h.217a7.276 7.276 0 001.275-.145l.253-.044a121.421 121.421 0 0011.331-3.263v22.962c0 6.729 3.388 9.474 11.691 9.474h27.094c5.657 0 11.69-.733 11.69-9.474V62.36c-.009-6.722-3.396-9.466-11.699-9.466zM45.733 64.143v-1.528c0-1.209 0-1.368 1.858-1.368h25.53c1.94 0 1.94.156 1.94 1.368v1.528zm0 10.92v-2.894h29.332v2.893zm29.332 8.026v2.024c0 1.2 0 1.446-1.94 1.446h-25.54c-1.732 0-1.858-.2-1.858-1.446v-2.024z"/><path data-name="パス 48652" d="M170.25 72.759h-25.01V42.693h18.935a5.535 5.535 0 000-11.064h-48.113a5.535 5.535 0 000 11.064h17.458v30.066h-24.849a5.535 5.535 0 000 11.066h61.579a5.535 5.535 0 000-11.066z"/><path data-name="パス 48653" d="M250.988 69.779a79.475 79.475 0 00-15.654-9.989 6.389 6.389 0 00-2.6-.573 5.21 5.21 0 00-5.2 5.2 5.018 5.018 0 002.786 4.433 97.031 97.031 0 0113.883 9.416 5.818 5.818 0 003.805 1.453 5.4 5.4 0 005.286-5.368 5.931 5.931 0 00-2.306-4.572z"/><path data-name="パス 48654" d="M236.078 50.822a10.813 10.813 0 002.934-6.838 6.448 6.448 0 00-1.94-4.687 10.8 10.8 0 00-7.864-2.564l-33.24.331a5.3 5.3 0 00.094 10.572l28.969-.41a2.472 2.472 0 01.342.014q-.056.067-.118.128c-8.274 8.618-22.137 17.117-36.177 22.183a5.328 5.328 0 00-3.822 5.067 5.238 5.238 0 005.128 5.2 6.307 6.307 0 002.212-.386 124.3 124.3 0 0021.037-10.1l-.208 9.551v11.413a5.129 5.129 0 005.352 4.894c.087 0 .174-.01.261-.019 2.7 0 5.616-1.527 5.616-4.876V61.764a84.125 84.125 0 0011.424-10.942z"/><path data-name="パス 48655" d="M209.783 28.728a84.668 84.668 0 017.548 6.168 5.373 5.373 0 003.59 1.475 5.922 5.922 0 005.7-5.7 5.7 5.7 0 00-1.957-4.149 67.517 67.517 0 00-8.066-6.154 6.056 6.056 0 00-3.392-1.058 5.642 5.642 0 00-5.614 5.368 4.922 4.922 0 002.191 4.05z"/><path data-name="パス 48656" d="M281.954 61.384V29.113a5.893 5.893 0 00-11.72 0v32.269a5.9 5.9 0 0011.72 0z"/><path data-name="パス 48657" d="M307.703 22.598c-2.863 0-5.944 1.6-5.944 5.128v23.728c0 16.411-5.39 25.761-18.613 32.253a5.78 5.78 0 00-3.554 5.106 5.856 5.856 0 005.778 5.778 6.91 6.91 0 002.865-.747c16.987-8.1 25.246-21.747 25.246-41.733V27.718a5.323 5.323 0 00-5.506-5.135c-.09.001-.181.008-.272.015z"/><path data-name="パス 48658" d="M377.735 29.248l-41.864.41a5.264 5.264 0 00-5.289 5.238v.212a5.623 5.623 0 005.469 5.775h.238l39.563-.492c2.513 0 2.513.667 2.513 1.2a5.616 5.616 0 01-.209 1.381c-4.53 15.593-15.367 27.942-32.211 36.709a5.876 5.876 0 00-3.378 5.18 5.745 5.745 0 005.7 5.782 6.845 6.845 0 003.118-.75c19.726-9.613 34.19-26.913 38.68-46.273a21.191 21.191 0 00.6-4.9 8.7 8.7 0 00-2.357-6.438c-2.111-2.089-5.556-3.094-10.573-3.034z"/><path data-name="パス 48659" d="M457.39 48.379h-12.715l-.227-10.185a4.55 4.55 0 00-4.886-4.188l-.072.005a5.663 5.663 0 00-4.036 1.561 3.8 3.8 0 00-1.085 2.85l.3 9.958h-23.424a4.686 4.686 0 000 9.341h18.5a73.943 73.943 0 01-22.956 19.5 4.979 4.979 0 00-2.882 4.445 4.921 4.921 0 004.875 4.958 5.363 5.363 0 002.592-.692 86.971 86.971 0 0024.062-20.2v10.536l.082 5.735v.328c0 1.21-.145 1.284-1.282 1.284-.612 0-1.209-.058-1.839-.12s-1.316-.126-2.019-.126a4.665 4.665 0 00-4.633 4.7c0 .06 0 .12.005.178a4.765 4.765 0 004.349 4.787l.238.031a40.077 40.077 0 005.3.388c6.137 0 9.8-3.694 9.8-9.883l-.554-25.832h12.51a4.42 4.42 0 004.392-4.448c0-.087 0-.176-.009-.263a4.375 4.375 0 00-4.1-4.631 1.845 1.845 0 00-.286-.017z"/><path data-name="パス 48660" d="M534.079 51.499h-59.937a5.621 5.621 0 000 11.228h59.938a5.621 5.621 0 000-11.228z"/><path data-name="パス 48661" d="M598.022 56.022a6.346 6.346 0 00-4.906-2.393 5.421 5.421 0 00-5.614 5.04 5.761 5.761 0 001.27 3.373 117.675 117.675 0 016.983 9.8c-8.035 1.229-16.61 2.289-25.513 3.159a381.2 381.2 0 0014.674-45.212 7.6 7.6 0 00.181-1.416 5.755 5.755 0 00-6.04-5.458c-.049 0-.1.005-.149.009a5.568 5.568 0 00-5.751 4.238 413.272 413.272 0 01-15.675 48.927c-.954.062-1.893.111-2.823.161-1.2.063-2.386.127-3.557.21a5.626 5.626 0 00.217 11.226c.369 0 1.224-.062 2.147-.133.542-.039 1.111-.084 1.619-.115a398.748 398.748 0 0046.225-6.117c.188.363.378.721.566 1.075.838 1.583 1.629 3.077 2.289 4.582a5.642 5.642 0 005.12 3.419 5.923 5.923 0 006.024-5.778 6.874 6.874 0 00-.663-2.86 131.887 131.887 0 00-16.624-25.737z"/><path data-name="パス 48662" d="M670.201 78.935a38.357 38.357 0 00-8.6-4.876c-.414-4.182-.511-8.448-.566-12.223 2.354-.287 4.25-.586 5.908-.925a3.761 3.761 0 003.1-3.745 3.361 3.361 0 00-3.222-3.494h-.221a4.193 4.193 0 00-.855.067c-1.4.246-3.023.513-4.773.73v-6.373c0-4.445-7.419-4.445-7.419 0v7.074a99.3 99.3 0 01-5.631.156c-.462 0-.911-.026-1.368-.051a24.38 24.38 0 00-1.468-.056 3.44 3.44 0 00-3.5 3.383v.22a3.616 3.616 0 003.282 3.761 26.169 26.169 0 003.043.113c2.036 0 3.91-.05 5.7-.152.048 2.935.14 6.257.381 9.63a24.992 24.992 0 00-2.5-.14c-8.44 0-11.454 4.479-11.454 8.671 0 5.3 4.18 8.719 10.645 8.719 7.59 0 10.1-3.981 10.912-7.095a39.759 39.759 0 014.05 2.793 4.314 4.314 0 002.6.993 3.841 3.841 0 003.761-3.816 4.159 4.159 0 00-1.805-3.364zm-18.7-.026a12.765 12.765 0 012.809.369c-.237 2.062-1.368 2.992-3.61 2.992-2.106 0-3.173-.53-3.173-1.573 0-.446 0-1.786 3.975-1.786z"/><path data-name="パス 48663" d="M633.676 44.759a3.7 3.7 0 00-3.845 2.8 101.1 101.1 0 00-1.72 40.116 3.741 3.741 0 003.91 3.186 3.852 3.852 0 004.029-3.6 2.314 2.314 0 00-.039-.393l-.125-1.137a129.433 129.433 0 01-1.06-14.8 100.151 100.151 0 012.8-21.813 3.3 3.3 0 00.08-.81 3.748 3.748 0 00-3.928-3.558z"/></g><g data-name="グループ 17907"><path data-name="パス 48664" d="M171.459 135.955a96.539 96.539 0 01-30.544-26.128 5.026 5.026 0 00-5.293-6.255 5.64 5.64 0 00-4.911 2.843 98.864 98.864 0 01-31.537 32.927 5.89 5.89 0 00-3.157 4.9 5.3 5.3 0 005.368 5.2 6.013 6.013 0 003.371-1.046 115.627 115.627 0 0030.824-29.342 108.872 108.872 0 0030.525 26.65 6.634 6.634 0 003.262.949 5.609 5.609 0 005.532-5.532 6.031 6.031 0 00-3.44-5.166z"/><path data-name="パス 48665" d="M146.782 144.273a5.077 5.077 0 000-10.086h-21.349a5.067 5.067 0 000 10.086z"/><path data-name="パス 48666" d="M149.984 148.891h-37.931a4.625 4.625 0 00-4.558 4.694c0 .087.005.174.012.263a4.679 4.679 0 004.39 4.951c.051 0 .1.005.156.007h36.127c.855 0 1.043.162 1.036.215a4.376 4.376 0 01-.116.612 82.492 82.492 0 01-6.477 14.909 6.482 6.482 0 00-1.041 3.364 5.016 5.016 0 005.069 4.964c.072 0 .145 0 .217-.007a6.212 6.212 0 005.491-3.346 82.837 82.837 0 007.484-18.545 16.057 16.057 0 00.6-3.84c-.001-5.237-3.813-8.241-10.459-8.241z"/><path data-name="パス 48667" d="M253.287 102.376a4.863 4.863 0 00-3.046-1.2 4.246 4.246 0 00-4.383 3.971 3.629 3.629 0 001.162 2.617c1.8 1.88 4.1 4.342 6.009 6.737a4.508 4.508 0 003.616 1.86 4.145 4.145 0 004.219-4.053 4.754 4.754 0 00-1.082-3.012 42.375 42.375 0 00-6.495-6.92z"/><path data-name="パス 48668" d="M244.797 121.131a4.205 4.205 0 003.479 1.964 4.275 4.275 0 004.219-4.219 4.327 4.327 0 00-.9-2.735 41.63 41.63 0 00-6.558-7.318 4.371 4.371 0 00-7.3 2.915 3.885 3.885 0 001.1 2.549 58.084 58.084 0 015.96 6.844z"/><path data-name="パス 48669" d="M254.522 139.631a74.243 74.243 0 00-13.252-18.242 6.42 6.42 0 00-4.412-1.809 5.031 5.031 0 00-4.132 8.631 75.531 75.531 0 0111.514 16.707 6.078 6.078 0 005.344 3.626 5.643 5.643 0 005.7-5.585v-.115a7.226 7.226 0 00-.756-3.209z"/><path data-name="パス 48670" d="M214.195 126.721c-1 0-2.094 0-3.289.036q1.249-6.467 1.925-12.567v-.576a5.532 5.532 0 00-10.977-.352c-.523 4.554-1.275 9.382-2.24 14.36-3.872.445-8.3 1.009-12.445 1.821a5.191 5.191 0 00-4.445 5.188 4.849 4.849 0 004.566 5.12c.1.007.205.009.309.009a5.4 5.4 0 001.262-.1 119.48 119.48 0 018.312-1.45 135.631 135.631 0 01-12.115 30.551 6.469 6.469 0 00-.855 2.992 5.2 5.2 0 005.356 5.043h.094a5.9 5.9 0 005.247-3.1 149.111 149.111 0 0013.809-36.688 79.667 79.667 0 015.33-.195c2.734 0 4.4.568 4.4 8.426a64.566 64.566 0 01-2.1 17.559c-1.318 4.571-2.547 5.072-4.85 5.072a32 32 0 01-3.775-.255l-.74-.074a1.393 1.393 0 01-.224-.032 2.658 2.658 0 00-.434-.051 5.128 5.128 0 00-5.139 5.118c0 .111 0 .221.01.332a5.344 5.344 0 004.812 5.357 38.458 38.458 0 005.73.422c8.684 0 12.743-3.53 15.516-13.493a77.67 77.67 0 002.248-19.873c.006-13.389-4.285-18.6-15.298-18.6z"/><path data-name="パス 48671" d="M333.661 134.604h-24.027v-11.92a134.382 134.382 0 0014.873-3.663 5.243 5.243 0 003.932-4.994 5.672 5.672 0 00-5.616-5.7 6.507 6.507 0 00-1.839.289 181.1 181.1 0 01-39.263 6.855 5.2 5.2 0 00-5.317 5.093v.191a5.4 5.4 0 005.346 5.45h.1a138.621 138.621 0 0016.389-1.583v8.371c0 .576 0 1.1-.021 1.61H271.67c-3.069 0-4.465 2.7-4.465 5.2s1.4 5.2 4.465 5.2h25.769c-1.71 11.131-6.245 18.239-15.006 23.637a5.94 5.94 0 00-3.077 5.069 5.7 5.7 0 005.7 5.7 6.749 6.749 0 003.53-1.043c11.854-7.351 18.34-17.97 20.365-33.359h24.71a5.252 5.252 0 000-10.408z"/><path data-name="パス 48672" d="M397.869 134.85a13.124 13.124 0 00-2.628.171l-19.943 3.14-2.373-12.4a4.873 4.873 0 00-5.106-3.879c-3.016 0-5.129 1.8-5.129 4.383a3.8 3.8 0 00.1 1l2.443 12.514-12.669 1.985a4.461 4.461 0 00-3.911 4.616 4.71 4.71 0 004.457 4.951c.058 0 .115.005.173.007a3.3 3.3 0 00.95-.1l12.837-2.063 5.659 29.248a4.7 4.7 0 004.857 3.788 4.827 4.827 0 005.2-4.426c0-.039.005-.08.009-.12a3.234 3.234 0 00-.109-.968l-5.556-29.135 17.3-2.792a3.856 3.856 0 00.5-.068 2.324 2.324 0 01-.08.138 38.12 38.12 0 01-7.054 8.739 5.328 5.328 0 00-1.86 3.805 5.191 5.191 0 005.2 5.041 5.683 5.683 0 004.005-1.73 49.814 49.814 0 009.878-13.3 11.393 11.393 0 001.422-5.277c-.009-4.418-3.367-7.268-8.572-7.268z"/><path data-name="パス 48673" d="M476.039 123.356a5.58 5.58 0 00-5 3.022c-9.389 16.745-26.52 31.113-45.807 38.413a5.364 5.364 0 00-3.822 5.231 5.916 5.916 0 005.86 5.942 6.665 6.665 0 002.547-.472 99.594 99.594 0 0051.231-43.615 6.513 6.513 0 00.935-3.077 5.738 5.738 0 00-5.944-5.444z"/><path data-name="パス 48674" d="M436.137 136.554a6.522 6.522 0 006.188-6.354 5.75 5.75 0 00-1.742-4.182 74.263 74.263 0 00-12.235-10.4 6.9 6.9 0 00-3.79-1.217 6.23 6.23 0 00-6.19 5.944 5.451 5.451 0 002.334 4.435 119.033 119.033 0 0111.078 9.855 6.069 6.069 0 004.357 1.919z"/><path data-name="パス 48675" d="M534.61 146.49a76.036 76.036 0 0010.791-19.1 14.623 14.623 0 00.954-4.742c0-5.005-3.788-8-10.13-8l-33.2.576a5.206 5.206 0 00-4.934 5.465l.005.067a5.672 5.672 0 001.624 4.079 4.637 4.637 0 003.435 1.289l29.376-.574a3.025 3.025 0 011.118.137 2.341 2.341 0 01-.26.957c-6.223 15.281-19.887 29.14-37.484 38.023a5.486 5.486 0 00-3.308 5.023 5.776 5.776 0 005.7 5.7 6.31 6.31 0 002.8-.672 95.9 95.9 0 0026.46-19.943 126.957 126.957 0 0119.367 18.634 6.087 6.087 0 004.665 2.31 6.19 6.19 0 006.188-5.86 6.722 6.722 0 00-1.788-4.306 122.479 122.479 0 00-21.379-19.063z"/><path data-name="パス 48676" d="M585.901 161.945a7.025 7.025 0 10.159 0h-.159z"/><path data-name="パス 48677" d="M579.798 124.929c.448 6.291.916 16.114 1.393 29.2a4.313 4.313 0 004.272 4.356c.118 0 .236 0 .356-.01a4.444 4.444 0 004.773-4.089 4.86 4.86 0 00.014-.268c.251-9.313.826-21.316 1.4-29.188.05-.718.128-1.667.215-2.7.207-2.486.443-5.3.443-6.888a6.768 6.768 0 00-13.527 0c0 1.549.268 4.766.465 7.115.093 1.084.17 1.992.196 2.472z"/></g></g></g></svg>