<svg xmlns="http://www.w3.org/2000/svg" width="61.01" height="61.02"><g data-name="グループ 18725"><path data-name="パス 331556" d="M2.24 1.93h25.41a1.654 1.654 0 00-.03.32v1.6H4.81a.975.975 0 00-.96.97V56.2a.96.96 0 00.96.96h22.81v1.61a1.654 1.654 0 00.03.32H2.24a.322.322 0 01-.32-.32V2.25a.322.322 0 01.32-.32z" fill="#fff"/><path data-name="パス 331557" d="M59.08 2.25v56.52a.316.316 0 01-.32.32h-28.9a.322.322 0 01-.32-.32V2.25a.322.322 0 01.32-.32h28.9a.316.316 0 01.32.32zM57.16 56.2V4.82a.977.977 0 00-.97-.97H32.43a.975.975 0 00-.96.97V56.2a.96.96 0 00.96.96h23.76a.962.962 0 00.97-.96z" fill="#fff"/><path data-name="パス 331558" d="M55.24 5.78v49.46H33.39l.01-49.46zM44.41 11.4a.965.965 0 00-1.37-1.36l-5.42 5.42a.972.972 0 000 1.36.939.939 0 00.68.29.922.922 0 00.68-.29zM41.3 9.37a1.012 1.012 0 00-.28-.69.984.984 0 00-1.37 0l-3.38 3.39a.954.954 0 000 1.36.922.922 0 00.68.29.939.939 0 00.68-.29l3.39-3.38a1.006 1.006 0 00.28-.68z" fill="#fff"/><path data-name="パス 331559" d="M27.62 5.78v49.46H5.78V5.78zM16.79 11.4a.962.962 0 00-1.36-1.36l-5.42 5.42a.954.954 0 000 1.36.922.922 0 00.68.29.939.939 0 00.68-.29zm-3.11-2.03a.96.96 0 00-1.64-.69l-3.39 3.39a.954.954 0 000 1.36.938.938 0 00.68.29.922.922 0 00.68-.29l3.39-3.38a.962.962 0 00.28-.68z" fill="#fff"/><path data-name="パス 331560" d="M61.01 2.25v56.52a2.253 2.253 0 01-2.25 2.25H31.79a.965.965 0 000-1.93h26.97a.316.316 0 00.32-.32V2.25a.316.316 0 00-.32-.32H31.79a.965.965 0 000-1.93h26.97a2.253 2.253 0 012.25 2.25z" fill="#eb5e00"/><path data-name="パス 331561" d="M57.16 4.82V56.2a.962.962 0 01-.97.96H32.43a.96.96 0 01-.96-.96V4.82a.975.975 0 01.96-.97h23.76a.977.977 0 01.97.97zm-1.92 50.42V5.78H33.4l-.01 49.46z" fill="#eb5e00"/><path data-name="パス 331562" d="M44.41 10.04a.972.972 0 010 1.36l-5.43 5.42a.922.922 0 01-.68.29.939.939 0 01-.68-.29.972.972 0 010-1.36l5.42-5.42a.966.966 0 011.37 0z" fill="#eb5e00"/><path data-name="パス 331563" d="M41.02 8.68a.978.978 0 010 1.37l-3.39 3.38a.939.939 0 01-.68.29.922.922 0 01-.68-.29.954.954 0 010-1.36l3.38-3.39a.984.984 0 011.37 0z" fill="#eb5e00"/><path data-name="パス 331564" d="M31.79 0a.965.965 0 010 1.93h-4.14A2.233 2.233 0 0129.86 0z" fill="#eb5e00"/><path data-name="パス 331565" d="M31.79 59.09a.965.965 0 010 1.93h-1.93a2.233 2.233 0 01-2.21-1.93h4.14z" fill="#eb5e00"/><path data-name="パス 331566" d="M2.24 0h27.62a2.233 2.233 0 00-2.21 1.93H2.24a.322.322 0 00-.32.32v56.52a.322.322 0 00.32.32h25.41a2.233 2.233 0 002.21 1.93H2.24A2.245 2.245 0 010 58.77V2.25A2.245 2.245 0 012.24 0z" fill="#eb5e00"/><path data-name="パス 331567" d="M27.65 1.93h2.21a.322.322 0 00-.32.32v2.57a.975.975 0 00-.96-.97h-.96v-1.6a1.654 1.654 0 01.03-.32z" fill="#eb5e00"/><path data-name="パス 331568" d="M29.86 59.09h-2.21a1.654 1.654 0 01-.03-.32v-1.61h.96a.96.96 0 00.96-.96v2.57a.322.322 0 00.32.32z" fill="#eb5e00"/><path data-name="パス 331569" d="M29.54 4.82V56.2a.96.96 0 01-.96.96h-.96V3.85h.96a.975.975 0 01.96.97z" fill="#eb5e00"/><path data-name="パス 331570" d="M27.62 55.24v1.92H4.81a.96.96 0 01-.96-.96V4.82a.975.975 0 01.96-.97h22.81v1.93H5.78v49.46z" fill="#eb5e00"/><path data-name="パス 331571" d="M16.79 10.04a.954.954 0 010 1.36l-5.42 5.42a.939.939 0 01-.68.29.922.922 0 01-.68-.29.954.954 0 010-1.36l5.42-5.42a.954.954 0 011.36 0z" fill="#eb5e00"/><path data-name="パス 331572" d="M13.4 8.68a.978.978 0 010 1.37l-3.39 3.38a.922.922 0 01-.68.29.938.938 0 01-.68-.29.954.954 0 010-1.36l3.39-3.39a.972.972 0 011.36 0z" fill="#eb5e00"/></g></svg>