<svg xmlns="http://www.w3.org/2000/svg" width="51.05" height="66"><g data-name="グループ 18720"><path data-name="パス 331502" d="M46.48 1.93L24.51 14.62a3.423 3.423 0 00-1.59 2.76v38.37h-3.27c-.01-1.5.53-1.93 0-1.93H17.3a.316.316 0 01-.32-.32V2.25a.322.322 0 01.32-.32z" fill="#fff"/><path data-name="パス 331503" d="M51.05 5.35v43.76a3.438 3.438 0 01-1.59 2.76L25.47 65.72a2.064 2.064 0 01-.98.28v-.01a1.411 1.411 0 01-.77-.2 1.7 1.7 0 01-.8-1.55V17.38a3.423 3.423 0 011.59-2.76L46.48 1.93h2.32a.316.316 0 01.32.32v.39L25.47 16.29a1.576 1.576 0 00-.63 1.09v46.47L48.49 50.2a1.528 1.528 0 00.63-1.1V5.35a.965.965 0 001.93 0z" fill="#009f44"/><path data-name="パス 331504" d="M51.05 2.25v3.1a.965.965 0 01-1.93 0v-3.1a.316.316 0 00-.32-.32h-2.32L48.49.77A1.717 1.717 0 0150.24.7a1.692 1.692 0 01.69.83.144.144 0 01.02.07 2.1 2.1 0 01.09.42 1.693 1.693 0 01.01.23z" fill="#009f44"/><path data-name="パス 331505" d="M50.95 1.6a1.428 1.428 0 01.09.42 2.1 2.1 0 00-.09-.42z" fill="#009f44"/><path data-name="パス 331506" d="M48.8 0a2.248 2.248 0 012.13 1.53 1.692 1.692 0 00-.69-.83 1.717 1.717 0 00-1.75.07l-2.01 1.16H17.3a.322.322 0 00-.32.32V53.5a.316.316 0 00.32.32h2.35a.975.975 0 01.97.96.965.965 0 01-.97.97H17.3a2.253 2.253 0 01-2.25-2.25V2.25A2.253 2.253 0 0117.3 0z" fill="#009f44"/><path data-name="パス 331507" d="M49.12 5.35V49.1a1.528 1.528 0 01-.63 1.1L24.84 63.85V17.38a1.576 1.576 0 01.63-1.09L49.12 2.64zM41.89 50V12.47a.958.958 0 00-.53-.87.968.968 0 00-.92.02l-4.96 2.87h-.01a1 1 0 00-.48.85v37.54a.967.967 0 00.49.84.878.878 0 00.47.13h.01a1.015 1.015 0 00.48-.13l5.05-2.93a.981.981 0 00.4-.79zm-11.55-4.77V31.8l-1.65-1.26a.963.963 0 10-1.17 1.53l.89.68v11.66l-.98.95a.963.963 0 00-.02 1.36.966.966 0 001.36.02z" fill="#fff"/><path data-name="パス 331508" d="M41.89 12.47V50a.981.981 0 01-.4.79l-5.05 2.93a1.015 1.015 0 01-.48.13h-.01a.878.878 0 01-.47-.13.967.967 0 01-.49-.84V15.34a1 1 0 01.48-.85h.01l4.96-2.87a.968.968 0 01.92-.02.958.958 0 01.53.87zm-1.93 36.99V14.12l-3.05 1.76v35.34z" fill="#009f44"/><path data-name="パス 331509" d="M39.96 14.12v35.34l-3.05 1.76V15.88z" fill="#fff"/><path data-name="パス 331510" d="M30.34 31.8v13.43l-1.57 1.51a.966.966 0 01-1.36-.02.963.963 0 01.02-1.36l.98-.95V32.75l-.89-.68a.963.963 0 111.17-1.53z" fill="#009f44"/><path data-name="パス 331511" d="M12 2.25V53.5a2.245 2.245 0 01-2.24 2.25H2.24A2.245 2.245 0 010 53.5V2.25A2.245 2.245 0 012.24 0h7.52A2.245 2.245 0 0112 2.25zM10.08 53.5V2.25a.329.329 0 00-.32-.32H2.24a.329.329 0 00-.32.32V53.5a.329.329 0 00.32.32h7.52a.329.329 0 00.32-.32z" fill="#009f44"/><path data-name="パス 331512" d="M10.08 2.25V53.5a.329.329 0 01-.32.32H2.24a.329.329 0 01-.32-.32V2.25a.329.329 0 01.32-.32h7.52a.329.329 0 01.32.32z" fill="#fff"/></g></svg>