<svg xmlns="http://www.w3.org/2000/svg" width="70.01" height="47.51"><g data-name="グループ 18722"><path data-name="パス 331529" d="M70.01 16.65v28.61a2.253 2.253 0 01-2.25 2.25H46.38a.962.962 0 00.97-.96v-.96h20.41a.331.331 0 00.32-.33V16.65a.316.316 0 00-.32-.32H47.35v-.96a.971.971 0 00-.97-.97h21.38a2.253 2.253 0 012.25 2.25z" fill="#009f44"/><path data-name="パス 331530" d="M68.08 26.13v19.13a.331.331 0 01-.32.33H47.35V26.13h1.94a.96.96 0 00.96.96h14.79a.96.96 0 00.96-.96z" fill="#fff"/><path data-name="パス 331531" d="M68.08 16.65v9.48H66a.962.962 0 00-.96-.97H50.25a.962.962 0 00-.96.97h-1.94v-9.8h20.41a.316.316 0 01.32.32z" fill="#fff"/><path data-name="パス 331532" d="M65.04 25.16a.965.965 0 010 1.93H50.25a.965.965 0 010-1.93z" fill="#009f44"/><path data-name="パス 331533" d="M47.35 45.59v.96a.965.965 0 01-1.93 0v-.96z" fill="#009f44"/><path data-name="パス 331534" d="M47.35 26.13v19.46h-1.93V16.33h1.93z" fill="#009f44"/><path data-name="パス 331535" d="M47.35 15.37v.96h-1.93v-.96a.965.965 0 111.93 0z" fill="#009f44"/><path data-name="パス 331536" d="M12.92 14.4h33.46a.969.969 0 00-.96.97v.96H11.95a.962.962 0 00.97-.96z" fill="#009f44"/><path data-name="パス 331537" d="M46.38 47.51H2.25A2.253 2.253 0 010 45.26V16.65a2.253 2.253 0 012.25-2.25h8.74v.97a.96.96 0 00.96.96h-9.7a.316.316 0 00-.32.32v28.61a.331.331 0 00.32.33h43.17v.96a.96.96 0 00.96.96z" fill="#009f44"/><path data-name="パス 331538" d="M45.42 26.13v19.46H2.25a.331.331 0 01-.32-.33V26.13h1.76a.969.969 0 00.97.96h37.79a.96.96 0 00.96-.96z" fill="#fff"/><path data-name="パス 331539" d="M45.42 16.33v9.8h-2.01a.962.962 0 00-.96-.97H4.66a.977.977 0 00-.97.97H1.93v-9.48a.316.316 0 01.32-.32h43.17z" fill="#fff"/><path data-name="パス 331540" d="M42.45 25.16a.965.965 0 010 1.93H4.66a.965.965 0 110-1.93z" fill="#009f44"/><path data-name="パス 331541" d="M19.82 5.6v1.42a.969.969 0 01-.96.97h-.01a.962.962 0 01-.96-.97V5.6c0-2.26-.95-3.67-2.48-3.67s-2.49 1.4-2.49 3.67v8.8h-1.93V5.6c0-3.87 2.22-5.6 4.42-5.6s4.41 1.73 4.41 5.6z" fill="#009f44"/><path data-name="パス 331542" d="M12.92 14.4v.97a.965.965 0 01-1.93 0v-.97z" fill="#009f44"/></g></svg>