<svg xmlns="http://www.w3.org/2000/svg" width="275.001" height="275.001"><g data-name="グループ 18149"><path data-name="パス 331765" d="M197.464 97.18l4.125-4.125-.264-.264-4.121 4.125-4.129-4.125-.264.264 4.125 4.125-4.147 4.158.264.264 4.151-4.158 4.165 4.158.264-.264zm-.275-3.751a1 1 0 00-.99.99 1 1 0 00.99.99 1 1 0 00.99-.99 1 1 0 00-.99-.99zm-2.761 2.761a1 1 0 00-.99.99 1 1 0 00.99.99 1 1 0 00.99-.99 1 1 0 00-.99-.99zm5.522 0a1 1 0 00-.99.99 1 1 0 00.99.99 1 1 0 00.99-.99 1 1 0 00-.99-.99zm-2.761 2.761a1 1 0 00-.99.99 1 1 0 00.99.99 1 1 0 00.99-.99 1 1 0 00-.99-.99zm8.679 1.76a.573.573 0 00.636.649.589.589 0 00.66-.649V93.77a.682.682 0 00-.726-.748 1.1 1.1 0 00-.814.363c-.572.517-1.067.924-1.661 1.386a.579.579 0 00-.253.506.572.572 0 00.616.594.69.69 0 00.484-.187c.4-.341.715-.649 1.056-.99z" fill="#009f44"/><g data-name="楕円形 776" fill="#e2f4ea" stroke="#009f44" stroke-width="5"><circle cx="137.5" cy="137.5" r="137.5" stroke="none"/><circle cx="137.5" cy="137.5" r="135" fill="none"/></g><path data-name="パス 331766" d="M128.327 211.56c-.05 6-.85 8.45-.9 8.625a1.56 1.56 0 01-1.65 1.1h-4.25l.575 3.25h4.85a3.433 3.433 0 003.425-2.525c1.2-3.175 1.275-10.85 1.325-13.475h-11.175c0-.35.025-.7.025-1.225v-2.5h13.3v-3.075h-23.525v3.075h6.95v2.5c0 7.225-1.475 10.7-7.425 14.375l2.225 2.9c3.55-2.35 7.4-5.825 8.275-13.025zm27.05 9.125c0 .4-.125.725-.775.725h-3.725l.55 3.15h4.725a2.288 2.288 0 002.4-2.425v-20.4h-21.6v22.825h3.2v-9.45h15.225zm-15.225-15.975h6.025v7.525h-6.025zm9.15 0h6.075v7.525h-6.075z" fill="#009f44"/><path data-name="パス 331767" d="M127.258 53.38c1.856 0 3.248-.435 3.248-2.552v-3.422c0-1.769-.986-2.552-3.248-2.552h-11.049c-2.262 0-3.248.783-3.248 2.552v3.422c0 1.769.986 2.552 3.248 2.552zm-10.353-2.03c-.522 0-.928-.058-.928-.667v-.609h11.513v.609c0 .493-.2.667-.928.667zm10.585-3.19h-11.513v-.61c0-.493.2-.667.928-.667h9.657c.725 0 .928.174.928.667zm-6.206 8.9h12.789a1.124 1.124 0 001.015-1.247c0-.638-.348-1.247-1.015-1.247h-24.592c-.667 0-.986.609-.986 1.247 0 .609.319 1.247.986 1.247h2.088v9.4c-.783.116-1.537.2-2.262.29a1.238 1.238 0 00-1.131 1.3 1.321 1.321 0 001.276 1.425h.145a69.218 69.218 0 008.671-1.711V70.2c0 .812.754 1.218 1.508 1.218s1.508-.406 1.508-1.218zm-3.016 0v1.45h-3.741v-1.45zm-3.741 7.05h3.741v1.16c-1.247.261-2.494.522-3.741.725zm3.741-3.567v1.537h-3.741v-1.537zm5.017-2.03a1.058 1.058 0 00-.986 1.16 1.058 1.058 0 00.986 1.16h.464a19.246 19.246 0 002.871 4.817 16.856 16.856 0 01-3.857 2.462 1.371 1.371 0 00-.928 1.276 1.386 1.386 0 001.364 1.392 1.352 1.352 0 00.638-.145 22.525 22.525 0 004.668-2.985 15.551 15.551 0 004.263 2.811 1.762 1.762 0 00.725.174 1.422 1.422 0 001.392-1.45 1.468 1.468 0 00-.986-1.363 13.7 13.7 0 01-3.422-2.088 14.261 14.261 0 002.262-3.422 4.247 4.247 0 00.435-1.711c0-1.305-1.015-2.088-2.929-2.088zm6.177 2.32c.377 0 .58.087.58.319a1.143 1.143 0 01-.145.406 13.7 13.7 0 01-1.45 2.2 14.834 14.834 0 01-1.885-2.929zm33.553-6a1.378 1.378 0 001.305-1.537 1.367 1.367 0 00-1.305-1.508h-9.889c.145-1.74.232-3.741.232-6.032a1.482 1.482 0 00-1.653-1.421 1.5 1.5 0 00-1.653 1.415c0 2.378-.058 4.35-.2 6.032h-9.022a1.367 1.367 0 00-1.305 1.508 1.378 1.378 0 001.305 1.54h8.669a15.317 15.317 0 01-2.811 6.989 19.183 19.183 0 01-6.931 5.831 1.66 1.66 0 00-.958 1.477 1.6 1.6 0 001.6 1.623 2.073 2.073 0 00.928-.232 22.808 22.808 0 007.972-6.868 18.631 18.631 0 002.726-5.481 24.812 24.812 0 0010.294 12.147 1.983 1.983 0 00.957.261 1.727 1.727 0 001.682-1.711 1.783 1.783 0 00-.986-1.537 26.529 26.529 0 01-2.581-1.711 22.917 22.917 0 01-5.133-5.452 23.55 23.55 0 01-2.668-5.336z" fill="#009f44"/><path data-name="パス 331768" d="M193.027 89.925l4.125-4.125-.264-.264-4.122 4.125-4.125-4.125-.264.264 4.125 4.125-4.15 4.158.264.264 4.15-4.158 4.166 4.158.264-.264zm-.275-3.751a1 1 0 00-.99.99 1 1 0 00.99.99 1 1 0 00.99-.99 1 1 0 00-.99-.99zm-2.761 2.761a1 1 0 00-.99.99 1 1 0 00.99.99 1 1 0 00.99-.99 1 1 0 00-.99-.99zm5.522 0a1 1 0 00-.99.99 1 1 0 00.99.99 1 1 0 00.99-.99 1 1 0 00-.99-.99zm-2.761 2.761a1 1 0 00-.99.99 1 1 0 00.99.99 1 1 0 00.99-.99 1 1 0 00-.99-.99zm8.008 1.177c.693-.627 1.232-1.111 2.145-2.068a3.668 3.668 0 001.342-2.739 2.224 2.224 0 00-2.453-2.354 3.456 3.456 0 00-2.3.968.573.573 0 00-.22.451.607.607 0 00.638.616.606.606 0 00.418-.187 2.119 2.119 0 011.475-.715c.693 0 1.122.418 1.122 1.243a3.123 3.123 0 01-.979 2.017 23.579 23.579 0 01-2.475 2.449.914.914 0 00-.341.751.645.645 0 00.649.7h4.059a.521.521 0 00.583-.56.529.529 0 00-.583-.572zm13.464-2.948l4.125-4.125-.264-.264-4.125 4.125-4.125-4.125-.269.264 4.13 4.125-4.147 4.158.264.264 4.147-4.158 4.169 4.158.264-.264zm-.275-3.751a1 1 0 00-.99.99 1 1 0 00.99.99 1 1 0 00.99-.99 1 1 0 00-.99-.99zm-2.761 2.761a1 1 0 00-.99.99 1 1 0 00.99.99 1 1 0 00.99-.99 1 1 0 00-.99-.99zm5.522 0a1 1 0 00-.99.99 1 1 0 00.99.99 1 1 0 00.99-.99 1 1 0 00-.99-.99zm-2.761 2.761a1 1 0 00-.99.99 1 1 0 00.99.99 1 1 0 00.99-.99 1 1 0 00-.99-.99zm8.151-2.552a.5.5 0 00-.517.539.506.506 0 00.517.55h.693c.968 0 1.54.528 1.54 1.364a1.466 1.466 0 01-1.584 1.485 2.671 2.671 0 01-1.639-.583.538.538 0 00-.319-.088.564.564 0 00-.583.572.6.6 0 00.242.506 3.759 3.759 0 002.3.693 2.647 2.647 0 002.9-2.64 2.025 2.025 0 00-1.573-1.958 1.644 1.644 0 001.3-1.738c0-1.254-.99-2.134-2.6-2.134a3.5 3.5 0 00-2.189.8.473.473 0 00-.165.4.622.622 0 00.616.616.538.538 0 00.4-.165 2.12 2.12 0 011.342-.55c.8 0 1.309.451 1.309 1.089 0 .781-.473 1.243-1.364 1.243z"/><path data-name="パス 331769" d="M129.843 120.58c-1.741-13.407-11.555-21.146-24.741-21.146-21.691 0-29.975 21.255-29.975 39.894 0 19.293 6.213 39.458 29.321 39.458 15.914 0 26.705-12.317 26.705-27.9a26.255 26.255 0 00-5.886-17 24.371 24.371 0 00-17.551-7.856c-7.412 0-12.971 2.507-17.222 8.5l-.218-.218c.436-8.5 3.379-23.217 14.606-23.217 5.341 0 9.265 4.36 10.246 9.483zm-25.833 17.113c7.957 0 11.663 7.194 11.663 14.388 0 6.867-4.251 13.952-11.663 13.952-7.739 0-12.317-7.085-12.317-14.17-.001-7.521 4.033-14.17 12.317-14.17zm34.444 1.09c0 30.411 12.862 40 27.9 40 15.26 0 28.122-9.592 28.122-40 0-29.757-12.862-39.349-28.122-39.349-15.038 0-27.901 9.592-27.901 39.349zm15.478 0c0-7.957 0-26.6 12.426-26.6 12.644 0 12.644 18.639 12.644 26.6 0 8.611 0 27.25-12.644 27.25-12.427 0-12.427-18.639-12.427-27.25z" fill="#009f44"/></g></svg>