<svg xmlns="http://www.w3.org/2000/svg" width="40.47" height="70"><g data-name="グループ 18726"><path data-name="パス 331573" d="M40.47 39.49v28.26A2.247 2.247 0 0138.22 70H2.25A2.247 2.247 0 010 67.75V39.5a2.233 2.233 0 001.93 2.21v26.04a.331.331 0 00.32.33h35.97a.331.331 0 00.32-.33V41.71a2.243 2.243 0 001.93-2.22z" fill="#eb5e00"/><path data-name="パス 331574" d="M40.47 2.24v37.25a.965.965 0 00-1.93 0V2.24a.316.316 0 00-.32-.32H2.25a.322.322 0 00-.32.32v37.25a.965.965 0 00-1.93 0V2.24A2.245 2.245 0 012.25 0h35.97a2.245 2.245 0 012.25 2.24z" fill="#eb5e00"/><path data-name="パス 331575" d="M40.47 39.49a2.243 2.243 0 01-1.93 2.22v-2.22a.965.965 0 011.93 0z" fill="#eb5e00"/><path data-name="パス 331576" d="M38.54 41.71v26.04a.331.331 0 01-.32.33H2.25a.331.331 0 01-.32-.33V41.71a1.656 1.656 0 00.32.03h1.61v23.45a.96.96 0 00.96.96h30.83a.96.96 0 00.96-.96V41.74h1.61a1.658 1.658 0 00.32-.03z" fill="#fff"/><path data-name="パス 331577" d="M38.54 39.49v2.22a1.658 1.658 0 01-.32.03h-1.61v-.96a.96.96 0 00-.96-.96v-.01h2.57a.316.316 0 00.32-.32z" fill="#eb5e00"/><path data-name="パス 331578" d="M38.54 2.24v37.25a.316.316 0 01-.32.32H2.25a.322.322 0 01-.32-.32V2.24a.322.322 0 01.32-.32h35.97a.316.316 0 01.32.32zm-1.93 34.69V4.81a.96.96 0 00-.96-.96H4.82a.96.96 0 00-.96.96v32.12a.96.96 0 00.96.96h30.83a.96.96 0 00.96-.96z" fill="#fff"/><path data-name="パス 331579" d="M36.61 41.74v23.45a.96.96 0 01-.96.96H4.82a.96.96 0 01-.96-.96V41.74h1.92v22.48h28.9V41.74z" fill="#eb5e00"/><path data-name="パス 331580" d="M36.61 40.78v.96h-1.93v-.96a.965.965 0 011.93 0z" fill="#eb5e00"/><path data-name="パス 331581" d="M36.61 4.81v32.12a.96.96 0 01-.96.96H4.82a.96.96 0 01-.96-.96V4.81a.96.96 0 01.96-.96h30.83a.96.96 0 01.96.96zm-1.93 31.15V5.78H5.78v30.18z" fill="#eb5e00"/><path data-name="パス 331582" d="M35.65 39.81v.01a.962.962 0 00-.97.96v.96H5.78v-.96a.96.96 0 00-.96-.96v-.01z" fill="#eb5e00"/><path data-name="パス 331583" d="M34.68 41.74v22.48H5.78V41.74zM16.8 47.36A.965.965 0 0015.43 46l-5.42 5.42a.972.972 0 000 1.36.938.938 0 00.68.29.922.922 0 00.68-.29zm-3.39-1.35a.965.965 0 10-1.37-1.36l-3.38 3.39a.96.96 0 00.68 1.64.97.97 0 00.68-.28z" fill="#fff"/><path data-name="パス 331584" d="M34.68 5.78v30.18H5.78V5.78zM16.8 11.4a.969.969 0 00-1.37-1.37l-5.42 5.43a.96.96 0 00.68 1.64.953.953 0 00.68-.28zm-3.11-2.04a.929.929 0 00-.28-.68.966.966 0 00-1.37 0l-3.38 3.39a.96.96 0 00.68 1.64.97.97 0 00.68-.28l3.39-3.39a.962.962 0 00.28-.68z" fill="#fff"/><path data-name="パス 331585" d="M16.8 10.03a.984.984 0 010 1.37l-5.43 5.42a.953.953 0 01-.68.28.96.96 0 01-.68-1.64l5.42-5.43a.984.984 0 011.37 0z" fill="#eb5e00"/><path data-name="パス 331586" d="M16.8 46a.972.972 0 010 1.36l-5.43 5.42a.922.922 0 01-.68.29.938.938 0 01-.68-.29.972.972 0 010-1.36L15.43 46a.966.966 0 011.37 0z" fill="#eb5e00"/><path data-name="パス 331587" d="M13.41 8.68a.929.929 0 01.28.68.962.962 0 01-.28.68l-3.39 3.39a.97.97 0 01-.68.28.96.96 0 01-.68-1.64l3.38-3.39a.966.966 0 011.37 0z" fill="#eb5e00"/><path data-name="パス 331588" d="M13.41 44.65a.972.972 0 010 1.36l-3.39 3.39a.97.97 0 01-.68.28.96.96 0 01-.68-1.64l3.38-3.39a.966.966 0 011.37 0z" fill="#eb5e00"/><path data-name="パス 331589" d="M5.78 40.78v.96H3.86v-.96a.96.96 0 111.92 0z" fill="#eb5e00"/><path data-name="パス 331590" d="M4.82 39.81v.01a.96.96 0 00-.96.96v.96H2.25a1.656 1.656 0 01-.32-.03v-2.22a.322.322 0 00.32.32z" fill="#eb5e00"/><path data-name="パス 331591" d="M1.93 39.49v2.22A2.233 2.233 0 010 39.5v-.01a.965.965 0 011.93 0z" fill="#eb5e00"/></g></svg>