<svg xmlns="http://www.w3.org/2000/svg" width="275.001" height="275.001"><g data-name="グループ 18150"><g data-name="楕円形 808" fill="#fcede2" stroke="#eb5e00" stroke-width="5"><circle cx="137.5" cy="137.5" r="137.5" stroke="none"/><circle cx="137.5" cy="137.5" r="135" fill="none"/></g><g data-name="グループ 18148" fill="#eb5e00"><path data-name="パス 331752" d="M130.071 209.577c-.06 7.2-1.02 10.14-1.08 10.35a1.872 1.872 0 01-1.98 1.32h-5.1l.69 3.9h5.82a4.119 4.119 0 004.11-3.03c1.44-3.81 1.53-13.02 1.59-16.17h-13.41c0-.42.03-.84.03-1.47v-3h15.96v-3.69h-28.23v3.69h8.34v3c0 8.67-1.77 12.84-8.91 17.25l2.67 3.48c4.26-2.82 8.88-6.99 9.93-15.63zm32.46 10.95c0 .48-.15.87-.93.87h-4.47l.66 3.78h5.67a2.746 2.746 0 002.88-2.91v-24.48h-25.92v27.39h3.84v-11.34h18.27zm-18.27-19.17h7.23v9.03h-7.23zm10.98 0h7.29v9.03h-7.29z"/><path data-name="パス 331753" d="M61.752 129.712c0-7.992 2.916-17.388 11.988-17.388 6.588 0 11.34 4.536 11.34 11.664-.108 9.288-9.18 13.932-15.876 18.468C56.14 151.312 45.44 158.76 45.34 176.26h55.512v-13.176H65.1c5.508-7.776 14.364-12.1 21.816-17.388s13.5-11.556 13.5-22.9c0-14.8-12.1-23.652-25.92-23.652-18.144 0-27.972 13.284-27.432 30.564zm46.332 8.424c0 30.132 12.744 39.636 27.648 39.636 15.12 0 27.864-9.5 27.864-39.636 0-29.484-12.744-38.988-27.864-38.988-14.904 0-27.648 9.504-27.648 38.988zm15.336 0c0-7.884 0-26.352 12.312-26.352 12.528 0 12.528 18.468 12.528 26.352 0 8.532 0 27-12.528 27-12.312 0-12.312-18.468-12.312-27zm47.412 0c0 30.132 12.744 39.636 27.648 39.636 15.12 0 27.864-9.5 27.864-39.636 0-29.484-12.744-38.988-27.864-38.988-14.904 0-27.648 9.504-27.648 38.988zm15.336 0c0-7.884 0-26.352 12.312-26.352 12.528 0 12.528 18.468 12.528 26.352 0 8.532 0 27-12.528 27-12.312 0-12.312-18.468-12.312-27z"/></g><path data-name="パス 331754" d="M127.258 53.38c1.856 0 3.248-.435 3.248-2.552v-3.422c0-1.769-.986-2.552-3.248-2.552h-11.049c-2.262 0-3.248.783-3.248 2.552v3.422c0 1.769.986 2.552 3.248 2.552zm-10.353-2.03c-.522 0-.928-.058-.928-.667v-.609h11.513v.609c0 .493-.2.667-.928.667zm10.585-3.19h-11.513v-.61c0-.493.2-.667.928-.667h9.657c.725 0 .928.174.928.667zm-6.206 8.9h12.789a1.124 1.124 0 001.015-1.247c0-.638-.348-1.247-1.015-1.247h-24.592c-.667 0-.986.609-.986 1.247 0 .609.319 1.247.986 1.247h2.088v9.4c-.783.116-1.537.2-2.262.29a1.238 1.238 0 00-1.131 1.3 1.321 1.321 0 001.276 1.425h.145a69.218 69.218 0 008.671-1.711V70.2c0 .812.754 1.218 1.508 1.218s1.508-.406 1.508-1.218zm-3.016 0v1.45h-3.741v-1.45zm-3.741 7.05h3.741v1.16c-1.247.261-2.494.522-3.741.725zm3.741-3.567v1.537h-3.741v-1.537zm5.017-2.03a1.058 1.058 0 00-.986 1.16 1.058 1.058 0 00.986 1.16h.464a19.246 19.246 0 002.871 4.817 16.856 16.856 0 01-3.857 2.462 1.371 1.371 0 00-.928 1.276 1.386 1.386 0 001.364 1.392 1.352 1.352 0 00.638-.145 22.525 22.525 0 004.668-2.985 15.551 15.551 0 004.263 2.811 1.762 1.762 0 00.725.174 1.422 1.422 0 001.392-1.45 1.468 1.468 0 00-.986-1.363 13.7 13.7 0 01-3.422-2.088 14.261 14.261 0 002.262-3.422 4.247 4.247 0 00.435-1.711c0-1.305-1.015-2.088-2.929-2.088zm6.177 2.32c.377 0 .58.087.58.319a1.143 1.143 0 01-.145.406 13.7 13.7 0 01-1.45 2.2 14.834 14.834 0 01-1.885-2.929zm33.553-6a1.378 1.378 0 001.305-1.537 1.367 1.367 0 00-1.305-1.508h-9.889c.145-1.74.232-3.741.232-6.032a1.482 1.482 0 00-1.653-1.421 1.5 1.5 0 00-1.653 1.415c0 2.378-.058 4.35-.2 6.032h-9.022a1.367 1.367 0 00-1.305 1.508 1.378 1.378 0 001.305 1.54h8.669a15.317 15.317 0 01-2.811 6.989 19.183 19.183 0 01-6.931 5.831 1.66 1.66 0 00-.958 1.477 1.6 1.6 0 001.6 1.623 2.073 2.073 0 00.928-.232 22.808 22.808 0 007.972-6.868 18.631 18.631 0 002.726-5.481 24.812 24.812 0 0010.294 12.147 1.983 1.983 0 00.957.261 1.727 1.727 0 001.682-1.711 1.783 1.783 0 00-.986-1.537 26.529 26.529 0 01-2.581-1.711 22.917 22.917 0 01-5.133-5.452 23.55 23.55 0 01-2.668-5.336z" fill="#eb5e00"/><path data-name="パス 331755" d="M222.656 89.925l4.125-4.125-.264-.264-4.121 4.125-4.129-4.125-.264.264 4.125 4.125-4.147 4.158.264.264 4.151-4.158 4.165 4.158.264-.264zm-.275-3.751a1 1 0 00-.99.99 1 1 0 00.99.99 1 1 0 00.99-.99 1 1 0 00-.99-.99zm-2.761 2.761a1 1 0 00-.99.99 1 1 0 00.99.99 1 1 0 00.99-.99 1 1 0 00-.99-.99zm5.522 0a1 1 0 00-.99.99 1 1 0 00.99.99 1 1 0 00.99-.99 1 1 0 00-.99-.99zm-2.761 2.761a1 1 0 00-.99.99 1 1 0 00.99.99 1 1 0 00.99-.99 1 1 0 00-.99-.99zm8.008 1.177c.693-.627 1.232-1.111 2.145-2.068a3.668 3.668 0 001.342-2.739 2.224 2.224 0 00-2.453-2.354 3.456 3.456 0 00-2.3.968.573.573 0 00-.22.451.607.607 0 00.638.616.606.606 0 00.418-.187 2.119 2.119 0 011.475-.715c.693 0 1.122.418 1.122 1.243a3.123 3.123 0 01-.979 2.017 23.579 23.579 0 01-2.475 2.449.914.914 0 00-.341.751.645.645 0 00.649.7h4.059a.521.521 0 00.582-.56.529.529 0 00-.583-.572z"/></g></svg>