<svg xmlns="http://www.w3.org/2000/svg" width="522.836" height="67.359"><g data-name="グループ 17969"><g data-name="グループ 17780"><path data-name="パス 48647" d="M521.189 42.871q.108-.606.16-1.231c.018-.235.03-.465.035-.7.146-5.356.474-12.223.8-16.714.028-.408.071-.927.118-1.5v-.045c.171-2.043.291-3.585.291-4.822 0-.153 0-.3-.01-.457a13.833 13.833 0 00-13.837-13.221c-.209 0-.42 0-.631.014a13.844 13.844 0 00-8.447 3.355 13.819 13.819 0 00-9.058-3.361c-.209 0-.42.005-.631.014a13.924 13.924 0 00-6.426 1.9 10.6 10.6 0 00-.784-.885l-.247-.248a10 10 0 00-7.076-2.944h-.01a10.032 10.032 0 00-3.435.608l-.348-.009h-.1c-.143 0-.286 0-.427.008a10.017 10.017 0 00-3.431-.607h-.011a10 10 0 00-7.076 2.944l-.247.248q-.316.32-.6.658-.606-.111-1.229-.166c-.2-.017-.407-.029-.618-.037-.118 0-.236-.006-.353-.006h-7.917a13.515 13.515 0 00-21.121-.008h-2.508a19.66 19.66 0 00-8.883 1.935 12.713 12.713 0 00-10.48-5.522c-.238 0-.478.007-.718.02h-.014a13.283 13.283 0 00-8.066 2.977h-.505a12.692 12.692 0 00-6.593 1.831 13.026 13.026 0 00-10.836-5.879 13.177 13.177 0 00-1.831.13 12.851 12.851 0 00-4.806 1.709c-.315 0-.632.015-.944.04a12.9 12.9 0 00-11.061 8.4c-.036.1-.071.2-.1.3a30.066 30.066 0 01-1.79 4.27 46.2 46.2 0 01-7.885-6.285 12.818 12.818 0 00-12.271-8.9c-.135 0-.271 0-.407.006a13.344 13.344 0 00-10.562 5.411 53.586 53.586 0 01-11.948 11.527c-.1-.106-.2-.212-.309-.316a14.127 14.127 0 00-5.648-3.4c-.1-6.948-5.784-12.365-13.028-12.365a13.273 13.273 0 00-9.07 3.46 17.528 17.528 0 00-7.661-1.67h-5.563a16.265 16.265 0 00-10.312 3.361 8.147 8.147 0 00-.476-.379 30.507 30.507 0 00-4.7-2.91c-.1-.051-.2-.1-.307-.147a13.514 13.514 0 00-5.409-1.232h-.212q-.6 0-1.193.057a13.64 13.64 0 00-4.733-.835 12.883 12.883 0 00-11.292 6.319 12.835 12.835 0 00-11.4-6.5 12.6 12.6 0 00-12.79 10.48 12.462 12.462 0 00-2.322 2.046 12.271 12.271 0 00-3.107 8.086h-.308a12.113 12.113 0 00-5.4-4.669v-.3c0-.152 0-.3-.01-.456a13 13 0 00-2-6.362 34.6 34.6 0 00-4.7-6.064A12.774 12.774 0 00185.559.01c-.121 0-.241-.006-.361-.006a12.3 12.3 0 00-9 3.949 12.485 12.485 0 00-2.593 1.241 13.089 13.089 0 00-7.633-2.437c-.138 0-.277 0-.415.006a13.336 13.336 0 00-12.017 8.227 40.309 40.309 0 01-6.513 10.288 13.071 13.071 0 00-11.36-6.723h-.427a12.632 12.632 0 00-6.667 1.9 12.949 12.949 0 00-8.555-3.39 12.975 12.975 0 00-.521-.011 12.785 12.785 0 00-7.1 2.129 12.653 12.653 0 00-2.5-5.533 34.837 34.837 0 00-5.185-5.5 12.779 12.779 0 00-7.884-3.077 12.265 12.265 0 00-.428-.008 30.531 30.531 0 00-16.1 11.258 13.278 13.278 0 00-20.331-4.4 10.193 10.193 0 00-.532-.485 16.156 16.156 0 00-10.443-3.837c-.29 0-.583.008-.874.024H34.94a10.258 10.258 0 00-1.163.068 12.622 12.622 0 00-2.9.691A12.591 12.591 0 0022.092.862h-.447a12.572 12.572 0 00-11.507 7.363 12.339 12.339 0 00-7.393 11.654 11.865 11.865 0 00.055 1.347c-.085.114-.168.23-.249.347a12.642 12.642 0 00.339 14.9 55.027 55.027 0 01-2.3 13.5l-.027.089a13.986 13.986 0 00-.56 3.68 12.622 12.622 0 0012.2 12.894c.138 0 .27.006.4.006h.172c.083 0 .165 0 .248-.007a12.966 12.966 0 007.694-2.9c5.2 1.66 11.232 2.129 18.087 2.129 5.945 0 11-.1 16.293-.615a12.813 12.813 0 008.616-4.246c3.644 1.968 8.214 2.822 15.012 2.829q.693.012 1.386.011a84.022 84.022 0 0015.68-1.479 13.032 13.032 0 008.742-5.821 12.889 12.889 0 0011.915 8.784h.292c.119 0 .239 0 .358-.006a13.456 13.456 0 006.011-1.667 51.4 51.4 0 0020.223-20.845 12.925 12.925 0 003.346 2.584 13.529 13.529 0 00-2.707 7.515c-.007.155-.011.31-.011.466a13.2 13.2 0 0013.148 13.16h.047a13.5 13.5 0 006.746-1.808 57.976 57.976 0 0015.225-12.352 12.287 12.287 0 006.684 4.9 14.219 14.219 0 003.451 3.857 18.67 18.67 0 0020.032.951c.362.034.726.051 1.09.051a12 12 0 003.767-.607 12.948 12.948 0 0011.046 5.84 13.5 13.5 0 006.884-1.867 13.7 13.7 0 0011.728.119 12.373 12.373 0 003.641.545c.316 0 .636-.012.952-.036l.2-.017a9.593 9.593 0 001.093-.167c.26.074.524.139.792.192a25.391 25.391 0 004.989.495 14.856 14.856 0 0011.24-4.578 12.717 12.717 0 001.336.153h.066c.233.013.451.019.669.019a11.5 11.5 0 002.419-.256q2.465-.442 4.917-.982a12.949 12.949 0 0010.9 5.93h.216a13.44 13.44 0 006.912-2.066 13.189 13.189 0 002.758.817 25.683 25.683 0 005.173.527h.311a16.129 16.129 0 0010.085-3.308 12.611 12.611 0 005.9 2.44 9.866 9.866 0 001.353.092h38.409a9.8 9.8 0 001.379-.1 12.591 12.591 0 006.711-3.122 13.583 13.583 0 004.083.875 12.92 12.92 0 0020.118-1.127c.081-.018.161-.035.241-.054a12.816 12.816 0 007.115 3.941l.078.014a29.163 29.163 0 005.142.457h.085a17.7 17.7 0 009.654-2.54 12.753 12.753 0 004.513.85h.088c.145 0 .29 0 .435-.007a13.206 13.206 0 001.706-.162 12.747 12.747 0 007.241 2.349h.509a11.454 11.454 0 001.358-.113l.153-.019a58.284 58.284 0 0014.016-3.606 51.868 51.868 0 0011.973 3.154 12.067 12.067 0 002.18.2h.142a12.9 12.9 0 0012.811-12.7v-.279a12.745 12.745 0 00-6.438-11.1v-.278a13.494 13.494 0 00-.652-4.143 12.4 12.4 0 006.182-7.708 9.982 9.982 0 002.225-.553c.123 0 .246.006.37.006s.267 0 .4-.007a10.037 10.037 0 005.554.429c.149 3 .3 6.631.455 10.864a12.412 12.412 0 00.189 1.981 14 14 0 0012.355 20.576h.324a13.876 13.876 0 008.862-3.4 13.944 13.944 0 009.121 3.408h.247a14.03 14.03 0 0012.127-20.624zM97.441 36.987a12.9 12.9 0 001.969-1.714 36.511 36.511 0 011.749 3.591 13.092 13.092 0 00-3.718-1.877zm8.494 8.382c-.049-.148-.1-.294-.155-.44.1.072.2.142.3.211-.046.076-.1.152-.145.229z" fill="#009f44"/><path data-name="グループ 17710" d="M474.021 20.037l-.247.247-3.91-3.9-3.889 3.9-.247-.247 3.889-3.9-3.868-3.868.247-.248 3.868 3.869 3.869-3.869.247.248-3.869 3.868zm-5.828-3.9a.928.928 0 11-.928-.928.939.939 0 01.929.928zm2.589-2.589a.928.928 0 11-.928-.928.938.938 0 01.928.929zm0 5.178a.928.928 0 11-.928-.928.938.938 0 01.928.929zm2.589-2.588a.928.928 0 11-.928-.928.938.938 0 01.924.927zm-425.8 16.21h-7.3c-4.36 0-6.22 1.629-6.22 5.447v5.127c0 3.818 1.861 5.447 6.22 5.447h7.4c4.235 0 6.124-1.679 6.124-5.447v-5.127c-.01-3.818-1.87-5.447-6.227-5.447zm.455 5.931v4.16c0 .636-.156.938-1.035.938h-6.143c-.8 0-1.035-.211-1.035-.938v-4.16c0-.636.155-.938 1.035-.938h6.143c.879 0 1.034.3 1.034.938zM33.521 27.461a3.1 3.1 0 00-1.313 2.4 2.818 2.818 0 002.931 2.689 3.192 3.192 0 002.259-.877 20.214 20.214 0 006.571-12.763h3.7c.793 0 .793.107.793.5a24.931 24.931 0 01-.711 5.357c-.259.95-.475.95-.9.95a8.877 8.877 0 01-1.642-.181 2.258 2.258 0 00-.584-.06 2.629 2.629 0 00-2.692 2.565v.173a2.7 2.7 0 002.339 2.733 19.964 19.964 0 003.109.246c3.157 0 5.078-1.639 5.872-5.014a36.243 36.243 0 00.833-7.826 4.408 4.408 0 00-1.131-3.293 6.138 6.138 0 00-4.51-1.435h-13.5a2.659 2.659 0 000 5.282h3.374a13.886 13.886 0 01-4.8 8.554zM12.643 56.643a3 3 0 002.82-2.385c.4-1.449.82-2.984 1.179-4.6 3.9 4.509 10.062 6.2 22.171 6.2 5.715 0 10.533-.1 15.47-.582a2.856 2.856 0 002.7-2.882 2.716 2.716 0 00-2.636-2.79H54.1c-.221 0-.724.039-1.253.082-.292.022-.593.047-.857.064-4.74.329-7.576.483-13.08.483-6.485 0-10.768-.4-13.8-1.3V41.29h4.084a2.655 2.655 0 000-5.234h-4.082v-4.63h4.808a2.674 2.674 0 000-5.282h-5.196v-3.763h3.792a2.4 2.4 0 002.258-2.538v-.059a2.375 2.375 0 00-2.141-2.585c-.037 0-.075-.006-.113-.008h-3.792v-3.792a2.625 2.625 0 00-2.693-2.553.852.852 0 00-.142.008 2.652 2.652 0 00-2.874 2.41c0 .046-.007.089-.009.134v3.792h-4.034a2.317 2.317 0 00-2.22 2.409 1.412 1.412 0 00.015.184 2.357 2.357 0 002.1 2.585l.1.008h4.034v3.767h-6.5a2.684 2.684 0 000 5.282h6.841v13.718a13.024 13.024 0 01-1.479-2.493c.221-1.921.521-5.018.521-6.126a2.667 2.667 0 00-2.687-2.645h-.1a2.527 2.527 0 00-2.686 2.358v.07a64.924 64.924 0 01-2.741 16.544 4.008 4.008 0 00-.161 1.082 2.61 2.61 0 002.525 2.692zm85.584-37.942a2.518 2.518 0 002.023 1.033 2.306 2.306 0 002.352-2.254 2.64 2.64 0 00-.612-1.7 24.822 24.822 0 00-3.8-4.048 2.744 2.744 0 00-1.712-.671 2.368 2.368 0 00-2.448 2.206 2.006 2.006 0 00.648 1.449c1.058 1.114 2.422 2.569 3.545 3.985zm-4.851 3.9a2.346 2.346 0 001.939 1.1 2.411 2.411 0 001.844-3.89 24.344 24.344 0 00-3.841-4.287 2.441 2.441 0 00-4.078 1.619 2.153 2.153 0 00.6 1.406 34.387 34.387 0 013.523 4.053zM78.821 53.836a73.838 73.838 0 0015.23-1.316 2.993 2.993 0 002.552-2.971 3.122 3.122 0 00-3.066-3.173h-.059a4.17 4.17 0 00-.818.107 66.567 66.567 0 01-14.13 1.3c-5.892 0-6.888-.766-6.888-3.066V36.63a75.282 75.282 0 0019.525-7.513 3.1 3.1 0 00-1.414-5.907 3.766 3.766 0 00-1.854.541 74.624 74.624 0 01-16.256 6.678v-12.66a3.3 3.3 0 00-6.54 0v27.718c-.005 6.243 3.458 8.349 13.714 8.349zm31.786-18.3a2.713 2.713 0 002.612 1.759 3.053 3.053 0 003.174-2.787 3.23 3.23 0 00-.167-1v-.013a38.23 38.23 0 00-3.422-6.7 3.009 3.009 0 00-2.581-1.458 2.923 2.923 0 00-3.077 2.642 2.554 2.554 0 00.4 1.376 46.505 46.505 0 013.057 6.175zm27.93-7.526l.026-.118a3.123 3.123 0 00.08-.593 3 3 0 00-3.222-2.738 2.674 2.674 0 00-2.771 2c-2.873 10.564-8.616 18.339-17.067 23.109a3.009 3.009 0 00-1.717 2.686 2.972 2.972 0 002.884 2.98 3.416 3.416 0 001.552-.438c9.415-5.1 17.166-15.393 20.231-26.889zm-18.554 4.989a2.679 2.679 0 002.618 1.876 2.939 2.939 0 003.077-2.738 3.078 3.078 0 00-.166-.951 34.751 34.751 0 00-3.131-6.658 2.911 2.911 0 00-2.633-1.466 2.786 2.786 0 00-3.028 2.525v.018a2.5 2.5 0 00.4 1.32 42 42 0 012.864 6.072zm61.426-11.822a2.343 2.343 0 002 1.266 2.408 2.408 0 002.4-2.352 2.559 2.559 0 00-.393-1.364 26.247 26.247 0 00-3.439-4.622 2.358 2.358 0 00-1.761-.814 2.4 2.4 0 00-2.448 2.2 2.028 2.028 0 00.484 1.333 30.168 30.168 0 013.153 4.347zm-.115 7.266a9.05 9.05 0 00.455-2.69 4.441 4.441 0 00-1.245-3.288c-1.089-1.076-2.851-1.62-5.221-1.578l-8.349.09c.724-1.4 1.339-2.7 1.874-3.978a3.706 3.706 0 00.269-1.259 3.113 3.113 0 00-3.24-2.981h-.031a3.251 3.251 0 00-3.044 2.094 50.6 50.6 0 01-11.56 16.5 3.742 3.742 0 00-1.34 2.625 3.06 3.06 0 003.125 2.98 3.6 3.6 0 002.5-1.025 51.28 51.28 0 007.828-9.09l10.615-.1c.89 0 .89.223.89.357a1.63 1.63 0 01-.125.55c-3.027 9.417-9.538 17.278-18.827 22.746a3.526 3.526 0 00-1.9 2.971 3.176 3.176 0 003.173 3.173 3.486 3.486 0 001.8-.487 47.98 47.98 0 0022.353-27.61zm5.3-10.681a2.6 2.6 0 002.136 1.249 2.3 2.3 0 002.352-2.247v-.053a2.983 2.983 0 00-.492-1.514 24.57 24.57 0 00-3.4-4.391 2.658 2.658 0 00-1.891-.8 2.3 2.3 0 00-2.4 2.11 2.071 2.071 0 00.527 1.325c.7.874 2.059 2.606 3.166 4.32zm19.22 17.87a30.124 30.124 0 014.424 2.136 2.226 2.226 0 001.157.342 2.142 2.142 0 002.081-2.145 2.354 2.354 0 00-1.235-1.99 20.247 20.247 0 00-4.914-2.184 2.633 2.633 0 00-.711-.11 2.207 2.207 0 00-2.209 2.151 1.925 1.925 0 001.407 1.797zm.331 14.35a19.775 19.775 0 012.975 1.735 2.113 2.113 0 003.382-1.7 2.189 2.189 0 00-1.033-1.824 22.212 22.212 0 00-5.775-2.715 22.955 22.955 0 01-.39-3.764 17.763 17.763 0 01.216-2.522l.012-.1a.892.892 0 00.024-.207 1.984 1.984 0 00-2.09-1.87l-.087.007a1.955 1.955 0 00-2.046 1.61 17.562 17.562 0 00-.225 3.114 21.166 21.166 0 00.242 2.867c-5.34-.433-7.662 2.279-7.662 4.962 0 3.116 2.4 4.975 6.421 4.975 3.56 0 5.726-1.654 6.037-4.57zm-6.038.626c-2.256 0-2.256-.67-2.256-1.03 0-.746.833-1.124 2.476-1.124a10.619 10.619 0 011.592.128v.43c0 1.1-.556 1.6-1.812 1.6zm-13.369-16.084a2.249 2.249 0 00.646 1.615 1.879 1.879 0 001.419.53c.922-.03 1.8-.082 2.622-.156a47.689 47.689 0 01-3.956 7.84 2.362 2.362 0 00-.415 1.331 2.132 2.132 0 002.176 2.083 2.5 2.5 0 002.117-1.333 58.027 58.027 0 004.8-10.435 68.877 68.877 0 004.213-.724 2.059 2.059 0 00-.309-4.093 1.692 1.692 0 00-.42.038c-.679.121-1.4.243-2.122.364.3-1.113.547-2.154.744-3.093a2.122 2.122 0 00.044-.509 1.981 1.981 0 00-2-1.96h-.114a2.056 2.056 0 00-2.106 1.687c-.311 1.557-.743 3.119-1.138 4.472-1.3.122-2.7.216-4.282.286a1.944 1.944 0 00-1.921 1.967l.002.087zm41.353 20.5v-13c.7.625 1.419 1.267 2 1.882a2.675 2.675 0 001.891.9 2.6 2.6 0 002.545-2.593 2.879 2.879 0 00-.959-2.05l-.16-.145c-.416-.379-.878-.8-1.4-1.231a25.458 25.458 0 002.2-2.68 2.732 2.732 0 00.505-1.488 2.463 2.463 0 00-2.448-2.351 2.365 2.365 0 00-1.991 1.1 19.86 19.86 0 01-2.138 2.654l-.05-.032v-1.917a38.574 38.574 0 004.608-7.908 7.373 7.373 0 00.663-2.874c0-2.411-1.747-3.85-4.672-3.85h-.791v-6.022c0-1.544-1.45-2.351-2.883-2.351-1.413 0-2.932.735-2.932 2.351v6.01h-3.065a2.366 2.366 0 00-2.219 2.5 1.029 1.029 0 00.013.136c0 1.584.906 2.691 2.206 2.691h7.448a1.068 1.068 0 01.5.068 1.244 1.244 0 01-.112.465 32.37 32.37 0 01-9.593 11.83 2.943 2.943 0 00-1.324 2.362 2.777 2.777 0 002.787 2.691 3.394 3.394 0 002.1-.768c.48-.385.972-.779 1.453-1.189v14.8c0 1.544 1.474 2.351 2.931 2.351 1.4 0 2.889-.823 2.889-2.35zm32.556-4.015V31.022c0-3.784-1.76-5.4-5.882-5.4h-4.131V23.31h9.934a2.675 2.675 0 000-5.283h-1.943a2.574 2.574 0 00-.413-3.733 20.337 20.337 0 00-3.134-1.94 3.61 3.61 0 00-1.427-.325 2.478 2.478 0 00-2.5 2.448 2.45 2.45 0 001.335 2.158 16.584 16.584 0 012.172 1.393h-4.028v-4.277c0-1.714-1.519-2.5-2.933-2.5s-2.931.782-2.931 2.5v4.278h-8.678a2.685 2.685 0 000 5.283h8.68v2.312h-3.7c-4.089 0-5.834 1.614-5.834 5.4v23.5c0 1.615 1.469 2.351 2.836 2.351s2.836-.736 2.836-2.351v-7.952h4v7.225a2.555 2.555 0 002.74 2.356h.048a2.474 2.474 0 014.755.185 15.363 15.363 0 003.032.3c3.53 0 5.168-1.793 5.168-5.641zm-10.159-17.3v-2.896h3.406c1.047 0 1.083.172 1.083.987v1.906zm4.49 4.992v2.94h-4.49v-2.942zm-10.062-7.885v2.893h-4v-1.906c0-.839.155-.987 1.034-.987zm0 7.885v2.94h-4v-2.942zm5.572 7.885h4.49v3.936c0 .649-.12.649-.406.649a6.874 6.874 0 01-1.272-.125 1.776 1.776 0 00-.566-.069 2.361 2.361 0 00-2.244 1.624zm39.65-17.8l4.105-.087c-.437 10.2-3.252 17.326-9.1 23.079a3.286 3.286 0 00-1.089 2.327 2.974 2.974 0 003.023 2.835 3.37 3.37 0 002.423-1.089 34.62 34.62 0 003.575-4.065 35.191 35.191 0 005.432-11.157 48.8 48.8 0 001.8-12.04l2.836-.043c1.094 0 1.132.164 1.132.938a115.32 115.32 0 01-1.4 19.036c-.232 1.344-.639 1.444-1.234 1.444a12.9 12.9 0 01-1.883-.18 2.9 2.9 0 00-.682-.062 2.949 2.949 0 00-2.934 2.964v.113a3.123 3.123 0 002.646 3.066 15.59 15.59 0 003.527.349c3.8 0 5.9-2.063 6.6-6.494a138.948 138.948 0 001.407-20.963c0-2.039-.427-3.412-1.346-4.32-.971-.96-2.469-1.411-4.734-1.37l-3.884.044v-9.013c0-1.748-1.57-2.544-3.029-2.544s-3.029.8-3.029 2.544v9.118l-4.276.044a2.526 2.526 0 00-2.509 2.541 1.505 1.505 0 00.009.2 2.966 2.966 0 00.834 2.135 2.416 2.416 0 001.78.645zm-21.439 23.457a1.511 1.511 0 00.5-.054 117.823 117.823 0 0018.789-4.96 2.755 2.755 0 001.877-2.667 2.7 2.7 0 00-2.559-2.833h-.038a3.163 3.163 0 00-1.026.175c-.067.027-.137.052-.2.076V19.17c0-3.5-.926-5.834-5.447-5.834h-5.562c-4.521 0-5.447 2.333-5.447 5.834v26.98l-1.3.23a2.719 2.719 0 00-2.326 2.78 2.9 2.9 0 002.712 3.076zm11.484-13.114v4.632c-1.544.406-3.131.819-4.729 1.163v-5.8zm0-10.11v4.824h-4.729v-4.827zm-4.729-5.283v-3.893c0-.985.2-1.036.793-1.036h3.147c.589 0 .792.051.792 1.036v3.889zm43.075 10.749a3.089 3.089 0 001.613-.445 75.582 75.582 0 009.3-6.506 2.934 2.934 0 00-.546 1.747 2.4 2.4 0 002.194 2.589h4.678v3.666h-13.032a2.372 2.372 0 00-2.262 2.477.616.616 0 00.007.113 2.4 2.4 0 002.193 2.59h13.094v9.427h-16.032a2.666 2.666 0 000 5.283h38.409a2.667 2.667 0 000-5.283h-16.223v-9.411h13.372a2.354 2.354 0 002.265-2.438c0-.052-.006-.1-.011-.156a2.327 2.327 0 00-2.042-2.577 2.547 2.547 0 00-.212-.015h-13.369V31.88h4.469a2.619 2.619 0 000-5.187h-15.238a2.163 2.163 0 00-.92.2 72.91 72.91 0 008.419-8.235 66.211 66.211 0 0018.677 14.632 4.232 4.232 0 001.88.48 3.061 3.061 0 003.029-3.076 3.246 3.246 0 00-2.031-2.989 56.752 56.752 0 01-18.216-13.628 2.168 2.168 0 00.125-.748 2.9 2.9 0 00-3.078-2.642 3.308 3.308 0 00-2.754 1.379 63.953 63.953 0 01-18.935 16.766 3.116 3.116 0 00-1.7 2.68 2.936 2.936 0 002.88 2.977zm9.566 14.177a2.819 2.819 0 002.428 1.351 2.971 2.971 0 003.03-2.738 2.694 2.694 0 00-.453-1.529 24.938 24.938 0 00-2.493-3.471 2.949 2.949 0 00-2.357-1.171 2.829 2.829 0 00-2.884 2.689 2.766 2.766 0 00.514 1.548c.807 1.121 1.36 1.986 2.061 3.083zm18.8-6.228a22.485 22.485 0 01-2.243 3.339 3.1 3.1 0 00-.66 1.792 2.708 2.708 0 002.786 2.545 2.863 2.863 0 002.257-1.121 29.316 29.316 0 002.75-4.075 3.046 3.046 0 00.44-1.459 2.738 2.738 0 00-2.786-2.593 2.834 2.834 0 00-2.544 1.573zm50.732 3.758a2.665 2.665 0 002.922-2.38c0-.04.007-.079.01-.119v-26.07a2.683 2.683 0 00-2.8-2.554 1.086 1.086 0 00-.129.009 2.711 2.711 0 00-2.97 2.424c0 .041-.007.081-.01.121v26.073c-.008 1.64 1.49 2.5 2.977 2.5zm-14.777 8.629v-3.718a2.444 2.444 0 001.875 1.135l.22.016c.584.041 1.137.082 1.841.082 3.32 0 4.867-1.7 4.867-5.352v-6.531c0-3.884-1.663-5.4-5.931-5.4h-2.873v-2.989h7.9a2.735 2.735 0 000-5.428h-7.9v-3.184h6.019a2.632 2.632 0 000-5.234h-6.017v-4.659a2.961 2.961 0 00-5.863 0v4.663h-1.532a16.23 16.23 0 00.6-1.774 3.13 3.13 0 00.167-.954 2.868 2.868 0 00-5.552-.76 40.029 40.029 0 01-3.5 7.72 3.494 3.494 0 00-.486 1.652 2.623 2.623 0 002.221 2.534h-.982a2.742 2.742 0 000 5.428h9.065v2.989h-2.776c-4.36 0-5.98 1.464-5.98 5.4v10.256c0 1.576 1.475 2.4 2.932 2.4 1.433 0 2.883-.825 2.883-2.4v-9.626c0-.653.072-.793.842-.793h2.1v14.535a2.961 2.961 0 005.863 0zm-10.651-29.732c.3-.508.6-1.031.911-1.632h3.876v3.186h-6.869a3.09 3.09 0 002.082-1.554zm10.651 15.2h2.244c.769 0 .842.141.842.793v5.561a.669.669 0 01-.052.343.273.273 0 01-.113.015 4.39 4.39 0 01-.725-.048h-.242a2.2 2.2 0 00-1.953 1.141zm14.454 12.84a2.843 2.843 0 002.321 2.875 19.061 19.061 0 003.464.3c4.454 0 6.27-1.774 6.27-6.125v-35.55a2.713 2.713 0 00-2.859-2.555l-.121.01c-1.5 0-3.028.874-3.028 2.545v34.68c0 1.132-.315 1.132-.648 1.132a11.409 11.409 0 01-2.046-.172 1.9 1.9 0 00-.565-.069 2.775 2.775 0 00-2.792 2.756c-.006.058.001.114.004.173zm20.156 1.483a3.337 3.337 0 002.985-2.021c3.1-6.3 4.541-13.458 4.541-22.533v-7.3c0-1.394.338-1.858 2.341-1.858h7.7a2.479 2.479 0 00-2.553 2.389v1.036h-4.906a2.3 2.3 0 00-2.212 2.385.622.622 0 00.007.114 2.324 2.324 0 002.136 2.5h4.974v2c0 3.607 1.609 5.012 5.738 5.012h7.014c4.129 0 5.739-1.4 5.739-5.012v-2h6.161a2.343 2.343 0 002.259-2.423v-.077a2.317 2.317 0 00-2.122-2.493c-.044 0-.088-.006-.133-.007h-6.161v-1.036a2.48 2.48 0 00-2.553-2.389h9.153a2.419 2.419 0 002.308-2.525c0-.039-.005-.078-.008-.117a2.393 2.393 0 00-2.179-2.586c-.041 0-.081-.006-.121-.007h-15.5v-2.736c0-1.384-1.226-2.351-2.98-2.351-1.481 0-2.98.807-2.98 2.351v2.727h-10.091c-4.87 0-7.042 1.89-7.042 6.126v7.884c0 8.344-1.278 14.88-4.026 20.58a3.7 3.7 0 00-.376 1.575 2.772 2.772 0 002.752 2.792h.134zm27.833-25.3v1.317c0 .872 0 .89-.84.89h-5.418c-.856 0-.89-.033-.89-.89v-1.32zm0-6.028v1.036h-7.149v-1.036a2.48 2.48 0 00-2.554-2.389h12.257a2.48 2.48 0 00-2.554 2.39zm11.1 33.057a2.176 2.176 0 00.586.063 2.851 2.851 0 002.884-2.814v-.119a2.752 2.752 0 00-2.386-2.782 46.909 46.909 0 01-8.869-2.129 26.158 26.158 0 003.06-2.731 5.46 5.46 0 001.766-3.777c0-1.866-1.478-4.043-5.641-4.043H429.21a2.324 2.324 0 00-2.21 2.433.3.3 0 00.005.067 2.353 2.353 0 002.15 2.541h2.613a35.89 35.89 0 005.556 5.56 45.547 45.547 0 01-10.733 2.607 2.708 2.708 0 00-2.538 2.687 2.843 2.843 0 002.8 2.884h.126a1.639 1.639 0 00.287-.031 1.484 1.484 0 01.2-.022 48.514 48.514 0 0015.325-4.635 42.09 42.09 0 0013.6 4.238zm-17.225-13.292h6.973a.231.231 0 11.21.286 26.633 26.633 0 01-3.452 2.534 27 27 0 01-3.731-2.82zM490.6 53.496a4 4 0 10-.094 0zm-3.462-29.989c.265 3.708.541 9.5.821 17.208a2.417 2.417 0 002.4 2.438c.066 0 .133 0 .2-.006a2.494 2.494 0 002.681-2.291c0-.049.007-.1.008-.146.149-5.491.487-12.565.822-17.2.03-.424.076-.984.126-1.6.124-1.461.261-3.116.261-4.043a3.853 3.853 0 00-7.7 0c0 .906.159 2.8.274 4.181.05.641.095 1.175.111 1.459zm18.141 0c.265 3.708.541 9.5.821 17.208a2.417 2.417 0 002.4 2.438c.066 0 .133 0 .2-.006a2.494 2.494 0 002.681-2.291c0-.049.007-.1.008-.146.149-5.491.487-12.565.822-17.2.03-.424.076-.984.126-1.6.122-1.461.261-3.116.261-4.043a3.853 3.853 0 00-7.7 0c0 .906.159 2.8.274 4.181.05.641.1 1.175.111 1.459zm3.461 21.949a4 4 0 10.089 0z" fill="#fff"/></g><g data-name="グループ 17969"><path data-name="パス 331082" d="M478.178 13.679c-.335.337-.648.643-1.036.98a.674.674 0 01-.476.186.563.563 0 01-.6-.589.573.573 0 01.248-.5 27.245 27.245 0 001.629-1.374 1.074 1.074 0 01.8-.36.674.674 0 01.713.742v6.879a.58.58 0 01-.648.643.564.564 0 01-.625-.643z" fill="#fff"/></g></g></svg>