<svg xmlns="http://www.w3.org/2000/svg" width="721.889" height="84.387"><g data-name="グループ 18153"><g data-name="グループ 18146"><g data-name="グループ 17714"><path data-name="パス 331756" d="M60.874 47.847a1.649 1.649 0 00-1.6 1.8 1.649 1.649 0 001.6 1.8h3.444v6.068h-4.8a1.663 1.663 0 00-1.6 1.845 1.685 1.685 0 001.6 1.845h4.715c-.451 5.166-2.214 8.856-5.207 11.6a2.4 2.4 0 00-.9 1.8 2.138 2.138 0 002.173 2.05 2.554 2.554 0 001.764-.723c3.813-3.526 6.068-8.442 6.519-14.719h5.043v13.653c0 1.189 1.107 1.763 2.173 1.763 1.107 0 2.173-.574 2.173-1.763V61.213h5.33a1.685 1.685 0 001.6-1.845 1.663 1.663 0 00-1.6-1.845h-5.33v-6.068h3.977a1.649 1.649 0 001.6-1.8 1.649 1.649 0 00-1.6-1.8h-5.535a37.88 37.88 0 002.75-6.035 2.429 2.429 0 00.164-.861 2.216 2.216 0 00-2.337-2.132 2.193 2.193 0 00-2.091 1.517 49.478 49.478 0 01-3.4 7.5zm12.751 3.608v6.068h-4.962v-6.068zM51.69 75.399c0 1.107 1.107 1.64 2.214 1.64s2.214-.533 2.214-1.64V53.59a1.777 1.777 0 00-1.845-1.64 59.824 59.824 0 003.69-10.294 3.165 3.165 0 00.082-.615 2.162 2.162 0 00-2.382-2.051 2.127 2.127 0 00-2.21 1.559 49.028 49.028 0 01-6.437 15.416 2.626 2.626 0 00-.492 1.435 2.136 2.136 0 002.173 2.05 2.335 2.335 0 002.009-1.148c.328-.492.656-.984.984-1.517zm15.58-35.055a2.29 2.29 0 00-1.845-.943 2.143 2.143 0 00-2.255 1.927 1.772 1.772 0 00.328 1.025c.574.861 1.271 2.05 1.763 2.952a2.1 2.1 0 001.886 1.148 2.215 2.215 0 002.255-2.091 2.491 2.491 0 00-.246-1.025 19.656 19.656 0 00-1.886-2.993zm30.586.41c-3.854 0-5.576 1.8-5.576 5.084v8.692c0 8.733-1.271 13.694-3.854 17.958a2.708 2.708 0 00-.41 1.394 2.2 2.2 0 002.255 2.132 2.472 2.472 0 002.092-1.271 27.518 27.518 0 003.936-11.48h8.651v9.881c0 1.189 1.107 1.763 2.214 1.763s2.213-.574 2.213-1.763v-9.881h8.979v6.4c0 1.23-.287 1.681-1.189 1.681a7.562 7.562 0 01-1.6-.164 1.839 1.839 0 00-.451-.041 2.122 2.122 0 00-2.131 2.169 2.125 2.125 0 001.8 2.132 16.436 16.436 0 003.038.25c3.526 0 5.04-1.972 5.04-5.5V45.838c0-3.28-1.681-5.084-5.535-5.084zm11.521 4.018h6.765c1.763 0 2.214.492 2.214 2.05v3.2h-8.979zm8.979 9.184v5.371h-8.979v-5.371zm-21.693 5.371c.082-1.6.123-3.157.123-4.756v-.615h8.159v5.371zm.123-9.307v-3.2c0-1.558.492-2.05 2.255-2.05h5.9v5.248zm52.726 16.4c-.734 1.97-2.989 4.305-6.31 5.74a2.3 2.3 0 00-1.599 2.091 2.327 2.327 0 002.337 2.3 3.022 3.022 0 001.107-.246c5.9-2.706 9.225-7.175 9.225-13.653a10.458 10.458 0 00-1.394-5.453 136.701 136.701 0 01-.287-7.093c4.264-.123 8.446-.246 12.095-.246a2.039 2.039 0 001.968-2.173 2.1 2.1 0 00-2.132-2.255c-3.649 0-7.749.082-12.013.2v-4.879a2.026 2.026 0 00-2.214-1.968 2.107 2.107 0 00-2.3 2.009c0 1.845 0 3.526.041 5-5.617.2-11.234.492-16.072.779a2.115 2.115 0 00-2.087 2.217 2.22 2.22 0 002.173 2.337c.451 0 1.394-.041 1.845-.082 4.264-.287 11.193-.615 14.186-.779l.123 3.28a9.63 9.63 0 00-2.46-.328c-3.813 0-6.355 2.788-6.355 6.806 0 4.674 2.952 7.38 6.97 7.38a4.52 4.52 0 003.034-1.025zm-3.4-9.184c1.763 0 2.87 1.435 2.87 3.28 0 1.886-1.025 2.87-2.419 2.87a3.051 3.051 0 01-2.829-3.239c.001-1.804.985-2.911 2.379-2.911zm37.474-5.33c1.189-1.312 1.476-2.05 1.476-2.788a1.307 1.307 0 00-1.394-1.312l.123-5.822a1.963 1.963 0 00-2.173-1.927 2.042 2.042 0 00-2.214 1.927l-.082 6.437-5.535.943a1.946 1.946 0 00-1.6 2.05 1.982 1.982 0 001.845 2.132 1.135 1.135 0 00.369-.041l4.879-.9-.082 2.5a111.475 111.475 0 01-6.847 11.48 2.109 2.109 0 00-.369 1.148 2.282 2.282 0 002.255 2.132 2.077 2.077 0 001.726-1.026l3.116-4.8-.123 9.225a2.041 2.041 0 002.173 2.091 2.074 2.074 0 002.214-2.091l.041-13.858c6.314-6.56 9.307-8.9 11.029-8.9.943 0 1.312.533 1.312 1.763v.41l-.738 13.94v.574c0 3.608 1.927 5.084 5.412 5.084 2.5 0 5.084-1.148 7.708-4.059a2.536 2.536 0 00.738-1.722 2.311 2.311 0 00-2.3-2.255 2.5 2.5 0 00-1.845.861c-1.886 2.009-3.075 2.419-3.936 2.419-.7 0-1.025-.2-1.025-1.066v-.164l.779-14.432v-.569c0-3.157-1.6-5.494-5.166-5.494-2.993 0-6.15 2.173-11.849 7.79zm55.842-8.487a1.939 1.939 0 00-2.132-1.886 1.939 1.939 0 00-2.132 1.886v6.109a72.136 72.136 0 01-5.043.164c-.738 0-1.435-.082-2.173-.082a1.934 1.934 0 00-1.968 2.05 2.068 2.068 0 001.886 2.173 19.626 19.626 0 002.255.082c1.6 0 3.321-.041 5.084-.164.041 2.993.123 5.986.369 8.979a21.088 21.088 0 00-2.706-.2c-5.33 0-8.077 2.542-8.077 5.945 0 3.69 2.87 5.986 7.462 5.986 5.084 0 7.421-2.46 7.872-5.863a31.721 31.721 0 014.059 2.706 2.6 2.6 0 001.558.615 2.222 2.222 0 002.173-2.214 2.488 2.488 0 00-1.106-2.015 28.671 28.671 0 00-6.846-3.812c-.369-3.485-.451-7.011-.492-10.537 1.763-.2 3.526-.451 5.125-.779a2.165 2.165 0 001.8-2.173 1.859 1.859 0 00-1.927-1.968 2.522 2.522 0 00-.533.041c-1.394.246-2.911.492-4.51.656zm-7.174 26.978c-2.05 0-3.157-.656-3.157-1.927 0-1.189.9-2.091 3.772-2.091a11.47 11.47 0 012.911.451c-.041 2.583-1.435 3.567-3.526 3.567zM216.92 43.173a81 81 0 00-2.257 17.753 79.717 79.717 0 00.945 12.792 2.175 2.175 0 002.3 1.845 2.24 2.24 0 002.378-2.05c0-.123-.041-.246-.041-.369a107.06 107.06 0 01-.9-12.177 78.276 78.276 0 012.173-16.933 1.839 1.839 0 00.041-.451 2.157 2.157 0 00-2.378-2.009 2.136 2.136 0 00-2.261 1.599zm23.78-1.64a34.1 34.1 0 011.763 4.223 1.629 1.629 0 001.558 1.148 1.539 1.539 0 001.6-1.558 1.918 1.918 0 00-.082-.656 26.327 26.327 0 00-1.927-4.428 1.565 1.565 0 00-1.394-.82 1.624 1.624 0 00-1.681 1.435 1.406 1.406 0 00.163.656zm4.633-1.927a34.285 34.285 0 011.93 4.184 1.647 1.647 0 001.558 1.148 1.6 1.6 0 001.6-1.6 1.9 1.9 0 00-.164-.779 24.069 24.069 0 00-2.009-4.141 1.738 1.738 0 00-1.476-.82 1.51 1.51 0 00-1.6 1.353 1.406 1.406 0 00.161.655zm33.661 12.054c2.624 0 4.592-.615 4.592-3.608v-4.838c0-2.5-1.394-3.608-4.592-3.608h-15.621c-3.2 0-4.592 1.107-4.592 3.608v4.838c0 2.5 1.394 3.608 4.592 3.608zm-14.637-2.87c-.738 0-1.312-.082-1.312-.943v-.857h16.277v.861c0 .7-.287.943-1.312.943zm14.965-4.51h-16.277v-.861c0-.7.287-.943 1.312-.943h13.653c1.025 0 1.312.246 1.312.943zm-8.774 12.587h18.081a1.59 1.59 0 001.435-1.763c0-.9-.492-1.763-1.435-1.763h-34.766c-.943 0-1.394.861-1.394 1.763 0 .861.451 1.763 1.394 1.763h2.952v13.284c-1.107.164-2.173.287-3.2.41a1.75 1.75 0 00-1.6 1.845 1.868 1.868 0 001.8 2.009h.205a97.86 97.86 0 0012.259-2.419v3.444c0 1.148 1.066 1.722 2.132 1.722s2.132-.574 2.132-1.722zm-4.264 0v2.05h-5.289v-2.05zm-5.289 9.963h5.289v1.64c-1.763.369-3.526.738-5.289 1.025zm5.289-5.043v2.173h-5.289v-2.17zm7.093-2.87a1.5 1.5 0 00-1.394 1.64 1.5 1.5 0 001.394 1.64h.656a27.21 27.21 0 004.059 6.806 23.83 23.83 0 01-5.453 3.487 1.938 1.938 0 00-1.312 1.8 1.959 1.959 0 001.927 1.968 1.912 1.912 0 00.9-.205 31.845 31.845 0 006.6-4.223 21.986 21.986 0 006.027 3.977 2.491 2.491 0 001.025.246 2.011 2.011 0 001.968-2.05 2.076 2.076 0 00-1.394-1.927 19.366 19.366 0 01-4.838-2.952 20.163 20.163 0 003.2-4.838 6 6 0 00.615-2.419c0-1.845-1.435-2.952-4.141-2.952zm8.733 3.28c.533 0 .82.123.82.451a1.616 1.616 0 01-.205.574 19.367 19.367 0 01-2.05 3.116 20.973 20.973 0 01-2.665-4.141zm45.8-8.487a1.947 1.947 0 001.845-2.173 1.933 1.933 0 00-1.845-2.132h-13.984c.2-2.46.328-5.289.328-8.528a2.1 2.1 0 00-2.337-2.009 2.117 2.117 0 00-2.337 2.009c0 3.362-.082 6.15-.287 8.528h-12.751a1.933 1.933 0 00-1.845 2.132 1.948 1.948 0 001.845 2.173h12.259a21.655 21.655 0 01-3.977 9.88 27.121 27.121 0 01-9.8 8.241 2.347 2.347 0 00-1.352 2.092 2.256 2.256 0 002.255 2.3 2.931 2.931 0 001.312-.328 32.245 32.245 0 0011.275-9.717 26.339 26.339 0 003.854-7.749 35.079 35.079 0 0014.555 17.175 2.8 2.8 0 001.353.369 2.441 2.441 0 002.378-2.419 2.52 2.52 0 00-1.391-2.173 37.508 37.508 0 01-3.649-2.419 32.4 32.4 0 01-7.257-7.708 33.3 33.3 0 01-3.772-7.544z" fill="#2e3032"/><path data-name="パス 331757" d="M633.638 43.711a1.463 1.463 0 00.039-.39 1.969 1.969 0 00-2.184-1.833 2.082 2.082 0 00-2.223 1.638l-.975 5.616a36.324 36.324 0 01-4.017-.624 1.9 1.9 0 00-.468-.039 2.023 2.023 0 00-1.989 2.106 1.993 1.993 0 001.677 1.95 28.386 28.386 0 004.1.624 131.738 131.738 0 00-.819 5.46 31.86 31.86 0 01-4.134-.741 2.16 2.16 0 00-.7-.078 2.031 2.031 0 00-1.989 2.145 2.124 2.124 0 001.638 2.106 31.5 31.5 0 004.68.78 37.3 37.3 0 00-.195 3.939c0 6.669 3.627 9.789 9.711 9.789 6.543 0 11.069-3.237 11.069-9.906a11.7 11.7 0 00-.585-3.588 2.3 2.3 0 00-2.3-1.677 2.038 2.038 0 00-2.223 1.872 3.01 3.01 0 00.078.585 10.623 10.623 0 01.468 2.886c0 3.861-2.3 5.382-6.591 5.382-3.432 0-5.187-1.443-5.187-5.655 0-.936.039-2.028.156-3.393h1.092a36.527 36.527 0 006.786-.624 2 2 0 001.68-2.067 1.971 1.971 0 00-1.911-2.067 1.327 1.327 0 00-.39.039 37.391 37.391 0 01-6.123.507h-.624c.273-1.833.585-3.627.819-5.46h1.092a41.021 41.021 0 004.329-.195 1.857 1.857 0 001.677-1.989 1.894 1.894 0 00-1.872-2.067h-.197c-1.209.117-2.5.195-4.017.195h-.273zm22.854 5.148c.429 5.382.624 8.931.819 15.366a1.6 1.6 0 001.755 1.6 1.669 1.669 0 001.833-1.6c.195-6.435.429-9.75.78-14.781.039-.624.195-2.184.195-3.081a2.54 2.54 0 00-2.73-2.574 2.563 2.563 0 00-2.811 2.574c0 .434.12 1.989.159 2.496zm2.613 19.227a2.906 2.906 0 00-2.964 2.925 2.874 2.874 0 002.964 2.886 2.874 2.874 0 002.964-2.886 2.906 2.906 0 00-2.964-2.925zm8.928-19.227c.429 5.382.624 8.931.819 15.366a1.6 1.6 0 001.755 1.6 1.669 1.669 0 001.833-1.6c.195-6.435.429-9.75.78-14.781.039-.624.195-2.184.195-3.081a2.54 2.54 0 00-2.73-2.574 2.563 2.563 0 00-2.808 2.574c.003.434.12 1.989.156 2.496zm2.616 19.227a2.906 2.906 0 00-2.964 2.925 2.874 2.874 0 002.964 2.886 2.874 2.874 0 002.964-2.886 2.906 2.906 0 00-2.964-2.925z" fill="#2e3032"/><path data-name="パス 331758" d="M561.181 56.302a56.674 56.674 0 01-1.148 12.256 2.57 2.57 0 01-2.788 2.214h-6.642l1.189 6.4h8.441a5.542 5.542 0 005.54-4.265c.533-1.6 2.009-8.569 2.091-22.55h-17.917v-4.8h21.238v-6.068h-38.704v6.069h11.029v3.936c0 10.58-3.077 17.14-11.849 22.064l4.141 5.74c9.02-5.863 12.218-13.079 13.489-20.992zm44.075 13.243c0 .615-.041 1.271-1.23 1.271h-5.658l1.107 6.355h7.667c4.1 0 4.469-2.829 4.469-4.756V39.451h-35.506v37.72h6.314V62.247h22.837zm-8.364-24.067h8.364v10.865h-8.364zm-14.473 0h8.364v10.865h-8.364z" fill="#eb5e00"/><path data-name="パス 331759" d="M358.597 30.281c0-7.918 2.889-17.227 11.877-17.227 6.527 0 11.235 4.494 11.235 11.556-.107 9.2-9.1 13.8-15.729 18.3-12.949 8.771-23.542 16.154-23.649 33.488h55V63.344h-35.419c5.457-7.7 14.231-11.984 21.614-17.227s13.371-11.449 13.371-22.684c0-14.659-11.98-23.435-25.676-23.435-17.976 0-27.713 13.161-27.178 30.281zm99.615-9.523c-1.715-13.16-11.342-20.76-24.289-20.76-21.293 0-29.426 20.867-29.426 39.164 0 18.936 6.1 38.736 28.784 38.736 15.622 0 26.216-12.093 26.216-27.394a25.773 25.773 0 00-5.778-16.692 23.924 23.924 0 00-17.227-7.7c-7.276 0-12.733 2.461-16.906 8.346l-.214-.214c.425-8.346 3.316-22.795 14.337-22.795 5.243 0 9.1 4.28 10.058 9.309zm-25.359 16.799c7.811 0 11.449 7.062 11.449 14.124 0 6.741-4.173 13.7-11.449 13.7-7.6 0-12.091-6.955-12.091-13.91 0-7.387 3.959-13.914 12.091-13.914zm33.812 1.07c0 29.853 12.626 39.271 27.392 39.271 14.98 0 27.606-9.416 27.606-39.269 0-29.213-12.626-38.631-27.606-38.631-14.766 0-27.392 9.418-27.392 38.629zm15.194 0c0-7.811 0-26.108 12.2-26.108 12.412 0 12.412 18.3 12.412 26.108 0 8.453 0 26.75-12.412 26.75-12.2 0-12.2-18.297-12.2-26.75z" fill="#eb5e00"/></g></g><g data-name="グループ 18147" fill="none" stroke="#eb5e00" stroke-linecap="round" stroke-width="4"><path data-name="パス 48619" d="M33.088 81.651L2.736 29.729"/><path data-name="パス 48620" d="M688.8 81.651l30.352-51.922"/></g></g></svg>