<svg xmlns="http://www.w3.org/2000/svg" width="177.575" height="85.718"><g data-name="グループ 17902"><g data-name="グループ 17587"><path data-name="パス 48408" d="M2.371 68.672a2.376 2.376 0 01-2.375-2.375V2.375a2.376 2.376 0 013.493-2.1l24.959 13.312a2.374 2.374 0 011.259 2.1v37.826a2.379 2.379 0 01-1.292 2.114L3.454 68.411a2.376 2.376 0 01-1.083.261zM4.746 6.335v56.076l20.21-10.35V17.112z" fill="#009f44"/><path data-name="パス 48409" d="M12.724 85.718a2.376 2.376 0 01-2.375-2.375V19.421a2.376 2.376 0 013.493-2.1l24.961 13.312a2.375 2.375 0 011.257 2.1v37.825a2.375 2.375 0 01-1.292 2.114L13.807 85.456a2.373 2.373 0 01-1.083.262zm2.375-62.339v56.078l20.21-10.352V34.157z" fill="#eb5e00"/><g data-name="グループ 17582" fill="#eb5e00"><g data-name="グループ 17581"><path data-name="パス 48410" d="M85.658 27.653l2.838-.2 1.11-.065q.065-2.348.065-3.327l-.032-2.022h3.066q.032.653.032 2.12 0 1.957-.065 3h3.458a4.066 4.066 0 013.277 1.321 7.754 7.754 0 011.355 4.421q.26 2.8.261 4.958a14.745 14.745 0 01-1.142 6.46 4.227 4.227 0 01-3.946 2.381 13.848 13.848 0 01-3.491-.326v-3.2a14.869 14.869 0 003.1.456 1.877 1.877 0 001.387-.538 2.586 2.586 0 00.668-1.549 32.705 32.705 0 00.295-4.763q0-1.566-.131-3.719a3.882 3.882 0 00-.718-2.233 2.179 2.179 0 00-1.729-.669h-1.337q-.326 0-1.5.065a65.778 65.778 0 01-1.24 8.988 56.357 56.357 0 01-2.218 7.552h-3.359a40.472 40.472 0 002.413-7.422 62.293 62.293 0 001.4-8.856q-2.121.164-3.816.36z"/><path data-name="パス 48411" d="M111.657 38.124v-8.677h3.066v5.382a12.674 12.674 0 016.818-2.935c.216-.022.543-.032.979-.032a8.129 8.129 0 013.685.815 6.887 6.887 0 013.883 6.589 6.654 6.654 0 01-2.643 5.725q-2.642 1.939-7.829 1.94a38.386 38.386 0 01-5.774-.489v-3.066a35.15 35.15 0 005.839.522 11.786 11.786 0 004.372-.619 4.773 4.773 0 002.2-1.6 4.076 4.076 0 00.767-2.478 3.929 3.929 0 00-1.42-3.2 5.418 5.418 0 00-3.572-1.175 6.842 6.842 0 00-1.142.1 8.107 8.107 0 00-2.757.93 26.867 26.867 0 00-2.723 1.776 5.015 5.015 0 01-.653.489z"/></g><path data-name="パス 48412" d="M103.86 23.022a39.955 39.955 0 013.491 11.613h-3.458a34.887 34.887 0 00-3.426-11.613z"/><path data-name="パス 48413" d="M114.234 22.533q1.436-.1 2.838-.1a67.185 67.185 0 018.514.621v3.066a50.7 50.7 0 00-8.09-.653q-.914 0-3.262.065z"/></g><g data-name="グループ 17585" fill="#009f44"><g data-name="グループ 17583"><path data-name="パス 48414" d="M108.444 73.072a7.235 7.235 0 003.531-1.9 7.391 7.391 0 001.525-2.385 8.918 8.918 0 00.607-3.3v-7.726h2.27v7.726q-.022 5.021-3.073 7.613a10.579 10.579 0 01-2.383 1.571 12.677 12.677 0 01-2.477.837z"/><path data-name="パス 48415" d="M145.831 62.847h2.179v1.945h-2.179v10.94h-2.04v-9.125a25.213 25.213 0 01-3.291 4.953 20.706 20.706 0 01-4.161 3.806v-2.474a20.424 20.424 0 003.634-3.76 18.357 18.357 0 002.465-4.333h-6.053V62.85h7.406v-2.388h2.04z"/><path data-name="パス 48416" d="M150.413 65.162h9.906v2.27h-9.906z"/><path data-name="パス 48417" d="M169.664 58.169q-.734 3.439-1.422 6.008a77.973 77.973 0 01-2.659 8.162h9.034a42.392 42.392 0 00-2.247-7.611h2.362q.939 2.407 1.73 5.124a39.331 39.331 0 011.113 4.757h-14.56v-2.614q.963-2.454 1.628-4.311.756-2.131 1.468-4.676t1.169-4.839z"/><path data-name="長方形 4285" d="M105.142 57.756h2.27v9.424h-2.27z"/><path data-name="パス 48418" d="M120.357 60.805v-2.293h12.772v2.707a16.328 16.328 0 01-.883 5.193 12.477 12.477 0 01-2.419 4.161 11.246 11.246 0 01-2.8 2.316 17.035 17.035 0 01-5.182 1.881V72.5a14.335 14.335 0 002.958-.929 10.466 10.466 0 002.659-1.73 9.935 9.935 0 002.431-3.485 15.66 15.66 0 001.009-5.55z"/></g><g data-name="グループ 17584"><path data-name="パス 48419" d="M72.267 72.557h5.427V62.18h-5.037v-2.1h12.171v2.1h-4.951v10.377h5.4v2.1h-13.01z"/><path data-name="パス 48420" d="M88.663 63.261v-2.075h5.059v-2.378h2.162v2.378h5.187a13.868 13.868 0 01-.756 1.666 23.627 23.627 0 01-3.849 4.821 48.2 48.2 0 004.994 3.047v2.378a32.553 32.553 0 01-5.663-3.5v6.163h-2.032v-5.8a26.091 26.091 0 01-2.973 1.859q-1.33.692-2.951 1.34v-2.14a24.245 24.245 0 005.7-3.372 21.881 21.881 0 003.988-4.39z"/><path data-name="パス 48421" d="M57.147 64.023c3.511-1.572 6.446-3.485 8.045-5.477a20.686 20.686 0 002.07 3.17h2.725a27.721 27.721 0 01-4.245-7h-2.41a40.05 40.05 0 001.6 3.354h-1.808a14.4 14.4 0 01-4.037 2.962 3.757 3.757 0 00.131-1.049v-6.185h-2.279v5.66c0 .446-.21.55-.681.55h-3.066v2.071h3.642a40.248 40.248 0 01-10.824 2.83v2.306a42.593 42.593 0 004.35-.864v11.425h17.3v-13.81h-9.224zm-4.613 7.836v-6.132c.027 0 .078-.026.105-.026H65.48v10.167H52.533v-4.01z"/><path data-name="パス 48422" d="M49.073 61.716h-2.777a23.5 23.5 0 004.429-7h2.41a22.137 22.137 0 01-4.062 7z"/><path data-name="パス 48423" d="M79.877 72.557h5.4v2.1h-13.01v-2.1h5.426"/><path data-name="パス 48424" d="M93.722 61.185v-2.378h2.162v2.378"/><path data-name="パス 48425" d="M52.533 73.431H64.64v-1.573H52.533"/><path data-name="パス 48426" d="M52.533 69.605H64.64v-1.6H52.533"/></g></g><g data-name="グループ 17586"><path data-name="パス 48427" d="M49.222 49.342h-3.8a33.076 33.076 0 004.157-9.462h3.4a41.369 41.369 0 01-3.757 9.462zm28.665-24.779c-.2 1.9-1.228 2.573-3.524 2.573h-6.81c-1.782 0-2.771-.791-2.771-2.613v-5.028h-3.246c-1.743 5.543-6.929 8.829-13.58 9.7v-2.811c5.385-.792 8.908-3.088 10.215-6.889h-8.676v5.068h-3.326v-7.918h15.758v-2.776h3.523v2.771h15.678v7.923zm-2.02 13.857c-.435-.792-1.029-1.822-1.663-2.97a176.65 176.65 0 01-22.131 1.306h-4.038v-3.207h4.077c.831 0 1.663-.039 2.494-.039a165.005 165.005 0 004.513-7.126h4.038a119.713 119.713 0 01-4.394 7.048c4.79-.16 9.7-.435 13.658-.911-.871-1.347-1.663-2.652-2.375-3.564h3.683a68.737 68.737 0 015.74 9.463zm1.9-18.926h-9.739v4.237c0 .594.238.831.95.831h4.4c1.148 0 1.5-.277 1.5-1.109v-1.069h2.889z" fill="#eb5e00"/></g></g><path data-name="パス 48428" d="M76.385 45.489l-2.133-6.165h-3.761l2.178 6.165z" fill="#eb5e00"/><path data-name="パス 48429" d="M68.76 45.489l-2.133-6.165h-3.761l2.178 6.165z" fill="#eb5e00"/><path data-name="パス 48430" d="M77.596 45.368c-.057 1.791-.615 2.074-2.37 2.074H59.951c-.712 0-.949-.078-.949-.871v-7.442h-3.326v8.473c0 1.979.633 2.77 2.85 2.77h17.533c3.515 0 4.863-1.1 4.868-5z" fill="#eb5e00"/></g></svg>