<svg xmlns="http://www.w3.org/2000/svg" width="300" height="40"><g data-name="グループ 18151" transform="translate(-660 -451)"><rect data-name="長方形 4295" width="300" height="40" rx="8" transform="translate(660 451)" fill="#eb5e00"/><path data-name="パス 331751" d="M723.254 469.144v-2.992h6.006a.958.958 0 00.9-1.056.958.958 0 00-.9-1.056h-6.006v-2.816c0-.66-.594-.968-1.21-.968-.594 0-1.21.308-1.21.968v2.816h-2.816c.2-.462.374-.924.528-1.364a1.094 1.094 0 00.066-.352 1.135 1.135 0 00-1.21-1.056 1.118 1.118 0 00-1.078.748 18.382 18.382 0 01-2.244 4.51 1.183 1.183 0 00-.242.7 1.091 1.091 0 001.144 1.056 1.358 1.358 0 001.144-.66c.308-.462.616-.946.9-1.474h3.806v2.992h-7.942a.985.985 0 00-.946 1.078 1 1 0 00.948 1.082h5.408c-.4 3.52-2.046 5.434-5.5 6.93a1.158 1.158 0 00-.77 1.078 1.164 1.164 0 001.17 1.192 1.291 1.291 0 00.55-.11c3.982-1.654 6.534-4.49 6.974-9.09h2.4v6.446c0 1.8.572 2.4 4.136 2.4 3.212 0 4.356-.77 4.664-3.454v-.132a1.12 1.12 0 00-1.212-1.06 1.076 1.076 0 00-1.166.946c-.132 1.454-.418 1.654-2.266 1.654-1.54 0-1.76-.176-1.76-.7v-6.1h5.61a1 1 0 00.97-1.078.989.989 0 00-.968-1.078zm25.366-3.344h4a.9.9 0 00.858-.99.892.892 0 00-.858-.99h-3.872a13.01 13.01 0 00.748-1.936 1.726 1.726 0 00.044-.308 1.049 1.049 0 00-1.144-.968 1.074 1.074 0 00-1.078.77 18.888 18.888 0 01-.858 2.442h-2.332c.352-.638.682-1.3.946-1.914a1.388 1.388 0 00.11-.484A1.11 1.11 0 00744 460.41a1.043 1.043 0 00-1.012.682 19.887 19.887 0 01-3.652 5.742 1.145 1.145 0 00-.33.77 1.11 1.11 0 001.1 1.056 1.116 1.116 0 00.88-.418c.132-.154.286-.308.418-.484v6.226c0 1.716.7 2.464 2.794 2.464h8.646a.912.912 0 00.856-1.012.912.912 0 00-.858-1.012h-4.222v-1.65h3.146a.855.855 0 00.792-.946.843.843 0 00-.792-.946h-3.146V469.3h3.146a.855.855 0 00.792-.946.843.843 0 00-.792-.946h-3.146zm-4.928 3.5h2.684v1.584h-2.684zm0-1.892v-1.034c0-.462.132-.572.7-.572h1.98v1.606zm2.684 7.018H744.4c-.572 0-.7-.11-.7-.572v-1.08h2.684zm-7.326-2.268c0-1.672-.66-2.442-2.464-2.442h-1.738a1 1 0 00-.968 1.078 1.008 1.008 0 00.968 1.1h1.21c.572 0 .66.154.66.572v3.762a15.859 15.859 0 01-2.464 2.112 1.266 1.266 0 00-.616 1.034 1.188 1.188 0 001.162 1.166 1.291 1.291 0 00.748-.264 17.2 17.2 0 002.53-2.332c1.672 1.65 4.026 2.31 9.306 2.31 2.332 0 4.158-.066 5.94-.176a1.1 1.1 0 001.06-1.166 1.055 1.055 0 00-1.078-1.144h-.132a56.046 56.046 0 01-5.83.242c-4.862 0-6.952-.528-8.294-1.914zm-2.134-10.34a1.471 1.471 0 00-.836-.286 1.215 1.215 0 00-1.232 1.144 1.135 1.135 0 00.44.858 13.335 13.335 0 011.672 1.672 1.324 1.324 0 00.99.506 1.279 1.279 0 001.25-1.232 1.261 1.261 0 00-.352-.88 10.022 10.022 0 00-1.932-1.782zm24.508 16.764c1.628 0 2.42-.55 2.42-2.288v-9.988c0-1.716-.682-2.288-2.2-2.288h-.528c.242-.814.374-1.518.506-2.178a.609.609 0 00.022-.2 1.024 1.024 0 00-1.122-.946 1.117 1.117 0 00-1.166.968 20.886 20.886 0 01-.528 2.354h-.11c-1.518 0-2.2.572-2.2 2.288v9.988c0 1.716.814 2.288 2.42 2.288zm-2.068-2.068c-.484 0-.594-.2-.594-.66v-3.938h2.838v3.938c0 .528-.154.66-.594.66zm2.244-6.578h-2.838v-3.278c0-.528.154-.66.594-.66h1.65c.44 0 .594.132.594.66zm7.128-5.1a25.151 25.151 0 00.9-2.86 1.514 1.514 0 00.044-.286 1.182 1.182 0 00-1.254-1.1 1.161 1.161 0 00-1.166.9 21.744 21.744 0 01-2.618 6.38 1.361 1.361 0 00-.242.726 1.143 1.143 0 001.168 1.076 1.3 1.3 0 001.122-.682 21.574 21.574 0 001.122-2h4.312c.616 0 .792.154.792.682a54.208 54.208 0 01-.748 9.394c-.154.77-.418.968-.99.968a5.873 5.873 0 01-1.122-.134.987.987 0 00-.242-.022 1.2 1.2 0 00-1.206 1.232 1.227 1.227 0 001.078 1.21 8.16 8.16 0 001.628.154c1.782 0 2.794-.77 3.212-2.86a57.569 57.569 0 00.814-10.252c0-1.694-.77-2.53-2.728-2.53zm.374 5.3a1.316 1.316 0 00-.924-.418 1.17 1.17 0 00-1.21 1.078 1.123 1.123 0 00.286.7 24.5 24.5 0 011.518 2.114 1.192 1.192 0 001.034.638 1.24 1.24 0 001.232-1.21 1.327 1.327 0 00-.22-.726 13.592 13.592 0 00-1.718-2.178zm28.336-5.852c0-1.5-.814-2.112-2.838-2.112h-5.456v-1.188c0-.594-.594-.9-1.188-.9-.616 0-1.21.308-1.21.9v1.188h-5.324c-2.024 0-2.816.616-2.816 2.112v1.342a1.04 1.04 0 001.166.946 1.032 1.032 0 001.144-.946v-1.036c0-.418.176-.594.77-.594h3.256a1.064 1.064 0 00-.462.418 7.842 7.842 0 01-4.774 3.386.953.953 0 00-.77.924 1.009 1.009 0 00.99 1.034.855.855 0 00.33-.044 10.2 10.2 0 006.072-4.444 1.175 1.175 0 00.11-.44.9.9 0 00-.616-.83h2.794v2.464c0 1.452.616 1.87 3.344 1.87 2.75 0 3.652-.572 3.828-2.244a1.254 1.254 0 00.484.088 1.04 1.04 0 001.166-.946zm-6.666-.284h3.608c.572 0 .726.154.726.572v.638a1.246 1.246 0 00-.4-.066.9.9 0 00-.968.726c-.088.594-.352.792-1.782.792-1.056 0-1.188-.11-1.188-.55zm2.222 8.624c.308.308.594.594.88.9a1.181 1.181 0 00.858.418 1.129 1.129 0 001.1-1.078 1.185 1.185 0 00-.4-.814 25.543 25.543 0 00-3.652-2.992 1.193 1.193 0 00-.682-.22 1.048 1.048 0 00-1.078.968.918.918 0 00.44.748 7.816 7.816 0 01.682.506c-1.738.132-3.5.264-5.28.352.55-.77 1.056-1.54 1.474-2.266a1.223 1.223 0 00.176-.572 1.058 1.058 0 00-1.122-.968 1.222 1.222 0 00-1.1.7 23.45 23.45 0 01-2.064 3.194c-.924.022-1.848.044-2.772.044a.953.953 0 00-1.034.968 1 1 0 001.08 1.01c3.716-.088 8.116-.352 12.494-.902zm-9.922 5.826c0 1.738.572 2.156 4.906 2.156 4.312 0 5.28-.726 5.478-2.948v-.11a1.061 1.061 0 00-1.166-1.012 1.02 1.02 0 00-1.1.88c-.11 1.1-.484 1.342-3.212 1.342-2.4 0-2.6-.11-2.6-.594v-2.706a1.018 1.018 0 00-1.144-.946c-.594 0-1.166.308-1.166.946zm-3.172-2.75a11.267 11.267 0 01-1.232 2.156 1.124 1.124 0 00-.242.682 1.122 1.122 0 001.174 1.034 1.229 1.229 0 00.99-.506 12.667 12.667 0 001.386-2.53 1.388 1.388 0 00.11-.484 1.081 1.081 0 00-1.144-.99 1.1 1.1 0 00-1.042.638zm15.686-.528a1.261 1.261 0 00-.88-.352 1.122 1.122 0 00-1.166 1.012 1.055 1.055 0 00.308.726 21.483 21.483 0 011.588 1.914 1.144 1.144 0 00.924.506 1.185 1.185 0 001.188-1.122 1.183 1.183 0 00-.242-.7 13.182 13.182 0 00-1.716-1.984zm-7.386-1.232a1.258 1.258 0 00-.594-.154 1.072 1.072 0 00-1.1.99.927.927 0 00.462.77c.418.286.924.7 1.3 1.012a1.176 1.176 0 00.726.286 1.067 1.067 0 001.052-1.034 1.1 1.1 0 00-.462-.88 8.814 8.814 0 00-1.384-.99zm24.7-4.708c0 4.4-1.452 7.062-5.126 8.866a1.3 1.3 0 00-.81 1.144 1.314 1.314 0 001.3 1.3 1.646 1.646 0 00.66-.176c4.244-2.026 6.62-5.392 6.62-10.958v-6.534a1.182 1.182 0 00-1.3-1.122 1.2 1.2 0 00-1.344 1.122zm-5.8-5.984a1.21 1.21 0 00-1.32-1.166 1.21 1.21 0 00-1.32 1.166v8.646a1.207 1.207 0 001.32 1.144 1.207 1.207 0 001.32-1.144zm28.358.2a25.814 25.814 0 01-9.9 13.442 1.592 1.592 0 00-.814 1.32 1.324 1.324 0 001.316 1.318 1.706 1.706 0 00.9-.308 28.623 28.623 0 0011.132-15 1.33 1.33 0 00.088-.484 1.328 1.328 0 00-1.38-1.28 1.381 1.381 0 00-1.346.99zm9.57 7.942a1.423 1.423 0 00-.44 1.012 1.227 1.227 0 001.254 1.188 1.505 1.505 0 001.052-.49l3.982-4a1.013 1.013 0 01.726-.418 1.2 1.2 0 01.748.352l8.954 7.3a1.679 1.679 0 001.078.418 1.352 1.352 0 001.364-1.342 1.551 1.551 0 00-.66-1.21l-9.724-7.546a2.882 2.882 0 00-1.782-.682 2.742 2.742 0 00-1.914.88zm12.254-5.72a16 16 0 011.628 1.87.881.881 0 00.726.418.9.9 0 00.88-.88.919.919 0 00-.2-.594 10.991 10.991 0 00-1.716-1.916.918.918 0 00-.616-.242.916.916 0 00-.924.836.782.782 0 00.218.506zm2.2-1.738c.506.528 1.122 1.188 1.628 1.826a.957.957 0 00.77.4.859.859 0 00.88-.836 1.024 1.024 0 00-.242-.66 11.032 11.032 0 00-1.694-1.8 1.057 1.057 0 00-.66-.264.884.884 0 00-.924.814.727.727 0 00.238.518zm15.33 5.674v.836h-6.16a.809.809 0 00-.792.88.809.809 0 00.792.88h6.16v.9h-8.118a.871.871 0 00-.858.924.871.871 0 00.858.924h8.118v.924h-6.16a.809.809 0 00-.792.88.809.809 0 00.792.88h6.16v.726c0 .418-.11.572-.594.572a4.462 4.462 0 01-.9-.088.987.987 0 00-.242-.022 1.092 1.092 0 00-1.1 1.122 1.056 1.056 0 00.924 1.08 8.3 8.3 0 001.65.132c1.584 0 2.508-.594 2.508-2.464v-1.056h3.562c2.376 0 2.992-.572 2.992-2.024v-.66h1.716a.882.882 0 00.9-.924.882.882 0 00-.9-.924h-1.716v-.638c0-1.452-.616-2.024-2.992-2.024h-3.564v-.836h3.828c1.32 0 1.98-.616 1.98-1.694V466.7c0-1.078-.66-1.694-1.98-1.694h-3.828v-.858h7.788a.925.925 0 00.9-.99.913.913 0 00-.9-.99h-7.788v-1.122a1.032 1.032 0 00-1.144-.946.988.988 0 00-1.1.924v1.144h-7.48a.9.9 0 00-.88.968.941.941 0 00.88 1.012h7.48v.858h-3.564c-1.32 0-1.98.616-1.98 1.694v1.21c0 1.232.858 1.694 1.98 1.694zm-2.812-1.65c-.352 0-.572-.044-.572-.44v-.416c0-.308.11-.44.572-.44h2.816v1.3zm5.06-1.3h3.08c.462 0 .572.132.572.44v.418c0 .308-.11.44-.572.44h-3.08zm0 5.544h3.388c.792 0 .924.066.924.506v.4h-4.316zm4.312 2.75v.418c0 .44-.132.506-.924.506h-3.392v-.924zm15.466-5.17v1.12h-5.328a.813.813 0 00-.77.9.825.825 0 00.77.9h5.324v1.166h-7.612a.852.852 0 00-.814.924.852.852 0 00.814.924h6.16a25.624 25.624 0 01-6.732 2.758.985.985 0 00-.814.968.994.994 0 001.012 1.012 2.194 2.194 0 00.352-.044 26.829 26.829 0 007.722-3.454l-.088 2v1.32c0 .572.572.858 1.122.858.572 0 1.122-.286 1.122-.858v-1.318l-.11-2.09a25.618 25.618 0 007.832 3.366 2.45 2.45 0 00.374.044 1.033 1.033 0 001.056-1.076 1.044 1.044 0 00-.88-1.056 26.313 26.313 0 01-6.842-2.42h6.248a.838.838 0 00.814-.924.838.838 0 00-.814-.924h-7.678v-1.168h5.456a.811.811 0 00.77-.9.8.8 0 00-.77-.9h-5.456v-1.126h7.26a.835.835 0 00.792-.924.835.835 0 00-.792-.924H901.5a10.83 10.83 0 00.682-1.122.924.924 0 00.132-.462.8.8 0 00-.374-.66h5.08a.868.868 0 00.836-.968.861.861 0 00-.836-.946h-3.388a1.342 1.342 0 00.352-.264 9.137 9.137 0 001.016-1.364 1.147 1.147 0 00.176-.528 1.088 1.088 0 00-1.122-.968 1.039 1.039 0 00-.924.528 7.775 7.775 0 01-.814 1.122.97.97 0 00-.242.638.937.937 0 00.572.836h-1.76v-2.706c0-.616-.55-.9-1.1-.9-.572 0-1.122.286-1.122.9v2.706h-1.544v-2.706c0-.616-.55-.9-1.1-.9s-1.1.286-1.1.9v2.706h-1.65a.99.99 0 00.594-.858 1.339 1.339 0 00-.264-.726 6.277 6.277 0 00-.924-1.078 1.137 1.137 0 00-.814-.352 1.045 1.045 0 00-1.078.946.857.857 0 00.242.572 8.57 8.57 0 01.836 1.078 1.183 1.183 0 00.462.418h-3.344a.872.872 0 00-.814.946.879.879 0 00.814.968h5.038a.8.8 0 00-.4.682.94.94 0 00.22.572c.22.286.418.594.638.924l.044.066h-4.528a.835.835 0 00-.792.924.835.835 0 00.792.924zm-.594-1.848a.868.868 0 00.22-.55.957.957 0 00-.154-.506 8.433 8.433 0 00-.726-1.012.861.861 0 00-.22-.176h5.082a1.271 1.271 0 00-.4.484 11.6 11.6 0 01-.99 1.76z" fill="#fff"/></g></svg>