<svg xmlns="http://www.w3.org/2000/svg" width="55.544" height="10.274"><g data-name="グループ 18186"><g data-name="グループ 18185" fill="#1a1311"><path data-name="パス 331222" d="M9.792 5.359a4.9 4.9 0 11-4.9-4.9 4.92 4.92 0 014.9 4.9zm-.8 0a4.105 4.105 0 10-4.1 4.251 4.108 4.108 0 004.105-4.251zm-1.489 1a2.539 2.539 0 01-2.469 2.1 2.924 2.924 0 01-2.971-3.115A2.852 2.852 0 014.995 2.25a2.349 2.349 0 012.508 2.048h-.714a1.757 1.757 0 00-1.781-1.387 2.183 2.183 0 00-2.152 2.415 2.3 2.3 0 002.179 2.469A1.744 1.744 0 006.79 6.357z"/><path data-name="パス 331223" d="M14.354 0v8.54h3.59v1.339h-5.073V-.003z"/><path data-name="パス 331224" d="M24.978 0v9.879h-1.519V-.003z"/><path data-name="パス 331225" d="M33.948 3.719L36.205 0h1.746l-3.118 4.8 3.3 5.082h-1.746l-2.442-3.984-2.43 3.984h-1.758l3.3-5.082L29.942 0h1.743z"/><path data-name="パス 331226" d="M44.437 0v9.879h-1.519V-.003z"/><path data-name="パス 331227" d="M51.955 0v8.54h3.59v1.339h-5.073V-.003z"/></g></g></svg>